<svg viewBox="0 0 200 200" xmlns="http://www.w3.org/2000/svg">
<path d="M 140.0 100.0 A 40 40 0.0 0 1 128.2842712474619 128.2842712474619" stroke="#aaa" stroke-width="1" stroke-linecap="round" fill="none/>"
<path d="M 140.0 100.0 A 40 40 0.0 0 1 128.2842712474619 128.2842712474619" stroke="#aaa" stroke-width="1" stroke-linecap="round" fill="none/>"
<path d="M 128.2842712474619 128.2842712474619 A 40 40 0.0 0 1 100.0 140.0" stroke="#aaa" stroke-width="1" stroke-linecap="round" fill="none/>"
<path d="M 130.0 100.0 A 30 30 0.0 0 1 121.21320343559643 121.21320343559643" stroke="#aaa" stroke-width="1" stroke-linecap="round" fill="none/>"
<path d="M 130.0 100.0 A 30 30 0.0 0 1 121.21320343559643 121.21320343559643" stroke="#aaa" stroke-width="1" stroke-linecap="round" fill="none/>"
<path d="M 100.0 140.0 A 40 40 0.0 0 1 71.7157287525381 128.2842712474619" stroke="#aaa" stroke-width="1" stroke-linecap="round" fill="none/>"
<path d="M 121.21320343559643 121.21320343559643 A 30 30 0.0 0 1 100.0 130.0" stroke="#aaa" stroke-width="1" stroke-linecap="round" fill="none/>"
<path d="M 71.7157287525381 128.2842712474619 A 40 40 0.0 0 1 60.0 100.0" stroke="#aaa" stroke-width="1" stroke-linecap="round" fill="none/>"
<path d="M 100.0 130.0 A 30 30 0.0 0 1 78.78679656440357 121.21320343559643" stroke="#aaa" stroke-width="1" stroke-linecap="round" fill="none/>"
<path d="M 60.0 100.0 A 40 40 0.0 0 1 71.7157287525381 71.7157287525381" stroke="#aaa" stroke-width="1" stroke-linecap="round" fill="none/>"
<path d="M 71.7157287525381 71.7157287525381 A 40 40 0.0 0 1 99.99999999999999 60.0" stroke="#aaa" stroke-width="1" stroke-linecap="round" fill="none/>"
<path d="M 78.78679656440357 78.78679656440357 A 30 30 0.0 0 1 100.0 70.0" stroke="#aaa" stroke-width="1" stroke-linecap="round" fill="none/>"
<path d="M 110.0 100.0 A 10 10 0.0 0 1 107.07106781186548 107.07106781186548" stroke="#aaa" stroke-width="1" stroke-linecap="round" fill="none/>"
<path d="M 107.07106781186548 107.07106781186548 A 10 10 0.0 0 1 100.0 110.0" stroke="#aaa" stroke-width="1" stroke-linecap="round" fill="none/>"
<path d="M 92.92893218813452 107.07106781186548 A 10 10 0.0 0 1 90.0 100.0" stroke="#aaa" stroke-width="1" stroke-linecap="round" fill="none/>"
<path d="M 90.0 100.0 A 10 10 0.0 0 1 92.92893218813452 92.92893218813452" stroke="#aaa" stroke-width="1" stroke-linecap="round" fill="none/>"
<path d="M 92.92893218813452 92.92893218813452 A 10 10 0.0 0 1 100.0 90.0" stroke="#aaa" stroke-width="1" stroke-linecap="round" fill="none/>"
<path d="M 100.0 90.0 A 10 10 0.0 0 1 107.07106781186548 92.92893218813452" stroke="#aaa" stroke-width="1" stroke-linecap="round" fill="none/>"
</svg>
