<svg viewBox="0 0 200 200" xmlns="http://www.w3.org/2000/svg">
<line x2="121.69418695587792" y2="54.95155660487905" x1="100.0" y1="50.0" stroke="#aaa" stroke-width="1" stroke-linecap="round"/>
<line x2="60.908425876598514" y2="68.82550990706332" x1="78.3058130441221" y1="54.951556604879045" stroke="#aaa" stroke-width="1" stroke-linecap="round"/>
<line x2="82.64465043529768" y2="63.96124528390323" x1="78.3058130441221" y1="54.951556604879045" stroke="#aaa" stroke-width="1" stroke-linecap="round"/>
<line x2="82.64465043529768" y2="63.96124528390323" x1="100.0" y1="60.0" stroke="#aaa" stroke-width="1" stroke-linecap="round"/>
<line x2="51.253604390908826" y2="88.87395330218428" x1="60.908425876598514" y1="68.82550990706332" stroke="#aaa" stroke-width="1" stroke-linecap="round"/>
<line x2="68.72674070127881" y2="75.06040792565065" x1="82.64465043529768" y1="63.96124528390323" stroke="#aaa" stroke-width="1" stroke-linecap="round"/>
<line x2="51.25360439090882" y2="111.12604669781571" x1="51.253604390908826" y1="88.87395330218428" stroke="#aaa" stroke-width="1" stroke-linecap="round"/>
<line x2="61.00288351272706" y2="91.09916264174741" x1="68.72674070127881" y1="75.06040792565065" stroke="#aaa" stroke-width="1" stroke-linecap="round"/>
<line x2="76.54505552595911" y2="81.29530594423798" x1="68.72674070127881" y1="75.06040792565065" stroke="#aaa" stroke-width="1" stroke-linecap="round"/>
<line x2="61.00288351272705" y2="108.90083735825257" x1="51.25360439090882" y1="111.12604669781571" stroke="#aaa" stroke-width="1" stroke-linecap="round"/>
<line x2="78.30581304412209" y2="145.04844339512096" x1="60.90842587659851" y1="131.17449009293668" stroke="#aaa" stroke-width="1" stroke-linecap="round"/>
<line x2="68.7267407012788" y2="124.93959207434933" x1="61.00288351272705" y1="108.90083735825257" stroke="#aaa" stroke-width="1" stroke-linecap="round"/>
<line x2="82.64465043529768" y2="136.03875471609678" x1="78.30581304412209" y1="145.04844339512096" stroke="#aaa" stroke-width="1" stroke-linecap="round"/>
<line x2="99.99999999999999" y2="150.0" x1="78.30581304412209" y1="145.04844339512096" stroke="#aaa" stroke-width="1" stroke-linecap="round"/>
<line x2="82.64465043529768" y2="136.03875471609678" x1="68.7267407012788" y1="124.93959207434933" stroke="#aaa" stroke-width="1" stroke-linecap="round"/>
<line x2="121.6941869558779" y2="145.04844339512096" x1="99.99999999999999" y1="150.0" stroke="#aaa" stroke-width="1" stroke-linecap="round"/>
<line x2="99.99999999999999" y2="140.0" x1="82.64465043529768" y1="136.03875471609678" stroke="#aaa" stroke-width="1" stroke-linecap="round"/>
<line x2="86.98348782647325" y2="127.02906603707257" x1="82.64465043529768" y1="136.03875471609678" stroke="#aaa" stroke-width="1" stroke-linecap="round"/>
<line x2="117.35534956470232" y2="136.03875471609678" x1="99.99999999999999" y1="140.0" stroke="#aaa" stroke-width="1" stroke-linecap="round"/>
<line x2="99.99999999999999" y2="130.0" x1="99.99999999999999" y1="140.0" stroke="#aaa" stroke-width="1" stroke-linecap="round"/>
<line x2="148.74639560909117" y2="111.12604669781574" x1="139.09157412340147" y1="131.17449009293668" stroke="#aaa" stroke-width="1" stroke-linecap="round"/>
<line x2="131.27325929872117" y2="124.93959207434935" x1="139.09157412340147" y1="131.17449009293668" stroke="#aaa" stroke-width="1" stroke-linecap="round"/>
<line x2="148.7463956090912" y2="88.87395330218429" x1="148.74639560909117" y1="111.12604669781574" stroke="#aaa" stroke-width="1" stroke-linecap="round"/>
<line x2="138.99711648727293" y2="91.09916264174744" x1="148.7463956090912" y1="88.87395330218429" stroke="#aaa" stroke-width="1" stroke-linecap="round"/>
<line x2="139.0915741234015" y2="68.82550990706333" x1="148.7463956090912" y1="88.87395330218429" stroke="#aaa" stroke-width="1" stroke-linecap="round"/>
<line x2="138.99711648727293" y2="91.09916264174744" x1="138.99711648727293" y1="108.90083735825259" stroke="#aaa" stroke-width="1" stroke-linecap="round"/>
<line x2="131.2732592987212" y2="75.06040792565067" x1="139.0915741234015" y1="68.82550990706333" stroke="#aaa" stroke-width="1" stroke-linecap="round"/>
<line x2="117.35534956470234" y2="63.961245283903246" x1="121.69418695587792" y1="54.95155660487905" stroke="#aaa" stroke-width="1" stroke-linecap="round"/>
<line x2="123.4549444740409" y2="81.29530594423801" x1="131.2732592987212" y1="75.06040792565067" stroke="#aaa" stroke-width="1" stroke-linecap="round"/>
<line x2="117.35534956470234" y2="63.961245283903246" x1="131.2732592987212" y1="75.06040792565067" stroke="#aaa" stroke-width="1" stroke-linecap="round"/>
<line x2="113.01651217352675" y2="72.97093396292743" x1="117.35534956470234" y1="63.961245283903246" stroke="#aaa" stroke-width="1" stroke-linecap="round"/>
<line x2="113.01651217352675" y2="72.97093396292743" x1="100.0" y1="70.0" stroke="#aaa" stroke-width="1" stroke-linecap="round"/>
<line x2="76.54505552595911" y2="81.29530594423798" x1="86.98348782647327" y1="72.97093396292743" stroke="#aaa" stroke-width="1" stroke-linecap="round"/>
<line x2="80.50144175636353" y2="95.54958132087371" x1="70.7521626345453" y1="93.32437198131056" stroke="#aaa" stroke-width="1" stroke-linecap="round"/>
<line x2="76.5450555259591" y2="118.704694055762" x1="70.7521626345453" y1="106.67562801868942" stroke="#aaa" stroke-width="1" stroke-linecap="round"/>
<line x2="84.3633703506394" y2="112.46979603717466" x1="76.5450555259591" y1="118.704694055762" stroke="#aaa" stroke-width="1" stroke-linecap="round"/>
<line x2="91.32232521764884" y2="118.01937735804839" x1="86.98348782647325" y1="127.02906603707257" stroke="#aaa" stroke-width="1" stroke-linecap="round"/>
<line x2="100.0" y2="120.0" x1="99.99999999999999" y1="130.0" stroke="#aaa" stroke-width="1" stroke-linecap="round"/>
<line x2="113.01651217352673" y2="127.02906603707258" x1="99.99999999999999" y1="130.0" stroke="#aaa" stroke-width="1" stroke-linecap="round"/>
<line x2="108.67767478235116" y2="118.01937735804839" x1="113.01651217352673" y1="127.02906603707258" stroke="#aaa" stroke-width="1" stroke-linecap="round"/>
<line x2="129.2478373654547" y2="106.67562801868944" x1="123.45494447404089" y1="118.70469405576202" stroke="#aaa" stroke-width="1" stroke-linecap="round"/>
<line x2="129.2478373654547" y2="93.32437198131058" x1="129.2478373654547" y1="106.67562801868944" stroke="#aaa" stroke-width="1" stroke-linecap="round"/>
<line x2="119.49855824363647" y2="95.54958132087371" x1="129.2478373654547" y1="93.32437198131058" stroke="#aaa" stroke-width="1" stroke-linecap="round"/>
<line x2="123.4549444740409" y2="81.29530594423801" x1="129.2478373654547" y1="93.32437198131058" stroke="#aaa" stroke-width="1" stroke-linecap="round"/>
<line x2="115.6366296493606" y2="87.53020396282534" x1="123.4549444740409" y1="81.29530594423801" stroke="#aaa" stroke-width="1" stroke-linecap="round"/>
<line x2="100" y2="100" x1="100.0" y1="80.0" stroke="#aaa" stroke-width="1" stroke-linecap="round"/>
<line x2="100" y2="100" x1="91.32232521764884" y1="81.98062264195161" stroke="#aaa" stroke-width="1" stroke-linecap="round"/>
<line x2="84.3633703506394" y2="87.53020396282533" x1="91.32232521764884" y1="81.98062264195161" stroke="#aaa" stroke-width="1" stroke-linecap="round"/>
<line x2="100" y2="100" x1="80.50144175636353" y1="95.54958132087371" stroke="#aaa" stroke-width="1" stroke-linecap="round"/>
<line x2="80.50144175636353" y2="104.45041867912629" x1="80.50144175636353" y1="95.54958132087371" stroke="#aaa" stroke-width="1" stroke-linecap="round"/>
<line x2="84.3633703506394" y2="112.46979603717466" x1="80.50144175636353" y1="104.45041867912629" stroke="#aaa" stroke-width="1" stroke-linecap="round"/>
<line x2="91.32232521764884" y2="118.01937735804839" x1="84.3633703506394" y1="112.46979603717466" stroke="#aaa" stroke-width="1" stroke-linecap="round"/>
<line x2="119.49855824363647" y2="104.4504186791263" x1="115.63662964936059" y1="112.46979603717467" stroke="#aaa" stroke-width="1" stroke-linecap="round"/>
<line x2="119.49855824363647" y2="95.54958132087371" x1="119.49855824363647" y1="104.4504186791263" stroke="#aaa" stroke-width="1" stroke-linecap="round"/>
<line x2="100" y2="100" x1="119.49855824363647" y1="104.4504186791263" stroke="#aaa" stroke-width="1" stroke-linecap="round"/>
<line x2="100" y2="100" x1="108.67767478235118" y1="81.98062264195163" stroke="#aaa" stroke-width="1" stroke-linecap="round"/>
</svg>
