<svg viewBox="0 0 200 200" xmlns="http://www.w3.org/2000/svg">
<line x2="100.0" y2="60.0" x1="100.0" y1="50.0" stroke="#aaa" stroke-width="1" stroke-linecap="round"/>
<line x2="54.518400232274075" y2="79.22924934990569" x1="72.96795912722013" y1="57.93732335844094" stroke="#aaa" stroke-width="1" stroke-linecap="round"/>
<line x2="78.37436730177609" y2="66.34985868675275" x1="100.0" y1="60.0" stroke="#aaa" stroke-width="1" stroke-linecap="round"/>
<line x2="63.614720185819266" y2="83.38339947992455" x1="54.518400232274075" y1="79.22924934990569" stroke="#aaa" stroke-width="1" stroke-linecap="round"/>
<line x2="83.78077547633208" y2="74.76239401506456" x1="78.37436730177609" y1="66.34985868675275" stroke="#aaa" stroke-width="1" stroke-linecap="round"/>
<line x2="63.614720185819266" y2="83.38339947992455" x1="78.37436730177609" y1="66.34985868675275" stroke="#aaa" stroke-width="1" stroke-linecap="round"/>
<line x2="60.40714232476269" y2="105.69259353093139" x1="50.50892790595336" y1="107.11574191366424" stroke="#aaa" stroke-width="1" stroke-linecap="round"/>
<line x2="62.21252128228709" y2="132.74303669726424" x1="50.50892790595336" y1="107.11574191366424" stroke="#aaa" stroke-width="1" stroke-linecap="round"/>
<line x2="60.40714232476269" y2="105.69259353093139" x1="63.614720185819266" y1="83.38339947992455" stroke="#aaa" stroke-width="1" stroke-linecap="round"/>
<line x2="69.77001702582967" y2="126.1944293578114" x1="62.21252128228709" y1="132.74303669726424" stroke="#aaa" stroke-width="1" stroke-linecap="round"/>
<line x2="70.30535674357202" y2="104.26944514819854" x1="60.40714232476269" y1="105.69259353093139" stroke="#aaa" stroke-width="1" stroke-linecap="round"/>
<line x2="88.73069772634281" y2="138.3797189445799" x1="85.9133721579285" y1="147.97464868072487" stroke="#aaa" stroke-width="1" stroke-linecap="round"/>
<line x2="137.78747871771287" y2="132.74303669726427" x1="114.08662784207147" y1="147.97464868072487" stroke="#aaa" stroke-width="1" stroke-linecap="round"/>
<line x2="111.26930227365717" y2="138.3797189445799" x1="88.73069772634281" y1="138.3797189445799" stroke="#aaa" stroke-width="1" stroke-linecap="round"/>
<line x2="91.54802329475712" y2="128.78478920843492" x1="88.73069772634281" y1="138.3797189445799" stroke="#aaa" stroke-width="1" stroke-linecap="round"/>
<line x2="130.2299829741703" y2="126.19442935781143" x1="137.78747871771287" y1="132.74303669726427" stroke="#aaa" stroke-width="1" stroke-linecap="round"/>
<line x2="149.49107209404664" y2="107.11574191366427" x1="137.78747871771287" y1="132.74303669726427" stroke="#aaa" stroke-width="1" stroke-linecap="round"/>
<line x2="130.2299829741703" y2="126.19442935781143" x1="111.26930227365717" y1="138.3797189445799" stroke="#aaa" stroke-width="1" stroke-linecap="round"/>
<line x2="139.5928576752373" y2="105.69259353093142" x1="149.49107209404664" y1="107.11574191366427" stroke="#aaa" stroke-width="1" stroke-linecap="round"/>
<line x2="145.48159976772592" y2="79.22924934990567" x1="149.49107209404664" y1="107.11574191366427" stroke="#aaa" stroke-width="1" stroke-linecap="round"/>
<line x2="121.62563269822391" y2="66.34985868675275" x1="127.03204087277987" y1="57.93732335844094" stroke="#aaa" stroke-width="1" stroke-linecap="round"/>
<line x2="121.62563269822391" y2="66.34985868675275" x1="136.38527981418073" y1="83.38339947992453" stroke="#aaa" stroke-width="1" stroke-linecap="round"/>
<line x2="116.21922452366792" y2="74.76239401506456" x1="121.62563269822391" y1="66.34985868675275" stroke="#aaa" stroke-width="1" stroke-linecap="round"/>
<line x2="83.78077547633208" y2="74.76239401506456" x1="100.0" y1="70.0" stroke="#aaa" stroke-width="1" stroke-linecap="round"/>
<line x2="116.21922452366792" y2="74.76239401506456" x1="100.0" y1="70.0" stroke="#aaa" stroke-width="1" stroke-linecap="round"/>
<line x2="89.18718365088804" y2="83.17492934337638" x1="83.78077547633208" y1="74.76239401506456" stroke="#aaa" stroke-width="1" stroke-linecap="round"/>
<line x2="81.80736009290963" y2="91.69169973996227" x1="72.71104013936444" y1="87.53754960994341" stroke="#aaa" stroke-width="1" stroke-linecap="round"/>
<line x2="80.20357116238134" y2="102.8462967654657" x1="70.30535674357202" y1="104.26944514819854" stroke="#aaa" stroke-width="1" stroke-linecap="round"/>
<line x2="77.32751276937225" y2="119.64582201835856" x1="70.30535674357202" y1="104.26944514819854" stroke="#aaa" stroke-width="1" stroke-linecap="round"/>
<line x2="94.3653488631714" y2="119.18985947228995" x1="91.54802329475712" y1="128.78478920843492" stroke="#aaa" stroke-width="1" stroke-linecap="round"/>
<line x2="122.67248723062772" y2="119.64582201835857" x1="108.45197670524288" y1="128.78478920843492" stroke="#aaa" stroke-width="1" stroke-linecap="round"/>
<line x2="129.69464325642798" y2="104.26944514819856" x1="122.67248723062772" y1="119.64582201835857" stroke="#aaa" stroke-width="1" stroke-linecap="round"/>
<line x2="127.28895986063554" y2="87.5375496099434" x1="129.69464325642798" y1="104.26944514819856" stroke="#aaa" stroke-width="1" stroke-linecap="round"/>
<line x2="118.19263990709037" y2="91.69169973996226" x1="127.28895986063554" y1="87.5375496099434" stroke="#aaa" stroke-width="1" stroke-linecap="round"/>
<line x2="100" y2="100" x1="100.0" y1="80.0" stroke="#aaa" stroke-width="1" stroke-linecap="round"/>
<line x2="80.20357116238134" y2="102.8462967654657" x1="81.80736009290963" y1="91.69169973996227" stroke="#aaa" stroke-width="1" stroke-linecap="round"/>
<line x2="84.88500851291484" y2="113.0972146789057" x1="80.20357116238134" y1="102.8462967654657" stroke="#aaa" stroke-width="1" stroke-linecap="round"/>
<line x2="100" y2="100" x1="80.20357116238134" y1="102.8462967654657" stroke="#aaa" stroke-width="1" stroke-linecap="round"/>
<line x2="105.63465113682858" y2="119.18985947228995" x1="94.3653488631714" y1="119.18985947228995" stroke="#aaa" stroke-width="1" stroke-linecap="round"/>
<line x2="100" y2="100" x1="105.63465113682858" y1="119.18985947228995" stroke="#aaa" stroke-width="1" stroke-linecap="round"/>
<line x2="100" y2="100" x1="115.11499148708515" y1="113.09721467890571" stroke="#aaa" stroke-width="1" stroke-linecap="round"/>
<line x2="118.19263990709037" y2="91.69169973996226" x1="119.79642883761865" y1="102.84629676546571" stroke="#aaa" stroke-width="1" stroke-linecap="round"/>
<line x2="100" y2="100" x1="119.79642883761865" y1="102.84629676546571" stroke="#aaa" stroke-width="1" stroke-linecap="round"/>
<line x2="110.81281634911196" y2="83.17492934337638" x1="118.19263990709037" y1="91.69169973996226" stroke="#aaa" stroke-width="1" stroke-linecap="round"/>
</svg>
