<svg viewBox="0 0 200 200" xmlns="http://www.w3.org/2000/svg">
<line x2="162.5465185974424" y2="50.12081585130134" x1="100.00000000000001" y1="20.0" stroke="#aaa" stroke-width="1" stroke-linecap="round"/>
<line x2="22.005767025454105" y2="117.80167471650513" x1="37.45348140255763" y1="50.1208158513013" stroke="#aaa" stroke-width="1" stroke-linecap="round"/>
<line x2="100" y2="100" x1="37.45348140255763" y1="50.1208158513013" stroke="#aaa" stroke-width="1" stroke-linecap="round"/>
<line x2="100" y2="100" x1="100.00000000000001" y1="40.0" stroke="#aaa" stroke-width="1" stroke-linecap="round"/>
<line x2="100" y2="100" x1="168.24495385272763" y1="115.57646537694202" stroke="#aaa" stroke-width="1" stroke-linecap="round"/>
<line x2="100" y2="100" x1="121.6941869558779" y1="145.04844339512096" stroke="#aaa" stroke-width="1" stroke-linecap="round"/>
<line x2="100" y2="100" x1="45.27179622723792" y1="56.35571386988864" stroke="#aaa" stroke-width="1" stroke-linecap="round"/>
<line x2="100" y2="100" x1="162.5465185974424" y1="50.12081585130134" stroke="#aaa" stroke-width="1" stroke-linecap="round"/>
<line x2="100" y2="100" x1="78.30581304412209" y1="145.04844339512096" stroke="#aaa" stroke-width="1" stroke-linecap="round"/>
<line x2="100" y2="100" x1="148.74639560909117" y1="111.12604669781574" stroke="#aaa" stroke-width="1" stroke-linecap="round"/>
<line x2="100" y2="100" x1="86.98348782647325" y1="127.02906603707257" stroke="#aaa" stroke-width="1" stroke-linecap="round"/>
<line x2="100" y2="100" x1="134.71069912940465" y1="172.07750943219355" stroke="#aaa" stroke-width="1" stroke-linecap="round"/>
<line x2="100" y2="100" x1="53.09011105191822" y1="62.590611888475976" stroke="#aaa" stroke-width="1" stroke-linecap="round"/>
<line x2="100" y2="100" x1="129.2478373654547" y1="106.67562801868944" stroke="#aaa" stroke-width="1" stroke-linecap="round"/>
<line x2="100" y2="100" x1="138.99711648727293" y1="108.90083735825259" stroke="#aaa" stroke-width="1" stroke-linecap="round"/>
<line x2="100" y2="100" x1="100.00000000000001" y1="30.0" stroke="#aaa" stroke-width="1" stroke-linecap="round"/>
<line x2="100" y2="100" x1="82.64465043529768" y1="136.03875471609678" stroke="#aaa" stroke-width="1" stroke-linecap="round"/>
<line x2="100" y2="100" x1="69.62813826177091" y1="163.06782075316931" stroke="#aaa" stroke-width="1" stroke-linecap="round"/>
<line x2="100" y2="100" x1="65.28930087059534" y1="172.07750943219352" stroke="#aaa" stroke-width="1" stroke-linecap="round"/>
<line x2="100" y2="100" x1="51.25360439090882" y1="111.12604669781571" stroke="#aaa" stroke-width="1" stroke-linecap="round"/>
<line x2="100" y2="100" x1="123.4549444740409" y1="81.29530594423801" stroke="#aaa" stroke-width="1" stroke-linecap="round"/>
<line x2="100" y2="100" x1="100.0" y1="50.0" stroke="#aaa" stroke-width="1" stroke-linecap="round"/>
<line x2="100" y2="100" x1="68.72674070127881" y1="75.06040792565065" stroke="#aaa" stroke-width="1" stroke-linecap="round"/>
<line x2="100" y2="100" x1="100.0" y1="70.0" stroke="#aaa" stroke-width="1" stroke-linecap="round"/>
<line x2="100" y2="100" x1="130.37186173822906" y1="163.06782075316934" stroke="#aaa" stroke-width="1" stroke-linecap="round"/>
<line x2="100" y2="100" x1="73.9669756529465" y1="154.05813207414513" stroke="#aaa" stroke-width="1" stroke-linecap="round"/>
<line x2="162.5465185974424" y2="50.12081585130134" x1="177.99423297454587" y1="117.80167471650518" stroke="#aaa" stroke-width="1" stroke-linecap="round"/>
<line x2="154.7282037727621" y2="56.355713869888675" x1="100.00000000000001" y1="30.0" stroke="#aaa" stroke-width="1" stroke-linecap="round"/>
<line x2="31.755046147272353" y2="115.576465376942" x1="45.27179622723792" y1="56.35571386988864" stroke="#aaa" stroke-width="1" stroke-linecap="round"/>
<line x2="146.9098889480818" y2="62.590611888476005" x1="100.00000000000001" y1="40.0" stroke="#aaa" stroke-width="1" stroke-linecap="round"/>
<line x2="41.504325269090586" y2="113.35125603737885" x1="53.09011105191822" y1="62.590611888475976" stroke="#aaa" stroke-width="1" stroke-linecap="round"/>
<line x2="158.4956747309094" y2="113.35125603737887" x1="126.03302434705347" y1="154.05813207414516" stroke="#aaa" stroke-width="1" stroke-linecap="round"/>
<line x2="146.9098889480818" y2="62.590611888476005" x1="158.4956747309094" y1="113.35125603737887" stroke="#aaa" stroke-width="1" stroke-linecap="round"/>
<line x2="139.0915741234015" y2="68.82550990706333" x1="100.0" y1="50.0" stroke="#aaa" stroke-width="1" stroke-linecap="round"/>
<line x2="51.25360439090882" y2="111.12604669781571" x1="60.908425876598514" y1="68.82550990706332" stroke="#aaa" stroke-width="1" stroke-linecap="round"/>
<line x2="131.2732592987212" y2="75.06040792565067" x1="100.0" y1="60.0" stroke="#aaa" stroke-width="1" stroke-linecap="round"/>
<line x2="61.00288351272705" y2="108.90083735825257" x1="68.72674070127881" y1="75.06040792565065" stroke="#aaa" stroke-width="1" stroke-linecap="round"/>
<line x2="138.99711648727293" y2="108.90083735825259" x1="117.35534956470232" y1="136.03875471609678" stroke="#aaa" stroke-width="1" stroke-linecap="round"/>
<line x2="131.2732592987212" y2="75.06040792565067" x1="138.99711648727293" y1="108.90083735825259" stroke="#aaa" stroke-width="1" stroke-linecap="round"/>
<line x2="76.54505552595911" y2="81.29530594423798" x1="100.0" y1="70.0" stroke="#aaa" stroke-width="1" stroke-linecap="round"/>
<line x2="86.98348782647325" y2="127.02906603707257" x1="70.7521626345453" y1="106.67562801868942" stroke="#aaa" stroke-width="1" stroke-linecap="round"/>
<line x2="129.2478373654547" y2="106.67562801868944" x1="113.01651217352673" y1="127.02906603707258" stroke="#aaa" stroke-width="1" stroke-linecap="round"/>
<line x2="115.6366296493606" y2="87.53020396282534" x1="100.0" y1="80.0" stroke="#aaa" stroke-width="1" stroke-linecap="round"/>
<line x2="100.0" y2="90.0" x1="100.0" y1="80.0" stroke="#aaa" stroke-width="1" stroke-linecap="round"/>
<line x2="84.3633703506394" y2="87.53020396282533" x1="100.0" y1="80.0" stroke="#aaa" stroke-width="1" stroke-linecap="round"/>
<line x2="92.1816851753197" y2="93.76510198141267" x1="84.3633703506394" y1="87.53020396282533" stroke="#aaa" stroke-width="1" stroke-linecap="round"/>
<line x2="80.50144175636353" y2="104.45041867912629" x1="84.3633703506394" y1="87.53020396282533" stroke="#aaa" stroke-width="1" stroke-linecap="round"/>
<line x2="90.25072087818177" y2="102.22520933956314" x1="80.50144175636353" y1="104.45041867912629" stroke="#aaa" stroke-width="1" stroke-linecap="round"/>
<line x2="91.32232521764884" y2="118.01937735804839" x1="80.50144175636353" y1="104.45041867912629" stroke="#aaa" stroke-width="1" stroke-linecap="round"/>
<line x2="95.66116260882441" y2="109.0096886790242" x1="91.32232521764884" y1="118.01937735804839" stroke="#aaa" stroke-width="1" stroke-linecap="round"/>
<line x2="119.49855824363647" y2="104.4504186791263" x1="108.67767478235116" y1="118.01937735804839" stroke="#aaa" stroke-width="1" stroke-linecap="round"/>
<line x2="104.33883739117557" y2="109.0096886790242" x1="108.67767478235116" y1="118.01937735804839" stroke="#aaa" stroke-width="1" stroke-linecap="round"/>
<line x2="109.74927912181823" y2="102.22520933956315" x1="119.49855824363647" y1="104.4504186791263" stroke="#aaa" stroke-width="1" stroke-linecap="round"/>
<line x2="115.6366296493606" y2="87.53020396282534" x1="119.49855824363647" y1="104.4504186791263" stroke="#aaa" stroke-width="1" stroke-linecap="round"/>
<line x2="107.8183148246803" y2="93.76510198141267" x1="115.6366296493606" y1="87.53020396282534" stroke="#aaa" stroke-width="1" stroke-linecap="round"/>
</svg>
