<svg viewBox="0 0 200 200" xmlns="http://www.w3.org/2000/svg">
<line x2="132.13938048432695" y2="61.69777784405108" x1="100.0" y1="50.0" stroke="#aaa" stroke-width="1" stroke-linecap="round"/>
<line x2="67.86061951567304" y2="61.697777844051096" x1="100.0" y1="50.0" stroke="#aaa" stroke-width="1" stroke-linecap="round"/>
<line x2="74.28849561253843" y2="69.35822227524088" x1="67.86061951567304" y1="61.697777844051096" stroke="#aaa" stroke-width="1" stroke-linecap="round"/>
<line x2="125.71150438746156" y2="69.35822227524086" x1="100.0" y1="60.0" stroke="#aaa" stroke-width="1" stroke-linecap="round"/>
<line x2="60.60768987951168" y2="93.05407289332278" x1="50.7596123493896" y1="91.31759111665349" stroke="#aaa" stroke-width="1" stroke-linecap="round"/>
<line x2="80.71637170940383" y2="77.01866670643065" x1="74.28849561253843" y1="69.35822227524088" stroke="#aaa" stroke-width="1" stroke-linecap="round"/>
<line x2="60.60768987951168" y2="93.05407289332278" x1="74.28849561253843" y1="69.35822227524088" stroke="#aaa" stroke-width="1" stroke-linecap="round"/>
<line x2="65.35898384862244" y2="119.99999999999997" x1="56.69872981077805" y1="124.99999999999997" stroke="#aaa" stroke-width="1" stroke-linecap="round"/>
<line x2="82.89899283371658" y2="146.98463103929544" x1="56.69872981077805" y1="124.99999999999997" stroke="#aaa" stroke-width="1" stroke-linecap="round"/>
<line x2="70.45576740963375" y2="94.79055466999209" x1="60.60768987951168" y1="93.05407289332278" stroke="#aaa" stroke-width="1" stroke-linecap="round"/>
<line x2="117.10100716628341" y2="146.98463103929544" x1="82.89899283371658" y1="146.98463103929544" stroke="#aaa" stroke-width="1" stroke-linecap="round"/>
<line x2="86.31919426697326" y2="137.58770483143633" x1="82.89899283371658" y1="146.98463103929544" stroke="#aaa" stroke-width="1" stroke-linecap="round"/>
<line x2="74.01923788646683" y2="114.99999999999997" x1="65.35898384862244" y1="119.99999999999997" stroke="#aaa" stroke-width="1" stroke-linecap="round"/>
<line x2="143.30127018922192" y2="125.00000000000003" x1="117.10100716628341" y1="146.98463103929544" stroke="#aaa" stroke-width="1" stroke-linecap="round"/>
<line x2="113.68080573302673" y2="137.58770483143635" x1="117.10100716628341" y1="146.98463103929544" stroke="#aaa" stroke-width="1" stroke-linecap="round"/>
<line x2="89.73939570022995" y2="128.19077862357724" x1="86.31919426697326" y1="137.58770483143633" stroke="#aaa" stroke-width="1" stroke-linecap="round"/>
<line x2="134.64101615137753" y2="120.00000000000003" x1="113.68080573302673" y1="137.58770483143635" stroke="#aaa" stroke-width="1" stroke-linecap="round"/>
<line x2="139.39231012048833" y2="93.05407289332281" x1="149.24038765061042" y1="91.3175911166535" stroke="#aaa" stroke-width="1" stroke-linecap="round"/>
<line x2="129.54423259036625" y2="94.7905546699921" x1="139.39231012048833" y1="93.05407289332281" stroke="#aaa" stroke-width="1" stroke-linecap="round"/>
<line x2="125.71150438746156" y2="69.35822227524086" x1="139.39231012048833" y1="93.05407289332281" stroke="#aaa" stroke-width="1" stroke-linecap="round"/>
<line x2="80.71637170940383" y2="77.01866670643065" x1="100.0" y1="70.0" stroke="#aaa" stroke-width="1" stroke-linecap="round"/>
<line x2="119.28362829059617" y2="77.01866670643065" x1="100.0" y1="70.0" stroke="#aaa" stroke-width="1" stroke-linecap="round"/>
<line x2="74.01923788646683" y2="114.99999999999997" x1="70.45576740963375" y1="94.79055466999209" stroke="#aaa" stroke-width="1" stroke-linecap="round"/>
<line x2="82.67949192431122" y2="109.99999999999999" x1="74.01923788646683" y1="114.99999999999997" stroke="#aaa" stroke-width="1" stroke-linecap="round"/>
<line x2="110.26060429977005" y2="128.19077862357727" x1="89.73939570022995" y1="128.19077862357724" stroke="#aaa" stroke-width="1" stroke-linecap="round"/>
<line x2="93.15959713348663" y2="118.79385241571816" x1="89.73939570022995" y1="128.19077862357724" stroke="#aaa" stroke-width="1" stroke-linecap="round"/>
<line x2="106.84040286651336" y2="118.79385241571818" x1="110.26060429977005" y1="128.19077862357727" stroke="#aaa" stroke-width="1" stroke-linecap="round"/>
<line x2="125.98076211353316" y2="115.00000000000001" x1="110.26060429977005" y1="128.19077862357727" stroke="#aaa" stroke-width="1" stroke-linecap="round"/>
<line x2="119.28362829059617" y2="77.01866670643065" x1="129.54423259036625" y1="94.7905546699921" stroke="#aaa" stroke-width="1" stroke-linecap="round"/>
<line x2="112.85575219373078" y2="84.67911113762044" x1="119.28362829059617" y1="77.01866670643065" stroke="#aaa" stroke-width="1" stroke-linecap="round"/>
<line x2="100.0" y2="90.0" x1="100.0" y1="80.0" stroke="#aaa" stroke-width="1" stroke-linecap="round"/>
<line x2="112.85575219373078" y2="84.67911113762044" x1="100.0" y1="80.0" stroke="#aaa" stroke-width="1" stroke-linecap="round"/>
<line x2="87.14424780626922" y2="84.67911113762044" x1="100.0" y1="80.0" stroke="#aaa" stroke-width="1" stroke-linecap="round"/>
<line x2="93.57212390313461" y2="92.33955556881023" x1="87.14424780626922" y1="84.67911113762044" stroke="#aaa" stroke-width="1" stroke-linecap="round"/>
<line x2="82.67949192431122" y2="109.99999999999999" x1="80.30384493975583" y1="96.5270364466614" stroke="#aaa" stroke-width="1" stroke-linecap="round"/>
<line x2="90.15192246987792" y2="98.26351822333069" x1="80.30384493975583" y1="96.5270364466614" stroke="#aaa" stroke-width="1" stroke-linecap="round"/>
<line x2="91.3397459621556" y2="105.0" x1="82.67949192431122" y1="109.99999999999999" stroke="#aaa" stroke-width="1" stroke-linecap="round"/>
<line x2="96.57979856674332" y2="109.39692620785908" x1="93.15959713348663" y1="118.79385241571816" stroke="#aaa" stroke-width="1" stroke-linecap="round"/>
<line x2="103.42020143325668" y2="109.39692620785908" x1="106.84040286651336" y1="118.79385241571818" stroke="#aaa" stroke-width="1" stroke-linecap="round"/>
<line x2="108.66025403784438" y2="105.0" x1="117.32050807568876" y1="110.00000000000001" stroke="#aaa" stroke-width="1" stroke-linecap="round"/>
<line x2="119.69615506024417" y2="96.5270364466614" x1="117.32050807568876" y1="110.00000000000001" stroke="#aaa" stroke-width="1" stroke-linecap="round"/>
<line x2="109.84807753012208" y2="98.2635182233307" x1="119.69615506024417" y1="96.5270364466614" stroke="#aaa" stroke-width="1" stroke-linecap="round"/>
<line x2="112.85575219373078" y2="84.67911113762044" x1="119.69615506024417" y1="96.5270364466614" stroke="#aaa" stroke-width="1" stroke-linecap="round"/>
<line x2="106.42787609686539" y2="92.33955556881021" x1="112.85575219373078" y1="84.67911113762044" stroke="#aaa" stroke-width="1" stroke-linecap="round"/>
</svg>
