<svg viewBox="0 0 200 200" xmlns="http://www.w3.org/2000/svg">
<line x2="114.73775872054529" y2="52.22135971069299" x1="100.0" y1="50.0" stroke="#aaa" stroke-width="1" stroke-linecap="round"/>
<line x2="71.83399709681892" y2="58.688061284200245" x1="85.2622412794548" y1="52.22135971069296" stroke="#aaa" stroke-width="1" stroke-linecap="round"/>
<line x2="88.20979302356385" y2="61.77708776855437" x1="85.2622412794548" y1="52.22135971069296" stroke="#aaa" stroke-width="1" stroke-linecap="round"/>
<line x2="111.79020697643622" y2="61.77708776855439" x1="100.0" y1="60.0" stroke="#aaa" stroke-width="1" stroke-linecap="round"/>
<line x2="60.908425876598514" y2="68.82550990706332" x1="71.83399709681892" y1="58.688061284200245" stroke="#aaa" stroke-width="1" stroke-linecap="round"/>
<line x2="91.15734476767288" y2="71.33281582641578" x1="88.20979302356385" y1="61.77708776855437" stroke="#aaa" stroke-width="1" stroke-linecap="round"/>
<line x2="77.46719767745513" y2="66.9504490273602" x1="88.20979302356385" y1="61.77708776855437" stroke="#aaa" stroke-width="1" stroke-linecap="round"/>
<line x2="68.72674070127881" y2="75.06040792565065" x1="60.908425876598514" y1="68.82550990706332" stroke="#aaa" stroke-width="1" stroke-linecap="round"/>
<line x2="83.10039825809136" y2="75.21283677052014" x1="77.46719767745513" y1="66.9504490273602" stroke="#aaa" stroke-width="1" stroke-linecap="round"/>
<line x2="50.139810140940995" y2="96.26349532067876" x1="53.4563125677898" y1="81.73294878168022" stroke="#aaa" stroke-width="1" stroke-linecap="round"/>
<line x2="62.765050054231835" y2="85.38635902534418" x1="53.4563125677898" y1="81.73294878168022" stroke="#aaa" stroke-width="1" stroke-linecap="round"/>
<line x2="62.765050054231835" y2="85.38635902534418" x1="68.72674070127881" y1="75.06040792565065" stroke="#aaa" stroke-width="1" stroke-linecap="round"/>
<line x2="51.25360439090882" y2="111.12604669781571" x1="50.139810140940995" y1="96.26349532067876" stroke="#aaa" stroke-width="1" stroke-linecap="round"/>
<line x2="60.111848112752796" y2="97.01079625654302" x1="62.765050054231835" y1="85.38635902534418" stroke="#aaa" stroke-width="1" stroke-linecap="round"/>
<line x2="56.69872981077805" y2="124.99999999999997" x1="51.25360439090882" y1="111.12604669781571" stroke="#aaa" stroke-width="1" stroke-linecap="round"/>
<line x2="65.991363111454" y2="136.6525935914913" x1="56.69872981077805" y1="124.99999999999997" stroke="#aaa" stroke-width="1" stroke-linecap="round"/>
<line x2="65.35898384862244" y2="119.99999999999997" x1="56.69872981077805" y1="124.99999999999997" stroke="#aaa" stroke-width="1" stroke-linecap="round"/>
<line x2="65.35898384862244" y2="119.99999999999997" x1="61.00288351272705" y1="108.90083735825257" stroke="#aaa" stroke-width="1" stroke-linecap="round"/>
<line x2="72.7930904891632" y2="129.32207487319303" x1="65.991363111454" y1="136.6525935914913" stroke="#aaa" stroke-width="1" stroke-linecap="round"/>
<line x2="92.54788669119124" y2="149.44154131125643" x1="78.30581304412209" y1="145.04844339512096" stroke="#aaa" stroke-width="1" stroke-linecap="round"/>
<line x2="79.5948178668724" y2="121.99155615489478" x1="72.7930904891632" y1="129.32207487319303" stroke="#aaa" stroke-width="1" stroke-linecap="round"/>
<line x2="94.038309352953" y2="139.55323304900514" x1="92.54788669119124" y1="149.44154131125643" stroke="#aaa" stroke-width="1" stroke-linecap="round"/>
<line x2="86.98348782647325" y2="127.02906603707257" x1="82.64465043529768" y1="136.03875471609678" stroke="#aaa" stroke-width="1" stroke-linecap="round"/>
<line x2="121.6941869558779" y2="145.04844339512096" x1="107.45211330880873" y1="149.44154131125643" stroke="#aaa" stroke-width="1" stroke-linecap="round"/>
<line x2="105.96169064704699" y2="139.55323304900514" x1="107.45211330880873" y1="149.44154131125643" stroke="#aaa" stroke-width="1" stroke-linecap="round"/>
<line x2="105.96169064704699" y2="139.55323304900514" x1="94.038309352953" y1="139.55323304900514" stroke="#aaa" stroke-width="1" stroke-linecap="round"/>
<line x2="95.52873201471475" y2="129.66492478675386" x1="94.038309352953" y1="139.55323304900514" stroke="#aaa" stroke-width="1" stroke-linecap="round"/>
<line x2="134.00863688854596" y2="136.65259359149132" x1="121.6941869558779" y1="145.04844339512096" stroke="#aaa" stroke-width="1" stroke-linecap="round"/>
<line x2="117.35534956470232" y2="136.03875471609678" x1="121.6941869558779" y1="145.04844339512096" stroke="#aaa" stroke-width="1" stroke-linecap="round"/>
<line x2="104.47126798528524" y2="129.66492478675386" x1="105.96169064704699" y1="139.55323304900514" stroke="#aaa" stroke-width="1" stroke-linecap="round"/>
<line x2="143.30127018922192" y2="125.00000000000003" x1="134.00863688854596" y1="136.65259359149132" stroke="#aaa" stroke-width="1" stroke-linecap="round"/>
<line x2="113.01651217352673" y2="127.02906603707258" x1="117.35534956470232" y1="136.03875471609678" stroke="#aaa" stroke-width="1" stroke-linecap="round"/>
<line x2="134.64101615137753" y2="120.00000000000003" x1="127.20690951083678" y1="129.32207487319306" stroke="#aaa" stroke-width="1" stroke-linecap="round"/>
<line x2="120.40518213312758" y2="121.9915561548948" x1="127.20690951083678" y1="129.32207487319306" stroke="#aaa" stroke-width="1" stroke-linecap="round"/>
<line x2="149.860189859059" y2="96.26349532067883" x1="148.74639560909117" y1="111.12604669781574" stroke="#aaa" stroke-width="1" stroke-linecap="round"/>
<line x2="125.98076211353316" y2="115.00000000000001" x1="134.64101615137753" y1="120.00000000000003" stroke="#aaa" stroke-width="1" stroke-linecap="round"/>
<line x2="146.54368743221025" y2="81.73294878168032" x1="149.860189859059" y1="96.26349532067883" stroke="#aaa" stroke-width="1" stroke-linecap="round"/>
<line x2="129.2478373654547" y2="106.67562801868944" x1="138.99711648727293" y1="108.90083735825259" stroke="#aaa" stroke-width="1" stroke-linecap="round"/>
<line x2="137.2349499457682" y2="85.38635902534426" x1="146.54368743221025" y1="81.73294878168032" stroke="#aaa" stroke-width="1" stroke-linecap="round"/>
<line x2="129.9161139154354" y2="97.7580971924073" x1="139.8881518872472" y1="97.01079625654306" stroke="#aaa" stroke-width="1" stroke-linecap="round"/>
<line x2="137.2349499457682" y2="85.38635902534426" x1="139.8881518872472" y1="97.01079625654306" stroke="#aaa" stroke-width="1" stroke-linecap="round"/>
<line x2="128.16600290318107" y2="58.68806128420023" x1="139.0915741234015" y1="68.82550990706333" stroke="#aaa" stroke-width="1" stroke-linecap="round"/>
<line x2="131.2732592987212" y2="75.06040792565067" x1="137.2349499457682" y1="85.38635902534426" stroke="#aaa" stroke-width="1" stroke-linecap="round"/>
<line x2="122.53280232254485" y2="66.95044902736018" x1="128.16600290318107" y1="58.68806128420023" stroke="#aaa" stroke-width="1" stroke-linecap="round"/>
<line x2="114.73775872054529" y2="52.22135971069299" x1="128.16600290318107" y1="58.68806128420023" stroke="#aaa" stroke-width="1" stroke-linecap="round"/>
<line x2="123.4549444740409" y2="81.29530594423801" x1="131.2732592987212" y1="75.06040792565067" stroke="#aaa" stroke-width="1" stroke-linecap="round"/>
<line x2="122.53280232254485" y2="66.95044902736018" x1="131.2732592987212" y1="75.06040792565067" stroke="#aaa" stroke-width="1" stroke-linecap="round"/>
<line x2="116.89960174190864" y2="75.21283677052014" x1="122.53280232254485" y1="66.95044902736018" stroke="#aaa" stroke-width="1" stroke-linecap="round"/>
<line x2="108.84265523232717" y2="71.3328158264158" x1="111.79020697643622" y1="61.77708776855439" stroke="#aaa" stroke-width="1" stroke-linecap="round"/>
<line x2="108.84265523232717" y2="71.3328158264158" x1="100.0" y1="70.0" stroke="#aaa" stroke-width="1" stroke-linecap="round"/>
<line x2="76.54505552595911" y2="81.29530594423798" x1="83.10039825809136" y1="75.21283677052014" stroke="#aaa" stroke-width="1" stroke-linecap="round"/>
<line x2="81.38252502711592" y2="92.69317951267209" x1="72.07378754067388" y1="89.03976926900813" stroke="#aaa" stroke-width="1" stroke-linecap="round"/>
<line x2="80.0559240563764" y2="98.50539812827151" x1="70.0838860845646" y1="97.75809719240726" stroke="#aaa" stroke-width="1" stroke-linecap="round"/>
<line x2="80.50144175636353" y2="104.45041867912629" x1="70.7521626345453" y1="106.67562801868942" stroke="#aaa" stroke-width="1" stroke-linecap="round"/>
<line x2="82.67949192431122" y2="109.99999999999999" x1="74.01923788646683" y1="114.99999999999997" stroke="#aaa" stroke-width="1" stroke-linecap="round"/>
<line x2="86.3965452445816" y2="114.66103743659652" x1="79.5948178668724" y1="121.99155615489478" stroke="#aaa" stroke-width="1" stroke-linecap="round"/>
<line x2="86.98348782647325" y2="127.02906603707257" x1="79.5948178668724" y1="121.99155615489478" stroke="#aaa" stroke-width="1" stroke-linecap="round"/>
<line x2="91.32232521764884" y2="118.01937735804839" x1="86.98348782647325" y1="127.02906603707257" stroke="#aaa" stroke-width="1" stroke-linecap="round"/>
<line x2="95.52873201471475" y2="129.66492478675386" x1="86.98348782647325" y1="127.02906603707257" stroke="#aaa" stroke-width="1" stroke-linecap="round"/>
<line x2="102.9808453235235" y2="119.77661652450257" x1="104.47126798528524" y1="129.66492478675386" stroke="#aaa" stroke-width="1" stroke-linecap="round"/>
<line x2="129.2478373654547" y2="106.67562801868944" x1="125.98076211353316" y1="115.00000000000001" stroke="#aaa" stroke-width="1" stroke-linecap="round"/>
<line x2="117.32050807568876" y2="110.00000000000001" x1="125.98076211353316" y1="115.00000000000001" stroke="#aaa" stroke-width="1" stroke-linecap="round"/>
<line x2="119.49855824363647" y2="104.4504186791263" x1="129.2478373654547" y1="106.67562801868944" stroke="#aaa" stroke-width="1" stroke-linecap="round"/>
<line x2="127.92621245932614" y2="89.03976926900819" x1="129.9161139154354" y1="97.7580971924073" stroke="#aaa" stroke-width="1" stroke-linecap="round"/>
<line x2="111.26640116127243" y2="83.47522451368009" x1="116.89960174190864" y1="75.21283677052014" stroke="#aaa" stroke-width="1" stroke-linecap="round"/>
<line x2="105.89510348821811" y2="80.8885438842772" x1="108.84265523232717" y1="71.3328158264158" stroke="#aaa" stroke-width="1" stroke-linecap="round"/>
<line x2="100" y2="100" x1="100.0" y1="80.0" stroke="#aaa" stroke-width="1" stroke-linecap="round"/>
<line x2="105.89510348821811" y2="80.8885438842772" x1="100.0" y1="80.0" stroke="#aaa" stroke-width="1" stroke-linecap="round"/>
<line x2="100" y2="100" x1="94.10489651178192" y1="80.88854388427718" stroke="#aaa" stroke-width="1" stroke-linecap="round"/>
<line x2="100" y2="100" x1="88.73359883872757" y1="83.4752245136801" stroke="#aaa" stroke-width="1" stroke-linecap="round"/>
<line x2="100" y2="100" x1="84.3633703506394" y1="87.53020396282533" stroke="#aaa" stroke-width="1" stroke-linecap="round"/>
<line x2="80.0559240563764" y2="98.50539812827151" x1="81.38252502711592" y1="92.69317951267209" stroke="#aaa" stroke-width="1" stroke-linecap="round"/>
<line x2="100" y2="100" x1="80.0559240563764" y1="98.50539812827151" stroke="#aaa" stroke-width="1" stroke-linecap="round"/>
<line x2="82.67949192431122" y2="109.99999999999999" x1="80.50144175636353" y1="104.45041867912629" stroke="#aaa" stroke-width="1" stroke-linecap="round"/>
<line x2="86.3965452445816" y2="114.66103743659652" x1="82.67949192431122" y1="109.99999999999999" stroke="#aaa" stroke-width="1" stroke-linecap="round"/>
<line x2="100" y2="100" x1="86.3965452445816" y1="114.66103743659652" stroke="#aaa" stroke-width="1" stroke-linecap="round"/>
<line x2="97.01915467647649" y2="119.77661652450257" x1="91.32232521764884" y1="118.01937735804839" stroke="#aaa" stroke-width="1" stroke-linecap="round"/>
<line x2="113.6034547554184" y2="114.66103743659653" x1="108.67767478235116" y1="118.01937735804839" stroke="#aaa" stroke-width="1" stroke-linecap="round"/>
<line x2="100" y2="100" x1="108.67767478235116" y1="118.01937735804839" stroke="#aaa" stroke-width="1" stroke-linecap="round"/>
<line x2="100" y2="100" x1="119.49855824363647" y1="104.4504186791263" stroke="#aaa" stroke-width="1" stroke-linecap="round"/>
<line x2="118.6174749728841" y2="92.69317951267213" x1="119.9440759436236" y1="98.50539812827154" stroke="#aaa" stroke-width="1" stroke-linecap="round"/>
<line x2="100" y2="100" x1="118.6174749728841" y1="92.69317951267213" stroke="#aaa" stroke-width="1" stroke-linecap="round"/>
<line x2="115.6366296493606" y2="87.53020396282534" x1="118.6174749728841" y1="92.69317951267213" stroke="#aaa" stroke-width="1" stroke-linecap="round"/>
<line x2="100" y2="100" x1="111.26640116127243" y1="83.47522451368009" stroke="#aaa" stroke-width="1" stroke-linecap="round"/>
</svg>
