<svg viewBox="0 0 200 200" xmlns="http://www.w3.org/2000/svg">
<path d="M 100.0 140.0 A 40 40 0.0 0 1 60.0 100.0" stroke="#aaa" stroke-width="1" stroke-linecap="round" fill="none"/>
<path d="M 99.99999999999999 60.0 A 40 40 0.0 0 1 140.0 99.99999999999999" stroke="#aaa" stroke-width="1" stroke-linecap="round" fill="none"/>
<line x2="130.0" y2="100.0" x1="140.0" y1="100.0" stroke="#aaa" stroke-width="1" stroke-linecap="round"/>
<path d="M 60.0 100.0 A 40 40 0.0 0 1 99.99999999999999 60.0" stroke="#aaa" stroke-width="1" stroke-linecap="round" fill="none"/>
<path d="M 100.0 70.0 A 30 30 0.0 0 1 130.0 99.99999999999999" stroke="#aaa" stroke-width="1" stroke-linecap="round" fill="none"/>
<line x2="100.0" y2="120.0" x1="100.0" y1="130.0" stroke="#aaa" stroke-width="1" stroke-linecap="round"/>
<path d="M 70.0 100.0 A 30 30 0.0 0 1 100.0 70.0" stroke="#aaa" stroke-width="1" stroke-linecap="round" fill="none"/>
<line x2="120.0" y2="100.0" x1="130.0" y1="100.0" stroke="#aaa" stroke-width="1" stroke-linecap="round"/>
<path d="M 100.0 70.0 A 30 30 0.0 0 1 130.0 99.99999999999999" stroke="#aaa" stroke-width="1" stroke-linecap="round" fill="none"/>
<line x2="100.0" y2="80.0" x1="100.0" y1="70.0" stroke="#aaa" stroke-width="1" stroke-linecap="round"/>
<line x2="80.0" y2="100.0" x1="70.0" y1="100.0" stroke="#aaa" stroke-width="1" stroke-linecap="round"/>
</svg>
