<svg viewBox="0 0 200 200" xmlns="http://www.w3.org/2000/svg">
<line x2="100.0" y2="100.0" x1="100.0" y1="100.0" stroke="#aaa" stroke-width="1" stroke-linecap="round"/>
<line x2="100.0" y2="100.0" x1="100.0" y1="100.0" stroke="#aaa" stroke-width="1" stroke-linecap="round"/>
<line x2="100" y2="100" x1="100.0" y1="100.0" stroke="#aaa" stroke-width="1" stroke-linecap="round"/>
<line x2="100" y2="100" x1="100.0" y1="100.0" stroke="#aaa" stroke-width="1" stroke-linecap="round"/>
<line x2="100" y2="100" x1="100.0" y1="100.0" stroke="#aaa" stroke-width="1" stroke-linecap="round"/>
<line x2="100" y2="100" x1="100.0" y1="100.0" stroke="#aaa" stroke-width="1" stroke-linecap="round"/>
<line x2="100" y2="100" x1="130.31630396409514" y1="66.74459872507039" stroke="#aaa" stroke-width="1" stroke-linecap="round"/>
<line x2="100" y2="100" x1="100.0" y1="100.0" stroke="#aaa" stroke-width="1" stroke-linecap="round"/>
<line x2="100" y2="100" x1="104.13436415087281" y1="122.1168947428878" stroke="#aaa" stroke-width="1" stroke-linecap="round"/>
<line x2="100" y2="100" x1="100.0" y1="100.0" stroke="#aaa" stroke-width="1" stroke-linecap="round"/>
<line x2="100" y2="100" x1="59.71765188902219" y1="79.9417739900558" stroke="#aaa" stroke-width="1" stroke-linecap="round"/>
<line x2="100" y2="100" x1="55.19196206672344" y1="95.84792382415141" stroke="#aaa" stroke-width="1" stroke-linecap="round"/>
<line x2="100" y2="100" x1="91.87206251078906" y1="79.01937483840199" stroke="#aaa" stroke-width="1" stroke-linecap="round"/>
<line x2="100" y2="100" x1="120.1411740554889" y1="89.97088699502791" stroke="#aaa" stroke-width="1" stroke-linecap="round"/>
<line x2="100" y2="100" x1="79.8588259445111" y1="89.9708869950279" stroke="#aaa" stroke-width="1" stroke-linecap="round"/>
<line x2="100" y2="100" x1="135.91077522761077" y1="127.11855863706654" stroke="#aaa" stroke-width="1" stroke-linecap="round"/>
<line x2="100" y2="100" x1="100.0" y1="100.0" stroke="#aaa" stroke-width="1" stroke-linecap="round"/>
<line x2="100" y2="100" x1="108.26872830174563" y1="144.2337894857756" stroke="#aaa" stroke-width="1" stroke-linecap="round"/>
<line x2="100" y2="100" x1="108.12793748921092" y1="79.01937483840199" stroke="#aaa" stroke-width="1" stroke-linecap="round"/>
<line x2="100" y2="100" x1="144.80803793327655" y1="95.84792382415144" stroke="#aaa" stroke-width="1" stroke-linecap="round"/>
<line x2="100" y2="100" x1="83.74412502157813" y1="58.03874967680398" stroke="#aaa" stroke-width="1" stroke-linecap="round"/>
<line x2="100" y2="100" x1="100.0" y1="77.5" stroke="#aaa" stroke-width="1" stroke-linecap="round"/>
<line x2="100" y2="100" x1="100.0" y1="100.0" stroke="#aaa" stroke-width="1" stroke-linecap="round"/>
<line x2="100" y2="100" x1="140.2823481109778" y1="79.94177399005581" stroke="#aaa" stroke-width="1" stroke-linecap="round"/>
<line x2="100.0" y2="100.0" x1="100.0" y1="100.0" stroke="#aaa" stroke-width="1" stroke-linecap="round"/>
<line x2="100.0" y2="100.0" x1="100.0" y1="100.0" stroke="#aaa" stroke-width="1" stroke-linecap="round"/>
<line x2="100.0" y2="100.0" x1="100.0" y1="100.0" stroke="#aaa" stroke-width="1" stroke-linecap="round"/>
<line x2="100.0" y2="100.0" x1="100.0" y1="100.0" stroke="#aaa" stroke-width="1" stroke-linecap="round"/>
<line x2="100.0" y2="100.0" x1="100.0" y1="100.0" stroke="#aaa" stroke-width="1" stroke-linecap="round"/>
<line x2="100.0" y2="100.0" x1="100.0" y1="100.0" stroke="#aaa" stroke-width="1" stroke-linecap="round"/>
<line x2="100.0" y2="100.0" x1="100.0" y1="100.0" stroke="#aaa" stroke-width="1" stroke-linecap="round"/>
<line x2="79.8588259445111" y2="89.9708869950279" x1="84.84184801795246" y1="83.37229936253517" stroke="#aaa" stroke-width="1" stroke-linecap="round"/>
<line x2="77.59598103336172" y2="97.92396191207571" x1="79.8588259445111" y1="89.9708869950279" stroke="#aaa" stroke-width="1" stroke-linecap="round"/>
<line x2="78.35892302861157" y2="106.15741727662186" x1="77.59598103336172" y1="97.92396191207571" stroke="#aaa" stroke-width="1" stroke-linecap="round"/>
<line x2="82.04461238619461" y2="113.55927931853327" x1="78.35892302861157" y1="106.15741727662186" stroke="#aaa" stroke-width="1" stroke-linecap="round"/>
<line x2="95.86563584912717" y2="122.1168947428878" x1="88.15527633525949" y1="119.12988555391631" stroke="#aaa" stroke-width="1" stroke-linecap="round"/>
<line x2="104.13436415087281" y2="122.1168947428878" x1="95.86563584912717" y1="122.1168947428878" stroke="#aaa" stroke-width="1" stroke-linecap="round"/>
<line x2="111.8447236647405" y2="119.12988555391632" x1="104.13436415087281" y1="122.1168947428878" stroke="#aaa" stroke-width="1" stroke-linecap="round"/>
<line x2="121.64107697138843" y2="106.15741727662187" x1="117.95538761380539" y1="113.55927931853327" stroke="#aaa" stroke-width="1" stroke-linecap="round"/>
<line x2="122.40401896663828" y2="97.92396191207571" x1="121.64107697138843" y1="106.15741727662187" stroke="#aaa" stroke-width="1" stroke-linecap="round"/>
<line x2="120.1411740554889" y2="89.97088699502791" x1="122.40401896663828" y1="97.92396191207571" stroke="#aaa" stroke-width="1" stroke-linecap="round"/>
<line x2="115.15815198204757" y2="83.37229936253519" x1="120.1411740554889" y1="89.97088699502791" stroke="#aaa" stroke-width="1" stroke-linecap="round"/>
<line x2="83.74412502157813" y2="58.03874967680398" x1="100.0" y1="55.0" stroke="#aaa" stroke-width="1" stroke-linecap="round"/>
<line x2="59.71765188902219" y2="79.9417739900558" x1="69.68369603590493" y1="66.74459872507035" stroke="#aaa" stroke-width="1" stroke-linecap="round"/>
<line x2="64.08922477238922" y2="127.11855863706653" x1="56.71784605722314" y1="112.31483455324373" stroke="#aaa" stroke-width="1" stroke-linecap="round"/>
<line x2="76.31055267051897" y2="138.25977110783262" x1="64.08922477238922" y1="127.11855863706653" stroke="#aaa" stroke-width="1" stroke-linecap="round"/>
<line x2="91.73127169825435" y2="144.2337894857756" x1="76.31055267051897" y1="138.25977110783262" stroke="#aaa" stroke-width="1" stroke-linecap="round"/>
<line x2="108.26872830174563" y2="144.2337894857756" x1="91.73127169825435" y1="144.2337894857756" stroke="#aaa" stroke-width="1" stroke-linecap="round"/>
<line x2="135.91077522761077" y2="127.11855863706654" x1="123.68944732948101" y1="138.25977110783265" stroke="#aaa" stroke-width="1" stroke-linecap="round"/>
<line x2="143.28215394277686" y2="112.31483455324374" x1="135.91077522761077" y1="127.11855863706654" stroke="#aaa" stroke-width="1" stroke-linecap="round"/>
<line x2="116.25587497842186" y2="58.03874967680398" x1="130.31630396409514" y1="66.74459872507039" stroke="#aaa" stroke-width="1" stroke-linecap="round"/>
<line x2="100.00000000000001" y2="10.0" x1="100.00000000000001" y1="32.5" stroke="#aaa" stroke-width="1" stroke-linecap="round"/>
<line x2="124.38381246763278" y2="37.05812451520597" x1="100.00000000000001" y1="32.5" stroke="#aaa" stroke-width="1" stroke-linecap="round"/>
<line x2="75.61618753236719" y2="37.058124515205975" x1="100.00000000000001" y1="32.5" stroke="#aaa" stroke-width="1" stroke-linecap="round"/>
<line x2="67.48825004315626" y2="16.077499353607962" x1="75.61618753236719" y1="37.058124515205975" stroke="#aaa" stroke-width="1" stroke-linecap="round"/>
<line x2="54.52554405385739" y2="50.11689808760551" x1="75.61618753236719" y1="37.058124515205975" stroke="#aaa" stroke-width="1" stroke-linecap="round"/>
<line x2="39.36739207180985" y2="33.48919745014068" x1="54.52554405385739" y1="50.11689808760551" stroke="#aaa" stroke-width="1" stroke-linecap="round"/>
<line x2="39.57647783353328" y2="69.91266098508368" x1="54.52554405385739" y1="50.11689808760551" stroke="#aaa" stroke-width="1" stroke-linecap="round"/>
<line x2="19.435303778044386" y2="59.88354798011158" x1="39.57647783353328" y1="69.91266098508368" stroke="#aaa" stroke-width="1" stroke-linecap="round"/>
<line x2="32.78794310008517" y2="93.77188573622712" x1="39.57647783353328" y1="69.91266098508368" stroke="#aaa" stroke-width="1" stroke-linecap="round"/>
<line x2="35.07676908583471" y2="118.47225182986558" x1="32.78794310008517" y1="93.77188573622712" stroke="#aaa" stroke-width="1" stroke-linecap="round"/>
<line x2="10.383924133446882" y2="91.69584764830283" x1="32.78794310008517" y1="93.77188573622712" stroke="#aaa" stroke-width="1" stroke-linecap="round"/>
<line x2="46.133837158583816" y2="140.67783795559978" x1="35.07676908583471" y1="118.47225182986558" stroke="#aaa" stroke-width="1" stroke-linecap="round"/>
<line x2="13.435692114446283" y2="124.62966910648746" x1="35.07676908583471" y1="118.47225182986558" stroke="#aaa" stroke-width="1" stroke-linecap="round"/>
<line x2="64.46582900577846" y2="157.38965666174894" x1="46.133837158583816" y1="140.67783795559978" stroke="#aaa" stroke-width="1" stroke-linecap="round"/>
<line x2="28.17844954477843" y2="154.23711727413306" x1="46.133837158583816" y1="140.67783795559978" stroke="#aaa" stroke-width="1" stroke-linecap="round"/>
<line x2="52.621105341037946" y2="176.51954221566524" x1="64.46582900577846" y1="157.38965666174894" stroke="#aaa" stroke-width="1" stroke-linecap="round"/>
<line x2="87.59690754738152" y2="166.35068422866337" x1="64.46582900577846" y1="157.38965666174894" stroke="#aaa" stroke-width="1" stroke-linecap="round"/>
<line x2="112.40309245261844" y2="166.3506842286634" x1="87.59690754738152" y1="166.35068422866337" stroke="#aaa" stroke-width="1" stroke-linecap="round"/>
<line x2="83.46254339650869" y2="188.46757897155118" x1="87.59690754738152" y1="166.35068422866337" stroke="#aaa" stroke-width="1" stroke-linecap="round"/>
<line x2="135.5341709942215" y2="157.38965666174897" x1="112.40309245261844" y1="166.3506842286634" stroke="#aaa" stroke-width="1" stroke-linecap="round"/>
<line x2="116.53745660349126" y2="188.46757897155118" x1="112.40309245261844" y1="166.3506842286634" stroke="#aaa" stroke-width="1" stroke-linecap="round"/>
<line x2="147.37889465896203" y2="176.5195422156653" x1="135.5341709942215" y1="157.38965666174897" stroke="#aaa" stroke-width="1" stroke-linecap="round"/>
<line x2="153.86616284141616" y2="140.6778379555998" x1="135.5341709942215" y1="157.38965666174897" stroke="#aaa" stroke-width="1" stroke-linecap="round"/>
<line x2="171.82155045522154" y2="154.23711727413308" x1="153.86616284141616" y1="140.6778379555998" stroke="#aaa" stroke-width="1" stroke-linecap="round"/>
<line x2="164.9232309141653" y2="118.47225182986563" x1="153.86616284141616" y1="140.6778379555998" stroke="#aaa" stroke-width="1" stroke-linecap="round"/>
<line x2="186.56430788555372" y2="124.6296691064875" x1="164.9232309141653" y1="118.47225182986563" stroke="#aaa" stroke-width="1" stroke-linecap="round"/>
<line x2="189.6160758665531" y2="91.69584764830287" x1="167.21205689991484" y1="93.77188573622715" stroke="#aaa" stroke-width="1" stroke-linecap="round"/>
<line x2="160.42352216646674" y2="69.9126609850837" x1="167.21205689991484" y1="93.77188573622715" stroke="#aaa" stroke-width="1" stroke-linecap="round"/>
<line x2="145.4744559461427" y2="50.116898087605584" x1="160.42352216646674" y1="69.9126609850837" stroke="#aaa" stroke-width="1" stroke-linecap="round"/>
<line x2="180.56469622195564" y2="59.883547980111615" x1="160.42352216646674" y1="69.9126609850837" stroke="#aaa" stroke-width="1" stroke-linecap="round"/>
<line x2="160.63260792819028" y2="33.48919745014078" x1="145.4744559461427" y1="50.116898087605584" stroke="#aaa" stroke-width="1" stroke-linecap="round"/>
<line x2="124.38381246763278" y2="37.05812451520597" x1="145.4744559461427" y1="50.116898087605584" stroke="#aaa" stroke-width="1" stroke-linecap="round"/>
<line x2="132.51174995684372" y2="16.077499353607962" x1="124.38381246763278" y1="37.05812451520597" stroke="#aaa" stroke-width="1" stroke-linecap="round"/>
</svg>
