<svg viewBox="0 0 200 200" xmlns="http://www.w3.org/2000/svg">
<line x2="100" y2="100" x1="100.0" y1="77.5" stroke="#aaa" stroke-width="1" stroke-linecap="round"/>
<line x2="89.16054233271142" y2="80.28309969901306" x1="94.40447753879077" y1="78.20687887460579" stroke="#aaa" stroke-width="1" stroke-linecap="round"/>
<line x2="100" y2="100" x1="116.78656738362774" y1="34.620636623817404" stroke="#aaa" stroke-width="1" stroke-linecap="round"/>
<line x2="100" y2="100" x1="117.33654796245526" y1="114.34203976934552" stroke="#aaa" stroke-width="1" stroke-linecap="round"/>
<line x2="100" y2="100" x1="110.83945766728861" y1="80.28309969901308" stroke="#aaa" stroke-width="1" stroke-linecap="round"/>
<line x2="100" y2="100" x1="55.79707371720901" y1="108.43215915635763" stroke="#aaa" stroke-width="1" stroke-linecap="round"/>
<line x2="100" y2="100" x1="77.54439861036388" y1="98.58721331059046" stroke="#aaa" stroke-width="1" stroke-linecap="round"/>
<line x2="100" y2="100" x1="59.28278263902912" y1="119.16006812042826" stroke="#aaa" stroke-width="1" stroke-linecap="round"/>
<line x2="100" y2="100" x1="164.19631484992289" y1="79.14135287969107" stroke="#aaa" stroke-width="1" stroke-linecap="round"/>
<line x2="100" y2="100" x1="124.84840730621579" y1="162.75991279745696" stroke="#aaa" stroke-width="1" stroke-linecap="round"/>
<line x2="100" y2="100" x1="38.924173958543676" y1="128.7401021806424" stroke="#aaa" stroke-width="1" stroke-linecap="round"/>
<line x2="100" y2="100" x1="77.8985368586045" y1="104.21607957817882" stroke="#aaa" stroke-width="1" stroke-linecap="round"/>
<line x2="100" y2="100" x1="140.7172173609709" y1="119.16006812042825" stroke="#aaa" stroke-width="1" stroke-linecap="round"/>
<line x2="100" y2="100" x1="116.56560487081052" y1="141.8399418649713" stroke="#aaa" stroke-width="1" stroke-linecap="round"/>
<line x2="100" y2="100" x1="88.80895507758154" y1="56.4137577492116" stroke="#aaa" stroke-width="1" stroke-linecap="round"/>
<line x2="100" y2="100" x1="132.51837300186583" y1="40.849299097039236" stroke="#aaa" stroke-width="1" stroke-linecap="round"/>
<line x2="100" y2="100" x1="111.1910449224185" y1="56.413757749211605" stroke="#aaa" stroke-width="1" stroke-linecap="round"/>
<line x2="100" y2="100" x1="122.45560138963612" y1="98.58721331059047" stroke="#aaa" stroke-width="1" stroke-linecap="round"/>
<line x2="100" y2="100" x1="146.20692965018645" y1="50.79461764905471" stroke="#aaa" stroke-width="1" stroke-linecap="round"/>
<line x2="100" y2="100" x1="167.36680416890835" y1="95.7616399317714" stroke="#aaa" stroke-width="1" stroke-linecap="round"/>
<line x2="100" y2="100" x1="89.16054233271142" y1="80.28309969901306" stroke="#aaa" stroke-width="1" stroke-linecap="round"/>
<line x2="100" y2="100" x1="53.79307034981351" y1="50.79461764905472" stroke="#aaa" stroke-width="1" stroke-linecap="round"/>
<line x2="100" y2="100" x1="43.007865028614006" y1="63.83169133891769" stroke="#aaa" stroke-width="1" stroke-linecap="round"/>
<line x2="100" y2="100" x1="120.35860868048545" y1="109.58003406021413" stroke="#aaa" stroke-width="1" stroke-linecap="round"/>
<line x2="100" y2="100" x1="113.22516817658064" y1="118.20288237343632" stroke="#aaa" stroke-width="1" stroke-linecap="round"/>
<line x2="100" y2="100" x1="144.202926282791" y1="108.43215915635761" stroke="#aaa" stroke-width="1" stroke-linecap="round"/>
<line x2="100" y2="100" x1="73.5496636468387" y1="136.40576474687262" stroke="#aaa" stroke-width="1" stroke-linecap="round"/>
<line x2="100" y2="100" x1="105.63999551039369" y1="144.64516155915152" stroke="#aaa" stroke-width="1" stroke-linecap="round"/>
<line x2="100" y2="100" x1="130.80461976679098" y1="67.19641176603648" stroke="#aaa" stroke-width="1" stroke-linecap="round"/>
<line x2="100" y2="100" x1="100.00000000000001" y1="32.5" stroke="#aaa" stroke-width="1" stroke-linecap="round"/>
<line x2="100" y2="100" x1="142.7975432332819" y1="86.09423525312738" stroke="#aaa" stroke-width="1" stroke-linecap="round"/>
<line x2="100" y2="100" x1="97.18000224480315" y1="122.32258077957574" stroke="#aaa" stroke-width="1" stroke-linecap="round"/>
<line x2="100" y2="100" x1="126.45033635316128" y1="136.40576474687265" stroke="#aaa" stroke-width="1" stroke-linecap="round"/>
<line x2="100" y2="100" x1="100.0" y1="55.0" stroke="#aaa" stroke-width="1" stroke-linecap="round"/>
<line x2="100" y2="100" x1="75.15159269378425" y1="162.759912797457" stroke="#aaa" stroke-width="1" stroke-linecap="round"/>
<line x2="81.00262167620467" y2="87.94389711297256" x1="84.5976901166045" y1="83.59820588301824" stroke="#aaa" stroke-width="1" stroke-linecap="round"/>
<line x2="78.60122838335904" y2="93.04711762656368" x1="81.00262167620467" y1="87.94389711297256" stroke="#aaa" stroke-width="1" stroke-linecap="round"/>
<line x2="77.54439861036388" y2="98.58721331059046" x1="78.60122838335904" y1="93.04711762656368" stroke="#aaa" stroke-width="1" stroke-linecap="round"/>
<line x2="79.64139131951455" y2="109.58003406021413" x1="77.8985368586045" y1="104.21607957817882" stroke="#aaa" stroke-width="1" stroke-linecap="round"/>
<line x2="82.66345203754473" y2="114.3420397693455" x1="79.64139131951455" y1="109.58003406021413" stroke="#aaa" stroke-width="1" stroke-linecap="round"/>
<line x2="86.77483182341935" y2="118.20288237343631" x1="82.66345203754473" y1="114.3420397693455" stroke="#aaa" stroke-width="1" stroke-linecap="round"/>
<line x2="97.18000224480315" y2="122.32258077957574" x1="91.71719756459476" y1="120.91997093248565" stroke="#aaa" stroke-width="1" stroke-linecap="round"/>
<line x2="108.28280243540526" y2="120.91997093248565" x1="102.81999775519684" y1="122.32258077957576" stroke="#aaa" stroke-width="1" stroke-linecap="round"/>
<line x2="113.22516817658064" y2="118.20288237343632" x1="108.28280243540526" y1="120.91997093248565" stroke="#aaa" stroke-width="1" stroke-linecap="round"/>
<line x2="122.45560138963612" y2="98.58721331059047" x1="122.1014631413955" y1="104.2160795781788" stroke="#aaa" stroke-width="1" stroke-linecap="round"/>
<line x2="118.99737832379536" y2="87.9438971129726" x1="121.39877161664096" y1="93.04711762656369" stroke="#aaa" stroke-width="1" stroke-linecap="round"/>
<line x2="115.40230988339549" y2="83.59820588301824" x1="118.99737832379536" y1="87.9438971129726" stroke="#aaa" stroke-width="1" stroke-linecap="round"/>
<line x2="110.83945766728861" y2="80.28309969901308" x1="115.40230988339549" y1="83.59820588301824" stroke="#aaa" stroke-width="1" stroke-linecap="round"/>
<line x2="105.59552246120924" y2="78.2068788746058" x1="110.83945766728861" y1="80.28309969901308" stroke="#aaa" stroke-width="1" stroke-linecap="round"/>
<line x2="69.19538023320901" y2="67.19641176603648" x1="78.32108466542283" y1="60.566199398026136" stroke="#aaa" stroke-width="1" stroke-linecap="round"/>
<line x2="62.00524335240934" y2="75.88779422594513" x1="69.19538023320901" y1="67.19641176603648" stroke="#aaa" stroke-width="1" stroke-linecap="round"/>
<line x2="57.20245676671809" y2="86.09423525312737" x1="62.00524335240934" y1="75.88779422594513" stroke="#aaa" stroke-width="1" stroke-linecap="round"/>
<line x2="55.08879722072778" y2="97.17442662118091" x1="57.20245676671809" y1="86.09423525312737" stroke="#aaa" stroke-width="1" stroke-linecap="round"/>
<line x2="55.79707371720901" y2="108.43215915635763" x1="55.08879722072778" y1="97.17442662118091" stroke="#aaa" stroke-width="1" stroke-linecap="round"/>
<line x2="73.5496636468387" y2="136.40576474687262" x1="65.32690407508946" y1="128.684079538691" stroke="#aaa" stroke-width="1" stroke-linecap="round"/>
<line x2="83.4343951291895" y2="141.8399418649713" x1="73.5496636468387" y1="136.40576474687262" stroke="#aaa" stroke-width="1" stroke-linecap="round"/>
<line x2="105.63999551039369" y2="144.64516155915152" x1="94.3600044896063" y1="144.6451615591515" stroke="#aaa" stroke-width="1" stroke-linecap="round"/>
<line x2="140.7172173609709" y2="119.16006812042825" x1="134.6730959249105" y1="128.68407953869104" stroke="#aaa" stroke-width="1" stroke-linecap="round"/>
<line x2="144.91120277927223" y2="97.17442662118093" x1="144.202926282791" y1="108.43215915635761" stroke="#aaa" stroke-width="1" stroke-linecap="round"/>
<line x2="130.80461976679098" y2="67.19641176603648" x1="137.99475664759072" y1="75.88779422594521" stroke="#aaa" stroke-width="1" stroke-linecap="round"/>
<line x2="121.67891533457723" y2="60.56619939802616" x1="130.80461976679098" y1="67.19641176603648" stroke="#aaa" stroke-width="1" stroke-linecap="round"/>
<line x2="83.21343261637232" y2="34.62063662381739" x1="100.00000000000001" y1="32.5" stroke="#aaa" stroke-width="1" stroke-linecap="round"/>
<line x2="67.48162699813423" y2="40.8492990970392" x1="83.21343261637232" y1="34.62063662381739" stroke="#aaa" stroke-width="1" stroke-linecap="round"/>
<line x2="35.80368515007714" y2="79.14135287969104" x1="43.007865028614006" y1="63.83169133891769" stroke="#aaa" stroke-width="1" stroke-linecap="round"/>
<line x2="33.69561057581352" y2="112.64823873453645" x1="32.63319583109167" y1="95.76163993177136" stroke="#aaa" stroke-width="1" stroke-linecap="round"/>
<line x2="38.924173958543676" y2="128.7401021806424" x1="33.69561057581352" y1="112.64823873453645" stroke="#aaa" stroke-width="1" stroke-linecap="round"/>
<line x2="60.32449547025806" y2="154.60864712030894" x1="47.9903561126342" y1="143.02611930803653" stroke="#aaa" stroke-width="1" stroke-linecap="round"/>
<line x2="75.15159269378425" y2="162.759912797457" x1="60.32449547025806" y1="154.60864712030894" stroke="#aaa" stroke-width="1" stroke-linecap="round"/>
<line x2="108.45999326559053" y2="166.96774233872725" x1="91.54000673440943" y1="166.96774233872725" stroke="#aaa" stroke-width="1" stroke-linecap="round"/>
<line x2="124.84840730621579" y2="162.75991279745696" x1="108.45999326559053" y1="166.96774233872725" stroke="#aaa" stroke-width="1" stroke-linecap="round"/>
<line x2="139.67550452974191" y2="154.60864712030894" x1="124.84840730621579" y1="162.75991279745696" stroke="#aaa" stroke-width="1" stroke-linecap="round"/>
<line x2="152.00964388736577" y2="143.02611930803656" x1="139.67550452974191" y1="154.60864712030894" stroke="#aaa" stroke-width="1" stroke-linecap="round"/>
<line x2="166.30438942418647" y2="112.64823873453642" x1="161.07582604145634" y1="128.74010218064237" stroke="#aaa" stroke-width="1" stroke-linecap="round"/>
<line x2="167.36680416890835" y2="95.7616399317714" x1="166.30438942418647" y1="112.64823873453642" stroke="#aaa" stroke-width="1" stroke-linecap="round"/>
<line x2="146.20692965018645" y2="50.79461764905471" x1="156.99213497138606" y1="63.83169133891783" stroke="#aaa" stroke-width="1" stroke-linecap="round"/>
<line x2="100.00000000000001" y2="-12.5" x1="100.00000000000001" y1="10.0" stroke="#aaa" stroke-width="1" stroke-linecap="round"/>
<line x2="122.382089844837" y2="12.82751549842321" x1="100.00000000000001" y1="10.0" stroke="#aaa" stroke-width="1" stroke-linecap="round"/>
<line x2="77.61791015516309" y2="12.827515498423196" x1="100.00000000000001" y1="10.0" stroke="#aaa" stroke-width="1" stroke-linecap="round"/>
<line x2="72.02238769395386" y2="-8.965605626971012" x1="77.61791015516309" y1="12.827515498423196" stroke="#aaa" stroke-width="1" stroke-linecap="round"/>
<line x2="56.642169330845654" y2="21.13239879605227" x1="77.61791015516309" y1="12.827515498423196" stroke="#aaa" stroke-width="1" stroke-linecap="round"/>
<line x2="38.390760466418016" y2="34.39282353207297" x1="56.642169330845654" y1="21.13239879605227" stroke="#aaa" stroke-width="1" stroke-linecap="round"/>
<line x2="45.80271166355706" y2="1.4154984950653358" x1="56.642169330845654" y1="21.13239879605227" stroke="#aaa" stroke-width="1" stroke-linecap="round"/>
<line x2="24.010486704818675" y2="51.77558845189026" x1="38.390760466418016" y1="34.39282353207297" stroke="#aaa" stroke-width="1" stroke-linecap="round"/>
<line x2="22.988450583022512" y2="17.991029415091205" x1="38.390760466418016" y1="34.39282353207297" stroke="#aaa" stroke-width="1" stroke-linecap="round"/>
<line x2="5.013108381023343" y2="39.71948556486283" x1="24.010486704818675" y1="51.77558845189026" stroke="#aaa" stroke-width="1" stroke-linecap="round"/>
<line x2="14.404913533436186" y2="72.18847050625472" x1="24.010486704818675" y1="51.77558845189026" stroke="#aaa" stroke-width="1" stroke-linecap="round"/>
<line x2="10.177594441455554" y2="94.34885324236181" x1="14.404913533436186" y1="72.18847050625472" stroke="#aaa" stroke-width="1" stroke-linecap="round"/>
<line x2="-6.9938580832047705" y2="65.2355881328184" x1="14.404913533436186" y1="72.18847050625472" stroke="#aaa" stroke-width="1" stroke-linecap="round"/>
<line x2="11.59414743441802" y2="116.86431831271526" x1="10.177594441455554" y1="94.34885324236181" stroke="#aaa" stroke-width="1" stroke-linecap="round"/>
<line x2="-12.278006948180547" y2="92.93606655295227" x1="10.177594441455554" y1="94.34885324236181" stroke="#aaa" stroke-width="1" stroke-linecap="round"/>
<line x2="18.565565278058244" y2="138.32013624085653" x1="11.59414743441802" y1="116.86431831271526" stroke="#aaa" stroke-width="1" stroke-linecap="round"/>
<line x2="-10.507315706977465" y2="121.08039789089408" x1="11.59414743441802" y1="116.86431831271526" stroke="#aaa" stroke-width="1" stroke-linecap="round"/>
<line x2="-1.7930434024272017" y2="147.90017030107066" x1="18.565565278058244" y1="138.32013624085653" stroke="#aaa" stroke-width="1" stroke-linecap="round"/>
<line x2="30.653808150178932" y2="157.36815907738205" x1="18.565565278058244" y1="138.32013624085653" stroke="#aaa" stroke-width="1" stroke-linecap="round"/>
<line x2="13.317260187723676" y2="171.71019884672756" x1="30.653808150178932" y1="157.36815907738205" stroke="#aaa" stroke-width="1" stroke-linecap="round"/>
<line x2="47.099327293677405" y2="172.81152949374524" x1="30.653808150178932" y1="157.36815907738205" stroke="#aaa" stroke-width="1" stroke-linecap="round"/>
<line x2="33.87415911709677" y2="191.0144118671816" x1="47.099327293677405" y1="172.81152949374524" stroke="#aaa" stroke-width="1" stroke-linecap="round"/>
<line x2="58.58598782297375" y2="204.5998546624283" x1="66.868790258379" y1="183.67988372994262" stroke="#aaa" stroke-width="1" stroke-linecap="round"/>
<line x2="88.72000897921258" y2="189.29032311830298" x1="66.868790258379" y1="183.67988372994262" stroke="#aaa" stroke-width="1" stroke-linecap="round"/>
<line x2="111.27999102078738" y2="189.290323118303" x1="88.72000897921258" y1="189.29032311830298" stroke="#aaa" stroke-width="1" stroke-linecap="round"/>
<line x2="85.90001122401573" y2="211.61290389787877" x1="88.72000897921258" y1="189.29032311830298" stroke="#aaa" stroke-width="1" stroke-linecap="round"/>
<line x2="114.09998877598422" y2="211.61290389787877" x1="111.27999102078738" y1="189.290323118303" stroke="#aaa" stroke-width="1" stroke-linecap="round"/>
<line x2="133.13120974162103" y2="183.67988372994262" x1="111.27999102078738" y1="189.290323118303" stroke="#aaa" stroke-width="1" stroke-linecap="round"/>
<line x2="152.90067270632255" y2="172.8115294937453" x1="133.13120974162103" y1="183.67988372994262" stroke="#aaa" stroke-width="1" stroke-linecap="round"/>
<line x2="141.4140121770263" y2="204.59985466242827" x1="133.13120974162103" y1="183.67988372994262" stroke="#aaa" stroke-width="1" stroke-linecap="round"/>
<line x2="166.12584088290322" y2="191.0144118671816" x1="152.90067270632255" y1="172.8115294937453" stroke="#aaa" stroke-width="1" stroke-linecap="round"/>
<line x2="169.34619184982103" y2="157.36815907738207" x1="152.90067270632255" y1="172.8115294937453" stroke="#aaa" stroke-width="1" stroke-linecap="round"/>
<line x2="186.68273981227628" y2="171.71019884672756" x1="169.34619184982103" y1="157.36815907738207" stroke="#aaa" stroke-width="1" stroke-linecap="round"/>
<line x2="181.43443472194178" y2="138.3201362408565" x1="169.34619184982103" y1="157.36815907738207" stroke="#aaa" stroke-width="1" stroke-linecap="round"/>
<line x2="201.7930434024272" y2="147.90017030107063" x1="181.43443472194178" y1="138.3201362408565" stroke="#aaa" stroke-width="1" stroke-linecap="round"/>
<line x2="188.405852565582" y2="116.86431831271523" x1="181.43443472194178" y1="138.3201362408565" stroke="#aaa" stroke-width="1" stroke-linecap="round"/>
<line x2="189.82240555854446" y2="94.34885324236186" x1="188.405852565582" y1="116.86431831271523" stroke="#aaa" stroke-width="1" stroke-linecap="round"/>
<line x2="210.50731570697747" y2="121.08039789089403" x1="188.405852565582" y1="116.86431831271523" stroke="#aaa" stroke-width="1" stroke-linecap="round"/>
<line x2="185.59508646656383" y2="72.18847050625476" x1="189.82240555854446" y1="94.34885324236186" stroke="#aaa" stroke-width="1" stroke-linecap="round"/>
<line x2="212.27800694818055" y2="92.93606655295233" x1="189.82240555854446" y1="94.34885324236186" stroke="#aaa" stroke-width="1" stroke-linecap="round"/>
<line x2="175.98951329518144" y2="51.77558845189044" x1="185.59508646656383" y1="72.18847050625476" stroke="#aaa" stroke-width="1" stroke-linecap="round"/>
<line x2="206.99385808320477" y2="65.23558813281845" x1="185.59508646656383" y1="72.18847050625476" stroke="#aaa" stroke-width="1" stroke-linecap="round"/>
<line x2="194.9868916189768" y2="39.71948556486305" x1="175.98951329518144" y1="51.77558845189044" stroke="#aaa" stroke-width="1" stroke-linecap="round"/>
<line x2="161.60923953358196" y2="34.39282353207294" x1="175.98951329518144" y1="51.77558845189044" stroke="#aaa" stroke-width="1" stroke-linecap="round"/>
<line x2="143.35783066915445" y2="21.132398796052314" x1="161.60923953358196" y1="34.39282353207294" stroke="#aaa" stroke-width="1" stroke-linecap="round"/>
<line x2="177.01154941697746" y2="17.991029415091177" x1="161.60923953358196" y1="34.39282353207294" stroke="#aaa" stroke-width="1" stroke-linecap="round"/>
<line x2="122.382089844837" y2="12.82751549842321" x1="143.35783066915445" y1="21.132398796052314" stroke="#aaa" stroke-width="1" stroke-linecap="round"/>
<line x2="154.19728833644308" y2="1.4154984950653926" x1="143.35783066915445" y1="21.132398796052314" stroke="#aaa" stroke-width="1" stroke-linecap="round"/>
<line x2="127.97761230604624" y2="-8.965605626970984" x1="122.382089844837" y1="12.82751549842321" stroke="#aaa" stroke-width="1" stroke-linecap="round"/>
</svg>
