<svg viewBox="0 0 12 12" xmlns="http://www.w3.org/2000/svg" style="background-color: #222;">

    <defs>
      <style>
        path {
          stroke: #006aff;
          stroke-width: 0.31535214234797115;
          stroke-linecap: round;
          fill: none;
        }
      </style>
    </defs>
    
<svg x="0" y="0">
<path d="M 6.0 5.0 L 7.0 6.0"/>
<path d="M 6,6 L 7.0,6.0"/>
<path d="M 6,6 L 6.0,7.0"/>
<path d="M 6,6 L 5.0,6.0"/>
<path d="M 5.0 6.0 L 4.0 6.0"/>
<path d="M 6.0 4.0 L 8.0 6.0"/>
<path d="M 6.0 4.0 L 4.0 6.0"/>
<path d="M 6.0 7.0 L 6.0 8.0"/>
<path d="M 8.0 6.0 L 9.0 6.0"/>
<path d="M 4.0 6.0 L 3.0 6.0"/>
<path d="M 6.0 3.0 L 3.0 6.0"/>
<path d="M 6.0 3.0 L 6.000000000000001 2.0"/>
<path d="M 6.0 9.0 L 6.0 10.0"/>
<path d="M 6.0 9.0 L 3.0 6.0"/>
<path d="M 6.000000000000001 2.0 L 6.000000000000001 1.0"/>
<path d="M 6.000000000000001 2.0 L 2.0 6.0"/>
<path d="M 10.0 6.0 L 6.0 10.0"/>
<path d="M 10.0 6.0 L 11.0 6.0"/>
<path d="M 2.0 6.0 L 1.0 6.0"/>
<path d="M 6.0 11.0 L 1.0 6.0"/>
</svg>
</svg>
