<svg viewBox="0 0 26 26" xmlns="http://www.w3.org/2000/svg" style="background-color: #222;">

    <defs>
      <style>
        path {
          stroke: #006aff;
          stroke-width: 0.04445638238918347;
          stroke-linecap: round;
          fill: none;
        }
      </style>
    </defs>
    
<svg x="0" y="0">
<path d="M 13.0 12.0 A 1 1 0 0 0 13.0 14.0"/>
<path d="M 13.0 12.0 L 13.0 11.0"/>
<path d="M 13.0 11.0 A 2 2 0 0 0 13.0 15.0"/>
<path d="M 13.0 11.0 L 13.0 10.0"/>
<path d="M 13.0 10.0 A 3 3 0 0 0 13.0 16.0"/>
<path d="M 13.0 10.0 L 13.0 9.0"/>
<path d="M 13.0 16.0 L 13.0 17.0"/>
<path d="M 13.0 17.0 L 13.0 18.0"/>
<path d="M 13.0 8.0 L 13.0 7.0"/>
<path d="M 13.0 18.0 L 13.0 19.0"/>
<path d="M 13.0 7.0 L 13.0 6.0"/>
<path d="M 13.0 19.0 L 13.0 20.0"/>
<path d="M 13.0 6.0 L 13.000000000000002 5.0"/>
<path d="M 13.0 20.0 L 13.0 21.0"/>
<path d="M 13.000000000000002 5.0 L 13.000000000000002 4.0"/>
<path d="M 13.0 5.0 A 8 8 0 0 0 13.000000000000002 21.0"/>
<path d="M 13.000000000000002 4.0 L 13.000000000000002 3.0"/>
<path d="M 13.0 22.0 L 13.0 23.0"/>
<path d="M 13.0 3.0 A 10 10 0 0 0 13.000000000000002 23.0"/>
<path d="M 13.0 23.0 L 13.0 24.0"/>
<path d="M 13.0 2.0 A 11 11 0 0 0 13.000000000000002 24.0"/>
<path d="M 13.000000000000002 2.0 L 13.000000000000002 1.0"/>
<path d="M 13.0 1.0 A 12 12 0 0 0 13.000000000000002 25.0"/>
</svg>
</svg>
