<svg viewBox="0 0 8 8" xmlns="http://www.w3.org/2000/svg" style="background-color: #222;">

    <defs>
      <style>
        path {
          stroke: #006aff;
          stroke-width: 0.10415651420065254;
          stroke-linecap: round;
          fill: none;
        }
      </style>
    </defs>
    
<svg x="0" y="0">
<path d="M 4.0 3.0 L 4.0 2.0"/>
<path d="M 4.0 3.0 A 1 1 0 0 1 4.433883739117558 3.099031132097581"/>
<path d="M 3.566116260882442 3.099031132097581 L 3.1322325217648834 2.198062264195162"/>
<path d="M 4.0 2.0 A 2 2 0 0 1 4.867767478235116 2.198062264195162"/>
<path d="M 4.7818314824680295 3.3765101981412666 A 1 1 0 0 1 4.9749279121818235 3.7774790660436857"/>
<path d="M 4.78183148246803 3.3765101981412666 L 5.56366296493606 2.7530203962825333"/>
<path d="M 4.867767478235116 2.198062264195162 L 5.301651217352674 1.297093396292743"/>
<path d="M 4.9749279121818235 3.7774790660436857 A 1 1 0 0 1 4.9749279121818235 4.222520933956314"/>
<path d="M 4.9749279121818235 4.222520933956314 L 5.949855824363647 4.445041867912629"/>
<path d="M 5.949855824363647 3.5549581320873713 A 2 2 0 0 1 5.949855824363647 4.445041867912629"/>
<path d="M 5.949855824363647 3.5549581320873713 L 6.924783736545471 3.332437198131057"/>
<path d="M 4.78183148246803 4.623489801858733 A 1 1 0 0 1 4.433883739117558 4.900968867902419"/>
<path d="M 4.433883739117558 4.900968867902419 L 4.867767478235116 5.801937735804838"/>
<path d="M 5.563662964936059 5.246979603717467 L 6.345494447404089 5.870469405576201"/>
<path d="M 5.56366296493606 5.246979603717467 A 2 2 0 0 1 4.867767478235116 5.801937735804838"/>
<path d="M 4.0 5.0 L 4.0 6.0"/>
<path d="M 4.0 5.0 A 1 1 0 0 1 3.566116260882442 4.900968867902419"/>
<path d="M 3.566116260882442 4.900968867902419 L 3.132232521764884 5.801937735804838"/>
<path d="M 4.0 6.0 L 4.0 7.0"/>
<path d="M 3.2181685175319705 4.623489801858733 A 1 1 0 0 1 3.0250720878181765 4.222520933956314"/>
<path d="M 3.2181685175319705 4.623489801858733 L 2.4363370350639406 5.246979603717467"/>
<path d="M 3.132232521764884 5.801937735804838 A 2 2 0 0 1 2.4363370350639406 5.246979603717468"/>
<path d="M 3.0250720878181765 4.222520933956314 A 1 1 0 0 1 3.0250720878181765 3.7774790660436857"/>
<path d="M 2.4363370350639406 5.246979603717467 L 1.6545055525959107 5.870469405576201"/>
<path d="M 3.0250720878181765 3.7774790660436857 L 2.050144175636353 3.5549581320873713"/>
<path d="M 2.050144175636353 4.445041867912629 L 1.075216263454529 4.667562801868943"/>
<path d="M 3.21816851753197 3.3765101981412666 L 2.43633703506394 2.7530203962825333"/>
<path d="M 2.050144175636353 3.5549581320873713 L 1.075216263454529 3.332437198131057"/>
<path d="M 2.050144175636353 3.5549581320873718 A 2 2 0 0 1 2.43633703506394 2.7530203962825333"/>
<path d="M 2.43633703506394 2.7530203962825333 L 1.6545055525959103 2.1295305944238"/>
<path d="M 2.43633703506394 2.7530203962825333 A 2 2 0 0 1 3.1322325217648834 2.198062264195162"/>
<path d="M 3.1322325217648834 2.198062264195162 L 2.6983487826473254 1.297093396292743"/>
<path d="M 2.698348782647325 1.297093396292743 A 3 3 0 0 1 3.999999999999999 1.0"/>
<path d="M 4.0 1.0 A 3 3 0 0 1 5.301651217352674 1.2970933962927425"/>
<path d="M 6.345494447404089 2.129530594423799 A 3 3 0 0 1 6.924783736545471 3.3324371981310565"/>
<path d="M 6.924783736545471 3.3324371981310565 A 3 3 0 0 1 6.924783736545471 4.667562801868943"/>
<path d="M 6.924783736545471 4.667562801868943 A 3 3 0 0 1 6.345494447404089 5.8704694055762"/>
<path d="M 6.345494447404089 5.8704694055762 A 3 3 0 0 1 5.301651217352674 6.702906603707257"/>
<path d="M 5.301651217352674 6.702906603707257 A 3 3 0 0 1 4.0 7.0"/>
<path d="M 4.0 7.0 A 3 3 0 0 1 2.698348782647326 6.702906603707257"/>
<path d="M 1.6545055525959107 5.870469405576201 A 3 3 0 0 1 1.0752162634545295 4.667562801868944"/>
</svg>
</svg>
