<svg viewBox="0 0 24 24" xmlns="http://www.w3.org/2000/svg" style="background-color: #222;">

    <defs>
      <style>
        path {
          stroke: #fff824;
          stroke-width: 0.6697705248678381;
          stroke-linecap: round;
          fill: none;
        }
      </style>
    </defs>
    
<svg x="0" y="0">
<path d="M 12,12 L 12.0,11.0"/>
<path d="M 12.0 11.0 A 1 1 0 0 1 12.361241666187153 11.067527770595644"/>
<path d="M 12.361241666187153 11.067527770595644 L 12.722483332374306 10.135055541191289"/>
<path d="M 12,12 L 11.03817435682718,12.273662990072083"/>
<path d="M 12,12 L 12.995734176295034,11.907731640536698"/>
<path d="M 12,12 L 11.81625048218343,12.982973099683901"/>
<path d="M 12,12 L 11.326304356353443,11.260991082779341"/>
<path d="M 12,12 L 12.798017227280239,12.602634636379257"/>
<path d="M 12,12 L 12.96182564317282,12.273662990072083"/>
<path d="M 11.638758333812847 11.067527770595644 L 11.277516667625694 10.135055541191289"/>
<path d="M 11.326304356353443 11.260991082779341 A 1 1 0 0 1 11.638758333812847 11.067527770595644"/>
<path d="M 11.277516667625694 10.135055541191289 A 2 2 0 0 1 12.0 10.0"/>
<path d="M 12.673695643646557 11.260991082779341 A 1 1 0 0 1 12.895163291355063 11.554261644223462"/>
<path d="M 12.722483332374306 10.135055541191289 A 2 2 0 0 1 13.347391287293114 10.521982165558683"/>
<path d="M 12.722483332374306 10.135055541191289 L 13.083724998561458 9.202583311786933"/>
<path d="M 12.895163291355063 11.554261644223462 A 1 1 0 0 1 12.995734176295034 11.907731640536698"/>
<path d="M 12.995734176295034 11.907731640536698 L 13.991468352590068 11.815463281073397"/>
<path d="M 12.798017227280239 12.602634636379257 A 1 1 0 0 1 12.526432162877356 12.850217135729615"/>
<path d="M 12.526432162877356 12.850217135729615 L 13.052864325754712 13.700434271459228"/>
<path d="M 12.18374951781657 12.982973099683901 A 1 1 0 0 1 11.81625048218343 12.982973099683901"/>
<path d="M 11.473567837122644 12.850217135729615 L 10.947135674245288 13.700434271459228"/>
<path d="M 11.201982772719761 12.602634636379257 L 10.40396554543952 13.205269272758512"/>
<path d="M 11.03817435682718 12.273662990072083 A 1 1 0 0 1 11.004265823704966 11.9077316405367"/>
<path d="M 11.03817435682718 12.273662990072083 L 10.076348713654362 12.547325980144166"/>
<path d="M 11.004265823704966 11.907731640536698 L 10.008531647409932 11.815463281073397"/>
<path d="M 11.104836708644937 11.554261644223462 A 1 1 0 0 1 11.326304356353443 11.260991082779341"/>
<path d="M 13.790326582710124 11.108523288446923 L 14.685489874065187 10.662784932670386"/>
<path d="M 13.923651286345638 12.547325980144166 L 14.885476929518457 12.820988970216249"/>
<path d="M 13.923651286345638 12.547325980144166 A 2 2 0 0 1 13.59603445456048 13.205269272758512"/>
<path d="M 13.59603445456048 13.205269272758512 A 2 2 0 0 1 13.052864325754712 13.700434271459228"/>
<path d="M 13.052864325754712 13.700434271459228 A 2 2 0 0 1 12.367499035633141 13.965946199367803"/>
<path d="M 12.367499035633141 13.965946199367803 L 12.55124855344971 14.948919299051706"/>
<path d="M 12.367499035633141 13.965946199367803 A 2 2 0 0 1 11.63250096436686 13.965946199367803"/>
<path d="M 11.63250096436686 13.965946199367803 A 2 2 0 0 1 10.947135674245288 13.700434271459228"/>
<path d="M 10.40396554543952 13.205269272758514 A 2 2 0 0 1 10.076348713654362 12.547325980144166"/>
<path d="M 10.076348713654362 12.547325980144166 L 9.114523070481543 12.820988970216249"/>
<path d="M 10.008531647409932 11.815463281073397 A 2 2 0 0 1 10.209673417289874 11.108523288446925"/>
<path d="M 10.209673417289874 11.108523288446925 A 2 2 0 0 1 10.652608712706884 10.521982165558683"/>
<path d="M 10.209673417289874 11.108523288446925 L 9.314510125934813 10.662784932670387"/>
<path d="M 10.91627500143854 9.202583311786933 A 3 3 0 0 1 12.0 9.0"/>
<path d="M 12.0 9.0 A 3 3 0 0 1 13.08372499856146 9.202583311786933"/>
<path d="M 13.08372499856146 9.202583311786933 A 3 3 0 0 1 14.02108693093967 9.782973248338022"/>
<path d="M 13.083724998561458 9.202583311786933 L 13.44496666474861 8.270111082382577"/>
<path d="M 14.021086930939672 9.782973248338024 L 14.69478257458623 9.043964331117364"/>
<path d="M 14.02108693093967 9.782973248338022 A 3 3 0 0 1 14.685489874065187 10.662784932670386"/>
<path d="M 14.987202528885103 11.723194921610094 L 15.982936705180139 11.630926562146792"/>
<path d="M 14.885476929518457 12.820988970216249 A 3 3 0 0 1 14.394051681840718 13.807903909137769"/>
<path d="M 14.394051681840718 13.807903909137769 A 3 3 0 0 1 13.579296488632068 14.550651407188841"/>
<path d="M 13.579296488632068 14.550651407188841 L 14.105728651509423 15.400868542918456"/>
<path d="M 12.55124855344971 14.948919299051706 A 3 3 0 0 1 11.44875144655029 14.948919299051706"/>
<path d="M 11.44875144655029 14.948919299051706 A 3 3 0 0 1 10.420703511367932 14.550651407188843"/>
<path d="M 10.420703511367932 14.550651407188841 L 9.894271348490577 15.400868542918456"/>
<path d="M 9.605948318159282 13.807903909137769 A 3 3 0 0 1 9.114523070481543 12.820988970216249"/>
<path d="M 9.605948318159282 13.807903909137769 L 8.807931090879041 14.410538545517026"/>
<path d="M 9.114523070481543 12.820988970216249 A 3 3 0 0 1 9.012797471114897 11.723194921610096"/>
<path d="M 9.114523070481543 12.820988970216249 L 8.152697427308723 13.094651960288331"/>
<path d="M 9.012797471114897 11.723194921610094 L 8.017063294819861 11.630926562146794"/>
<path d="M 9.314510125934813 10.662784932670387 L 8.41934683457975 10.217046576893848"/>
<path d="M 9.978913069060326 9.782973248338024 L 9.305217425413769 9.043964331117365"/>
<path d="M 12.0 8.0 A 4 4 0 0 1 13.444966664748613 8.270111082382577"/>
<path d="M 14.69478257458623 9.043964331117364 L 15.368478218232786 8.304955413896705"/>
<path d="M 15.58065316542025 10.217046576893846 L 16.475816456775313 9.771308221117309"/>
<path d="M 15.982936705180137 11.630926562146792 A 4 4 0 0 1 15.847302572691277 13.094651960288331"/>
<path d="M 15.847302572691277 13.094651960288331 A 4 4 0 0 1 15.192068909120959 14.410538545517024"/>
<path d="M 15.847302572691277 13.094651960288331 L 16.809128215864096 13.368314950360414"/>
<path d="M 15.192068909120959 14.410538545517024 A 4 4 0 0 1 14.105728651509423 15.400868542918456"/>
<path d="M 12.734998071266281 15.931892398735608 L 12.918747589082852 16.91486549841951"/>
<path d="M 12.734998071266281 15.931892398735608 A 4 4 0 0 1 11.265001928733719 15.931892398735608"/>
<path d="M 11.265001928733719 15.931892398735608 L 11.081252410917148 16.91486549841951"/>
<path d="M 11.265001928733719 15.931892398735608 A 4 4 0 0 1 9.894271348490578 15.400868542918458"/>
<path d="M 8.807931090879041 14.410538545517026 L 8.009913863598802 15.013173181896281"/>
<path d="M 8.41934683457975 10.217046576893848 L 7.524183543224687 9.77130822111731"/>
<path d="M 8.41934683457975 10.21704657689385 A 4 4 0 0 1 9.305217425413769 9.043964331117365"/>
<path d="M 9.305217425413769 9.043964331117365 A 4 4 0 0 1 10.555033335251384 8.270111082382577"/>
<path d="M 12.0 7.0 A 5 5 0 0 1 13.806208330935764 7.337638852978221"/>
<path d="M 13.806208330935764 7.337638852978221 L 14.167449997122917 6.405166623573865"/>
<path d="M 13.806208330935764 7.337638852978221 A 5 5 0 0 1 15.368478218232786 8.304955413896705"/>
<path d="M 15.368478218232786 8.304955413896705 L 16.042173861879345 7.565946496676046"/>
<path d="M 16.475816456775313 9.771308221117309 A 5 5 0 0 1 16.97867088147517 11.53865820268349"/>
<path d="M 16.475816456775313 9.771308221117309 L 17.370979748130374 9.325569865340771"/>
<path d="M 16.978670881475175 11.538658202683491 L 17.974405057770205 11.446389843220189"/>
<path d="M 16.809128215864096 13.368314950360414 A 5 5 0 0 1 15.990086136401198 15.013173181896281"/>
<path d="M 16.809128215864096 13.368314950360414 L 17.770953859036915 13.641977940432497"/>
<path d="M 15.990086136401198 15.013173181896281 L 16.788103363681437 15.615807818275538"/>
<path d="M 15.990086136401198 15.013173181896281 A 5 5 0 0 1 14.63216081438678 16.25108567864807"/>
<path d="M 9.36783918561322 16.25108567864807 A 5 5 0 0 1 8.009913863598804 15.013173181896283"/>
<path d="M 8.009913863598802 15.013173181896281 L 7.2118966363185635 15.615807818275538"/>
<path d="M 7.190871784135905 13.368314950360414 L 6.229046140963086 13.641977940432497"/>
<path d="M 7.021329118524827 11.538658202683491 L 6.025594942229793 11.44638984322019"/>
<path d="M 7.524183543224687 9.77130822111731 L 6.629020251869624 9.325569865340773"/>
<path d="M 8.631521781767212 8.304955413896707 A 5 5 0 0 1 10.19379166906423 7.337638852978222"/>
<path d="M 10.193791669064236 7.337638852978221 L 9.832550002877083 6.405166623573865"/>
<path d="M 12.0 6.0 A 6 6 0 0 1 14.167449997122917 6.405166623573865"/>
<path d="M 16.042173861879345 7.565946496676046 L 16.7158695055259 6.826937579455387"/>
<path d="M 17.370979748130374 9.325569865340771 L 18.266143039485435 8.879831509564232"/>
<path d="M 16.788103363681437 15.615807818275538 L 17.586120590961677 16.218442454654795"/>
<path d="M 15.158592977264137 17.101302814377682 A 6 6 0 0 1 13.102497106899424 17.897838598103412"/>
<path d="M 15.158592977264135 17.101302814377682 L 15.68502514014149 17.951519950107297"/>
<path d="M 13.102497106899422 17.897838598103412 L 13.286246624715991 18.880811697787312"/>
<path d="M 10.897502893100578 17.897838598103412 L 10.713753375284009 18.880811697787312"/>
<path d="M 10.89750289310058 17.897838598103412 A 6 6 0 0 1 8.841407022735867 17.101302814377686"/>
<path d="M 8.841407022735865 17.101302814377686 A 6 6 0 0 1 7.2118966363185635 15.615807818275538"/>
<path d="M 8.841407022735865 17.101302814377682 L 8.31497485985851 17.951519950107297"/>
<path d="M 6.229046140963086 13.641977940432497 L 5.267220497790267 13.915640930504582"/>
<path d="M 6.025594942229793 11.44638984322019 A 6 6 0 0 1 6.629020251869624 9.325569865340773"/>
<path d="M 6.629020251869624 9.325569865340773 A 6 6 0 0 1 7.957826138120653 7.565946496676048"/>
<path d="M 7.957826138120653 7.565946496676048 L 7.284130494474096 6.8269375794553895"/>
<path d="M 9.832550002877083 6.405166623573865 L 9.47130833668993 5.472694394169509"/>
<path d="M 12.0 5.0 L 12.000000000000002 4.0"/>
<path d="M 14.52869166331007 5.472694394169509 L 14.889933329497223 4.5402221647651535"/>
<path d="M 14.52869166331007 5.472694394169509 A 7 7 0 0 1 16.7158695055259 6.826937579455386"/>
<path d="M 16.7158695055259 6.826937579455386 A 7 7 0 0 1 18.266143039485435 8.879831509564232"/>
<path d="M 18.266143039485435 8.879831509564232 A 7 7 0 0 1 18.970139234065243 11.354121483756886"/>
<path d="M 18.732779502209734 13.91564093050458 A 7 7 0 0 1 17.586120590961677 16.218442454654795"/>
<path d="M 17.586120590961677 16.218442454654795 A 7 7 0 0 1 15.685025140141493 17.951519950107297"/>
<path d="M 8.31497485985851 17.951519950107297 L 7.788542696981152 18.801737085836912"/>
<path d="M 6.413879409038325 16.218442454654795 A 7 7 0 0 1 5.267220497790267 13.915640930504582"/>
<path d="M 5.267220497790267 13.915640930504582 A 7 7 0 0 1 5.029860765934758 11.35412148375689"/>
<path d="M 5.029860765934758 11.354121483756888 L 4.034126589639723 11.261853124293587"/>
<path d="M 5.733856960514562 8.879831509564236 A 7 7 0 0 1 7.284130494474096 6.8269375794553895"/>
<path d="M 7.284130494474096 6.8269375794553895 A 7 7 0 0 1 9.471308336689923 5.472694394169512"/>
<path d="M 12.0 4.0 A 8 8 0 0 1 14.889933329497223 4.5402221647651535"/>
<path d="M 14.889933329497223 4.5402221647651535 A 8 8 0 0 1 17.38956514917246 6.087928662234727"/>
<path d="M 17.38956514917246 6.087928662234727 A 8 8 0 0 1 19.1613063308405 8.434093153787693"/>
<path d="M 19.1613063308405 8.434093153787693 A 8 8 0 0 1 19.965873410360274 11.261853124293584"/>
<path d="M 19.965873410360274 11.261853124293584 A 8 8 0 0 1 19.694605145382553 14.189303920576663"/>
<path d="M 19.694605145382553 14.189303920576664 L 20.65643078855537 14.462966910648747"/>
<path d="M 18.384137818241918 16.82107709103405 A 8 8 0 0 1 16.211457303018847 18.801737085836912"/>
<path d="M 18.384137818241918 16.821077091034052 L 19.182155045522155 17.423711727413306"/>
<path d="M 16.211457303018847 18.801737085836912 A 8 8 0 0 1 13.469996142532565 19.86378479747121"/>
<path d="M 13.469996142532564 19.863784797471215 A 8 8 0 0 1 10.530003857467438 19.863784797471215"/>
<path d="M 7.788542696981153 18.801737085836912 A 8 8 0 0 1 5.615862181758085 16.821077091034052"/>
<path d="M 5.615862181758084 16.821077091034052 L 4.817844954477844 17.423711727413306"/>
<path d="M 4.305394854617448 14.189303920576664 L 3.3435692114446294 14.462966910648747"/>
<path d="M 4.034126589639723 11.261853124293587 A 8 8 0 0 1 4.8386936691594995 8.434093153787698"/>
<path d="M 4.8386936691594995 8.434093153787698 L 3.9435303778044375 7.9883547980111596"/>
<path d="M 4.8386936691594995 8.434093153787698 A 8 8 0 0 1 6.610434850827538 6.087928662234731"/>
<path d="M 9.110066670502777 4.5402221647651535 L 8.748825004315623 3.607749935360797"/>
<path d="M 8.748825004315623 3.607749935360797 A 9 9 0 0 1 11.999999999999998 3.0"/>
<path d="M 15.251174995684377 3.607749935360797 L 15.612416661871528 2.675277705956441"/>
<path d="M 15.251174995684377 3.607749935360797 A 9 9 0 0 1 18.063260792819015 5.348919745014069"/>
<path d="M 18.063260792819015 5.348919745014069 A 9 9 0 0 1 20.05646962219556 7.988354798011155"/>
<path d="M 20.05646962219556 7.988354798011156 L 20.951632913550625 7.542616442234618"/>
<path d="M 20.96160758665531 11.169584764830281 A 9 9 0 0 1 20.65643078855537 14.462966910648746"/>
<path d="M 20.65643078855537 14.462966910648746 A 9 9 0 0 1 19.18215504552216 17.423711727413306"/>
<path d="M 19.18215504552216 17.423711727413306 A 9 9 0 0 1 16.737889465896203 19.651954221566527"/>
<path d="M 19.182155045522155 17.423711727413306 L 19.980172272802395 18.026346363792562"/>
<path d="M 13.653745660349133 20.846757897155115 L 13.837495178165703 21.829730996839018"/>
<path d="M 13.653745660349134 20.846757897155115 A 9 9 0 0 1 10.34625433965087 20.846757897155115"/>
<path d="M 10.34625433965087 20.846757897155115 A 9 9 0 0 1 7.2621105341038 19.651954221566527"/>
<path d="M 7.2621105341037975 19.651954221566527 A 9 9 0 0 1 4.817844954477845 17.42371172741331"/>
<path d="M 4.817844954477845 17.42371172741331 A 9 9 0 0 1 3.3435692114446294 14.462966910648749"/>
<path d="M 3.3435692114446294 14.462966910648749 A 9 9 0 0 1 3.0383924133446882 11.169584764830287"/>
<path d="M 3.0383924133446882 11.169584764830285 L 2.042658237049654 11.077316405366982"/>
<path d="M 3.0383924133446882 11.169584764830287 A 9 9 0 0 1 3.9435303778044375 7.98835479801116"/>
<path d="M 3.9435303778044375 7.9883547980111596 L 3.0483670864493746 7.542616442234622"/>
<path d="M 5.93673920718098 5.348919745014072 A 9 9 0 0 1 8.748825004315616 3.6077499353608005"/>
<path d="M 8.748825004315623 3.607749935360797 L 8.387583338128472 2.675277705956441"/>
<path d="M 8.38758333812847 2.675277705956441 A 10 10 0 0 1 11.999999999999998 2.0"/>
<path d="M 12.0 2.0 A 10 10 0 0 1 15.61241666187153 2.675277705956441"/>
<path d="M 15.61241666187153 2.675277705956441 A 10 10 0 0 1 18.736956436465572 4.609910827793409"/>
<path d="M 15.612416661871528 2.675277705956441 L 15.973658328058681 1.7428054765520855"/>
<path d="M 21.957341762950346 11.07731640536698 L 22.95307593924538 10.98504804590368"/>
<path d="M 21.61825643172819 14.736629900720828 A 10 10 0 0 1 19.980172272802395 18.026346363792562"/>
<path d="M 21.61825643172819 14.73662990072083 L 22.580082074901007 15.010292890792913"/>
<path d="M 19.980172272802395 18.026346363792562 A 10 10 0 0 1 17.26432162877356 20.50217135729614"/>
<path d="M 13.837495178165703 21.829730996839018 L 14.021244695982272 22.81270409652292"/>
<path d="M 10.162504821834297 21.829730996839018 L 9.978755304017728 22.81270409652292"/>
<path d="M 10.162504821834299 21.829730996839018 A 10 10 0 0 1 6.735678371226445 20.50217135729614"/>
<path d="M 6.735678371226442 20.50217135729614 A 10 10 0 0 1 4.019827727197606 18.026346363792566"/>
<path d="M 2.38174356827181 14.736629900720832 A 10 10 0 0 1 2.042658237049654 11.077316405366984"/>
<path d="M 2.38174356827181 14.73662990072083 L 1.419917925098991 15.010292890792913"/>
<path d="M 3.0483670864493746 7.542616442234623 A 10 10 0 0 1 5.263043563534422 4.6099108277934135"/>
<path d="M 3.0483670864493746 7.542616442234622 L 2.1532037950943117 7.0968780864580845"/>
<path d="M 8.387583338128472 2.675277705956441 L 8.026341671941319 1.7428054765520855"/>
<path d="M 12.0 1.0 A 11 11 0 0 1 15.973658328058683 1.7428054765520855"/>
<path d="M 15.973658328058683 1.7428054765520855 A 11 11 0 0 1 19.41065208011213 3.8709019105727496"/>
<path d="M 21.846796204905687 7.096878086458078 A 11 11 0 0 1 22.95307593924538 10.985048045903678"/>
<path d="M 22.95307593924538 10.985048045903678 A 11 11 0 0 1 22.580082074901007 15.010292890792911"/>
<path d="M 22.580082074901007 15.010292890792911 A 11 11 0 0 1 20.778189500082636 18.62898100017182"/>
<path d="M 17.790753791650918 21.352388493025753 A 11 11 0 0 1 14.02124469598228 22.812704096522918"/>
<path d="M 14.021244695982274 22.81270409652292 A 11 11 0 0 1 9.978755304017728 22.81270409652292"/>
<path d="M 6.209246208349086 21.352388493025757 A 11 11 0 0 1 3.2218104999173676 18.62898100017182"/>
<path d="M 3.2218104999173676 18.62898100017182 A 11 11 0 0 1 1.419917925098991 15.010292890792915"/>
<path d="M 1.0469240607546197 10.985048045903683 A 11 11 0 0 1 2.1532037950943117 7.0968780864580845"/>
<path d="M 2.1532037950943117 7.0968780864580845 A 11 11 0 0 1 4.589347919887865 3.870901910572755"/>
<path d="M 4.589347919887865 3.870901910572755 A 11 11 0 0 1 8.026341671941308 1.742805476552089"/>
</svg>
</svg>
