<svg viewBox="0 0 18 18" xmlns="http://www.w3.org/2000/svg" style="background-color: #222;">

    <defs>
      <style>
        path {
          stroke: #5f8eec;
          stroke-width: 0.0354224303353147;
          stroke-linecap: round;
          fill: none;
        }
      </style>
    </defs>

<svg x="0" y="0">
<path d="M 9.0 8.0 L 8.13397459621556 9.5"/>
<path d="M 9.86602540378444 9.5 L 8.13397459621556 9.5"/>
<path d="M 9.86602540378444 9.5 L 10.732050807568877 10.0"/>
<path d="M 9.0 7.0 L 10.732050807568877 10.0"/>
<path d="M 9.0 7.0 L 7.267949192431123 10.0"/>
<path d="M 10.732050807568877 10.0 L 11.598076211353316 10.5"/>
<path d="M 9.0 6.0 L 9.0 5.0"/>
<path d="M 11.598076211353316 10.5 L 6.401923788646684 10.5"/>
<path d="M 11.598076211353316 10.5 L 12.464101615137755 11.0"/>
<path d="M 6.401923788646684 10.5 L 5.5358983848622465 11.000000000000002"/>
<path d="M 9.0 5.0 L 9.0 4.0"/>
<path d="M 5.5358983848622465 11.000000000000002 L 4.669872981077807 11.500000000000002"/>
<path d="M 9.0 4.0 L 4.669872981077807 11.500000000000002"/>
<path d="M 9.0 4.0 L 9.0 3.0"/>
<path d="M 13.330127018922195 11.5 L 4.669872981077807 11.500000000000002"/>
<path d="M 9.0 3.0 L 9.0 2.0"/>
<path d="M 9.0 3.0 L 3.803847577293369 12.000000000000002"/>
<path d="M 9.0 3.0 L 14.196152422706632 12.0"/>
<path d="M 14.196152422706632 12.0 L 15.062177826491071 12.5"/>
<path d="M 3.803847577293369 12.000000000000002 L 2.9378221735089305 12.500000000000002"/>
<path d="M 15.062177826491071 12.5 L 15.92820323027551 13.0"/>
<path d="M 2.9378221735089305 12.500000000000002 L 2.071796769724492 13.000000000000004"/>
<path d="M 9.000000000000002 1.0 L 15.92820323027551 13.0"/>
</svg>
</svg>
