<svg viewBox="0 0 16 16" xmlns="http://www.w3.org/2000/svg" style="background-color: #222;">

    <defs>
      <style>
        path {
          stroke: #006aff;
          stroke-width: 0.33172374976264146;
          stroke-linecap: round;
          fill: none;
        }
      </style>
    </defs>
    
<svg x="0" y="0">
<path d="M 8.0 7.0 A 1 1 0 0 1 8.540640817455598 7.158746467168819"/>
<path d="M 7.459359182544402 7.158746467168819 A 1 1 0 0 1 7.999999999999999 7.0"/>
<path d="M 8,8 L 8.0,7.0"/>
<path d="M 8.0 7.0 L 8.0 6.0"/>
<path d="M 8,8 L 7.010178558119067,8.142314838273284"/>
<path d="M 8,8 L 8.28173255684143,8.959492973614497"/>
<path d="M 8,8 L 8.989821441880933,8.142314838273284"/>
<path d="M 8,8 L 7.71826744315857,8.959492973614498"/>
<path d="M 8.0 6.0 A 2 2 0 0 1 9.081281634911194 6.317492934337638"/>
<path d="M 8.0 6.0 L 8.0 5.0"/>
<path d="M 8.909631995354518 7.584584986998114 A 1 1 0 0 1 8.989821441880933 8.142314838273284"/>
<path d="M 9.081281634911194 6.317492934337638 A 2 2 0 0 1 9.819263990709036 7.169169973996227"/>
<path d="M 8.989821441880933 8.142314838273284 L 9.979642883761866 8.28462967654657"/>
<path d="M 8.755749574354258 8.654860733945284 L 9.511499148708516 9.30972146789057"/>
<path d="M 8.755749574354258 8.654860733945284 A 1 1 0 0 1 8.28173255684143 8.959492973614497"/>
<path d="M 7.71826744315857 8.959492973614498 A 1 1 0 0 1 7.244250425645742 8.654860733945284"/>
<path d="M 7.010178558119067 8.142314838273284 A 1 1 0 0 1 7.090368004645481 7.584584986998114"/>
<path d="M 9.979642883761866 8.28462967654657 L 10.969464325642798 8.426944514819855"/>
<path d="M 9.511499148708516 9.30972146789057 A 2 2 0 0 1 8.56346511368286 9.918985947228995"/>
<path d="M 8.56346511368286 9.918985947228995 A 2 2 0 0 1 7.436534886317141 9.918985947228995"/>
<path d="M 7.436534886317141 9.918985947228995 A 2 2 0 0 1 6.488500851291484 9.30972146789057"/>
<path d="M 6.488500851291484 9.30972146789057 A 2 2 0 0 1 6.020357116238134 8.28462967654657"/>
<path d="M 6.020357116238134 8.28462967654657 A 2 2 0 0 1 6.180736009290963 7.169169973996228"/>
<path d="M 6.020357116238134 8.28462967654657 L 5.030535674357202 8.426944514819855"/>
<path d="M 6.180736009290964 7.169169973996226 A 2 2 0 0 1 6.9187183650888056 6.317492934337638"/>
<path d="M 6.918718365088804 6.317492934337638 L 6.378077547633206 5.476239401506458"/>
<path d="M 8.0 5.0 L 8.0 4.0"/>
<path d="M 9.621922452366793 5.476239401506456 L 10.16256326982239 4.634985868675276"/>
<path d="M 9.621922452366793 5.476239401506456 A 3 3 0 0 1 10.728895986063556 6.753754960994341"/>
<path d="M 10.969464325642798 8.426944514819855 L 11.959285767523731 8.569259353093141"/>
<path d="M 10.267248723062774 9.964582201835857 L 11.022998297417033 10.61944293578114"/>
<path d="M 8.845197670524291 10.878478920843492 A 3 3 0 0 1 7.154802329475712 10.878478920843492"/>
<path d="M 7.154802329475712 10.878478920843492 L 6.873069772634282 11.83797189445799"/>
<path d="M 5.7327512769372255 9.964582201835857 L 4.977001702582967 10.61944293578114"/>
<path d="M 5.030535674357202 8.426944514819855 A 3 3 0 0 1 5.271104013936444 6.753754960994342"/>
<path d="M 5.271104013936446 6.753754960994339 L 4.361472018581928 6.338339947992452"/>
<path d="M 5.837436730177608 4.634985868675277 A 4 4 0 0 1 7.999999999999996 4.0"/>
<path d="M 10.16256326982239 4.634985868675275 A 4 4 0 0 1 11.638527981418074 6.338339947992454"/>
<path d="M 10.16256326982239 4.634985868675276 L 10.703204087277989 3.793732335844094"/>
<path d="M 11.959285767523731 8.569259353093141 L 12.949107209404662 8.711574191366426"/>
<path d="M 11.022998297417033 10.61944293578114 L 11.77874787177129 11.274303669726425"/>
<path d="M 9.12693022736572 11.83797189445799 A 4 4 0 0 1 6.873069772634282 11.83797189445799"/>
<path d="M 6.873069772634282 11.83797189445799 A 4 4 0 0 1 4.977001702582967 10.61944293578114"/>
<path d="M 4.977001702582967 10.61944293578114 L 4.221252128228709 11.274303669726425"/>
<path d="M 4.977001702582967 10.61944293578114 A 4 4 0 0 1 4.040714232476269 8.569259353093141"/>
<path d="M 8.0 3.0 A 5 5 0 0 1 10.703204087277989 3.793732335844094"/>
<path d="M 8.0 3.0 L 8.0 2.0"/>
<path d="M 10.703204087277989 3.793732335844094 L 11.243844904733587 2.952478803012913"/>
<path d="M 12.548159976772592 5.922924934990569 L 13.457791972127112 5.507509921988682"/>
<path d="M 12.548159976772592 5.922924934990568 A 5 5 0 0 1 12.949107209404664 8.711574191366426"/>
<path d="M 11.77874787177129 11.274303669726425 A 5 5 0 0 1 9.408662784207149 12.797464868072487"/>
<path d="M 9.40866278420715 12.797464868072487 A 5 5 0 0 1 6.591337215792853 12.797464868072488"/>
<path d="M 6.591337215792853 12.797464868072488 A 5 5 0 0 1 4.221252128228709 11.274303669726425"/>
<path d="M 6.591337215792852 12.797464868072488 L 6.309604658951423 13.756957841686985"/>
<path d="M 3.050892790595337 8.711574191366426 L 2.061071348714404 8.85388902963971"/>
<path d="M 3.451840023227409 5.922924934990566 A 5 5 0 0 1 5.296795912722013 3.793732335844094"/>
<path d="M 5.2967959127220094 3.793732335844096 L 4.756155095266411 2.952478803012916"/>
<path d="M 8.0 2.0 L 8.0 1.0"/>
<path d="M 4.7561550952664104 2.952478803012916 A 6 6 0 0 1 7.999999999999993 2.0"/>
<path d="M 11.243844904733585 2.9524788030129123 A 6 6 0 0 1 13.45779197212711 5.507509921988682"/>
<path d="M 11.243844904733587 2.952478803012913 L 11.784485722189185 2.1112252701817322"/>
<path d="M 13.938928651285597 8.85388902963971 L 14.928750093166528 8.996203867912996"/>
<path d="M 12.534497446125549 11.929164403671711 L 13.290247020479807 12.584025137616997"/>
<path d="M 9.69039534104858 13.756957841686983 A 6 6 0 0 1 6.309604658951423 13.756957841686985"/>
<path d="M 6.309604658951423 13.756957841686985 L 6.027872102109994 14.716450815301481"/>
<path d="M 6.309604658951423 13.756957841686985 A 6 6 0 0 1 3.465502553874451 11.929164403671711"/>
<path d="M 2.061071348714404 8.85388902963971 L 1.0712499068334713 8.996203867912996"/>
<path d="M 2.061071348714404 8.853889029639712 A 6 6 0 0 1 2.5422080278728885 5.507509921988683"/>
<path d="M 2.542208027872891 5.507509921988678 L 1.6325760325183731 5.092094908986791"/>
<path d="M 4.756155095266411 2.952478803012916 L 4.215514277810813 2.111225270181735"/>
<path d="M 11.784485722189183 2.1112252701817313 A 7 7 0 0 1 14.367423967481628 5.092094908986795"/>
<path d="M 14.367423967481628 5.092094908986795 A 7 7 0 0 1 14.92875009316653 8.996203867912994"/>
<path d="M 14.92875009316653 8.996203867912994 A 7 7 0 0 1 13.290247020479809 12.584025137616994"/>
<path d="M 13.290247020479809 12.584025137616994 A 7 7 0 0 1 9.972127897890008 14.716450815301481"/>
<path d="M 9.97212789789001 14.716450815301481 A 7 7 0 0 1 6.027872102109994 14.716450815301481"/>
<path d="M 2.709752979520193 12.584025137616997 A 7 7 0 0 1 1.0712499068334713 8.996203867912996"/>
<path d="M 1.6325760325183722 5.092094908986793 A 7 7 0 0 1 4.215514277810818 2.1112252701817313"/>
</svg>
</svg>
