<svg viewBox="0 0 16 16" xmlns="http://www.w3.org/2000/svg" style="background-color: #222;">

    <defs>
      <style>
        path {
          stroke: #006aff;
          stroke-width: 0.050747408385983676;
          stroke-linecap: round;
          fill: none;
        }
      </style>
    </defs>
    
<svg x="0" y="0">
<path d="M 8.0 7.0 L 7.0 8.0"/>
<path d="M 8.0 7.0 L 9.0 8.0"/>
<path d="M 9.0 8.0 L 8.0 9.0"/>
<path d="M 7.0 8.0 L 6.0 8.0"/>
<path d="M 8.0 6.0 L 6.0 8.0"/>
<path d="M 10.0 8.0 L 11.0 8.0"/>
<path d="M 8.0 10.0 L 8.0 11.0"/>
<path d="M 8.0 10.0 L 6.0 8.0"/>
<path d="M 8.0 5.0 L 5.0 8.0"/>
<path d="M 11.0 8.0 L 12.0 8.0"/>
<path d="M 8.0 11.0 L 8.0 12.0"/>
<path d="M 8.0 11.0 L 5.0 8.0"/>
<path d="M 5.0 8.0 L 4.0 8.0"/>
<path d="M 8.0 4.0 L 8.0 3.0"/>
<path d="M 12.0 8.0 L 13.0 8.0"/>
<path d="M 12.0 8.0 L 8.0 12.0"/>
<path d="M 8.0 12.0 L 8.0 13.0"/>
<path d="M 4.0 8.0 L 3.0 8.0"/>
<path d="M 8.0 3.0 L 8.0 2.0"/>
<path d="M 8.0 3.0 L 13.0 8.0"/>
<path d="M 8.0 2.0 L 14.0 8.0"/>
<path d="M 8.0 2.0 L 2.0 8.0"/>
<path d="M 14.0 8.0 L 8.0 14.0"/>
<path d="M 14.0 8.0 L 15.0 8.0"/>
<path d="M 2.0 8.0 L 1.0 8.0"/>
<path d="M 8.0 1.0 L 1.0 8.0"/>
<path d="M 8.0 15.0 L 1.0 8.0"/>
</svg>
</svg>
