<svg viewBox="0 0 32 32" xmlns="http://www.w3.org/2000/svg" style="background-color: #222;">

    <defs>
      <style>
        path {
          stroke: #006aff;
          stroke-width: 0.15672236090854602;
          stroke-linecap: round;
          fill: none;
        }
      </style>
    </defs>
    
<svg x="0" y="0">
<path d="M 16.0 15.0 A 1 1 0 0 0 17.0 16.0"/>
<path d="M 17.0 16.0 L 18.0 16.0"/>
<path d="M 17.0 16.0 A 1 1 0 0 0 16.0 17.0"/>
<path d="M 16,16 L 15.0,16.0"/>
<path d="M 16,16 L 16.0,17.0"/>
<path d="M 15.0 16.0 L 14.0 16.0"/>
<path d="M 14.0 16.0 A 2 2 0 0 0 16.0 14.0"/>
<path d="M 18.0 16.0 A 2 2 0 0 0 16.0 18.0"/>
<path d="M 16.0 18.0 L 16.0 19.0"/>
<path d="M 13.0 16.0 A 3 3 0 0 0 16.0 13.0"/>
<path d="M 16.0 13.0 L 16.0 12.0"/>
<path d="M 16.0 13.0 A 3 3 0 0 0 19.0 16.0"/>
<path d="M 19.0 16.0 A 3 3 0 0 0 16.0 19.0"/>
<path d="M 16.0 19.0 L 16.0 20.0"/>
<path d="M 12.0 16.0 A 4 4 0 0 0 15.999999999999998 12.0"/>
<path d="M 20.0 16.0 L 21.0 16.0"/>
<path d="M 12.0 16.0 L 11.0 16.0"/>
<path d="M 16.0 11.0 L 16.0 10.0"/>
<path d="M 11.0 16.0 A 5 5 0 0 0 15.999999999999998 11.0"/>
<path d="M 21.0 16.0 A 5 5 0 0 0 16.0 21.0"/>
<path d="M 21.0 16.0 L 22.0 16.0"/>
<path d="M 10.0 16.0 A 6 6 0 0 0 15.999999999999998 10.0"/>
<path d="M 22.0 16.0 L 23.0 16.0"/>
<path d="M 16.0 22.0 A 6 6 0 0 0 10.0 16.0"/>
<path d="M 10.0 16.0 L 9.0 16.0"/>
<path d="M 9.0 16.0 A 7 7 0 0 0 15.999999999999998 9.0"/>
<path d="M 16.0 9.0 A 7 7 0 0 0 23.0 16.0"/>
<path d="M 16.0 9.0 L 16.0 8.0"/>
<path d="M 23.0 16.0 L 24.0 16.0"/>
<path d="M 16.0 23.0 L 16.0 24.0"/>
<path d="M 9.0 16.0 L 8.0 16.0"/>
<path d="M 16.0 24.0 L 16.0 25.0"/>
<path d="M 16.0 24.0 A 8 8 0 0 0 8.0 16.0"/>
<path d="M 16.0 7.0 L 16.0 6.0"/>
<path d="M 25.0 16.0 A 9 9 0 0 0 16.0 25.0"/>
<path d="M 25.0 16.0 L 26.0 16.0"/>
<path d="M 16.0 25.0 L 16.0 26.0"/>
<path d="M 7.0 16.0 L 6.0 16.0"/>
<path d="M 16.0 6.0 L 16.0 5.0"/>
<path d="M 26.0 16.0 L 27.0 16.0"/>
<path d="M 6.0 16.0 L 5.0 16.0"/>
<path d="M 5.0 16.000000000000004 A 11 11 0 0 0 15.999999999999996 5.0"/>
<path d="M 16.0 5.0 A 11 11 0 0 0 27.0 16.0"/>
<path d="M 27.0 16.0 A 11 11 0 0 0 16.0 27.0"/>
<path d="M 16.0 27.0 L 16.0 28.0"/>
<path d="M 16.0 4.0 A 12 12 0 0 0 28.0 16.0"/>
<path d="M 4.0 16.000000000000004 A 12 12 0 0 0 15.999999999999996 4.0"/>
<path d="M 28.0 16.0 L 29.0 16.0"/>
<path d="M 28.0 16.0 A 12 12 0 0 0 16.0 28.0"/>
<path d="M 16.0 28.0 L 16.0 29.0"/>
<path d="M 16.0 3.0 L 16.0 2.0"/>
<path d="M 16.0 29.0 A 13 13 0 0 0 3.0 16.000000000000004"/>
<path d="M 3.0 16.0 L 2.0 16.0"/>
<path d="M 2.0 16.000000000000004 A 14 14 0 0 0 15.999999999999996 2.0"/>
<path d="M 16.0 2.0 A 14 14 0 0 0 30.0 16.0"/>
<path d="M 16.0 2.0 L 16.000000000000004 1.0"/>
<path d="M 16.0 30.0 A 14 14 0 0 0 2.0 16.000000000000004"/>
<path d="M 1.0 16.000000000000004 A 15 15 0 0 0 15.999999999999996 1.0"/>
<path d="M 31.0 15.999999999999998 A 15 15 0 0 0 16.000000000000004 31.0"/>
<path d="M 16.000000000000004 31.0 A 15 15 0 0 0 1.0 16.000000000000004"/>
</svg>
</svg>
