<svg viewBox="0 0 16 16" xmlns="http://www.w3.org/2000/svg" style="background-color: #222;">

    <defs>
      <style>
        path {
          stroke: #24cfff;
          stroke-width: 0.5426295090581819;
          stroke-linecap: round;
          fill: none;
        }
      </style>
    </defs>
    
<svg x="0" y="0">
<path d="M 8,8 L 8.0,7.0"/>
<path d="M 8.0 7.0 L 8.587785252292473 7.1909830056250525"/>
<path d="M 8,8 L 7.412214747707527,7.1909830056250525"/>
<path d="M 8,8 L 8.951056516295154,8.309016994374947"/>
<path d="M 8,8 L 7.048943483704846,8.309016994374947"/>
<path d="M 8,8 L 8.0,9.0"/>
<path d="M 7.412214747707527 7.1909830056250525 L 7.048943483704846 7.6909830056250525"/>
<path d="M 8.0 6.0 L 9.175570504584947 6.381966011250105"/>
<path d="M 8.0 6.0 L 8.0 5.0"/>
<path d="M 8.951056516295154 7.6909830056250525 L 8.951056516295154 8.309016994374947"/>
<path d="M 9.175570504584947 6.381966011250105 L 9.76335575687742 5.5729490168751585"/>
<path d="M 9.175570504584947 6.381966011250105 L 9.902113032590307 7.381966011250105"/>
<path d="M 8.951056516295154 8.309016994374947 L 9.902113032590307 8.618033988749895"/>
<path d="M 8.587785252292473 8.809016994374947 L 9.175570504584947 9.618033988749895"/>
<path d="M 8.0 9.0 L 7.412214747707527 8.809016994374947"/>
<path d="M 8.0 9.0 L 8.0 10.0"/>
<path d="M 7.048943483704846 8.309016994374947 L 6.097886967409693 8.618033988749895"/>
<path d="M 7.048943483704846 7.6909830056250525 L 6.097886967409693 7.381966011250105"/>
<path d="M 9.902113032590307 7.381966011250105 L 10.853169548885461 7.072949016875158"/>
<path d="M 9.902113032590307 8.618033988749895 L 9.175570504584947 9.618033988749895"/>
<path d="M 9.175570504584947 9.618033988749895 L 9.76335575687742 10.427050983124843"/>
<path d="M 6.824429495415053 9.618033988749895 L 6.236644243122581 10.427050983124843"/>
<path d="M 6.097886967409693 7.381966011250105 L 6.824429495415053 6.381966011250105"/>
<path d="M 6.824429495415053 6.381966011250105 L 6.23664424312258 5.5729490168751585"/>
<path d="M 8.0 5.0 L 8.0 4.0"/>
<path d="M 10.853169548885461 7.072949016875158 L 11.804226065180615 6.76393202250021"/>
<path d="M 10.853169548885461 8.927050983124843 L 11.804226065180615 9.23606797749979"/>
<path d="M 8.0 11.0 L 8.0 12.0"/>
<path d="M 6.236644243122581 10.427050983124843 L 5.6488589908301075 11.23606797749979"/>
<path d="M 5.146830451114539 8.927050983124843 L 5.146830451114539 7.072949016875158"/>
<path d="M 5.146830451114539 8.927050983124843 L 4.195773934819385 9.23606797749979"/>
<path d="M 5.146830451114539 7.072949016875158 L 4.195773934819385 6.76393202250021"/>
<path d="M 5.146830451114539 7.072949016875158 L 6.23664424312258 5.5729490168751585"/>
<path d="M 8.0 4.0 L 5.648858990830107 4.76393202250021"/>
<path d="M 8.0 4.0 L 8.0 3.0"/>
<path d="M 10.351141009169893 4.76393202250021 L 11.804226065180615 6.76393202250021"/>
<path d="M 11.804226065180615 6.76393202250021 L 11.804226065180615 9.23606797749979"/>
<path d="M 11.804226065180615 9.23606797749979 L 12.755282581475768 9.545084971874736"/>
<path d="M 10.351141009169893 11.23606797749979 L 10.938926261462367 12.045084971874736"/>
<path d="M 8.0 12.0 L 5.6488589908301075 11.23606797749979"/>
<path d="M 5.6488589908301075 11.23606797749979 L 4.195773934819385 9.23606797749979"/>
<path d="M 5.6488589908301075 11.23606797749979 L 5.061073738537634 12.045084971874736"/>
<path d="M 4.195773934819385 6.76393202250021 L 3.244717418524232 6.454915028125264"/>
<path d="M 5.648858990830107 4.76393202250021 L 5.061073738537633 3.9549150281252636"/>
<path d="M 8.0 3.0 L 8.0 2.0"/>
<path d="M 10.938926261462367 3.9549150281252636 L 11.52671151375484 3.145898033750316"/>
<path d="M 12.755282581475768 6.454915028125264 L 13.706339097770922 6.145898033750316"/>
<path d="M 12.755282581475768 6.454915028125264 L 12.755282581475768 9.545084971874736"/>
<path d="M 12.755282581475768 9.545084971874736 L 13.706339097770922 9.854101966249685"/>
<path d="M 10.938926261462367 12.045084971874736 L 11.526711513754838 12.854101966249685"/>
<path d="M 10.938926261462367 12.045084971874736 L 8.0 13.0"/>
<path d="M 8.0 13.0 L 5.061073738537634 12.045084971874736"/>
<path d="M 3.2447174185242327 9.545084971874736 L 3.244717418524232 6.454915028125264"/>
<path d="M 8.0 2.0 L 8.0 1.0"/>
<path d="M 8.0 2.0 L 4.473288486245161 3.145898033750316"/>
<path d="M 11.52671151375484 3.145898033750316 L 12.114496766047314 2.3368810393753687"/>
<path d="M 13.706339097770922 6.145898033750316 L 14.657395614066075 5.836881039375369"/>
<path d="M 13.706339097770922 9.854101966249685 L 11.526711513754838 12.854101966249685"/>
<path d="M 11.526711513754838 12.854101966249685 L 8.0 14.0"/>
<path d="M 11.526711513754838 12.854101966249685 L 12.114496766047312 13.663118960624633"/>
<path d="M 4.473288486245162 12.854101966249685 L 2.293660902229079 9.854101966249685"/>
<path d="M 2.293660902229079 9.854101966249685 L 1.3426043859339254 10.163118960624633"/>
<path d="M 2.293660902229078 6.145898033750316 L 1.3426043859339245 5.836881039375369"/>
<path d="M 2.293660902229078 6.145898033750316 L 4.473288486245161 3.145898033750316"/>
<path d="M 12.114496766047314 2.3368810393753687 L 14.657395614066075 5.836881039375369"/>
<path d="M 14.657395614066075 5.836881039375369 L 14.657395614066075 10.163118960624633"/>
<path d="M 12.114496766047312 13.663118960624633 L 8.0 15.0"/>
<path d="M 3.8855032339526883 13.663118960624633 L 1.3426043859339254 10.163118960624633"/>
<path d="M 1.3426043859339254 10.163118960624633 L 1.3426043859339245 5.836881039375369"/>
<path d="M 1.3426043859339245 5.836881039375369 L 3.8855032339526874 2.3368810393753687"/>
</svg>
</svg>
