<svg viewBox="0 0 26 26" xmlns="http://www.w3.org/2000/svg" style="background-color: #222;">

    <defs>
      <style>
        path {
          stroke: #006aff;
          stroke-width: 0.3370352918608251;
          stroke-linecap: round;
          fill: none;
        }
      </style>
    </defs>
    
<svg x="0" y="0">
<path d="M 13.0 12.0 L 13.0 11.0"/>
<path d="M 13.324699469204683 12.054182758299365 A 1 1 0 0 0 13.614212712689667 12.210859490603607"/>
<path d="M 12.675300530795317 12.054182758299365 L 12.350601061590632 11.108365516598731"/>
<path d="M 12.385787287310333 12.210859490603607 A 1 1 0 0 0 12.675300530795317 12.054182758299365"/>
<path d="M 12.350601061590632 11.108365516598731 A 2 2 0 0 0 13.0 11.0"/>
<path d="M 13.0 11.0 L 13.0 10.0"/>
<path d="M 13.614212712689667 12.210859490603607 L 14.228425425379335 11.421718981207214"/>
<path d="M 13.649398938409368 11.108365516598731 L 13.97409840761405 10.162548274898096"/>
<path d="M 13.837166478262528 12.453051841877574 L 14.674332956525058 11.906103683755147"/>
<path d="M 13.837166478262528 12.453051841877572 A 1 1 0 0 0 13.969400265939331 12.7545145128592"/>
<path d="M 14.228425425379335 11.421718981207214 A 2 2 0 0 0 14.674332956525056 11.906103683755147"/>
<path d="M 14.228425425379335 11.421718981207214 L 14.842638138069004 10.63257847181082"/>
<path d="M 13.969400265939331 12.7545145128592 L 14.93880053187866 12.509029025718402"/>
<path d="M 14.674332956525058 11.906103683755147 L 15.511499434787586 11.359155525632719"/>
<path d="M 13.99658449300667 13.082579345472332 A 1 1 0 0 0 13.915773326655057 13.401695424652969"/>
<path d="M 14.93880053187866 12.509029025718402 A 2 2 0 0 0 14.99316898601334 13.165158690944665"/>
<path d="M 14.93880053187866 12.509029025718402 L 15.90820079781799 12.263543538577602"/>
<path d="M 13.915773326655058 13.401695424652969 A 1 1 0 0 0 13.735723910673132 13.677281571625741"/>
<path d="M 14.99316898601334 13.165158690944665 A 2 2 0 0 0 14.831546653310115 13.80339084930594"/>
<path d="M 13.735723910673132 13.677281571625741 L 14.471447821346263 14.354563143251482"/>
<path d="M 13.735723910673132 13.677281571625741 A 1 1 0 0 0 13.475947393037075 13.87947375120649"/>
<path d="M 14.831546653310115 13.803390849305938 L 15.747319979965173 14.205086273958909"/>
<path d="M 13.475947393037075 13.87947375120649 A 1 1 0 0 0 13.164594590280734 13.986361303402722"/>
<path d="M 14.471447821346263 14.354563143251482 A 2 2 0 0 0 13.951894786074147 14.758947502412978"/>
<path d="M 14.471447821346263 14.354563143251482 L 15.207171732019395 15.031844714877224"/>
<path d="M 13.951894786074147 14.758947502412978 A 2 2 0 0 0 13.329189180561468 14.972722606805444"/>
<path d="M 12.835405409719266 13.986361303402722 L 12.670810819438532 14.972722606805444"/>
<path d="M 13.329189180561468 14.972722606805444 A 2 2 0 0 0 12.670810819438532 14.972722606805444"/>
<path d="M 12.524052606962927 13.87947375120649 L 12.048105213925853 14.758947502412978"/>
<path d="M 12.524052606962927 13.87947375120649 A 1 1 0 0 0 12.264276089326868 13.677281571625741"/>
<path d="M 12.670810819438532 14.972722606805444 A 2 2 0 0 0 12.048105213925853 14.758947502412978"/>
<path d="M 12.670810819438532 14.972722606805444 L 12.506216229157799 15.959083910208168"/>
<path d="M 12.264276089326868 13.677281571625741 A 1 1 0 0 0 12.084226673344943 13.40169542465297"/>
<path d="M 11.528552178653737 14.354563143251482 L 10.792828267980607 15.031844714877224"/>
<path d="M 12.00341550699333 13.082579345472332 A 1 1 0 0 0 12.030599734060669 12.7545145128592"/>
<path d="M 11.168453346689885 13.80339084930594 A 2 2 0 0 0 11.00683101398666 13.165158690944665"/>
<path d="M 12.030599734060669 12.7545145128592 L 11.06119946812134 12.509029025718402"/>
<path d="M 12.030599734060669 12.7545145128592 A 1 1 0 0 0 12.162833521737472 12.453051841877574"/>
<path d="M 11.00683101398666 13.165158690944665 A 2 2 0 0 0 11.06119946812134 12.509029025718402"/>
<path d="M 12.162833521737472 12.453051841877574 L 11.325667043474942 11.906103683755147"/>
<path d="M 12.385787287310333 12.210859490603607 L 11.771574574620665 11.421718981207214"/>
<path d="M 11.325667043474942 11.906103683755147 L 10.488500565212414 11.359155525632719"/>
<path d="M 11.771574574620665 11.421718981207214 L 11.157361861930996 10.63257847181082"/>
<path d="M 12.350601061590632 11.108365516598731 L 12.02590159238595 10.162548274898096"/>
<path d="M 13.97409840761405 10.162548274898096 L 14.298797876818735 9.216731033197462"/>
<path d="M 13.97409840761405 10.162548274898096 A 3 3 0 0 0 14.842638138069002 10.632578471810818"/>
<path d="M 15.90820079781799 12.263543538577602 L 16.87760106375732 12.018058051436803"/>
<path d="M 15.98975347902001 13.247738036416997 A 3 3 0 0 0 15.747319979965173 14.205086273958909"/>
<path d="M 15.98975347902001 13.247738036416997 L 16.98633797202668 13.33031738188933"/>
<path d="M 15.747319979965173 14.205086273958909 A 3 3 0 0 0 15.207171732019395 15.031844714877224"/>
<path d="M 15.207171732019395 15.031844714877224 A 3 3 0 0 0 14.42784217911122 15.638421253619466"/>
<path d="M 13.493783770842201 15.959083910208168 L 13.658378361122935 16.94544521361089"/>
<path d="M 11.57215782088878 15.638421253619468 L 11.096210427851705 16.517895004825956"/>
<path d="M 11.57215782088878 15.638421253619468 A 3 3 0 0 0 10.792828267980605 15.031844714877224"/>
<path d="M 10.252680020034829 14.20508627395891 A 3 3 0 0 0 10.01024652097999 13.247738036416997"/>
<path d="M 10.252680020034829 14.205086273958909 L 9.33690669337977 14.60678169861188"/>
<path d="M 10.091799202182008 12.263543538577604 L 9.122398936242679 12.018058051436805"/>
<path d="M 10.488500565212414 11.359155525632719 L 9.651334086949884 10.812207367510293"/>
<path d="M 10.488500565212414 11.35915552563272 A 3 3 0 0 0 11.157361861930996 10.63257847181082"/>
<path d="M 12.02590159238595 10.162548274898096 L 11.701202123181265 9.216731033197462"/>
<path d="M 11.701202123181265 9.216731033197462 A 4 4 0 0 0 12.999999999999998 9.0"/>
<path d="M 13.0 9.0 A 4 4 0 0 0 14.298797876818734 9.216731033197462"/>
<path d="M 15.456850850758672 9.843437962414425 A 4 4 0 0 0 16.348665913050112 10.812207367510291"/>
<path d="M 16.348665913050116 10.812207367510293 L 17.185832391312644 10.265259209387867"/>
<path d="M 16.98633797202668 13.33031738188933 A 4 4 0 0 0 16.66309330662023 14.606781698611877"/>
<path d="M 16.66309330662023 14.606781698611877 L 17.57886663327529 15.008477123264846"/>
<path d="M 15.942895642692527 15.709126286502965 L 16.678619553365657 16.386407858128706"/>
<path d="M 14.903789572148295 16.517895004825956 A 4 4 0 0 0 13.658378361122937 16.94544521361089"/>
<path d="M 14.903789572148295 16.517895004825956 L 15.379736965185367 17.397368756032446"/>
<path d="M 13.658378361122937 16.94544521361089 A 4 4 0 0 0 12.341621638877065 16.94544521361089"/>
<path d="M 12.341621638877065 16.94544521361089 L 12.17702704859633 17.931806517013612"/>
<path d="M 11.096210427851705 16.517895004825956 A 4 4 0 0 0 10.057104357307473 15.709126286502965"/>
<path d="M 11.096210427851705 16.517895004825956 L 10.620263034814633 17.397368756032446"/>
<path d="M 10.057104357307475 15.709126286502965 A 4 4 0 0 0 9.33690669337977 14.60678169861188"/>
<path d="M 9.33690669337977 14.60678169861188 A 4 4 0 0 0 9.013662027973321 13.330317381889332"/>
<path d="M 9.013662027973321 13.33031738188933 L 8.017077534966651 13.412896727361662"/>
<path d="M 9.122398936242679 12.018058051436805 A 4 4 0 0 0 9.651334086949884 10.812207367510293"/>
<path d="M 9.651334086949884 10.812207367510293 A 4 4 0 0 0 10.543149149241328 9.843437962414427"/>
<path d="M 10.543149149241328 9.843437962414427 L 9.92893643655166 9.054297453018034"/>
<path d="M 13.0 8.0 L 13.0 7.0"/>
<path d="M 13.0 8.0 A 5 5 0 0 0 14.623497346023417 8.270913791496827"/>
<path d="M 11.376502653976582 8.270913791496827 A 5 5 0 0 0 12.999999999999998 8.0"/>
<path d="M 14.623497346023418 8.270913791496827 L 14.948196815228101 7.325096549796192"/>
<path d="M 14.623497346023417 8.270913791496827 A 5 5 0 0 0 16.07106356344834 9.054297453018032"/>
<path d="M 16.07106356344834 9.054297453018034 L 16.68527627613801 8.265156943621639"/>
<path d="M 16.07106356344834 9.054297453018032 A 5 5 0 0 0 17.185832391312644 10.265259209387864"/>
<path d="M 17.185832391312644 10.265259209387867 L 18.022998869575172 9.71831105126544"/>
<path d="M 17.847001329696653 11.772572564296004 A 5 5 0 0 0 17.982922465033347 13.41289672736166"/>
<path d="M 17.847001329696653 11.772572564296004 L 18.81640159563598 11.527087077155205"/>
<path d="M 17.982922465033347 13.41289672736166 A 5 5 0 0 0 17.578866633275286 15.008477123264846"/>
<path d="M 17.57886663327529 15.008477123264846 A 5 5 0 0 0 16.678619553365657 16.386407858128706"/>
<path d="M 16.678619553365657 16.386407858128706 A 5 5 0 0 0 15.37973696518537 17.397368756032446"/>
<path d="M 16.678619553365657 16.386407858128706 L 17.41434346403879 17.063689429754447"/>
<path d="M 13.82297295140367 17.931806517013612 A 5 5 0 0 0 12.177027048596331 17.931806517013612"/>
<path d="M 10.620263034814633 17.397368756032446 L 10.144315641777558 18.276842507238936"/>
<path d="M 9.321380446634343 16.386407858128706 L 8.585656535961213 17.063689429754447"/>
<path d="M 9.321380446634343 16.386407858128706 A 5 5 0 0 0 8.421133366724714 15.00847712326485"/>
<path d="M 8.421133366724714 15.008477123264848 L 7.5053600400696565 15.410172547917819"/>
<path d="M 8.017077534966651 13.412896727361664 A 5 5 0 0 0 8.152998670303347 11.772572564296006"/>
<path d="M 8.017077534966651 13.412896727361662 L 7.0204930419599805 13.495476072833995"/>
<path d="M 8.814167608687356 10.265259209387867 A 5 5 0 0 0 9.928936436551659 9.054297453018034"/>
<path d="M 9.92893643655166 9.054297453018034 L 9.314723723861992 8.265156943621639"/>
<path d="M 9.928936436551659 9.054297453018034 A 5 5 0 0 0 11.376502653976582 8.270913791496827"/>
<path d="M 11.376502653976582 8.270913791496827 L 11.051803184771899 7.325096549796192"/>
<path d="M 13.0 7.0 L 13.0 6.0"/>
<path d="M 14.948196815228101 7.325096549796192 L 15.272896284432786 6.379279308095557"/>
<path d="M 16.68527627613801 8.265156943621639 L 17.299488988827676 7.4760164342252455"/>
<path d="M 18.81640159563598 11.527087077155205 L 19.78580186157531 11.281601590014406"/>
<path d="M 18.97950695804002 13.495476072833993 A 6 6 0 0 0 18.494639959930346 15.410172547917817"/>
<path d="M 18.494639959930346 15.410172547917815 A 6 6 0 0 0 17.41434346403879 17.063689429754447"/>
<path d="M 17.41434346403879 17.063689429754447 A 6 6 0 0 0 15.855684358222442 18.276842507238932"/>
<path d="M 13.987567541684404 18.918167820416336 L 14.152162131965138 19.904529123819056"/>
<path d="M 13.987567541684404 18.918167820416336 A 6 6 0 0 0 12.012432458315597 18.918167820416336"/>
<path d="M 12.012432458315596 18.918167820416336 L 11.847837868034862 19.904529123819056"/>
<path d="M 10.144315641777558 18.276842507238936 L 9.668368248740485 19.156316258445422"/>
<path d="M 7.5053600400696565 15.410172547917819 A 6 6 0 0 0 7.0204930419599805 13.495476072833997"/>
<path d="M 7.0204930419599805 13.495476072833997 A 6 6 0 0 0 7.183598404364017 11.527087077155208"/>
<path d="M 7.183598404364017 11.527087077155207 L 6.2141981384246865 11.281601590014407"/>
<path d="M 7.183598404364017 11.527087077155208 A 6 6 0 0 0 7.977001130424828 9.718311051265442"/>
<path d="M 7.977001130424828 9.718311051265442 A 6 6 0 0 0 9.314723723861992 8.265156943621639"/>
<path d="M 7.977001130424828 9.71831105126544 L 7.139834652162299 9.171362893143012"/>
<path d="M 9.314723723861992 8.265156943621639 L 8.700511011172324 7.4760164342252455"/>
<path d="M 11.051803184771899 7.325096549796192 L 10.727103715567214 6.379279308095557"/>
<path d="M 15.272896284432786 6.379279308095557 L 15.597595753637469 5.433462066394923"/>
<path d="M 17.299488988827676 7.4760164342252455 L 17.913701701517343 6.686875924828852"/>
<path d="M 18.8601653478377 9.17136289314301 A 7 7 0 0 0 19.78580186157531 11.281601590014406"/>
<path d="M 19.78580186157531 11.281601590014406 A 7 7 0 0 0 19.97609145104669 13.578055418306326"/>
<path d="M 19.78580186157531 11.281601590014406 L 20.755202127514643 11.036116102873606"/>
<path d="M 19.97609145104669 13.578055418306327 L 20.972675944053357 13.66063476377866"/>
<path d="M 19.97609145104669 13.578055418306326 A 7 7 0 0 0 19.410413286585403 15.811867972570786"/>
<path d="M 19.410413286585403 15.811867972570784 A 7 7 0 0 0 18.150067374711924 17.740971001380185"/>
<path d="M 19.410413286585403 15.811867972570786 L 20.32618661324046 16.213563397223755"/>
<path d="M 16.331631751259515 19.156316258445422 L 16.80757914429659 20.03579000965191"/>
<path d="M 14.152162131965138 19.904529123819056 L 14.316756722245872 20.890890427221777"/>
<path d="M 7.849932625288082 17.74097100138019 L 7.11420871461495 18.41825257300593"/>
<path d="M 6.589586713414599 15.81186797257079 A 7 7 0 0 0 6.023908548953311 13.57805541830633"/>
<path d="M 6.589586713414599 15.811867972570788 L 5.673813386759542 16.21356339722376"/>
<path d="M 6.2141981384246865 11.281601590014407 L 5.244797872485356 11.036116102873608"/>
<path d="M 8.700511011172324 7.4760164342252455 L 8.086298298482657 6.686875924828852"/>
<path d="M 10.727103715567214 6.379279308095557 L 10.402404246362531 5.433462066394923"/>
<path d="M 13.000000000000002 5.0 L 13.000000000000002 4.0"/>
<path d="M 13.0 5.0 A 8 8 0 0 0 15.597595753637467 5.433462066394923"/>
<path d="M 15.597595753637469 5.433462066394923 L 15.922295222842152 4.4876448246942875"/>
<path d="M 17.913701701517343 6.686875924828852 L 18.52791441420701 5.897735415432459"/>
<path d="M 19.697331826100232 8.624414735020586 L 20.53449830436276 8.07746657689816"/>
<path d="M 19.69733182610023 8.624414735020583 A 8 8 0 0 0 20.755202127514643 11.036116102873606"/>
<path d="M 20.755202127514643 11.036116102873606 L 21.724602393453974 10.790630615732809"/>
<path d="M 20.32618661324046 16.213563397223755 L 21.241959939895516 16.615258821876726"/>
<path d="M 18.885791285385054 18.418252573005926 A 8 8 0 0 0 16.80757914429659 20.03579000965191"/>
<path d="M 18.885791285385054 18.41825257300593 L 19.621515196058184 19.09553414463167"/>
<path d="M 16.80757914429659 20.03579000965191 A 8 8 0 0 0 14.316756722245872 20.890890427221777"/>
<path d="M 14.316756722245872 20.890890427221777 L 14.481351312526606 21.8772517306245"/>
<path d="M 11.68324327775413 20.89089042722178 A 8 8 0 0 0 9.192420855703412 20.03579000965191"/>
<path d="M 11.683243277754128 20.890890427221777 L 11.518648687473394 21.8772517306245"/>
<path d="M 9.192420855703412 20.03579000965191 A 8 8 0 0 0 7.114208714614947 18.41825257300593"/>
<path d="M 7.11420871461495 18.41825257300593 A 8 8 0 0 0 5.673813386759542 16.21356339722376"/>
<path d="M 5.673813386759542 16.21356339722376 L 4.758040060104484 16.61525882187673"/>
<path d="M 5.027324055946641 13.660634763778662 A 8 8 0 0 0 5.244797872485356 11.03611610287361"/>
<path d="M 5.244797872485356 11.03611610287361 A 8 8 0 0 0 6.30266817389977 8.624414735020586"/>
<path d="M 10.077704777157846 4.4876448246942875 A 9 9 0 0 0 12.999999999999998 4.0"/>
<path d="M 21.724602393453974 10.790630615732809 L 22.694002659393306 10.545145128592008"/>
<path d="M 21.96926043706003 13.743214109250992 L 22.965844930066698 13.825793454723325"/>
<path d="M 19.621515196058184 19.095534144631667 A 9 9 0 0 0 17.283526537333664 20.9152637608584"/>
<path d="M 19.621515196058184 19.09553414463167 L 20.357239106731317 19.772815716257412"/>
<path d="M 17.283526537333664 20.9152637608584 L 17.759473930370735 21.79473751206489"/>
<path d="M 14.481351312526606 21.8772517306245 L 14.64594590280734 22.863613034027225"/>
<path d="M 14.481351312526606 21.8772517306245 A 9 9 0 0 0 11.518648687473396 21.8772517306245"/>
<path d="M 8.71647346266634 20.9152637608584 A 9 9 0 0 0 6.378484803941816 19.09553414463167"/>
<path d="M 6.378484803941818 19.09553414463167 A 9 9 0 0 0 4.758040060104484 16.61525882187673"/>
<path d="M 4.758040060104484 16.61525882187673 A 9 9 0 0 0 4.030739562939971 13.743214109250994"/>
<path d="M 4.758040060104484 16.61525882187673 L 3.842266733449428 17.016954246529696"/>
<path d="M 4.275397606546026 10.790630615732809 L 3.3059973406066945 10.545145128592011"/>
<path d="M 4.275397606546026 10.79063061573281 A 9 9 0 0 0 5.465501695637241 8.07746657689816"/>
<path d="M 7.472085585792987 5.897735415432459 A 9 9 0 0 0 10.077704777157846 4.4876448246942875"/>
<path d="M 7.472085585792989 5.897735415432459 L 6.857872873103321 5.108594906036066"/>
<path d="M 13.0 3.0 A 10 10 0 0 0 16.246994692046833 3.541827582993653"/>
<path d="M 13.000000000000002 3.0 L 13.000000000000002 2.0"/>
<path d="M 19.14212712689668 5.108594906036063 A 10 10 0 0 0 21.371664782625285 7.5305184187757295"/>
<path d="M 21.371664782625288 7.530518418775733 L 22.208831260887816 6.983570260653306"/>
<path d="M 22.694002659393306 10.545145128592008 L 23.663402925332633 10.29965964145121"/>
<path d="M 22.965844930066698 13.825793454723325 L 23.962429423073367 13.908372800195657"/>
<path d="M 22.965844930066698 13.825793454723323 A 10 10 0 0 0 22.157733266550572 17.016954246529693"/>
<path d="M 17.759473930370735 21.79473751206489 L 18.23542132340781 22.67421126327138"/>
<path d="M 14.645945902807341 22.863613034027225 A 10 10 0 0 0 11.354054097192662 22.863613034027225"/>
<path d="M 11.354054097192662 22.863613034027225 A 10 10 0 0 0 8.240526069629265 21.79473751206489"/>
<path d="M 8.240526069629265 21.79473751206489 A 10 10 0 0 0 5.642760893268684 19.772815716257412"/>
<path d="M 3.842266733449428 17.0169542465297 A 10 10 0 0 0 3.034155069933302 13.825793454723328"/>
<path d="M 3.034155069933302 13.825793454723328 A 10 10 0 0 0 3.3059973406066945 10.545145128592011"/>
<path d="M 3.3059973406066945 10.545145128592011 A 10 10 0 0 0 4.628335217374712 7.530518418775734"/>
<path d="M 4.628335217374712 7.530518418775734 A 10 10 0 0 0 6.85787287310332 5.108594906036066"/>
<path d="M 4.628335217374712 7.530518418775733 L 3.7911687391121838 6.983570260653306"/>
<path d="M 6.857872873103321 5.108594906036066 L 6.243660160413652 4.319454396639673"/>
<path d="M 9.753005307953163 3.541827582993653 L 9.42830583874848 2.5960103412930184"/>
<path d="M 9.428305838748479 2.5960103412930184 A 11 11 0 0 0 12.999999999999996 2.0"/>
<path d="M 13.0 2.0 A 11 11 0 0 0 16.571694161251518 2.5960103412930184"/>
<path d="M 13.000000000000002 2.0 L 13.000000000000002 1.0"/>
<path d="M 19.756339839586346 4.319454396639669 A 11 11 0 0 0 22.208831260887813 6.983570260653303"/>
<path d="M 19.756339839586346 4.319454396639673 L 20.370552552276017 3.5303138872432775"/>
<path d="M 23.663402925332633 10.29965964145121 L 24.632803191271964 10.05417415431041"/>
<path d="M 23.663402925332633 10.299659641451209 A 11 11 0 0 0 23.962429423073367 13.908372800195655"/>
<path d="M 23.962429423073367 13.908372800195657 L 24.95901391608004 13.990952145667988"/>
<path d="M 23.962429423073367 13.908372800195655 A 11 11 0 0 0 23.073506593205632 17.418649671182663"/>
<path d="M 23.073506593205632 17.418649671182663 L 23.989279919860692 17.820345095835634"/>
<path d="M 21.09296301740445 20.45009728788315 L 21.82868692807758 21.12737885950889"/>
<path d="M 18.23542132340781 22.674211263271378 A 11 11 0 0 0 14.810540493088075 23.849974337429945"/>
<path d="M 18.23542132340781 22.67421126327138 L 18.711368716444884 23.55368501447787"/>
<path d="M 14.810540493088075 23.849974337429945 A 11 11 0 0 0 11.189459506911929 23.84997433742995"/>
<path d="M 11.189459506911929 23.84997433742995 A 11 11 0 0 0 7.764578676592191 22.67421126327138"/>
<path d="M 11.189459506911927 23.849974337429945 L 11.024864916631193 24.83633564083267"/>
<path d="M 7.764578676592191 22.67421126327138 A 11 11 0 0 0 4.907036982595553 20.450097287883153"/>
<path d="M 4.907036982595557 20.450097287883157 A 11 11 0 0 0 2.9264934067943695 17.41864967118267"/>
<path d="M 4.907036982595557 20.450097287883157 L 4.171313071922425 21.127378859508898"/>
<path d="M 2.0375705769266315 13.90837280019566 A 11 11 0 0 0 2.336597074667365 10.299659641451214"/>
<path d="M 2.336597074667365 10.299659641451212 L 1.3671968087280337 10.054174154310413"/>
<path d="M 3.7911687391121838 6.983570260653306 L 2.9540022608496557 6.43662210253088"/>
<path d="M 6.2436601604136515 4.319454396639673 A 11 11 0 0 0 9.428305838748479 2.5960103412930184"/>
<path d="M 6.243660160413652 4.319454396639673 L 5.629447447723985 3.5303138872432775"/>
<path d="M 16.896393630456203 1.650193099592384 A 12 12 0 0 0 20.370552552276013 3.5303138872432758"/>
<path d="M 20.370552552276013 3.5303138872432758 A 12 12 0 0 0 23.045997739150344 6.436622102530876"/>
<path d="M 23.045997739150344 6.436622102530876 A 12 12 0 0 0 24.632803191271964 10.05417415431041"/>
<path d="M 23.989279919860692 17.82034509583563 A 12 12 0 0 0 21.82868692807758 21.12737885950889"/>
<path d="M 18.711368716444884 23.553685014477868 A 12 12 0 0 0 14.975135083368809 24.83633564083267"/>
<path d="M 11.024864916631195 24.83633564083267 A 12 12 0 0 0 7.288631283555118 23.55368501447787"/>
<path d="M 2.010720080139313 17.820345095835638 A 12 12 0 0 0 1.040986083919961 13.990952145667993"/>
<path d="M 1.040986083919961 13.990952145667993 A 12 12 0 0 0 1.3671968087280337 10.054174154310415"/>
<path d="M 1.3671968087280337 10.054174154310415 A 12 12 0 0 0 2.9540022608496557 6.436622102530881"/>
<path d="M 5.629447447723983 3.5303138872432775 A 12 12 0 0 0 9.103606369543796 1.650193099592384"/>
</svg>
</svg>
