<svg viewBox="0 0 30 30" xmlns="http://www.w3.org/2000/svg" style="background-color: #222;">

    <defs>
      <style>
        path {
          stroke: #ff24fb;
          stroke-width: 0.12351413187527983;
          stroke-linecap: round;
          fill: none;
        }
      </style>
    </defs>
    
<svg x="0" y="0">
<path d="M 15,15 L 15.0,14.0"/>
<path d="M 15.0 14.0 L 15.361241666187153 14.067527770595644"/>
<path d="M 15.0 14.0 L 15.0 13.0"/>
<path d="M 15.0 14.0 L 14.638758333812847 14.067527770595644"/>
<path d="M 15,15 L 14.201982772719761,15.602634636379257"/>
<path d="M 15,15 L 15.18374951781657,15.982973099683901"/>
<path d="M 15,15 L 15.895163291355063,14.554261644223462"/>
<path d="M 15,15 L 14.004265823704966,14.907731640536698"/>
<path d="M 15,15 L 14.104836708644937,14.554261644223462"/>
<path d="M 15,15 L 15.526432162877356,15.850217135729615"/>
<path d="M 15,15 L 15.96182564317282,15.273662990072083"/>
<path d="M 15,15 L 14.326304356353443,14.260991082779341"/>
<path d="M 15,15 L 14.473567837122644,15.850217135729615"/>
<path d="M 15,15 L 15.798017227280239,15.602634636379257"/>
<path d="M 15.0 13.0 L 14.277516667625694 13.135055541191289"/>
<path d="M 15.0 13.0 L 15.0 12.0"/>
<path d="M 15.673695643646557 14.260991082779341 L 16.347391287293114 13.521982165558683"/>
<path d="M 15.722483332374306 13.135055541191289 L 16.347391287293114 13.521982165558683"/>
<path d="M 15.995734176295034 14.907731640536698 L 16.99146835259007 14.815463281073397"/>
<path d="M 15.995734176295034 14.907731640536698 L 15.96182564317282 15.273662990072083"/>
<path d="M 15.96182564317282 15.273662990072083 L 16.92365128634564 15.547325980144166"/>
<path d="M 15.798017227280239 15.602634636379257 L 16.596034454560478 16.205269272758514"/>
<path d="M 15.18374951781657 15.982973099683901 L 14.81625048218343 15.982973099683901"/>
<path d="M 14.473567837122644 15.850217135729615 L 13.947135674245288 16.70043427145923"/>
<path d="M 14.201982772719761 15.602634636379257 L 13.40396554543952 16.205269272758514"/>
<path d="M 14.201982772719761 15.602634636379257 L 14.03817435682718 15.273662990072083"/>
<path d="M 16.347391287293114 13.521982165558683 L 17.02108693093967 12.782973248338024"/>
<path d="M 16.790326582710126 14.108523288446923 L 16.99146835259007 14.815463281073397"/>
<path d="M 16.596034454560478 16.205269272758514 L 16.05286432575471 16.70043427145923"/>
<path d="M 16.596034454560478 16.205269272758514 L 17.39405168184072 16.80790390913777"/>
<path d="M 15.367499035633141 16.965946199367803 L 15.55124855344971 17.948919299051706"/>
<path d="M 15.367499035633141 16.965946199367803 L 14.632500964366859 16.965946199367803"/>
<path d="M 13.076348713654362 15.547325980144166 L 13.008531647409932 14.815463281073397"/>
<path d="M 13.008531647409932 14.815463281073397 L 13.209673417289874 14.108523288446925"/>
<path d="M 13.209673417289874 14.108523288446925 L 13.652608712706884 13.521982165558683"/>
<path d="M 13.652608712706884 13.521982165558683 L 14.277516667625694 13.135055541191289"/>
<path d="M 14.277516667625694 13.135055541191289 L 13.916275001438542 12.202583311786933"/>
<path d="M 15.0 12.0 L 16.083724998561458 12.202583311786933"/>
<path d="M 17.02108693093967 12.782973248338024 L 17.685489874065187 13.662784932670386"/>
<path d="M 17.02108693093967 12.782973248338024 L 17.694782574586227 12.043964331117364"/>
<path d="M 17.685489874065187 13.662784932670386 L 18.580653165420248 13.217046576893846"/>
<path d="M 17.987202528885103 14.723194921610094 L 18.982936705180137 14.630926562146792"/>
<path d="M 17.885476929518457 15.820988970216249 L 17.39405168184072 16.80790390913777"/>
<path d="M 17.39405168184072 16.80790390913777 L 18.19206890912096 17.410538545517024"/>
<path d="M 16.579296488632068 17.55065140718884 L 15.55124855344971 17.948919299051706"/>
<path d="M 15.55124855344971 17.948919299051706 L 14.44875144655029 17.948919299051706"/>
<path d="M 14.44875144655029 17.948919299051706 L 14.265001928733719 18.931892398735606"/>
<path d="M 14.44875144655029 17.948919299051706 L 13.420703511367932 17.55065140718884"/>
<path d="M 13.420703511367932 17.55065140718884 L 12.605948318159282 16.80790390913777"/>
<path d="M 12.605948318159282 16.80790390913777 L 12.114523070481543 15.820988970216249"/>
<path d="M 12.605948318159282 16.80790390913777 L 11.807931090879041 17.410538545517024"/>
<path d="M 12.114523070481543 15.820988970216249 L 11.152697427308723 16.09465196028833"/>
<path d="M 12.012797471114897 14.723194921610094 L 12.314510125934813 13.662784932670387"/>
<path d="M 12.314510125934813 13.662784932670387 L 11.41934683457975 13.217046576893848"/>
<path d="M 12.314510125934813 13.662784932670387 L 12.978913069060326 12.782973248338024"/>
<path d="M 12.978913069060326 12.782973248338024 L 12.305217425413769 12.043964331117365"/>
<path d="M 13.916275001438542 12.202583311786933 L 13.55503333525139 11.270111082382577"/>
<path d="M 15.0 11.0 L 13.55503333525139 11.270111082382577"/>
<path d="M 15.0 11.0 L 16.444966664748613 11.270111082382577"/>
<path d="M 16.444966664748613 11.270111082382577 L 16.806208330935764 10.33763885297822"/>
<path d="M 17.694782574586227 12.043964331117364 L 18.368478218232788 11.304955413896705"/>
<path d="M 18.580653165420248 13.217046576893846 L 18.982936705180137 14.630926562146792"/>
<path d="M 18.847302572691277 16.09465196028833 L 19.809128215864096 16.368314950360414"/>
<path d="M 18.847302572691277 16.09465196028833 L 18.19206890912096 17.410538545517024"/>
<path d="M 17.105728651509423 18.400868542918456 L 15.734998071266281 18.931892398735606"/>
<path d="M 15.734998071266281 18.931892398735606 L 14.265001928733719 18.931892398735606"/>
<path d="M 14.265001928733719 18.931892398735606 L 12.894271348490577 18.400868542918456"/>
<path d="M 14.265001928733719 18.931892398735606 L 14.081252410917148 19.91486549841951"/>
<path d="M 12.894271348490577 18.400868542918456 L 12.36783918561322 19.25108567864807"/>
<path d="M 11.152697427308723 16.09465196028833 L 10.190871784135904 16.368314950360414"/>
<path d="M 11.152697427308723 16.09465196028833 L 11.017063294819861 14.630926562146794"/>
<path d="M 11.017063294819861 14.630926562146794 L 10.021329118524827 14.538658202683491"/>
<path d="M 12.305217425413769 12.043964331117365 L 13.55503333525139 11.270111082382577"/>
<path d="M 15.0 10.0 L 13.193791669064236 10.33763885297822"/>
<path d="M 15.0 10.0 L 15.0 9.0"/>
<path d="M 18.368478218232788 11.304955413896705 L 19.475816456775313 12.771308221117309"/>
<path d="M 19.475816456775313 12.771308221117309 L 20.370979748130374 12.325569865340771"/>
<path d="M 19.475816456775313 12.771308221117309 L 19.978670881475175 14.538658202683491"/>
<path d="M 19.978670881475175 14.538658202683491 L 19.809128215864096 16.368314950360414"/>
<path d="M 19.978670881475175 14.538658202683491 L 20.974405057770205 14.446389843220189"/>
<path d="M 18.990086136401196 18.01317318189628 L 17.63216081438678 19.25108567864807"/>
<path d="M 17.63216081438678 19.25108567864807 L 18.158592977264135 20.101302814377682"/>
<path d="M 15.918747589082852 19.91486549841951 L 14.081252410917148 19.91486549841951"/>
<path d="M 12.36783918561322 19.25108567864807 L 11.009913863598802 18.01317318189628"/>
<path d="M 10.021329118524827 14.538658202683491 L 10.524183543224687 12.77130822111731"/>
<path d="M 10.524183543224687 12.77130822111731 L 9.629020251869624 12.325569865340773"/>
<path d="M 11.631521781767212 11.304955413896707 L 10.957826138120653 10.565946496676048"/>
<path d="M 11.631521781767212 11.304955413896707 L 13.193791669064236 10.33763885297822"/>
<path d="M 13.193791669064236 10.33763885297822 L 12.832550002877083 9.405166623573866"/>
<path d="M 15.0 9.0 L 17.167449997122915 9.405166623573866"/>
<path d="M 17.167449997122915 9.405166623573866 L 19.042173861879345 10.565946496676046"/>
<path d="M 19.042173861879345 10.565946496676046 L 19.7158695055259 9.826937579455386"/>
<path d="M 20.974405057770205 14.446389843220189 L 21.970139234065243 14.354121483756886"/>
<path d="M 20.770953859036915 16.641977940432497 L 21.732779502209734 16.91564093050458"/>
<path d="M 19.788103363681437 18.615807818275538 L 20.586120590961677 19.218442454654795"/>
<path d="M 18.158592977264135 20.101302814377682 L 18.68502514014149 20.951519950107297"/>
<path d="M 16.10249710689942 20.897838598103412 L 13.897502893100578 20.897838598103412"/>
<path d="M 16.10249710689942 20.897838598103412 L 16.286246624715993 21.880811697787312"/>
<path d="M 13.897502893100578 20.897838598103412 L 11.841407022735865 20.101302814377682"/>
<path d="M 11.841407022735865 20.101302814377682 L 11.31497485985851 20.951519950107297"/>
<path d="M 10.211896636318563 18.615807818275538 L 9.229046140963085 16.641977940432497"/>
<path d="M 9.229046140963085 16.641977940432497 L 8.267220497790266 16.91564093050458"/>
<path d="M 9.025594942229793 14.44638984322019 L 9.629020251869624 12.325569865340773"/>
<path d="M 9.629020251869624 12.325569865340773 L 8.733856960514562 11.879831509564236"/>
<path d="M 15.0 8.0 L 15.000000000000002 7.0"/>
<path d="M 17.52869166331007 8.472694394169508 L 17.88993332949722 7.5402221647651535"/>
<path d="M 19.7158695055259 9.826937579455386 L 21.266143039485435 11.879831509564232"/>
<path d="M 19.7158695055259 9.826937579455386 L 20.38956514917246 9.087928662234727"/>
<path d="M 21.266143039485435 11.879831509564232 L 21.970139234065243 14.354121483756886"/>
<path d="M 21.266143039485435 11.879831509564232 L 22.1613063308405 11.434093153787694"/>
<path d="M 21.970139234065243 14.354121483756886 L 21.732779502209734 16.91564093050458"/>
<path d="M 21.970139234065243 14.354121483756886 L 22.965873410360278 14.261853124293586"/>
<path d="M 20.586120590961677 19.218442454654795 L 18.68502514014149 20.951519950107297"/>
<path d="M 20.586120590961677 19.218442454654795 L 21.384137818241918 19.821077091034052"/>
<path d="M 18.68502514014149 20.951519950107297 L 16.286246624715993 21.880811697787312"/>
<path d="M 18.68502514014149 20.951519950107297 L 19.211457303018847 21.801737085836912"/>
<path d="M 16.286246624715993 21.880811697787312 L 16.469996142532562 22.863784797471215"/>
<path d="M 16.286246624715993 21.880811697787312 L 13.713753375284009 21.880811697787312"/>
<path d="M 9.413879409038323 19.218442454654795 L 8.615862181758084 19.821077091034052"/>
<path d="M 8.267220497790266 16.91564093050458 L 7.305394854617448 17.189303920576663"/>
<path d="M 8.267220497790266 16.91564093050458 L 8.029860765934757 14.354121483756888"/>
<path d="M 8.733856960514562 11.879831509564236 L 7.8386936691594995 11.434093153787698"/>
<path d="M 10.284130494474095 9.82693757945539 L 12.47130833668993 8.472694394169508"/>
<path d="M 12.47130833668993 8.472694394169508 L 12.110066670502777 7.5402221647651535"/>
<path d="M 15.000000000000002 7.0 L 17.88993332949722 7.5402221647651535"/>
<path d="M 17.88993332949722 7.5402221647651535 L 20.38956514917246 9.087928662234727"/>
<path d="M 17.88993332949722 7.5402221647651535 L 18.251174995684377 6.607749935360797"/>
<path d="M 22.694605145382553 17.189303920576663 L 23.65643078855537 17.462966910648746"/>
<path d="M 21.384137818241918 19.821077091034052 L 22.182155045522155 20.423711727413306"/>
<path d="M 16.469996142532562 22.863784797471215 L 16.65374566034913 23.846757897155115"/>
<path d="M 13.530003857467438 22.863784797471215 L 10.788542696981153 21.801737085836912"/>
<path d="M 10.788542696981153 21.801737085836912 L 10.262110534103797 22.651954221566527"/>
<path d="M 10.788542696981153 21.801737085836912 L 8.615862181758084 19.821077091034052"/>
<path d="M 8.615862181758084 19.821077091034052 L 7.305394854617448 17.189303920576663"/>
<path d="M 7.305394854617448 17.189303920576663 L 7.034126589639723 14.261853124293587"/>
<path d="M 7.034126589639723 14.261853124293587 L 7.8386936691594995 11.434093153787698"/>
<path d="M 7.8386936691594995 11.434093153787698 L 9.610434850827538 9.08792866223473"/>
<path d="M 9.610434850827538 9.08792866223473 L 12.110066670502777 7.5402221647651535"/>
<path d="M 9.610434850827538 9.08792866223473 L 8.936739207180981 8.348919745014072"/>
<path d="M 12.110066670502777 7.5402221647651535 L 11.748825004315623 6.607749935360797"/>
<path d="M 15.000000000000002 6.0 L 15.000000000000002 5.0"/>
<path d="M 15.000000000000002 6.0 L 11.748825004315623 6.607749935360797"/>
<path d="M 18.251174995684377 6.607749935360797 L 21.063260792819015 8.348919745014069"/>
<path d="M 21.063260792819015 8.348919745014069 L 21.736956436465572 7.60991082779341"/>
<path d="M 23.05646962219556 10.988354798011155 L 23.96160758665531 14.169584764830283"/>
<path d="M 23.96160758665531 14.169584764830283 L 24.957341762950346 14.07731640536698"/>
<path d="M 23.96160758665531 14.169584764830283 L 23.65643078855537 17.462966910648746"/>
<path d="M 23.65643078855537 17.462966910648746 L 24.61825643172819 17.73662990072083"/>
<path d="M 23.65643078855537 17.462966910648746 L 22.182155045522155 20.423711727413306"/>
<path d="M 22.182155045522155 20.423711727413306 L 19.737889465896203 22.651954221566527"/>
<path d="M 16.65374566034913 23.846757897155115 L 16.837495178165703 24.829730996839018"/>
<path d="M 13.346254339650867 23.846757897155115 L 10.262110534103797 22.651954221566527"/>
<path d="M 7.817844954477844 20.423711727413306 L 6.343569211444629 17.462966910648746"/>
<path d="M 7.817844954477844 20.423711727413306 L 7.019827727197605 21.026346363792562"/>
<path d="M 6.343569211444629 17.462966910648746 L 6.038392413344688 14.169584764830285"/>
<path d="M 6.9435303778044375 10.988354798011159 L 6.048367086449375 10.542616442234621"/>
<path d="M 8.936739207180981 8.348919745014072 L 8.263043563534422 7.6099108277934135"/>
<path d="M 11.748825004315623 6.607749935360797 L 11.387583338128472 5.675277705956441"/>
<path d="M 18.612416661871528 5.675277705956441 L 21.736956436465572 7.60991082779341"/>
<path d="M 18.612416661871528 5.675277705956441 L 18.973658328058683 4.7428054765520855"/>
<path d="M 21.736956436465572 7.60991082779341 L 22.41065208011213 6.870901910572751"/>
<path d="M 21.736956436465572 7.60991082779341 L 23.951632913550625 10.542616442234618"/>
<path d="M 23.951632913550625 10.542616442234618 L 24.957341762950346 14.07731640536698"/>
<path d="M 24.957341762950346 14.07731640536698 L 25.95307593924538 13.98504804590368"/>
<path d="M 24.61825643172819 17.73662990072083 L 25.580082074901007 18.01029289079291"/>
<path d="M 24.61825643172819 17.73662990072083 L 22.980172272802395 21.026346363792562"/>
<path d="M 22.980172272802395 21.026346363792562 L 23.778189500082632 21.62898100017182"/>
<path d="M 22.980172272802395 21.026346363792562 L 20.26432162877356 23.50217135729614"/>
<path d="M 20.26432162877356 23.50217135729614 L 20.790753791650914 24.352388493025753"/>
<path d="M 13.162504821834297 24.829730996839018 L 9.735678371226442 23.50217135729614"/>
<path d="M 9.735678371226442 23.50217135729614 L 7.019827727197605 21.026346363792562"/>
<path d="M 7.019827727197605 21.026346363792562 L 5.38174356827181 17.73662990072083"/>
<path d="M 7.019827727197605 21.026346363792562 L 6.221810499917366 21.62898100017182"/>
<path d="M 5.38174356827181 17.73662990072083 L 4.419917925098991 18.01029289079291"/>
<path d="M 5.38174356827181 17.73662990072083 L 5.042658237049654 14.077316405366982"/>
<path d="M 5.042658237049654 14.077316405366982 L 6.048367086449375 10.542616442234621"/>
<path d="M 6.048367086449375 10.542616442234621 L 5.153203795094312 10.096878086458084"/>
<path d="M 11.387583338128472 5.675277705956441 L 11.026341671941319 4.7428054765520855"/>
<path d="M 15.000000000000002 4.0 L 15.000000000000002 3.0"/>
<path d="M 22.41065208011213 6.870901910572751 L 24.846796204905687 10.09687808645808"/>
<path d="M 22.41065208011213 6.870901910572751 L 23.08434772375869 6.131892993352093"/>
<path d="M 25.580082074901007 18.01029289079291 L 26.54190771807383 18.283955880864994"/>
<path d="M 20.790753791650914 24.352388493025753 L 17.021244695982272 25.81270409652292"/>
<path d="M 17.021244695982272 25.81270409652292 L 12.978755304017728 25.81270409652292"/>
<path d="M 9.209246208349086 24.352388493025753 L 6.221810499917366 21.62898100017182"/>
<path d="M 9.209246208349086 24.352388493025753 L 8.682814045471728 25.202605628755368"/>
<path d="M 6.221810499917366 21.62898100017182 L 5.423793272637127 22.231615636551076"/>
<path d="M 4.04692406075462 13.985048045903682 L 5.153203795094312 10.096878086458084"/>
<path d="M 5.153203795094312 10.096878086458084 L 7.589347919887865 6.870901910572755"/>
<path d="M 7.589347919887865 6.870901910572755 L 11.026341671941319 4.7428054765520855"/>
<path d="M 11.026341671941319 4.7428054765520855 L 10.665100005754166 3.81033324714773"/>
<path d="M 15.000000000000002 3.0 L 19.334899994245834 3.81033324714773"/>
<path d="M 19.334899994245834 3.81033324714773 L 23.08434772375869 6.131892993352093"/>
<path d="M 23.08434772375869 6.131892993352093 L 23.758043367405243 5.392884076131434"/>
<path d="M 25.741959496260748 9.65113973068154 L 26.63712278761581 9.205401374905001"/>
<path d="M 26.948810115540415 13.892779686440377 L 27.94454429183545 13.800511326977075"/>
<path d="M 26.54190771807383 18.283955880864994 L 24.576206727362873 22.231615636551076"/>
<path d="M 24.576206727362873 22.231615636551076 L 21.31718595452827 25.202605628755368"/>
<path d="M 24.576206727362873 22.231615636551076 L 25.374223954643114 22.834250272930333"/>
<path d="M 21.31718595452827 25.202605628755368 L 17.204994213798845 26.79567719620682"/>
<path d="M 12.795005786201157 26.79567719620682 L 8.682814045471728 25.202605628755368"/>
<path d="M 8.682814045471728 25.202605628755368 L 8.156381882594372 26.052822764484983"/>
<path d="M 3.458092281926172 18.283955880864994 L 2.4962666387533528 18.55761887093708"/>
<path d="M 3.0511898844595855 13.89277968644038 L 2.0554557081645513 13.800511326977078"/>
<path d="M 4.258040503739249 9.651139730681546 L 6.915652276241307 6.131892993352096"/>
<path d="M 6.915652276241307 6.131892993352096 L 6.24195663259475 5.392884076131438"/>
<path d="M 6.915652276241307 6.131892993352096 L 10.665100005754166 3.81033324714773"/>
<path d="M 10.665100005754166 3.81033324714773 L 10.303858339567013 2.877861017743374"/>
<path d="M 15.000000000000002 2.0 L 19.696141660432986 2.877861017743374"/>
<path d="M 15.000000000000002 2.0 L 15.000000000000002 1.0"/>
<path d="M 15.000000000000002 2.0 L 10.303858339567013 2.877861017743374"/>
<path d="M 23.758043367405243 5.392884076131434 L 26.63712278761581 9.205401374905001"/>
<path d="M 23.758043367405243 5.392884076131434 L 24.431739011051803 4.653875158910774"/>
<path d="M 26.63712278761581 9.205401374905001 L 27.532286078970873 8.759663019128464"/>
<path d="M 26.63712278761581 9.205401374905001 L 27.94454429183545 13.800511326977075"/>
<path d="M 27.94454429183545 13.800511326977075 L 28.940278468130487 13.708242967513774"/>
<path d="M 27.503733361246645 18.55761887093708 L 28.465559004419468 18.831281861009163"/>
<path d="M 21.843618117405626 26.052822764484983 L 22.37005028028298 26.903039900214594"/>
<path d="M 17.388743731615413 27.77865029589072 L 17.572493249431982 28.761623395574624"/>
<path d="M 12.611256268384587 27.77865029589072 L 8.156381882594372 26.052822764484983"/>
<path d="M 8.156381882594372 26.052822764484983 L 4.625776045356886 22.834250272930333"/>
<path d="M 8.156381882594372 26.052822764484983 L 7.6299497197170165 26.903039900214594"/>
<path d="M 2.4962666387533528 18.55761887093708 L 1.5344409955805336 18.831281861009163"/>
<path d="M 2.0554557081645513 13.800511326977078 L 3.362877212384186 9.205401374905009"/>
<path d="M 2.0554557081645513 13.800511326977078 L 1.0597215318695152 13.708242967513776"/>
<path d="M 3.362877212384186 9.205401374905009 L 6.24195663259475 5.392884076131438"/>
<path d="M 15.000000000000002 1.0 L 9.94261667337986 1.9453887883390184"/>
<path d="M 15.000000000000002 1.0 L 20.05738332662014 1.9453887883390184"/>
<path d="M 20.05738332662014 1.9453887883390184 L 24.431739011051803 4.653875158910774"/>
<path d="M 28.940278468130487 13.708242967513774 L 28.465559004419468 18.831281861009163"/>
<path d="M 28.465559004419468 18.831281861009163 L 26.172241181923354 23.43688490930959"/>
<path d="M 22.37005028028298 26.903039900214594 L 17.572493249431982 28.761623395574624"/>
<path d="M 17.572493249431982 28.761623395574624 L 12.427506750568016 28.761623395574624"/>
<path d="M 12.427506750568016 28.761623395574624 L 7.6299497197170165 26.903039900214594"/>
<path d="M 7.6299497197170165 26.903039900214594 L 3.8277588180766475 23.43688490930959"/>
<path d="M 3.8277588180766475 23.43688490930959 L 1.5344409955805336 18.831281861009163"/>
<path d="M 2.467713921029125 8.759663019128471 L 5.568260988948191 4.653875158910779"/>
<path d="M 5.568260988948191 4.653875158910779 L 9.94261667337986 1.9453887883390184"/>
</svg>
</svg>
