<svg viewBox="0 0 14 14" xmlns="http://www.w3.org/2000/svg" style="background-color: #222;">

    <defs>
      <style>
        path {
          stroke: #00f000;
          stroke-width: 0.24970558897434855;
          stroke-linecap: round;
          fill: none;
        }
      </style>
    </defs>
    
<svg x="0" y="0">
<path d="M 7.0 6.0 L 7.0 5.0"/>
<path d="M 7,7 L 7.5,6.133974596215562"/>
<path d="M 7.5 6.133974596215562 A 1 1 0 0 1 7.866025403784438 6.5"/>
<path d="M 7,7 L 6.5,6.133974596215562"/>
<path d="M 7,7 L 6.0,7.0"/>
<path d="M 7,7 L 7.866025403784438,7.5"/>
<path d="M 7,7 L 8.0,7.0"/>
<path d="M 7,7 L 6.5,7.866025403784438"/>
<path d="M 5.999999999999999 5.267949192431123 A 2 2 0 0 1 6.999999999999999 5.0"/>
<path d="M 7.0 5.0 A 2 2 0 0 1 8.0 5.267949192431122"/>
<path d="M 7.0 5.0 L 7.0 4.0"/>
<path d="M 8.0 5.267949192431122 L 8.5 4.401923788646684"/>
<path d="M 7.866025403784439 7.5 A 1 1 0 0 1 7.5 7.866025403784438"/>
<path d="M 7.5 7.866025403784438 L 8.0 8.732050807568877"/>
<path d="M 7.0 8.0 A 1 1 0 0 1 6.5 7.866025403784439"/>
<path d="M 7.0 8.0 L 7.0 9.0"/>
<path d="M 6.133974596215562 7.5 A 1 1 0 0 1 6.0 7.0"/>
<path d="M 6.0 7.0 A 1 1 0 0 1 6.133974596215562 6.5"/>
<path d="M 8.732050807568877 6.0 L 9.598076211353316 5.5"/>
<path d="M 8.732050807568877 6.0 A 2 2 0 0 1 9.0 7.0"/>
<path d="M 8.732050807568879 8.0 A 2 2 0 0 1 8.0 8.732050807568877"/>
<path d="M 8.732050807568877 8.0 L 9.598076211353316 8.5"/>
<path d="M 6.0 8.732050807568877 A 2 2 0 0 1 5.267949192431122 7.999999999999999"/>
<path d="M 5.267949192431123 8.0 A 2 2 0 0 1 5.0 7.0"/>
<path d="M 5.267949192431123 8.0 L 4.401923788646684 8.5"/>
<path d="M 5.0 7.0 A 2 2 0 0 1 5.267949192431123 6.0"/>
<path d="M 5.499999999999998 4.401923788646685 A 3 3 0 0 1 6.999999999999999 4.0"/>
<path d="M 8.5 4.401923788646684 L 9.0 3.535898384862245"/>
<path d="M 9.598076211353316 5.5 L 10.464101615137753 5.0"/>
<path d="M 10.0 7.0 A 3 3 0 0 1 9.598076211353316 8.5"/>
<path d="M 10.0 7.0 L 11.0 7.0"/>
<path d="M 9.598076211353316 8.5 A 3 3 0 0 1 8.5 9.598076211353316"/>
<path d="M 9.598076211353316 8.5 L 10.464101615137755 9.0"/>
<path d="M 7.0 10.0 L 7.0 11.0"/>
<path d="M 5.5 9.598076211353316 A 3 3 0 0 1 4.401923788646684 8.5"/>
<path d="M 4.401923788646684 8.5 L 3.535898384862246 9.000000000000002"/>
<path d="M 4.401923788646685 8.500000000000002 A 3 3 0 0 1 4.0 7.000000000000001"/>
<path d="M 4.0 7.000000000000001 A 3 3 0 0 1 4.401923788646684 5.5"/>
<path d="M 4.401923788646684 5.5 A 3 3 0 0 1 5.500000000000001 4.401923788646684"/>
<path d="M 4.401923788646684 5.5 L 3.5358983848622456 5.0"/>
<path d="M 7.000000000000001 3.0 L 7.000000000000001 2.0"/>
<path d="M 9.0 3.535898384862245 A 4 4 0 0 1 10.464101615137753 5.0"/>
<path d="M 10.464101615137753 5.0 L 11.330127018922193 4.5"/>
<path d="M 10.464101615137755 9.0 A 4 4 0 0 1 9.000000000000002 10.464101615137753"/>
<path d="M 9.0 10.464101615137755 L 9.5 11.330127018922195"/>
<path d="M 7.0 11.0 L 7.0 12.0"/>
<path d="M 4.999999999999999 10.464101615137753 L 4.499999999999999 11.330127018922193"/>
<path d="M 3.535898384862246 9.000000000000002 L 2.6698729810778072 9.500000000000002"/>
<path d="M 3.0 7.0 L 2.0 7.0"/>
<path d="M 3.0 7.000000000000001 A 4 4 0 0 1 3.5358983848622456 5.0"/>
<path d="M 3.5358983848622456 5.0 A 4 4 0 0 1 5.000000000000002 3.5358983848622447"/>
<path d="M 4.999999999999998 3.535898384862246 L 4.499999999999998 2.6698729810778072"/>
<path d="M 4.499999999999998 2.669872981077808 A 5 5 0 0 1 6.999999999999999 2.0"/>
<path d="M 9.5 2.6698729810778064 A 5 5 0 0 1 11.330127018922193 4.5"/>
<path d="M 11.330127018922193 4.5 A 5 5 0 0 1 12.0 7.0"/>
<path d="M 12.0 7.0 L 13.0 7.0"/>
<path d="M 12.0 7.0 A 5 5 0 0 1 11.330127018922195 9.5"/>
<path d="M 11.330127018922195 9.5 L 12.196152422706632 10.0"/>
<path d="M 11.330127018922195 9.5 A 5 5 0 0 1 9.500000000000002 11.330127018922193"/>
<path d="M 9.5 11.330127018922195 A 5 5 0 0 1 7.000000000000001 12.0"/>
<path d="M 7.0 12.0 L 7.0 13.0"/>
<path d="M 4.499999999999999 11.330127018922193 L 3.9999999999999987 12.196152422706632"/>
<path d="M 2.6698729810778072 9.500000000000002 L 1.8038475772933689 10.000000000000002"/>
<path d="M 2.0 7.0 L 1.0 7.0"/>
<path d="M 2.6698729810778072 4.5 L 1.803847577293368 3.999999999999999"/>
<path d="M 2.6698729810778072 4.5 A 5 5 0 0 1 4.500000000000002 2.6698729810778055"/>
<path d="M 3.9999999999999973 1.8038475772933698 A 6 6 0 0 1 6.999999999999998 1.0"/>
<path d="M 7.0 1.0 A 6 6 0 0 1 10.0 1.803847577293368"/>
<path d="M 10.0 1.803847577293368 A 6 6 0 0 1 12.196152422706632 3.999999999999999"/>
<path d="M 10.0 12.196152422706632 A 6 6 0 0 1 7.000000000000001 13.0"/>
<path d="M 3.999999999999999 12.196152422706632 A 6 6 0 0 1 1.803847577293367 9.999999999999998"/>
<path d="M 1.803847577293368 4.0 A 6 6 0 0 1 4.000000000000002 1.803847577293367"/>
</svg>
</svg>
