<svg viewBox="0 0 24 24" xmlns="http://www.w3.org/2000/svg" style="background-color: #222;">

    <defs>
      <style>
        path {
          stroke: #006aff;
          stroke-width: 0.21562833145496224;
          stroke-linecap: round;
          fill: none;
        }
      </style>
    </defs>
    
<svg x="0" y="0">
<path d="M 12.0 11.0 L 12.0 10.0"/>
<path d="M 12.433883739117558 11.099031132097581 L 12.867767478235116 10.198062264195162"/>
<path d="M 12.433883739117558 11.099031132097581 A 1 1 0 0 0 12.78183148246803 11.376510198141267"/>
<path d="M 11.566116260882442 11.099031132097581 L 11.132232521764884 10.198062264195162"/>
<path d="M 11.21816851753197 11.376510198141267 A 1 1 0 0 0 11.566116260882442 11.099031132097581"/>
<path d="M 12.0 10.0 L 12.0 9.0"/>
<path d="M 11.132232521764884 10.198062264195162 A 2 2 0 0 0 12.0 10.0"/>
<path d="M 12.867767478235116 10.198062264195162 L 13.301651217352674 9.297093396292743"/>
<path d="M 12.974927912181824 11.777479066043686 A 1 1 0 0 0 12.974927912181824 12.222520933956314"/>
<path d="M 12.974927912181824 11.777479066043686 L 13.949855824363647 11.554958132087371"/>
<path d="M 13.56366296493606 10.753020396282533 L 14.34549444740409 10.1295305944238"/>
<path d="M 13.563662964936059 10.753020396282533 A 2 2 0 0 0 13.949855824363647 11.554958132087371"/>
<path d="M 12.974927912181824 12.222520933956314 L 13.949855824363647 12.445041867912629"/>
<path d="M 13.949855824363647 11.554958132087371 L 14.924783736545471 11.332437198131057"/>
<path d="M 12.78183148246803 12.623489801858733 L 13.563662964936059 13.246979603717467"/>
<path d="M 13.949855824363647 12.445041867912629 L 14.924783736545471 12.667562801868943"/>
<path d="M 12.433883739117558 12.900968867902419 A 1 1 0 0 0 12.0 13.0"/>
<path d="M 12.433883739117558 12.900968867902419 L 12.867767478235116 13.801937735804838"/>
<path d="M 13.56366296493606 13.246979603717467 A 2 2 0 0 0 12.867767478235116 13.801937735804838"/>
<path d="M 12.0 13.0 A 1 1 0 0 0 11.566116260882442 12.900968867902419"/>
<path d="M 12.867767478235116 13.801937735804838 L 13.301651217352674 14.702906603707257"/>
<path d="M 12.867767478235116 13.801937735804838 A 2 2 0 0 0 12.0 14.0"/>
<path d="M 12.0 14.0 A 2 2 0 0 0 11.132232521764884 13.801937735804838"/>
<path d="M 11.21816851753197 12.623489801858733 L 10.436337035063941 13.246979603717467"/>
<path d="M 11.025072087818176 12.222520933956314 L 10.050144175636353 12.445041867912629"/>
<path d="M 10.436337035063941 13.246979603717467 L 9.65450555259591 13.8704694055762"/>
<path d="M 11.025072087818176 11.777479066043686 A 1 1 0 0 0 11.21816851753197 11.376510198141267"/>
<path d="M 10.050144175636353 12.445041867912629 A 2 2 0 0 0 10.050144175636353 11.554958132087371"/>
<path d="M 10.050144175636353 12.445041867912629 L 9.075216263454529 12.667562801868943"/>
<path d="M 10.43633703506394 10.753020396282533 A 2 2 0 0 0 11.132232521764884 10.198062264195162"/>
<path d="M 11.132232521764884 10.198062264195162 L 10.698348782647326 9.297093396292743"/>
<path d="M 12.0 9.0 A 3 3 0 0 0 13.301651217352674 9.297093396292743"/>
<path d="M 13.301651217352674 9.297093396292743 A 3 3 0 0 0 14.34549444740409 10.1295305944238"/>
<path d="M 14.34549444740409 10.1295305944238 L 15.12732592987212 9.506040792565067"/>
<path d="M 14.924783736545471 12.667562801868943 L 15.899711648727294 12.890083735825257"/>
<path d="M 14.34549444740409 13.8704694055762 A 3 3 0 0 0 13.301651217352674 14.702906603707257"/>
<path d="M 13.301651217352674 14.702906603707257 L 13.735534956470232 15.603875471609676"/>
<path d="M 13.301651217352674 14.702906603707257 A 3 3 0 0 0 12.0 15.0"/>
<path d="M 12.0 15.0 A 3 3 0 0 0 10.698348782647326 14.702906603707257"/>
<path d="M 12.0 15.0 L 12.0 16.0"/>
<path d="M 9.65450555259591 13.870469405576202 A 3 3 0 0 0 9.075216263454529 12.667562801868943"/>
<path d="M 9.65450555259591 13.8704694055762 L 8.872674070127882 14.493959207434933"/>
<path d="M 9.075216263454529 12.667562801868943 A 3 3 0 0 0 9.075216263454529 11.332437198131057"/>
<path d="M 9.075216263454529 12.667562801868943 L 8.100288351272706 12.890083735825257"/>
<path d="M 9.075216263454529 11.332437198131057 A 3 3 0 0 0 9.65450555259591 10.1295305944238"/>
<path d="M 10.698348782647326 9.297093396292743 L 10.264465043529768 8.396124528390324"/>
<path d="M 12.0 8.0 A 4 4 0 0 0 13.735534956470232 8.396124528390324"/>
<path d="M 13.735534956470232 8.396124528390324 A 4 4 0 0 0 15.127325929872118 9.506040792565067"/>
<path d="M 13.735534956470232 8.396124528390324 L 14.16941869558779 7.495155660487905"/>
<path d="M 15.127325929872118 9.506040792565067 A 4 4 0 0 0 15.899711648727294 11.109916264174743"/>
<path d="M 15.12732592987212 14.493959207434933 A 4 4 0 0 0 13.735534956470232 15.603875471609676"/>
<path d="M 13.735534956470232 15.603875471609676 L 14.16941869558779 16.504844339512097"/>
<path d="M 12.0 16.0 L 12.0 17.0"/>
<path d="M 10.264465043529768 15.603875471609676 A 4 4 0 0 0 8.872674070127882 14.493959207434935"/>
<path d="M 10.264465043529768 15.603875471609676 L 9.83058130441221 16.504844339512097"/>
<path d="M 8.100288351272706 11.109916264174743 A 4 4 0 0 0 8.87267407012788 9.506040792565067"/>
<path d="M 8.87267407012788 9.506040792565067 A 4 4 0 0 0 10.264465043529768 8.396124528390324"/>
<path d="M 9.83058130441221 7.495155660487905 A 5 5 0 0 0 11.999999999999998 7.0"/>
<path d="M 14.16941869558779 7.495155660487905 L 14.603302434705348 6.594186792585486"/>
<path d="M 15.909157412340148 8.882550990706331 A 5 5 0 0 0 16.874639560909117 10.887395330218428"/>
<path d="M 16.874639560909117 10.887395330218428 L 17.849567473090943 10.664874396262114"/>
<path d="M 16.874639560909117 10.887395330218428 A 5 5 0 0 0 16.874639560909117 13.112604669781572"/>
<path d="M 15.90915741234015 15.117449009293667 A 5 5 0 0 0 14.16941869558779 16.504844339512097"/>
<path d="M 14.16941869558779 16.504844339512097 L 14.603302434705348 17.405813207414514"/>
<path d="M 9.83058130441221 16.504844339512097 L 9.396697565294652 17.405813207414514"/>
<path d="M 8.090842587659852 15.117449009293669 A 5 5 0 0 0 7.1253604390908825 13.112604669781573"/>
<path d="M 7.1253604390908825 13.112604669781573 A 5 5 0 0 0 7.125360439090882 10.887395330218428"/>
<path d="M 7.125360439090882 13.112604669781572 L 6.150432526909058 13.335125603737886"/>
<path d="M 7.125360439090882 10.887395330218428 A 5 5 0 0 0 8.09084258765985 8.882550990706333"/>
<path d="M 8.09084258765985 8.882550990706333 A 5 5 0 0 0 9.83058130441221 7.495155660487905"/>
<path d="M 12.0 6.0 L 12.0 5.0"/>
<path d="M 12.0 6.0 A 6 6 0 0 0 14.603302434705348 6.594186792585485"/>
<path d="M 14.603302434705348 6.594186792585486 L 15.037186173822908 5.693217924683067"/>
<path d="M 16.69098889480818 8.259061188847598 A 6 6 0 0 0 17.849567473090943 10.664874396262114"/>
<path d="M 17.849567473090943 10.664874396262114 L 18.824495385272765 10.4423534623058"/>
<path d="M 17.849567473090943 13.335125603737886 A 6 6 0 0 0 16.69098889480818 15.7409388111524"/>
<path d="M 17.849567473090943 13.335125603737886 L 18.824495385272765 13.5576465376942"/>
<path d="M 16.69098889480818 15.7409388111524 A 6 6 0 0 0 14.603302434705348 17.405813207414514"/>
<path d="M 16.69098889480818 15.740938811152402 L 17.472820377276207 16.364428613011135"/>
<path d="M 14.603302434705348 17.405813207414514 L 15.037186173822906 18.306782075316935"/>
<path d="M 14.603302434705348 17.405813207414514 A 6 6 0 0 0 12.0 18.0"/>
<path d="M 9.396697565294652 17.405813207414514 L 8.962813826177094 18.306782075316935"/>
<path d="M 9.396697565294652 17.405813207414514 A 6 6 0 0 0 7.309011105191821 15.740938811152402"/>
<path d="M 7.309011105191821 15.740938811152402 A 6 6 0 0 0 6.150432526909059 13.335125603737888"/>
<path d="M 6.150432526909058 10.664874396262114 L 5.1755046147272346 10.4423534623058"/>
<path d="M 7.3090111051918205 8.2590611888476 L 6.527179622723791 7.635571386988866"/>
<path d="M 9.396697565294652 6.594186792585486 L 8.962813826177092 5.693217924683067"/>
<path d="M 8.962813826177092 5.693217924683067 A 7 7 0 0 0 11.999999999999998 5.0"/>
<path d="M 15.037186173822906 5.693217924683066 A 7 7 0 0 0 17.472820377276207 7.635571386988865"/>
<path d="M 17.472820377276207 7.635571386988866 L 18.25465185974424 7.012081585130133"/>
<path d="M 18.824495385272765 10.4423534623058 L 19.799423297454588 10.219832528349485"/>
<path d="M 18.824495385272765 10.4423534623058 A 7 7 0 0 0 18.824495385272765 13.5576465376942"/>
<path d="M 15.037186173822906 18.306782075316935 L 15.471069912940465 19.207750943219352"/>
<path d="M 12.0 19.0 A 7 7 0 0 0 8.962813826177094 18.306782075316935"/>
<path d="M 8.962813826177094 18.306782075316935 A 7 7 0 0 0 6.527179622723792 16.364428613011135"/>
<path d="M 8.962813826177094 18.306782075316935 L 8.528930087059535 19.207750943219352"/>
<path d="M 6.527179622723792 16.364428613011135 A 7 7 0 0 0 5.175504614727235 13.557646537694202"/>
<path d="M 5.175504614727235 13.557646537694202 A 7 7 0 0 0 5.1755046147272346 10.4423534623058"/>
<path d="M 5.1755046147272346 13.5576465376942 L 4.200576702545411 13.780167471650515"/>
<path d="M 5.1755046147272346 10.4423534623058 A 7 7 0 0 0 6.527179622723791 7.635571386988866"/>
<path d="M 6.527179622723791 7.635571386988866 L 5.745348140255761 7.012081585130133"/>
<path d="M 8.962813826177092 5.693217924683067 L 8.528930087059534 4.792249056780648"/>
<path d="M 8.528930087059534 4.792249056780648 A 8 8 0 0 0 11.999999999999998 4.0"/>
<path d="M 15.471069912940466 4.792249056780648 L 15.904953652058024 3.8912801888782287"/>
<path d="M 15.471069912940465 4.792249056780647 A 8 8 0 0 0 18.254651859744236 7.012081585130131"/>
<path d="M 18.254651859744236 7.012081585130131 A 8 8 0 0 0 19.799423297454588 10.219832528349485"/>
<path d="M 19.799423297454588 13.780167471650515 L 20.774351209636414 14.002688405606829"/>
<path d="M 18.254651859744236 16.987918414869867 L 19.036483342212268 17.611408216728602"/>
<path d="M 15.471069912940465 19.207750943219352 L 15.904953652058023 20.108719811121773"/>
<path d="M 12.0 20.0 L 12.0 21.0"/>
<path d="M 8.528930087059535 19.207750943219352 L 8.095046347941977 20.108719811121773"/>
<path d="M 8.528930087059535 19.207750943219352 A 8 8 0 0 0 5.7453481402557625 16.98791841486987"/>
<path d="M 4.200576702545412 13.780167471650516 A 8 8 0 0 0 4.200576702545411 10.219832528349487"/>
<path d="M 4.200576702545411 13.780167471650515 L 3.2256487903635875 14.002688405606829"/>
<path d="M 5.745348140255761 7.012081585130133 L 4.96351665778773 6.3885917832714"/>
<path d="M 12.0 3.0 A 9 9 0 0 0 15.904953652058023 3.891280188878227"/>
<path d="M 15.904953652058024 3.8912801888782287 L 16.33883739117558 2.9903113209758097"/>
<path d="M 19.036483342212268 6.388591783271398 A 9 9 0 0 0 20.774351209636414 9.997311594393171"/>
<path d="M 20.774351209636414 9.997311594393171 L 21.749279121818237 9.774790660436857"/>
<path d="M 20.774351209636414 14.002688405606829 L 21.749279121818237 14.225209339563143"/>
<path d="M 20.774351209636414 14.002688405606829 A 9 9 0 0 0 19.03648334221227 17.6114082167286"/>
<path d="M 19.03648334221227 17.6114082167286 A 9 9 0 0 0 15.904953652058024 20.108719811121773"/>
<path d="M 15.904953652058024 20.108719811121773 A 9 9 0 0 0 12.000000000000002 21.0"/>
<path d="M 15.904953652058023 20.108719811121773 L 16.33883739117558 21.009688679024194"/>
<path d="M 12.000000000000002 21.0 A 9 9 0 0 0 8.095046347941977 20.108719811121773"/>
<path d="M 12.0 21.0 L 12.0 22.0"/>
<path d="M 4.963516657787733 17.611408216728602 A 9 9 0 0 0 3.2256487903635893 14.00268840560683"/>
<path d="M 3.2256487903635893 14.00268840560683 A 9 9 0 0 0 3.2256487903635875 9.997311594393173"/>
<path d="M 4.96351665778773 6.3885917832714 A 9 9 0 0 0 8.095046347941976 3.8912801888782287"/>
<path d="M 12.000000000000002 2.0 L 12.000000000000002 1.0"/>
<path d="M 16.33883739117558 2.9903113209758097 L 16.772721130293142 2.0893424530733906"/>
<path d="M 19.818314824680296 5.7651019814126645 A 10 10 0 0 0 21.749279121818237 9.774790660436857"/>
<path d="M 21.749279121818237 9.774790660436857 A 10 10 0 0 0 21.749279121818237 14.225209339563143"/>
<path d="M 21.749279121818237 14.225209339563143 A 10 10 0 0 0 19.8183148246803 18.234898018587334"/>
<path d="M 21.749279121818237 14.225209339563143 L 22.72420703400006 14.44773027351946"/>
<path d="M 16.33883739117558 21.009688679024194 L 16.77272113029314 21.91065754692661"/>
<path d="M 12.000000000000002 22.0 A 10 10 0 0 0 7.66116260882442 21.009688679024194"/>
<path d="M 12.0 22.0 L 12.0 23.0"/>
<path d="M 7.6611626088244185 21.009688679024194 L 7.22727886970686 21.91065754692661"/>
<path d="M 4.1816851753197035 18.234898018587337 A 10 10 0 0 0 2.250720878181765 14.225209339563147"/>
<path d="M 4.1816851753197035 18.234898018587337 L 3.399853692851673 18.85838782044607"/>
<path d="M 2.250720878181763 14.225209339563143 L 1.2757929659999405 14.44773027351946"/>
<path d="M 2.250720878181763 9.774790660436857 L 1.2757929659999405 9.552269726480542"/>
<path d="M 4.181685175319701 5.765101981412666 L 3.3998536928516714 5.141612179553933"/>
<path d="M 7.661162608824418 2.9903113209758097 L 7.2272788697068595 2.0893424530733906"/>
<path d="M 7.227278869706859 2.0893424530733906 A 11 11 0 0 0 11.999999999999996 1.0"/>
<path d="M 12.0 1.0 A 11 11 0 0 0 16.77272113029314 2.089342453073389"/>
<path d="M 16.77272113029314 2.089342453073389 A 11 11 0 0 0 20.60014630714833 5.14161217955393"/>
<path d="M 22.72420703400006 9.55226972648054 A 11 11 0 0 0 22.72420703400006 14.447730273519458"/>
<path d="M 20.60014630714833 18.85838782044607 A 11 11 0 0 0 16.772721130293142 21.910657546926608"/>
<path d="M 7.227278869706862 21.91065754692661 A 11 11 0 0 0 3.399853692851673 18.85838782044607"/>
<path d="M 1.2757929659999405 14.447730273519461 A 11 11 0 0 0 1.2757929659999405 9.552269726480544"/>
<path d="M 3.3998536928516714 5.141612179553933 A 11 11 0 0 0 7.227278869706859 2.0893424530733906"/>
</svg>
</svg>
