<svg viewBox="0 0 10 10" xmlns="http://www.w3.org/2000/svg" style="background-color: #222;">

    <defs>
      <style>
        path {
          stroke: #006aff;
          stroke-width: 0.08866126240509586;
          stroke-linecap: round;
          fill: none;
        }
      </style>
    </defs>
    
<svg x="0" y="0">
<path d="M 5.0 4.0 L 4.6909830056250525 4.048943483704846"/>
<path d="M 5.0 4.0 L 5.3090169943749475 4.048943483704846"/>
<path d="M 5.3090169943749475 4.048943483704846 L 5.618033988749895 3.0978869674096927"/>
<path d="M 4.6909830056250525 4.048943483704846 L 4.412214747707527 4.1909830056250525"/>
<path d="M 5.0 3.0 L 5.0 2.0"/>
<path d="M 5.0 3.0 L 5.618033988749895 3.0978869674096927"/>
<path d="M 5.0 3.0 L 4.381966011250105 3.0978869674096927"/>
<path d="M 5.587785252292473 4.1909830056250525 L 6.175570504584947 3.381966011250105"/>
<path d="M 5.618033988749895 3.0978869674096927 L 6.175570504584947 3.381966011250105"/>
<path d="M 5.8090169943749475 4.412214747707527 L 6.618033988749895 3.824429495415054"/>
<path d="M 6.175570504584947 3.381966011250105 L 6.618033988749895 3.824429495415054"/>
<path d="M 5.951056516295154 4.6909830056250525 L 6.902113032590307 4.381966011250105"/>
<path d="M 5.951056516295154 4.6909830056250525 L 6.0 5.0"/>
<path d="M 6.618033988749895 3.824429495415054 L 6.902113032590307 4.381966011250105"/>
<path d="M 6.0 5.0 L 7.0 5.0"/>
<path d="M 6.902113032590307 4.381966011250105 L 7.853169548885461 4.072949016875158"/>
<path d="M 5.951056516295154 5.3090169943749475 L 5.8090169943749475 5.587785252292473"/>
<path d="M 5.8090169943749475 5.587785252292473 L 6.618033988749895 6.175570504584947"/>
<path d="M 6.902113032590307 5.618033988749895 L 7.853169548885461 5.927050983124842"/>
<path d="M 6.902113032590307 5.618033988749895 L 6.618033988749895 6.175570504584947"/>
<path d="M 5.587785252292473 5.8090169943749475 L 5.3090169943749475 5.951056516295154"/>
<path d="M 6.618033988749895 6.175570504584947 L 7.4270509831248415 6.76335575687742"/>
<path d="M 5.3090169943749475 5.951056516295154 L 5.618033988749895 6.902113032590307"/>
<path d="M 6.175570504584947 6.618033988749895 L 5.618033988749895 6.902113032590307"/>
<path d="M 5.0 6.0 L 5.0 7.0"/>
<path d="M 5.618033988749895 6.902113032590307 L 5.927050983124842 7.853169548885461"/>
<path d="M 5.618033988749895 6.902113032590307 L 5.0 7.0"/>
<path d="M 4.6909830056250525 5.951056516295154 L 4.412214747707527 5.8090169943749475"/>
<path d="M 4.412214747707527 5.8090169943749475 L 4.1909830056250525 5.587785252292473"/>
<path d="M 4.381966011250104 6.902113032590307 L 3.8244294954150537 6.618033988749895"/>
<path d="M 4.1909830056250525 5.587785252292473 L 4.048943483704846 5.3090169943749475"/>
<path d="M 3.8244294954150537 6.618033988749895 L 3.236644243122581 7.427050983124842"/>
<path d="M 4.048943483704846 5.3090169943749475 L 4.0 5.0"/>
<path d="M 4.048943483704846 5.3090169943749475 L 3.0978869674096927 5.618033988749895"/>
<path d="M 3.381966011250105 6.175570504584947 L 2.572949016875158 6.76335575687742"/>
<path d="M 4.0 5.0 L 4.048943483704846 4.6909830056250525"/>
<path d="M 3.0978869674096927 5.618033988749895 L 3.0 5.0"/>
<path d="M 3.0978869674096927 5.618033988749895 L 2.1468304511145395 5.927050983124842"/>
<path d="M 3.0 5.0 L 3.0978869674096927 4.381966011250105"/>
<path d="M 4.1909830056250525 4.412214747707527 L 3.381966011250105 3.824429495415054"/>
<path d="M 4.1909830056250525 4.412214747707527 L 4.412214747707527 4.1909830056250525"/>
<path d="M 3.0978869674096927 4.381966011250105 L 2.146830451114539 4.072949016875158"/>
<path d="M 3.381966011250105 3.824429495415054 L 2.5729490168751576 3.236644243122581"/>
<path d="M 3.8244294954150533 3.381966011250105 L 3.2366442431225804 2.572949016875158"/>
<path d="M 5.0 2.0 L 4.072949016875158 2.1468304511145395"/>
<path d="M 5.0 2.0 L 5.927050983124842 2.1468304511145395"/>
<path d="M 6.76335575687742 2.572949016875158 L 7.427050983124842 3.236644243122581"/>
<path d="M 6.76335575687742 2.572949016875158 L 7.351141009169893 1.7639320225002106"/>
<path d="M 7.427050983124842 3.236644243122581 L 8.23606797749979 2.648858990830108"/>
<path d="M 7.427050983124842 3.236644243122581 L 7.853169548885461 4.072949016875158"/>
<path d="M 7.853169548885461 4.072949016875158 L 8.0 5.0"/>
<path d="M 8.0 5.0 L 7.853169548885461 5.927050983124842"/>
<path d="M 7.853169548885461 5.927050983124842 L 8.804226065180615 6.23606797749979"/>
<path d="M 7.4270509831248415 6.76335575687742 L 6.763355756877419 7.427050983124842"/>
<path d="M 6.763355756877419 7.427050983124842 L 7.3511410091698925 8.23606797749979"/>
<path d="M 5.927050983124842 7.853169548885461 L 5.0 8.0"/>
<path d="M 5.927050983124842 7.853169548885461 L 6.23606797749979 8.804226065180615"/>
<path d="M 5.0 8.0 L 5.0 9.0"/>
<path d="M 4.072949016875157 7.85316954888546 L 3.236644243122581 7.427050983124842"/>
<path d="M 4.072949016875157 7.85316954888546 L 3.7639320225002084 8.804226065180615"/>
<path d="M 3.236644243122581 7.427050983124842 L 2.6488589908301075 8.23606797749979"/>
<path d="M 2.572949016875158 6.76335575687742 L 1.7639320225002106 7.351141009169893"/>
<path d="M 2.572949016875158 6.76335575687742 L 2.1468304511145395 5.927050983124842"/>
<path d="M 2.1468304511145395 5.927050983124842 L 1.1957739348193859 6.23606797749979"/>
<path d="M 2.1468304511145395 5.927050983124842 L 2.0 5.0"/>
<path d="M 2.146830451114539 4.072949016875158 L 2.5729490168751576 3.236644243122581"/>
<path d="M 3.2366442431225804 2.572949016875158 L 2.648858990830107 1.7639320225002106"/>
<path d="M 5.000000000000001 1.0 L 3.76393202250021 1.1957739348193859"/>
<path d="M 6.23606797749979 1.1957739348193859 L 7.351141009169893 1.7639320225002106"/>
<path d="M 8.804226065180615 3.7639320225002106 L 9.0 5.0"/>
<path d="M 9.0 5.0 L 8.804226065180615 6.23606797749979"/>
<path d="M 8.23606797749979 7.351141009169893 L 7.3511410091698925 8.23606797749979"/>
<path d="M 5.0 9.0 L 3.7639320225002084 8.804226065180615"/>
<path d="M 2.6488589908301075 8.23606797749979 L 1.7639320225002106 7.351141009169893"/>
<path d="M 1.1957739348193859 6.23606797749979 L 1.0 5.0"/>
<path d="M 1.0 5.0 L 1.1957739348193854 3.7639320225002106"/>
<path d="M 1.1957739348193854 3.7639320225002106 L 1.7639320225002102 2.648858990830108"/>
<path d="M 1.7639320225002102 2.648858990830108 L 2.648858990830107 1.7639320225002106"/>
<path d="M 2.648858990830107 1.7639320225002106 L 3.76393202250021 1.1957739348193859"/>
</svg>
</svg>
