<svg viewBox="0 0 14 14" xmlns="http://www.w3.org/2000/svg" style="background-color: #222;">

    <defs>
      <style>
        path {
          stroke: #006aff;
          stroke-width: 0.43844562009825305;
          stroke-linecap: round;
          fill: none;
        }
      </style>
    </defs>
    
<svg x="0" y="0">
<path d="M 7.0 6.0 L 7.540640817455598 6.158746467168819"/>
<path d="M 7.540640817455598 6.158746467168819 L 8.081281634911196 5.317492934337638"/>
<path d="M 7,7 L 7.540640817455598,6.158746467168819"/>
<path d="M 7,7 L 6.244250425645742,7.654860733945285"/>
<path d="M 7,7 L 7.909631995354518,6.584584986998114"/>
<path d="M 7,7 L 7.989821441880933,7.142314838273285"/>
<path d="M 6.459359182544402 6.158746467168819 L 5.918718365088804 5.317492934337638"/>
<path d="M 7.0 5.0 L 5.918718365088804 5.317492934337638"/>
<path d="M 7.0 5.0 L 7.0 4.0"/>
<path d="M 7.909631995354518 6.584584986998114 L 8.819263990709036 6.169169973996228"/>
<path d="M 7.989821441880933 7.142314838273285 L 8.979642883761866 7.284629676546571"/>
<path d="M 7.755749574354258 7.654860733945285 L 7.28173255684143 7.9594929736144975"/>
<path d="M 7.28173255684143 7.9594929736144975 L 6.71826744315857 7.9594929736144975"/>
<path d="M 7.28173255684143 7.9594929736144975 L 7.5634651136828595 8.918985947228995"/>
<path d="M 6.71826744315857 7.9594929736144975 L 6.4365348863171405 8.918985947228995"/>
<path d="M 6.244250425645742 7.654860733945285 L 6.010178558119067 7.142314838273285"/>
<path d="M 6.010178558119067 7.142314838273285 L 6.090368004645482 6.584584986998113"/>
<path d="M 6.010178558119067 7.142314838273285 L 5.020357116238134 7.284629676546571"/>
<path d="M 6.090368004645482 6.584584986998113 L 5.180736009290964 6.169169973996226"/>
<path d="M 8.511499148708516 8.30972146789057 L 9.267248723062774 8.964582201835857"/>
<path d="M 6.4365348863171405 8.918985947228995 L 5.488500851291484 8.30972146789057"/>
<path d="M 5.488500851291484 8.30972146789057 L 4.7327512769372255 8.964582201835857"/>
<path d="M 5.488500851291484 8.30972146789057 L 5.020357116238134 7.284629676546571"/>
<path d="M 5.180736009290964 6.169169973996226 L 5.918718365088804 5.317492934337638"/>
<path d="M 5.180736009290964 6.169169973996226 L 4.271104013936446 5.753754960994339"/>
<path d="M 7.0 4.0 L 7.000000000000001 3.0"/>
<path d="M 8.621922452366793 4.476239401506456 L 9.16256326982239 3.6349858686752756"/>
<path d="M 9.728895986063556 5.753754960994341 L 10.638527981418074 5.338339947992455"/>
<path d="M 9.969464325642798 7.426944514819855 L 10.959285767523731 7.56925935309314"/>
<path d="M 9.267248723062774 8.964582201835857 L 10.022998297417033 9.61944293578114"/>
<path d="M 9.267248723062774 8.964582201835857 L 7.84519767052429 9.878478920843492"/>
<path d="M 7.84519767052429 9.878478920843492 L 6.154802329475712 9.878478920843492"/>
<path d="M 6.154802329475712 9.878478920843492 L 4.7327512769372255 8.964582201835857"/>
<path d="M 4.7327512769372255 8.964582201835857 L 3.9770017025829674 9.61944293578114"/>
<path d="M 4.7327512769372255 8.964582201835857 L 4.030535674357202 7.426944514819855"/>
<path d="M 4.271104013936446 5.753754960994339 L 3.3614720185819276 5.338339947992452"/>
<path d="M 5.378077547633206 4.476239401506458 L 4.837436730177608 3.634985868675277"/>
<path d="M 7.000000000000001 3.0 L 7.000000000000001 2.0"/>
<path d="M 7.000000000000001 3.0 L 4.837436730177608 3.634985868675277"/>
<path d="M 9.16256326982239 3.6349858686752756 L 10.638527981418074 5.338339947992455"/>
<path d="M 10.638527981418074 5.338339947992455 L 11.548159976772592 4.922924934990569"/>
<path d="M 10.638527981418074 5.338339947992455 L 10.959285767523731 7.56925935309314"/>
<path d="M 10.959285767523731 7.56925935309314 L 10.022998297417033 9.61944293578114"/>
<path d="M 10.022998297417033 9.61944293578114 L 10.77874787177129 10.274303669726425"/>
<path d="M 8.126930227365719 10.83797189445799 L 5.873069772634282 10.83797189445799"/>
<path d="M 5.873069772634282 10.83797189445799 L 3.9770017025829674 9.61944293578114"/>
<path d="M 3.0407142324762693 7.56925935309314 L 3.3614720185819276 5.338339947992452"/>
<path d="M 3.0407142324762693 7.56925935309314 L 2.050892790595337 7.7115741913664255"/>
<path d="M 3.3614720185819276 5.338339947992452 L 2.451840023227409 4.922924934990565"/>
<path d="M 7.000000000000001 2.0 L 4.2967959127220094 2.793732335844096"/>
<path d="M 9.703204087277989 2.793732335844094 L 11.548159976772592 4.922924934990569"/>
<path d="M 9.703204087277989 2.793732335844094 L 10.243844904733587 1.9524788030129132"/>
<path d="M 11.949107209404662 7.7115741913664255 L 12.938928651285597 7.853889029639711"/>
<path d="M 11.949107209404662 7.7115741913664255 L 10.77874787177129 10.274303669726425"/>
<path d="M 8.40866278420715 11.797464868072487 L 5.591337215792852 11.797464868072488"/>
<path d="M 8.40866278420715 11.797464868072487 L 8.69039534104858 12.756957841686983"/>
<path d="M 5.591337215792852 11.797464868072488 L 3.221252128228709 10.274303669726425"/>
<path d="M 3.221252128228709 10.274303669726425 L 2.465502553874451 10.929164403671711"/>
<path d="M 3.221252128228709 10.274303669726425 L 2.050892790595337 7.7115741913664255"/>
<path d="M 2.050892790595337 7.7115741913664255 L 1.0610713487144041 7.853889029639711"/>
<path d="M 4.2967959127220094 2.793732335844096 L 3.7561550952664113 1.9524788030129159"/>
<path d="M 7.000000000000001 1.0 L 3.7561550952664113 1.9524788030129159"/>
<path d="M 12.457791972127112 4.507509921988682 L 12.938928651285597 7.853889029639711"/>
<path d="M 11.534497446125549 10.929164403671711 L 8.69039534104858 12.756957841686983"/>
<path d="M 5.309604658951423 12.756957841686985 L 2.465502553874451 10.929164403671711"/>
<path d="M 1.0610713487144041 7.853889029639711 L 1.5422080278728911 4.507509921988678"/>
</svg>
</svg>
