<svg viewBox="0 0 32 32" xmlns="http://www.w3.org/2000/svg" style="background-color: #222;">

    <defs>
      <style>
        path {
          stroke: #006aff;
          stroke-width: 0.23940785297717962;
          stroke-linecap: round;
          fill: none;
        }
      </style>
    </defs>
    
<svg x="0" y="0">
<path d="M 16.0 15.0 A 1 1 0 0 1 16.324699469204685 15.054182758299365"/>
<path d="M 16.324699469204685 15.054182758299365 L 16.649398938409366 14.108365516598731"/>
<path d="M 16,16 L 15.162833521737472,15.453051841877574"/>
<path d="M 16,16 L 15.524052606962927,16.87947375120649"/>
<path d="M 16,16 L 15.385787287310333,15.210859490603607"/>
<path d="M 16,16 L 15.084226673344943,16.40169542465297"/>
<path d="M 16,16 L 16.475947393037075,16.87947375120649"/>
<path d="M 16,16 L 16.837166478262528,15.453051841877574"/>
<path d="M 15.385787287310333 15.210859490603607 A 1 1 0 0 1 15.675300530795317 15.054182758299365"/>
<path d="M 16.0 14.0 L 16.0 13.0"/>
<path d="M 16.614212712689667 15.210859490603607 A 1 1 0 0 1 16.837166478262528 15.453051841877572"/>
<path d="M 16.614212712689667 15.210859490603607 L 17.228425425379335 14.421718981207214"/>
<path d="M 16.649398938409366 14.108365516598731 A 2 2 0 0 1 17.228425425379335 14.421718981207214"/>
<path d="M 16.837166478262528 15.453051841877572 A 1 1 0 0 1 16.96940026593933 15.7545145128592"/>
<path d="M 16.99658449300667 16.082579345472332 L 17.99316898601334 16.165158690944665"/>
<path d="M 16.915773326655057 16.40169542465297 A 1 1 0 0 1 16.73572391067313 16.67728157162574"/>
<path d="M 16.73572391067313 16.67728157162574 L 17.471447821346263 17.354563143251482"/>
<path d="M 16.73572391067313 16.67728157162574 A 1 1 0 0 1 16.475947393037075 16.87947375120649"/>
<path d="M 16.475947393037075 16.87947375120649 A 1 1 0 0 1 16.164594590280736 16.986361303402724"/>
<path d="M 16.164594590280736 16.986361303402724 L 16.329189180561468 17.972722606805444"/>
<path d="M 16.164594590280736 16.986361303402724 A 1 1 0 0 1 15.835405409719266 16.986361303402724"/>
<path d="M 15.264276089326868 16.67728157162574 A 1 1 0 0 1 15.084226673344943 16.40169542465297"/>
<path d="M 15.00341550699333 16.082579345472332 A 1 1 0 0 1 15.030599734060669 15.7545145128592"/>
<path d="M 15.030599734060669 15.7545145128592 A 1 1 0 0 1 15.162833521737472 15.453051841877574"/>
<path d="M 15.385787287310333 15.210859490603607 L 14.771574574620665 14.421718981207214"/>
<path d="M 17.228425425379335 14.421718981207214 L 17.842638138069002 13.63257847181082"/>
<path d="M 17.228425425379335 14.421718981207214 A 2 2 0 0 1 17.674332956525056 14.906103683755147"/>
<path d="M 17.674332956525056 14.906103683755147 L 18.511499434787588 14.359155525632719"/>
<path d="M 17.938800531878663 15.509029025718402 A 2 2 0 0 1 17.99316898601334 16.165158690944665"/>
<path d="M 17.938800531878663 15.509029025718402 L 18.90820079781799 15.263543538577602"/>
<path d="M 17.99316898601334 16.165158690944665 L 18.98975347902001 16.247738036416997"/>
<path d="M 17.831546653310117 16.803390849305938 A 2 2 0 0 1 17.471447821346263 17.354563143251482"/>
<path d="M 16.951894786074146 17.75894750241298 L 17.42784217911122 18.638421253619466"/>
<path d="M 16.329189180561468 17.972722606805444 A 2 2 0 0 1 15.670810819438532 17.972722606805444"/>
<path d="M 16.329189180561468 17.972722606805444 L 16.493783770842203 18.959083910208168"/>
<path d="M 15.670810819438532 17.972722606805444 A 2 2 0 0 1 15.048105213925853 17.75894750241298"/>
<path d="M 15.670810819438532 17.972722606805444 L 15.506216229157799 18.959083910208168"/>
<path d="M 15.048105213925853 17.75894750241298 L 14.57215782088878 18.638421253619466"/>
<path d="M 14.528552178653737 17.354563143251482 L 13.792828267980607 18.031844714877224"/>
<path d="M 14.168453346689885 16.803390849305938 L 13.252680020034829 17.20508627395891"/>
<path d="M 14.168453346689885 16.80339084930594 A 2 2 0 0 1 14.00683101398666 16.165158690944665"/>
<path d="M 14.06119946812134 15.509029025718402 A 2 2 0 0 1 14.325667043474942 14.906103683755147"/>
<path d="M 14.325667043474942 14.906103683755147 A 2 2 0 0 1 14.771574574620663 14.421718981207214"/>
<path d="M 14.771574574620663 14.421718981207214 A 2 2 0 0 1 15.350601061590632 14.108365516598731"/>
<path d="M 14.771574574620665 14.421718981207214 L 14.157361861930996 13.63257847181082"/>
<path d="M 16.0 13.0 L 16.0 12.0"/>
<path d="M 15.02590159238595 13.162548274898096 A 3 3 0 0 1 16.0 13.0"/>
<path d="M 16.0 13.0 A 3 3 0 0 1 16.97409840761405 13.162548274898096"/>
<path d="M 16.97409840761405 13.162548274898096 A 3 3 0 0 1 17.842638138069002 13.632578471810818"/>
<path d="M 18.511499434787588 14.359155525632719 L 19.348665913050116 13.812207367510293"/>
<path d="M 18.90820079781799 15.263543538577602 L 19.87760106375732 15.018058051436803"/>
<path d="M 18.98975347902001 16.247738036416997 L 19.98633797202668 16.33031738188933"/>
<path d="M 18.747319979965173 17.20508627395891 L 19.66309330662023 17.606781698611876"/>
<path d="M 18.207171732019397 18.031844714877224 A 3 3 0 0 1 17.42784217911122 18.638421253619466"/>
<path d="M 18.207171732019397 18.031844714877224 L 18.942895642692527 18.709126286502965"/>
<path d="M 17.42784217911122 18.638421253619466 L 17.903789572148295 19.517895004825956"/>
<path d="M 16.493783770842203 18.959083910208168 L 16.658378361122935 19.94544521361089"/>
<path d="M 14.57215782088878 18.638421253619466 A 3 3 0 0 1 13.792828267980605 18.031844714877224"/>
<path d="M 13.792828267980607 18.031844714877224 L 13.057104357307475 18.709126286502965"/>
<path d="M 13.792828267980607 18.031844714877224 A 3 3 0 0 1 13.252680020034829 17.20508627395891"/>
<path d="M 13.252680020034829 17.20508627395891 A 3 3 0 0 1 13.01024652097999 16.247738036416997"/>
<path d="M 13.091799202182008 15.263543538577604 A 3 3 0 0 1 13.488500565212414 14.35915552563272"/>
<path d="M 13.091799202182008 15.263543538577604 L 12.122398936242679 15.018058051436805"/>
<path d="M 17.298797876818735 12.216731033197462 A 4 4 0 0 1 18.45685085075867 12.843437962414425"/>
<path d="M 18.45685085075867 12.843437962414427 L 19.07106356344834 12.054297453018034"/>
<path d="M 19.348665913050116 13.812207367510293 L 20.185832391312644 13.265259209387867"/>
<path d="M 19.348665913050112 13.812207367510291 A 4 4 0 0 1 19.87760106375732 15.018058051436803"/>
<path d="M 19.87760106375732 15.018058051436803 L 20.847001329696653 14.772572564296004"/>
<path d="M 19.98633797202668 16.33031738188933 L 20.982922465033347 16.412896727361662"/>
<path d="M 19.66309330662023 17.606781698611876 L 20.57886663327529 18.008477123264846"/>
<path d="M 18.942895642692527 18.709126286502965 L 19.678619553365657 19.386407858128706"/>
<path d="M 17.903789572148295 19.517895004825956 L 18.37973696518537 20.397368756032446"/>
<path d="M 16.658378361122935 19.94544521361089 L 16.82297295140367 20.931806517013612"/>
<path d="M 15.341621638877065 19.94544521361089 L 15.17702704859633 20.931806517013612"/>
<path d="M 15.341621638877065 19.94544521361089 A 4 4 0 0 1 14.096210427851705 19.517895004825956"/>
<path d="M 14.096210427851705 19.517895004825956 A 4 4 0 0 1 13.057104357307473 18.709126286502965"/>
<path d="M 12.33690669337977 17.60678169861188 L 11.421133366724714 18.00847712326485"/>
<path d="M 12.013662027973321 16.33031738188933 L 11.017077534966651 16.412896727361662"/>
<path d="M 12.122398936242679 15.018058051436805 L 11.152998670303347 14.772572564296006"/>
<path d="M 12.122398936242679 15.018058051436805 A 4 4 0 0 1 12.651334086949884 13.812207367510293"/>
<path d="M 12.651334086949884 13.812207367510293 A 4 4 0 0 1 13.543149149241328 12.843437962414427"/>
<path d="M 13.543149149241328 12.843437962414427 A 4 4 0 0 1 14.701202123181265 12.216731033197462"/>
<path d="M 14.701202123181265 12.216731033197462 L 14.376502653976582 11.270913791496827"/>
<path d="M 14.376502653976582 11.270913791496827 A 5 5 0 0 1 15.999999999999998 11.0"/>
<path d="M 16.0 11.0 A 5 5 0 0 1 17.623497346023417 11.270913791496827"/>
<path d="M 19.07106356344834 12.054297453018032 A 5 5 0 0 1 20.185832391312644 13.265259209387864"/>
<path d="M 19.07106356344834 12.054297453018034 L 19.68527627613801 11.265156943621639"/>
<path d="M 20.185832391312644 13.265259209387867 L 21.022998869575172 12.71831105126544"/>
<path d="M 20.847001329696653 14.772572564296004 L 21.81640159563598 14.527087077155205"/>
<path d="M 20.982922465033347 16.412896727361662 L 21.97950695804002 16.495476072833995"/>
<path d="M 20.57886663327529 18.008477123264846 A 5 5 0 0 1 19.678619553365657 19.386407858128706"/>
<path d="M 20.57886663327529 18.008477123264846 L 21.494639959930346 18.410172547917817"/>
<path d="M 19.678619553365657 19.386407858128706 L 20.41434346403879 20.063689429754447"/>
<path d="M 18.37973696518537 20.397368756032446 A 5 5 0 0 1 16.82297295140367 20.931806517013612"/>
<path d="M 15.17702704859633 20.931806517013612 L 15.012432458315596 21.918167820416336"/>
<path d="M 15.177027048596331 20.931806517013612 A 5 5 0 0 1 13.620263034814633 20.397368756032446"/>
<path d="M 13.620263034814633 20.397368756032446 L 13.144315641777558 21.276842507238936"/>
<path d="M 13.620263034814633 20.397368756032446 A 5 5 0 0 1 12.321380446634342 19.386407858128706"/>
<path d="M 12.321380446634343 19.386407858128706 L 11.585656535961213 20.063689429754447"/>
<path d="M 11.421133366724714 18.00847712326485 L 10.505360040069657 18.410172547917817"/>
<path d="M 11.017077534966651 16.412896727361662 L 10.02049304195998 16.495476072833995"/>
<path d="M 11.814167608687356 13.265259209387867 L 10.977001130424828 12.71831105126544"/>
<path d="M 12.928936436551659 12.054297453018034 A 5 5 0 0 1 14.376502653976582 11.270913791496827"/>
<path d="M 12.92893643655166 12.054297453018034 L 12.314723723861992 11.265156943621639"/>
<path d="M 16.0 10.0 A 6 6 0 0 1 17.9481968152281 10.325096549796193"/>
<path d="M 14.051803184771897 10.325096549796193 A 6 6 0 0 1 15.999999999999998 10.0"/>
<path d="M 17.9481968152281 10.325096549796193 A 6 6 0 0 1 19.685276276138005 11.265156943621637"/>
<path d="M 19.68527627613801 11.265156943621639 L 20.299488988827676 10.476016434225246"/>
<path d="M 18.85568435822244 21.276842507238932 A 6 6 0 0 1 16.987567541684403 21.918167820416336"/>
<path d="M 18.85568435822244 21.276842507238936 L 19.331631751259515 22.156316258445422"/>
<path d="M 16.987567541684403 21.918167820416336 L 17.152162131965138 22.904529123819056"/>
<path d="M 13.144315641777558 21.276842507238936 L 12.668368248740485 22.156316258445422"/>
<path d="M 10.505360040069657 18.410172547917817 L 9.5895867134146 18.811867972570788"/>
<path d="M 10.505360040069657 18.41017254791782 A 6 6 0 0 1 10.02049304195998 16.495476072833995"/>
<path d="M 10.02049304195998 16.495476072833995 A 6 6 0 0 1 10.183598404364016 14.527087077155208"/>
<path d="M 10.183598404364016 14.527087077155208 A 6 6 0 0 1 10.977001130424828 12.718311051265442"/>
<path d="M 10.183598404364016 14.527087077155207 L 9.214198138424686 14.281601590014407"/>
<path d="M 12.314723723861992 11.265156943621639 A 6 6 0 0 1 14.051803184771897 10.325096549796193"/>
<path d="M 16.0 9.0 L 16.0 8.0"/>
<path d="M 18.272896284432786 9.379279308095558 L 18.59759575363747 8.433462066394924"/>
<path d="M 18.272896284432782 9.379279308095558 A 7 7 0 0 1 20.299488988827676 10.476016434225244"/>
<path d="M 20.299488988827676 10.476016434225244 A 7 7 0 0 1 21.8601653478377 12.17136289314301"/>
<path d="M 21.8601653478377 12.17136289314301 A 7 7 0 0 1 22.78580186157531 14.281601590014406"/>
<path d="M 21.8601653478377 12.171362893143012 L 22.697331826100232 11.624414735020586"/>
<path d="M 22.78580186157531 14.281601590014406 A 7 7 0 0 1 22.97609145104669 16.578055418306327"/>
<path d="M 22.97609145104669 16.578055418306327 L 23.972675944053357 16.66063476377866"/>
<path d="M 22.410413286585403 18.811867972570784 A 7 7 0 0 1 21.150067374711924 20.740971001380185"/>
<path d="M 21.150067374711924 20.74097100138019 L 21.885791285385054 21.41825257300593"/>
<path d="M 21.150067374711924 20.740971001380185 A 7 7 0 0 1 19.331631751259515 22.156316258445422"/>
<path d="M 17.152162131965138 22.904529123819056 A 7 7 0 0 1 14.847837868034864 22.904529123819056"/>
<path d="M 14.847837868034862 22.904529123819056 L 14.683243277754128 23.890890427221777"/>
<path d="M 12.668368248740485 22.156316258445422 A 7 7 0 0 1 10.84993262528808 20.74097100138019"/>
<path d="M 10.849932625288082 20.74097100138019 A 7 7 0 0 1 9.5895867134146 18.811867972570788"/>
<path d="M 9.023908548953312 16.578055418306327 L 8.027324055946641 16.66063476377866"/>
<path d="M 9.023908548953312 16.57805541830633 A 7 7 0 0 1 9.214198138424686 14.281601590014409"/>
<path d="M 9.214198138424686 14.281601590014409 A 7 7 0 0 1 10.1398346521623 12.171362893143014"/>
<path d="M 10.1398346521623 12.171362893143014 A 7 7 0 0 1 11.700511011172324 10.476016434225246"/>
<path d="M 13.727103715567214 9.379279308095558 L 13.402404246362531 8.433462066394924"/>
<path d="M 16.0 8.0 A 8 8 0 0 1 18.597595753637467 8.433462066394924"/>
<path d="M 13.40240424636253 8.433462066394924 A 8 8 0 0 1 15.999999999999998 8.0"/>
<path d="M 16.0 8.0 L 16.0 7.0"/>
<path d="M 20.913701701517343 9.68687592482885 A 8 8 0 0 1 22.69733182610023 11.624414735020583"/>
<path d="M 20.913701701517343 9.686875924828852 L 21.52791441420701 8.897735415432459"/>
<path d="M 23.755202127514643 14.036116102873606 A 8 8 0 0 1 23.972675944053357 16.66063476377866"/>
<path d="M 23.972675944053357 16.66063476377866 L 24.96926043706003 16.743214109250992"/>
<path d="M 23.972675944053357 16.66063476377866 A 8 8 0 0 1 23.32618661324046 19.213563397223755"/>
<path d="M 23.32618661324046 19.213563397223755 A 8 8 0 0 1 21.885791285385054 21.418252573005926"/>
<path d="M 21.885791285385054 21.41825257300593 L 22.621515196058184 22.09553414463167"/>
<path d="M 19.80757914429659 23.03579000965191 A 8 8 0 0 1 17.316756722245874 23.890890427221777"/>
<path d="M 19.80757914429659 23.03579000965191 L 20.283526537333664 23.9152637608584"/>
<path d="M 12.192420855703412 23.03579000965191 A 8 8 0 0 1 10.114208714614946 21.41825257300593"/>
<path d="M 10.11420871461495 21.41825257300593 L 9.378484803941818 22.09553414463167"/>
<path d="M 10.11420871461495 21.41825257300593 A 8 8 0 0 1 8.67381338675954 19.21356339722376"/>
<path d="M 8.67381338675954 19.21356339722376 L 7.758040060104484 19.61525882187673"/>
<path d="M 8.67381338675954 19.21356339722376 A 8 8 0 0 1 8.027324055946641 16.660634763778663"/>
<path d="M 8.027324055946641 16.660634763778663 A 8 8 0 0 1 8.244797872485357 14.03611610287361"/>
<path d="M 8.244797872485357 14.03611610287361 A 8 8 0 0 1 9.30266817389977 11.624414735020586"/>
<path d="M 9.30266817389977 11.624414735020586 L 8.46550169563724 11.07746657689816"/>
<path d="M 9.30266817389977 11.624414735020586 A 8 8 0 0 1 11.086298298482657 9.686875924828852"/>
<path d="M 11.086298298482657 9.686875924828852 L 10.472085585792989 8.897735415432459"/>
<path d="M 18.922295222842152 7.4876448246942875 A 9 9 0 0 1 21.52791441420701 8.897735415432457"/>
<path d="M 23.534498304362756 11.077466576898157 A 9 9 0 0 1 24.724602393453974 13.790630615732807"/>
<path d="M 24.724602393453974 13.790630615732809 L 25.694002659393306 13.545145128592008"/>
<path d="M 24.96926043706003 16.743214109250992 L 25.965844930066698 16.825793454723325"/>
<path d="M 24.96926043706003 16.743214109250992 A 9 9 0 0 1 24.241959939895516 19.615258821876726"/>
<path d="M 22.621515196058184 22.095534144631667 A 9 9 0 0 1 20.283526537333664 23.9152637608584"/>
<path d="M 17.481351312526606 24.8772517306245 A 9 9 0 0 1 14.518648687473396 24.8772517306245"/>
<path d="M 17.481351312526606 24.8772517306245 L 17.64594590280734 25.863613034027225"/>
<path d="M 14.518648687473396 24.8772517306245 A 9 9 0 0 1 11.71647346266634 23.9152637608584"/>
<path d="M 14.518648687473394 24.8772517306245 L 14.35405409719266 25.863613034027225"/>
<path d="M 7.758040060104484 19.61525882187673 A 9 9 0 0 1 7.030739562939971 16.743214109250996"/>
<path d="M 7.030739562939971 16.743214109250992 L 6.034155069933302 16.825793454723325"/>
<path d="M 7.030739562939971 16.743214109250996 A 9 9 0 0 1 7.275397606546026 13.79063061573281"/>
<path d="M 7.275397606546026 13.790630615732809 L 6.3059973406066945 13.545145128592011"/>
<path d="M 10.472085585792987 8.897735415432459 A 9 9 0 0 1 13.077704777157846 7.4876448246942875"/>
<path d="M 13.077704777157848 7.4876448246942875 L 12.753005307953163 6.541827582993653"/>
<path d="M 16.0 6.0 L 16.0 5.0"/>
<path d="M 19.246994692046837 6.541827582993653 L 19.57169416125152 5.596010341293018"/>
<path d="M 22.14212712689668 8.108594906036064 A 10 10 0 0 1 24.371664782625285 10.53051841877573"/>
<path d="M 24.371664782625288 10.530518418775733 L 25.208831260887816 9.983570260653305"/>
<path d="M 25.694002659393306 13.545145128592008 A 10 10 0 0 1 25.965844930066698 16.82579345472332"/>
<path d="M 25.965844930066698 16.825793454723325 L 26.962429423073367 16.908372800195657"/>
<path d="M 25.965844930066698 16.82579345472332 A 10 10 0 0 1 25.157733266550572 20.016954246529693"/>
<path d="M 23.357239106731317 22.772815716257412 L 24.09296301740445 23.45009728788315"/>
<path d="M 20.75947393037074 24.79473751206489 A 10 10 0 0 1 17.64594590280734 25.863613034027225"/>
<path d="M 14.354054097192662 25.863613034027225 A 10 10 0 0 1 11.240526069629265 24.79473751206489"/>
<path d="M 11.240526069629265 24.79473751206489 A 10 10 0 0 1 8.642760893268683 22.772815716257412"/>
<path d="M 8.642760893268687 22.772815716257412 A 10 10 0 0 1 6.842266733449428 20.0169542465297"/>
<path d="M 6.842266733449428 20.016954246529696 L 5.9264934067943695 20.418649671182667"/>
<path d="M 6.3059973406066945 13.545145128592011 L 5.336597074667365 13.299659641451212"/>
<path d="M 7.628335217374712 10.530518418775733 L 6.791168739112184 9.983570260653305"/>
<path d="M 9.85787287310332 8.108594906036066 A 10 10 0 0 1 12.753005307953163 6.541827582993653"/>
<path d="M 16.0 5.0 L 16.0 4.0"/>
<path d="M 16.0 5.0 A 11 11 0 0 1 19.571694161251518 5.596010341293018"/>
<path d="M 19.57169416125152 5.596010341293018 L 19.896393630456203 4.650193099592384"/>
<path d="M 19.571694161251518 5.596010341293018 A 11 11 0 0 1 22.756339839586346 7.319454396639669"/>
<path d="M 22.756339839586346 7.319454396639669 A 11 11 0 0 1 25.208831260887813 9.983570260653302"/>
<path d="M 22.756339839586346 7.319454396639673 L 23.370552552276017 6.5303138872432775"/>
<path d="M 26.663402925332633 13.299659641451209 A 11 11 0 0 1 26.962429423073367 16.908372800195654"/>
<path d="M 26.962429423073367 16.908372800195657 L 27.95901391608004 16.99095214566799"/>
<path d="M 26.073506593205632 20.418649671182663 A 11 11 0 0 1 24.09296301740445 23.45009728788315"/>
<path d="M 26.073506593205632 20.418649671182663 L 26.989279919860692 20.820345095835634"/>
<path d="M 24.09296301740445 23.45009728788315 A 11 11 0 0 1 21.23542132340781 25.674211263271378"/>
<path d="M 24.09296301740445 23.45009728788315 L 24.82868692807758 24.12737885950889"/>
<path d="M 21.23542132340781 25.674211263271378 A 11 11 0 0 1 17.810540493088073 26.849974337429945"/>
<path d="M 17.810540493088073 26.849974337429945 L 17.97513508336881 27.83633564083267"/>
<path d="M 14.189459506911927 26.849974337429945 L 14.024864916631193 27.83633564083267"/>
<path d="M 10.76457867659219 25.67421126327138 A 11 11 0 0 1 7.907036982595553 23.450097287883153"/>
<path d="M 7.907036982595557 23.450097287883157 A 11 11 0 0 1 5.9264934067943695 20.41864967118267"/>
<path d="M 5.9264934067943695 20.418649671182667 L 5.010720080139313 20.820345095835638"/>
<path d="M 5.0375705769266315 16.908372800195657 L 4.040986083919961 16.99095214566799"/>
<path d="M 5.336597074667365 13.299659641451212 L 4.367196808728034 13.054174154310413"/>
<path d="M 5.336597074667365 13.299659641451214 A 11 11 0 0 1 6.791168739112184 9.983570260653307"/>
<path d="M 6.791168739112184 9.983570260653307 A 11 11 0 0 1 9.24366016041365 7.319454396639673"/>
<path d="M 9.243660160413652 7.319454396639673 L 8.629447447723985 6.5303138872432775"/>
<path d="M 12.42830583874848 5.596010341293018 L 12.103606369543797 4.650193099592384"/>
<path d="M 23.370552552276013 6.530313887243276 A 12 12 0 0 1 26.045997739150344 9.436622102530876"/>
<path d="M 26.045997739150344 9.436622102530876 A 12 12 0 0 1 27.632803191271964 13.05417415431041"/>
<path d="M 27.632803191271964 13.05417415431041 L 28.602203457211296 12.808688667169612"/>
<path d="M 27.95901391608004 16.99095214566799 L 28.955598409086708 17.073531491140322"/>
<path d="M 21.711368716444884 26.55368501447787 L 22.187316109481955 27.433158765684357"/>
<path d="M 17.97513508336881 27.83633564083267 A 12 12 0 0 1 14.024864916631195 27.83633564083267"/>
<path d="M 14.024864916631195 27.83633564083267 A 12 12 0 0 1 10.288631283555118 26.55368501447787"/>
<path d="M 10.288631283555118 26.55368501447787 A 12 12 0 0 1 7.171313071922421 24.127378859508894"/>
<path d="M 10.288631283555116 26.55368501447787 L 9.812683890518043 27.433158765684357"/>
<path d="M 5.010720080139313 20.820345095835638 A 12 12 0 0 1 4.040986083919961 16.990952145667993"/>
<path d="M 5.010720080139313 20.820345095835638 L 4.094946753484255 21.222040520488605"/>
<path d="M 4.040986083919961 16.990952145667993 A 12 12 0 0 1 4.367196808728034 13.054174154310415"/>
<path d="M 4.367196808728034 13.054174154310415 A 12 12 0 0 1 5.954002260849656 9.436622102530881"/>
<path d="M 12.103606369543797 4.650193099592384 L 11.778906900339113 3.7043758578917494"/>
<path d="M 16.0 3.0 A 13 13 0 0 1 20.221093099660884 3.7043758578917494"/>
<path d="M 16.0 3.0 L 16.0 2.0"/>
<path d="M 23.98476526496568 5.7411733778468825 A 13 13 0 0 1 26.88316421741287 8.889673944408448"/>
<path d="M 23.98476526496568 5.741173377846884 L 24.598977977655352 4.952032868450491"/>
<path d="M 26.883164217412876 8.889673944408454 L 27.7203306956754 8.342725786286026"/>
<path d="M 26.88316421741287 8.889673944408448 A 13 13 0 0 1 28.602203457211296 12.80868866716961"/>
<path d="M 28.602203457211296 12.808688667169612 L 29.571603723150623 12.563203180028813"/>
<path d="M 28.955598409086708 17.07353149114032 A 13 13 0 0 1 27.905053246515745 21.2220405204886"/>
<path d="M 27.90505324651575 21.2220405204886 L 28.820826573170805 21.623735945141572"/>
<path d="M 25.56441083875071 24.804660431134632 L 26.300134749423844 25.481942002760373"/>
<path d="M 22.187316109481955 27.433158765684357 L 22.66326350251903 28.312632516890847"/>
<path d="M 18.13972967364954 28.82269694423539 L 18.304324263930276 29.809058247638113"/>
<path d="M 13.86027032635046 28.82269694423539 L 13.695675736069726 29.809058247638113"/>
<path d="M 9.812683890518045 27.433158765684357 A 13 13 0 0 1 6.43558916124929 24.804660431134636"/>
<path d="M 9.812683890518043 27.433158765684357 L 9.33673649748097 28.312632516890847"/>
<path d="M 6.435589161249293 24.80466043113464 A 13 13 0 0 1 4.094946753484255 21.22204052048861"/>
<path d="M 4.094946753484255 21.22204052048861 A 13 13 0 0 1 3.044401590913292 17.073531491140326"/>
<path d="M 3.044401590913292 17.073531491140322 L 2.0478170979066217 17.15611083661266"/>
<path d="M 3.3977965427887042 12.808688667169614 L 2.428396276849373 12.563203180028815"/>
<path d="M 3.3977965427887042 12.808688667169616 A 13 13 0 0 1 5.116835782587126 8.889673944408454"/>
<path d="M 8.015234735034317 5.741173377846884 L 7.401022022344648 4.952032868450491"/>
<path d="M 8.015234735034316 5.741173377846884 A 13 13 0 0 1 11.778906900339113 3.7043758578917494"/>
<path d="M 16.0 2.0 A 14 14 0 0 1 20.54579256886557 2.758558616191115"/>
<path d="M 20.54579256886557 2.758558616191115 A 14 14 0 0 1 24.598977977655352 4.9520328684504875"/>
<path d="M 27.7203306956754 8.342725786286026 L 28.557497173937932 7.795777628163599"/>
<path d="M 29.571603723150623 12.563203180028813 L 30.541003989089955 12.317717692888014"/>
<path d="M 29.952182902093377 17.15611083661265 A 14 14 0 0 1 28.820826573170805 21.623735945141572"/>
<path d="M 29.952182902093377 17.156110836612655 L 30.94876739510005 17.238690182084987"/>
<path d="M 28.820826573170805 21.62373594514157 A 14 14 0 0 1 26.300134749423844 25.48194200276037"/>
<path d="M 28.820826573170805 21.623735945141572 L 29.736599899825862 22.02543136979454"/>
<path d="M 22.66326350251903 28.312632516890847 L 23.139210895556104 29.192106268097334"/>
<path d="M 18.304324263930276 29.809058247638113 A 14 14 0 0 1 13.695675736069727 29.809058247638113"/>
<path d="M 13.695675736069726 29.809058247638113 L 13.531081145788992 30.795419551040837"/>
<path d="M 13.695675736069727 29.809058247638113 A 14 14 0 0 1 9.33673649748097 28.312632516890847"/>
<path d="M 9.33673649748097 28.312632516890847 L 8.860789104443896 29.192106268097334"/>
<path d="M 5.699865250576163 25.48194200276038 A 14 14 0 0 1 3.1791734268291982 21.62373594514158"/>
<path d="M 3.1791734268291982 21.62373594514158 A 14 14 0 0 1 2.0478170979066217 17.15611083661266"/>
<path d="M 2.0478170979066217 17.15611083661266 L 1.051232604899953 17.23869018208499"/>
<path d="M 2.428396276849373 12.563203180028818 A 14 14 0 0 1 4.279669304324598 8.342725786286028"/>
<path d="M 4.279669304324598 8.342725786286028 A 14 14 0 0 1 7.401022022344648 4.952032868450491"/>
<path d="M 7.401022022344648 4.952032868450491 A 14 14 0 0 1 11.454207431134428 2.758558616191115"/>
<path d="M 11.45420743113443 2.758558616191115 L 11.129507961929747 1.8127413744904803"/>
<path d="M 16.0 1.0 A 15 15 0 0 1 20.870492038070253 1.8127413744904803"/>
<path d="M 20.870492038070253 1.8127413744904803 A 15 15 0 0 1 25.213190690345016 4.162892359054094"/>
<path d="M 25.213190690345016 4.162892359054094 A 15 15 0 0 1 28.55749717393793 7.795777628163595"/>
<path d="M 30.541003989089955 12.317717692888012 A 15 15 0 0 1 30.94876739510005 17.238690182084984"/>
<path d="M 29.736599899825862 22.02543136979454 A 15 15 0 0 1 27.035858660096977 26.15922357438611"/>
<path d="M 27.035858660096977 26.15922357438611 A 15 15 0 0 1 23.139210895556104 29.192106268097334"/>
<path d="M 18.46891885421101 30.795419551040837 A 15 15 0 0 1 13.531081145788992 30.795419551040837"/>
<path d="M 8.860789104443898 29.192106268097334 A 15 15 0 0 1 4.964141339903026 26.159223574386118"/>
<path d="M 2.26340010017414 22.025431369794546 A 15 15 0 0 1 1.051232604899953 17.23869018208499"/>
<path d="M 1.051232604899953 17.23869018208499 A 15 15 0 0 1 1.4589960109100435 12.317717692888019"/>
<path d="M 1.4589960109100435 12.317717692888019 A 15 15 0 0 1 3.442502826062068 7.7957776281636"/>
<path d="M 3.442502826062068 7.7957776281636 A 15 15 0 0 1 6.786809309654979 4.162892359054098"/>
<path d="M 6.786809309654979 4.162892359054098 A 15 15 0 0 1 11.129507961929743 1.8127413744904803"/>
</svg>
</svg>
