<svg viewBox="0 0 32 32" xmlns="http://www.w3.org/2000/svg" style="background-color: #222;">

    <defs>
      <style>
        path {
          stroke: #006aff;
          stroke-width: 0.13016119872622445;
          stroke-linecap: round;
          fill: none;
        }
      </style>
    </defs>
    
<svg x="0" y="0">
<path d="M 16.0 15.0 L 16.0 14.0"/>
<path d="M 16.0 15.0 A 1 1 0 0 0 16.34202014332567 15.060307379214091"/>
<path d="M 16.34202014332567 15.060307379214091 A 1 1 0 0 1 16.64278760968654 15.233955556881021"/>
<path d="M 16,16 L 16.64278760968654,16.76604444311898"/>
<path d="M 16,16 L 16.64278760968654,15.233955556881021"/>
<path d="M 16,16 L 15.65797985667433,15.060307379214091"/>
<path d="M 16,16 L 15.35721239031346,15.233955556881021"/>
<path d="M 16,16 L 16.98480775301221,16.17364817766693"/>
<path d="M 16,16 L 16.0,17.0"/>
<path d="M 16,16 L 15.65797985667433,16.93969262078591"/>
<path d="M 15.65797985667433 15.060307379214091 L 15.315959713348661 14.120614758428184"/>
<path d="M 16.68404028665134 14.120614758428184 L 17.026060429977008 13.180922137642275"/>
<path d="M 16.866025403784437 15.5 L 17.73205080756888 15.0"/>
<path d="M 16.98480775301221 15.82635182233307 L 17.969615506024414 15.65270364466614"/>
<path d="M 16.866025403784437 16.5 A 1 1 0 0 0 16.64278760968654 16.76604444311898"/>
<path d="M 16.64278760968654 16.76604444311898 A 1 1 0 0 1 16.34202014332567 16.93969262078591"/>
<path d="M 15.35721239031346 16.76604444311898 L 14.71442478062692 17.532088886237958"/>
<path d="M 15.13397459621556 16.5 L 14.267949192431123 17.0"/>
<path d="M 15.015192246987791 16.17364817766693 L 14.030384493975584 16.34729635533386"/>
<path d="M 15.015192246987793 16.17364817766693 A 1 1 0 0 1 15.015192246987791 15.82635182233307"/>
<path d="M 15.13397459621556 15.5 L 14.267949192431123 15.0"/>
<path d="M 17.28557521937308 14.467911113762044 A 2 2 0 0 0 17.73205080756888 15.0"/>
<path d="M 17.28557521937308 14.467911113762044 L 17.92836282905962 13.701866670643067"/>
<path d="M 17.73205080756888 15.0 L 18.598076211353316 14.5"/>
<path d="M 17.73205080756888 15.0 A 2 2 0 0 1 17.969615506024414 15.65270364466614"/>
<path d="M 17.969615506024414 15.65270364466614 L 18.954423259036624 15.47905546699921"/>
<path d="M 17.969615506024414 15.65270364466614 A 2 2 0 0 0 17.969615506024414 16.34729635533386"/>
<path d="M 17.969615506024414 16.34729635533386 A 2 2 0 0 1 17.73205080756888 17.0"/>
<path d="M 17.73205080756888 17.0 L 18.598076211353316 17.5"/>
<path d="M 17.73205080756888 17.0 A 2 2 0 0 0 17.28557521937308 17.532088886237958"/>
<path d="M 16.68404028665134 17.879385241571818 A 2 2 0 0 0 16.0 18.0"/>
<path d="M 16.68404028665134 17.879385241571818 L 17.026060429977008 18.819077862357727"/>
<path d="M 15.315959713348663 17.879385241571818 A 2 2 0 0 0 14.71442478062692 17.532088886237958"/>
<path d="M 14.71442478062692 17.532088886237958 A 2 2 0 0 1 14.267949192431123 17.0"/>
<path d="M 14.267949192431123 17.0 L 13.401923788646684 17.5"/>
<path d="M 14.030384493975584 16.34729635533386 A 2 2 0 0 1 14.030384493975584 15.65270364466614"/>
<path d="M 14.030384493975584 15.65270364466614 L 13.045576740963376 15.47905546699921"/>
<path d="M 14.030384493975584 15.65270364466614 A 2 2 0 0 0 14.267949192431121 15.000000000000002"/>
<path d="M 14.71442478062692 14.467911113762044 A 2 2 0 0 0 15.315959713348661 14.120614758428184"/>
<path d="M 14.71442478062692 14.467911113762044 L 14.071637170940381 13.701866670643067"/>
<path d="M 15.315959713348661 14.120614758428184 L 14.973939570022992 13.180922137642275"/>
<path d="M 14.973939570022992 13.180922137642275 A 3 3 0 0 1 15.999999999999996 13.0"/>
<path d="M 16.0 13.0 L 16.0 12.0"/>
<path d="M 17.026060429977008 13.180922137642275 A 3 3 0 0 1 17.92836282905962 13.701866670643065"/>
<path d="M 18.598076211353316 14.5 L 19.464101615137753 14.0"/>
<path d="M 18.954423259036624 16.52094453300079 A 3 3 0 0 1 18.598076211353316 17.5"/>
<path d="M 18.598076211353316 17.5 A 3 3 0 0 0 17.92836282905962 18.298133329356933"/>
<path d="M 18.598076211353316 17.5 L 19.464101615137753 18.0"/>
<path d="M 17.92836282905962 18.298133329356933 A 3 3 0 0 1 17.026060429977008 18.819077862357723"/>
<path d="M 17.026060429977008 18.819077862357723 A 3 3 0 0 0 16.0 19.0"/>
<path d="M 16.0 19.0 L 16.0 20.0"/>
<path d="M 14.973939570022994 18.819077862357727 L 14.631919426697324 19.758770483143635"/>
<path d="M 14.071637170940381 18.298133329356933 L 13.428849561253843 19.06417777247591"/>
<path d="M 13.401923788646684 17.5 A 3 3 0 0 0 13.045576740963376 16.520944533000794"/>
<path d="M 13.401923788646684 17.5 L 12.535898384862247 18.0"/>
<path d="M 13.045576740963376 16.52094453300079 L 12.060768987951167 16.69459271066772"/>
<path d="M 13.045576740963376 15.47905546699921 A 3 3 0 0 0 13.401923788646684 14.500000000000002"/>
<path d="M 13.045576740963376 15.47905546699921 L 12.060768987951167 15.30540728933228"/>
<path d="M 13.401923788646684 14.5 A 3 3 0 0 1 14.071637170940381 13.701866670643067"/>
<path d="M 14.973939570022992 13.180922137642275 L 14.631919426697323 12.241229516856368"/>
<path d="M 17.368080573302674 12.241229516856366 A 4 4 0 0 1 18.57115043874616 12.935822227524088"/>
<path d="M 17.368080573302677 12.241229516856366 L 17.710100716628343 11.30153689607046"/>
<path d="M 18.57115043874616 12.935822227524088 L 19.2139380484327 12.16977778440511"/>
<path d="M 18.57115043874616 12.935822227524088 A 4 4 0 0 0 19.464101615137753 14.0"/>
<path d="M 19.464101615137753 14.0 A 4 4 0 0 1 19.939231012048833 15.305407289332278"/>
<path d="M 19.464101615137753 14.0 L 20.33012701892219 13.5"/>
<path d="M 19.939231012048833 15.305407289332278 A 4 4 0 0 0 19.939231012048833 16.69459271066772"/>
<path d="M 19.939231012048833 16.69459271066772 L 20.92403876506104 16.86824088833465"/>
<path d="M 19.464101615137753 18.0 L 20.330127018922195 18.5"/>
<path d="M 18.57115043874616 19.06417777247591 L 19.213938048432695 19.83022221559489"/>
<path d="M 17.368080573302677 19.758770483143632 A 4 4 0 0 0 16.0 20.0"/>
<path d="M 16.0 20.0 A 4 4 0 0 1 14.631919426697326 19.758770483143635"/>
<path d="M 16.0 20.0 L 16.0 21.0"/>
<path d="M 14.631919426697324 19.758770483143635 L 14.289899283371657 20.69846310392954"/>
<path d="M 13.428849561253843 19.06417777247591 L 12.786061951567303 19.83022221559489"/>
<path d="M 12.535898384862247 18.0 L 11.669872981077807 18.5"/>
<path d="M 12.060768987951167 16.69459271066772 A 4 4 0 0 1 12.060768987951167 15.30540728933228"/>
<path d="M 12.060768987951167 15.30540728933228 A 4 4 0 0 0 12.535898384862243 14.000000000000004"/>
<path d="M 12.060768987951167 15.30540728933228 L 11.075961234938958 15.13175911166535"/>
<path d="M 12.535898384862247 14.0 A 4 4 0 0 1 13.428849561253841 12.935822227524088"/>
<path d="M 14.631919426697323 12.241229516856368 L 14.289899283371653 11.30153689607046"/>
<path d="M 14.289899283371653 11.30153689607046 A 5 5 0 0 1 15.999999999999995 11.0"/>
<path d="M 19.2139380484327 12.16977778440511 L 19.856725658119238 11.403733341286133"/>
<path d="M 20.92403876506104 15.131759111665348 A 5 5 0 0 0 20.92403876506104 16.86824088833465"/>
<path d="M 20.92403876506104 15.131759111665348 L 21.908846518073247 14.958110933998418"/>
<path d="M 20.92403876506104 16.86824088833465 L 21.908846518073247 17.041889066001584"/>
<path d="M 20.330127018922195 18.5 L 21.196152422706632 19.0"/>
<path d="M 19.2139380484327 19.83022221559489 A 5 5 0 0 1 17.710100716628343 20.69846310392954"/>
<path d="M 17.710100716628343 20.69846310392954 A 5 5 0 0 0 16.0 21.0"/>
<path d="M 12.786061951567303 19.83022221559489 A 5 5 0 0 1 11.669872981077809 18.500000000000004"/>
<path d="M 11.07596123493896 16.86824088833465 A 5 5 0 0 1 11.075961234938958 15.13175911166535"/>
<path d="M 11.075961234938958 16.86824088833465 L 10.091153481926751 17.04188906600158"/>
<path d="M 11.075961234938958 15.13175911166535 L 10.091153481926751 14.95811093399842"/>
<path d="M 11.075961234938958 15.13175911166535 A 5 5 0 0 0 11.669872981077805 13.500000000000004"/>
<path d="M 11.669872981077807 13.5 L 10.803847577293368 13.0"/>
<path d="M 12.786061951567302 12.16977778440511 A 5 5 0 0 0 14.289899283371653 11.30153689607046"/>
<path d="M 13.947879140045984 10.36184427528455 A 6 6 0 0 1 15.999999999999993 10.0"/>
<path d="M 18.052120859954012 10.36184427528455 L 18.39414100327968 9.422151654498641"/>
<path d="M 19.856725658119238 11.403733341286133 L 20.499513267805774 10.637688898167156"/>
<path d="M 21.196152422706632 13.0 L 22.06217782649107 12.5"/>
<path d="M 21.908846518073247 17.041889066001584 L 22.893654271085456 17.215537243668514"/>
<path d="M 19.856725658119238 20.59626665871387 L 20.499513267805774 21.362311101832844"/>
<path d="M 19.856725658119238 20.596266658713866 A 6 6 0 0 1 18.052120859954012 21.63815572471545"/>
<path d="M 18.052120859954012 21.63815572471545 A 6 6 0 0 0 16.0 22.0"/>
<path d="M 18.052120859954012 21.63815572471545 L 18.39414100327968 22.57784834550136"/>
<path d="M 16.0 22.0 A 6 6 0 0 1 13.947879140045988 21.63815572471545"/>
<path d="M 13.947879140045988 21.63815572471545 A 6 6 0 0 0 12.143274341880765 20.59626665871387"/>
<path d="M 12.143274341880764 20.59626665871387 L 11.500486732194226 21.362311101832844"/>
<path d="M 12.143274341880765 20.59626665871387 A 6 6 0 0 1 10.80384757729337 19.000000000000004"/>
<path d="M 10.091153481926751 17.04188906600158 L 9.106345728914544 17.21553724366851"/>
<path d="M 10.803847577293368 13.0 L 9.93782217350893 12.5"/>
<path d="M 10.803847577293368 13.0 A 6 6 0 0 1 12.143274341880762 11.403733341286133"/>
<path d="M 12.143274341880762 11.403733341286133 A 6 6 0 0 0 13.947879140045984 10.36184427528455"/>
<path d="M 13.947879140045984 10.36184427528455 L 13.605858996720315 9.422151654498641"/>
<path d="M 16.0 9.0 A 7 7 0 0 0 18.39414100327968 9.422151654498641"/>
<path d="M 13.605858996720315 9.422151654498641 A 7 7 0 0 1 15.999999999999993 9.0"/>
<path d="M 16.0 9.0 L 16.0 8.0"/>
<path d="M 18.39414100327968 9.422151654498641 A 7 7 0 0 1 20.499513267805774 10.637688898167152"/>
<path d="M 20.499513267805774 10.637688898167152 A 7 7 0 0 0 22.06217782649107 12.5"/>
<path d="M 22.893654271085456 14.784462756331488 A 7 7 0 0 0 22.893654271085456 17.21553724366851"/>
<path d="M 22.893654271085456 17.215537243668514 L 23.878462024097665 17.389185421335444"/>
<path d="M 22.893654271085456 17.21553724366851 A 7 7 0 0 1 22.062177826491073 19.5"/>
<path d="M 16.0 23.0 A 7 7 0 0 1 13.605858996720318 22.57784834550136"/>
<path d="M 16.0 23.0 L 16.0 24.0"/>
<path d="M 13.605858996720318 22.57784834550136 L 13.263838853394649 23.517540966287267"/>
<path d="M 11.500486732194226 21.362311101832844 L 10.857699122507686 22.128355544951823"/>
<path d="M 9.93782217350893 19.500000000000004 A 7 7 0 0 0 9.106345728914544 17.215537243668518"/>
<path d="M 9.106345728914544 14.78446275633149 L 8.121537975902335 14.61081457866456"/>
<path d="M 9.93782217350893 12.5 L 9.071796769724491 12.0"/>
<path d="M 11.500486732194222 10.637688898167156 A 7 7 0 0 0 13.605858996720315 9.422151654498641"/>
<path d="M 16.0 8.0 A 8 8 0 0 0 18.73616114660535 8.482459033712733"/>
<path d="M 21.142300877492318 9.871644455048177 L 21.785088487178854 9.105600011929198"/>
<path d="M 22.928203230275507 12.0 A 8 8 0 0 1 23.878462024097665 14.610814578664556"/>
<path d="M 22.928203230275507 12.0 L 23.794228634059948 11.5"/>
<path d="M 23.878462024097665 17.389185421335444 L 24.86326977710987 17.562833599002374"/>
<path d="M 23.878462024097665 17.38918542133544 A 8 8 0 0 1 22.92820323027551 20.0"/>
<path d="M 22.92820323027551 20.0 A 8 8 0 0 0 21.142300877492318 22.128355544951823"/>
<path d="M 21.142300877492318 22.128355544951823 A 8 8 0 0 1 18.73616114660535 23.517540966287267"/>
<path d="M 18.73616114660535 23.517540966287267 L 19.07818128993102 24.457233587073176"/>
<path d="M 13.263838853394649 23.517540966287267 L 12.921818710068981 24.457233587073176"/>
<path d="M 10.857699122507686 22.128355544951823 L 10.214911512821146 22.894399988070802"/>
<path d="M 9.071796769724493 20.000000000000004 L 8.205771365940054 20.500000000000004"/>
<path d="M 8.121537975902335 17.389185421335444 A 8 8 0 0 1 8.121537975902335 14.61081457866456"/>
<path d="M 8.121537975902335 14.61081457866456 L 7.136730222890126 14.43716640099763"/>
<path d="M 9.071796769724491 12.0 L 8.205771365940052 11.5"/>
<path d="M 9.071796769724491 12.0 A 8 8 0 0 1 10.857699122507682 9.871644455048177"/>
<path d="M 10.857699122507684 9.871644455048177 L 10.214911512821145 9.105600011929198"/>
<path d="M 10.857699122507682 9.871644455048177 A 8 8 0 0 0 13.263838853394645 8.482459033712734"/>
<path d="M 13.263838853394645 8.482459033712734 L 12.921818710068976 7.5427664129268255"/>
<path d="M 16.0 7.0 A 9 9 0 0 0 19.078181289931017 7.542766412926824"/>
<path d="M 16.0 7.0 L 16.0 6.0"/>
<path d="M 19.07818128993102 7.5427664129268255 L 19.42020143325669 6.603073792140917"/>
<path d="M 21.785088487178854 9.105600011929198 A 9 9 0 0 0 23.794228634059948 11.5"/>
<path d="M 23.794228634059948 11.5 A 9 9 0 0 1 24.86326977710987 14.437166400997626"/>
<path d="M 24.86326977710987 14.437166400997626 A 9 9 0 0 0 24.86326977710987 17.562833599002374"/>
<path d="M 24.86326977710987 17.562833599002374 A 9 9 0 0 1 23.794228634059948 20.5"/>
<path d="M 24.86326977710987 17.562833599002374 L 25.84807753012208 17.736481776669304"/>
<path d="M 23.794228634059948 20.5 A 9 9 0 0 0 21.785088487178854 22.894399988070802"/>
<path d="M 19.07818128993102 24.457233587073176 A 9 9 0 0 0 16.0 25.0"/>
<path d="M 12.921818710068983 24.457233587073176 A 9 9 0 0 0 10.214911512821146 22.894399988070802"/>
<path d="M 10.214911512821146 22.894399988070802 A 9 9 0 0 1 8.205771365940056 20.500000000000004"/>
<path d="M 8.205771365940054 20.500000000000004 L 7.3397459621556145 21.000000000000004"/>
<path d="M 7.136730222890128 17.562833599002374 A 9 9 0 0 1 7.136730222890126 14.43716640099763"/>
<path d="M 7.136730222890126 14.43716640099763 L 6.151922469877919 14.2635182233307"/>
<path d="M 7.136730222890126 14.43716640099763 A 9 9 0 0 0 8.205771365940048 11.500000000000007"/>
<path d="M 12.579798566743307 6.603073792140918 A 10 10 0 0 1 15.99999999999999 6.0"/>
<path d="M 16.0 6.0 L 16.0 5.0"/>
<path d="M 19.420201433256686 6.603073792140915 A 10 10 0 0 1 22.427876096865393 8.33955556881022"/>
<path d="M 22.427876096865397 8.339555568810221 L 23.070663706551933 7.573511125691244"/>
<path d="M 24.660254037844386 11.0 A 10 10 0 0 1 25.84807753012208 14.263518223330696"/>
<path d="M 24.660254037844386 11.0 L 25.526279441628823 10.5"/>
<path d="M 25.84807753012208 14.263518223330697 L 26.83288528313429 14.089870045663767"/>
<path d="M 25.84807753012208 17.736481776669304 L 26.83288528313429 17.910129954336234"/>
<path d="M 24.66025403784439 21.0 A 10 10 0 0 0 22.427876096865397 23.66044443118978"/>
<path d="M 22.427876096865397 23.66044443118978 A 10 10 0 0 1 19.42020143325669 25.39692620785908"/>
<path d="M 19.42020143325669 25.39692620785908 A 10 10 0 0 0 16.0 26.0"/>
<path d="M 19.420201433256686 25.396926207859085 L 19.762221576582355 26.336618828644994"/>
<path d="M 16.0 26.0 L 16.0 27.0"/>
<path d="M 16.0 26.0 A 10 10 0 0 1 12.579798566743314 25.396926207859085"/>
<path d="M 9.572123903134607 23.66044443118978 L 8.929336293448067 24.42648887430876"/>
<path d="M 9.572123903134607 23.66044443118978 A 10 10 0 0 1 7.339745962155616 21.000000000000004"/>
<path d="M 7.339745962155616 21.000000000000004 A 10 10 0 0 0 6.1519224698779205 17.73648177666931"/>
<path d="M 7.3397459621556145 21.000000000000004 L 6.473720558371177 21.500000000000004"/>
<path d="M 6.1519224698779205 17.736481776669304 A 10 10 0 0 1 6.151922469877919 14.263518223330701"/>
<path d="M 6.151922469877919 14.2635182233307 L 5.167114716865711 14.089870045663769"/>
<path d="M 7.3397459621556145 11.0 L 6.473720558371175 10.5"/>
<path d="M 7.3397459621556145 11.0 A 10 10 0 0 1 9.572123903134603 8.339555568810221"/>
<path d="M 9.572123903134603 8.339555568810221 A 10 10 0 0 0 12.579798566743307 6.603073792140918"/>
<path d="M 16.0 5.0 L 16.0 4.0"/>
<path d="M 12.237778423417637 5.6633811713550095 A 11 11 0 0 1 15.999999999999988 5.0"/>
<path d="M 19.762221576582355 5.663381171355008 A 11 11 0 0 1 23.070663706551933 7.57351112569124"/>
<path d="M 19.76222157658236 5.663381171355008 L 20.104241719908025 4.723688550569101"/>
<path d="M 26.83288528313429 14.089870045663767 L 27.817693036146494 13.916221867996835"/>
<path d="M 26.83288528313429 14.089870045663766 A 11 11 0 0 0 26.83288528313429 17.910129954336234"/>
<path d="M 25.526279441628827 21.499999999999996 A 11 11 0 0 0 23.070663706551933 24.426488874308756"/>
<path d="M 23.070663706551933 24.42648887430876 L 23.713451316238473 25.19253331742774"/>
<path d="M 19.762221576582355 26.336618828644994 L 20.104241719908025 27.2763114494309"/>
<path d="M 12.237778423417645 26.336618828644994 A 11 11 0 0 0 8.929336293448069 24.42648887430876"/>
<path d="M 12.237778423417645 26.336618828644994 L 11.895758280091975 27.2763114494309"/>
<path d="M 5.167114716865711 17.910129954336234 A 11 11 0 0 1 5.167114716865711 14.08987004566377"/>
<path d="M 5.167114716865711 14.08987004566377 A 11 11 0 0 0 6.47372055837117 10.500000000000007"/>
<path d="M 5.167114716865711 14.089870045663769 L 4.182306963853502 13.916221867996839"/>
<path d="M 6.473720558371175 10.5 A 11 11 0 0 1 8.929336293448063 7.573511125691244"/>
<path d="M 8.929336293448067 7.573511125691244 L 8.286548683761527 6.807466682572265"/>
<path d="M 12.237778423417637 5.6633811713550095 L 11.895758280091968 4.723688550569101"/>
<path d="M 20.104241719908025 4.723688550569099 A 12 12 0 0 1 23.71345131623847 6.807466682572262"/>
<path d="M 26.392304845413264 9.999999999999998 L 27.2583302491977 9.499999999999998"/>
<path d="M 26.392304845413264 9.999999999999998 A 12 12 0 0 1 27.817693036146494 13.916221867996835"/>
<path d="M 27.817693036146494 18.083778132003165 A 12 12 0 0 1 26.392304845413264 21.999999999999996"/>
<path d="M 27.817693036146494 18.083778132003165 L 28.802500789158707 18.257426309670095"/>
<path d="M 23.713451316238473 25.192533317427735 A 12 12 0 0 1 20.104241719908025 27.2763114494309"/>
<path d="M 23.713451316238473 25.19253331742774 L 24.356238925925012 25.958577760546714"/>
<path d="M 20.104241719908025 27.2763114494309 A 12 12 0 0 0 16.0 28.0"/>
<path d="M 16.0 28.0 A 12 12 0 0 1 11.895758280091975 27.2763114494309"/>
<path d="M 11.895758280091975 27.2763114494309 L 11.553738136766306 28.216004070216812"/>
<path d="M 8.286548683761529 25.19253331742774 A 12 12 0 0 1 5.6076951545867395 22.000000000000007"/>
<path d="M 5.607695154586738 22.000000000000004 L 4.7416697508023 22.500000000000004"/>
<path d="M 4.182306963853504 18.083778132003165 A 12 12 0 0 1 4.182306963853502 13.91622186799684"/>
<path d="M 4.182306963853502 18.08377813200316 L 3.1974992108412934 18.25742630967009"/>
<path d="M 5.607695154586736 9.999999999999998 L 4.7416697508022985 9.499999999999998"/>
<path d="M 11.553738136766299 3.7839959297831935 A 13 13 0 0 1 15.999999999999986 3.0"/>
<path d="M 16.0 3.0 L 16.0 2.0"/>
<path d="M 20.446261863233694 3.78399592978319 A 13 13 0 0 1 24.356238925925012 6.041422239453285"/>
<path d="M 24.356238925925012 6.041422239453286 L 24.999026535611552 5.275377796334309"/>
<path d="M 27.2583302491977 9.499999999999998 A 13 13 0 0 1 28.802500789158707 13.742573690329905"/>
<path d="M 28.802500789158707 18.257426309670095 A 13 13 0 0 1 27.258330249197705 22.499999999999996"/>
<path d="M 28.802500789158707 18.257426309670095 L 29.787308542170912 18.431074487337025"/>
<path d="M 27.258330249197705 22.5 L 28.124355652982143 23.0"/>
<path d="M 27.258330249197705 22.499999999999996 A 13 13 0 0 0 24.356238925925012 25.958577760546714"/>
<path d="M 24.356238925925012 25.958577760546714 A 13 13 0 0 1 20.446261863233694 28.21600407021681"/>
<path d="M 20.446261863233694 28.21600407021681 A 13 13 0 0 0 16.0 29.0"/>
<path d="M 16.0 29.0 L 16.0 30.0"/>
<path d="M 11.553738136766308 28.216004070216812 A 13 13 0 0 0 7.643761074074989 25.958577760546717"/>
<path d="M 7.6437610740749875 25.958577760546714 L 7.00097346438845 26.724622203665692"/>
<path d="M 7.643761074074989 25.958577760546717 A 13 13 0 0 1 4.741669750802302 22.500000000000007"/>
<path d="M 3.1974992108412934 18.25742630967009 L 2.212691457829086 18.43107448733702"/>
<path d="M 3.1974992108412934 13.74257369032991 A 13 13 0 0 0 4.741669750802293 9.50000000000001"/>
<path d="M 4.7416697508022985 9.499999999999998 L 3.875644347017859 8.999999999999998"/>
<path d="M 4.7416697508022985 9.5 A 13 13 0 0 1 7.643761074074986 6.041422239453286"/>
<path d="M 7.643761074074986 6.041422239453286 A 13 13 0 0 0 11.553738136766299 3.7839959297831935"/>
<path d="M 11.553738136766299 3.7839959297831935 L 11.21171799344063 2.8443033089972847"/>
<path d="M 16.0 2.0 A 14 14 0 0 0 20.788282006559363 2.844303308997283"/>
<path d="M 24.999026535611552 5.275377796334309 L 25.641814145298092 4.509333353215332"/>
<path d="M 24.99902653561155 5.275377796334306 A 14 14 0 0 0 28.12435565298214 8.999999999999998"/>
<path d="M 28.12435565298214 8.999999999999998 L 28.99038105676658 8.499999999999998"/>
<path d="M 29.787308542170912 13.568925512662975 L 30.77211629518312 13.395277334996045"/>
<path d="M 29.787308542170912 18.431074487337025 L 30.77211629518312 18.604722665003955"/>
<path d="M 28.124355652982143 22.999999999999996 A 14 14 0 0 0 24.999026535611552 26.72462220366569"/>
<path d="M 24.99902653561155 26.724622203665692 L 25.641814145298092 27.490666646784668"/>
<path d="M 20.788282006559363 29.155696691002717 L 21.130302149885033 30.095389311788626"/>
<path d="M 11.211717993440638 29.155696691002717 A 14 14 0 0 0 7.000973464388451 26.724622203665696"/>
<path d="M 7.00097346438845 26.724622203665692 L 6.35818585470191 27.490666646784668"/>
<path d="M 3.875644347017861 23.000000000000004 L 3.0096189432334235 23.500000000000007"/>
<path d="M 3.8756443470178628 23.000000000000007 A 14 14 0 0 0 2.2126914578290897 18.431074487337035"/>
<path d="M 2.212691457829088 18.431074487337025 A 14 14 0 0 1 2.212691457829086 13.56892551266298"/>
<path d="M 2.212691457829086 18.43107448733702 L 1.227883704816879 18.604722665003955"/>
<path d="M 2.212691457829086 13.56892551266298 A 14 14 0 0 0 3.875644347017854 9.00000000000001"/>
<path d="M 2.212691457829086 13.568925512662979 L 1.227883704816879 13.395277334996049"/>
<path d="M 3.875644347017859 8.999999999999998 L 3.0096189432334217 8.499999999999998"/>
<path d="M 7.000973464388448 5.275377796334309 L 6.358185854701908 4.509333353215332"/>
<path d="M 11.21171799344063 2.8443033089972847 L 10.86969785011496 1.9046106882113776"/>
<path d="M 16.0 1.0 A 15 15 0 0 0 21.130302149885033 1.904610688211374"/>
<path d="M 10.86969785011496 1.9046106882113776 A 15 15 0 0 1 15.999999999999982 1.0"/>
<path d="M 21.130302149885033 1.904610688211374 A 15 15 0 0 1 25.64181414529809 4.509333353215329"/>
<path d="M 28.99038105676658 8.499999999999998 A 15 15 0 0 1 30.77211629518312 13.395277334996043"/>
<path d="M 30.77211629518312 18.604722665003955 A 15 15 0 0 1 28.99038105676658 23.499999999999996"/>
<path d="M 25.641814145298092 27.490666646784668 A 15 15 0 0 1 21.130302149885033 30.095389311788622"/>
<path d="M 21.130302149885033 30.095389311788622 A 15 15 0 0 0 16.000000000000004 31.0"/>
<path d="M 10.86969785011497 30.095389311788626 A 15 15 0 0 0 6.358185854701912 27.49066664678467"/>
<path d="M 6.358185854701906 4.509333353215332 A 15 15 0 0 0 10.86969785011496 1.9046106882113776"/>
</svg>
</svg>
