<svg viewBox="0 0 14 14" xmlns="http://www.w3.org/2000/svg" style="background-color: #222;">

    <defs>
      <style>
        path {
          stroke: #006aff;
          stroke-width: 0.17305172343037487;
          stroke-linecap: round;
          fill: none;
        }
      </style>
    </defs>
    
<svg x="0" y="0">
<path d="M 7.0 6.0 L 7.78183148246803 6.376510198141267"/>
<path d="M 7.78183148246803 6.376510198141267 L 8.56366296493606 5.753020396282533"/>
<path d="M 7,7 L 6.21816851753197,6.376510198141267"/>
<path d="M 7,7 L 6.566116260882442,7.900968867902419"/>
<path d="M 6.21816851753197 6.376510198141267 L 6.0250720878181765 7.222520933956314"/>
<path d="M 7.0 5.0 L 8.56366296493606 5.753020396282533"/>
<path d="M 7.9749279121818235 7.222520933956314 L 8.949855824363647 7.445041867912629"/>
<path d="M 7.9749279121818235 7.222520933956314 L 7.433883739117558 7.900968867902419"/>
<path d="M 8.56366296493606 5.753020396282533 L 8.949855824363647 7.445041867912629"/>
<path d="M 8.56366296493606 5.753020396282533 L 9.34549444740409 5.1295305944238"/>
<path d="M 7.433883739117558 7.900968867902419 L 7.867767478235116 8.801937735804838"/>
<path d="M 6.566116260882442 7.900968867902419 L 6.132232521764884 8.801937735804838"/>
<path d="M 7.867767478235116 8.801937735804838 L 8.301651217352674 9.702906603707257"/>
<path d="M 6.132232521764884 8.801937735804838 L 5.050144175636353 7.445041867912629"/>
<path d="M 6.132232521764884 8.801937735804838 L 5.698348782647326 9.702906603707257"/>
<path d="M 5.43633703506394 5.753020396282533 L 4.654505552595911 5.1295305944238"/>
<path d="M 7.0 4.0 L 4.654505552595911 5.1295305944238"/>
<path d="M 7.0 4.0 L 9.34549444740409 5.1295305944238"/>
<path d="M 9.34549444740409 5.1295305944238 L 10.12732592987212 4.5060407925650665"/>
<path d="M 9.924783736545471 7.667562801868943 L 10.899711648727294 7.890083735825257"/>
<path d="M 8.301651217352674 9.702906603707257 L 8.735534956470232 10.603875471609676"/>
<path d="M 5.698348782647326 9.702906603707257 L 5.264465043529768 10.603875471609676"/>
<path d="M 4.075216263454529 7.667562801868943 L 4.654505552595911 5.1295305944238"/>
<path d="M 4.654505552595911 5.1295305944238 L 3.8726740701278803 4.5060407925650665"/>
<path d="M 7.000000000000001 3.0 L 7.000000000000001 2.0"/>
<path d="M 10.12732592987212 4.5060407925650665 L 10.90915741234015 3.882550990706333"/>
<path d="M 10.899711648727294 7.890083735825257 L 8.735534956470232 10.603875471609676"/>
<path d="M 8.735534956470232 10.603875471609676 L 9.16941869558779 11.504844339512097"/>
<path d="M 5.264465043529768 10.603875471609676 L 4.83058130441221 11.504844339512097"/>
<path d="M 3.1002883512727055 7.890083735825257 L 2.1253604390908816 8.112604669781572"/>
<path d="M 7.000000000000001 2.0 L 7.000000000000001 1.0"/>
<path d="M 7.000000000000001 2.0 L 3.0908425876598504 3.882550990706333"/>
<path d="M 11.874639560909118 8.112604669781572 L 12.849567473090943 8.335125603737886"/>
<path d="M 9.16941869558779 11.504844339512097 L 4.83058130441221 11.504844339512097"/>
<path d="M 9.16941869558779 11.504844339512097 L 9.603302434705348 12.405813207414514"/>
<path d="M 4.83058130441221 11.504844339512097 L 2.1253604390908816 8.112604669781572"/>
<path d="M 4.83058130441221 11.504844339512097 L 4.396697565294652 12.405813207414514"/>
<path d="M 3.0908425876598504 3.882550990706333 L 2.3090111051918205 3.2590611888475998"/>
<path d="M 7.000000000000001 1.0 L 11.690988894808179 3.2590611888475998"/>
<path d="M 11.690988894808179 3.2590611888475998 L 12.849567473090943 8.335125603737886"/>
<path d="M 12.849567473090943 8.335125603737886 L 9.603302434705348 12.405813207414514"/>
<path d="M 4.396697565294652 12.405813207414514 L 1.150432526909058 8.335125603737886"/>
</svg>
</svg>
