<svg viewBox="0 0 32 32" xmlns="http://www.w3.org/2000/svg" style="background-color: #222;">

    <defs>
      <style>
        path {
          stroke: #3624ff;
          stroke-width: 0.30665461539794475;
          stroke-linecap: round;
          fill: none;
        }
      </style>
    </defs>
    
<svg x="0" y="0">
<path d="M 16,16 L 16.0,15.0"/>
<path d="M 16,16 L 16.5,15.13397459621556"/>
<path d="M 16.5 15.13397459621556 L 17.0 14.267949192431123"/>
<path d="M 16.5 15.13397459621556 L 16.866025403784437 15.5"/>
<path d="M 16,16 L 15.5,15.13397459621556"/>
<path d="M 16.0 14.0 L 16.0 13.0"/>
<path d="M 16.0 14.0 L 15.0 14.267949192431123"/>
<path d="M 17.0 14.267949192431123 L 17.73205080756888 15.0"/>
<path d="M 17.0 14.267949192431123 L 17.5 13.401923788646684"/>
<path d="M 17.0 16.0 L 18.0 16.0"/>
<path d="M 16.866025403784437 16.5 L 17.73205080756888 17.0"/>
<path d="M 16.5 16.866025403784437 L 17.0 17.73205080756888"/>
<path d="M 16.0 17.0 L 16.0 18.0"/>
<path d="M 15.5 16.866025403784437 L 15.13397459621556 16.5"/>
<path d="M 15.13397459621556 16.5 L 14.267949192431123 17.0"/>
<path d="M 15.0 16.0 L 15.13397459621556 15.5"/>
<path d="M 15.0 16.0 L 14.0 16.0"/>
<path d="M 17.73205080756888 15.0 L 18.598076211353316 14.5"/>
<path d="M 17.73205080756888 15.0 L 18.0 16.0"/>
<path d="M 18.0 16.0 L 17.73205080756888 17.0"/>
<path d="M 17.73205080756888 17.0 L 17.0 17.73205080756888"/>
<path d="M 17.73205080756888 17.0 L 18.598076211353316 17.5"/>
<path d="M 17.0 17.73205080756888 L 17.5 18.598076211353316"/>
<path d="M 17.0 17.73205080756888 L 16.0 18.0"/>
<path d="M 16.0 18.0 L 15.0 17.73205080756888"/>
<path d="M 15.0 17.73205080756888 L 14.5 18.598076211353316"/>
<path d="M 15.0 17.73205080756888 L 14.267949192431123 17.0"/>
<path d="M 14.0 16.0 L 13.0 16.0"/>
<path d="M 14.0 16.0 L 14.267949192431123 15.0"/>
<path d="M 14.267949192431123 15.0 L 15.0 14.267949192431123"/>
<path d="M 14.267949192431123 15.0 L 13.401923788646684 14.5"/>
<path d="M 16.0 13.0 L 17.5 13.401923788646684"/>
<path d="M 16.0 13.0 L 16.0 12.0"/>
<path d="M 19.0 16.0 L 20.0 16.0"/>
<path d="M 18.598076211353316 17.5 L 19.464101615137753 18.0"/>
<path d="M 17.5 18.598076211353316 L 16.0 19.0"/>
<path d="M 13.401923788646684 17.5 L 13.0 16.0"/>
<path d="M 13.401923788646684 14.5 L 12.535898384862247 14.0"/>
<path d="M 14.5 13.401923788646684 L 13.999999999999998 12.535898384862247"/>
<path d="M 16.0 12.0 L 18.0 12.535898384862245"/>
<path d="M 19.464101615137753 14.0 L 20.33012701892219 13.5"/>
<path d="M 20.0 16.0 L 19.464101615137753 18.0"/>
<path d="M 18.0 19.464101615137753 L 18.5 20.330127018922195"/>
<path d="M 16.0 20.0 L 14.0 19.464101615137753"/>
<path d="M 14.0 19.464101615137753 L 12.535898384862247 18.0"/>
<path d="M 14.0 19.464101615137753 L 13.5 20.33012701892219"/>
<path d="M 12.535898384862247 18.0 L 12.0 16.0"/>
<path d="M 12.0 16.0 L 11.0 16.0"/>
<path d="M 12.535898384862247 14.0 L 13.999999999999998 12.535898384862247"/>
<path d="M 12.535898384862247 14.0 L 11.669872981077807 13.5"/>
<path d="M 16.0 11.0 L 13.499999999999998 11.669872981077807"/>
<path d="M 18.5 11.669872981077805 L 19.0 10.803847577293368"/>
<path d="M 18.5 11.669872981077805 L 20.33012701892219 13.5"/>
<path d="M 20.33012701892219 13.5 L 21.196152422706632 13.0"/>
<path d="M 21.0 16.0 L 22.0 16.0"/>
<path d="M 20.330127018922195 18.5 L 18.5 20.330127018922195"/>
<path d="M 20.330127018922195 18.5 L 21.196152422706632 19.0"/>
<path d="M 16.0 21.0 L 16.0 22.0"/>
<path d="M 13.5 20.33012701892219 L 12.999999999999998 21.196152422706632"/>
<path d="M 11.669872981077807 18.5 L 10.803847577293368 19.0"/>
<path d="M 11.0 16.0 L 11.669872981077807 13.5"/>
<path d="M 11.669872981077807 13.5 L 10.803847577293368 13.0"/>
<path d="M 11.669872981077807 13.5 L 13.499999999999998 11.669872981077807"/>
<path d="M 13.499999999999998 11.669872981077807 L 12.999999999999998 10.803847577293368"/>
<path d="M 16.0 10.0 L 12.999999999999998 10.803847577293368"/>
<path d="M 21.196152422706632 13.0 L 22.0 16.0"/>
<path d="M 21.196152422706632 13.0 L 22.06217782649107 12.5"/>
<path d="M 22.0 16.0 L 23.0 16.0"/>
<path d="M 22.0 16.0 L 21.196152422706632 19.0"/>
<path d="M 21.196152422706632 19.0 L 19.0 21.196152422706632"/>
<path d="M 21.196152422706632 19.0 L 22.062177826491073 19.5"/>
<path d="M 19.0 21.196152422706632 L 19.5 22.062177826491073"/>
<path d="M 16.0 22.0 L 12.999999999999998 21.196152422706632"/>
<path d="M 16.0 22.0 L 16.0 23.0"/>
<path d="M 12.999999999999998 21.196152422706632 L 10.803847577293368 19.0"/>
<path d="M 10.0 16.0 L 10.803847577293368 13.0"/>
<path d="M 10.803847577293368 13.0 L 9.93782217350893 12.5"/>
<path d="M 16.0 9.0 L 16.0 8.0"/>
<path d="M 16.0 9.0 L 19.5 9.937822173508929"/>
<path d="M 16.0 9.0 L 12.499999999999998 9.93782217350893"/>
<path d="M 19.5 9.937822173508929 L 20.0 9.07179676972449"/>
<path d="M 22.06217782649107 12.5 L 22.928203230275507 12.0"/>
<path d="M 23.0 16.0 L 24.0 16.0"/>
<path d="M 19.5 22.062177826491073 L 16.0 23.0"/>
<path d="M 16.0 23.0 L 16.0 24.0"/>
<path d="M 12.499999999999998 22.06217782649107 L 11.999999999999998 22.928203230275507"/>
<path d="M 9.93782217350893 19.500000000000004 L 9.0 16.0"/>
<path d="M 9.0 16.0 L 8.0 16.0"/>
<path d="M 9.0 16.0 L 9.93782217350893 12.5"/>
<path d="M 9.93782217350893 12.5 L 12.499999999999998 9.93782217350893"/>
<path d="M 9.93782217350893 12.5 L 9.071796769724491 12.0"/>
<path d="M 12.499999999999998 9.93782217350893 L 11.999999999999996 9.071796769724493"/>
<path d="M 16.0 8.0 L 16.0 7.0"/>
<path d="M 20.0 9.07179676972449 L 20.5 8.205771365940052"/>
<path d="M 24.0 16.0 L 22.92820323027551 20.0"/>
<path d="M 22.92820323027551 20.0 L 23.794228634059948 20.5"/>
<path d="M 20.0 22.92820323027551 L 20.5 23.794228634059948"/>
<path d="M 16.0 24.0 L 11.999999999999998 22.928203230275507"/>
<path d="M 16.0 24.0 L 16.0 25.0"/>
<path d="M 9.071796769724493 20.000000000000004 L 8.205771365940054 20.500000000000004"/>
<path d="M 8.0 16.0 L 7.0 16.0"/>
<path d="M 9.071796769724491 12.0 L 8.205771365940052 11.5"/>
<path d="M 16.0 7.0 L 11.499999999999996 8.205771365940054"/>
<path d="M 20.5 8.205771365940052 L 21.0 7.339745962155613"/>
<path d="M 23.794228634059948 11.5 L 24.660254037844386 11.0"/>
<path d="M 25.0 16.0 L 23.794228634059948 20.5"/>
<path d="M 20.5 23.794228634059948 L 16.0 25.0"/>
<path d="M 16.0 25.0 L 11.499999999999998 23.794228634059948"/>
<path d="M 11.499999999999998 23.794228634059948 L 8.205771365940054 20.500000000000004"/>
<path d="M 8.205771365940054 20.500000000000004 L 7.3397459621556145 21.000000000000004"/>
<path d="M 16.0 6.0 L 21.0 7.339745962155613"/>
<path d="M 16.0 6.0 L 10.999999999999996 7.3397459621556145"/>
<path d="M 24.660254037844386 11.0 L 26.0 16.0"/>
<path d="M 26.0 16.0 L 24.66025403784439 21.0"/>
<path d="M 26.0 16.0 L 27.0 16.0"/>
<path d="M 24.66025403784439 21.0 L 25.526279441628827 21.5"/>
<path d="M 24.66025403784439 21.0 L 21.0 24.66025403784439"/>
<path d="M 16.0 26.0 L 16.0 27.0"/>
<path d="M 10.999999999999998 24.660254037844386 L 10.499999999999996 25.526279441628823"/>
<path d="M 7.3397459621556145 21.000000000000004 L 6.473720558371177 21.500000000000004"/>
<path d="M 7.3397459621556145 21.000000000000004 L 6.0 16.0"/>
<path d="M 6.0 16.0 L 7.3397459621556145 11.0"/>
<path d="M 7.3397459621556145 11.0 L 6.473720558371175 10.5"/>
<path d="M 16.0 5.0 L 16.0 4.0"/>
<path d="M 16.0 5.0 L 10.499999999999996 6.473720558371177"/>
<path d="M 21.5 6.473720558371173 L 25.526279441628823 10.5"/>
<path d="M 25.526279441628823 10.5 L 27.0 16.0"/>
<path d="M 25.526279441628827 21.5 L 26.392304845413264 22.0"/>
<path d="M 25.526279441628827 21.5 L 21.5 25.526279441628827"/>
<path d="M 16.0 27.0 L 16.0 28.0"/>
<path d="M 16.0 27.0 L 10.499999999999996 25.526279441628823"/>
<path d="M 10.499999999999996 25.526279441628823 L 6.473720558371177 21.500000000000004"/>
<path d="M 10.499999999999996 25.526279441628823 L 9.999999999999996 26.392304845413264"/>
<path d="M 6.473720558371177 21.500000000000004 L 5.607695154586738 22.000000000000004"/>
<path d="M 5.0 16.0 L 4.0 16.0"/>
<path d="M 5.0 16.0 L 6.473720558371175 10.5"/>
<path d="M 6.473720558371175 10.5 L 10.499999999999996 6.473720558371177"/>
<path d="M 6.473720558371175 10.5 L 5.607695154586736 9.999999999999998"/>
<path d="M 22.0 5.607695154586736 L 22.5 4.741669750802297"/>
<path d="M 26.392304845413264 9.999999999999998 L 28.0 16.0"/>
<path d="M 28.0 16.0 L 29.0 16.0"/>
<path d="M 26.392304845413264 22.0 L 22.0 26.392304845413264"/>
<path d="M 22.0 26.392304845413264 L 22.5 27.258330249197705"/>
<path d="M 16.0 28.0 L 16.0 29.0"/>
<path d="M 5.607695154586738 22.000000000000004 L 4.7416697508023 22.500000000000004"/>
<path d="M 5.607695154586736 9.999999999999998 L 4.7416697508022985 9.499999999999998"/>
<path d="M 5.607695154586736 9.999999999999998 L 9.999999999999996 5.607695154586738"/>
<path d="M 9.999999999999996 5.607695154586738 L 9.499999999999996 4.7416697508023"/>
<path d="M 16.0 3.0 L 16.0 2.0"/>
<path d="M 16.0 3.0 L 22.5 4.741669750802297"/>
<path d="M 22.5 4.741669750802297 L 27.2583302491977 9.499999999999998"/>
<path d="M 27.2583302491977 9.499999999999998 L 28.12435565298214 8.999999999999998"/>
<path d="M 27.2583302491977 9.499999999999998 L 29.0 16.0"/>
<path d="M 27.258330249197705 22.5 L 28.124355652982143 23.0"/>
<path d="M 22.5 27.258330249197705 L 22.999999999999996 28.124355652982143"/>
<path d="M 16.0 29.0 L 16.0 30.0"/>
<path d="M 9.499999999999996 27.258330249197698 L 4.7416697508023 22.500000000000004"/>
<path d="M 9.499999999999996 27.258330249197698 L 8.999999999999996 28.12435565298214"/>
<path d="M 3.0 16.0 L 2.0 16.0"/>
<path d="M 9.499999999999996 4.7416697508023 L 8.999999999999996 3.875644347017861"/>
<path d="M 16.0 2.0 L 23.0 3.8756443470178574"/>
<path d="M 16.0 2.0 L 8.999999999999996 3.875644347017861"/>
<path d="M 23.0 3.8756443470178574 L 23.5 3.00961894323342"/>
<path d="M 28.12435565298214 8.999999999999998 L 30.0 16.0"/>
<path d="M 28.12435565298214 8.999999999999998 L 28.99038105676658 8.499999999999998"/>
<path d="M 30.0 16.0 L 31.0 16.0"/>
<path d="M 30.0 16.0 L 28.124355652982143 23.0"/>
<path d="M 28.124355652982143 23.0 L 22.999999999999996 28.124355652982143"/>
<path d="M 28.124355652982143 23.0 L 28.99038105676658 23.5"/>
<path d="M 16.0 30.0 L 16.0 31.0"/>
<path d="M 8.999999999999996 28.12435565298214 L 8.499999999999996 28.990381056766577"/>
<path d="M 3.875644347017861 23.000000000000004 L 2.0 16.0"/>
<path d="M 2.0 16.0 L 1.0 16.0"/>
<path d="M 3.875644347017859 8.999999999999998 L 3.0096189432334217 8.499999999999998"/>
<path d="M 16.000000000000004 1.0 L 8.499999999999995 3.0096189432334235"/>
<path d="M 28.99038105676658 23.5 L 23.499999999999996 28.99038105676658"/>
<path d="M 8.499999999999996 28.990381056766577 L 3.0096189432334235 23.500000000000007"/>
<path d="M 3.0096189432334235 23.500000000000007 L 1.0 16.0"/>
<path d="M 1.0 16.0 L 3.0096189432334217 8.499999999999998"/>
<path d="M 3.0096189432334217 8.499999999999998 L 8.499999999999995 3.0096189432334235"/>
</svg>
</svg>
