<svg viewBox="0 0 12 12" xmlns="http://www.w3.org/2000/svg" style="background-color: #222;">

    <defs>
      <style>
        path {
          stroke: #006aff;
          stroke-width: 0.04673309661213039;
          stroke-linecap: round;
          fill: none;
        }
      </style>
    </defs>
    
<svg x="0" y="0">
<path d="M 6.0 5.0 L 6.0 4.0"/>
<path d="M 6.587785252292473 5.1909830056250525 L 7.175570504584947 4.381966011250105"/>
<path d="M 6,6 L 6.587785252292473,5.1909830056250525"/>
<path d="M 6,6 L 5.412214747707527,5.1909830056250525"/>
<path d="M 6,6 L 5.048943483704846,6.3090169943749475"/>
<path d="M 5.412214747707527 5.1909830056250525 L 4.824429495415053 4.381966011250105"/>
<path d="M 4.824429495415053 4.381966011250105 A 2 2 0 0 1 5.999999999999999 4.0"/>
<path d="M 6.0 4.0 L 6.0 3.0"/>
<path d="M 6.951056516295154 5.6909830056250525 A 1 1 0 0 1 6.951056516295154 6.3090169943749475"/>
<path d="M 6.951056516295154 5.6909830056250525 L 7.902113032590307 5.381966011250105"/>
<path d="M 6.951056516295154 6.3090169943749475 L 7.902113032590307 6.618033988749895"/>
<path d="M 6.951056516295154 6.3090169943749475 A 1 1 0 0 1 6.587785252292473 6.8090169943749475"/>
<path d="M 6.0 7.0 L 6.0 8.0"/>
<path d="M 5.412214747707527 6.8090169943749475 L 4.824429495415053 7.618033988749895"/>
<path d="M 5.048943483704846 6.3090169943749475 A 1 1 0 0 1 5.048943483704846 5.6909830056250525"/>
<path d="M 5.048943483704846 6.3090169943749475 L 4.097886967409693 6.618033988749895"/>
<path d="M 7.902113032590307 5.381966011250105 L 8.853169548885461 5.072949016875158"/>
<path d="M 7.175570504584947 7.618033988749895 A 2 2 0 0 1 6.0 8.0"/>
<path d="M 6.0 8.0 L 6.0 9.0"/>
<path d="M 4.824429495415054 7.618033988749895 A 2 2 0 0 1 4.097886967409693 6.618033988749895"/>
<path d="M 4.097886967409693 6.618033988749895 L 3.1468304511145395 6.927050983124842"/>
<path d="M 4.097886967409693 5.381966011250105 A 2 2 0 0 1 4.824429495415053 4.381966011250105"/>
<path d="M 7.76335575687742 3.572949016875158 L 8.351141009169893 2.7639320225002106"/>
<path d="M 7.763355756877419 3.5729490168751576 A 3 3 0 0 1 8.853169548885461 5.072949016875158"/>
<path d="M 8.853169548885461 6.927050983124842 A 3 3 0 0 1 7.76335575687742 8.427050983124841"/>
<path d="M 7.763355756877419 8.427050983124843 L 8.351141009169893 9.23606797749979"/>
<path d="M 6.0 9.0 A 3 3 0 0 1 4.236644243122581 8.427050983124843"/>
<path d="M 6.0 9.0 L 6.0 10.0"/>
<path d="M 4.236644243122581 8.427050983124843 A 3 3 0 0 1 3.1468304511145395 6.927050983124842"/>
<path d="M 4.236644243122581 8.427050983124843 L 3.6488589908301075 9.23606797749979"/>
<path d="M 3.1468304511145395 6.927050983124842 A 3 3 0 0 1 3.146830451114539 5.0729490168751585"/>
<path d="M 3.146830451114539 5.072949016875158 L 2.1957739348193854 4.76393202250021"/>
<path d="M 4.23664424312258 3.572949016875158 L 3.648858990830107 2.7639320225002106"/>
<path d="M 3.648858990830107 2.7639320225002106 A 4 4 0 0 1 5.999999999999999 2.0"/>
<path d="M 8.351141009169893 2.76393202250021 A 4 4 0 0 1 9.804226065180615 4.76393202250021"/>
<path d="M 9.804226065180615 4.76393202250021 A 4 4 0 0 1 9.804226065180615 7.23606797749979"/>
<path d="M 9.804226065180615 7.23606797749979 A 4 4 0 0 1 8.351141009169893 9.23606797749979"/>
<path d="M 9.804226065180615 7.23606797749979 L 10.755282581475768 7.545084971874737"/>
<path d="M 3.648858990830108 9.23606797749979 A 4 4 0 0 1 2.195773934819386 7.23606797749979"/>
<path d="M 3.6488589908301075 9.23606797749979 L 3.061073738537634 10.045084971874736"/>
<path d="M 2.1957739348193854 4.76393202250021 L 1.2447174185242318 4.454915028125264"/>
<path d="M 2.1957739348193854 4.763932022500211 A 4 4 0 0 1 3.648858990830107 2.7639320225002106"/>
<path d="M 3.648858990830107 2.7639320225002106 L 3.0610737385376336 1.9549150281252636"/>
<path d="M 6.0 1.0 A 5 5 0 0 1 8.938926261462367 1.9549150281252627"/>
<path d="M 3.0610737385376336 1.9549150281252636 A 5 5 0 0 1 5.999999999999999 1.0"/>
<path d="M 8.938926261462367 1.9549150281252627 A 5 5 0 0 1 10.755282581475768 4.454915028125263"/>
<path d="M 10.755282581475768 4.454915028125263 A 5 5 0 0 1 10.755282581475768 7.545084971874736"/>
<path d="M 8.938926261462367 10.045084971874736 A 5 5 0 0 1 6.000000000000001 11.0"/>
<path d="M 6.000000000000001 11.0 A 5 5 0 0 1 3.061073738537635 10.045084971874736"/>
<path d="M 3.061073738537635 10.045084971874736 A 5 5 0 0 1 1.2447174185242327 7.545084971874738"/>
</svg>
</svg>
