<svg viewBox="0 0 16 16" xmlns="http://www.w3.org/2000/svg" style="background-color: #222;">

    <defs>
      <style>
        path {
          stroke: #006aff;
          stroke-width: 0.11851497226257218;
          stroke-linecap: round;
          fill: none;
        }
      </style>
    </defs>
    
<svg x="0" y="0">
<path d="M 8.0 7.0 L 8.309016994374948 7.048943483704846"/>
<path d="M 8.309016994374948 7.048943483704846 L 8.587785252292473 7.1909830056250525"/>
<path d="M 7.6909830056250525 7.048943483704846 L 7.381966011250105 6.097886967409693"/>
<path d="M 8.0 6.0 L 8.0 5.0"/>
<path d="M 8.0 6.0 L 8.618033988749895 6.097886967409693"/>
<path d="M 8.0 6.0 L 7.381966011250105 6.097886967409693"/>
<path d="M 8.587785252292473 7.1909830056250525 L 9.175570504584947 6.381966011250105"/>
<path d="M 8.618033988749895 6.097886967409693 L 9.175570504584947 6.381966011250105"/>
<path d="M 8.809016994374947 7.412214747707527 L 9.618033988749895 6.824429495415054"/>
<path d="M 8.951056516295154 7.6909830056250525 L 9.902113032590307 7.381966011250105"/>
<path d="M 9.618033988749895 6.824429495415054 L 10.427050983124843 6.236644243122581"/>
<path d="M 9.0 8.0 L 8.951056516295154 8.309016994374947"/>
<path d="M 9.902113032590307 7.381966011250105 L 10.0 8.0"/>
<path d="M 8.951056516295154 8.309016994374947 L 9.902113032590307 8.618033988749895"/>
<path d="M 10.0 8.0 L 11.0 8.0"/>
<path d="M 8.809016994374947 8.587785252292473 L 9.618033988749895 9.175570504584947"/>
<path d="M 8.809016994374947 8.587785252292473 L 8.587785252292473 8.809016994374947"/>
<path d="M 9.902113032590307 8.618033988749895 L 10.853169548885461 8.927050983124843"/>
<path d="M 9.618033988749895 9.175570504584947 L 9.175570504584947 9.618033988749895"/>
<path d="M 8.309016994374947 8.951056516295154 L 8.618033988749895 9.902113032590307"/>
<path d="M 9.175570504584947 9.618033988749895 L 9.76335575687742 10.427050983124843"/>
<path d="M 9.175570504584947 9.618033988749895 L 8.618033988749895 9.902113032590307"/>
<path d="M 8.0 9.0 L 8.0 10.0"/>
<path d="M 8.618033988749895 9.902113032590307 L 8.0 10.0"/>
<path d="M 7.6909830056250525 8.951056516295154 L 7.381966011250104 9.902113032590307"/>
<path d="M 8.0 10.0 L 7.381966011250104 9.902113032590307"/>
<path d="M 7.412214747707527 8.809016994374947 L 7.1909830056250525 8.587785252292473"/>
<path d="M 7.381966011250104 9.902113032590307 L 6.824429495415053 9.618033988749895"/>
<path d="M 7.1909830056250525 8.587785252292473 L 6.381966011250105 9.175570504584947"/>
<path d="M 6.824429495415053 9.618033988749895 L 6.381966011250105 9.175570504584947"/>
<path d="M 7.048943483704846 8.309016994374947 L 7.0 8.0"/>
<path d="M 7.048943483704846 8.309016994374947 L 6.097886967409693 8.618033988749895"/>
<path d="M 6.381966011250105 9.175570504584947 L 6.097886967409693 8.618033988749895"/>
<path d="M 6.097886967409693 8.618033988749895 L 6.0 8.0"/>
<path d="M 7.048943483704846 7.6909830056250525 L 6.097886967409693 7.381966011250105"/>
<path d="M 6.0 8.0 L 5.0 8.0"/>
<path d="M 7.1909830056250525 7.412214747707527 L 6.381966011250105 6.824429495415054"/>
<path d="M 6.097886967409693 7.381966011250105 L 5.146830451114539 7.072949016875158"/>
<path d="M 6.097886967409693 7.381966011250105 L 6.381966011250105 6.824429495415054"/>
<path d="M 7.412214747707527 7.1909830056250525 L 6.824429495415053 6.381966011250105"/>
<path d="M 6.381966011250105 6.824429495415054 L 5.572949016875158 6.236644243122581"/>
<path d="M 6.824429495415053 6.381966011250105 L 6.23664424312258 5.5729490168751585"/>
<path d="M 7.381966011250105 6.097886967409693 L 7.072949016875158 5.146830451114539"/>
<path d="M 8.0 5.0 L 8.0 4.0"/>
<path d="M 8.927050983124843 5.146830451114539 L 9.76335575687742 5.5729490168751585"/>
<path d="M 8.927050983124843 5.146830451114539 L 9.23606797749979 4.195773934819385"/>
<path d="M 10.427050983124843 6.236644243122581 L 11.23606797749979 5.648858990830108"/>
<path d="M 10.853169548885461 7.072949016875158 L 11.0 8.0"/>
<path d="M 10.853169548885461 7.072949016875158 L 11.804226065180615 6.76393202250021"/>
<path d="M 11.0 8.0 L 12.0 8.0"/>
<path d="M 10.853169548885461 8.927050983124843 L 11.804226065180615 9.23606797749979"/>
<path d="M 10.853169548885461 8.927050983124843 L 10.427050983124841 9.76335575687742"/>
<path d="M 10.427050983124841 9.76335575687742 L 9.76335575687742 10.427050983124843"/>
<path d="M 10.427050983124841 9.76335575687742 L 11.23606797749979 10.351141009169893"/>
<path d="M 9.76335575687742 10.427050983124843 L 8.927050983124841 10.853169548885461"/>
<path d="M 9.76335575687742 10.427050983124843 L 10.351141009169893 11.23606797749979"/>
<path d="M 8.927050983124841 10.853169548885461 L 8.0 11.0"/>
<path d="M 8.0 11.0 L 7.072949016875157 10.853169548885461"/>
<path d="M 7.072949016875157 10.853169548885461 L 6.236644243122581 10.427050983124843"/>
<path d="M 6.236644243122581 10.427050983124843 L 5.5729490168751585 9.76335575687742"/>
<path d="M 6.236644243122581 10.427050983124843 L 5.6488589908301075 11.23606797749979"/>
<path d="M 5.5729490168751585 9.76335575687742 L 4.76393202250021 10.351141009169893"/>
<path d="M 5.146830451114539 8.927050983124843 L 5.0 8.0"/>
<path d="M 5.0 8.0 L 5.146830451114539 7.072949016875158"/>
<path d="M 5.0 8.0 L 4.0 8.0"/>
<path d="M 5.146830451114539 7.072949016875158 L 4.195773934819385 6.76393202250021"/>
<path d="M 5.572949016875158 6.236644243122581 L 4.76393202250021 5.648858990830108"/>
<path d="M 5.572949016875158 6.236644243122581 L 6.23664424312258 5.5729490168751585"/>
<path d="M 6.23664424312258 5.5729490168751585 L 5.648858990830107 4.76393202250021"/>
<path d="M 8.0 4.0 L 9.23606797749979 4.195773934819385"/>
<path d="M 8.0 4.0 L 8.0 3.0"/>
<path d="M 8.0 4.0 L 6.76393202250021 4.195773934819385"/>
<path d="M 9.23606797749979 4.195773934819385 L 10.351141009169893 4.76393202250021"/>
<path d="M 10.351141009169893 4.76393202250021 L 11.23606797749979 5.648858990830108"/>
<path d="M 10.351141009169893 4.76393202250021 L 10.938926261462367 3.9549150281252636"/>
<path d="M 11.23606797749979 5.648858990830108 L 11.804226065180615 6.76393202250021"/>
<path d="M 11.804226065180615 6.76393202250021 L 12.755282581475768 6.454915028125264"/>
<path d="M 12.0 8.0 L 11.804226065180615 9.23606797749979"/>
<path d="M 10.351141009169893 11.23606797749979 L 9.23606797749979 11.804226065180615"/>
<path d="M 9.23606797749979 11.804226065180615 L 8.0 12.0"/>
<path d="M 8.0 12.0 L 6.763932022500208 11.804226065180615"/>
<path d="M 6.763932022500208 11.804226065180615 L 6.454915028125261 12.755282581475768"/>
<path d="M 4.76393202250021 10.351141009169893 L 4.195773934819385 9.23606797749979"/>
<path d="M 4.195773934819385 6.76393202250021 L 3.244717418524232 6.454915028125264"/>
<path d="M 5.648858990830107 4.76393202250021 L 5.061073738537633 3.9549150281252636"/>
<path d="M 8.0 3.0 L 6.454915028125263 3.2447174185242327"/>
<path d="M 9.545084971874738 3.2447174185242327 L 10.938926261462367 3.9549150281252636"/>
<path d="M 10.938926261462367 3.9549150281252636 L 11.52671151375484 3.145898033750316"/>
<path d="M 12.045084971874736 5.061073738537635 L 12.755282581475768 6.454915028125264"/>
<path d="M 13.0 8.0 L 14.0 8.0"/>
<path d="M 12.755282581475768 9.545084971874736 L 13.706339097770922 9.854101966249685"/>
<path d="M 12.755282581475768 9.545084971874736 L 12.045084971874736 10.938926261462367"/>
<path d="M 12.045084971874736 10.938926261462367 L 12.854101966249683 11.52671151375484"/>
<path d="M 12.045084971874736 10.938926261462367 L 10.938926261462367 12.045084971874736"/>
<path d="M 10.938926261462367 12.045084971874736 L 9.545084971874736 12.755282581475768"/>
<path d="M 9.545084971874736 12.755282581475768 L 9.854101966249685 13.706339097770922"/>
<path d="M 8.0 13.0 L 8.0 14.0"/>
<path d="M 5.061073738537634 12.045084971874736 L 3.9549150281252636 10.938926261462367"/>
<path d="M 5.061073738537634 12.045084971874736 L 4.473288486245162 12.854101966249685"/>
<path d="M 3.2447174185242327 9.545084971874736 L 3.0 8.0"/>
<path d="M 3.2447174185242327 9.545084971874736 L 2.293660902229079 9.854101966249685"/>
<path d="M 3.9549150281252627 5.061073738537635 L 5.061073738537633 3.9549150281252636"/>
<path d="M 3.9549150281252627 5.061073738537635 L 3.1458980337503153 4.473288486245162"/>
<path d="M 5.061073738537633 3.9549150281252636 L 4.473288486245161 3.145898033750316"/>
<path d="M 8.0 2.0 L 9.854101966249685 2.293660902229079"/>
<path d="M 8.0 2.0 L 8.0 1.0"/>
<path d="M 11.52671151375484 3.145898033750316 L 12.854101966249685 4.473288486245162"/>
<path d="M 12.854101966249685 4.473288486245162 L 13.706339097770922 6.145898033750316"/>
<path d="M 12.854101966249685 4.473288486245162 L 13.663118960624633 3.885503233952689"/>
<path d="M 14.0 8.0 L 13.706339097770922 9.854101966249685"/>
<path d="M 14.0 8.0 L 15.0 8.0"/>
<path d="M 13.706339097770922 9.854101966249685 L 14.657395614066075 10.163118960624633"/>
<path d="M 12.854101966249683 11.52671151375484 L 13.663118960624631 12.114496766047314"/>
<path d="M 11.526711513754838 12.854101966249685 L 9.854101966249685 13.706339097770922"/>
<path d="M 9.854101966249685 13.706339097770922 L 8.0 14.0"/>
<path d="M 8.0 14.0 L 6.1458980337503135 13.70633909777092"/>
<path d="M 6.1458980337503135 13.70633909777092 L 5.836881039375365 14.657395614066074"/>
<path d="M 6.1458980337503135 13.70633909777092 L 4.473288486245162 12.854101966249685"/>
<path d="M 4.473288486245162 12.854101966249685 L 3.145898033750316 11.52671151375484"/>
<path d="M 3.145898033750316 11.52671151375484 L 2.3368810393753687 12.114496766047314"/>
<path d="M 2.293660902229079 9.854101966249685 L 2.0 8.0"/>
<path d="M 2.0 8.0 L 1.0 8.0"/>
<path d="M 2.293660902229078 6.145898033750316 L 1.3426043859339245 5.836881039375369"/>
<path d="M 3.1458980337503153 4.473288486245162 L 2.336881039375368 3.885503233952689"/>
<path d="M 4.473288486245161 3.145898033750316 L 6.145898033750315 2.293660902229079"/>
<path d="M 6.145898033750315 2.293660902229079 L 5.836881039375367 1.3426043859339254"/>
<path d="M 8.0 1.0 L 10.163118960624633 1.3426043859339254"/>
<path d="M 10.163118960624633 1.3426043859339254 L 12.114496766047314 2.3368810393753687"/>
<path d="M 12.114496766047314 2.3368810393753687 L 13.663118960624633 3.885503233952689"/>
<path d="M 13.663118960624633 3.885503233952689 L 14.657395614066075 5.836881039375369"/>
<path d="M 12.114496766047312 13.663118960624633 L 10.163118960624631 14.657395614066075"/>
<path d="M 10.163118960624631 14.657395614066075 L 8.0 15.0"/>
<path d="M 8.0 15.0 L 5.836881039375365 14.657395614066074"/>
<path d="M 3.8855032339526883 13.663118960624633 L 2.3368810393753687 12.114496766047314"/>
<path d="M 2.3368810393753687 12.114496766047314 L 1.3426043859339254 10.163118960624633"/>
<path d="M 1.3426043859339254 10.163118960624633 L 1.0 8.0"/>
<path d="M 1.0 8.0 L 1.3426043859339245 5.836881039375369"/>
<path d="M 1.3426043859339245 5.836881039375369 L 2.336881039375368 3.885503233952689"/>
<path d="M 3.8855032339526874 2.3368810393753687 L 5.836881039375367 1.3426043859339254"/>
</svg>
</svg>
