<svg viewBox="0 0 8 8" xmlns="http://www.w3.org/2000/svg" style="background-color: #222;">

    <defs>
      <style>
        path {
          stroke: #006aff;
          stroke-width: 0.21209683072354665;
          stroke-linecap: round;
          fill: none;
        }
      </style>
    </defs>
    
<svg x="0" y="0">
<path d="M 3.6173165676349095 3.0761204674887135 A 1 1 0 0 1 3.9999999999999996 3.0"/>
<path d="M 4,4 L 4.0,3.0"/>
<path d="M 4.38268343236509 3.076120467488713 A 1 1 0 0 1 4.707106781186548 3.2928932188134525"/>
<path d="M 4,4 L 5.0,4.0"/>
<path d="M 4,4 L 4.707106781186548,3.2928932188134525"/>
<path d="M 4,4 L 3.2928932188134525,4.707106781186548"/>
<path d="M 4,4 L 4.0,5.0"/>
<path d="M 4,4 L 3.2928932188134525,3.2928932188134525"/>
<path d="M 4,4 L 4.38268343236509,4.923879532511287"/>
<path d="M 3.234633135269819 2.152240934977427 A 2 2 0 0 1 3.9999999999999996 2.0"/>
<path d="M 4.0 2.0 L 4.0 1.0"/>
<path d="M 4.765366864730179 2.1522409349774265 A 2 2 0 0 1 5.414213562373095 2.585786437626905"/>
<path d="M 4.765366864730179 2.1522409349774265 L 5.14805029709527 1.22836140246614"/>
<path d="M 4.923879532511287 3.6173165676349104 A 1 1 0 0 1 5.0 4.0"/>
<path d="M 4.923879532511287 3.6173165676349104 L 5.847759065022574 3.2346331352698208"/>
<path d="M 5.0 4.0 L 6.0 4.0"/>
<path d="M 4.923879532511287 4.38268343236509 A 1 1 0 0 1 4.707106781186548 4.707106781186548"/>
<path d="M 4.707106781186548 4.707106781186548 A 1 1 0 0 0 4.38268343236509 4.923879532511287"/>
<path d="M 4.707106781186548 4.707106781186548 L 5.414213562373095 5.414213562373095"/>
<path d="M 4.0 5.0 A 1 1 0 0 0 3.6173165676349104 4.923879532511287"/>
<path d="M 3.2928932188134525 4.707106781186548 A 1 1 0 0 0 3.0761204674887135 4.3826834323650905"/>
<path d="M 3.0761204674887135 4.3826834323650905 A 1 1 0 0 1 3.0 4.0"/>
<path d="M 3.0761204674887135 4.3826834323650905 L 2.152240934977427 4.76536686473018"/>
<path d="M 3.0761204674887135 3.61731656763491 A 1 1 0 0 1 3.292893218813453 3.292893218813452"/>
<path d="M 5.414213562373095 2.585786437626905 A 2 2 0 0 0 5.847759065022574 3.2346331352698203"/>
<path d="M 5.414213562373095 2.585786437626905 L 6.121320343559643 1.8786796564403576"/>
<path d="M 5.847759065022574 4.765366864730179 L 6.77163859753386 5.14805029709527"/>
<path d="M 5.847759065022574 4.765366864730179 A 2 2 0 0 1 5.414213562373095 5.414213562373095"/>
<path d="M 4.765366864730179 5.847759065022574 L 5.148050297095269 6.77163859753386"/>
<path d="M 4.0 6.0 L 4.0 7.0"/>
<path d="M 3.2346331352698208 5.847759065022574 A 2 2 0 0 1 2.585786437626905 5.414213562373096"/>
<path d="M 2.585786437626905 5.414213562373095 L 1.8786796564403576 6.121320343559643"/>
<path d="M 2.585786437626905 5.414213562373096 A 2 2 0 0 0 2.152240934977427 4.765366864730181"/>
<path d="M 2.152240934977427 4.765366864730181 A 2 2 0 0 1 2.0 4.0"/>
<path d="M 2.0 4.0 L 1.0 4.0"/>
<path d="M 2.0 4.0 A 2 2 0 0 0 2.152240934977427 3.23463313526982"/>
<path d="M 2.152240934977427 3.23463313526982 L 1.22836140246614 2.8519497029047294"/>
<path d="M 2.152240934977427 3.23463313526982 A 2 2 0 0 1 2.585786437626906 2.585786437626904"/>
<path d="M 2.585786437626905 2.585786437626905 L 1.8786796564403572 1.8786796564403576"/>
<path d="M 2.5857864376269046 2.585786437626905 A 2 2 0 0 0 3.234633135269819 2.152240934977427"/>
<path d="M 2.851949702904729 1.2283614024661405 A 3 3 0 0 1 3.999999999999999 1.0"/>
<path d="M 6.77163859753386 2.8519497029047303 A 3 3 0 0 1 7.0 4.0"/>
<path d="M 7.0 4.0 A 3 3 0 0 0 6.77163859753386 5.148050297095269"/>
<path d="M 6.77163859753386 5.148050297095269 A 3 3 0 0 1 6.121320343559643 6.121320343559642"/>
<path d="M 5.14805029709527 6.77163859753386 A 3 3 0 0 1 4.0 7.0"/>
<path d="M 4.0 7.0 A 3 3 0 0 0 2.851949702904731 6.77163859753386"/>
<path d="M 2.851949702904731 6.77163859753386 A 3 3 0 0 1 1.8786796564403576 6.121320343559643"/>
<path d="M 1.8786796564403576 6.121320343559643 A 3 3 0 0 0 1.2283614024661405 5.148050297095271"/>
</svg>
</svg>
