<svg viewBox="0 0 26 26" xmlns="http://www.w3.org/2000/svg" style="background-color: #222;">

    <defs>
      <style>
        path {
          stroke: #006aff;
          stroke-width: 0.4692752072900168;
          stroke-linecap: round;
          fill: none;
        }
      </style>
    </defs>
    
<svg x="0" y="0">
<path d="M 13.0 12.0 A 1 1 0 0 0 13.38268343236509 12.076120467488714"/>
<path d="M 13.38268343236509 12.076120467488714 L 13.76536686473018 11.152240934977426"/>
<path d="M 12.61731656763491 12.076120467488714 L 12.234633135269819 11.152240934977428"/>
<path d="M 12.234633135269819 11.152240934977428 A 2 2 0 0 1 13.0 11.0"/>
<path d="M 13.707106781186548 12.292893218813452 L 14.414213562373096 11.585786437626904"/>
<path d="M 13.76536686473018 11.152240934977426 A 2 2 0 0 1 14.414213562373096 11.585786437626904"/>
<path d="M 13.923879532511286 12.61731656763491 L 14.847759065022574 12.23463313526982"/>
<path d="M 13.923879532511286 12.61731656763491 A 1 1 0 0 1 14.0 13.0"/>
<path d="M 14.414213562373096 11.585786437626904 L 15.121320343559642 10.878679656440358"/>
<path d="M 14.847759065022574 12.23463313526982 A 2 2 0 0 1 15.0 13.0"/>
<path d="M 13.923879532511286 13.38268343236509 A 1 1 0 0 1 13.707106781186548 13.707106781186548"/>
<path d="M 13.923879532511286 13.38268343236509 L 14.847759065022574 13.76536686473018"/>
<path d="M 15.0 13.0 L 16.0 13.0"/>
<path d="M 15.0 13.0 A 2 2 0 0 0 14.847759065022574 13.76536686473018"/>
<path d="M 13.38268343236509 13.923879532511286 L 13.76536686473018 14.847759065022574"/>
<path d="M 13.38268343236509 13.923879532511286 A 1 1 0 0 1 13.0 14.0"/>
<path d="M 14.414213562373096 14.414213562373096 L 15.121320343559642 15.121320343559642"/>
<path d="M 14.414213562373096 14.414213562373096 A 2 2 0 0 0 13.76536686473018 14.847759065022574"/>
<path d="M 13.0 14.0 L 13.0 15.0"/>
<path d="M 13.0 14.0 A 1 1 0 0 0 12.61731656763491 13.923879532511286"/>
<path d="M 13.0 15.0 L 13.0 16.0"/>
<path d="M 13.0 15.0 A 2 2 0 0 0 12.23463313526982 14.847759065022574"/>
<path d="M 12.292893218813452 13.707106781186548 L 11.585786437626904 14.414213562373096"/>
<path d="M 12.23463313526982 14.847759065022574 A 2 2 0 0 1 11.585786437626904 14.414213562373096"/>
<path d="M 12.076120467488714 13.38268343236509 A 1 1 0 0 1 12.0 13.0"/>
<path d="M 12.076120467488714 13.38268343236509 L 11.152240934977428 13.765366864730181"/>
<path d="M 11.585786437626904 14.414213562373096 A 2 2 0 0 0 11.152240934977428 13.765366864730181"/>
<path d="M 11.152240934977428 13.765366864730181 A 2 2 0 0 1 11.0 13.0"/>
<path d="M 12.076120467488714 12.61731656763491 L 11.152240934977426 12.234633135269819"/>
<path d="M 12.076120467488714 12.61731656763491 A 1 1 0 0 1 12.292893218813454 12.292893218813452"/>
<path d="M 12.292893218813452 12.292893218813452 L 11.585786437626904 11.585786437626904"/>
<path d="M 11.152240934977426 12.234633135269819 L 10.22836140246614 11.85194970290473"/>
<path d="M 12.234633135269819 11.152240934977428 L 11.85194970290473 10.22836140246614"/>
<path d="M 13.0 10.0 L 13.0 9.0"/>
<path d="M 11.85194970290473 10.22836140246614 A 3 3 0 0 1 13.0 10.0"/>
<path d="M 14.148050297095269 10.22836140246614 A 3 3 0 0 1 15.121320343559642 10.878679656440358"/>
<path d="M 14.148050297095269 10.22836140246614 L 14.530733729460358 9.304481869954852"/>
<path d="M 15.77163859753386 11.851949702904731 A 3 3 0 0 1 16.0 13.0"/>
<path d="M 15.77163859753386 11.851949702904731 L 16.695518130045148 11.469266270539642"/>
<path d="M 16.0 13.0 A 3 3 0 0 0 15.77163859753386 14.148050297095269"/>
<path d="M 16.0 13.0 L 17.0 13.0"/>
<path d="M 15.77163859753386 14.148050297095269 A 3 3 0 0 1 15.121320343559642 15.121320343559642"/>
<path d="M 15.121320343559642 15.121320343559642 A 3 3 0 0 0 14.148050297095269 15.77163859753386"/>
<path d="M 13.0 16.0 A 3 3 0 0 0 11.851949702904731 15.77163859753386"/>
<path d="M 11.851949702904731 15.77163859753386 L 11.469266270539642 16.695518130045148"/>
<path d="M 10.878679656440358 15.121320343559642 L 10.17157287525381 15.82842712474619"/>
<path d="M 10.878679656440358 15.121320343559642 A 3 3 0 0 0 10.22836140246614 14.14805029709527"/>
<path d="M 10.22836140246614 14.14805029709527 L 9.304481869954854 14.53073372946036"/>
<path d="M 10.0 13.0 L 9.0 13.0"/>
<path d="M 10.0 13.0 A 3 3 0 0 0 10.22836140246614 11.85194970290473"/>
<path d="M 10.22836140246614 11.85194970290473 A 3 3 0 0 1 10.878679656440358 10.878679656440356"/>
<path d="M 11.85194970290473 10.22836140246614 L 11.469266270539638 9.304481869954854"/>
<path d="M 13.0 9.0 A 4 4 0 0 0 14.530733729460358 9.304481869954852"/>
<path d="M 13.0 9.0 L 13.0 8.0"/>
<path d="M 14.530733729460358 9.304481869954852 A 4 4 0 0 1 15.82842712474619 10.17157287525381"/>
<path d="M 16.695518130045148 11.469266270539642 L 17.619397662556434 11.086582838174552"/>
<path d="M 16.695518130045148 14.530733729460358 L 17.619397662556434 14.91341716182545"/>
<path d="M 15.82842712474619 15.82842712474619 A 4 4 0 0 0 14.530733729460358 16.695518130045148"/>
<path d="M 15.82842712474619 15.82842712474619 L 16.535533905932738 16.535533905932738"/>
<path d="M 13.0 17.0 L 13.0 18.0"/>
<path d="M 10.17157287525381 15.82842712474619 L 9.464466094067262 16.535533905932738"/>
<path d="M 9.304481869954854 14.530733729460362 A 4 4 0 0 1 9.0 13.0"/>
<path d="M 9.0 13.0 A 4 4 0 0 0 9.304481869954854 11.46926627053964"/>
<path d="M 9.304481869954854 11.46926627053964 A 4 4 0 0 1 10.171572875253812 10.171572875253808"/>
<path d="M 10.171572875253808 10.17157287525381 A 4 4 0 0 0 11.469266270539638 9.304481869954854"/>
<path d="M 11.086582838174548 8.380602337443568 A 5 5 0 0 1 12.999999999999998 8.0"/>
<path d="M 14.91341716182545 8.380602337443566 L 15.29610059419054 7.45672280493228"/>
<path d="M 16.535533905932738 9.464466094067262 A 5 5 0 0 0 17.619397662556434 11.08658283817455"/>
<path d="M 17.619397662556434 11.08658283817455 A 5 5 0 0 1 18.0 13.0"/>
<path d="M 17.619397662556434 11.086582838174552 L 18.54327719506772 10.703899405809462"/>
<path d="M 18.0 13.0 L 19.0 13.0"/>
<path d="M 17.619397662556434 14.91341716182545 L 18.54327719506772 15.29610059419054"/>
<path d="M 17.619397662556434 14.913417161825448 A 5 5 0 0 1 16.535533905932738 16.535533905932738"/>
<path d="M 16.535533905932738 16.535533905932738 A 5 5 0 0 0 14.91341716182545 17.619397662556434"/>
<path d="M 16.535533905932738 16.535533905932738 L 17.242640687119284 17.242640687119284"/>
<path d="M 14.91341716182545 17.619397662556434 A 5 5 0 0 1 13.0 18.0"/>
<path d="M 14.91341716182545 17.619397662556434 L 15.296100594190538 18.54327719506772"/>
<path d="M 13.0 18.0 A 5 5 0 0 0 11.086582838174552 17.619397662556434"/>
<path d="M 9.464466094067262 16.535533905932738 A 5 5 0 0 0 8.380602337443568 14.913417161825452"/>
<path d="M 8.0 13.000000000000002 A 5 5 0 0 0 8.380602337443566 11.08658283817455"/>
<path d="M 8.380602337443566 11.08658283817455 L 7.45672280493228 10.703899405809459"/>
<path d="M 9.464466094067262 9.464466094067262 L 8.757359312880714 8.757359312880716"/>
<path d="M 11.086582838174548 8.380602337443568 L 10.703899405809459 7.456722804932281"/>
<path d="M 10.703899405809459 7.456722804932281 A 6 6 0 0 1 12.999999999999998 7.0"/>
<path d="M 13.0 7.0 L 13.0 6.0"/>
<path d="M 15.296100594190538 7.45672280493228 A 6 6 0 0 1 17.242640687119284 8.757359312880714"/>
<path d="M 17.242640687119284 8.757359312880714 A 6 6 0 0 0 18.54327719506772 10.70389940580946"/>
<path d="M 18.54327719506772 10.703899405809462 L 19.467156727579006 10.321215973444371"/>
<path d="M 19.0 13.0 A 6 6 0 0 0 18.54327719506772 15.296100594190538"/>
<path d="M 17.242640687119284 17.242640687119284 L 17.94974746830583 17.949747468305834"/>
<path d="M 13.0 19.0 L 13.0 20.0"/>
<path d="M 10.703899405809462 18.54327719506772 A 6 6 0 0 1 8.757359312880716 17.242640687119284"/>
<path d="M 8.757359312880716 17.242640687119284 A 6 6 0 0 0 7.456722804932281 15.296100594190541"/>
<path d="M 7.456722804932281 15.296100594190541 A 6 6 0 0 1 7.0 13.000000000000002"/>
<path d="M 7.456722804932281 15.296100594190541 L 6.532843272420994 15.678784026555633"/>
<path d="M 7.0 13.000000000000002 A 6 6 0 0 0 7.45672280493228 10.70389940580946"/>
<path d="M 8.757359312880714 8.757359312880716 L 8.050252531694166 8.050252531694168"/>
<path d="M 10.703899405809459 7.456722804932281 L 10.321215973444367 6.532843272420994"/>
<path d="M 13.0 6.0 A 7 7 0 0 0 15.678784026555629 6.532843272420993"/>
<path d="M 15.678784026555629 6.532843272420993 A 7 7 0 0 1 17.94974746830583 8.050252531694166"/>
<path d="M 17.94974746830583 8.050252531694166 A 7 7 0 0 0 19.467156727579006 10.321215973444371"/>
<path d="M 17.949747468305834 8.050252531694168 L 18.65685424949238 7.34314575050762"/>
<path d="M 19.467156727579006 10.321215973444371 L 20.391036260090296 9.938532541079283"/>
<path d="M 19.467156727579006 10.321215973444371 A 7 7 0 0 1 20.0 13.0"/>
<path d="M 20.0 13.0 A 7 7 0 0 0 19.467156727579006 15.678784026555629"/>
<path d="M 19.467156727579006 15.678784026555629 L 20.391036260090296 16.061467458920717"/>
<path d="M 17.94974746830583 17.949747468305834 L 18.65685424949238 18.65685424949238"/>
<path d="M 15.678784026555629 19.467156727579006 A 7 7 0 0 1 13.0 20.0"/>
<path d="M 13.0 20.0 A 7 7 0 0 0 10.321215973444373 19.467156727579006"/>
<path d="M 10.321215973444371 19.467156727579006 L 9.938532541079281 20.391036260090296"/>
<path d="M 8.050252531694168 17.949747468305834 L 7.34314575050762 18.65685424949238"/>
<path d="M 6.532843272420994 15.678784026555633 A 7 7 0 0 1 6.0 13.000000000000002"/>
<path d="M 6.0 13.0 L 5.0 13.0"/>
<path d="M 6.0 13.000000000000002 A 7 7 0 0 0 6.532843272420994 10.321215973444371"/>
<path d="M 8.050252531694166 8.050252531694168 A 7 7 0 0 0 10.321215973444367 6.532843272420994"/>
<path d="M 10.321215973444367 6.532843272420994 L 9.938532541079278 5.608963739909708"/>
<path d="M 13.0 5.0 A 8 8 0 0 0 16.061467458920717 5.608963739909706"/>
<path d="M 16.061467458920717 5.608963739909706 L 16.44415089128581 4.68508420739842"/>
<path d="M 18.65685424949238 7.34314575050762 L 19.36396103067893 6.636038969321072"/>
<path d="M 20.391036260090296 9.938532541079283 L 21.31491579260158 9.555849108714192"/>
<path d="M 21.0 13.0 A 8 8 0 0 0 20.391036260090296 16.061467458920717"/>
<path d="M 20.391036260090296 16.061467458920717 L 21.31491579260158 16.44415089128581"/>
<path d="M 18.65685424949238 18.65685424949238 L 19.36396103067893 19.36396103067893"/>
<path d="M 16.061467458920717 20.391036260090296 L 16.44415089128581 21.31491579260158"/>
<path d="M 13.000000000000002 21.0 A 8 8 0 0 0 9.938532541079283 20.391036260090296"/>
<path d="M 13.0 21.0 L 13.0 22.0"/>
<path d="M 9.938532541079281 20.391036260090296 L 9.555849108714192 21.31491579260158"/>
<path d="M 7.34314575050762 18.656854249492383 A 8 8 0 0 0 5.608963739909708 16.061467458920724"/>
<path d="M 7.34314575050762 18.65685424949238 L 6.636038969321072 19.36396103067893"/>
<path d="M 5.608963739909708 16.061467458920724 A 8 8 0 0 1 5.0 13.000000000000002"/>
<path d="M 5.608963739909708 16.06146745892072 L 4.685084207398422 16.444150891285812"/>
<path d="M 5.0 13.000000000000002 A 8 8 0 0 0 5.608963739909707 9.93853254107928"/>
<path d="M 5.608963739909707 9.93853254107928 L 4.68508420739842 9.555849108714188"/>
<path d="M 7.343145750507619 7.34314575050762 L 6.6360389693210715 6.636038969321072"/>
<path d="M 9.938532541079278 5.608963739909708 L 9.555849108714188 4.685084207398422"/>
<path d="M 9.555849108714186 4.685084207398422 A 9 9 0 0 1 12.999999999999998 4.0"/>
<path d="M 16.44415089128581 4.68508420739842 A 9 9 0 0 1 19.36396103067893 6.6360389693210715"/>
<path d="M 21.31491579260158 9.555849108714192 A 9 9 0 0 1 22.0 13.0"/>
<path d="M 21.31491579260158 9.555849108714192 L 22.238795325112868 9.173165676349104"/>
<path d="M 19.36396103067893 19.36396103067893 L 20.071067811865476 20.071067811865476"/>
<path d="M 19.36396103067893 19.36396103067893 A 9 9 0 0 0 16.44415089128581 21.31491579260158"/>
<path d="M 16.44415089128581 21.31491579260158 L 16.8268343236509 22.238795325112868"/>
<path d="M 9.555849108714192 21.31491579260158 L 9.173165676349102 22.238795325112868"/>
<path d="M 4.685084207398422 16.444150891285812 A 9 9 0 0 1 4.0 13.000000000000002"/>
<path d="M 4.0 13.0 L 3.0 13.0"/>
<path d="M 4.68508420739842 9.55584910871419 A 9 9 0 0 1 6.636038969321077 6.636038969321068"/>
<path d="M 6.636038969321071 6.636038969321072 A 9 9 0 0 0 9.555849108714186 4.685084207398422"/>
<path d="M 13.0 3.0 A 10 10 0 0 0 16.8268343236509 3.761204674887132"/>
<path d="M 16.8268343236509 3.761204674887132 A 10 10 0 0 1 20.071067811865476 5.9289321881345245"/>
<path d="M 20.071067811865476 5.9289321881345245 A 10 10 0 0 0 22.238795325112868 9.173165676349102"/>
<path d="M 23.0 13.0 A 10 10 0 0 0 22.238795325112868 16.826834323650896"/>
<path d="M 22.238795325112868 16.8268343236509 L 23.162674857624154 17.209517756015988"/>
<path d="M 20.071067811865476 20.071067811865476 L 20.77817459305202 20.77817459305202"/>
<path d="M 16.8268343236509 22.238795325112868 A 10 10 0 0 1 13.000000000000002 23.0"/>
<path d="M 9.173165676349102 22.238795325112868 L 8.790482243984012 23.162674857624154"/>
<path d="M 9.173165676349104 22.238795325112868 A 10 10 0 0 1 5.928932188134525 20.071067811865476"/>
<path d="M 5.928932188134525 20.071067811865476 L 5.221825406947978 20.77817459305202"/>
<path d="M 3.7612046748871357 16.826834323650903 L 2.837325142375848 17.20951775601599"/>
<path d="M 3.7612046748871357 16.826834323650903 A 10 10 0 0 1 3.0 13.000000000000002"/>
<path d="M 3.0 13.000000000000002 A 10 10 0 0 0 3.761204674887134 9.1731656763491"/>
<path d="M 3.761204674887134 9.1731656763491 A 10 10 0 0 1 5.92893218813453 5.92893218813452"/>
<path d="M 5.9289321881345245 5.928932188134525 L 5.221825406947977 5.221825406947978"/>
<path d="M 5.928932188134523 5.928932188134525 A 10 10 0 0 0 9.173165676349097 3.7612046748871357"/>
<path d="M 13.0 2.0 A 11 11 0 0 0 17.209517756015988 2.837325142375846"/>
<path d="M 13.000000000000002 2.0 L 13.000000000000002 1.0"/>
<path d="M 8.790482243984005 2.837325142375848 A 11 11 0 0 1 12.999999999999996 2.0"/>
<path d="M 17.209517756015988 2.837325142375846 A 11 11 0 0 1 20.77817459305202 5.221825406947977"/>
<path d="M 17.209517756015988 2.837325142375846 L 17.59220118838108 1.91344560986456"/>
<path d="M 20.77817459305202 5.221825406947978 L 21.48528137423857 4.5147186257614305"/>
<path d="M 20.77817459305202 5.221825406947977 A 11 11 0 0 0 23.162674857624154 8.790482243984012"/>
<path d="M 23.162674857624154 8.790482243984012 A 11 11 0 0 1 24.0 13.0"/>
<path d="M 23.162674857624154 17.209517756015988 A 11 11 0 0 1 20.77817459305202 20.77817459305202"/>
<path d="M 23.162674857624154 17.209517756015988 L 24.08655439013544 17.59220118838108"/>
<path d="M 17.209517756015988 23.162674857624154 L 17.592201188381075 24.08655439013544"/>
<path d="M 13.000000000000002 24.0 A 11 11 0 0 0 8.790482243984012 23.162674857624154"/>
<path d="M 8.790482243984012 23.162674857624154 L 8.407798811618923 24.08655439013544"/>
<path d="M 5.221825406947978 20.77817459305202 L 4.5147186257614305 21.48528137423857"/>
<path d="M 2.837325142375848 17.20951775601599 L 1.9134456098645618 17.592201188381082"/>
<path d="M 2.0 13.0 L 1.0 13.0"/>
<path d="M 2.837325142375848 8.790482243984009 A 11 11 0 0 1 5.221825406947983 5.221825406947972"/>
<path d="M 5.221825406947976 5.221825406947978 A 11 11 0 0 0 8.790482243984005 2.837325142375848"/>
<path d="M 8.790482243984007 2.837325142375848 L 8.407798811618918 1.9134456098645618"/>
<path d="M 21.485281374238568 4.514718625761429 A 12 12 0 0 0 24.08655439013544 8.407798811618921"/>
<path d="M 25.0 13.0 A 12 12 0 0 0 24.08655439013544 17.592201188381075"/>
<path d="M 24.08655439013544 17.592201188381075 A 12 12 0 0 1 21.48528137423857 21.485281374238568"/>
<path d="M 21.48528137423857 21.485281374238568 A 12 12 0 0 0 17.59220118838108 24.08655439013544"/>
<path d="M 17.59220118838108 24.08655439013544 A 12 12 0 0 1 13.000000000000002 25.0"/>
<path d="M 13.000000000000002 25.0 A 12 12 0 0 0 8.407798811618925 24.08655439013544"/>
<path d="M 1.9134456098645618 17.592201188381082 A 12 12 0 0 1 1.0 13.000000000000002"/>
<path d="M 1.91344560986456 8.407798811618921 A 12 12 0 0 1 4.514718625761436 4.514718625761423"/>
<path d="M 4.514718625761429 4.5147186257614305 A 12 12 0 0 0 8.407798811618916 1.9134456098645618"/>
</svg>
</svg>
