<svg viewBox="0 0 24 24" xmlns="http://www.w3.org/2000/svg" style="background-color: #222;">

    <defs>
      <style>
        path {
          stroke: #006aff;
          stroke-width: 0.48122506552442024;
          stroke-linecap: round;
          fill: none;
        }
      </style>
    </defs>
    
<svg x="0" y="0">
<path d="M 12.0 11.0 L 11.0 12.0"/>
<path d="M 13.0 12.0 L 14.0 12.0"/>
<path d="M 13.0 12.0 L 12.0 13.0"/>
<path d="M 12,12 L 12.0,13.0"/>
<path d="M 11.0 12.0 L 12.0 13.0"/>
<path d="M 12.0 10.0 L 10.0 12.0"/>
<path d="M 14.0 12.0 L 15.0 12.0"/>
<path d="M 14.0 12.0 L 12.0 14.0"/>
<path d="M 12.0 14.0 L 10.0 12.0"/>
<path d="M 10.0 12.0 L 9.0 12.0"/>
<path d="M 12.0 9.0 L 12.0 8.0"/>
<path d="M 15.0 12.0 L 16.0 12.0"/>
<path d="M 12.0 15.0 L 9.0 12.0"/>
<path d="M 9.0 12.0 L 8.0 12.0"/>
<path d="M 12.0 8.0 L 12.0 7.0"/>
<path d="M 16.0 12.0 L 12.0 16.0"/>
<path d="M 16.0 12.0 L 17.0 12.0"/>
<path d="M 8.0 12.0 L 7.0 12.0"/>
<path d="M 12.0 7.0 L 17.0 12.0"/>
<path d="M 12.0 7.0 L 12.0 6.0"/>
<path d="M 17.0 12.0 L 12.0 17.0"/>
<path d="M 12.0 17.0 L 12.0 18.0"/>
<path d="M 7.0 12.0 L 6.0 12.0"/>
<path d="M 12.0 6.0 L 12.0 5.0"/>
<path d="M 18.0 12.0 L 12.0 18.0"/>
<path d="M 12.0 5.0 L 5.0 12.0"/>
<path d="M 19.0 12.0 L 12.0 19.0"/>
<path d="M 12.0 19.0 L 12.0 20.0"/>
<path d="M 12.0 19.0 L 5.0 12.0"/>
<path d="M 12.000000000000002 4.0 L 20.0 12.0"/>
<path d="M 12.000000000000002 4.0 L 12.000000000000002 3.0"/>
<path d="M 12.0 20.0 L 4.0 12.0"/>
<path d="M 4.0 12.0 L 3.0 12.0"/>
<path d="M 12.000000000000002 3.0 L 12.000000000000002 2.0"/>
<path d="M 12.000000000000002 3.0 L 3.0 12.0"/>
<path d="M 21.0 12.0 L 22.0 12.0"/>
<path d="M 21.0 12.0 L 12.0 21.0"/>
<path d="M 12.0 21.0 L 12.0 22.0"/>
<path d="M 12.0 21.0 L 3.0 12.0"/>
<path d="M 12.000000000000002 2.0 L 2.0 12.0"/>
<path d="M 12.000000000000002 2.0 L 12.000000000000002 1.0"/>
<path d="M 2.0 12.0 L 1.0 12.0"/>
<path d="M 12.000000000000002 1.0 L 23.0 12.0"/>
<path d="M 23.0 12.0 L 12.0 23.0"/>
</svg>
</svg>
