<svg viewBox="0 0 20 20" xmlns="http://www.w3.org/2000/svg" style="background-color: #222;">

    <defs>
      <style>
        path {
          stroke: #006aff;
          stroke-width: 0.27325977026590614;
          stroke-linecap: round;
          fill: none;
        }
      </style>
    </defs>
    
<svg x="0" y="0">
<path d="M 10.0 9.0 L 9.459359182544402 9.15874646716882"/>
<path d="M 10,10 L 10.0,9.0"/>
<path d="M 10.540640817455598 9.158746467168818 L 11.081281634911196 8.317492934337638"/>
<path d="M 10,10 L 9.71826744315857,10.959492973614498"/>
<path d="M 10,10 L 9.010178558119067,10.142314838273284"/>
<path d="M 9.459359182544402 9.15874646716882 L 8.918718365088804 8.317492934337638"/>
<path d="M 10.0 8.0 L 10.0 7.0"/>
<path d="M 10.909631995354518 9.584584986998113 L 10.989821441880933 10.142314838273284"/>
<path d="M 10.909631995354518 9.584584986998113 L 11.819263990709036 9.169169973996228"/>
<path d="M 11.081281634911196 8.317492934337638 L 11.621922452366793 7.476239401506456"/>
<path d="M 11.081281634911196 8.317492934337638 L 11.819263990709036 9.169169973996228"/>
<path d="M 10.989821441880933 10.142314838273284 L 10.755749574354258 10.654860733945284"/>
<path d="M 10.989821441880933 10.142314838273284 L 11.979642883761866 10.28462967654657"/>
<path d="M 10.755749574354258 10.654860733945284 L 11.511499148708516 11.30972146789057"/>
<path d="M 10.755749574354258 10.654860733945284 L 10.28173255684143 10.959492973614497"/>
<path d="M 10.28173255684143 10.959492973614497 L 9.71826744315857 10.959492973614498"/>
<path d="M 10.28173255684143 10.959492973614497 L 10.56346511368286 11.918985947228995"/>
<path d="M 9.244250425645742 10.654860733945284 L 9.010178558119067 10.142314838273284"/>
<path d="M 9.244250425645742 10.654860733945284 L 8.488500851291484 11.30972146789057"/>
<path d="M 9.010178558119067 10.142314838273284 L 8.020357116238134 10.28462967654657"/>
<path d="M 9.010178558119067 10.142314838273284 L 9.090368004645482 9.584584986998113"/>
<path d="M 11.979642883761866 10.28462967654657 L 12.969464325642798 10.426944514819855"/>
<path d="M 11.511499148708516 11.30972146789057 L 12.267248723062774 11.964582201835857"/>
<path d="M 10.56346511368286 11.918985947228995 L 9.43653488631714 11.918985947228995"/>
<path d="M 10.56346511368286 11.918985947228995 L 10.84519767052429 12.878478920843492"/>
<path d="M 8.180736009290964 9.169169973996226 L 7.271104013936446 8.753754960994339"/>
<path d="M 8.180736009290964 9.169169973996226 L 8.918718365088804 8.317492934337638"/>
<path d="M 10.0 7.0 L 8.378077547633206 7.476239401506458"/>
<path d="M 11.621922452366793 7.476239401506456 L 12.16256326982239 6.634985868675276"/>
<path d="M 12.728895986063556 8.75375496099434 L 13.638527981418074 8.338339947992456"/>
<path d="M 12.267248723062774 11.964582201835857 L 13.022998297417033 12.61944293578114"/>
<path d="M 10.84519767052429 12.878478920843492 L 9.15480232947571 12.878478920843492"/>
<path d="M 10.84519767052429 12.878478920843492 L 11.126930227365719 13.83797189445799"/>
<path d="M 9.15480232947571 12.878478920843492 L 8.873069772634281 13.83797189445799"/>
<path d="M 9.15480232947571 12.878478920843492 L 7.7327512769372255 11.964582201835857"/>
<path d="M 7.7327512769372255 11.964582201835857 L 6.977001702582967 12.61944293578114"/>
<path d="M 7.030535674357202 10.426944514819855 L 7.271104013936446 8.753754960994339"/>
<path d="M 7.271104013936446 8.753754960994339 L 8.378077547633206 7.476239401506458"/>
<path d="M 10.0 6.0 L 7.837436730177608 6.634985868675277"/>
<path d="M 12.16256326982239 6.634985868675276 L 12.703204087277989 5.793732335844094"/>
<path d="M 12.16256326982239 6.634985868675276 L 13.638527981418074 8.338339947992456"/>
<path d="M 13.638527981418074 8.338339947992456 L 13.959285767523731 10.569259353093141"/>
<path d="M 6.977001702582967 12.61944293578114 L 6.040714232476269 10.569259353093141"/>
<path d="M 6.361472018581928 8.338339947992452 L 7.837436730177608 6.634985868675277"/>
<path d="M 7.837436730177608 6.634985868675277 L 7.2967959127220094 5.793732335844096"/>
<path d="M 10.0 5.0 L 12.703204087277989 5.793732335844094"/>
<path d="M 12.703204087277989 5.793732335844094 L 13.243844904733587 4.952478803012913"/>
<path d="M 14.548159976772592 7.922924934990569 L 14.949107209404662 10.711574191366426"/>
<path d="M 14.949107209404662 10.711574191366426 L 15.938928651285597 10.85388902963971"/>
<path d="M 13.77874787177129 13.274303669726425 L 14.534497446125549 13.929164403671711"/>
<path d="M 11.40866278420715 14.797464868072487 L 11.69039534104858 15.756957841686983"/>
<path d="M 11.40866278420715 14.797464868072487 L 8.591337215792853 14.797464868072488"/>
<path d="M 6.221252128228709 13.274303669726425 L 5.050892790595337 10.711574191366426"/>
<path d="M 5.050892790595337 10.711574191366426 L 5.451840023227409 7.922924934990565"/>
<path d="M 5.451840023227409 7.922924934990565 L 7.2967959127220094 5.793732335844096"/>
<path d="M 5.451840023227409 7.922924934990565 L 4.542208027872891 7.507509921988678"/>
<path d="M 7.2967959127220094 5.793732335844096 L 6.756155095266411 4.952478803012916"/>
<path d="M 10.0 4.0 L 6.756155095266411 4.952478803012916"/>
<path d="M 10.0 4.0 L 13.243844904733587 4.952478803012913"/>
<path d="M 13.243844904733587 4.952478803012913 L 15.457791972127112 7.507509921988682"/>
<path d="M 15.457791972127112 7.507509921988682 L 16.367423967481628 7.0920949089867955"/>
<path d="M 15.938928651285597 10.85388902963971 L 14.534497446125549 13.929164403671711"/>
<path d="M 14.534497446125549 13.929164403671711 L 11.69039534104858 15.756957841686983"/>
<path d="M 14.534497446125549 13.929164403671711 L 15.290247020479807 14.584025137616997"/>
<path d="M 11.69039534104858 15.756957841686983 L 11.97212789789001 16.71645081530148"/>
<path d="M 11.69039534104858 15.756957841686983 L 8.309604658951423 15.756957841686985"/>
<path d="M 5.465502553874451 13.929164403671711 L 4.709752979520193 14.584025137616997"/>
<path d="M 4.061071348714404 10.85388902963971 L 3.0712499068334713 10.996203867912996"/>
<path d="M 4.061071348714404 10.85388902963971 L 4.542208027872891 7.507509921988678"/>
<path d="M 6.756155095266411 4.952478803012916 L 6.215514277810813 4.111225270181735"/>
<path d="M 10.0 3.0 L 13.784485722189185 4.111225270181732"/>
<path d="M 13.784485722189185 4.111225270181732 L 14.325126539644781 3.2699717373505512"/>
<path d="M 16.928750093166528 10.996203867912996 L 15.290247020479807 14.584025137616997"/>
<path d="M 16.928750093166528 10.996203867912996 L 17.918571535047462 11.13851870618628"/>
<path d="M 11.97212789789001 16.71645081530148 L 12.25386045473144 17.67594378891598"/>
<path d="M 8.027872102109994 16.71645081530148 L 4.709752979520193 14.584025137616997"/>
<path d="M 4.709752979520193 14.584025137616997 L 3.9540034051659347 15.238885871562282"/>
<path d="M 4.709752979520193 14.584025137616997 L 3.0712499068334713 10.996203867912996"/>
<path d="M 3.0712499068334713 10.996203867912996 L 3.632576032518373 7.092094908986791"/>
<path d="M 10.000000000000002 2.0 L 5.674873460355215 3.269971737350554"/>
<path d="M 14.325126539644781 3.2699717373505512 L 17.277055962836148 6.676679895984909"/>
<path d="M 14.325126539644781 3.2699717373505512 L 14.865767357100381 2.4287182045193703"/>
<path d="M 17.277055962836148 6.676679895984909 L 17.918571535047462 11.13851870618628"/>
<path d="M 17.918571535047462 11.13851870618628 L 18.908392976928393 11.280833544459567"/>
<path d="M 16.045996594834065 15.238885871562282 L 12.25386045473144 17.67594378891598"/>
<path d="M 12.25386045473144 17.67594378891598 L 7.746139545268564 17.67594378891598"/>
<path d="M 7.746139545268564 17.67594378891598 L 3.9540034051659347 15.238885871562282"/>
<path d="M 7.746139545268564 17.67594378891598 L 7.464406988427134 18.635436762530478"/>
<path d="M 3.9540034051659347 15.238885871562282 L 3.1982538308116766 15.893746605507566"/>
<path d="M 2.0814284649525385 11.13851870618628 L 2.722944037163855 6.676679895984904"/>
<path d="M 2.722944037163855 6.676679895984904 L 1.8133120418093363 6.261264882983017"/>
<path d="M 2.722944037163855 6.676679895984904 L 5.674873460355215 3.269971737350554"/>
<path d="M 5.674873460355215 3.269971737350554 L 5.134232642899617 2.428718204519373"/>
<path d="M 10.000000000000002 1.0 L 5.134232642899617 2.428718204519373"/>
<path d="M 10.000000000000002 1.0 L 14.865767357100381 2.4287182045193703"/>
<path d="M 18.186687958190667 6.261264882983023 L 18.908392976928393 11.280833544459567"/>
<path d="M 18.908392976928393 11.280833544459567 L 16.801746169188323 15.893746605507566"/>
<path d="M 12.53559301157287 18.635436762530475 L 7.464406988427134 18.635436762530478"/>
<path d="M 3.1982538308116766 15.893746605507566 L 1.0916070230716066 11.280833544459567"/>
</svg>
</svg>
