<svg viewBox="0 0 26 26" xmlns="http://www.w3.org/2000/svg" style="background-color: #222;">

    <defs>
      <style>
        path {
          stroke: #006aff;
          stroke-width: 0.32392559110007196;
          stroke-linecap: round;
          fill: none;
        }
      </style>
    </defs>
    
<svg x="0" y="0">
<path d="M 13.0 12.0 A 1 1 0 0 0 13.707106781186548 12.292893218813452"/>
<path d="M 13.707106781186548 12.292893218813452 A 1 1 0 0 1 14.0 13.0"/>
<path d="M 13.707106781186548 12.292893218813452 L 14.414213562373096 11.585786437626904"/>
<path d="M 12.0 13.0 A 1 1 0 0 0 12.292893218813452 12.292893218813452"/>
<path d="M 13.0 11.0 A 2 2 0 0 0 14.414213562373096 11.585786437626904"/>
<path d="M 13.0 11.0 L 13.0 10.0"/>
<path d="M 14.0 13.0 L 15.0 13.0"/>
<path d="M 13.707106781186548 13.707106781186548 L 14.414213562373096 14.414213562373096"/>
<path d="M 13.0 14.0 A 1 1 0 0 0 12.292893218813452 13.707106781186548"/>
<path d="M 13.0 14.0 L 13.0 15.0"/>
<path d="M 14.414213562373096 14.414213562373096 A 2 2 0 0 1 13.0 15.0"/>
<path d="M 12.292893218813452 13.707106781186548 L 11.585786437626904 14.414213562373096"/>
<path d="M 13.0 15.0 L 13.0 16.0"/>
<path d="M 12.0 13.0 L 11.0 13.0"/>
<path d="M 11.585786437626904 14.414213562373096 L 10.878679656440358 15.121320343559642"/>
<path d="M 11.585786437626904 14.414213562373096 A 2 2 0 0 1 11.0 13.0"/>
<path d="M 11.0 13.0 L 10.0 13.0"/>
<path d="M 11.0 13.0 A 2 2 0 0 0 11.585786437626904 11.585786437626904"/>
<path d="M 11.585786437626904 11.585786437626904 L 10.878679656440358 10.878679656440358"/>
<path d="M 13.0 10.0 A 3 3 0 0 0 15.121320343559642 10.878679656440358"/>
<path d="M 13.0 10.0 L 13.0 9.0"/>
<path d="M 15.121320343559642 10.878679656440358 A 3 3 0 0 1 16.0 13.0"/>
<path d="M 16.0 13.0 A 3 3 0 0 0 15.121320343559642 15.121320343559642"/>
<path d="M 16.0 13.0 L 17.0 13.0"/>
<path d="M 15.121320343559642 15.121320343559642 L 15.82842712474619 15.82842712474619"/>
<path d="M 15.121320343559642 15.121320343559642 A 3 3 0 0 1 13.0 16.0"/>
<path d="M 10.878679656440358 10.878679656440358 L 10.17157287525381 10.17157287525381"/>
<path d="M 13.0 9.0 A 4 4 0 0 0 15.82842712474619 10.17157287525381"/>
<path d="M 13.0 9.0 L 13.0 8.0"/>
<path d="M 15.82842712474619 15.82842712474619 L 16.535533905932738 16.535533905932738"/>
<path d="M 15.82842712474619 15.82842712474619 A 4 4 0 0 1 13.0 17.0"/>
<path d="M 13.0 17.0 A 4 4 0 0 0 10.17157287525381 15.828427124746192"/>
<path d="M 10.17157287525381 15.82842712474619 L 9.464466094067262 16.535533905932738"/>
<path d="M 9.0 13.0 A 4 4 0 0 0 10.171572875253808 10.17157287525381"/>
<path d="M 10.17157287525381 10.17157287525381 L 9.464466094067262 9.464466094067262"/>
<path d="M 13.0 8.0 L 13.0 7.0"/>
<path d="M 13.0 8.0 A 5 5 0 0 0 16.535533905932738 9.464466094067262"/>
<path d="M 18.0 13.0 L 19.0 13.0"/>
<path d="M 18.0 13.0 A 5 5 0 0 0 16.535533905932738 16.535533905932738"/>
<path d="M 16.535533905932738 16.535533905932738 L 17.242640687119284 17.242640687119284"/>
<path d="M 13.0 18.0 L 13.0 19.0"/>
<path d="M 9.464466094067262 16.535533905932738 L 8.757359312880716 17.242640687119284"/>
<path d="M 9.464466094067262 16.535533905932738 A 5 5 0 0 1 8.0 13.000000000000002"/>
<path d="M 8.757359312880714 8.757359312880716 A 6 6 0 0 1 12.999999999999998 7.0"/>
<path d="M 13.0 7.0 L 13.0 6.0"/>
<path d="M 17.242640687119284 8.757359312880714 A 6 6 0 0 1 19.0 13.0"/>
<path d="M 17.242640687119284 8.757359312880716 L 17.949747468305834 8.050252531694168"/>
<path d="M 19.0 13.0 L 20.0 13.0"/>
<path d="M 17.242640687119284 17.242640687119284 L 17.94974746830583 17.949747468305834"/>
<path d="M 13.0 19.0 L 13.0 20.0"/>
<path d="M 13.0 19.0 A 6 6 0 0 0 8.757359312880716 17.242640687119284"/>
<path d="M 8.757359312880716 17.242640687119284 A 6 6 0 0 1 7.0 13.000000000000002"/>
<path d="M 8.050252531694166 8.050252531694168 A 7 7 0 0 1 12.999999999999998 6.0"/>
<path d="M 17.949747468305834 8.050252531694168 L 18.65685424949238 7.34314575050762"/>
<path d="M 20.0 13.0 L 21.0 13.0"/>
<path d="M 17.94974746830583 17.949747468305834 L 18.65685424949238 18.65685424949238"/>
<path d="M 8.050252531694168 17.949747468305834 L 7.34314575050762 18.65685424949238"/>
<path d="M 8.050252531694168 17.949747468305834 A 7 7 0 0 1 6.0 13.000000000000002"/>
<path d="M 8.050252531694166 8.050252531694168 L 7.343145750507619 7.34314575050762"/>
<path d="M 7.3431457505076185 7.34314575050762 A 8 8 0 0 1 12.999999999999998 5.0"/>
<path d="M 21.0 13.0 L 22.0 13.0"/>
<path d="M 18.65685424949238 18.65685424949238 L 19.36396103067893 19.36396103067893"/>
<path d="M 13.0 21.0 L 13.0 22.0"/>
<path d="M 7.34314575050762 18.656854249492383 A 8 8 0 0 1 5.0 13.000000000000002"/>
<path d="M 5.0 13.0 L 4.0 13.0"/>
<path d="M 7.343145750507619 7.34314575050762 L 6.6360389693210715 6.636038969321072"/>
<path d="M 13.0 4.0 A 9 9 0 0 0 19.36396103067893 6.6360389693210715"/>
<path d="M 6.636038969321071 6.636038969321072 A 9 9 0 0 1 12.999999999999998 4.0"/>
<path d="M 13.000000000000002 4.0 L 13.000000000000002 3.0"/>
<path d="M 13.0 22.0 L 13.0 23.0"/>
<path d="M 6.636038969321072 19.36396103067893 L 5.928932188134525 20.071067811865476"/>
<path d="M 4.0 13.0 L 3.0 13.0"/>
<path d="M 5.928932188134523 5.928932188134525 A 10 10 0 0 1 12.999999999999998 3.0"/>
<path d="M 13.000000000000002 3.0 L 13.000000000000002 2.0"/>
<path d="M 13.0 3.0 A 10 10 0 0 0 20.071067811865476 5.9289321881345245"/>
<path d="M 23.0 13.0 A 10 10 0 0 0 20.071067811865476 20.071067811865476"/>
<path d="M 20.071067811865476 20.071067811865476 L 20.77817459305202 20.77817459305202"/>
<path d="M 13.0 23.0 L 13.0 24.0"/>
<path d="M 5.928932188134525 20.071067811865476 L 5.221825406947978 20.77817459305202"/>
<path d="M 5.928932188134525 20.071067811865476 A 10 10 0 0 1 3.0 13.000000000000002"/>
<path d="M 3.0 13.000000000000002 A 10 10 0 0 0 5.928932188134523 5.928932188134525"/>
<path d="M 13.000000000000002 2.0 L 13.000000000000002 1.0"/>
<path d="M 20.77817459305202 5.221825406947977 A 11 11 0 0 1 24.0 13.0"/>
<path d="M 20.77817459305202 5.221825406947978 L 21.48528137423857 4.5147186257614305"/>
<path d="M 20.77817459305202 20.77817459305202 A 11 11 0 0 1 13.000000000000002 24.0"/>
<path d="M 13.000000000000002 24.0 A 11 11 0 0 0 5.221825406947978 20.778174593052025"/>
<path d="M 5.221825406947978 20.77817459305202 L 4.5147186257614305 21.48528137423857"/>
<path d="M 2.0 13.0 L 1.0 13.0"/>
<path d="M 2.0 13.000000000000002 A 11 11 0 0 0 5.221825406947976 5.221825406947978"/>
<path d="M 4.514718625761429 4.5147186257614305 A 12 12 0 0 1 12.999999999999996 1.0"/>
<path d="M 13.0 1.0 A 12 12 0 0 0 21.485281374238568 4.514718625761429"/>
<path d="M 25.0 13.0 A 12 12 0 0 0 21.48528137423857 21.485281374238568"/>
<path d="M 21.48528137423857 21.485281374238568 A 12 12 0 0 1 13.000000000000002 25.0"/>
<path d="M 13.000000000000002 25.0 A 12 12 0 0 0 4.5147186257614305 21.48528137423857"/>
<path d="M 1.0 13.000000000000002 A 12 12 0 0 0 4.514718625761429 4.5147186257614305"/>
</svg>
</svg>
