<svg viewBox="0 0 10 10" xmlns="http://www.w3.org/2000/svg" style="background-color: #222;">

    <defs>
      <style>
        path {
          stroke: #006aff;
          stroke-width: 0.061637140974088254;
          stroke-linecap: round;
          fill: none;
        }
      </style>
    </defs>
    
<svg x="0" y="0">
<path d="M 5,5 L 5.0,4.0"/>
<path d="M 5.0 4.0 L 5.0 3.0"/>
<path d="M 5.464723172043769 4.11454397434679 A 1 1 0 0 1 5.822983865893656 4.431935253268844"/>
<path d="M 5.464723172043769 4.11454397434679 L 5.929446344087538 3.2290879486935804"/>
<path d="M 5,5 L 4.177016134106344,4.431935253268844"/>
<path d="M 5,5 L 4.007291125901946,4.879463319744676"/>
<path d="M 5,5 L 4.336877341759204,5.748510748171101"/>
<path d="M 5,5 L 5.663122658240795,5.7485107481711015"/>
<path d="M 5,5 L 5.935016242685415,5.354604887042536"/>
<path d="M 4.177016134106344 4.431935253268844 A 1 1 0 0 1 4.535276827956231 4.11454397434679"/>
<path d="M 4.535276827956232 4.11454397434679 L 4.070553655912463 3.22908794869358"/>
<path d="M 5.0 3.0 A 2 2 0 0 1 5.929446344087537 3.2290879486935804"/>
<path d="M 5.929446344087538 3.2290879486935804 L 6.394169516131306 2.3436319230403706"/>
<path d="M 5.992708874098054 4.879463319744677 A 1 1 0 0 1 5.935016242685415 5.354604887042536"/>
<path d="M 5.992708874098054 4.879463319744677 L 6.985417748196108 4.758926639489355"/>
<path d="M 5.935016242685415 5.354604887042536 L 6.87003248537083 5.709209774085071"/>
<path d="M 5.663122658240795 5.7485107481711015 L 6.32624531648159 6.497021496342203"/>
<path d="M 5.239315664287558 5.970941817426052 A 1 1 0 0 1 4.760684335712442 5.970941817426052"/>
<path d="M 4.760684335712442 5.970941817426052 A 1 1 0 0 1 4.336877341759205 5.7485107481711015"/>
<path d="M 4.064983757314585 5.354604887042536 A 1 1 0 0 1 4.007291125901946 4.879463319744677"/>
<path d="M 4.007291125901946 4.879463319744676 L 3.0145822518038923 4.758926639489354"/>
<path d="M 6.645967731787312 3.8638705065376886 A 2 2 0 0 1 6.985417748196108 4.758926639489354"/>
<path d="M 6.645967731787313 3.8638705065376886 L 7.46895159768097 3.2958057598065333"/>
<path d="M 6.985417748196108 4.758926639489355 L 7.9781266222941625 4.638389959234031"/>
<path d="M 6.32624531648159 6.497021496342203 L 6.989367974722385 7.245532244513304"/>
<path d="M 5.478631328575116 6.941883634852104 L 5.7179469928626725 7.912825452278156"/>
<path d="M 4.521368671424885 6.941883634852104 A 2 2 0 0 1 3.67375468351841 6.497021496342203"/>
<path d="M 3.6737546835184096 6.497021496342202 A 2 2 0 0 1 3.1299675146291706 5.709209774085072"/>
<path d="M 3.1299675146291706 5.709209774085072 A 2 2 0 0 1 3.014582251803892 4.7589266394893555"/>
<path d="M 3.1299675146291706 5.709209774085071 L 2.194951271943756 6.063814661127608"/>
<path d="M 3.354032268212687 3.8638705065376886 A 2 2 0 0 1 4.0705536559124615 3.229087948693581"/>
<path d="M 4.070553655912463 3.22908794869358 L 3.6058304838686954 2.3436319230403697"/>
<path d="M 3.605830483868695 2.3436319230403697 A 3 3 0 0 1 4.999999999999999 2.0"/>
<path d="M 7.46895159768097 3.2958057598065333 L 8.291935463574626 2.7277410130753776"/>
<path d="M 7.805048728056244 6.063814661127608 L 8.74006497074166 6.418419548170143"/>
<path d="M 6.989367974722385 7.245532244513304 L 7.652490632963181 7.994042992684405"/>
<path d="M 5.717946992862673 7.912825452278156 A 3 3 0 0 1 4.282053007137327 7.912825452278156"/>
<path d="M 4.2820530071373275 7.912825452278156 A 3 3 0 0 1 3.010632025277615 7.245532244513304"/>
<path d="M 4.2820530071373275 7.912825452278156 L 4.04273734284977 8.883767269704208"/>
<path d="M 3.010632025277614 7.245532244513303 A 3 3 0 0 1 2.194951271943756 6.063814661127608"/>
<path d="M 2.194951271943756 6.063814661127608 L 1.259935029258341 6.418419548170143"/>
<path d="M 2.021873377705838 4.63838995923403 L 1.029164503607784 4.5178532789787065"/>
<path d="M 2.5310484023190303 3.2958057598065333 L 1.7080645364253737 2.7277410130753776"/>
<path d="M 3.6058304838686954 2.3436319230403697 L 3.1411073118249266 1.45817589738716"/>
<path d="M 3.1411073118249266 1.45817589738716 A 4 4 0 0 1 4.999999999999999 1.0"/>
<path d="M 6.858892688175074 1.4581758973871604 A 4 4 0 0 1 8.291935463574625 2.7277410130753768"/>
<path d="M 8.291935463574625 2.7277410130753768 A 4 4 0 0 1 8.970835496392215 4.517853278978708"/>
<path d="M 8.970835496392215 4.517853278978708 A 4 4 0 0 1 8.74006497074166 6.418419548170142"/>
<path d="M 5.95726265715023 8.883767269704208 A 4 4 0 0 1 4.042737342849769 8.883767269704208"/>
<path d="M 2.347509367036819 7.994042992684404 A 4 4 0 0 1 1.259935029258341 6.418419548170144"/>
<path d="M 1.029164503607784 4.517853278978707 A 4 4 0 0 1 1.7080645364253737 2.7277410130753776"/>
<path d="M 1.7080645364253737 2.7277410130753776 A 4 4 0 0 1 3.141107311824923 1.4581758973871617"/>
</svg>
</svg>
