<svg viewBox="0 0 32 32" xmlns="http://www.w3.org/2000/svg" style="background-color: #222;">

    <defs>
      <style>
        path {
          stroke: #eea75a;
          stroke-width: 0.15155317435577567;
          stroke-linecap: round;
          fill: none;
        }
      </style>
    </defs>
    
<svg x="0" y="0">
<path d="M 16.0 15.0 L 16.0 14.0"/>
<path d="M 16.540640817455596 15.158746467168818 L 17.081281634911196 14.317492934337638"/>
<path d="M 15.459359182544402 15.15874646716882 L 14.918718365088804 14.317492934337638"/>
<path d="M 14.918718365088804 14.317492934337638 A 2 2 0 0 0 15.999999999999998 14.0"/>
<path d="M 16.90963199535452 15.584584986998113 L 17.819263990709036 15.169169973996228"/>
<path d="M 17.081281634911196 14.317492934337638 L 17.621922452366793 13.476239401506456"/>
<path d="M 16.989821441880935 16.142314838273286 A 1 1 0 0 1 16.755749574354258 16.654860733945284"/>
<path d="M 17.819263990709036 15.169169973996228 L 18.728895986063556 14.75375496099434"/>
<path d="M 16.755749574354258 16.654860733945284 L 17.511499148708516 17.30972146789057"/>
<path d="M 17.979642883761866 16.28462967654657 L 18.969464325642797 16.426944514819855"/>
<path d="M 16.28173255684143 16.9594929736145 L 16.56346511368286 17.918985947228993"/>
<path d="M 17.511499148708516 17.30972146789057 L 18.267248723062774 17.964582201835857"/>
<path d="M 15.71826744315857 16.9594929736145 A 1 1 0 0 0 15.244250425645742 16.654860733945284"/>
<path d="M 16.56346511368286 17.918985947228993 A 2 2 0 0 1 15.43653488631714 17.918985947228997"/>
<path d="M 15.244250425645742 16.654860733945284 L 14.488500851291484 17.30972146789057"/>
<path d="M 15.43653488631714 17.918985947228997 L 15.15480232947571 18.87847892084349"/>
<path d="M 15.010178558119067 16.142314838273286 A 1 1 0 0 0 15.090368004645482 15.584584986998115"/>
<path d="M 14.488500851291484 17.30972146789057 L 13.732751276937226 17.964582201835857"/>
<path d="M 15.090368004645482 15.584584986998113 L 14.180736009290964 15.169169973996226"/>
<path d="M 14.020357116238134 16.28462967654657 A 2 2 0 0 0 14.180736009290962 15.169169973996228"/>
<path d="M 14.180736009290964 15.169169973996226 L 13.271104013936446 14.753754960994339"/>
<path d="M 14.918718365088804 14.317492934337638 L 14.378077547633206 13.476239401506458"/>
<path d="M 14.378077547633206 13.476239401506458 A 3 3 0 0 0 15.999999999999996 13.0"/>
<path d="M 16.0 13.0 L 16.0 12.0"/>
<path d="M 17.621922452366793 13.476239401506456 L 18.162563269822392 12.634985868675276"/>
<path d="M 18.728895986063556 14.75375496099434 L 19.638527981418072 14.338339947992456"/>
<path d="M 18.969464325642797 16.426944514819855 L 19.95928576752373 16.56925935309314"/>
<path d="M 18.267248723062774 17.964582201835857 A 3 3 0 0 0 16.84519767052429 18.87847892084349"/>
<path d="M 18.267248723062774 17.964582201835857 L 19.022998297417033 18.61944293578114"/>
<path d="M 15.15480232947571 18.87847892084349 L 14.873069772634281 19.83797189445799"/>
<path d="M 13.732751276937226 17.964582201835857 L 12.977001702582967 18.61944293578114"/>
<path d="M 13.030535674357202 16.426944514819855 L 12.040714232476269 16.56925935309314"/>
<path d="M 13.271104013936444 14.753754960994339 A 3 3 0 0 1 14.378077547633207 13.476239401506456"/>
<path d="M 16.0 12.0 A 4 4 0 0 0 18.16256326982239 12.634985868675276"/>
<path d="M 13.837436730177608 12.634985868675276 A 4 4 0 0 0 15.999999999999995 12.0"/>
<path d="M 18.162563269822392 12.634985868675276 L 18.70320408727799 11.793732335844094"/>
<path d="M 19.638527981418072 14.338339947992454 A 4 4 0 0 0 19.95928576752373 16.56925935309314"/>
<path d="M 19.95928576752373 16.56925935309314 A 4 4 0 0 1 19.022998297417033 18.61944293578114"/>
<path d="M 19.022998297417033 18.61944293578114 A 4 4 0 0 0 17.12693022736572 19.83797189445799"/>
<path d="M 17.12693022736572 19.83797189445799 L 17.40866278420715 20.79746486807249"/>
<path d="M 14.873069772634281 19.83797189445799 L 14.591337215792853 20.79746486807249"/>
<path d="M 14.873069772634283 19.83797189445799 A 4 4 0 0 0 12.977001702582967 18.61944293578114"/>
<path d="M 12.040714232476269 16.56925935309314 A 4 4 0 0 0 12.361472018581926 14.338339947992456"/>
<path d="M 12.361472018581928 14.338339947992452 L 11.451840023227408 13.922924934990565"/>
<path d="M 13.837436730177608 12.634985868675276 L 13.29679591272201 11.793732335844096"/>
<path d="M 16.0 11.0 A 5 5 0 0 0 18.70320408727799 11.793732335844094"/>
<path d="M 20.54815997677259 13.922924934990569 A 5 5 0 0 0 20.949107209404666 16.711574191366424"/>
<path d="M 20.949107209404666 16.711574191366424 A 5 5 0 0 1 19.77874787177129 19.274303669726425"/>
<path d="M 20.949107209404662 16.711574191366424 L 21.938928651285597 16.85388902963971"/>
<path d="M 19.77874787177129 19.274303669726425 A 5 5 0 0 0 17.40866278420715 20.79746486807249"/>
<path d="M 17.408662784207152 20.79746486807249 A 5 5 0 0 1 14.591337215792853 20.79746486807249"/>
<path d="M 14.591337215792853 20.79746486807249 A 5 5 0 0 0 12.22125212822871 19.274303669726425"/>
<path d="M 11.050892790595338 16.711574191366427 A 5 5 0 0 0 11.451840023227408 13.92292493499057"/>
<path d="M 11.050892790595338 16.711574191366424 L 10.061071348714403 16.85388902963971"/>
<path d="M 11.451840023227408 13.922924934990565 A 5 5 0 0 1 13.296795912722013 11.793732335844094"/>
<path d="M 11.451840023227408 13.922924934990565 L 10.542208027872892 13.507509921988678"/>
<path d="M 13.29679591272201 11.793732335844096 L 12.756155095266411 10.952478803012916"/>
<path d="M 16.0 10.0 L 16.0 9.0"/>
<path d="M 19.243844904733585 10.952478803012912 A 6 6 0 0 1 21.45779197212711 13.507509921988682"/>
<path d="M 21.45779197212711 13.507509921988682 L 22.367423967481628 13.092094908986795"/>
<path d="M 21.45779197212711 13.507509921988682 A 6 6 0 0 0 21.938928651285597 16.85388902963971"/>
<path d="M 21.938928651285597 16.85388902963971 L 22.928750093166528 16.996203867912996"/>
<path d="M 21.938928651285597 16.85388902963971 A 6 6 0 0 1 20.53449744612555 19.92916440367171"/>
<path d="M 17.69039534104858 21.756957841686983 L 17.972127897890008 22.71645081530148"/>
<path d="M 14.309604658951423 21.756957841686983 L 14.027872102109994 22.71645081530148"/>
<path d="M 11.465502553874451 19.929164403671713 L 10.709752979520193 20.584025137616997"/>
<path d="M 10.061071348714403 16.85388902963971 L 9.071249906833472 16.996203867912996"/>
<path d="M 16.0 9.0 L 16.0 8.0"/>
<path d="M 19.78448572218918 10.11122527018173 A 7 7 0 0 1 22.367423967481628 13.092094908986795"/>
<path d="M 22.367423967481628 13.092094908986795 L 23.277055962836148 12.67667989598491"/>
<path d="M 22.928750093166528 16.996203867912996 A 7 7 0 0 1 21.29024702047981 20.584025137616994"/>
<path d="M 21.29024702047981 20.584025137616994 A 7 7 0 0 0 17.972127897890008 22.71645081530148"/>
<path d="M 17.97212789789001 22.71645081530148 A 7 7 0 0 1 14.027872102109994 22.71645081530148"/>
<path d="M 10.709752979520193 20.584025137616997 A 7 7 0 0 1 9.071249906833472 16.996203867912996"/>
<path d="M 9.071249906833472 16.996203867912996 L 8.081428464952538 17.138518706186282"/>
<path d="M 9.071249906833472 16.996203867912996 A 7 7 0 0 0 9.63257603251837 13.092094908986798"/>
<path d="M 9.632576032518372 13.092094908986793 A 7 7 0 0 1 12.215514277810819 10.11122527018173"/>
<path d="M 11.674873460355215 9.269971737350554 A 8 8 0 0 0 15.999999999999991 8.0"/>
<path d="M 20.32512653964478 9.26997173735055 A 8 8 0 0 1 23.277055962836148 12.676679895984908"/>
<path d="M 23.277055962836148 12.676679895984908 A 8 8 0 0 0 23.918571535047462 17.13851870618628"/>
<path d="M 23.918571535047462 17.13851870618628 A 8 8 0 0 1 22.045996594834065 21.23888587156228"/>
<path d="M 23.918571535047462 17.138518706186282 L 24.908392976928393 17.280833544459565"/>
<path d="M 22.045996594834065 21.23888587156228 A 8 8 0 0 0 18.253860454731438 23.67594378891598"/>
<path d="M 13.746139545268564 23.67594378891598 A 8 8 0 0 0 9.954003405165935 21.23888587156228"/>
<path d="M 13.746139545268564 23.67594378891598 L 13.464406988427134 24.635436762530478"/>
<path d="M 9.954003405165935 21.23888587156228 A 8 8 0 0 1 8.081428464952538 17.138518706186282"/>
<path d="M 8.081428464952538 17.138518706186282 L 7.091607023071607 17.280833544459565"/>
<path d="M 8.081428464952538 17.138518706186282 A 8 8 0 0 0 8.722944037163852 12.676679895984911"/>
<path d="M 8.722944037163854 12.676679895984906 A 8 8 0 0 1 11.67487346035522 9.26997173735055"/>
<path d="M 11.674873460355215 9.269971737350554 L 11.134232642899617 8.428718204519374"/>
<path d="M 16.0 7.0 A 9 9 0 0 0 20.865767357100378 8.42871820451937"/>
<path d="M 11.134232642899615 8.428718204519374 A 9 9 0 0 0 15.99999999999999 7.0"/>
<path d="M 20.865767357100378 8.42871820451937 A 9 9 0 0 1 24.186687958190667 12.261264882983022"/>
<path d="M 24.186687958190667 12.261264882983022 A 9 9 0 0 0 24.908392976928397 17.280833544459565"/>
<path d="M 24.186687958190667 12.261264882983024 L 25.096319953545184 11.845849869981137"/>
<path d="M 22.801746169188327 21.893746605507566 A 9 9 0 0 0 18.535593011572868 24.635436762530475"/>
<path d="M 22.801746169188323 21.893746605507566 L 23.55749574354258 22.54860733945285"/>
<path d="M 18.53559301157287 24.635436762530475 L 18.8173255684143 25.594929736144973"/>
<path d="M 13.464406988427136 24.635436762530478 A 9 9 0 0 0 9.198253830811677 21.893746605507566"/>
<path d="M 9.198253830811677 21.893746605507566 L 8.442504256457418 22.54860733945285"/>
<path d="M 7.813312041809336 12.261264882983019 A 9 9 0 0 1 11.134232642899622 8.42871820451937"/>
<path d="M 7.813312041809336 12.261264882983017 L 6.903680046454818 11.84584986998113"/>
<path d="M 16.0 6.0 A 10 10 0 0 0 21.406408174555978 7.587464671688188"/>
<path d="M 10.593591825444019 7.587464671688192 A 10 10 0 0 0 15.99999999999999 6.0"/>
<path d="M 21.406408174555978 7.587464671688188 L 21.947048992011574 6.746211138857008"/>
<path d="M 25.096319953545184 11.845849869981137 L 26.005951948899703 11.43043485697925"/>
<path d="M 25.096319953545184 11.845849869981135 A 10 10 0 0 0 25.898214418809328 17.42314838273285"/>
<path d="M 25.898214418809328 17.42314838273285 A 10 10 0 0 1 23.55749574354258 22.54860733945285"/>
<path d="M 23.55749574354258 22.54860733945285 L 24.31324531789684 23.203468073398138"/>
<path d="M 13.182674431585706 25.594929736144977 A 10 10 0 0 0 8.442504256457418 22.54860733945285"/>
<path d="M 6.101785581190674 17.42314838273285 L 5.111964139309741 17.565463221006137"/>
<path d="M 10.593591825444019 7.587464671688192 L 10.05295100798842 6.746211138857012"/>
<path d="M 21.947048992011574 6.7462111388570065 A 11 11 0 0 1 26.0059519488997 11.43043485697925"/>
<path d="M 26.005951948899703 11.43043485697925 L 26.915583944254223 11.015019843977363"/>
<path d="M 24.313245317896843 23.203468073398135 A 11 11 0 0 0 19.099058125255727 26.55442270975947"/>
<path d="M 24.31324531789684 23.203468073398138 L 25.068994892251098 23.858328807343423"/>
<path d="M 19.09905812525573 26.55442270975947 A 11 11 0 0 1 12.900941874744277 26.55442270975947"/>
<path d="M 12.900941874744277 26.55442270975947 A 11 11 0 0 0 7.68675468210316 23.203468073398138"/>
<path d="M 7.68675468210316 23.203468073398138 L 6.931005107748902 23.858328807343423"/>
<path d="M 7.68675468210316 23.203468073398138 A 11 11 0 0 1 5.111964139309741 17.565463221006137"/>
<path d="M 5.111964139309741 17.565463221006137 A 11 11 0 0 0 5.994048051100297 11.430434856979254"/>
<path d="M 5.111964139309741 17.565463221006137 L 4.122142697428808 17.70777805927942"/>
<path d="M 16.0 4.0 A 12 12 0 0 0 22.48768980946717 5.904957606025825"/>
<path d="M 22.48768980946717 5.904957606025825 A 12 12 0 0 1 26.91558394425422 11.015019843977363"/>
<path d="M 19.38079068209716 27.513915683373966 A 12 12 0 0 1 12.619209317902847 27.51391568337397"/>
<path d="M 12.619209317902847 27.51391568337397 A 12 12 0 0 0 6.931005107748902 23.858328807343423"/>
<path d="M 12.619209317902847 27.51391568337397 L 12.337476761061417 28.473408656988468"/>
<path d="M 6.931005107748902 23.858328807343423 L 6.175255533394644 24.513189541288707"/>
<path d="M 5.084416055745782 11.015019843977356 L 4.174784060391264 10.59960483097547"/>
<path d="M 5.0844160557457805 11.015019843977358 A 12 12 0 0 1 9.51231019053283 5.904957606025825"/>
<path d="M 9.512310190532821 5.904957606025832 A 12 12 0 0 0 15.999999999999986 4.0"/>
<path d="M 16.0 3.0 L 16.0 2.0"/>
<path d="M 23.028330626922767 5.0637040731946446 A 13 13 0 0 1 27.82521593960874 10.599604830975476"/>
<path d="M 27.877857302571194 17.70777805927942 L 28.867678744452125 17.850092897552706"/>
<path d="M 27.82521593960874 10.599604830975476 A 13 13 0 0 0 28.867678744452128 17.850092897552706"/>
<path d="M 27.82521593960874 10.599604830975478 L 28.73484793496326 10.184189817973591"/>
<path d="M 28.867678744452128 17.850092897552706 A 13 13 0 0 1 25.82474446660536 24.513189541288703"/>
<path d="M 25.824744466605356 24.513189541288707 L 26.580494040959614 25.168050275233995"/>
<path d="M 19.66252323893859 28.473408656988465 A 13 13 0 0 1 12.337476761061417 28.473408656988468"/>
<path d="M 19.66252323893859 28.473408656988465 L 19.94425579578002 29.432901630602963"/>
<path d="M 6.175255533394644 24.513189541288707 A 13 13 0 0 1 3.1323212555478754 17.85009289755271"/>
<path d="M 8.971669373077225 5.06370407319465 L 8.431028555621626 4.22245054036347"/>
<path d="M 8.431028555621625 4.22245054036347 A 14 14 0 0 0 15.999999999999984 2.0"/>
<path d="M 16.0 2.0 A 14 14 0 0 0 23.568971444378366 4.222450540363463"/>
<path d="M 16.0 2.0 L 16.000000000000004 1.0"/>
<path d="M 23.56897144437837 4.2224505403634645 L 24.109612261833966 3.3811970075322844"/>
<path d="M 28.73484793496326 10.184189817973591 L 29.64447993031778 9.768774804971706"/>
<path d="M 29.85750018633306 17.99240773582599 A 14 14 0 0 1 26.580494040959618 25.168050275233988"/>
<path d="M 29.857500186333056 17.992407735825992 L 30.84732162821399 18.13472257409928"/>
<path d="M 26.580494040959614 25.168050275233995 L 27.336243615313872 25.82291100917928"/>
<path d="M 19.94425579578002 29.432901630602963 A 14 14 0 0 1 12.055744204219987 29.432901630602963"/>
<path d="M 12.055744204219987 29.432901630602963 A 14 14 0 0 0 5.419505959040386 25.168050275233995"/>
<path d="M 12.055744204219987 29.432901630602963 L 11.774011647378558 30.39239460421746"/>
<path d="M 5.419505959040386 25.168050275233995 A 14 14 0 0 1 2.1424998136669426 17.992407735825992"/>
<path d="M 2.1424998136669426 17.992407735825992 A 14 14 0 0 0 3.265152065036741 10.184189817973596"/>
<path d="M 3.2651520650367463 10.184189817973582 L 2.3555200696822283 9.768774804971695"/>
<path d="M 3.2651520650367445 10.184189817973586 A 14 14 0 0 1 8.431028555621635 4.222450540363463"/>
<path d="M 7.890387738166027 3.381197007532288 A 15 15 0 0 0 15.999999999999982 1.0"/>
<path d="M 24.109612261833963 3.3811970075322826 A 15 15 0 0 1 29.644479930317775 9.768774804971702"/>
<path d="M 20.22598835262145 30.392394604217458 A 15 15 0 0 1 11.774011647378558 30.39239460421746"/>
<path d="M 11.774011647378558 30.39239460421746 A 15 15 0 0 0 4.663756384686128 25.82291100917928"/>
<path d="M 1.1526783717860098 18.13472257409928 A 15 15 0 0 0 2.355520069682221 9.76877480497171"/>
</svg>
</svg>
