<svg viewBox="0 0 14 14" xmlns="http://www.w3.org/2000/svg" style="background-color: #222;">

    <defs>
      <style>
        path {
          stroke: #e1abeb;
          stroke-width: 0.3101603062418248;
          stroke-linecap: round;
          fill: none;
        }
      </style>
    </defs>
    
<svg x="0" y="0">
<path d="M 7.0 6.0 L 7.0 5.0"/>
<path d="M 7.0 6.0 A 1 1 0 0 0 7.4067366430758 6.086454542357399"/>
<path d="M 7.4067366430758 6.086454542357399 A 1 1 0 0 1 7.743144825477394 6.330869393641142"/>
<path d="M 6.256855174522606 6.330869393641142 A 1 1 0 0 1 6.5932633569242 6.086454542357399"/>
<path d="M 6.5932633569242 6.086454542357399 L 6.1865267138484 5.172909084714798"/>
<path d="M 7.0 5.0 L 7.0 4.0"/>
<path d="M 7.0 5.0 A 2 2 0 0 0 7.8134732861516 5.1729090847147985"/>
<path d="M 7.743144825477394 6.330869393641142 L 8.486289650954788 5.6617387872822835"/>
<path d="M 7.813473286151601 5.1729090847147985 L 8.220209929227401 4.259363627072197"/>
<path d="M 7.951056516295154 6.6909830056250525 L 8.902113032590307 6.381966011250105"/>
<path d="M 8.486289650954788 5.6617387872822835 A 2 2 0 0 0 8.902113032590307 6.381966011250105"/>
<path d="M 7.9945218953682735 7.104528463267654 L 8.989043790736547 7.209056926535307"/>
<path d="M 7.866025403784439 7.5 A 1 1 0 0 1 7.587785252292473 7.8090169943749475"/>
<path d="M 8.989043790736547 7.209056926535307 A 2 2 0 0 0 8.732050807568879 8.0"/>
<path d="M 7.587785252292473 7.8090169943749475 A 1 1 0 0 0 7.20791169081776 7.978147600733806"/>
<path d="M 8.732050807568877 8.0 L 9.598076211353316 8.5"/>
<path d="M 8.732050807568879 8.0 A 2 2 0 0 1 8.175570504584947 8.618033988749895"/>
<path d="M 7.20791169081776 7.978147600733806 L 7.415823381635518 8.956295201467611"/>
<path d="M 7.20791169081776 7.978147600733806 A 1 1 0 0 1 6.79208830918224 7.978147600733806"/>
<path d="M 8.175570504584947 8.618033988749895 A 2 2 0 0 0 7.415823381635518 8.956295201467611"/>
<path d="M 6.792088309182241 7.978147600733806 A 1 1 0 0 0 6.412214747707527 7.8090169943749475"/>
<path d="M 7.415823381635518 8.956295201467611 L 7.623735072453277 9.934442802201417"/>
<path d="M 6.412214747707527 7.8090169943749475 L 5.824429495415053 8.618033988749895"/>
<path d="M 6.584176618364482 8.956295201467611 A 2 2 0 0 0 5.824429495415054 8.618033988749895"/>
<path d="M 6.584176618364482 8.956295201467611 L 6.376264927546723 9.934442802201417"/>
<path d="M 6.133974596215562 7.5 L 5.267949192431123 8.0"/>
<path d="M 5.824429495415054 8.618033988749895 A 2 2 0 0 1 5.267949192431123 8.0"/>
<path d="M 6.0054781046317265 7.104528463267654 L 5.010956209263453 7.209056926535308"/>
<path d="M 6.0054781046317265 7.104528463267655 A 1 1 0 0 1 6.048943483704846 6.690983005625053"/>
<path d="M 6.048943483704846 6.6909830056250525 L 5.097886967409693 6.381966011250105"/>
<path d="M 5.097886967409693 6.381966011250105 A 2 2 0 0 0 5.51371034904521 5.661738787282284"/>
<path d="M 5.513710349045212 5.661738787282283 L 4.770565523567818 4.992608180923424"/>
<path d="M 5.513710349045212 5.6617387872822835 A 2 2 0 0 1 6.1865267138484 5.172909084714798"/>
<path d="M 5.7797900707725995 4.259363627072197 A 3 3 0 0 0 6.999999999999999 4.0"/>
<path d="M 8.220209929227401 4.259363627072197 A 3 3 0 0 1 9.229434476432182 4.992608180923424"/>
<path d="M 8.220209929227401 4.259363627072197 L 8.626946572303202 3.345818169429597"/>
<path d="M 9.229434476432182 4.992608180923424 A 3 3 0 0 0 9.853169548885461 6.072949016875158"/>
<path d="M 9.853169548885461 6.072949016875158 A 3 3 0 0 1 9.98356568610482 7.31358538980296"/>
<path d="M 9.98356568610482 7.31358538980296 A 3 3 0 0 0 9.598076211353316 8.5"/>
<path d="M 8.76335575687742 9.427050983124843 L 9.351141009169893 10.23606797749979"/>
<path d="M 6.376264927546723 9.934442802201417 A 3 3 0 0 0 5.236644243122581 9.427050983124843"/>
<path d="M 5.236644243122581 9.427050983124843 L 4.6488589908301075 10.23606797749979"/>
<path d="M 5.236644243122581 9.427050983124843 A 3 3 0 0 1 4.401923788646685 8.500000000000002"/>
<path d="M 4.401923788646684 8.5 L 3.535898384862246 9.000000000000002"/>
<path d="M 4.401923788646685 8.500000000000002 A 3 3 0 0 0 4.01643431389518 7.313585389802963"/>
<path d="M 4.146830451114539 6.0729490168751585 A 3 3 0 0 0 4.770565523567816 4.992608180923426"/>
<path d="M 4.146830451114539 6.072949016875158 L 3.1957739348193854 5.76393202250021"/>
<path d="M 4.770565523567818 4.992608180923424 L 4.027420698090424 4.323477574564565"/>
<path d="M 4.770565523567818 4.992608180923424 A 3 3 0 0 1 5.7797900707725995 4.259363627072197"/>
<path d="M 7.0 3.0 A 4 4 0 0 0 8.6269465723032 3.3458181694295965"/>
<path d="M 8.6269465723032 3.3458181694295965 A 4 4 0 0 1 9.972579301909576 4.323477574564567"/>
<path d="M 8.626946572303202 3.345818169429597 L 9.033683215379002 2.4322727117869967"/>
<path d="M 9.972579301909576 4.323477574564567 L 10.71572412738697 3.654346968205709"/>
<path d="M 10.804226065180615 5.76393202250021 L 11.755282581475768 5.454915028125264"/>
<path d="M 10.804226065180615 5.76393202250021 A 4 4 0 0 1 10.978087581473094 7.418113853070613"/>
<path d="M 10.978087581473094 7.418113853070613 A 4 4 0 0 0 10.464101615137755 9.0"/>
<path d="M 10.978087581473094 7.418113853070614 L 11.972609476841367 7.522642316338267"/>
<path d="M 9.351141009169893 10.23606797749979 L 9.938926261462367 11.045084971874736"/>
<path d="M 7.831646763271037 10.912590402935223 A 4 4 0 0 1 6.1683532367289615 10.912590402935223"/>
<path d="M 6.168353236728963 10.912590402935223 L 5.960441545911204 11.890738003669028"/>
<path d="M 6.168353236728963 10.912590402935223 A 4 4 0 0 0 4.648858990830108 10.23606797749979"/>
<path d="M 4.6488589908301075 10.23606797749979 L 4.061073738537634 11.045084971874736"/>
<path d="M 3.5358983848622465 9.000000000000002 A 4 4 0 0 0 3.021912418526907 7.418113853070617"/>
<path d="M 3.1957739348193854 5.76393202250021 L 2.244717418524232 5.454915028125264"/>
<path d="M 4.027420698090424 4.323477574564565 L 3.28427587261303 3.654346968205707"/>
<path d="M 4.027420698090424 4.323477574564566 A 4 4 0 0 1 5.373053427696799 3.345818169429596"/>
<path d="M 5.373053427696799 3.345818169429596 L 4.966316784621 2.432272711786995"/>
<path d="M 4.966316784620999 2.432272711786995 A 5 5 0 0 0 6.999999999999999 2.0"/>
<path d="M 9.033683215379002 2.4322727117869967 L 9.440419858454803 1.5187272541443955"/>
<path d="M 11.755282581475768 5.454915028125264 L 12.706339097770922 5.145898033750316"/>
<path d="M 11.972609476841367 7.522642316338267 A 5 5 0 0 0 11.330127018922195 9.5"/>
<path d="M 11.330127018922195 9.5 A 5 5 0 0 1 9.938926261462367 11.045084971874736"/>
<path d="M 11.330127018922195 9.5 L 12.196152422706632 10.0"/>
<path d="M 9.938926261462367 11.045084971874736 A 5 5 0 0 0 8.039558454088796 11.890738003669028"/>
<path d="M 9.938926261462367 11.045084971874736 L 10.526711513754838 11.854101966249685"/>
<path d="M 4.061073738537634 11.045084971874736 L 3.473288486245161 11.854101966249685"/>
<path d="M 4.061073738537635 11.045084971874736 A 5 5 0 0 1 2.669872981077808 9.500000000000002"/>
<path d="M 2.0273905231586333 7.5226423163382705 L 1.0328686277903607 7.627170779605924"/>
<path d="M 4.966316784621 2.432272711786995 L 4.5595801415452 1.5187272541443946"/>
<path d="M 4.559580141545199 1.5187272541443946 A 6 6 0 0 0 6.999999999999998 1.0"/>
<path d="M 9.440419858454801 1.5187272541443946 A 6 6 0 0 1 11.458868952864364 2.9852163618468497"/>
<path d="M 11.458868952864364 2.9852163618468497 A 6 6 0 0 0 12.706339097770922 5.145898033750315"/>
<path d="M 12.96713137220964 7.62717077960592 A 6 6 0 0 0 12.196152422706632 9.999999999999998"/>
<path d="M 8.247470144906556 12.868885604402834 A 6 6 0 0 1 5.752529855093443 12.868885604402834"/>
<path d="M 5.752529855093446 12.868885604402834 A 6 6 0 0 0 3.4732884862451616 11.854101966249685"/>
<path d="M 3.4732884862451616 11.854101966249685 A 6 6 0 0 1 1.8038475772933698 10.000000000000004"/>
<path d="M 1.8038475772933698 10.000000000000004 A 6 6 0 0 0 1.0328686277903607 7.627170779605925"/>
<path d="M 1.2936609022290781 5.145898033750317 A 6 6 0 0 0 2.5411310471356323 2.9852163618468532"/>
<path d="M 2.541131047135636 2.985216361846849 A 6 6 0 0 1 4.559580141545199 1.5187272541443946"/>
</svg>
</svg>
