<svg viewBox="0 0 7 7" xmlns="http://www.w3.org/2000/svg" style="background-color: #ffece0;">

    <defs>
      <style>
        path {
          stroke: #a33f00;
          stroke-width: 0.5606242777900394;
          stroke-linecap: round;
          fill: none;
        }
      </style>
    </defs>
    
<svg x="0" y="0">
<path d="M 1,1 L 1,2"/>
<path d="M 1,1 L 2,1"/>
<path d="M 1,2 L 2,2"/>
<path d="M 3,1 L 3,2"/>
<path d="M 2,2 L 3,2"/>
<path d="M 2,2 L 2,3"/>
<path d="M 1,3 L 2,3"/>
<path d="M 3,2 L 4,2"/>
<path d="M 2,3 L 2,4"/>
<path d="M 1,4 L 2,4"/>
<path d="M 3,3 L 3,4"/>
<path d="M 2,4 L 3,4"/>
<path d="M 1,5 L 2,5"/>
<path d="M 1,5 L 1,6"/>
<path d="M 3,4 L 4,4"/>
<path d="M 1,6 L 2,6"/>
<path d="M 3,5 L 4,5"/>
<path d="M 3,5 L 3,6"/>
<path d="M 2,6 L 3,6"/>
<path d="M 4,1 L 4,2"/>
<path d="M 4,3 L 4,4"/>
<path d="M 4,3 L 5,3"/>
<path d="M 4,4 L 4,5"/>
<path d="M 4,5 L 4,6"/>
<path d="M 4,6 L 5,6"/>
<path d="M 5,1 L 6,1"/>
<path d="M 5,1 L 5,2"/>
<path d="M 5,2 L 5,3"/>
<path d="M 5,3 L 6,3"/>
<path d="M 5,4 L 6,4"/>
<path d="M 5,5 L 6,5"/>
<path d="M 5,6 L 6,6"/>
<path d="M 6,1 L 6,2"/>
<path d="M 6,3 L 6,4"/>
<path d="M 6,5 L 6,6"/>
</svg>
</svg>
