<svg viewBox="0 0 10 10" xmlns="http://www.w3.org/2000/svg" style="background-color: #222;">

    <defs>
      <style>
        path {
          stroke: #bcc4f2;
          stroke-width: 0.1303582324294687;
          stroke-linecap: round;
          fill: none;
        }
      </style>
    </defs>
    
<svg x="0" y="0">
<path d="M 5.0 4.0 L 5.0 3.0"/>
<path d="M 4.5932633569242 4.086454542357399 A 1 1 0 0 1 5.0 4.0"/>
<path d="M 5.4067366430758 4.086454542357399 A 1 1 0 0 1 5.743144825477394 4.330869393641142"/>
<path d="M 5.4067366430758 4.0864545423574 L 5.813473286151601 3.1729090847147985"/>
<path d="M 5,5 L 4.412214747707527,5.8090169943749475"/>
<path d="M 5,5 L 4.79208830918224,5.978147600733806"/>
<path d="M 5,5 L 5.587785252292473,5.8090169943749475"/>
<path d="M 5,5 L 4.133974596215562,5.5"/>
<path d="M 5,5 L 4.256855174522606,4.330869393641142"/>
<path d="M 4.5932633569242 4.086454542357399 L 4.1865267138484 3.172909084714798"/>
<path d="M 5.0 3.0 A 2 2 0 0 1 5.8134732861516 3.1729090847147985"/>
<path d="M 5.0 3.0 L 5.0 2.0"/>
<path d="M 5.743144825477394 4.330869393641142 A 1 1 0 0 1 5.951056516295154 4.6909830056250525"/>
<path d="M 5.951056516295154 4.6909830056250525 A 1 1 0 0 1 5.9945218953682735 5.104528463267654"/>
<path d="M 5.9945218953682735 5.104528463267654 L 6.989043790736547 5.209056926535307"/>
<path d="M 5.866025403784438 5.5 L 6.732050807568878 6.0"/>
<path d="M 5.587785252292473 5.8090169943749475 L 6.175570504584947 6.618033988749895"/>
<path d="M 5.20791169081776 5.978147600733806 L 5.415823381635518 6.956295201467611"/>
<path d="M 4.79208830918224 5.978147600733806 L 4.584176618364482 6.956295201467611"/>
<path d="M 4.412214747707527 5.8090169943749475 L 3.8244294954150537 6.618033988749895"/>
<path d="M 4.133974596215562 5.5 A 1 1 0 0 1 4.0054781046317265 5.104528463267655"/>
<path d="M 4.133974596215562 5.5 L 3.2679491924311233 6.000000000000001"/>
<path d="M 4.0054781046317265 5.104528463267654 L 3.0109562092634534 5.209056926535308"/>
<path d="M 4.048943483704846 4.6909830056250525 L 3.0978869674096927 4.381966011250105"/>
<path d="M 4.048943483704846 4.6909830056250525 A 1 1 0 0 1 4.256855174522605 4.330869393641143"/>
<path d="M 4.256855174522606 4.330869393641142 L 3.513710349045212 3.6617387872822826"/>
<path d="M 6.486289650954788 3.6617387872822835 A 2 2 0 0 1 6.902113032590307 4.381966011250105"/>
<path d="M 6.902113032590307 4.381966011250105 L 7.853169548885461 4.072949016875158"/>
<path d="M 6.902113032590307 4.381966011250105 A 2 2 0 0 1 6.989043790736547 5.209056926535307"/>
<path d="M 6.989043790736547 5.209056926535307 A 2 2 0 0 1 6.732050807568878 6.0"/>
<path d="M 6.989043790736547 5.209056926535307 L 7.98356568610482 5.31358538980296"/>
<path d="M 6.732050807568878 6.0 L 7.598076211353316 6.5"/>
<path d="M 5.415823381635518 6.956295201467611 A 2 2 0 0 1 4.584176618364481 6.956295201467611"/>
<path d="M 5.415823381635518 6.956295201467611 L 5.623735072453277 7.934442802201417"/>
<path d="M 4.584176618364482 6.956295201467611 L 4.376264927546723 7.934442802201417"/>
<path d="M 3.0109562092634534 5.209056926535308 L 2.0164343138951804 5.313585389802962"/>
<path d="M 3.513710349045212 3.6617387872822826 L 2.770565523567818 2.9926081809234244"/>
<path d="M 5.0 2.0 A 3 3 0 0 1 6.2202099292274005 2.2593636270721973"/>
<path d="M 5.0 2.0 L 5.000000000000001 1.0"/>
<path d="M 3.7797900707725995 2.2593636270721973 A 3 3 0 0 1 4.999999999999999 2.0"/>
<path d="M 7.229434476432183 2.9926081809234253 L 7.972579301909577 2.323477574564567"/>
<path d="M 7.229434476432182 2.992608180923425 A 3 3 0 0 1 7.853169548885461 4.072949016875158"/>
<path d="M 7.853169548885461 4.072949016875158 L 8.804226065180615 3.7639320225002106"/>
<path d="M 7.98356568610482 5.31358538980296 L 8.978087581473094 5.418113853070614"/>
<path d="M 7.598076211353316 6.499999999999999 A 3 3 0 0 1 6.76335575687742 7.4270509831248415"/>
<path d="M 6.763355756877419 7.427050983124842 L 7.3511410091698925 8.23606797749979"/>
<path d="M 6.76335575687742 7.4270509831248415 A 3 3 0 0 1 5.623735072453278 7.934442802201417"/>
<path d="M 5.623735072453277 7.934442802201417 L 5.831646763271037 8.912590402935223"/>
<path d="M 4.376264927546723 7.934442802201417 A 3 3 0 0 1 3.236644243122581 7.427050983124842"/>
<path d="M 3.236644243122581 7.427050983124842 L 2.6488589908301075 8.23606797749979"/>
<path d="M 3.236644243122581 7.427050983124842 A 3 3 0 0 1 2.401923788646685 6.500000000000002"/>
<path d="M 2.0164343138951804 5.313585389802963 A 3 3 0 0 1 2.146830451114538 4.07294901687516"/>
<path d="M 2.146830451114539 4.072949016875158 L 1.1957739348193854 3.7639320225002106"/>
<path d="M 3.7797900707726 2.2593636270721973 L 3.3730534276968 1.345818169429596"/>
<path d="M 6.626946572303201 1.3458181694295965 A 4 4 0 0 1 7.972579301909576 2.3234775745645666"/>
<path d="M 8.464101615137755 6.999999999999999 A 4 4 0 0 1 7.351141009169893 8.23606797749979"/>
<path d="M 5.831646763271037 8.912590402935223 A 4 4 0 0 1 4.1683532367289615 8.912590402935223"/>
<path d="M 2.648858990830108 8.23606797749979 A 4 4 0 0 1 1.5358983848622465 7.000000000000002"/>
<path d="M 1.5358983848622465 7.000000000000002 A 4 4 0 0 1 1.0219124185269068 5.418113853070617"/>
<path d="M 2.027420698090424 2.323477574564566 A 4 4 0 0 1 3.3730534276967994 1.345818169429596"/>
</svg>
</svg>
