<svg viewBox="0 0 30 30" xmlns="http://www.w3.org/2000/svg" style="background-color: #222;">

    <defs>
      <style>
        path {
          stroke: #76a1e8;
          stroke-width: 0.15180415169747416;
          stroke-linecap: round;
          fill: none;
        }
      </style>
    </defs>
    
<svg x="0" y="0">
<path d="M 15.0 14.0 L 15.0 13.0"/>
<path d="M 14.5932633569242 14.0864545423574 A 1 1 0 0 0 15.0 14.0"/>
<path d="M 15.406736643075801 14.0864545423574 L 15.8134732861516 13.1729090847148"/>
<path d="M 15.0 13.0 L 15.0 12.0"/>
<path d="M 14.1865267138484 13.172909084714798 A 2 2 0 0 0 15.0 13.0"/>
<path d="M 15.743144825477394 14.33086939364114 L 16.486289650954788 13.661738787282284"/>
<path d="M 15.8134732861516 13.1729090847148 L 16.2202099292274 12.259363627072197"/>
<path d="M 15.8134732861516 13.172909084714798 A 2 2 0 0 1 16.486289650954788 13.661738787282284"/>
<path d="M 15.951056516295154 14.690983005625053 L 16.902113032590307 14.381966011250105"/>
<path d="M 16.486289650954788 13.661738787282284 L 17.229434476432182 12.992608180923426"/>
<path d="M 15.994521895368273 15.104528463267654 L 16.989043790736545 15.209056926535307"/>
<path d="M 16.902113032590307 14.381966011250105 L 17.85316954888546 14.072949016875159"/>
<path d="M 16.902113032590307 14.381966011250105 A 2 2 0 0 1 16.989043790736545 15.209056926535307"/>
<path d="M 15.86602540378444 15.5 A 1 1 0 0 1 15.587785252292473 15.809016994374947"/>
<path d="M 16.989043790736545 15.209056926535307 A 2 2 0 0 0 16.73205080756888 16.0"/>
<path d="M 15.587785252292473 15.809016994374947 L 16.175570504584947 16.618033988749893"/>
<path d="M 15.587785252292473 15.809016994374947 A 1 1 0 0 0 15.20791169081776 15.978147600733806"/>
<path d="M 15.20791169081776 15.978147600733806 A 1 1 0 0 1 14.79208830918224 15.978147600733806"/>
<path d="M 16.175570504584947 16.618033988749893 A 2 2 0 0 0 15.41582338163552 16.95629520146761"/>
<path d="M 15.41582338163552 16.95629520146761 L 15.623735072453277 17.934442802201417"/>
<path d="M 15.41582338163552 16.95629520146761 A 2 2 0 0 1 14.58417661836448 16.95629520146761"/>
<path d="M 14.412214747707527 15.809016994374947 L 13.824429495415053 16.618033988749893"/>
<path d="M 14.412214747707527 15.809016994374947 A 1 1 0 0 1 14.133974596215563 15.5"/>
<path d="M 14.133974596215563 15.5 A 1 1 0 0 0 14.005478104631727 15.104528463267654"/>
<path d="M 13.824429495415053 16.618033988749893 A 2 2 0 0 1 13.267949192431123 16.0"/>
<path d="M 14.005478104631727 15.104528463267654 A 1 1 0 0 1 14.048943483704846 14.690983005625053"/>
<path d="M 14.048943483704846 14.690983005625053 L 13.097886967409693 14.381966011250105"/>
<path d="M 13.010956209263453 15.20905692653531 A 2 2 0 0 1 13.097886967409693 14.381966011250107"/>
<path d="M 13.010956209263453 15.209056926535307 L 12.01643431389518 15.313585389802963"/>
<path d="M 14.256855174522606 14.33086939364114 L 13.513710349045212 13.661738787282284"/>
<path d="M 13.097886967409693 14.381966011250105 A 2 2 0 0 0 13.51371034904521 13.661738787282285"/>
<path d="M 13.513710349045212 13.661738787282284 L 12.770565523567818 12.992608180923424"/>
<path d="M 13.513710349045212 13.661738787282284 A 2 2 0 0 1 14.1865267138484 13.172909084714798"/>
<path d="M 13.779790070772599 12.259363627072197 A 3 3 0 0 0 15.0 12.0"/>
<path d="M 17.229434476432182 12.992608180923424 A 3 3 0 0 0 17.85316954888546 14.072949016875157"/>
<path d="M 17.85316954888546 14.072949016875159 L 18.804226065180615 13.76393202250021"/>
<path d="M 17.85316954888546 14.072949016875157 A 3 3 0 0 1 17.98356568610482 15.31358538980296"/>
<path d="M 17.98356568610482 15.31358538980296 A 3 3 0 0 0 17.598076211353316 16.5"/>
<path d="M 16.76335575687742 17.427050983124843 L 17.351141009169893 18.23606797749979"/>
<path d="M 15.623735072453277 17.934442802201417 L 15.831646763271037 18.912590402935223"/>
<path d="M 14.376264927546723 17.934442802201417 L 14.168353236728963 18.912590402935223"/>
<path d="M 13.23664424312258 17.427050983124843 L 12.648858990830107 18.23606797749979"/>
<path d="M 13.23664424312258 17.427050983124843 A 3 3 0 0 1 12.401923788646684 16.5"/>
<path d="M 12.401923788646684 16.5 L 11.535898384862247 17.0"/>
<path d="M 12.401923788646684 16.5 A 3 3 0 0 0 12.01643431389518 15.313585389802963"/>
<path d="M 12.01643431389518 15.313585389802963 A 3 3 0 0 1 12.146830451114539 14.07294901687516"/>
<path d="M 12.146830451114539 14.072949016875159 L 11.195773934819385 13.76393202250021"/>
<path d="M 12.770565523567818 12.992608180923424 L 12.027420698090424 12.323477574564565"/>
<path d="M 15.0 11.0 A 4 4 0 0 0 16.6269465723032 11.345818169429597"/>
<path d="M 15.0 11.0 L 15.0 10.0"/>
<path d="M 13.3730534276968 11.345818169429595 A 4 4 0 0 0 14.999999999999998 11.0"/>
<path d="M 16.6269465723032 11.345818169429597 A 4 4 0 0 1 17.972579301909576 12.323477574564567"/>
<path d="M 17.972579301909576 12.323477574564567 L 18.71572412738697 11.654346968205708"/>
<path d="M 18.804226065180615 13.76393202250021 A 4 4 0 0 1 18.978087581473094 15.418113853070613"/>
<path d="M 18.804226065180615 13.76393202250021 L 19.755282581475768 13.454915028125264"/>
<path d="M 18.464101615137753 17.0 L 19.330127018922195 17.5"/>
<path d="M 18.464101615137757 17.0 A 4 4 0 0 1 17.351141009169893 18.23606797749979"/>
<path d="M 17.351141009169893 18.23606797749979 A 4 4 0 0 0 15.831646763271037 18.912590402935223"/>
<path d="M 14.168353236728963 18.912590402935223 L 13.960441545911204 19.89073800366903"/>
<path d="M 12.648858990830107 18.23606797749979 L 12.061073738537633 19.045084971874736"/>
<path d="M 11.535898384862247 17.0 A 4 4 0 0 0 11.021912418526906 15.418113853070617"/>
<path d="M 15.0 10.0 A 5 5 0 0 0 17.033683215379 10.432272711786997"/>
<path d="M 12.966316784621 10.432272711786995 A 5 5 0 0 0 14.999999999999998 10.0"/>
<path d="M 15.0 10.0 L 15.0 9.0"/>
<path d="M 18.71572412738697 11.654346968205708 A 5 5 0 0 0 19.755282581475768 13.454915028125264"/>
<path d="M 19.755282581475768 13.454915028125264 L 20.706339097770922 13.145898033750315"/>
<path d="M 19.755282581475768 13.454915028125264 A 5 5 0 0 1 19.972609476841367 15.522642316338267"/>
<path d="M 19.972609476841367 15.522642316338267 A 5 5 0 0 0 19.330127018922195 17.5"/>
<path d="M 19.330127018922195 17.5 L 20.196152422706632 18.0"/>
<path d="M 17.938926261462367 19.045084971874736 L 18.52671151375484 19.854101966249686"/>
<path d="M 17.938926261462367 19.045084971874736 A 5 5 0 0 0 16.039558454088798 19.89073800366903"/>
<path d="M 16.039558454088795 19.89073800366903 L 16.247470144906554 20.868885604402834"/>
<path d="M 16.039558454088798 19.89073800366903 A 5 5 0 0 1 13.960441545911202 19.89073800366903"/>
<path d="M 13.960441545911205 19.89073800366903 A 5 5 0 0 0 12.061073738537635 19.045084971874736"/>
<path d="M 12.061073738537633 19.045084971874736 L 11.473288486245162 19.854101966249686"/>
<path d="M 10.669872981077809 17.500000000000004 A 5 5 0 0 0 10.027390523158633 15.52264231633827"/>
<path d="M 10.669872981077807 17.5 L 9.803847577293368 18.0"/>
<path d="M 10.027390523158633 15.52264231633827 L 9.03286862779036 15.627170779605924"/>
<path d="M 10.244717418524232 13.454915028125264 L 9.293660902229078 13.145898033750315"/>
<path d="M 11.28427587261303 11.654346968205708 L 10.541131047135636 10.985216361846849"/>
<path d="M 11.28427587261303 11.654346968205708 A 5 5 0 0 1 12.966316784621 10.432272711786995"/>
<path d="M 12.559580141545199 9.518727254144395 A 6 6 0 0 0 14.999999999999998 9.0"/>
<path d="M 17.440419858454803 9.518727254144395 L 17.847156501530602 8.605181796501794"/>
<path d="M 17.440419858454803 9.518727254144395 A 6 6 0 0 1 19.458868952864364 10.985216361846849"/>
<path d="M 19.458868952864364 10.985216361846849 A 6 6 0 0 0 20.706339097770922 13.145898033750315"/>
<path d="M 20.706339097770922 13.145898033750315 L 21.657395614066075 12.836881039375369"/>
<path d="M 20.96713137220964 15.62717077960592 A 6 6 0 0 0 20.196152422706632 18.0"/>
<path d="M 20.196152422706632 18.0 A 6 6 0 0 1 18.52671151375484 19.854101966249683"/>
<path d="M 16.247470144906554 20.868885604402834 L 16.455381835724314 21.84703320513664"/>
<path d="M 11.473288486245162 19.854101966249686 L 10.885503233952688 20.663118960624633"/>
<path d="M 11.473288486245162 19.854101966249686 A 6 6 0 0 1 9.80384757729337 18.000000000000004"/>
<path d="M 9.803847577293368 18.0 L 8.93782217350893 18.500000000000004"/>
<path d="M 9.293660902229078 13.145898033750317 A 6 6 0 0 0 10.541131047135632 10.985216361846852"/>
<path d="M 15.0 8.0 L 15.000000000000002 7.0"/>
<path d="M 21.657395614066075 12.836881039375367 A 7 7 0 0 1 21.961653267577915 15.731699242873573"/>
<path d="M 21.657395614066075 12.836881039375369 L 22.60845213036123 12.52786404500042"/>
<path d="M 21.062177826491073 18.5 A 7 7 0 0 1 19.114496766047314 20.66311896062463"/>
<path d="M 19.114496766047314 20.66311896062463 A 7 7 0 0 0 16.455381835724314 21.84703320513664"/>
<path d="M 19.11449676604731 20.663118960624633 L 19.702282018339787 21.47213595499958"/>
<path d="M 16.455381835724314 21.84703320513664 A 7 7 0 0 1 13.544618164275683 21.84703320513664"/>
<path d="M 8.93782217350893 18.500000000000004 L 8.071796769724493 19.000000000000004"/>
<path d="M 8.038346732422088 15.73169924287358 A 7 7 0 0 1 8.342604385933923 12.836881039375376"/>
<path d="M 8.038346732422088 15.731699242873578 L 7.043824837053814 15.836227706141234"/>
<path d="M 9.797986221658242 10.31608575548799 A 7 7 0 0 1 12.152843498469398 8.605181796501792"/>
<path d="M 9.797986221658242 10.31608575548799 L 9.054841396180848 9.64695514912913"/>
<path d="M 12.1528434984694 8.605181796501792 L 11.746106855393599 7.691636338859192"/>
<path d="M 11.746106855393599 7.691636338859192 A 8 8 0 0 0 14.999999999999998 7.0"/>
<path d="M 15.0 7.0 A 8 8 0 0 0 18.2538931446064 7.691636338859193"/>
<path d="M 15.000000000000002 7.0 L 15.000000000000002 6.0"/>
<path d="M 22.60845213036123 12.52786404500042 A 8 8 0 0 1 22.956175162946188 15.836227706141226"/>
<path d="M 22.60845213036123 12.52786404500042 L 23.559508646656383 12.218847050625474"/>
<path d="M 22.956175162946188 15.836227706141228 L 23.95069705831446 15.94075616940888"/>
<path d="M 21.92820323027551 19.0 L 22.794228634059948 19.5"/>
<path d="M 19.702282018339787 21.47213595499958 A 8 8 0 0 0 16.663293526542073 22.825180805870446"/>
<path d="M 16.663293526542073 22.825180805870446 A 8 8 0 0 1 13.336706473457923 22.825180805870446"/>
<path d="M 10.297717981660217 21.47213595499958 A 8 8 0 0 1 8.071796769724493 19.000000000000004"/>
<path d="M 8.071796769724493 19.000000000000004 L 7.205771365940054 19.500000000000004"/>
<path d="M 7.043824837053814 15.836227706141234 L 6.049302941685541 15.940756169408887"/>
<path d="M 7.391547869638771 12.52786404500042 L 6.440491353343617 12.218847050625474"/>
<path d="M 11.3393702123178 6.778090881216592 A 9 9 0 0 0 14.999999999999998 6.0"/>
<path d="M 15.0 6.0 A 9 9 0 0 0 18.6606297876822 6.778090881216592"/>
<path d="M 15.000000000000002 6.0 L 15.000000000000002 5.0"/>
<path d="M 20.945158603819152 9.646955149129134 L 21.688303429296546 8.977824542770275"/>
<path d="M 21.688303429296546 8.977824542770275 L 22.43144825477394 8.308693936411418"/>
<path d="M 23.559508646656383 12.218847050625474 L 24.510565162951536 11.909830056250527"/>
<path d="M 22.794228634059948 19.5 L 23.66025403784439 20.0"/>
<path d="M 20.290067270632257 22.281152949374526 L 20.877852522924734 23.090169943749473"/>
<path d="M 20.29006727063226 22.281152949374526 A 9 9 0 0 0 16.871205217359833 23.80332840660425"/>
<path d="M 16.871205217359833 23.80332840660425 A 9 9 0 0 1 13.128794782640163 23.80332840660425"/>
<path d="M 16.871205217359833 23.80332840660425 L 17.079116908177593 24.781476007338057"/>
<path d="M 13.128794782640169 23.80332840660425 A 9 9 0 0 0 9.709932729367743 22.281152949374526"/>
<path d="M 6.049302941685541 15.940756169408887 L 5.054781046317267 16.04528463267654"/>
<path d="M 6.049302941685541 15.940756169408887 A 9 9 0 0 1 6.440491353343615 12.218847050625483"/>
<path d="M 8.311696570703454 8.977824542770275 A 9 9 0 0 1 11.3393702123178 6.778090881216592"/>
<path d="M 10.932633569241998 5.86454542357399 A 10 10 0 0 0 14.999999999999998 5.0"/>
<path d="M 15.0 5.0 A 10 10 0 0 0 19.067366430758 5.864545423573992"/>
<path d="M 15.000000000000002 5.0 L 15.000000000000002 4.0"/>
<path d="M 19.067366430758 5.864545423573992 A 10 10 0 0 1 22.43144825477394 8.308693936411416"/>
<path d="M 19.067366430758003 5.864545423573993 L 19.474103073833803 4.950999965931391"/>
<path d="M 22.43144825477394 8.308693936411416 A 10 10 0 0 0 24.510565162951536 11.909830056250525"/>
<path d="M 24.510565162951536 11.909830056250525 A 10 10 0 0 1 24.945218953682733 16.045284632676534"/>
<path d="M 24.510565162951536 11.909830056250527 L 25.46162167924669 11.600813061875579"/>
<path d="M 24.945218953682733 16.045284632676534 A 10 10 0 0 0 23.66025403784439 20.0"/>
<path d="M 23.66025403784439 20.0 A 10 10 0 0 1 20.877852522924734 23.090169943749473"/>
<path d="M 12.920883091822407 24.781476007338057 L 12.71297140100465 25.759623608071863"/>
<path d="M 6.3397459621556145 20.000000000000004 L 5.473720558371177 20.500000000000004"/>
<path d="M 6.339745962155616 20.000000000000004 A 10 10 0 0 0 5.054781046317267 16.04528463267654"/>
<path d="M 5.054781046317267 16.04528463267654 A 10 10 0 0 1 5.489434837048462 11.909830056250536"/>
<path d="M 5.489434837048464 11.909830056250527 L 4.53837832075331 11.600813061875579"/>
<path d="M 7.56855174522606 8.308693936411414 L 6.825406919748666 7.639563330052556"/>
<path d="M 23.174593080251334 7.639563330052559 L 23.917737905728732 6.970432723693701"/>
<path d="M 25.46162167924669 11.600813061875579 L 26.412678195541844 11.291796067500632"/>
<path d="M 25.939740849051006 16.149813095944186 A 11 11 0 0 0 24.526279441628827 20.499999999999996"/>
<path d="M 24.526279441628827 20.499999999999996 A 11 11 0 0 1 21.465637775217207 23.899186938124423"/>
<path d="M 21.465637775217203 23.899186938124423 L 22.053423027509677 24.70820393249937"/>
<path d="M 21.465637775217207 23.899186938124423 A 11 11 0 0 0 17.287028598995352 25.759623608071863"/>
<path d="M 17.287028598995352 25.759623608071863 A 11 11 0 0 1 12.712971401004646 25.759623608071863"/>
<path d="M 12.71297140100465 25.759623608071863 L 12.50505971018689 26.73777120880567"/>
<path d="M 8.534362224782797 23.899186938124423 A 11 11 0 0 1 5.473720558371177 20.500000000000007"/>
<path d="M 4.060259150948994 16.149813095944197 L 3.0657372555807214 16.25434155921185"/>
<path d="M 4.060259150948994 16.149813095944197 A 11 11 0 0 1 4.538378320753308 11.60081306187559"/>
<path d="M 4.53837832075331 11.60081306187558 A 11 11 0 0 0 6.825406919748659 7.639563330052564"/>
<path d="M 6.825406919748666 7.639563330052556 L 6.082262094271272 6.970432723693698"/>
<path d="M 10.5258969261662 4.9509999659313895 L 10.1191602830904 4.037454508288789"/>
<path d="M 15.0 3.0 A 12 12 0 0 0 19.880839716909602 4.037454508288789"/>
<path d="M 19.880839716909602 4.037454508288789 A 12 12 0 0 1 23.91773790572873 6.970432723693699"/>
<path d="M 23.917737905728732 6.970432723693701 L 24.660882731206126 6.301302117334842"/>
<path d="M 26.412678195541844 11.291796067500632 L 27.363734711836997 10.982779073125684"/>
<path d="M 26.412678195541844 11.29179606750063 A 12 12 0 0 1 26.93426274441928 16.25434155921184"/>
<path d="M 26.93426274441928 16.25434155921184 A 12 12 0 0 0 25.392304845413264 20.999999999999996"/>
<path d="M 26.93426274441928 16.25434155921184 L 27.92878463978755 16.358870022479493"/>
<path d="M 25.392304845413264 21.0 L 26.258330249197705 21.5"/>
<path d="M 25.392304845413264 20.999999999999996 A 12 12 0 0 1 22.05342302750968 24.708203932499366"/>
<path d="M 22.05342302750968 24.708203932499366 A 12 12 0 0 0 17.494940289813112 26.73777120880567"/>
<path d="M 8.534362224782797 23.899186938124423 L 7.946576972490322 24.70820393249937"/>
<path d="M 12.505059710186892 26.73777120880567 A 12 12 0 0 0 7.946576972490323 24.70820393249937"/>
<path d="M 4.6076951545867395 21.000000000000007 A 12 12 0 0 0 3.0657372555807214 16.254341559211852"/>
<path d="M 3.5873218044581563 11.291796067500632 L 2.6362652881630027 10.982779073125684"/>
<path d="M 3.5873218044581563 11.291796067500634 A 12 12 0 0 0 6.082262094271265 6.9704327236937065"/>
<path d="M 6.082262094271272 6.970432723693698 A 12 12 0 0 1 10.119160283090398 4.037454508288789"/>
<path d="M 15.0 2.0 A 13 13 0 0 0 20.2875763599854 3.123909050646189"/>
<path d="M 15.000000000000002 2.0 L 15.000000000000002 1.0"/>
<path d="M 24.660882731206126 6.301302117334842 L 25.40402755668352 5.632171510975985"/>
<path d="M 27.92878463978755 16.358870022479493 L 28.923306535155824 16.46339848574715"/>
<path d="M 26.258330249197705 21.5 L 27.124355652982143 22.0"/>
<path d="M 26.258330249197705 21.499999999999996 A 13 13 0 0 1 22.64120827980215 25.517220926874316"/>
<path d="M 22.64120827980215 25.517220926874316 L 23.228993532094623 26.326237921249266"/>
<path d="M 22.64120827980215 25.517220926874316 A 13 13 0 0 0 17.70285198063087 27.715918809539474"/>
<path d="M 17.70285198063087 27.715918809539474 A 13 13 0 0 1 12.297148019369127 27.715918809539474"/>
<path d="M 17.702851980630868 27.715918809539474 L 17.910763671448628 28.69406641027328"/>
<path d="M 12.297148019369132 27.715918809539474 A 13 13 0 0 0 7.358791720197851 25.517220926874316"/>
<path d="M 7.358791720197849 25.517220926874316 L 6.7710064679053765 26.326237921249266"/>
<path d="M 3.7416697508023002 21.500000000000004 L 2.875644347017861 22.000000000000004"/>
<path d="M 3.741669750802302 21.500000000000007 A 13 13 0 0 0 2.071215360212447 16.358870022479504"/>
<path d="M 2.071215360212447 16.358870022479504 A 13 13 0 0 1 2.636265288162999 10.982779073125696"/>
<path d="M 2.6362652881630027 10.982779073125686 A 13 13 0 0 0 5.339117268793869 6.301302117334849"/>
<path d="M 5.339117268793878 6.3013021173348385 L 4.595972443316484 5.632171510975979"/>
<path d="M 9.712423640014599 3.123909050646187 L 9.3056869969388 2.2103635930035868"/>
<path d="M 15.0 1.0 A 14 14 0 0 0 20.694313003061204 2.2103635930035885"/>
<path d="M 20.694313003061204 2.2103635930035885 A 14 14 0 0 1 25.404027556683516 5.632171510975983"/>
<path d="M 25.404027556683516 5.632171510975983 A 14 14 0 0 0 28.31479122813215 10.673762078750736"/>
<path d="M 28.31479122813215 10.673762078750736 A 14 14 0 0 1 28.923306535155827 16.463398485747145"/>
<path d="M 17.91076367144863 28.69406641027328 A 14 14 0 0 1 12.089236328551367 28.69406641027328"/>
<path d="M 2.8756443470178628 22.000000000000007 A 14 14 0 0 0 1.0766934648441744 16.46339848574716"/>
<path d="M 1.685208771867849 10.67376207875074 A 14 14 0 0 0 4.595972443316475 5.63217151097599"/>
<path d="M 4.595972443316484 5.632171510975981 A 14 14 0 0 1 9.305686996938798 2.2103635930035868"/>
</svg>
</svg>
