<svg viewBox="0 0 8 8" xmlns="http://www.w3.org/2000/svg" style="background-color: #222;">

    <defs>
      <style>
        path {
          stroke: #e9a887;
          stroke-width: 0.1537092119379321;
          stroke-linecap: round;
          fill: none;
        }
      </style>
    </defs>
    
<svg x="0" y="0">
<path d="M 4,4 L 4.0,3.0"/>
<path d="M 4.0 3.0 L 4.0 2.0"/>
<path d="M 4.0 3.0 A 1 1 0 0 1 4.324699469204684 3.0541827582993655"/>
<path d="M 4,4 L 4.735723910673132,4.677281571625741"/>
<path d="M 4,4 L 3.0842266733449426,4.40169542465297"/>
<path d="M 4,4 L 3.162833521737471,3.4530518418775733"/>
<path d="M 3.675300530795316 3.0541827582993655 L 3.3506010615906328 2.108365516598731"/>
<path d="M 4.0 2.0 L 4.0 1.0"/>
<path d="M 3.3506010615906323 2.108365516598731 A 2 2 0 0 1 3.9999999999999996 2.0"/>
<path d="M 4.6142127126896675 3.2108594906036068 L 5.228425425379336 2.421718981207213"/>
<path d="M 4.649398938409368 2.108365516598731 L 4.974098407614051 1.162548274898096"/>
<path d="M 4.649398938409367 2.108365516598731 A 2 2 0 0 1 5.228425425379336 2.4217189812072126"/>
<path d="M 4.837166478262528 3.453051841877573 A 1 1 0 0 1 4.96940026593933 3.754514512859201"/>
<path d="M 4.837166478262529 3.4530518418775733 L 5.674332956525058 2.9061036837551466"/>
<path d="M 4.96940026593933 3.754514512859201 A 1 1 0 0 1 4.99658449300667 4.0825793454723325"/>
<path d="M 4.96940026593933 3.754514512859201 L 5.938800531878661 3.5090290257184016"/>
<path d="M 4.99658449300667 4.0825793454723325 A 1 1 0 0 1 4.915773326655057 4.40169542465297"/>
<path d="M 4.915773326655057 4.401695424652969 A 1 1 0 0 1 4.735723910673132 4.677281571625741"/>
<path d="M 4.475947393037074 4.879473751206489 L 4.951894786074147 5.758947502412978"/>
<path d="M 4.164594590280734 4.986361303402722 A 1 1 0 0 1 3.8354054097192662 4.986361303402722"/>
<path d="M 3.8354054097192662 4.986361303402722 A 1 1 0 0 1 3.5240526069629263 4.879473751206489"/>
<path d="M 3.5240526069629263 4.879473751206489 L 3.0481052139258527 5.758947502412978"/>
<path d="M 3.2642760893268687 4.677281571625741 L 2.5285521786537375 5.354563143251482"/>
<path d="M 3.2642760893268687 4.677281571625741 A 1 1 0 0 1 3.0842266733449426 4.40169542465297"/>
<path d="M 3.0842266733449426 4.40169542465297 L 2.168453346689885 4.80339084930594"/>
<path d="M 3.0842266733449426 4.40169542465297 A 1 1 0 0 1 3.0034155069933304 4.0825793454723325"/>
<path d="M 3.0034155069933304 4.0825793454723325 L 2.0068310139866603 4.165158690944665"/>
<path d="M 3.0305997340606696 3.7545145128592012 A 1 1 0 0 1 3.162833521737471 3.4530518418775733"/>
<path d="M 3.385787287310332 3.2108594906036068 L 2.771574574620664 2.421718981207213"/>
<path d="M 5.674332956525058 2.9061036837551466 L 6.511499434787586 2.35915552563272"/>
<path d="M 5.938800531878661 3.5090290257184016 L 6.908200797817991 3.2635435385776024"/>
<path d="M 5.938800531878661 3.5090290257184016 A 2 2 0 0 1 5.993168986013339 4.165158690944665"/>
<path d="M 5.831546653310115 4.803390849305939 A 2 2 0 0 1 5.471447821346263 5.3545631432514815"/>
<path d="M 5.471447821346263 5.354563143251482 L 6.207171732019395 6.031844714877223"/>
<path d="M 5.471447821346263 5.3545631432514815 A 2 2 0 0 1 4.951894786074147 5.758947502412978"/>
<path d="M 4.329189180561468 5.972722606805444 A 2 2 0 0 1 3.6708108194385325 5.972722606805445"/>
<path d="M 3.670810819438532 5.972722606805444 L 3.5062162291577983 6.959083910208167"/>
<path d="M 3.6708108194385325 5.972722606805445 A 2 2 0 0 1 3.048105213925853 5.758947502412978"/>
<path d="M 3.048105213925853 5.758947502412978 A 2 2 0 0 1 2.5285521786537366 5.354563143251482"/>
<path d="M 3.0481052139258527 5.758947502412978 L 2.572157820888779 6.638421253619468"/>
<path d="M 2.0068310139866603 4.165158690944666 A 2 2 0 0 1 2.0611994681213393 3.5090290257184025"/>
<path d="M 2.0611994681213393 3.509029025718402 L 1.0917992021820084 3.2635435385776033"/>
<path d="M 2.3256670434749425 2.9061036837551466 A 2 2 0 0 1 2.771574574620664 2.421718981207213"/>
<path d="M 2.771574574620664 2.421718981207213 L 2.157361861930996 1.6325784718108194"/>
<path d="M 2.771574574620664 2.421718981207213 A 2 2 0 0 1 3.3506010615906323 2.108365516598731"/>
<path d="M 3.3506010615906328 2.108365516598731 L 3.0259015923859494 1.162548274898096"/>
<path d="M 4.0 1.0 A 3 3 0 0 1 4.974098407614051 1.162548274898096"/>
<path d="M 4.974098407614051 1.162548274898096 A 3 3 0 0 1 5.842638138069003 1.632578471810819"/>
<path d="M 6.908200797817991 3.2635435385776024 A 3 3 0 0 1 6.98975347902001 4.2477380364169965"/>
<path d="M 6.98975347902001 4.2477380364169965 A 3 3 0 0 1 6.747319979965172 5.2050862739589085"/>
<path d="M 6.207171732019395 6.031844714877223 A 3 3 0 0 1 5.427842179111221 6.638421253619467"/>
<path d="M 5.427842179111221 6.638421253619467 A 3 3 0 0 1 4.493783770842202 6.959083910208167"/>
<path d="M 4.493783770842202 6.959083910208167 A 3 3 0 0 1 3.5062162291577987 6.959083910208167"/>
<path d="M 2.5721578208887794 6.638421253619468 A 3 3 0 0 1 1.7928282679806054 6.031844714877224"/>
<path d="M 1.2526800200348283 5.205086273958909 A 3 3 0 0 1 1.0102465209799902 4.247738036416998"/>
<path d="M 1.0102465209799902 4.247738036416998 A 3 3 0 0 1 1.0917992021820084 3.2635435385776037"/>
<path d="M 1.488500565212414 2.3591555256327204 A 3 3 0 0 1 2.1573618619309958 1.6325784718108194"/>
</svg>
</svg>
