<svg viewBox="0 0 16 16" xmlns="http://www.w3.org/2000/svg" style="background-color: #222;">

    <defs>
      <style>
        path {
          stroke: #475af9;
          stroke-width: 0.42148620846108165;
          stroke-linecap: round;
          fill: none;
        }
      </style>
    </defs>
    
<svg x="0" y="0">
<path d="M 8,8 L 8.0,7.0"/>
<path d="M 8,8 L 8.951056516295154,7.6909830056250525"/>
<path d="M 8.951056516295154 7.6909830056250525 L 9.902113032590307 7.381966011250105"/>
<path d="M 8,8 L 7.412214747707527,8.809016994374947"/>
<path d="M 7.048943483704846 7.6909830056250525 L 6.097886967409693 7.381966011250105"/>
<path d="M 8.0 6.0 A 2 2 0 0 0 9.902113032590307 7.381966011250105"/>
<path d="M 6.097886967409693 7.381966011250105 A 2 2 0 0 0 7.999999999999999 6.0"/>
<path d="M 8.587785252292473 8.809016994374947 A 1 1 0 0 0 7.412214747707527 8.809016994374947"/>
<path d="M 9.902113032590307 7.381966011250105 A 2 2 0 0 1 9.175570504584947 9.618033988749895"/>
<path d="M 9.175570504584947 9.618033988749895 L 9.76335575687742 10.427050983124843"/>
<path d="M 6.097886967409693 7.381966011250105 L 5.146830451114539 7.072949016875158"/>
<path d="M 8.0 5.0 L 8.0 4.0"/>
<path d="M 5.146830451114539 7.0729490168751585 A 3 3 0 0 0 7.999999999999999 5.0"/>
<path d="M 10.853169548885461 7.072949016875158 A 3 3 0 0 1 9.76335575687742 10.427050983124841"/>
<path d="M 9.76335575687742 10.427050983124843 L 10.351141009169893 11.23606797749979"/>
<path d="M 4.195773934819385 6.763932022500211 A 4 4 0 0 0 7.999999999999999 4.0"/>
<path d="M 8.0 4.0 L 8.0 3.0"/>
<path d="M 4.195773934819385 6.76393202250021 L 3.244717418524232 6.454915028125264"/>
<path d="M 8.0 3.0 A 5 5 0 0 0 12.755282581475768 6.454915028125263"/>
<path d="M 8.0 3.0 L 8.0 2.0"/>
<path d="M 5.6488589908301075 11.23606797749979 L 5.061073738537634 12.045084971874736"/>
<path d="M 10.938926261462367 12.045084971874736 A 5 5 0 0 0 5.061073738537635 12.045084971874736"/>
<path d="M 5.061073738537634 12.045084971874736 L 4.473288486245162 12.854101966249685"/>
<path d="M 3.244717418524232 6.454915028125264 L 2.293660902229078 6.145898033750316"/>
<path d="M 8.0 2.0 A 6 6 0 0 0 13.706339097770922 6.145898033750315"/>
<path d="M 8.0 2.0 L 8.0 1.0"/>
<path d="M 13.706339097770922 6.145898033750315 A 6 6 0 0 1 11.52671151375484 12.854101966249683"/>
<path d="M 4.473288486245162 12.854101966249685 A 6 6 0 0 1 2.293660902229078 6.145898033750317"/>
<path d="M 4.473288486245162 12.854101966249685 L 3.8855032339526883 13.663118960624633"/>
</svg>
</svg>
