<svg viewBox="0 0 14 14" xmlns="http://www.w3.org/2000/svg" style="background-color: #222;">

    <defs>
      <style>
        path {
          stroke: #e59a86;
          stroke-width: 0.11682889657687157;
          stroke-linecap: round;
          fill: none;
        }
      </style>
    </defs>
    
<svg x="0" y="0">
<path d="M 6.133974596215562 7.5 A 1 1 0 0 0 7.0 6.0"/>
<path d="M 7.866025403784439 7.5 A 1 1 0 0 1 6.133974596215562 7.5"/>
<path d="M 7.866025403784438 7.5 L 8.732050807568877 8.0"/>
<path d="M 7,7 L 7.866025403784438,7.5"/>
<path d="M 6.133974596215562 7.5 L 5.267949192431123 8.0"/>
<path d="M 7.0 5.0 L 7.0 4.0"/>
<path d="M 5.267949192431123 8.0 L 4.401923788646684 8.5"/>
<path d="M 4.401923788646685 8.500000000000002 A 3 3 0 0 0 6.999999999999999 4.0"/>
<path d="M 7.0 4.0 L 7.000000000000001 3.0"/>
<path d="M 9.598076211353316 8.5 A 3 3 0 0 1 4.401923788646685 8.500000000000002"/>
<path d="M 9.598076211353316 8.5 L 10.464101615137755 9.0"/>
<path d="M 4.401923788646684 8.5 L 3.535898384862246 9.000000000000002"/>
<path d="M 7.000000000000001 3.0 L 7.000000000000001 2.0"/>
<path d="M 3.535898384862246 9.000000000000002 L 2.6698729810778072 9.500000000000002"/>
<path d="M 7.000000000000001 2.0 L 7.000000000000001 1.0"/>
<path d="M 11.330127018922195 9.5 A 5 5 0 0 1 2.669872981077808 9.500000000000002"/>
<path d="M 2.6698729810778072 9.500000000000002 L 1.8038475772933689 10.000000000000002"/>
</svg>
</svg>
