<svg viewBox="0 0 32 32" xmlns="http://www.w3.org/2000/svg" style="background-color: #222;">

    <defs>
      <style>
        path {
          stroke: #efc59d;
          stroke-width: 0.3074176188629049;
          stroke-linecap: round;
          fill: none;
        }
      </style>
    </defs>
    
<svg x="0" y="0">
<path d="M 16.0 15.0 L 16.0 14.0"/>
<path d="M 16.0 15.0 A 1 1 0 0 0 16.587785252292473 15.190983005625053"/>
<path d="M 16,16 L 16.587785252292473,15.190983005625053"/>
<path d="M 16,16 L 15.048943483704846,16.309016994374947"/>
<path d="M 16,16 L 16.951056516295154,15.690983005625053"/>
<path d="M 16,16 L 16.587785252292473,16.809016994374947"/>
<path d="M 16,16 L 16.951056516295154,16.309016994374947"/>
<path d="M 16.0 14.0 A 2 2 0 0 0 17.175570504584947 14.381966011250105"/>
<path d="M 16.0 14.0 L 16.0 13.0"/>
<path d="M 17.175570504584947 14.381966011250105 L 17.76335575687742 13.572949016875159"/>
<path d="M 16.951056516295154 16.309016994374947 L 17.902113032590307 16.618033988749893"/>
<path d="M 16.587785252292473 16.809016994374947 L 17.175570504584947 17.618033988749893"/>
<path d="M 16.0 17.0 A 1 1 0 0 0 15.412214747707527 16.809016994374947"/>
<path d="M 15.412214747707527 16.809016994374947 L 14.824429495415053 17.618033988749893"/>
<path d="M 15.048943483704846 16.309016994374947 L 14.097886967409693 16.618033988749893"/>
<path d="M 15.048943483704846 15.690983005625053 L 14.097886967409693 15.381966011250105"/>
<path d="M 17.902113032590307 15.381966011250105 A 2 2 0 0 0 17.902113032590307 16.618033988749893"/>
<path d="M 17.902113032590307 15.381966011250105 L 18.85316954888546 15.072949016875159"/>
<path d="M 17.175570504584947 17.618033988749893 L 17.76335575687742 18.427050983124843"/>
<path d="M 14.824429495415053 17.618033988749893 A 2 2 0 0 0 14.097886967409693 16.618033988749897"/>
<path d="M 14.097886967409693 15.381966011250105 L 13.146830451114539 15.072949016875159"/>
<path d="M 14.097886967409693 15.381966011250105 A 2 2 0 0 0 14.824429495415053 14.381966011250105"/>
<path d="M 14.23664424312258 13.572949016875159 A 3 3 0 0 0 16.0 13.0"/>
<path d="M 17.76335575687742 13.572949016875159 L 18.351141009169893 12.76393202250021"/>
<path d="M 17.76335575687742 18.427050983124843 L 18.351141009169893 19.23606797749979"/>
<path d="M 14.23664424312258 18.427050983124843 L 13.648858990830107 19.23606797749979"/>
<path d="M 14.23664424312258 18.427050983124843 A 3 3 0 0 0 13.146830451114539 16.927050983124843"/>
<path d="M 16.0 19.0 A 3 3 0 0 0 14.23664424312258 18.427050983124843"/>
<path d="M 13.146830451114539 16.927050983124843 L 12.195773934819385 17.23606797749979"/>
<path d="M 13.146830451114539 15.072949016875159 A 3 3 0 0 0 14.23664424312258 13.572949016875159"/>
<path d="M 13.146830451114539 15.072949016875159 L 12.195773934819385 14.76393202250021"/>
<path d="M 16.0 12.0 L 16.0 11.0"/>
<path d="M 16.0 12.0 A 4 4 0 0 0 18.351141009169893 12.76393202250021"/>
<path d="M 18.351141009169893 12.76393202250021 A 4 4 0 0 0 19.804226065180615 14.76393202250021"/>
<path d="M 18.351141009169893 12.76393202250021 L 18.938926261462367 11.954915028125264"/>
<path d="M 19.804226065180615 14.76393202250021 A 4 4 0 0 0 19.804226065180615 17.23606797749979"/>
<path d="M 16.0 19.0 L 16.0 20.0"/>
<path d="M 18.351141009169893 19.23606797749979 L 18.938926261462367 20.045084971874736"/>
<path d="M 13.648858990830107 19.23606797749979 L 13.061073738537633 20.045084971874736"/>
<path d="M 12.195773934819385 14.76393202250021 A 4 4 0 0 0 13.648858990830107 12.76393202250021"/>
<path d="M 18.938926261462367 11.954915028125264 L 19.52671151375484 11.145898033750317"/>
<path d="M 20.755282581475768 14.454915028125264 A 5 5 0 0 0 20.755282581475768 17.545084971874736"/>
<path d="M 20.755282581475768 14.454915028125264 L 21.706339097770922 14.145898033750315"/>
<path d="M 20.755282581475768 17.545084971874736 L 21.706339097770922 17.854101966249686"/>
<path d="M 18.938926261462367 20.045084971874736 L 19.52671151375484 20.854101966249686"/>
<path d="M 18.938926261462367 20.045084971874736 A 5 5 0 0 0 16.0 21.0"/>
<path d="M 16.0 21.0 L 16.0 22.0"/>
<path d="M 16.0 21.0 A 5 5 0 0 0 13.061073738537635 20.045084971874736"/>
<path d="M 13.061073738537633 20.045084971874736 L 12.473288486245162 20.854101966249686"/>
<path d="M 11.244717418524232 17.545084971874736 L 10.293660902229078 17.854101966249686"/>
<path d="M 11.244717418524232 14.454915028125264 L 10.293660902229078 14.145898033750315"/>
<path d="M 11.244717418524232 14.454915028125264 A 5 5 0 0 0 13.061073738537633 11.954915028125264"/>
<path d="M 16.0 10.0 L 16.0 9.0"/>
<path d="M 21.706339097770922 17.854101966249686 L 22.657395614066075 18.163118960624633"/>
<path d="M 19.52671151375484 20.854101966249686 L 20.11449676604731 21.663118960624633"/>
<path d="M 16.0 22.0 L 16.0 23.0"/>
<path d="M 12.473288486245162 20.854101966249686 A 6 6 0 0 0 10.293660902229078 17.854101966249686"/>
<path d="M 10.293660902229078 17.854101966249686 A 6 6 0 0 0 10.293660902229078 14.145898033750317"/>
<path d="M 10.293660902229078 14.145898033750315 L 9.342604385933925 13.836881039375369"/>
<path d="M 16.0 9.0 L 16.0 8.0"/>
<path d="M 20.114496766047314 10.336881039375369 L 20.702282018339787 9.52786404500042"/>
<path d="M 22.657395614066075 13.836881039375369 L 23.60845213036123 13.52786404500042"/>
<path d="M 22.657395614066075 18.16311896062463 A 7 7 0 0 0 20.114496766047314 21.66311896062463"/>
<path d="M 20.11449676604731 21.663118960624633 L 20.702282018339787 22.47213595499958"/>
<path d="M 16.0 23.0 A 7 7 0 0 0 11.88550323395269 21.663118960624633"/>
<path d="M 11.88550323395269 21.663118960624633 A 7 7 0 0 0 9.342604385933925 18.163118960624633"/>
<path d="M 9.342604385933925 13.83688103937537 A 7 7 0 0 0 11.885503233952686 10.336881039375369"/>
<path d="M 11.885503233952686 10.336881039375369 L 11.297717981660213 9.52786404500042"/>
<path d="M 16.0 8.0 A 8 8 0 0 0 20.702282018339787 9.52786404500042"/>
<path d="M 20.702282018339787 9.52786404500042 L 21.29006727063226 8.718847050625474"/>
<path d="M 23.60845213036123 13.52786404500042 L 24.559508646656383 13.218847050625474"/>
<path d="M 23.60845213036123 18.47213595499958 A 8 8 0 0 0 20.702282018339787 22.47213595499958"/>
<path d="M 20.702282018339787 22.47213595499958 L 21.290067270632257 23.281152949374526"/>
<path d="M 11.297717981660217 22.47213595499958 A 8 8 0 0 0 8.39154786963877 18.47213595499958"/>
<path d="M 11.297717981660215 22.47213595499958 L 10.709932729367742 23.281152949374526"/>
<path d="M 11.297717981660213 9.52786404500042 L 10.70993272936774 8.718847050625474"/>
<path d="M 16.0 7.0 L 16.0 6.0"/>
<path d="M 21.290067270632257 8.718847050625474 A 9 9 0 0 0 24.559508646656383 13.218847050625474"/>
<path d="M 24.559508646656383 13.218847050625474 A 9 9 0 0 0 24.559508646656383 18.781152949374526"/>
<path d="M 24.559508646656383 13.218847050625474 L 25.510565162951536 12.909830056250527"/>
<path d="M 24.559508646656383 18.781152949374526 A 9 9 0 0 0 21.29006727063226 23.281152949374526"/>
<path d="M 21.29006727063226 23.281152949374526 A 9 9 0 0 0 16.0 25.0"/>
<path d="M 10.709932729367742 23.281152949374526 L 10.122147477075268 24.090169943749473"/>
<path d="M 16.0 25.0 A 9 9 0 0 0 10.709932729367743 23.281152949374526"/>
<path d="M 10.709932729367743 23.281152949374526 A 9 9 0 0 0 7.440491353343619 18.78115294937453"/>
<path d="M 10.122147477075266 7.909830056250527 A 10 10 0 0 0 15.999999999999998 6.0"/>
<path d="M 21.877852522924734 7.9098300562505255 A 10 10 0 0 0 25.510565162951536 12.909830056250525"/>
<path d="M 25.510565162951536 19.090169943749473 A 10 10 0 0 0 21.877852522924734 24.090169943749473"/>
<path d="M 21.877852522924734 24.090169943749473 A 10 10 0 0 0 16.0 26.0"/>
<path d="M 16.0 26.0 A 10 10 0 0 0 10.12214747707527 24.090169943749473"/>
<path d="M 16.0 26.0 L 16.0 27.0"/>
<path d="M 10.122147477075268 24.090169943749473 L 9.534362224782797 24.899186938124423"/>
<path d="M 6.489434837048465 19.090169943749473 L 5.538378320753312 19.399186938124423"/>
<path d="M 10.122147477075266 7.909830056250527 L 9.534362224782793 7.100813061875579"/>
<path d="M 16.0 5.0 L 16.0 4.0"/>
<path d="M 16.0 5.0 A 11 11 0 0 0 22.465637775217203 7.100813061875577"/>
<path d="M 26.46162167924669 12.600813061875577 A 11 11 0 0 0 26.46162167924669 19.39918693812442"/>
<path d="M 26.46162167924669 19.399186938124423 L 27.412678195541844 19.70820393249937"/>
<path d="M 22.465637775217203 24.899186938124423 L 23.053423027509677 25.70820393249937"/>
<path d="M 22.465637775217207 24.899186938124423 A 11 11 0 0 0 16.0 27.0"/>
<path d="M 16.0 27.0 L 16.0 28.0"/>
<path d="M 9.534362224782797 24.899186938124423 L 8.946576972490323 25.70820393249937"/>
<path d="M 9.534362224782797 24.899186938124423 A 11 11 0 0 0 5.538378320753312 19.399186938124423"/>
<path d="M 6.489434837048464 12.909830056250527 L 5.53837832075331 12.600813061875579"/>
<path d="M 5.538378320753312 19.399186938124423 A 11 11 0 0 0 5.53837832075331 12.60081306187558"/>
<path d="M 5.53837832075331 12.60081306187558 A 11 11 0 0 0 9.534362224782793 7.100813061875579"/>
<path d="M 9.534362224782793 7.100813061875579 L 8.946576972490321 6.291796067500632"/>
<path d="M 8.946576972490321 6.291796067500632 A 12 12 0 0 0 15.999999999999996 4.0"/>
<path d="M 16.0 4.0 A 12 12 0 0 0 23.053423027509677 6.291796067500631"/>
<path d="M 27.412678195541844 12.291796067500632 L 28.363734711836997 11.982779073125684"/>
<path d="M 27.412678195541844 19.70820393249937 L 28.363734711836997 20.017220926874316"/>
<path d="M 8.946576972490323 25.70820393249937 A 12 12 0 0 0 4.587321804458158 19.70820393249937"/>
<path d="M 8.946576972490323 25.70820393249937 L 8.35879172019785 26.517220926874316"/>
<path d="M 4.587321804458156 12.291796067500634 A 12 12 0 0 0 8.946576972490321 6.291796067500632"/>
<path d="M 8.946576972490321 6.291796067500632 L 8.358791720197848 5.482779073125684"/>
<path d="M 8.358791720197848 5.482779073125684 A 13 13 0 0 0 15.999999999999996 3.0"/>
<path d="M 16.0 3.0 L 16.0 2.0"/>
<path d="M 16.0 3.0 A 13 13 0 0 0 23.64120827980215 5.482779073125684"/>
<path d="M 23.64120827980215 5.482779073125684 A 13 13 0 0 0 28.363734711836997 11.982779073125684"/>
<path d="M 28.363734711836997 11.982779073125684 A 13 13 0 0 0 28.363734711836997 20.017220926874316"/>
<path d="M 23.64120827980215 26.517220926874316 L 24.228993532094623 27.326237921249266"/>
<path d="M 16.0 29.0 A 13 13 0 0 0 8.35879172019785 26.517220926874316"/>
<path d="M 16.0 29.0 L 16.0 30.0"/>
<path d="M 3.6362652881630044 20.01722092687432 A 13 13 0 0 0 3.6362652881630027 11.982779073125686"/>
<path d="M 3.6362652881630027 11.982779073125686 A 13 13 0 0 0 8.358791720197848 5.482779073125684"/>
<path d="M 16.0 2.0 A 14 14 0 0 0 24.228993532094623 4.673762078750736"/>
<path d="M 16.0 2.0 L 16.000000000000004 1.0"/>
<path d="M 24.228993532094623 4.673762078750736 A 14 14 0 0 0 29.31479122813215 11.673762078750736"/>
<path d="M 29.31479122813215 11.673762078750737 L 30.265847744427305 11.364745084375791"/>
<path d="M 29.31479122813215 11.673762078750736 A 14 14 0 0 0 29.31479122813215 20.326237921249263"/>
<path d="M 29.31479122813215 20.326237921249263 A 14 14 0 0 0 24.228993532094627 27.326237921249263"/>
<path d="M 24.228993532094623 27.326237921249266 L 24.816778784387097 28.135254915624213"/>
<path d="M 16.0 30.0 L 16.0 31.0"/>
<path d="M 7.7710064679053765 27.326237921249266 L 7.183221215612903 28.135254915624213"/>
<path d="M 7.771006467905378 27.326237921249266 A 14 14 0 0 0 2.685208771867851 20.326237921249266"/>
<path d="M 2.685208771867851 20.326237921249266 L 1.7341522555726971 20.635254915624213"/>
<path d="M 2.685208771867851 20.326237921249266 A 14 14 0 0 0 2.685208771867849 11.67376207875074"/>
<path d="M 2.685208771867849 11.67376207875074 A 14 14 0 0 0 7.771006467905375 4.6737620787507375"/>
<path d="M 7.771006467905375 4.6737620787507375 L 7.183221215612901 3.864745084375789"/>
<path d="M 16.0 1.0 A 15 15 0 0 0 24.816778784387097 3.8647450843757873"/>
<path d="M 7.183221215612901 3.864745084375789 A 15 15 0 0 0 15.999999999999996 1.0"/>
<path d="M 1.7341522555726954 11.364745084375791 A 15 15 0 0 0 7.183221215612901 3.864745084375789"/>
</svg>
</svg>
