<svg viewBox="0 0 26 26" xmlns="http://www.w3.org/2000/svg" style="background-color: #222;">

    <defs>
      <style>
        path {
          stroke: #c6f2ad;
          stroke-width: 0.3816954975837799;
          stroke-linecap: round;
          fill: none;
        }
      </style>
    </defs>
    
<svg x="0" y="0">
<path d="M 13.0 12.0 A 1 1 0 0 1 13.587785252292473 12.190983005625053"/>
<path d="M 13.587785252292473 12.190983005625053 A 1 1 0 0 1 13.951056516295154 12.690983005625053"/>
<path d="M 12.048943483704846 12.690983005625053 A 1 1 0 0 1 12.412214747707527 12.190983005625053"/>
<path d="M 12.412214747707527 12.190983005625053 L 11.824429495415053 11.381966011250105"/>
<path d="M 13.0 11.0 A 2 2 0 0 1 14.175570504584947 11.381966011250105"/>
<path d="M 13.951056516295154 12.690983005625053 L 14.902113032590307 12.381966011250105"/>
<path d="M 13.951056516295154 12.690983005625053 A 1 1 0 0 1 13.951056516295154 13.309016994374947"/>
<path d="M 14.175570504584947 11.381966011250105 L 14.76335575687742 10.572949016875159"/>
<path d="M 14.175570504584947 11.381966011250105 A 2 2 0 0 1 14.902113032590307 12.381966011250105"/>
<path d="M 13.951056516295154 13.309016994374947 A 1 1 0 0 1 13.587785252292473 13.809016994374947"/>
<path d="M 14.902113032590307 12.381966011250105 A 2 2 0 0 1 14.902113032590307 13.618033988749895"/>
<path d="M 13.587785252292473 13.809016994374947 A 1 1 0 0 1 13.0 14.0"/>
<path d="M 13.0 14.0 A 1 1 0 0 1 12.412214747707527 13.809016994374947"/>
<path d="M 13.0 14.0 L 13.0 15.0"/>
<path d="M 14.175570504584947 14.618033988749895 L 14.76335575687742 15.427050983124843"/>
<path d="M 12.048943483704846 13.309016994374947 L 11.097886967409693 13.618033988749895"/>
<path d="M 11.824429495415053 14.618033988749895 L 11.23664424312258 15.427050983124843"/>
<path d="M 11.097886967409693 13.618033988749895 L 10.146830451114539 13.927050983124843"/>
<path d="M 11.097886967409693 13.618033988749895 A 2 2 0 0 1 11.097886967409693 12.381966011250105"/>
<path d="M 11.097886967409693 12.381966011250105 A 2 2 0 0 1 11.824429495415053 11.381966011250105"/>
<path d="M 11.824429495415053 11.381966011250105 L 11.23664424312258 10.572949016875159"/>
<path d="M 13.0 10.0 L 13.0 9.0"/>
<path d="M 14.76335575687742 10.572949016875159 L 15.351141009169893 9.76393202250021"/>
<path d="M 15.853169548885461 12.072949016875159 L 16.804226065180615 11.76393202250021"/>
<path d="M 15.853169548885461 12.072949016875157 A 3 3 0 0 1 15.853169548885461 13.927050983124841"/>
<path d="M 15.853169548885461 13.927050983124841 A 3 3 0 0 1 14.76335575687742 15.427050983124841"/>
<path d="M 14.76335575687742 15.427050983124843 L 15.351141009169893 16.23606797749979"/>
<path d="M 14.76335575687742 15.427050983124841 A 3 3 0 0 1 13.0 16.0"/>
<path d="M 13.0 16.0 L 13.0 17.0"/>
<path d="M 11.23664424312258 15.427050983124843 L 10.648858990830107 16.23606797749979"/>
<path d="M 11.23664424312258 15.427050983124843 A 3 3 0 0 1 10.146830451114539 13.927050983124843"/>
<path d="M 10.146830451114539 13.927050983124843 A 3 3 0 0 1 10.146830451114539 12.072949016875159"/>
<path d="M 11.23664424312258 10.572949016875159 L 10.648858990830107 9.76393202250021"/>
<path d="M 13.0 9.0 A 4 4 0 0 1 15.351141009169893 9.76393202250021"/>
<path d="M 15.351141009169893 9.76393202250021 A 4 4 0 0 1 16.804226065180615 11.76393202250021"/>
<path d="M 15.351141009169893 9.76393202250021 L 15.938926261462367 8.954915028125264"/>
<path d="M 16.804226065180615 14.23606797749979 L 17.755282581475768 14.545084971874736"/>
<path d="M 16.804226065180615 14.23606797749979 A 4 4 0 0 1 15.351141009169893 16.23606797749979"/>
<path d="M 13.0 17.0 A 4 4 0 0 1 10.648858990830108 16.23606797749979"/>
<path d="M 13.0 17.0 L 13.0 18.0"/>
<path d="M 10.648858990830107 16.23606797749979 L 10.061073738537633 17.045084971874736"/>
<path d="M 10.648858990830108 16.23606797749979 A 4 4 0 0 1 9.195773934819385 14.23606797749979"/>
<path d="M 9.195773934819385 11.76393202250021 A 4 4 0 0 1 10.648858990830107 9.76393202250021"/>
<path d="M 9.195773934819385 11.76393202250021 L 8.244717418524232 11.454915028125264"/>
<path d="M 10.648858990830107 9.76393202250021 L 10.061073738537633 8.954915028125264"/>
<path d="M 13.0 8.0 A 5 5 0 0 1 15.938926261462367 8.954915028125264"/>
<path d="M 15.938926261462367 8.954915028125264 L 16.52671151375484 8.145898033750317"/>
<path d="M 17.755282581475768 11.454915028125264 L 18.706339097770922 11.145898033750315"/>
<path d="M 17.755282581475768 14.545084971874736 L 18.706339097770922 14.854101966249685"/>
<path d="M 15.938926261462367 17.045084971874736 L 16.52671151375484 17.854101966249686"/>
<path d="M 13.0 18.0 L 13.0 19.0"/>
<path d="M 8.244717418524232 14.545084971874736 L 7.293660902229079 14.854101966249685"/>
<path d="M 10.061073738537633 8.954915028125264 L 9.47328848624516 8.145898033750317"/>
<path d="M 13.0 7.0 L 13.0 6.0"/>
<path d="M 18.706339097770922 11.145898033750315 A 6 6 0 0 1 18.706339097770922 14.854101966249685"/>
<path d="M 18.706339097770922 14.854101966249685 L 19.657395614066075 15.163118960624633"/>
<path d="M 16.52671151375484 17.854101966249683 A 6 6 0 0 1 13.0 19.0"/>
<path d="M 16.52671151375484 17.854101966249686 L 17.11449676604731 18.663118960624633"/>
<path d="M 13.0 19.0 L 13.0 20.0"/>
<path d="M 9.473288486245162 17.854101966249686 L 8.885503233952688 18.663118960624633"/>
<path d="M 7.293660902229079 14.854101966249685 A 6 6 0 0 1 7.293660902229078 11.145898033750317"/>
<path d="M 7.293660902229078 11.145898033750317 A 6 6 0 0 1 9.47328848624516 8.145898033750317"/>
<path d="M 8.885503233952686 7.336881039375369 A 7 7 0 0 1 12.999999999999998 6.0"/>
<path d="M 17.11449676604731 7.336881039375368 A 7 7 0 0 1 19.657395614066075 10.836881039375367"/>
<path d="M 19.657395614066075 10.836881039375369 L 20.60845213036123 10.52786404500042"/>
<path d="M 19.657395614066075 15.163118960624633 L 20.60845213036123 15.47213595499958"/>
<path d="M 17.11449676604731 18.663118960624633 L 17.702282018339787 19.47213595499958"/>
<path d="M 13.0 20.0 L 13.0 21.0"/>
<path d="M 8.885503233952688 18.663118960624633 L 8.297717981660215 19.47213595499958"/>
<path d="M 6.342604385933925 15.163118960624633 A 7 7 0 0 1 6.3426043859339245 10.83688103937537"/>
<path d="M 6.342604385933925 15.163118960624633 L 5.391547869638772 15.47213595499958"/>
<path d="M 8.885503233952686 7.336881039375369 L 8.297717981660213 6.527864045000421"/>
<path d="M 8.297717981660213 6.527864045000421 A 8 8 0 0 1 12.999999999999998 5.0"/>
<path d="M 13.0 5.0 A 8 8 0 0 1 17.702282018339787 6.52786404500042"/>
<path d="M 17.702282018339787 6.527864045000421 L 18.29006727063226 5.718847050625474"/>
<path d="M 20.60845213036123 10.52786404500042 A 8 8 0 0 1 20.60845213036123 15.47213595499958"/>
<path d="M 17.702282018339787 19.47213595499958 L 18.290067270632257 20.281152949374526"/>
<path d="M 13.0 21.0 L 13.0 22.0"/>
<path d="M 8.297717981660217 19.47213595499958 A 8 8 0 0 1 5.391547869638772 15.47213595499958"/>
<path d="M 8.297717981660215 19.47213595499958 L 7.7099327293677415 20.281152949374526"/>
<path d="M 5.391547869638772 15.47213595499958 L 4.440491353343619 15.781152949374526"/>
<path d="M 5.391547869638771 10.52786404500042 L 4.440491353343617 10.218847050625474"/>
<path d="M 7.709932729367741 5.718847050625474 A 9 9 0 0 1 12.999999999999998 4.0"/>
<path d="M 18.29006727063226 5.718847050625474 L 18.877852522924734 4.909830056250527"/>
<path d="M 18.290067270632257 5.718847050625473 A 9 9 0 0 1 21.559508646656383 10.218847050625474"/>
<path d="M 21.559508646656383 10.218847050625474 L 22.510565162951536 9.909830056250527"/>
<path d="M 21.559508646656383 10.218847050625474 A 9 9 0 0 1 21.559508646656383 15.781152949374526"/>
<path d="M 21.559508646656383 15.781152949374526 L 22.510565162951536 16.090169943749473"/>
<path d="M 21.559508646656383 15.781152949374526 A 9 9 0 0 1 18.29006727063226 20.281152949374526"/>
<path d="M 7.7099327293677415 20.281152949374526 L 7.122147477075268 21.090169943749473"/>
<path d="M 4.440491353343619 15.781152949374528 A 9 9 0 0 1 4.440491353343617 10.218847050625474"/>
<path d="M 4.440491353343617 10.218847050625474 L 3.4894348370484636 9.909830056250527"/>
<path d="M 4.440491353343617 10.218847050625474 A 9 9 0 0 1 7.709932729367741 5.718847050625474"/>
<path d="M 13.0 3.0 A 10 10 0 0 1 18.877852522924734 4.9098300562505255"/>
<path d="M 7.122147477075267 4.909830056250527 A 10 10 0 0 1 12.999999999999998 3.0"/>
<path d="M 18.877852522924734 4.909830056250527 L 19.465637775217207 4.100813061875579"/>
<path d="M 22.510565162951536 9.909830056250527 L 23.46162167924669 9.600813061875579"/>
<path d="M 22.510565162951536 16.090169943749473 L 23.46162167924669 16.399186938124423"/>
<path d="M 18.877852522924734 21.090169943749473 L 19.465637775217203 21.899186938124423"/>
<path d="M 13.0 23.0 L 13.0 24.0"/>
<path d="M 7.122147477075268 21.090169943749473 L 6.534362224782796 21.899186938124423"/>
<path d="M 3.4894348370484654 16.090169943749473 L 2.5383783207533117 16.399186938124423"/>
<path d="M 3.4894348370484636 9.909830056250527 A 10 10 0 0 1 7.122147477075267 4.909830056250527"/>
<path d="M 7.122147477075267 4.909830056250527 L 6.534362224782794 4.100813061875579"/>
<path d="M 13.000000000000002 2.0 L 13.000000000000002 1.0"/>
<path d="M 19.465637775217207 4.100813061875579 L 20.05342302750968 3.2917960675006324"/>
<path d="M 23.46162167924669 16.39918693812442 A 11 11 0 0 1 19.465637775217207 21.899186938124423"/>
<path d="M 23.46162167924669 16.399186938124423 L 24.412678195541844 16.70820393249937"/>
<path d="M 13.000000000000002 24.0 A 11 11 0 0 1 6.534362224782797 21.899186938124423"/>
<path d="M 13.0 24.0 L 13.0 25.0"/>
<path d="M 6.534362224782796 21.899186938124423 L 5.946576972490322 22.70820393249937"/>
<path d="M 6.534362224782797 21.899186938124423 A 11 11 0 0 1 2.5383783207533117 16.399186938124423"/>
<path d="M 2.53837832075331 9.600813061875579 L 1.5873218044581563 9.291796067500632"/>
<path d="M 2.53837832075331 9.60081306187558 A 11 11 0 0 1 6.534362224782794 4.100813061875579"/>
<path d="M 13.0 1.0 A 12 12 0 0 1 20.053423027509677 3.2917960675006306"/>
<path d="M 5.9465769724903215 3.2917960675006324 A 12 12 0 0 1 12.999999999999996 1.0"/>
<path d="M 20.053423027509677 3.2917960675006306 A 12 12 0 0 1 24.412678195541844 9.29179606750063"/>
<path d="M 20.05342302750968 22.708203932499366 A 12 12 0 0 1 13.000000000000002 25.0"/>
<path d="M 5.946576972490323 22.70820393249937 A 12 12 0 0 1 1.587321804458158 16.70820393249937"/>
</svg>
</svg>
