<svg viewBox="0 0 12 12" xmlns="http://www.w3.org/2000/svg" style="background-color: #222;">

    <defs>
      <style>
        path {
          stroke: #e84edf;
          stroke-width: 0.2390408287666483;
          stroke-linecap: round;
          fill: none;
        }
      </style>
    </defs>
    
<svg x="0" y="0">
<path d="M 6.0 5.0 L 6.0 4.0"/>
<path d="M 6.0 5.0 L 5.657979856674331 5.060307379214092"/>
<path d="M 6.0 5.0 L 6.342020143325669 5.060307379214092"/>
<path d="M 6.342020143325669 5.060307379214092 L 6.64278760968654 5.233955556881022"/>
<path d="M 5.657979856674331 5.060307379214092 L 5.35721239031346 5.233955556881022"/>
<path d="M 6.0 4.0 L 5.315959713348661 4.120614758428184"/>
<path d="M 6.0 4.0 L 6.684040286651338 4.120614758428183"/>
<path d="M 6.684040286651338 4.120614758428183 L 7.026060429977006 3.180922137642275"/>
<path d="M 6.866025403784438 5.5 L 7.732050807568877 5.0"/>
<path d="M 7.285575219373079 4.467911113762044 L 7.732050807568877 5.0"/>
<path d="M 7.285575219373079 4.467911113762044 L 7.928362829059618 3.7018666706430663"/>
<path d="M 6.984807753012208 5.82635182233307 L 7.969615506024416 5.65270364466614"/>
<path d="M 7.732050807568877 5.0 L 8.598076211353316 4.5"/>
<path d="M 6.984807753012208 6.17364817766693 L 6.866025403784438 6.5"/>
<path d="M 6.984807753012208 6.17364817766693 L 7.969615506024416 6.347296355333861"/>
<path d="M 7.969615506024416 5.65270364466614 L 8.954423259036624 5.479055466999209"/>
<path d="M 6.866025403784438 6.5 L 7.732050807568878 7.0"/>
<path d="M 6.866025403784438 6.5 L 6.64278760968654 6.766044443118978"/>
<path d="M 7.732050807568878 7.0 L 7.2855752193730785 7.532088886237956"/>
<path d="M 7.732050807568878 7.0 L 8.598076211353316 7.5"/>
<path d="M 6.342020143325668 6.939692620785909 L 6.0 7.0"/>
<path d="M 7.2855752193730785 7.532088886237956 L 6.684040286651338 7.879385241571817"/>
<path d="M 6.0 7.0 L 6.0 8.0"/>
<path d="M 5.657979856674332 6.939692620785909 L 5.315959713348662 7.879385241571817"/>
<path d="M 5.657979856674332 6.939692620785909 L 5.35721239031346 6.766044443118978"/>
<path d="M 6.0 8.0 L 6.0 9.0"/>
<path d="M 5.315959713348662 7.879385241571817 L 4.973939570022994 8.819077862357725"/>
<path d="M 5.315959713348662 7.879385241571817 L 4.7144247806269215 7.532088886237956"/>
<path d="M 5.133974596215562 6.5 L 4.267949192431123 7.000000000000001"/>
<path d="M 5.133974596215562 6.5 L 5.015192246987792 6.17364817766693"/>
<path d="M 4.7144247806269215 7.532088886237956 L 4.267949192431123 7.000000000000001"/>
<path d="M 5.015192246987792 6.17364817766693 L 5.015192246987792 5.82635182233307"/>
<path d="M 4.267949192431123 7.000000000000001 L 3.4019237886466844 7.500000000000001"/>
<path d="M 5.015192246987792 5.82635182233307 L 4.030384493975584 5.65270364466614"/>
<path d="M 4.030384493975584 6.34729635533386 L 4.030384493975584 5.65270364466614"/>
<path d="M 5.133974596215562 5.5 L 5.35721239031346 5.233955556881022"/>
<path d="M 5.133974596215562 5.5 L 4.267949192431123 5.0"/>
<path d="M 4.030384493975584 5.65270364466614 L 3.0455767409633756 5.47905546699921"/>
<path d="M 4.714424780626921 4.467911113762044 L 5.315959713348661 4.120614758428184"/>
<path d="M 4.714424780626921 4.467911113762044 L 4.071637170940382 3.7018666706430663"/>
<path d="M 6.0 3.0 L 6.000000000000001 2.0"/>
<path d="M 6.0 3.0 L 7.026060429977006 3.180922137642275"/>
<path d="M 6.0 3.0 L 4.973939570022992 3.180922137642275"/>
<path d="M 7.026060429977006 3.180922137642275 L 7.3680805733026755 2.2412295168563667"/>
<path d="M 7.928362829059618 3.7018666706430663 L 8.571150438746159 2.9358222275240884"/>
<path d="M 8.954423259036624 5.479055466999209 L 8.954423259036624 6.520944533000791"/>
<path d="M 8.954423259036624 6.520944533000791 L 9.939231012048833 6.694592710667722"/>
<path d="M 8.954423259036624 6.520944533000791 L 8.598076211353316 7.5"/>
<path d="M 7.928362829059618 8.298133329356935 L 8.571150438746157 9.064177772475912"/>
<path d="M 7.026060429977006 8.819077862357725 L 6.0 9.0"/>
<path d="M 7.026060429977006 8.819077862357725 L 7.3680805733026755 9.758770483143634"/>
<path d="M 4.973939570022994 8.819077862357725 L 4.071637170940382 8.298133329356935"/>
<path d="M 4.973939570022994 8.819077862357725 L 4.6319194266973245 9.758770483143634"/>
<path d="M 4.071637170940382 8.298133329356935 L 3.4288495612538425 9.064177772475912"/>
<path d="M 3.0455767409633756 6.52094453300079 L 3.0455767409633756 5.47905546699921"/>
<path d="M 3.0455767409633756 5.47905546699921 L 3.401923788646684 4.5"/>
<path d="M 3.401923788646684 4.5 L 2.5358983848622456 3.9999999999999996"/>
<path d="M 7.3680805733026755 2.2412295168563667 L 8.571150438746159 2.9358222275240884"/>
<path d="M 7.3680805733026755 2.2412295168563667 L 7.710100716628345 1.3015368960704583"/>
<path d="M 8.571150438746159 2.9358222275240884 L 9.464101615137753 3.9999999999999996"/>
<path d="M 9.464101615137753 3.9999999999999996 L 9.939231012048833 5.305407289332279"/>
<path d="M 9.939231012048833 5.305407289332279 L 10.92403876506104 5.131759111665349"/>
<path d="M 9.939231012048833 5.305407289332279 L 9.939231012048833 6.694592710667722"/>
<path d="M 9.939231012048833 6.694592710667722 L 9.464101615137755 8.0"/>
<path d="M 9.464101615137755 8.0 L 10.330127018922195 8.5"/>
<path d="M 9.464101615137755 8.0 L 8.571150438746157 9.064177772475912"/>
<path d="M 8.571150438746157 9.064177772475912 L 9.213938048432697 9.83022221559489"/>
<path d="M 8.571150438746157 9.064177772475912 L 7.3680805733026755 9.758770483143634"/>
<path d="M 7.3680805733026755 9.758770483143634 L 7.710100716628344 10.698463103929543"/>
<path d="M 6.0 10.0 L 6.0 11.0"/>
<path d="M 3.4288495612538425 9.064177772475912 L 2.535898384862246 8.000000000000002"/>
<path d="M 2.535898384862246 8.000000000000002 L 1.6698729810778072 8.500000000000002"/>
<path d="M 2.535898384862246 8.000000000000002 L 2.0607689879511675 6.69459271066772"/>
<path d="M 2.0607689879511675 5.30540728933228 L 2.5358983848622456 3.9999999999999996"/>
<path d="M 2.5358983848622456 3.9999999999999996 L 3.428849561253842 2.9358222275240884"/>
<path d="M 3.428849561253842 2.9358222275240884 L 2.7860619515673024 2.1697777844051105"/>
<path d="M 4.631919426697323 2.241229516856367 L 4.289899283371653 1.3015368960704592"/>
<path d="M 6.000000000000001 1.0 L 7.710100716628345 1.3015368960704583"/>
<path d="M 9.213938048432698 2.1697777844051105 L 10.330127018922193 3.4999999999999996"/>
<path d="M 10.330127018922193 3.4999999999999996 L 10.92403876506104 5.131759111665349"/>
<path d="M 10.92403876506104 5.131759111665349 L 10.92403876506104 6.868240888334652"/>
<path d="M 7.710100716628344 10.698463103929543 L 6.0 11.0"/>
<path d="M 6.0 11.0 L 4.289899283371656 10.698463103929543"/>
<path d="M 4.289899283371656 10.698463103929543 L 2.7860619515673033 9.83022221559489"/>
<path d="M 2.7860619515673033 9.83022221559489 L 1.6698729810778072 8.500000000000002"/>
<path d="M 1.0759612349389593 6.868240888334651 L 1.0759612349389593 5.13175911166535"/>
<path d="M 1.0759612349389593 5.13175911166535 L 1.6698729810778072 3.4999999999999996"/>
<path d="M 1.6698729810778072 3.4999999999999996 L 2.7860619515673024 2.1697777844051105"/>
<path d="M 2.7860619515673024 2.1697777844051105 L 4.289899283371653 1.3015368960704592"/>
</svg>
</svg>
