<svg viewBox="0 0 16 16" xmlns="http://www.w3.org/2000/svg" style="background-color: #222;">

    <defs>
      <style>
        path {
          stroke: #f9e7c9;
          stroke-width: 0.297817029735765;
          stroke-linecap: round;
          fill: none;
        }
      </style>
    </defs>
    
<svg x="0" y="0">
<path d="M 7.657979856674331 7.060307379214092 A 1 1 0 0 1 7.999999999999999 7.0"/>
<path d="M 8.0 7.0 L 8.0 6.0"/>
<path d="M 8.34202014332567 7.060307379214092 L 8.684040286651339 6.120614758428183"/>
<path d="M 7.35721239031346 7.233955556881022 A 1 1 0 0 1 7.657979856674331 7.060307379214092"/>
<path d="M 8.0 6.0 L 8.0 5.0"/>
<path d="M 8.64278760968654 7.233955556881022 L 9.28557521937308 6.467911113762044"/>
<path d="M 8.64278760968654 7.233955556881022 A 1 1 0 0 1 8.86602540378444 7.5"/>
<path d="M 8.684040286651337 6.120614758428183 A 2 2 0 0 1 9.28557521937308 6.467911113762044"/>
<path d="M 8.86602540378444 7.5 L 9.732050807568877 7.0"/>
<path d="M 9.28557521937308 6.467911113762044 L 9.928362829059619 5.701866670643066"/>
<path d="M 8.984807753012207 7.82635182233307 L 9.969615506024416 7.65270364466614"/>
<path d="M 8.984807753012207 8.17364817766693 A 1 1 0 0 1 8.86602540378444 8.5"/>
<path d="M 9.969615506024416 7.65270364466614 L 10.954423259036624 7.479055466999209"/>
<path d="M 9.969615506024416 7.652703644666139 A 2 2 0 0 1 9.969615506024416 8.34729635533386"/>
<path d="M 8.86602540378444 8.5 L 9.732050807568877 9.0"/>
<path d="M 8.64278760968654 8.766044443118979 A 1 1 0 0 1 8.34202014332567 8.939692620785909"/>
<path d="M 9.732050807568879 9.0 A 2 2 0 0 1 9.28557521937308 9.532088886237956"/>
<path d="M 8.34202014332567 8.939692620785909 L 8.684040286651337 9.879385241571818"/>
<path d="M 9.28557521937308 9.532088886237956 A 2 2 0 0 1 8.684040286651339 9.879385241571816"/>
<path d="M 8.0 9.0 L 8.0 10.0"/>
<path d="M 8.684040286651337 9.879385241571818 L 9.026060429977006 10.819077862357725"/>
<path d="M 7.657979856674332 8.939692620785909 L 7.315959713348662 9.879385241571818"/>
<path d="M 8.0 10.0 A 2 2 0 0 1 7.315959713348663 9.879385241571818"/>
<path d="M 8.0 10.0 L 8.0 11.0"/>
<path d="M 7.35721239031346 8.766044443118979 A 1 1 0 0 1 7.133974596215562 8.5"/>
<path d="M 7.315959713348662 9.879385241571818 L 6.973939570022994 10.819077862357725"/>
<path d="M 7.315959713348663 9.879385241571818 A 2 2 0 0 1 6.7144247806269215 9.532088886237956"/>
<path d="M 7.133974596215562 8.5 A 1 1 0 0 1 7.015192246987792 8.173648177666932"/>
<path d="M 7.133974596215562 8.5 L 6.267949192431123 9.0"/>
<path d="M 6.7144247806269215 9.532088886237956 L 6.071637170940382 10.298133329356935"/>
<path d="M 7.015192246987792 8.17364817766693 A 1 1 0 0 1 7.015192246987792 7.82635182233307"/>
<path d="M 6.267949192431123 9.0 L 5.401923788646684 9.5"/>
<path d="M 6.267949192431123 9.0 A 2 2 0 0 1 6.030384493975584 8.347296355333862"/>
<path d="M 7.133974596215562 7.5 A 1 1 0 0 1 7.35721239031346 7.233955556881022"/>
<path d="M 7.133974596215562 7.5 L 6.267949192431123 7.0"/>
<path d="M 6.030384493975584 7.65270364466614 L 5.045576740963376 7.47905546699921"/>
<path d="M 6.267949192431123 7.0 L 5.401923788646684 6.5"/>
<path d="M 6.714424780626921 6.467911113762044 A 2 2 0 0 1 7.315959713348661 6.120614758428184"/>
<path d="M 6.714424780626921 6.467911113762044 L 6.071637170940382 5.701866670643066"/>
<path d="M 7.315959713348661 6.120614758428184 L 6.973939570022992 5.180922137642275"/>
<path d="M 8.0 5.0 L 8.0 4.0"/>
<path d="M 9.026060429977006 5.180922137642275 A 3 3 0 0 1 9.928362829059617 5.701866670643065"/>
<path d="M 9.928362829059619 5.701866670643066 L 10.571150438746159 4.935822227524088"/>
<path d="M 10.598076211353316 6.5 L 11.464101615137753 6.0"/>
<path d="M 10.598076211353316 6.5 A 3 3 0 0 1 10.954423259036624 7.479055466999209"/>
<path d="M 10.954423259036624 7.479055466999209 A 3 3 0 0 1 10.954423259036624 8.52094453300079"/>
<path d="M 10.954423259036624 8.520944533000792 L 11.939231012048833 8.694592710667722"/>
<path d="M 10.598076211353316 9.5 A 3 3 0 0 1 9.928362829059619 10.298133329356933"/>
<path d="M 10.598076211353316 9.5 L 11.464101615137755 10.0"/>
<path d="M 9.026060429977006 10.819077862357725 L 9.368080573302676 11.758770483143634"/>
<path d="M 8.0 11.0 L 8.0 12.0"/>
<path d="M 6.071637170940382 10.298133329356935 L 5.428849561253843 11.064177772475912"/>
<path d="M 5.401923788646684 9.5 L 4.5358983848622465 10.000000000000002"/>
<path d="M 5.045576740963376 8.52094453300079 L 4.0607689879511675 8.69459271066772"/>
<path d="M 5.045576740963376 7.47905546699921 L 4.0607689879511675 7.30540728933228"/>
<path d="M 5.045576740963376 7.47905546699921 A 3 3 0 0 1 5.401923788646683 6.500000000000002"/>
<path d="M 5.401923788646684 6.5 A 3 3 0 0 1 6.071637170940381 5.701866670643066"/>
<path d="M 8.0 4.0 A 4 4 0 0 1 9.368080573302676 4.241229516856366"/>
<path d="M 10.571150438746157 4.9358222275240875 A 4 4 0 0 1 11.464101615137753 6.0"/>
<path d="M 10.571150438746159 4.935822227524088 L 11.213938048432698 4.1697777844051105"/>
<path d="M 11.464101615137753 6.0 L 12.330127018922193 5.5"/>
<path d="M 11.939231012048833 7.305407289332278 A 4 4 0 0 1 11.939231012048833 8.69459271066772"/>
<path d="M 11.939231012048833 8.69459271066772 A 4 4 0 0 1 11.464101615137755 10.0"/>
<path d="M 11.464101615137755 10.0 L 12.330127018922195 10.5"/>
<path d="M 11.464101615137755 10.0 A 4 4 0 0 1 10.571150438746159 11.064177772475912"/>
<path d="M 9.368080573302676 11.758770483143634 A 4 4 0 0 1 8.0 12.0"/>
<path d="M 9.368080573302676 11.758770483143634 L 9.710100716628343 12.698463103929543"/>
<path d="M 8.0 12.0 A 4 4 0 0 1 6.631919426697325 11.758770483143634"/>
<path d="M 6.6319194266973245 11.758770483143634 L 6.289899283371656 12.698463103929543"/>
<path d="M 5.428849561253843 11.064177772475912 A 4 4 0 0 1 4.5358983848622465 10.000000000000002"/>
<path d="M 4.5358983848622465 10.000000000000002 A 4 4 0 0 1 4.060768987951168 8.694592710667726"/>
<path d="M 4.5358983848622465 10.000000000000002 L 3.6698729810778072 10.500000000000002"/>
<path d="M 4.0607689879511675 8.69459271066772 L 3.0759612349389593 8.86824088833465"/>
<path d="M 4.0607689879511675 8.694592710667722 A 4 4 0 0 1 4.0607689879511675 7.30540728933228"/>
<path d="M 4.535898384862246 6.0 A 4 4 0 0 1 5.428849561253841 4.935822227524088"/>
<path d="M 4.535898384862246 6.0 L 3.6698729810778072 5.5"/>
<path d="M 6.631919426697323 4.241229516856367 L 6.289899283371653 3.301536896070459"/>
<path d="M 8.0 3.0 A 5 5 0 0 1 9.710100716628343 3.3015368960704574"/>
<path d="M 6.289899283371653 3.301536896070459 A 5 5 0 0 1 7.999999999999995 3.0"/>
<path d="M 8.0 3.0 L 8.0 2.0"/>
<path d="M 9.710100716628343 3.3015368960704574 A 5 5 0 0 1 11.213938048432697 4.16977778440511"/>
<path d="M 11.213938048432698 4.1697777844051105 L 11.856725658119236 3.4037333412861326"/>
<path d="M 12.330127018922193 5.5 A 5 5 0 0 1 12.92403876506104 7.131759111665348"/>
<path d="M 12.92403876506104 7.131759111665348 A 5 5 0 0 1 12.92403876506104 8.868240888334652"/>
<path d="M 12.330127018922195 10.5 A 5 5 0 0 1 11.213938048432698 11.83022221559489"/>
<path d="M 11.213938048432698 11.83022221559489 A 5 5 0 0 1 9.710100716628345 12.69846310392954"/>
<path d="M 11.213938048432697 11.83022221559489 L 11.856725658119236 12.59626665871387"/>
<path d="M 9.710100716628345 12.69846310392954 A 5 5 0 0 1 8.0 13.0"/>
<path d="M 4.786061951567303 11.83022221559489 A 5 5 0 0 1 3.669872981077808 10.500000000000002"/>
<path d="M 3.6698729810778072 10.500000000000002 L 2.803847577293369 11.000000000000002"/>
<path d="M 3.0759612349389593 8.86824088833465 L 2.091153481926751 9.04188906600158"/>
<path d="M 3.0759612349389602 8.868240888334652 A 5 5 0 0 1 3.0759612349389593 7.1317591116653505"/>
<path d="M 3.6698729810778072 5.5 L 2.803847577293368 4.999999999999999"/>
<path d="M 3.6698729810778072 5.5 A 5 5 0 0 1 4.7860619515673015 4.1697777844051105"/>
<path d="M 8.0 2.0 L 8.0 1.0"/>
<path d="M 8.0 2.0 A 6 6 0 0 1 10.052120859954012 2.3618442752845494"/>
<path d="M 10.052120859954012 2.3618442752845503 L 10.394141003279682 1.4221516544986414"/>
<path d="M 11.856725658119236 3.4037333412861326 L 12.499513267805776 2.6376888981671547"/>
<path d="M 11.856725658119235 3.403733341286131 A 6 6 0 0 1 13.196152422706632 4.999999999999999"/>
<path d="M 13.196152422706632 4.999999999999999 A 6 6 0 0 1 13.908846518073247 6.958110933998418"/>
<path d="M 13.908846518073247 6.958110933998418 A 6 6 0 0 1 13.908846518073247 9.041889066001582"/>
<path d="M 13.908846518073247 9.041889066001582 L 14.893654271085456 9.215537243668512"/>
<path d="M 13.196152422706632 11.0 L 14.062177826491071 11.5"/>
<path d="M 13.196152422706632 10.999999999999998 A 6 6 0 0 1 11.856725658119236 12.596266658713867"/>
<path d="M 11.856725658119236 12.59626665871387 L 12.499513267805774 13.362311101832846"/>
<path d="M 11.856725658119236 12.596266658713867 A 6 6 0 0 1 10.052120859954012 13.63815572471545"/>
<path d="M 10.052120859954012 13.63815572471545 A 6 6 0 0 1 8.0 14.0"/>
<path d="M 8.0 14.0 L 8.0 15.0"/>
<path d="M 8.0 14.0 A 6 6 0 0 1 5.947879140045988 13.63815572471545"/>
<path d="M 5.947879140045988 13.63815572471545 A 6 6 0 0 1 4.1432743418807645 12.59626665871387"/>
<path d="M 2.803847577293369 11.000000000000002 L 1.9378221735089305 11.500000000000002"/>
<path d="M 2.091153481926752 9.041889066001582 A 6 6 0 0 1 2.091153481926751 6.95811093399842"/>
<path d="M 2.091153481926751 9.04188906600158 L 1.106345728914543 9.21553724366851"/>
<path d="M 2.091153481926751 6.95811093399842 A 6 6 0 0 1 2.803847577293366 5.000000000000004"/>
<path d="M 2.803847577293368 4.999999999999999 L 1.9378221735089296 4.499999999999999"/>
<path d="M 4.143274341880764 3.4037333412861326 L 3.500486732194224 2.6376888981671547"/>
<path d="M 5.947879140045984 2.3618442752845503 L 5.605858996720315 1.4221516544986423"/>
<path d="M 5.605858996720315 1.4221516544986423 A 7 7 0 0 1 7.999999999999992 1.0"/>
<path d="M 12.499513267805774 2.637688898167153 A 7 7 0 0 1 14.06217782649107 4.499999999999999"/>
<path d="M 14.893654271085456 6.784462756331488 A 7 7 0 0 1 14.893654271085456 9.215537243668512"/>
<path d="M 10.394141003279682 14.577848345501359 A 7 7 0 0 1 8.0 15.0"/>
<path d="M 8.0 15.0 A 7 7 0 0 1 5.605858996720319 14.577848345501359"/>
<path d="M 3.5004867321942257 13.362311101832848 A 7 7 0 0 1 1.9378221735089314 11.500000000000004"/>
<path d="M 1.106345728914543 6.78446275633149 A 7 7 0 0 1 1.937822173508927 4.500000000000005"/>
<path d="M 1.9378221735089296 4.5 A 7 7 0 0 1 3.500486732194223 2.6376888981671547"/>
</svg>
</svg>
