<svg viewBox="0 0 12 12" xmlns="http://www.w3.org/2000/svg" style="background-color: #222;">

    <defs>
      <style>
        path {
          stroke: #aebfef;
          stroke-width: 0.49900235797435155;
          stroke-linecap: round;
          fill: none;
        }
      </style>
    </defs>
    
<svg x="0" y="0">
<path d="M 6.0 5.0 A 1 1 0 0 0 6.5 5.133974596215562"/>
<path d="M 6,6 L 6.0,5.0"/>
<path d="M 6.5 5.133974596215562 L 7.0 4.267949192431122"/>
<path d="M 6,6 L 6.866025403784438,5.5"/>
<path d="M 6,6 L 7.0,6.0"/>
<path d="M 6,6 L 6.866025403784438,6.5"/>
<path d="M 6,6 L 6.5,6.866025403784438"/>
<path d="M 6,6 L 5.133974596215562,6.5"/>
<path d="M 5.133974596215562 5.5 A 1 1 0 0 0 5.5 5.133974596215561"/>
<path d="M 6.0 4.0 L 6.0 3.0"/>
<path d="M 4.999999999999999 4.267949192431123 A 2 2 0 0 0 5.999999999999999 4.0"/>
<path d="M 7.0 4.267949192431122 A 2 2 0 0 0 7.732050807568877 5.0"/>
<path d="M 6.866025403784438 6.5 L 7.732050807568878 7.0"/>
<path d="M 6.0 7.0 A 1 1 0 0 0 5.5 6.866025403784439"/>
<path d="M 6.0 7.0 L 6.0 8.0"/>
<path d="M 5.5 6.866025403784438 A 1 1 0 0 0 5.133974596215561 6.5"/>
<path d="M 5.133974596215562 6.5 A 1 1 0 0 0 5.0 6.0"/>
<path d="M 5.0 6.0 A 1 1 0 0 0 5.133974596215562 5.5"/>
<path d="M 5.133974596215562 5.5 L 4.267949192431123 5.0"/>
<path d="M 7.732050807568877 5.0 L 8.598076211353316 4.5"/>
<path d="M 8.0 6.0 L 9.0 6.0"/>
<path d="M 7.732050807568878 7.0 L 8.598076211353316 7.5"/>
<path d="M 7.0 7.732050807568878 L 7.5 8.598076211353316"/>
<path d="M 5.0 7.732050807568877 L 4.499999999999999 8.598076211353316"/>
<path d="M 5.0 7.732050807568877 A 2 2 0 0 0 4.267949192431122 6.999999999999999"/>
<path d="M 4.0 6.0 A 2 2 0 0 0 4.267949192431123 5.0"/>
<path d="M 4.267949192431123 5.0 A 2 2 0 0 0 5.000000000000001 4.267949192431122"/>
<path d="M 4.499999999999998 3.401923788646685 A 3 3 0 0 0 5.999999999999999 3.0"/>
<path d="M 7.5 3.401923788646684 A 3 3 0 0 0 8.598076211353316 4.5"/>
<path d="M 8.598076211353316 4.5 L 9.464101615137753 3.9999999999999996"/>
<path d="M 9.0 6.0 L 10.0 6.0"/>
<path d="M 8.598076211353316 7.5 L 9.464101615137755 8.0"/>
<path d="M 7.5 8.598076211353316 A 3 3 0 0 0 6.0 9.0"/>
<path d="M 6.0 9.0 L 6.0 10.0"/>
<path d="M 6.0 9.0 A 3 3 0 0 0 4.500000000000001 8.598076211353316"/>
<path d="M 4.5 8.598076211353316 A 3 3 0 0 0 3.4019237886466835 7.499999999999999"/>
<path d="M 4.499999999999999 8.598076211353316 L 3.999999999999999 9.464101615137753"/>
<path d="M 3.401923788646684 4.5 A 3 3 0 0 0 4.500000000000001 3.4019237886466835"/>
<path d="M 4.499999999999999 3.4019237886466844 L 3.9999999999999987 2.535898384862246"/>
<path d="M 6.0 2.0 A 4 4 0 0 0 8.0 2.535898384862245"/>
<path d="M 3.9999999999999982 2.5358983848622465 A 4 4 0 0 0 5.999999999999999 2.0"/>
<path d="M 6.000000000000001 2.0 L 6.000000000000001 1.0"/>
<path d="M 8.0 2.535898384862245 L 8.5 1.6698729810778064"/>
<path d="M 10.0 6.0 A 4 4 0 0 0 9.464101615137755 7.999999999999999"/>
<path d="M 9.464101615137755 7.999999999999999 A 4 4 0 0 0 8.000000000000002 9.464101615137753"/>
<path d="M 9.464101615137755 8.0 L 10.330127018922195 8.5"/>
<path d="M 8.0 9.464101615137755 A 4 4 0 0 0 6.000000000000001 10.0"/>
<path d="M 2.535898384862246 8.000000000000002 L 1.6698729810778072 8.500000000000002"/>
<path d="M 2.5358983848622456 4.0 A 4 4 0 0 0 4.000000000000002 2.5358983848622447"/>
<path d="M 2.5358983848622456 3.9999999999999996 L 1.6698729810778072 3.4999999999999996"/>
<path d="M 2.0 6.000000000000001 A 4 4 0 0 0 2.5358983848622456 4.0"/>
<path d="M 10.330127018922193 3.4999999999999996 A 5 5 0 0 0 11.0 6.0"/>
<path d="M 11.0 6.0 A 5 5 0 0 0 10.330127018922195 8.5"/>
<path d="M 10.330127018922195 8.5 A 5 5 0 0 0 8.500000000000002 10.330127018922193"/>
<path d="M 6.000000000000001 11.0 A 5 5 0 0 0 3.500000000000001 10.330127018922195"/>
<path d="M 3.4999999999999996 10.330127018922193 A 5 5 0 0 0 1.6698729810778055 8.499999999999998"/>
<path d="M 1.6698729810778081 8.500000000000002 A 5 5 0 0 0 1.0 6.000000000000001"/>
<path d="M 1.0 6.000000000000001 A 5 5 0 0 0 1.6698729810778072 3.5"/>
<path d="M 1.6698729810778072 3.5 A 5 5 0 0 0 3.5000000000000018 1.6698729810778055"/>
</svg>
</svg>
