<svg viewBox="0 0 32 32" xmlns="http://www.w3.org/2000/svg" style="background-color: #222;">

    <defs>
      <style>
        path {
          stroke: #ccf3db;
          stroke-width: 0.1664787497677177;
          stroke-linecap: round;
          fill: none;
        }
      </style>
    </defs>
    
<svg x="0" y="0">
<path d="M 16,16 L 16.0,15.0"/>
<path d="M 16.36124166618715 15.067527770595644 L 16.722483332374306 14.135055541191289"/>
<path d="M 16,16 L 16.89516329135506,15.554261644223462"/>
<path d="M 16,16 L 15.81625048218343,16.982973099683903"/>
<path d="M 16,16 L 16.18374951781657,16.982973099683903"/>
<path d="M 16,16 L 16.79801722728024,16.602634636379257"/>
<path d="M 16,16 L 15.638758333812847,15.067527770595644"/>
<path d="M 16,16 L 15.03817435682718,16.273662990072083"/>
<path d="M 16,16 L 16.995734176295034,15.907731640536698"/>
<path d="M 15.326304356353443 15.260991082779341 A 1 1 0 0 1 15.638758333812847 15.067527770595644"/>
<path d="M 15.277516667625694 14.135055541191289 A 2 2 0 0 0 16.0 14.0"/>
<path d="M 16.673695643646557 15.260991082779341 A 1 1 0 0 0 16.89516329135506 15.554261644223462"/>
<path d="M 16.722483332374306 14.135055541191289 A 2 2 0 0 1 17.347391287293114 14.521982165558683"/>
<path d="M 16.89516329135506 15.554261644223462 L 17.790326582710126 15.108523288446923"/>
<path d="M 16.995734176295034 15.907731640536698 L 17.99146835259007 15.815463281073397"/>
<path d="M 16.995734176295034 15.907731640536698 A 1 1 0 0 0 16.96182564317282 16.273662990072083"/>
<path d="M 16.526432162877356 16.850217135729615 A 1 1 0 0 1 16.183749517816572 16.982973099683903"/>
<path d="M 15.81625048218343 16.982973099683903 L 15.632500964366859 17.965946199367803"/>
<path d="M 15.473567837122644 16.850217135729615 A 1 1 0 0 0 15.201982772719761 16.602634636379257"/>
<path d="M 15.473567837122644 16.850217135729615 L 14.947135674245288 17.70043427145923"/>
<path d="M 15.201982772719761 16.602634636379257 L 14.40396554543952 17.205269272758514"/>
<path d="M 15.03817435682718 16.273662990072083 A 1 1 0 0 0 15.004265823704966 15.9077316405367"/>
<path d="M 15.004265823704966 15.907731640536698 L 14.008531647409932 15.815463281073397"/>
<path d="M 15.004265823704966 15.9077316405367 A 1 1 0 0 1 15.104836708644937 15.554261644223462"/>
<path d="M 15.326304356353443 15.260991082779341 L 14.652608712706884 14.521982165558683"/>
<path d="M 17.347391287293114 14.521982165558683 L 18.02108693093967 13.782973248338024"/>
<path d="M 17.99146835259007 15.815463281073397 A 2 2 0 0 0 17.92365128634564 16.547325980144166"/>
<path d="M 17.92365128634564 16.547325980144166 A 2 2 0 0 1 17.596034454560478 17.205269272758514"/>
<path d="M 17.05286432575471 17.70043427145923 L 17.579296488632068 18.55065140718884"/>
<path d="M 16.36749903563314 17.965946199367803 L 16.55124855344971 18.948919299051706"/>
<path d="M 16.36749903563314 17.965946199367803 A 2 2 0 0 0 15.63250096436686 17.965946199367803"/>
<path d="M 14.40396554543952 17.205269272758514 A 2 2 0 0 1 14.076348713654362 16.547325980144166"/>
<path d="M 14.076348713654362 16.547325980144166 A 2 2 0 0 0 14.008531647409932 15.815463281073397"/>
<path d="M 14.076348713654362 16.547325980144166 L 13.114523070481543 16.82098897021625"/>
<path d="M 14.008531647409932 15.815463281073397 L 13.012797471114897 15.723194921610094"/>
<path d="M 14.209673417289874 15.108523288446925 L 13.314510125934813 14.662784932670387"/>
<path d="M 14.652608712706884 14.521982165558683 A 2 2 0 0 1 15.277516667625692 14.135055541191289"/>
<path d="M 15.277516667625694 14.135055541191289 L 14.916275001438542 13.202583311786933"/>
<path d="M 14.91627500143854 13.202583311786933 A 3 3 0 0 0 16.0 13.0"/>
<path d="M 17.083724998561458 13.202583311786933 L 17.444966664748613 12.270111082382577"/>
<path d="M 18.02108693093967 13.782973248338024 L 18.694782574586227 13.043964331117364"/>
<path d="M 18.685489874065187 14.662784932670386 L 19.580653165420248 14.217046576893846"/>
<path d="M 18.685489874065187 14.662784932670386 A 3 3 0 0 1 18.987202528885103 15.723194921610094"/>
<path d="M 18.987202528885103 15.723194921610094 A 3 3 0 0 0 18.885476929518457 16.82098897021625"/>
<path d="M 18.987202528885103 15.723194921610094 L 19.982936705180137 15.630926562146792"/>
<path d="M 18.885476929518457 16.82098897021625 A 3 3 0 0 1 18.39405168184072 17.807903909137767"/>
<path d="M 18.885476929518457 16.82098897021625 L 19.847302572691277 17.09465196028833"/>
<path d="M 18.39405168184072 17.807903909137767 A 3 3 0 0 0 17.579296488632068 18.55065140718884"/>
<path d="M 17.579296488632068 18.55065140718884 A 3 3 0 0 1 16.551248553449714 18.948919299051706"/>
<path d="M 17.579296488632068 18.55065140718884 L 18.105728651509423 19.400868542918456"/>
<path d="M 15.44875144655029 18.948919299051706 L 15.265001928733719 19.931892398735606"/>
<path d="M 15.44875144655029 18.948919299051706 A 3 3 0 0 1 14.420703511367932 18.550651407188845"/>
<path d="M 14.420703511367932 18.55065140718884 A 3 3 0 0 0 13.605948318159282 17.80790390913777"/>
<path d="M 13.605948318159282 17.80790390913777 A 3 3 0 0 1 13.114523070481543 16.82098897021625"/>
<path d="M 13.012797471114897 15.723194921610096 A 3 3 0 0 1 13.314510125934813 14.662784932670387"/>
<path d="M 13.314510125934813 14.662784932670387 L 12.41934683457975 14.217046576893848"/>
<path d="M 13.978913069060326 13.782973248338024 A 3 3 0 0 1 14.916275001438539 13.202583311786935"/>
<path d="M 14.555033335251387 12.270111082382577 A 4 4 0 0 0 15.999999999999998 12.0"/>
<path d="M 17.444966664748613 12.270111082382577 L 17.806208330935764 11.33763885297822"/>
<path d="M 18.694782574586227 13.043964331117364 A 4 4 0 0 0 19.580653165420248 14.217046576893846"/>
<path d="M 19.847302572691277 17.09465196028833 L 20.809128215864096 17.368314950360414"/>
<path d="M 19.19206890912096 18.410538545517024 L 19.990086136401196 19.01317318189628"/>
<path d="M 16.734998071266283 19.931892398735606 A 4 4 0 0 0 15.265001928733719 19.931892398735606"/>
<path d="M 13.894271348490577 19.400868542918456 L 13.36783918561322 20.25108567864807"/>
<path d="M 12.807931090879041 18.410538545517024 L 12.009913863598802 19.01317318189628"/>
<path d="M 12.807931090879043 18.410538545517028 A 4 4 0 0 1 12.152697427308723 17.09465196028833"/>
<path d="M 12.152697427308723 17.09465196028833 A 4 4 0 0 0 12.017063294819861 15.630926562146794"/>
<path d="M 12.017063294819861 15.630926562146794 A 4 4 0 0 1 12.41934683457975 14.21704657689385"/>
<path d="M 12.41934683457975 14.21704657689385 A 4 4 0 0 0 13.305217425413769 13.043964331117365"/>
<path d="M 13.305217425413769 13.043964331117365 A 4 4 0 0 1 14.555033335251384 12.270111082382577"/>
<path d="M 14.55503333525139 12.270111082382577 L 14.193791669064236 11.33763885297822"/>
<path d="M 16.0 11.0 L 16.0 10.0"/>
<path d="M 16.0 11.0 A 5 5 0 0 0 17.806208330935764 11.33763885297822"/>
<path d="M 17.806208330935764 11.33763885297822 A 5 5 0 0 1 19.368478218232788 12.304955413896705"/>
<path d="M 17.806208330935764 11.33763885297822 L 18.167449997122915 10.405166623573866"/>
<path d="M 19.368478218232788 12.304955413896705 A 5 5 0 0 0 20.475816456775313 13.771308221117309"/>
<path d="M 20.97867088147517 15.53865820268349 A 5 5 0 0 0 20.809128215864096 17.368314950360414"/>
<path d="M 20.978670881475175 15.538658202683491 L 21.974405057770205 15.446389843220189"/>
<path d="M 20.809128215864096 17.368314950360414 A 5 5 0 0 1 19.9900861364012 19.01317318189628"/>
<path d="M 20.809128215864096 17.368314950360414 L 21.770953859036915 17.641977940432497"/>
<path d="M 18.63216081438678 20.25108567864807 A 5 5 0 0 1 16.918747589082855 20.91486549841951"/>
<path d="M 16.91874758908285 20.91486549841951 A 5 5 0 0 0 15.081252410917148 20.91486549841951"/>
<path d="M 16.91874758908285 20.91486549841951 L 17.10249710689942 21.897838598103412"/>
<path d="M 15.081252410917148 20.91486549841951 A 5 5 0 0 1 13.367839185613223 20.25108567864807"/>
<path d="M 13.36783918561322 20.25108567864807 A 5 5 0 0 0 12.009913863598804 19.01317318189628"/>
<path d="M 12.009913863598804 19.01317318189628 A 5 5 0 0 1 11.190871784135904 17.368314950360414"/>
<path d="M 11.021329118524827 15.538658202683491 L 10.025594942229793 15.44638984322019"/>
<path d="M 11.524183543224687 13.771308221117312 A 5 5 0 0 0 12.631521781767212 12.304955413896707"/>
<path d="M 12.631521781767212 12.304955413896707 A 5 5 0 0 1 14.19379166906423 11.337638852978223"/>
<path d="M 12.631521781767212 12.304955413896707 L 11.957826138120653 11.565946496676048"/>
<path d="M 14.193791669064236 11.33763885297822 L 13.832550002877083 10.405166623573866"/>
<path d="M 16.0 10.0 L 16.0 9.0"/>
<path d="M 13.832550002877081 10.405166623573866 A 6 6 0 0 0 15.999999999999998 10.0"/>
<path d="M 18.167449997122915 10.405166623573866 L 18.52869166331007 9.472694394169508"/>
<path d="M 20.042173861879345 11.565946496676046 L 20.7158695055259 10.826937579455386"/>
<path d="M 21.370979748130374 13.325569865340771 L 22.266143039485435 12.879831509564232"/>
<path d="M 21.770953859036915 17.641977940432497 L 22.732779502209734 17.91564093050458"/>
<path d="M 20.788103363681437 19.615807818275538 L 21.586120590961677 20.218442454654795"/>
<path d="M 20.788103363681437 19.615807818275538 A 6 6 0 0 0 19.158592977264135 21.101302814377682"/>
<path d="M 17.10249710689942 21.897838598103412 A 6 6 0 0 0 14.89750289310058 21.897838598103412"/>
<path d="M 14.897502893100578 21.897838598103412 L 14.713753375284009 22.880811697787312"/>
<path d="M 14.89750289310058 21.897838598103412 A 6 6 0 0 1 12.841407022735867 21.101302814377686"/>
<path d="M 12.841407022735865 21.101302814377686 A 6 6 0 0 0 11.211896636318563 19.615807818275538"/>
<path d="M 11.211896636318563 19.615807818275538 L 10.413879409038323 20.218442454654795"/>
<path d="M 11.211896636318563 19.615807818275538 A 6 6 0 0 1 10.229046140963085 17.641977940432497"/>
<path d="M 10.229046140963085 17.641977940432497 L 9.267220497790266 17.91564093050458"/>
<path d="M 10.229046140963085 17.641977940432497 A 6 6 0 0 0 10.025594942229793 15.44638984322019"/>
<path d="M 10.025594942229793 15.44638984322019 L 9.029860765934757 15.354121483756888"/>
<path d="M 10.629020251869624 13.325569865340773 A 6 6 0 0 0 11.957826138120653 11.565946496676048"/>
<path d="M 11.957826138120653 11.565946496676048 L 11.284130494474095 10.82693757945539"/>
<path d="M 13.832550002877083 10.405166623573866 L 13.47130833668993 9.472694394169508"/>
<path d="M 16.0 9.0 L 16.0 8.0"/>
<path d="M 20.7158695055259 10.826937579455386 A 7 7 0 0 0 22.266143039485435 12.879831509564232"/>
<path d="M 20.7158695055259 10.826937579455386 L 21.38956514917246 10.087928662234727"/>
<path d="M 22.266143039485435 12.879831509564232 L 23.1613063308405 12.434093153787694"/>
<path d="M 22.970139234065243 15.354121483756886 L 23.965873410360278 15.261853124293586"/>
<path d="M 21.586120590961677 20.218442454654795 A 7 7 0 0 0 19.68502514014149 21.951519950107297"/>
<path d="M 19.68502514014149 21.951519950107297 A 7 7 0 0 1 17.286246624715996 22.880811697787312"/>
<path d="M 17.286246624715993 22.880811697787312 L 17.469996142532562 23.863784797471215"/>
<path d="M 17.286246624715993 22.880811697787312 A 7 7 0 0 0 14.713753375284009 22.880811697787312"/>
<path d="M 12.31497485985851 21.951519950107297 L 11.788542696981153 22.801737085836912"/>
<path d="M 10.413879409038323 20.218442454654795 L 9.615862181758084 20.821077091034052"/>
<path d="M 9.029860765934757 15.354121483756888 L 8.034126589639722 15.261853124293587"/>
<path d="M 9.733856960514562 12.879831509564236 A 7 7 0 0 0 11.284130494474095 10.82693757945539"/>
<path d="M 9.733856960514562 12.879831509564236 L 8.8386936691595 12.434093153787698"/>
<path d="M 13.110066670502777 8.540222164765154 A 8 8 0 0 0 15.999999999999998 8.0"/>
<path d="M 18.889933329497225 8.540222164765154 A 8 8 0 0 1 21.38956514917246 10.087928662234727"/>
<path d="M 21.38956514917246 10.087928662234727 L 22.063260792819015 9.348919745014069"/>
<path d="M 23.965873410360278 15.261853124293586 L 24.96160758665531 15.169584764830283"/>
<path d="M 23.965873410360274 15.261853124293584 A 8 8 0 0 0 23.694605145382553 18.189303920576663"/>
<path d="M 22.384137818241918 20.82107709103405 A 8 8 0 0 0 20.211457303018847 22.801737085836912"/>
<path d="M 20.211457303018847 22.801737085836912 A 8 8 0 0 1 17.469996142532565 23.86378479747121"/>
<path d="M 14.530003857467438 23.863784797471215 A 8 8 0 0 1 11.788542696981157 22.801737085836915"/>
<path d="M 11.788542696981153 22.801737085836912 A 8 8 0 0 0 9.615862181758086 20.821077091034052"/>
<path d="M 11.788542696981153 22.801737085836912 L 11.262110534103797 23.651954221566527"/>
<path d="M 9.615862181758086 20.821077091034052 A 8 8 0 0 1 8.305394854617447 18.189303920576666"/>
<path d="M 10.610434850827538 10.08792866223473 L 9.936739207180981 9.348919745014072"/>
<path d="M 13.110066670502777 8.540222164765154 L 12.748825004315623 7.607749935360797"/>
<path d="M 12.748825004315623 7.607749935360797 A 9 9 0 0 0 15.999999999999998 7.0"/>
<path d="M 16.0 7.0 A 9 9 0 0 0 19.251174995684377 7.607749935360797"/>
<path d="M 22.063260792819015 9.348919745014069 L 22.736956436465572 8.60991082779341"/>
<path d="M 24.05646962219556 11.988354798011155 L 24.951632913550625 11.542616442234618"/>
<path d="M 24.05646962219556 11.988354798011155 A 9 9 0 0 1 24.96160758665531 15.169584764830281"/>
<path d="M 24.65643078855537 18.462966910648746 L 25.61825643172819 18.73662990072083"/>
<path d="M 23.18215504552216 21.423711727413306 A 9 9 0 0 0 20.737889465896203 23.651954221566527"/>
<path d="M 20.737889465896203 23.651954221566527 L 21.26432162877356 24.50217135729614"/>
<path d="M 17.65374566034913 24.846757897155115 L 17.837495178165703 25.829730996839018"/>
<path d="M 17.653745660349134 24.846757897155115 A 9 9 0 0 0 14.34625433965087 24.846757897155115"/>
<path d="M 14.346254339650867 24.846757897155115 L 14.162504821834297 25.829730996839018"/>
<path d="M 11.262110534103797 23.651954221566527 A 9 9 0 0 0 8.817844954477845 21.42371172741331"/>
<path d="M 8.817844954477845 21.42371172741331 A 9 9 0 0 1 7.343569211444629 18.46296691064875"/>
<path d="M 7.343569211444629 18.46296691064875 A 9 9 0 0 0 7.038392413344688 15.169584764830287"/>
<path d="M 7.343569211444629 18.462966910648746 L 6.38174356827181 18.73662990072083"/>
<path d="M 7.9435303778044375 11.988354798011159 L 7.048367086449375 11.542616442234621"/>
<path d="M 7.9435303778044375 11.98835479801116 A 9 9 0 0 0 9.936739207180981 9.348919745014072"/>
<path d="M 9.936739207180981 9.348919745014072 A 9 9 0 0 1 12.748825004315616 7.6077499353608005"/>
<path d="M 12.748825004315623 7.607749935360797 L 12.387583338128472 6.675277705956441"/>
<path d="M 16.0 6.0 L 16.0 5.0"/>
<path d="M 12.38758333812847 6.675277705956441 A 10 10 0 0 0 15.999999999999998 6.0"/>
<path d="M 19.612416661871528 6.675277705956441 L 19.973658328058683 5.7428054765520855"/>
<path d="M 19.612416661871528 6.675277705956441 A 10 10 0 0 1 22.736956436465572 8.60991082779341"/>
<path d="M 22.736956436465572 8.60991082779341 A 10 10 0 0 0 24.951632913550625 11.542616442234618"/>
<path d="M 24.951632913550625 11.542616442234618 L 25.846796204905687 11.09687808645808"/>
<path d="M 25.957341762950342 15.07731640536698 A 10 10 0 0 0 25.61825643172819 18.73662990072083"/>
<path d="M 25.957341762950346 15.07731640536698 L 26.95307593924538 14.98504804590368"/>
<path d="M 25.61825643172819 18.73662990072083 L 26.580082074901007 19.01029289079291"/>
<path d="M 23.980172272802395 22.026346363792562 L 24.778189500082632 22.62898100017182"/>
<path d="M 21.26432162877356 24.50217135729614 L 21.790753791650914 25.352388493025753"/>
<path d="M 21.26432162877356 24.50217135729614 A 10 10 0 0 1 17.837495178165707 25.829730996839018"/>
<path d="M 14.162504821834299 25.829730996839018 A 10 10 0 0 1 10.735678371226445 24.50217135729614"/>
<path d="M 10.735678371226442 24.50217135729614 A 10 10 0 0 0 8.019827727197606 22.026346363792566"/>
<path d="M 8.019827727197605 22.026346363792562 L 7.221810499917366 22.62898100017182"/>
<path d="M 8.019827727197606 22.026346363792566 A 10 10 0 0 1 6.38174356827181 18.736629900720832"/>
<path d="M 6.38174356827181 18.73662990072083 L 5.419917925098991 19.01029289079291"/>
<path d="M 6.38174356827181 18.736629900720832 A 10 10 0 0 0 6.042658237049654 15.077316405366984"/>
<path d="M 7.048367086449375 11.542616442234621 L 6.153203795094312 11.096878086458084"/>
<path d="M 9.263043563534422 8.609910827793414 A 10 10 0 0 1 12.387583338128461 6.675277705956445"/>
<path d="M 12.026341671941317 5.7428054765520855 A 11 11 0 0 0 15.999999999999996 5.0"/>
<path d="M 19.973658328058683 5.7428054765520855 L 20.334899994245834 4.81033324714773"/>
<path d="M 23.41065208011213 7.87090191057275 A 11 11 0 0 0 25.846796204905687 11.096878086458078"/>
<path d="M 25.846796204905687 11.096878086458078 A 11 11 0 0 1 26.95307593924538 14.985048045903678"/>
<path d="M 26.95307593924538 14.98504804590368 L 27.948810115540415 14.892779686440377"/>
<path d="M 24.778189500082632 22.62898100017182 L 25.576206727362873 23.231615636551076"/>
<path d="M 18.021244695982276 26.81270409652292 A 11 11 0 0 0 13.978755304017728 26.81270409652292"/>
<path d="M 13.978755304017728 26.81270409652292 L 13.795005786201157 27.79567719620682"/>
<path d="M 10.209246208349086 25.352388493025757 A 11 11 0 0 0 7.221810499917368 22.62898100017182"/>
<path d="M 5.419917925098991 19.01029289079291 L 4.458092281926172 19.283955880864994"/>
<path d="M 5.04692406075462 14.985048045903682 L 4.0511898844595855 14.89277968644038"/>
<path d="M 8.589347919887864 7.870901910572755 L 7.915652276241307 7.131892993352096"/>
<path d="M 12.026341671941319 5.7428054765520855 L 11.665100005754166 4.81033324714773"/>
<path d="M 16.0 4.0 L 16.0 3.0"/>
<path d="M 16.0 4.0 A 12 12 0 0 0 20.334899994245834 4.81033324714773"/>
<path d="M 20.334899994245834 4.81033324714773 A 12 12 0 0 1 24.084347723758686 7.131892993352091"/>
<path d="M 24.084347723758686 7.131892993352091 A 12 12 0 0 0 26.741959496260748 10.65113973068154"/>
<path d="M 27.948810115540415 14.892779686440376 A 12 12 0 0 0 27.54190771807383 19.283955880864994"/>
<path d="M 27.948810115540415 14.892779686440377 L 28.94454429183545 14.800511326977075"/>
<path d="M 27.54190771807383 19.283955880864994 L 28.503733361246645 19.55761887093708"/>
<path d="M 25.576206727362873 23.231615636551076 A 12 12 0 0 0 22.317185954528274 26.202605628755368"/>
<path d="M 22.317185954528274 26.202605628755368 A 12 12 0 0 1 18.204994213798848 27.79567719620682"/>
<path d="M 18.204994213798845 27.79567719620682 A 12 12 0 0 0 13.795005786201159 27.79567719620682"/>
<path d="M 18.204994213798845 27.79567719620682 L 18.388743731615413 28.77865029589072"/>
<path d="M 13.795005786201159 27.79567719620682 A 12 12 0 0 1 9.682814045471734 26.20260562875537"/>
<path d="M 9.68281404547173 26.20260562875537 A 12 12 0 0 0 6.423793272637127 23.231615636551076"/>
<path d="M 4.458092281926172 19.283955880864994 L 3.4962666387533528 19.55761887093708"/>
<path d="M 4.458092281926172 19.283955880864998 A 12 12 0 0 0 4.0511898844595855 14.892779686440381"/>
<path d="M 4.0511898844595855 14.892779686440381 A 12 12 0 0 1 5.258040503739249 10.651139730681546"/>
<path d="M 7.915652276241307 7.131892993352096 A 12 12 0 0 1 11.665100005754155 4.810333247147735"/>
<path d="M 16.0 3.0 A 13 13 0 0 0 20.69614166043299 3.877861017743374"/>
<path d="M 11.303858339567011 3.877861017743374 A 13 13 0 0 0 15.999999999999996 3.0"/>
<path d="M 16.0 3.0 L 16.0 2.0"/>
<path d="M 24.758043367405243 6.392884076131434 L 25.431739011051803 5.653875158910774"/>
<path d="M 27.63712278761581 10.205401374905001 A 13 13 0 0 1 28.94454429183545 14.800511326977073"/>
<path d="M 28.503733361246645 19.557618870937077 A 13 13 0 0 1 26.374223954643114 23.834250272930333"/>
<path d="M 28.503733361246645 19.55761887093708 L 29.465559004419468 19.831281861009163"/>
<path d="M 26.374223954643114 23.834250272930333 A 13 13 0 0 0 22.84361811740563 27.052822764484983"/>
<path d="M 22.84361811740563 27.052822764484983 A 13 13 0 0 1 18.38874373161542 28.77865029589072"/>
<path d="M 18.388743731615413 28.77865029589072 L 18.572493249431982 29.761623395574624"/>
<path d="M 13.611256268384587 28.77865029589072 L 13.427506750568016 29.761623395574624"/>
<path d="M 9.156381882594374 27.052822764484983 A 13 13 0 0 0 5.625776045356888 23.834250272930333"/>
<path d="M 5.625776045356888 23.834250272930333 A 13 13 0 0 1 3.4962666387533528 19.55761887093708"/>
<path d="M 5.625776045356886 23.834250272930333 L 4.8277588180766475 24.43688490930959"/>
<path d="M 3.0554557081645513 14.80051132697708 A 13 13 0 0 1 4.362877212384186 10.205401374905009"/>
<path d="M 4.362877212384186 10.205401374905009 L 3.467713921029125 9.759663019128471"/>
<path d="M 7.24195663259475 6.392884076131438 L 6.568260988948191 5.653875158910779"/>
<path d="M 10.94261667337986 2.9453887883390184 A 14 14 0 0 0 15.999999999999996 2.0"/>
<path d="M 21.05738332662014 2.9453887883390184 A 14 14 0 0 1 25.431739011051803 5.653875158910772"/>
<path d="M 21.05738332662014 2.9453887883390184 L 21.418624992807292 2.0129165589346627"/>
<path d="M 28.532286078970873 9.759663019128464 A 14 14 0 0 1 29.940278468130483 14.708242967513772"/>
<path d="M 29.940278468130483 14.708242967513772 A 14 14 0 0 0 29.465559004419468 19.83128186100916"/>
<path d="M 29.940278468130487 14.708242967513774 L 30.936012644425517 14.615974608050472"/>
<path d="M 29.465559004419468 19.83128186100916 A 14 14 0 0 1 27.172241181923354 24.43688490930959"/>
<path d="M 29.465559004419468 19.831281861009163 L 30.427384647592284 20.104944851081246"/>
<path d="M 27.172241181923354 24.43688490930959 L 27.970258409203595 25.039519545688847"/>
<path d="M 23.370050280282985 27.903039900214594 A 14 14 0 0 1 18.572493249431993 29.761623395574624"/>
<path d="M 18.572493249431982 29.761623395574624 L 18.756242767248555 30.744596495258527"/>
<path d="M 13.427506750568018 29.761623395574624 A 14 14 0 0 1 8.629949719717022 27.9030399002146"/>
<path d="M 8.629949719717017 27.903039900214594 L 8.10351755683966 28.75325703594421"/>
<path d="M 4.827758818076649 24.43688490930959 A 14 14 0 0 1 2.5344409955805336 19.831281861009163"/>
<path d="M 4.8277588180766475 24.43688490930959 L 4.029741590796407 25.039519545688847"/>
<path d="M 2.5344409955805336 19.831281861009163 A 14 14 0 0 0 2.0597215318695152 14.708242967513778"/>
<path d="M 2.0597215318695152 14.708242967513776 L 1.063987355574481 14.615974608050475"/>
<path d="M 2.0597215318695152 14.708242967513778 A 14 14 0 0 1 3.467713921029125 9.759663019128471"/>
<path d="M 3.467713921029125 9.759663019128471 A 14 14 0 0 0 6.568260988948191 5.653875158910779"/>
<path d="M 16.0 1.0 A 15 15 0 0 0 21.418624992807295 2.0129165589346627"/>
<path d="M 10.581375007192705 2.0129165589346627 A 15 15 0 0 0 15.999999999999996 1.0"/>
<path d="M 21.418624992807295 2.0129165589346627 A 15 15 0 0 1 26.105434654698357 4.914866241690113"/>
<path d="M 26.105434654698357 4.914866241690113 A 15 15 0 0 0 29.427449370325935 9.313924663351926"/>
<path d="M 29.427449370325935 9.313924663351926 A 15 15 0 0 1 30.936012644425517 14.61597460805047"/>
<path d="M 27.970258409203595 25.039519545688844 A 15 15 0 0 0 23.89648244316034 28.75325703594421"/>
<path d="M 18.756242767248555 30.744596495258527 A 15 15 0 0 0 13.243757232751449 30.744596495258527"/>
<path d="M 13.243757232751449 30.744596495258527 A 15 15 0 0 1 8.103517556839668 28.753257035944216"/>
<path d="M 8.103517556839662 28.75325703594421 A 15 15 0 0 0 4.029741590796409 25.039519545688847"/>
<path d="M 4.029741590796409 25.039519545688847 A 15 15 0 0 1 1.5726153524077144 20.104944851081246"/>
<path d="M 2.572550629674062 9.313924663351933 A 15 15 0 0 0 5.894565345301633 4.91486624169012"/>
<path d="M 5.894565345301633 4.91486624169012 A 15 15 0 0 1 10.581375007192694 2.012916558934668"/>
</svg>
</svg>
