<svg viewBox="0 0 22 22" xmlns="http://www.w3.org/2000/svg" style="background-color: #222;">

    <defs>
      <style>
        path {
          stroke: #c5e7f8;
          stroke-width: 0.10114658939751721;
          stroke-linecap: round;
          fill: none;
        }
      </style>
    </defs>
    
<svg x="0" y="0">
<path d="M 11.0 10.0 L 11.0 9.0"/>
<path d="M 11.0 10.0 L 11.5 10.13397459621556"/>
<path d="M 11,11 L 11.0,10.0"/>
<path d="M 11.5 10.13397459621556 L 11.86602540378444 10.5"/>
<path d="M 11,11 L 10.5,10.13397459621556"/>
<path d="M 11,11 L 10.0,11.0"/>
<path d="M 11.0 9.0 L 12.0 9.267949192431123"/>
<path d="M 11.86602540378444 10.5 L 12.0 11.0"/>
<path d="M 12.0 9.267949192431123 L 12.5 8.401923788646684"/>
<path d="M 12.0 9.267949192431123 L 12.732050807568877 10.0"/>
<path d="M 12.0 11.0 L 13.0 11.0"/>
<path d="M 11.86602540378444 11.5 L 11.5 11.86602540378444"/>
<path d="M 11.86602540378444 11.5 L 12.732050807568877 12.0"/>
<path d="M 11.5 11.86602540378444 L 11.0 12.0"/>
<path d="M 10.13397459621556 11.5 L 10.0 11.0"/>
<path d="M 13.0 11.0 L 12.732050807568877 12.0"/>
<path d="M 12.732050807568877 12.0 L 12.0 12.732050807568877"/>
<path d="M 12.0 12.732050807568877 L 11.0 13.0"/>
<path d="M 12.0 12.732050807568877 L 12.5 13.598076211353316"/>
<path d="M 11.0 13.0 L 10.0 12.732050807568877"/>
<path d="M 9.267949192431123 12.0 L 10.0 12.732050807568877"/>
<path d="M 9.267949192431123 12.0 L 9.0 11.0"/>
<path d="M 9.267949192431123 12.0 L 8.401923788646684 12.5"/>
<path d="M 9.0 11.0 L 9.267949192431123 10.0"/>
<path d="M 10.0 9.267949192431123 L 9.5 8.401923788646684"/>
<path d="M 11.0 8.0 L 12.5 8.401923788646684"/>
<path d="M 12.5 8.401923788646684 L 13.598076211353316 9.5"/>
<path d="M 13.598076211353316 9.5 L 14.464101615137753 9.0"/>
<path d="M 14.0 11.0 L 15.0 11.0"/>
<path d="M 14.0 11.0 L 13.598076211353316 12.5"/>
<path d="M 13.598076211353316 12.5 L 12.5 13.598076211353316"/>
<path d="M 12.5 13.598076211353316 L 11.0 14.0"/>
<path d="M 11.0 14.0 L 11.0 15.0"/>
<path d="M 8.401923788646684 12.5 L 8.0 11.0"/>
<path d="M 9.267949192431123 10.0 L 8.401923788646684 9.5"/>
<path d="M 9.5 8.401923788646684 L 8.999999999999998 7.5358983848622465"/>
<path d="M 11.0 7.0 L 8.999999999999998 7.5358983848622465"/>
<path d="M 11.0 7.0 L 13.0 7.535898384862245"/>
<path d="M 11.0 7.0 L 11.0 6.0"/>
<path d="M 13.0 7.535898384862245 L 14.464101615137753 9.0"/>
<path d="M 13.0 7.535898384862245 L 13.5 6.669872981077806"/>
<path d="M 15.0 11.0 L 16.0 11.0"/>
<path d="M 14.464101615137755 13.0 L 13.0 14.464101615137755"/>
<path d="M 13.0 14.464101615137755 L 13.5 15.330127018922195"/>
<path d="M 11.0 15.0 L 9.0 14.464101615137753"/>
<path d="M 7.5358983848622465 13.000000000000002 L 7.0 11.0"/>
<path d="M 7.5358983848622465 13.000000000000002 L 6.669872981077807 13.500000000000002"/>
<path d="M 7.0 11.0 L 7.535898384862246 9.0"/>
<path d="M 7.535898384862246 9.0 L 6.669872981077807 8.5"/>
<path d="M 11.0 6.0 L 8.499999999999998 6.669872981077807"/>
<path d="M 11.0 6.0 L 11.0 5.0"/>
<path d="M 15.330127018922193 8.5 L 16.196152422706632 7.999999999999999"/>
<path d="M 15.330127018922193 8.5 L 16.0 11.0"/>
<path d="M 15.330127018922195 13.5 L 13.5 15.330127018922195"/>
<path d="M 13.5 15.330127018922195 L 14.0 16.196152422706632"/>
<path d="M 11.0 16.0 L 8.5 15.330127018922193"/>
<path d="M 11.0 16.0 L 11.0 17.0"/>
<path d="M 6.669872981077807 13.500000000000002 L 5.803847577293369 14.000000000000002"/>
<path d="M 6.669872981077807 13.500000000000002 L 6.0 11.0"/>
<path d="M 11.0 5.0 L 14.0 5.803847577293368"/>
<path d="M 14.0 5.803847577293368 L 14.5 4.937822173508929"/>
<path d="M 16.196152422706632 7.999999999999999 L 17.0 11.0"/>
<path d="M 17.0 11.0 L 18.0 11.0"/>
<path d="M 14.0 16.196152422706632 L 14.499999999999998 17.062177826491073"/>
<path d="M 11.0 17.0 L 11.0 18.0"/>
<path d="M 11.0 17.0 L 7.999999999999998 16.196152422706632"/>
<path d="M 7.999999999999998 16.196152422706632 L 7.499999999999998 17.06217782649107"/>
<path d="M 5.803847577293369 14.000000000000002 L 5.0 11.0"/>
<path d="M 5.0 11.0 L 4.0 11.0"/>
<path d="M 5.803847577293368 7.999999999999999 L 4.93782217350893 7.499999999999999"/>
<path d="M 5.803847577293368 7.999999999999999 L 7.999999999999998 5.803847577293369"/>
<path d="M 11.0 4.0 L 11.000000000000002 3.0"/>
<path d="M 11.0 4.0 L 7.499999999999998 4.9378221735089305"/>
<path d="M 11.0 4.0 L 14.5 4.937822173508929"/>
<path d="M 17.06217782649107 7.499999999999999 L 18.0 11.0"/>
<path d="M 17.06217782649107 7.499999999999999 L 17.928203230275507 6.999999999999999"/>
<path d="M 18.0 11.0 L 17.062177826491073 14.5"/>
<path d="M 14.499999999999998 17.062177826491073 L 11.0 18.0"/>
<path d="M 14.499999999999998 17.062177826491073 L 14.999999999999998 17.92820323027551"/>
<path d="M 14.499999999999998 17.062177826491073 L 17.062177826491073 14.5"/>
<path d="M 11.0 18.0 L 11.0 19.0"/>
<path d="M 7.499999999999998 17.06217782649107 L 6.999999999999998 17.928203230275507"/>
<path d="M 4.9378221735089305 14.500000000000002 L 4.071796769724492 15.000000000000004"/>
<path d="M 4.9378221735089305 14.500000000000002 L 4.0 11.0"/>
<path d="M 4.0 11.0 L 4.93782217350893 7.499999999999999"/>
<path d="M 4.93782217350893 7.499999999999999 L 7.499999999999998 4.9378221735089305"/>
<path d="M 4.93782217350893 7.499999999999999 L 4.071796769724491 6.999999999999999"/>
<path d="M 7.499999999999998 4.9378221735089305 L 6.999999999999997 4.071796769724492"/>
<path d="M 11.000000000000002 3.0 L 15.0 4.07179676972449"/>
<path d="M 15.0 4.07179676972449 L 15.5 3.205771365940052"/>
<path d="M 17.928203230275507 6.999999999999999 L 18.794228634059948 6.499999999999999"/>
<path d="M 17.062177826491073 14.5 L 17.92820323027551 15.0"/>
<path d="M 19.0 11.0 L 17.92820323027551 15.0"/>
<path d="M 19.0 11.0 L 20.0 11.0"/>
<path d="M 6.999999999999998 17.928203230275507 L 6.499999999999998 18.794228634059948"/>
<path d="M 3.0 11.0 L 4.071796769724491 6.999999999999999"/>
<path d="M 11.000000000000002 2.0 L 11.000000000000002 1.0"/>
<path d="M 11.000000000000002 2.0 L 15.5 3.205771365940052"/>
<path d="M 18.794228634059948 6.499999999999999 L 19.660254037844386 5.999999999999999"/>
<path d="M 20.0 11.0 L 18.794228634059948 15.5"/>
<path d="M 18.794228634059948 15.5 L 19.66025403784439 16.0"/>
<path d="M 18.794228634059948 15.5 L 15.499999999999998 18.794228634059948"/>
<path d="M 15.499999999999998 18.794228634059948 L 11.0 20.0"/>
<path d="M 6.499999999999998 18.794228634059948 L 5.999999999999998 19.660254037844386"/>
<path d="M 3.2057713659400537 15.500000000000004 L 2.0 11.0"/>
<path d="M 2.0 11.0 L 3.205771365940053 6.499999999999999"/>
<path d="M 2.0 11.0 L 1.0 11.0"/>
<path d="M 6.499999999999997 3.2057713659400537 L 5.9999999999999964 2.3397459621556145"/>
<path d="M 11.000000000000002 1.0 L 5.9999999999999964 2.3397459621556145"/>
<path d="M 16.0 2.3397459621556127 L 19.660254037844386 5.999999999999999"/>
<path d="M 19.660254037844386 5.999999999999999 L 21.0 11.0"/>
<path d="M 19.66025403784439 16.0 L 15.999999999999998 19.66025403784439"/>
<path d="M 15.999999999999998 19.66025403784439 L 11.0 21.0"/>
<path d="M 2.3397459621556145 16.000000000000004 L 1.0 11.0"/>
<path d="M 1.0 11.0 L 2.3397459621556145 5.999999999999999"/>
<path d="M 2.3397459621556145 5.999999999999999 L 5.9999999999999964 2.3397459621556145"/>
</svg>
</svg>
