<svg viewBox="0 0 16 16" xmlns="http://www.w3.org/2000/svg" style="background-color: #222;">

    <defs>
      <style>
        path {
          stroke: #f24546;
          stroke-width: 0.0559876015447996;
          stroke-linecap: round;
          fill: none;
        }
      </style>
    </defs>
    
<svg x="0" y="0">
<path d="M 8.0 7.0 A 1 1 0 0 0 8.361241666187153 7.067527770595644"/>
<path d="M 8.0 7.0 L 8.0 6.0"/>
<path d="M 7.638758333812847 7.067527770595644 A 1 1 0 0 0 8.0 7.0"/>
<path d="M 8,8 L 8.361241666187153,7.067527770595644"/>
<path d="M 8,8 L 7.326304356353442,7.260991082779341"/>
<path d="M 8,8 L 7.816250482183429,8.982973099683901"/>
<path d="M 8,8 L 8.18374951781657,8.982973099683901"/>
<path d="M 8,8 L 8.895163291355063,7.554261644223462"/>
<path d="M 8,8 L 8.96182564317282,8.273662990072083"/>
<path d="M 8,8 L 7.20198277271976,8.602634636379257"/>
<path d="M 7.638758333812847 7.067527770595644 L 7.277516667625695 6.135055541191289"/>
<path d="M 8.0 6.0 A 2 2 0 0 0 8.722483332374306 6.135055541191289"/>
<path d="M 8.673695643646557 7.260991082779341 L 9.347391287293114 6.521982165558682"/>
<path d="M 8.722483332374306 6.135055541191289 L 9.083724998561458 5.202583311786933"/>
<path d="M 8.895163291355063 7.554261644223462 L 9.790326582710124 7.108523288446923"/>
<path d="M 8.995734176295034 7.907731640536698 A 1 1 0 0 0 8.96182564317282 8.273662990072083"/>
<path d="M 8.96182564317282 8.273662990072083 A 1 1 0 0 0 8.798017227280239 8.602634636379257"/>
<path d="M 8.798017227280239 8.602634636379257 L 9.59603445456048 9.205269272758512"/>
<path d="M 8.798017227280239 8.602634636379257 A 1 1 0 0 0 8.526432162877356 8.850217135729615"/>
<path d="M 8.18374951781657 8.982973099683901 L 8.367499035633141 9.965946199367803"/>
<path d="M 7.816250482183429 8.982973099683901 L 7.6325009643668595 9.965946199367803"/>
<path d="M 7.473567837122644 8.850217135729615 A 1 1 0 0 0 7.20198277271976 8.602634636379257"/>
<path d="M 7.038174356827181 8.273662990072083 L 6.076348713654362 8.547325980144166"/>
<path d="M 7.004265823704966 7.907731640536698 L 6.008531647409931 7.815463281073397"/>
<path d="M 7.004265823704966 7.907731640536698 A 1 1 0 0 0 7.104836708644937 7.5542616442234625"/>
<path d="M 7.104836708644937 7.5542616442234625 L 6.209673417289875 7.108523288446924"/>
<path d="M 9.347391287293114 6.521982165558682 A 2 2 0 0 0 9.790326582710124 7.108523288446923"/>
<path d="M 9.991468352590068 7.815463281073396 L 10.987202528885103 7.723194921610094"/>
<path d="M 9.923651286345638 8.547325980144166 A 2 2 0 0 0 9.59603445456048 9.205269272758512"/>
<path d="M 9.59603445456048 9.205269272758512 L 10.394051681840718 9.807903909137769"/>
<path d="M 9.59603445456048 9.205269272758512 A 2 2 0 0 0 9.052864325754712 9.700434271459228"/>
<path d="M 8.367499035633141 9.965946199367803 L 8.55124855344971 10.948919299051706"/>
<path d="M 7.6325009643668595 9.965946199367803 L 7.448751446550289 10.948919299051706"/>
<path d="M 6.947135674245288 9.700434271459228 A 2 2 0 0 0 6.4039655454395215 9.205269272758514"/>
<path d="M 6.947135674245288 9.700434271459228 L 6.4207035113679325 10.550651407188841"/>
<path d="M 6.076348713654362 8.547325980144166 L 5.1145230704815425 8.820988970216249"/>
<path d="M 6.209673417289875 7.108523288446924 L 5.314510125934812 6.6627849326703865"/>
<path d="M 6.6526087127068845 6.521982165558683 A 2 2 0 0 0 7.277516667625692 6.135055541191289"/>
<path d="M 6.6526087127068845 6.521982165558683 L 5.978913069060327 5.782973248338024"/>
<path d="M 8.0 5.0 A 3 3 0 0 0 9.08372499856146 5.202583311786933"/>
<path d="M 9.083724998561458 5.202583311786933 L 9.44496666474861 4.270111082382577"/>
<path d="M 10.021086930939672 5.782973248338023 L 10.69478257458623 5.043964331117364"/>
<path d="M 10.02108693093967 5.782973248338022 A 3 3 0 0 0 10.685489874065187 6.662784932670386"/>
<path d="M 10.987202528885103 7.723194921610094 A 3 3 0 0 0 10.885476929518457 8.820988970216249"/>
<path d="M 10.885476929518457 8.820988970216249 A 3 3 0 0 0 10.394051681840718 9.807903909137769"/>
<path d="M 10.885476929518457 8.820988970216249 L 11.847302572691277 9.094651960288331"/>
<path d="M 10.394051681840718 9.807903909137769 A 3 3 0 0 0 9.579296488632068 10.550651407188841"/>
<path d="M 8.55124855344971 10.948919299051706 L 8.734998071266281 11.931892398735608"/>
<path d="M 6.4207035113679325 10.550651407188841 L 5.894271348490577 11.400868542918456"/>
<path d="M 6.4207035113679325 10.550651407188843 A 3 3 0 0 0 5.605948318159282 9.807903909137769"/>
<path d="M 5.605948318159282 9.807903909137769 A 3 3 0 0 0 5.1145230704815425 8.820988970216249"/>
<path d="M 5.1145230704815425 8.820988970216249 A 3 3 0 0 0 5.012797471114896 7.723194921610095"/>
<path d="M 5.012797471114896 7.723194921610095 A 3 3 0 0 0 5.314510125934812 6.6627849326703865"/>
<path d="M 5.314510125934812 6.6627849326703865 L 4.41934683457975 6.217046576893849"/>
<path d="M 5.978913069060327 5.782973248338024 L 5.305217425413769 5.043964331117365"/>
<path d="M 5.978913069060327 5.782973248338024 A 3 3 0 0 0 6.916275001438539 5.202583311786934"/>
<path d="M 6.555033335251388 4.270111082382577 A 4 4 0 0 0 7.999999999999999 4.0"/>
<path d="M 8.0 4.0 A 4 4 0 0 0 9.444966664748613 4.270111082382577"/>
<path d="M 9.44496666474861 4.270111082382577 L 9.806208330935764 3.3376388529782206"/>
<path d="M 10.69478257458623 5.043964331117364 L 11.368478218232786 4.304955413896705"/>
<path d="M 10.69478257458623 5.043964331117364 A 4 4 0 0 0 11.58065316542025 6.217046576893846"/>
<path d="M 11.982936705180139 7.630926562146793 L 12.978670881475173 7.53865820268349"/>
<path d="M 11.192068909120959 10.410538545517026 L 11.990086136401198 11.013173181896281"/>
<path d="M 10.105728651509423 11.400868542918456 A 4 4 0 0 0 8.734998071266283 11.931892398735606"/>
<path d="M 8.734998071266281 11.931892398735608 L 8.918747589082852 12.914865498419509"/>
<path d="M 7.265001928733719 11.931892398735608 A 4 4 0 0 0 5.894271348490578 11.400868542918458"/>
<path d="M 5.894271348490577 11.400868542918456 L 5.367839185613221 12.25108567864807"/>
<path d="M 5.894271348490577 11.400868542918456 A 4 4 0 0 0 4.807931090879043 10.410538545517026"/>
<path d="M 4.152697427308723 9.094651960288333 A 4 4 0 0 0 4.017063294819861 7.630926562146794"/>
<path d="M 4.017063294819861 7.630926562146794 A 4 4 0 0 0 4.41934683457975 6.217046576893849"/>
<path d="M 4.41934683457975 6.217046576893849 L 3.5241835432246873 5.771308221117311"/>
<path d="M 6.555033335251388 4.270111082382577 L 6.193791669064236 3.3376388529782206"/>
<path d="M 8.0 3.0 A 5 5 0 0 0 9.806208330935764 3.3376388529782206"/>
<path d="M 9.806208330935764 3.3376388529782206 L 10.167449997122917 2.405166623573865"/>
<path d="M 11.368478218232786 4.304955413896705 A 5 5 0 0 0 12.475816456775313 5.771308221117309"/>
<path d="M 12.475816456775313 5.771308221117309 L 13.370979748130374 5.32556986534077"/>
<path d="M 12.978670881475171 7.53865820268349 A 5 5 0 0 0 12.809128215864096 9.368314950360414"/>
<path d="M 12.809128215864096 9.368314950360414 L 13.770953859036915 9.641977940432497"/>
<path d="M 11.990086136401198 11.013173181896281 A 5 5 0 0 0 10.63216081438678 12.25108567864807"/>
<path d="M 11.990086136401198 11.013173181896281 L 12.788103363681437 11.615807818275538"/>
<path d="M 10.63216081438678 12.25108567864807 A 5 5 0 0 0 8.918747589082853 12.914865498419509"/>
<path d="M 8.918747589082852 12.914865498419509 L 9.102497106899422 13.89783859810341"/>
<path d="M 7.081252410917148 12.914865498419509 L 6.897502893100579 13.89783859810341"/>
<path d="M 7.081252410917149 12.914865498419509 A 5 5 0 0 0 5.367839185613223 12.25108567864807"/>
<path d="M 5.367839185613221 12.25108567864807 A 5 5 0 0 0 4.009913863598803 11.013173181896283"/>
<path d="M 3.190871784135905 9.368314950360414 L 2.229046140963086 9.641977940432497"/>
<path d="M 3.190871784135905 9.368314950360416 A 5 5 0 0 0 3.021329118524827 7.538658202683492"/>
<path d="M 3.021329118524827 7.538658202683492 A 5 5 0 0 0 3.5241835432246873 5.7713082211173115"/>
<path d="M 3.5241835432246873 5.7713082211173115 A 5 5 0 0 0 4.631521781767211 4.304955413896707"/>
<path d="M 3.5241835432246873 5.771308221117311 L 2.6290202518696244 5.325569865340773"/>
<path d="M 4.631521781767211 4.304955413896707 L 3.9578261381206534 3.565946496676048"/>
<path d="M 6.193791669064236 3.3376388529782206 L 5.832550002877083 2.405166623573865"/>
<path d="M 8.0 2.0 L 8.0 1.0"/>
<path d="M 10.167449997122917 2.405166623573865 A 6 6 0 0 0 12.042173861879343 3.5659464966760455"/>
<path d="M 10.167449997122917 2.405166623573865 L 10.52869166331007 1.4726943941695092"/>
<path d="M 12.042173861879343 3.5659464966760455 A 6 6 0 0 0 13.370979748130374 5.32556986534077"/>
<path d="M 13.370979748130374 5.32556986534077 L 14.266143039485437 4.879831509564232"/>
<path d="M 13.974405057770207 7.446389843220189 L 14.970139234065243 7.354121483756887"/>
<path d="M 13.974405057770207 7.446389843220188 A 6 6 0 0 0 13.770953859036915 9.641977940432497"/>
<path d="M 13.770953859036915 9.641977940432497 A 6 6 0 0 0 12.788103363681437 11.615807818275538"/>
<path d="M 13.770953859036915 9.641977940432497 L 14.732779502209734 9.915640930504582"/>
<path d="M 11.158592977264137 13.101302814377684 A 6 6 0 0 0 9.102497106899424 13.89783859810341"/>
<path d="M 9.102497106899422 13.89783859810341 A 6 6 0 0 0 6.8975028931005795 13.89783859810341"/>
<path d="M 9.102497106899422 13.89783859810341 L 9.286246624715991 14.880811697787312"/>
<path d="M 6.8975028931005795 13.89783859810341 A 6 6 0 0 0 4.841407022735867 13.101302814377686"/>
<path d="M 4.841407022735865 13.101302814377686 A 6 6 0 0 0 3.2118966363185635 11.615807818275538"/>
<path d="M 4.841407022735864 13.101302814377684 L 4.314974859858508 13.951519950107297"/>
<path d="M 2.229046140963086 9.641977940432497 L 1.2672204977902668 9.915640930504582"/>
<path d="M 2.0255949422297927 7.44638984322019 L 1.0298607659347576 7.354121483756888"/>
<path d="M 3.9578261381206534 3.565946496676048 L 3.2841304944740957 2.8269375794553895"/>
<path d="M 5.832550002877083 2.405166623573865 L 5.47130833668993 1.4726943941695092"/>
<path d="M 8.0 1.0 A 7 7 0 0 0 10.52869166331007 1.4726943941695092"/>
<path d="M 12.715869505525902 2.826937579455386 A 7 7 0 0 0 14.266143039485437 4.879831509564232"/>
<path d="M 14.732779502209734 9.91564093050458 A 7 7 0 0 0 13.586120590961677 12.218442454654795"/>
<path d="M 11.685025140141493 13.951519950107297 A 7 7 0 0 0 9.286246624715996 14.880811697787312"/>
<path d="M 6.713753375284009 14.880811697787312 A 7 7 0 0 0 4.314974859858511 13.9515199501073"/>
<path d="M 4.314974859858509 13.951519950107299 A 7 7 0 0 0 2.4138794090383247 12.218442454654795"/>
<path d="M 1.2672204977902668 9.915640930504582 A 7 7 0 0 0 1.0298607659347576 7.354121483756889"/>
<path d="M 1.0298607659347576 7.354121483756889 A 7 7 0 0 0 1.7338569605145624 4.8798315095642355"/>
</svg>
</svg>
