<svg viewBox="0 0 28 28" xmlns="http://www.w3.org/2000/svg" style="background-color: #222;">

    <defs>
      <style>
        path {
          stroke: #006aff;
          stroke-width: 0.07481835250521104;
          stroke-linecap: round;
          fill: none;
        }
      </style>
    </defs>
    
<svg x="0" y="0">
<path d="M 14.0 13.0 L 14.0 12.0"/>
<path d="M 14.433883739117558 13.099031132097581 L 14.867767478235116 12.198062264195162"/>
<path d="M 13.21816851753197 13.376510198141267 A 1 1 0 0 1 13.566116260882442 13.099031132097581"/>
<path d="M 14.0 12.0 L 14.0 11.0"/>
<path d="M 14.78183148246803 13.376510198141267 A 1 1 0 0 1 14.974927912181824 13.777479066043686"/>
<path d="M 14.78183148246803 13.376510198141267 L 15.56366296493606 12.753020396282533"/>
<path d="M 14.867767478235116 12.198062264195162 L 15.301651217352674 11.297093396292743"/>
<path d="M 15.56366296493606 12.753020396282533 L 16.34549444740409 12.1295305944238"/>
<path d="M 15.563662964936059 12.753020396282533 A 2 2 0 0 1 15.949855824363647 13.554958132087371"/>
<path d="M 14.974927912181824 14.222520933956314 A 1 1 0 0 1 14.78183148246803 14.623489801858733"/>
<path d="M 15.949855824363647 13.554958132087371 A 2 2 0 0 1 15.949855824363647 14.445041867912629"/>
<path d="M 14.78183148246803 14.623489801858733 A 1 1 0 0 1 14.433883739117558 14.900968867902419"/>
<path d="M 14.433883739117558 14.900968867902419 A 1 1 0 0 1 14.0 15.0"/>
<path d="M 15.56366296493606 15.246979603717467 A 2 2 0 0 1 14.867767478235116 15.801937735804838"/>
<path d="M 14.0 15.0 A 1 1 0 0 1 13.566116260882442 14.900968867902419"/>
<path d="M 14.0 15.0 L 14.0 16.0"/>
<path d="M 14.867767478235116 15.801937735804838 A 2 2 0 0 1 14.0 16.0"/>
<path d="M 14.867767478235116 15.801937735804838 L 15.301651217352674 16.70290660370726"/>
<path d="M 13.566116260882442 14.900968867902419 A 1 1 0 0 1 13.21816851753197 14.623489801858733"/>
<path d="M 13.566116260882442 14.900968867902419 L 13.132232521764884 15.801937735804838"/>
<path d="M 13.132232521764884 15.801937735804838 A 2 2 0 0 1 12.436337035063941 15.246979603717467"/>
<path d="M 13.025072087818176 14.222520933956314 L 12.050144175636353 14.445041867912629"/>
<path d="M 13.025072087818177 14.222520933956314 A 1 1 0 0 1 13.025072087818176 13.777479066043686"/>
<path d="M 12.436337035063941 15.246979603717467 A 2 2 0 0 1 12.050144175636353 14.445041867912629"/>
<path d="M 13.025072087818176 13.777479066043686 L 12.050144175636353 13.554958132087371"/>
<path d="M 13.21816851753197 13.376510198141267 L 12.43633703506394 12.753020396282533"/>
<path d="M 12.050144175636353 13.554958132087371 L 11.075216263454529 13.332437198131057"/>
<path d="M 12.050144175636353 13.554958132087371 A 2 2 0 0 1 12.43633703506394 12.753020396282533"/>
<path d="M 12.43633703506394 12.753020396282533 A 2 2 0 0 1 13.132232521764884 12.198062264195162"/>
<path d="M 12.43633703506394 12.753020396282533 L 11.65450555259591 12.1295305944238"/>
<path d="M 14.0 11.0 A 3 3 0 0 1 15.301651217352674 11.297093396292743"/>
<path d="M 12.698348782647326 11.297093396292743 A 3 3 0 0 1 14.0 11.0"/>
<path d="M 16.34549444740409 12.1295305944238 L 17.12732592987212 11.506040792565067"/>
<path d="M 16.34549444740409 12.1295305944238 A 3 3 0 0 1 16.92478373654547 13.332437198131057"/>
<path d="M 16.92478373654547 13.332437198131057 L 17.899711648727294 13.109916264174743"/>
<path d="M 16.92478373654547 14.667562801868943 L 17.899711648727294 14.890083735825257"/>
<path d="M 16.34549444740409 15.8704694055762 A 3 3 0 0 1 15.301651217352674 16.702906603707255"/>
<path d="M 16.34549444740409 15.8704694055762 L 17.127325929872118 16.493959207434933"/>
<path d="M 15.301651217352674 16.70290660370726 L 15.735534956470232 17.603875471609676"/>
<path d="M 14.0 17.0 A 3 3 0 0 1 12.698348782647326 16.70290660370726"/>
<path d="M 14.0 17.0 L 14.0 18.0"/>
<path d="M 11.65450555259591 15.8704694055762 L 10.872674070127882 16.493959207434933"/>
<path d="M 11.65450555259591 15.870469405576202 A 3 3 0 0 1 11.075216263454529 14.667562801868943"/>
<path d="M 11.075216263454529 14.667562801868943 L 10.100288351272706 14.890083735825257"/>
<path d="M 11.075216263454529 14.667562801868943 A 3 3 0 0 1 11.075216263454529 13.332437198131057"/>
<path d="M 12.698348782647326 11.297093396292743 L 12.264465043529768 10.396124528390324"/>
<path d="M 12.264465043529768 10.396124528390324 A 4 4 0 0 1 13.999999999999998 10.0"/>
<path d="M 15.735534956470232 10.396124528390324 L 16.16941869558779 9.495155660487905"/>
<path d="M 17.899711648727294 13.109916264174743 A 4 4 0 0 1 17.899711648727294 14.890083735825257"/>
<path d="M 17.899711648727294 13.109916264174743 L 18.874639560909117 12.887395330218428"/>
<path d="M 15.735534956470232 17.603875471609676 A 4 4 0 0 1 14.0 18.0"/>
<path d="M 12.264465043529768 17.603875471609676 L 11.83058130441221 18.504844339512097"/>
<path d="M 10.100288351272706 14.890083735825257 L 9.125360439090882 15.112604669781572"/>
<path d="M 10.100288351272706 14.89008373582526 A 4 4 0 0 1 10.100288351272706 13.109916264174743"/>
<path d="M 10.87267407012788 11.506040792565067 L 10.09084258765985 10.882550990706333"/>
<path d="M 10.87267407012788 11.506040792565067 A 4 4 0 0 1 12.264465043529768 10.396124528390324"/>
<path d="M 11.83058130441221 9.495155660487905 A 5 5 0 0 1 13.999999999999998 9.0"/>
<path d="M 16.16941869558779 9.495155660487903 A 5 5 0 0 1 17.90915741234015 10.882550990706331"/>
<path d="M 17.90915741234015 10.882550990706331 A 5 5 0 0 1 18.874639560909117 12.887395330218428"/>
<path d="M 17.90915741234015 10.882550990706333 L 18.69098889480818 10.2590611888476"/>
<path d="M 18.874639560909117 12.887395330218428 A 5 5 0 0 1 18.874639560909117 15.112604669781572"/>
<path d="M 17.90915741234015 17.11744900929367 L 18.69098889480818 17.7409388111524"/>
<path d="M 16.16941869558779 18.504844339512097 A 5 5 0 0 1 14.0 19.0"/>
<path d="M 14.0 19.0 A 5 5 0 0 1 11.83058130441221 18.504844339512097"/>
<path d="M 11.83058130441221 18.504844339512097 A 5 5 0 0 1 10.090842587659852 17.11744900929367"/>
<path d="M 10.090842587659852 17.11744900929367 A 5 5 0 0 1 9.125360439090883 15.112604669781573"/>
<path d="M 9.125360439090883 15.112604669781573 A 5 5 0 0 1 9.125360439090882 12.887395330218428"/>
<path d="M 9.125360439090882 15.112604669781572 L 8.150432526909057 15.335125603737886"/>
<path d="M 9.125360439090882 12.887395330218428 L 8.150432526909057 12.664874396262114"/>
<path d="M 10.09084258765985 10.882550990706333 A 5 5 0 0 1 11.83058130441221 9.495155660487905"/>
<path d="M 11.83058130441221 9.495155660487905 L 11.396697565294652 8.594186792585486"/>
<path d="M 11.39669756529465 8.594186792585486 A 6 6 0 0 1 13.999999999999998 8.0"/>
<path d="M 14.0 8.0 A 6 6 0 0 1 16.60330243470535 8.594186792585486"/>
<path d="M 16.60330243470535 8.594186792585486 A 6 6 0 0 1 18.69098889480818 10.259061188847598"/>
<path d="M 18.69098889480818 10.2590611888476 L 19.472820377276207 9.635571386988866"/>
<path d="M 19.849567473090943 12.664874396262114 A 6 6 0 0 1 19.849567473090943 15.335125603737886"/>
<path d="M 19.849567473090943 12.664874396262114 L 20.824495385272765 12.4423534623058"/>
<path d="M 18.69098889480818 17.7409388111524 L 19.472820377276207 18.364428613011135"/>
<path d="M 16.60330243470535 19.405813207414514 A 6 6 0 0 1 14.0 20.0"/>
<path d="M 14.0 20.0 L 14.0 21.0"/>
<path d="M 11.396697565294652 19.405813207414514 A 6 6 0 0 1 9.309011105191821 17.740938811152404"/>
<path d="M 9.309011105191821 17.7409388111524 L 8.527179622723793 18.364428613011135"/>
<path d="M 8.150432526909057 12.664874396262114 A 6 6 0 0 1 9.309011105191821 10.2590611888476"/>
<path d="M 9.309011105191821 10.2590611888476 L 8.527179622723791 9.635571386988866"/>
<path d="M 10.962813826177092 7.693217924683067 A 7 7 0 0 1 13.999999999999998 7.0"/>
<path d="M 14.0 7.0 A 7 7 0 0 1 17.037186173822906 7.693217924683066"/>
<path d="M 17.037186173822906 7.693217924683067 L 17.471069912940465 6.792249056780648"/>
<path d="M 17.037186173822906 7.693217924683066 A 7 7 0 0 1 19.472820377276207 9.635571386988865"/>
<path d="M 19.472820377276207 9.635571386988865 A 7 7 0 0 1 20.824495385272765 12.4423534623058"/>
<path d="M 20.824495385272765 12.4423534623058 A 7 7 0 0 1 20.824495385272765 15.5576465376942"/>
<path d="M 20.824495385272765 12.4423534623058 L 21.799423297454588 12.219832528349485"/>
<path d="M 20.824495385272765 15.5576465376942 L 21.799423297454588 15.780167471650515"/>
<path d="M 20.824495385272765 15.5576465376942 A 7 7 0 0 1 19.472820377276207 18.364428613011135"/>
<path d="M 19.472820377276207 18.364428613011135 L 20.254651859744236 18.987918414869867"/>
<path d="M 17.037186173822906 20.306782075316935 L 17.471069912940465 21.207750943219352"/>
<path d="M 14.0 21.0 A 7 7 0 0 1 10.962813826177094 20.306782075316935"/>
<path d="M 10.962813826177094 20.306782075316935 L 10.528930087059535 21.207750943219352"/>
<path d="M 8.527179622723793 18.364428613011135 L 7.7453481402557625 18.987918414869867"/>
<path d="M 7.1755046147272346 15.5576465376942 L 6.200576702545411 15.780167471650515"/>
<path d="M 7.1755046147272346 12.4423534623058 A 7 7 0 0 1 8.527179622723791 9.635571386988866"/>
<path d="M 8.527179622723791 9.635571386988866 L 7.745348140255761 9.012081585130133"/>
<path d="M 10.962813826177092 7.693217924683067 L 10.528930087059534 6.792249056780648"/>
<path d="M 14.0 6.0 A 8 8 0 0 1 17.471069912940465 6.792249056780647"/>
<path d="M 14.000000000000002 6.0 L 14.000000000000002 5.0"/>
<path d="M 17.471069912940465 6.792249056780647 A 8 8 0 0 1 20.254651859744236 9.012081585130131"/>
<path d="M 20.25465185974424 9.012081585130133 L 21.03648334221227 8.3885917832714"/>
<path d="M 21.799423297454588 12.219832528349485 L 22.774351209636414 11.997311594393171"/>
<path d="M 21.799423297454588 15.780167471650515 L 22.774351209636414 16.00268840560683"/>
<path d="M 20.25465185974424 18.987918414869867 A 8 8 0 0 1 17.471069912940465 21.207750943219352"/>
<path d="M 17.471069912940465 21.207750943219352 L 17.904953652058023 22.108719811121773"/>
<path d="M 17.471069912940465 21.207750943219352 A 8 8 0 0 1 14.000000000000002 22.0"/>
<path d="M 14.0 22.0 L 14.0 23.0"/>
<path d="M 14.000000000000002 22.0 A 8 8 0 0 1 10.528930087059535 21.207750943219352"/>
<path d="M 10.528930087059535 21.207750943219352 L 10.095046347941977 22.108719811121773"/>
<path d="M 7.7453481402557625 18.98791841486987 A 8 8 0 0 1 6.200576702545412 15.780167471650516"/>
<path d="M 6.200576702545412 15.780167471650516 A 8 8 0 0 1 6.200576702545411 12.219832528349487"/>
<path d="M 6.200576702545411 15.780167471650515 L 5.2256487903635875 16.00268840560683"/>
<path d="M 6.200576702545411 12.219832528349487 A 8 8 0 0 1 7.745348140255761 9.012081585130133"/>
<path d="M 6.200576702545411 12.219832528349485 L 5.2256487903635875 11.997311594393171"/>
<path d="M 7.745348140255761 9.012081585130133 A 8 8 0 0 1 10.528930087059534 6.792249056780648"/>
<path d="M 7.745348140255761 9.012081585130133 L 6.96351665778773 8.3885917832714"/>
<path d="M 10.528930087059534 6.792249056780648 L 10.095046347941976 5.891280188878229"/>
<path d="M 14.000000000000002 5.0 L 14.000000000000002 4.0"/>
<path d="M 17.904953652058023 5.891280188878227 A 9 9 0 0 1 21.036483342212268 8.388591783271398"/>
<path d="M 22.774351209636414 11.997311594393171 L 23.749279121818237 11.774790660436857"/>
<path d="M 22.774351209636414 16.00268840560683 L 23.749279121818237 16.225209339563143"/>
<path d="M 21.036483342212268 19.611408216728602 L 21.818314824680296 20.234898018587337"/>
<path d="M 17.904953652058023 22.108719811121773 L 18.33883739117558 23.009688679024194"/>
<path d="M 10.095046347941977 22.108719811121773 L 9.66116260882442 23.009688679024194"/>
<path d="M 10.095046347941977 22.108719811121773 A 9 9 0 0 1 6.963516657787733 19.611408216728602"/>
<path d="M 6.963516657787733 19.611408216728602 L 6.1816851753197035 20.234898018587337"/>
<path d="M 10.095046347941976 5.891280188878229 L 9.661162608824418 4.99031132097581"/>
<path d="M 14.0 4.0 A 10 10 0 0 1 18.33883739117558 4.990311320975808"/>
<path d="M 21.818314824680296 7.7651019814126645 A 10 10 0 0 1 23.749279121818237 11.774790660436857"/>
<path d="M 23.749279121818237 11.774790660436857 L 24.72420703400006 11.552269726480542"/>
<path d="M 23.749279121818237 16.225209339563143 L 24.72420703400006 16.447730273519458"/>
<path d="M 21.818314824680296 20.234898018587337 L 22.60014630714833 20.85838782044607"/>
<path d="M 18.33883739117558 23.009688679024194 L 18.77272113029314 23.91065754692661"/>
<path d="M 14.0 24.0 L 14.0 25.0"/>
<path d="M 9.66116260882442 23.009688679024194 L 9.227278869706861 23.91065754692661"/>
<path d="M 6.1816851753197035 20.234898018587337 L 5.399853692851673 20.85838782044607"/>
<path d="M 4.250720878181763 16.225209339563143 L 3.2757929659999405 16.447730273519458"/>
<path d="M 4.250720878181763 11.774790660436857 L 3.2757929659999405 11.552269726480542"/>
<path d="M 4.250720878181763 11.774790660436858 A 10 10 0 0 1 6.181685175319701 7.765101981412666"/>
<path d="M 6.181685175319701 7.765101981412666 L 5.399853692851671 7.141612179553933"/>
<path d="M 9.661162608824418 4.99031132097581 L 9.22727886970686 4.089342453073391"/>
<path d="M 14.000000000000002 3.0 L 14.000000000000002 2.0"/>
<path d="M 18.77272113029314 4.089342453073389 A 11 11 0 0 1 22.60014630714833 7.14161217955393"/>
<path d="M 22.60014630714833 7.14161217955393 A 11 11 0 0 1 24.72420703400006 11.55226972648054"/>
<path d="M 22.60014630714833 7.141612179553933 L 23.381977789616357 6.5181223776951995"/>
<path d="M 24.72420703400006 16.447730273519458 L 25.699134946181886 16.670251207475772"/>
<path d="M 22.60014630714833 20.85838782044607 A 11 11 0 0 1 18.772721130293142 23.910657546926608"/>
<path d="M 18.772721130293142 23.910657546926608 A 11 11 0 0 1 14.000000000000002 25.0"/>
<path d="M 5.399853692851673 20.85838782044607 A 11 11 0 0 1 3.2757929659999405 16.44773027351946"/>
<path d="M 3.2757929659999405 16.44773027351946 A 11 11 0 0 1 3.2757929659999405 11.552269726480544"/>
<path d="M 5.399853692851671 7.141612179553933 L 4.618022210383641 6.5181223776951995"/>
<path d="M 9.22727886970686 4.089342453073391 L 8.793395130589301 3.1883735851709716"/>
<path d="M 14.0 2.0 A 12 12 0 0 1 19.206604869410697 3.18837358517097"/>
<path d="M 19.206604869410697 3.1883735851709716 L 19.64048860852826 2.2874047172685525"/>
<path d="M 23.381977789616357 6.518122377695197 A 12 12 0 0 1 25.699134946181886 11.329748792524226"/>
<path d="M 23.381977789616357 6.5181223776951995 L 24.16380927208439 5.894632575836466"/>
<path d="M 25.699134946181886 16.670251207475772 L 26.674062858363705 16.892772141432086"/>
<path d="M 25.699134946181886 16.670251207475772 A 12 12 0 0 1 23.381977789616357 21.4818776223048"/>
<path d="M 23.381977789616357 21.4818776223048 A 12 12 0 0 1 19.206604869410697 24.81162641482903"/>
<path d="M 19.206604869410697 24.81162641482903 A 12 12 0 0 1 14.000000000000002 26.0"/>
<path d="M 14.0 26.0 L 14.0 27.0"/>
<path d="M 14.000000000000002 26.0 A 12 12 0 0 1 8.793395130589303 24.81162641482903"/>
<path d="M 4.618022210383643 21.481877622304804 A 12 12 0 0 1 2.300865053818118 16.670251207475776"/>
<path d="M 4.618022210383643 21.481877622304804 L 3.836190727915614 22.10536742416354"/>
<path d="M 2.300865053818116 11.329748792524228 L 1.3259371416362935 11.107227858567914"/>
<path d="M 8.793395130589301 3.1883735851709716 L 8.359511391471743 2.2874047172685525"/>
<path d="M 14.0 1.0 A 13 13 0 0 1 19.640488608528255 2.2874047172685508"/>
<path d="M 19.640488608528255 2.2874047172685508 A 13 13 0 0 1 24.163809272084386 5.894632575836463"/>
<path d="M 26.674062858363705 11.107227858567912 A 13 13 0 0 1 26.674062858363705 16.892772141432086"/>
<path d="M 24.16380927208439 22.105367424163532 A 13 13 0 0 1 19.64048860852826 25.71259528273145"/>
<path d="M 19.64048860852826 25.71259528273145 A 13 13 0 0 1 14.000000000000002 27.0"/>
<path d="M 14.000000000000002 27.0 A 13 13 0 0 1 8.359511391471745 25.71259528273145"/>
<path d="M 8.359511391471745 25.71259528273145 A 13 13 0 0 1 3.836190727915614 22.10536742416354"/>
<path d="M 3.836190727915614 22.10536742416354 A 13 13 0 0 1 1.3259371416362953 16.89277214143209"/>
<path d="M 1.3259371416362953 16.89277214143209 A 13 13 0 0 1 1.3259371416362935 11.107227858567915"/>
<path d="M 3.8361907279156107 5.894632575836466 A 13 13 0 0 1 8.359511391471742 2.2874047172685525"/>
</svg>
</svg>
