<svg viewBox="0 0 200 200" xmlns="http://www.w3.org/2000/svg">
<line x2="100.0" y2="100.0" x1="100.0" y1="100.0" stroke="#aaa" stroke-width="1" stroke-linecap="round"/>
<line x2="100" y2="100" x1="100.0" y1="100.0" stroke="#aaa" stroke-width="1" stroke-linecap="round"/>
<line x2="100" y2="100" x1="114.56230589874906" y1="89.41986545873549" stroke="#aaa" stroke-width="1" stroke-linecap="round"/>
<line x2="100" y2="100" x1="100.0" y1="100.0" stroke="#aaa" stroke-width="1" stroke-linecap="round"/>
<line x2="100" y2="100" x1="100.0" y1="100.0" stroke="#aaa" stroke-width="1" stroke-linecap="round"/>
<line x2="100" y2="100" x1="94.43769410125095" y1="82.88098270668723" stroke="#aaa" stroke-width="1" stroke-linecap="round"/>
<line x2="100" y2="100" x1="117.11901729331277" y1="105.56230589874906" stroke="#aaa" stroke-width="1" stroke-linecap="round"/>
<line x2="100" y2="100" x1="100.0" y1="64.0" stroke="#aaa" stroke-width="1" stroke-linecap="round"/>
<line x2="100" y2="100" x1="116.68691769624718" y1="48.64294812006172" stroke="#aaa" stroke-width="1" stroke-linecap="round"/>
<line x2="100" y2="100" x1="100.0" y1="100.0" stroke="#aaa" stroke-width="1" stroke-linecap="round"/>
<line x2="100" y2="100" x1="89.41986545873549" y1="114.56230589874906" stroke="#aaa" stroke-width="1" stroke-linecap="round"/>
<line x2="100" y2="100" x1="100.0" y1="100.0" stroke="#aaa" stroke-width="1" stroke-linecap="round"/>
<line x2="100" y2="100" x1="134.23803458662553" y1="111.12461179749812" stroke="#aaa" stroke-width="1" stroke-linecap="round"/>
<line x2="100" y2="100" x1="78.83973091747097" y1="70.8753882025019" stroke="#aaa" stroke-width="1" stroke-linecap="round"/>
<line x2="100" y2="100" x1="88.87538820250188" y1="134.23803458662553" stroke="#aaa" stroke-width="1" stroke-linecap="round"/>
<line x2="100" y2="100" x1="131.74040362379353" y1="143.68691769624718" stroke="#aaa" stroke-width="1" stroke-linecap="round"/>
<line x2="100" y2="100" x1="100.0" y1="100.0" stroke="#aaa" stroke-width="1" stroke-linecap="round"/>
<line x2="100" y2="100" x1="100.0" y1="100.0" stroke="#aaa" stroke-width="1" stroke-linecap="round"/>
<line x2="100" y2="100" x1="99.99999999999999" y1="154.0" stroke="#aaa" stroke-width="1" stroke-linecap="round"/>
<line x2="100" y2="100" x1="85.43769410125094" y1="89.41986545873549" stroke="#aaa" stroke-width="1" stroke-linecap="round"/>
<line x2="100" y2="100" x1="111.12461179749812" y1="65.76196541337447" stroke="#aaa" stroke-width="1" stroke-linecap="round"/>
<line x2="100" y2="100" x1="83.31308230375285" y1="48.6429481200617" stroke="#aaa" stroke-width="1" stroke-linecap="round"/>
<line x2="100" y2="100" x1="100.0" y1="100.0" stroke="#aaa" stroke-width="1" stroke-linecap="round"/>
<line x2="100" y2="100" x1="136.0" y1="100.00000000000001" stroke="#aaa" stroke-width="1" stroke-linecap="round"/>
<line x2="100" y2="100" x1="121.16026908252903" y1="129.12461179749812" stroke="#aaa" stroke-width="1" stroke-linecap="round"/>
<line x2="100" y2="100" x1="105.56230589874905" y1="117.11901729331277" stroke="#aaa" stroke-width="1" stroke-linecap="round"/>
<line x2="100" y2="100" x1="154.0" y1="100.00000000000001" stroke="#aaa" stroke-width="1" stroke-linecap="round"/>
<line x2="100" y2="100" x1="100.0" y1="100.0" stroke="#aaa" stroke-width="1" stroke-linecap="round"/>
<line x2="100" y2="100" x1="100.0" y1="100.0" stroke="#aaa" stroke-width="1" stroke-linecap="round"/>
<line x2="100" y2="100" x1="70.87538820250188" y1="121.16026908252903" stroke="#aaa" stroke-width="1" stroke-linecap="round"/>
<line x2="100" y2="100" x1="68.25959637620646" y1="56.313082303752836" stroke="#aaa" stroke-width="1" stroke-linecap="round"/>
<line x2="100" y2="100" x1="56.31308230375283" y1="131.74040362379353" stroke="#aaa" stroke-width="1" stroke-linecap="round"/>
<line x2="100" y2="100" x1="68.25959637620645" y1="143.68691769624715" stroke="#aaa" stroke-width="1" stroke-linecap="round"/>
<line x2="100" y2="100" x1="64.0" y1="100.0" stroke="#aaa" stroke-width="1" stroke-linecap="round"/>
<line x2="100" y2="100" x1="56.31308230375284" y1="68.25959637620645" stroke="#aaa" stroke-width="1" stroke-linecap="round"/>
<line x2="100" y2="100" x1="70.8753882025019" y1="78.83973091747096" stroke="#aaa" stroke-width="1" stroke-linecap="round"/>
<line x2="100" y2="100" x1="129.12461179749812" y1="78.83973091747097" stroke="#aaa" stroke-width="1" stroke-linecap="round"/>
<line x2="100" y2="100" x1="82.88098270668723" y1="105.56230589874905" stroke="#aaa" stroke-width="1" stroke-linecap="round"/>
<line x2="100" y2="100" x1="48.64294812006171" y1="83.31308230375284" stroke="#aaa" stroke-width="1" stroke-linecap="round"/>
<line x2="100.0" y2="100.0" x1="100.0" y1="100.0" stroke="#aaa" stroke-width="1" stroke-linecap="round"/>
<line x2="100.0" y2="100.0" x1="100.0" y1="100.0" stroke="#aaa" stroke-width="1" stroke-linecap="round"/>
<line x2="100.0" y2="100.0" x1="100.0" y1="100.0" stroke="#aaa" stroke-width="1" stroke-linecap="round"/>
<line x2="100.0" y2="100.0" x1="100.0" y1="100.0" stroke="#aaa" stroke-width="1" stroke-linecap="round"/>
<line x2="100.0" y2="100.0" x1="100.0" y1="100.0" stroke="#aaa" stroke-width="1" stroke-linecap="round"/>
<line x2="100.0" y2="100.0" x1="100.0" y1="100.0" stroke="#aaa" stroke-width="1" stroke-linecap="round"/>
<line x2="100.0" y2="100.0" x1="100.0" y1="100.0" stroke="#aaa" stroke-width="1" stroke-linecap="round"/>
<line x2="100.0" y2="100.0" x1="100.0" y1="100.0" stroke="#aaa" stroke-width="1" stroke-linecap="round"/>
<line x2="100.0" y2="100.0" x1="100.0" y1="100.0" stroke="#aaa" stroke-width="1" stroke-linecap="round"/>
<line x2="105.56230589874906" y2="82.88098270668723" x1="100.0" y1="82.0" stroke="#aaa" stroke-width="1" stroke-linecap="round"/>
<line x2="94.43769410125095" y2="82.88098270668723" x1="100.0" y1="82.0" stroke="#aaa" stroke-width="1" stroke-linecap="round"/>
<line x2="89.41986545873549" y2="85.43769410125094" x1="94.43769410125095" y1="82.88098270668723" stroke="#aaa" stroke-width="1" stroke-linecap="round"/>
<line x2="82.88098270668723" y2="94.43769410125094" x1="85.43769410125094" y1="89.41986545873549" stroke="#aaa" stroke-width="1" stroke-linecap="round"/>
<line x2="82.0" y2="100.0" x1="82.88098270668723" y1="94.43769410125094" stroke="#aaa" stroke-width="1" stroke-linecap="round"/>
<line x2="85.43769410125094" y2="110.58013454126451" x1="82.88098270668723" y1="105.56230589874905" stroke="#aaa" stroke-width="1" stroke-linecap="round"/>
<line x2="94.43769410125094" y2="117.11901729331277" x1="89.41986545873549" y1="114.56230589874906" stroke="#aaa" stroke-width="1" stroke-linecap="round"/>
<line x2="105.56230589874905" y2="117.11901729331277" x1="100.0" y1="118.0" stroke="#aaa" stroke-width="1" stroke-linecap="round"/>
<line x2="114.56230589874905" y2="110.58013454126453" x1="110.58013454126451" y1="114.56230589874906" stroke="#aaa" stroke-width="1" stroke-linecap="round"/>
<line x2="117.11901729331277" y2="105.56230589874906" x1="114.56230589874905" y1="110.58013454126453" stroke="#aaa" stroke-width="1" stroke-linecap="round"/>
<line x2="118.0" y2="100.0" x1="117.11901729331277" y1="105.56230589874906" stroke="#aaa" stroke-width="1" stroke-linecap="round"/>
<line x2="114.56230589874906" y2="89.41986545873549" x1="117.11901729331277" y1="94.43769410125095" stroke="#aaa" stroke-width="1" stroke-linecap="round"/>
<line x2="105.56230589874906" y2="82.88098270668723" x1="110.58013454126453" y1="85.43769410125095" stroke="#aaa" stroke-width="1" stroke-linecap="round"/>
<line x2="88.8753882025019" y2="65.76196541337447" x1="100.0" y1="64.0" stroke="#aaa" stroke-width="1" stroke-linecap="round"/>
<line x2="64.0" y2="100.0" x1="65.76196541337447" y1="88.87538820250188" stroke="#aaa" stroke-width="1" stroke-linecap="round"/>
<line x2="65.76196541337447" y2="111.1246117974981" x1="64.0" y1="100.0" stroke="#aaa" stroke-width="1" stroke-linecap="round"/>
<line x2="78.83973091747096" y2="129.12461179749812" x1="70.87538820250188" y1="121.16026908252903" stroke="#aaa" stroke-width="1" stroke-linecap="round"/>
<line x2="99.99999999999999" y2="136.0" x1="88.87538820250188" y1="134.23803458662553" stroke="#aaa" stroke-width="1" stroke-linecap="round"/>
<line x2="121.16026908252903" y2="129.12461179749812" x1="111.12461179749809" y1="134.23803458662553" stroke="#aaa" stroke-width="1" stroke-linecap="round"/>
<line x2="134.23803458662553" y2="111.12461179749812" x1="129.1246117974981" y1="121.16026908252904" stroke="#aaa" stroke-width="1" stroke-linecap="round"/>
<line x2="129.12461179749812" y2="78.83973091747097" x1="134.23803458662553" y1="88.87538820250191" stroke="#aaa" stroke-width="1" stroke-linecap="round"/>
<line x2="121.16026908252904" y2="70.8753882025019" x1="129.12461179749812" y1="78.83973091747097" stroke="#aaa" stroke-width="1" stroke-linecap="round"/>
<line x2="116.68691769624718" y2="48.64294812006172" x1="100.0" y1="46.0" stroke="#aaa" stroke-width="1" stroke-linecap="round"/>
<line x2="46.0" y2="99.99999999999999" x1="48.64294812006171" y1="83.31308230375284" stroke="#aaa" stroke-width="1" stroke-linecap="round"/>
<line x2="56.31308230375283" y2="131.74040362379353" x1="48.6429481200617" y1="116.68691769624715" stroke="#aaa" stroke-width="1" stroke-linecap="round"/>
<line x2="83.31308230375282" y2="151.3570518799383" x1="68.25959637620645" y1="143.68691769624715" stroke="#aaa" stroke-width="1" stroke-linecap="round"/>
<line x2="116.68691769624715" y2="151.3570518799383" x1="99.99999999999999" y1="154.0" stroke="#aaa" stroke-width="1" stroke-linecap="round"/>
<line x2="143.68691769624715" y2="131.74040362379355" x1="131.74040362379353" y1="143.68691769624718" stroke="#aaa" stroke-width="1" stroke-linecap="round"/>
<line x2="154.0" y2="100.00000000000001" x1="151.3570518799383" y1="116.68691769624718" stroke="#aaa" stroke-width="1" stroke-linecap="round"/>
<line x2="151.3570518799383" y2="83.31308230375285" x1="154.0" y1="100.00000000000001" stroke="#aaa" stroke-width="1" stroke-linecap="round"/>
<line x2="131.74040362379355" y2="56.31308230375285" x1="143.68691769624718" y1="68.25959637620647" stroke="#aaa" stroke-width="1" stroke-linecap="round"/>
<line x2="116.68691769624718" y2="48.64294812006172" x1="131.74040362379355" y1="56.31308230375285" stroke="#aaa" stroke-width="1" stroke-linecap="round"/>
<line x2="77.75077640500379" y2="31.523930826748938" x1="100.00000000000001" y1="28.0" stroke="#aaa" stroke-width="1" stroke-linecap="round"/>
<line x2="122.24922359499624" y2="31.523930826748952" x1="100.00000000000001" y1="28.0" stroke="#aaa" stroke-width="1" stroke-linecap="round"/>
<line x2="100.00000000000001" y2="10.0" x1="100.00000000000001" y1="28.0" stroke="#aaa" stroke-width="1" stroke-linecap="round"/>
<line x2="72.18847050625475" y2="14.404913533436172" x1="77.75077640500379" y1="31.523930826748938" stroke="#aaa" stroke-width="1" stroke-linecap="round"/>
<line x2="57.67946183494194" y2="41.75077640500378" x1="77.75077640500379" y1="31.523930826748938" stroke="#aaa" stroke-width="1" stroke-linecap="round"/>
<line x2="41.75077640500379" y2="57.679461834941925" x1="57.67946183494194" y1="41.75077640500378" stroke="#aaa" stroke-width="1" stroke-linecap="round"/>
<line x2="47.099327293677426" y2="27.18847050625473" x1="57.67946183494194" y1="41.75077640500378" stroke="#aaa" stroke-width="1" stroke-linecap="round"/>
<line x2="31.523930826748952" y2="77.75077640500378" x1="41.75077640500379" y1="57.679461834941925" stroke="#aaa" stroke-width="1" stroke-linecap="round"/>
<line x2="27.188470506254745" y2="47.099327293677405" x1="41.75077640500379" y1="57.679461834941925" stroke="#aaa" stroke-width="1" stroke-linecap="round"/>
<line x2="14.404913533436186" y2="72.18847050625472" x1="31.523930826748952" y1="77.75077640500378" stroke="#aaa" stroke-width="1" stroke-linecap="round"/>
<line x2="28.0" y2="99.99999999999999" x1="31.523930826748952" y1="77.75077640500378" stroke="#aaa" stroke-width="1" stroke-linecap="round"/>
<line x2="31.523930826748938" y2="122.24922359499621" x1="28.0" y1="99.99999999999999" stroke="#aaa" stroke-width="1" stroke-linecap="round"/>
<line x2="10.0" y2="99.99999999999999" x1="28.0" y1="99.99999999999999" stroke="#aaa" stroke-width="1" stroke-linecap="round"/>
<line x2="14.404913533436172" y2="127.81152949374525" x1="31.523930826748938" y1="122.24922359499621" stroke="#aaa" stroke-width="1" stroke-linecap="round"/>
<line x2="41.750776405003776" y2="142.32053816505805" x1="31.523930826748938" y1="122.24922359499621" stroke="#aaa" stroke-width="1" stroke-linecap="round"/>
<line x2="57.679461834941925" y2="158.2492235949962" x1="41.750776405003776" y1="142.32053816505805" stroke="#aaa" stroke-width="1" stroke-linecap="round"/>
<line x2="27.188470506254717" y2="152.90067270632255" x1="41.750776405003776" y1="142.32053816505805" stroke="#aaa" stroke-width="1" stroke-linecap="round"/>
<line x2="77.75077640500378" y2="168.47606917325106" x1="57.679461834941925" y1="158.2492235949962" stroke="#aaa" stroke-width="1" stroke-linecap="round"/>
<line x2="47.099327293677405" y2="172.81152949374524" x1="57.679461834941925" y1="158.2492235949962" stroke="#aaa" stroke-width="1" stroke-linecap="round"/>
<line x2="99.99999999999999" y2="172.0" x1="77.75077640500378" y1="168.47606917325106" stroke="#aaa" stroke-width="1" stroke-linecap="round"/>
<line x2="72.18847050625472" y2="185.59508646656383" x1="77.75077640500378" y1="168.47606917325106" stroke="#aaa" stroke-width="1" stroke-linecap="round"/>
<line x2="122.2492235949962" y2="168.47606917325106" x1="99.99999999999999" y1="172.0" stroke="#aaa" stroke-width="1" stroke-linecap="round"/>
<line x2="99.99999999999997" y2="190.0" x1="99.99999999999999" y1="172.0" stroke="#aaa" stroke-width="1" stroke-linecap="round"/>
<line x2="127.81152949374524" y2="185.59508646656383" x1="122.2492235949962" y1="168.47606917325106" stroke="#aaa" stroke-width="1" stroke-linecap="round"/>
<line x2="142.32053816505805" y2="158.24922359499624" x1="122.2492235949962" y1="168.47606917325106" stroke="#aaa" stroke-width="1" stroke-linecap="round"/>
<line x2="152.90067270632255" y2="172.8115294937453" x1="142.32053816505805" y1="158.24922359499624" stroke="#aaa" stroke-width="1" stroke-linecap="round"/>
<line x2="158.2492235949962" y2="142.32053816505808" x1="142.32053816505805" y1="158.24922359499624" stroke="#aaa" stroke-width="1" stroke-linecap="round"/>
<line x2="168.47606917325106" y2="122.24922359499624" x1="158.2492235949962" y1="142.32053816505808" stroke="#aaa" stroke-width="1" stroke-linecap="round"/>
<line x2="172.81152949374524" y2="152.9006727063226" x1="158.2492235949962" y1="142.32053816505808" stroke="#aaa" stroke-width="1" stroke-linecap="round"/>
<line x2="172.0" y2="100.00000000000003" x1="168.47606917325106" y1="122.24922359499624" stroke="#aaa" stroke-width="1" stroke-linecap="round"/>
<line x2="185.59508646656383" y2="127.8115294937453" x1="168.47606917325106" y1="122.24922359499624" stroke="#aaa" stroke-width="1" stroke-linecap="round"/>
<line x2="168.47606917325106" y2="77.7507764050038" x1="172.0" y1="100.00000000000003" stroke="#aaa" stroke-width="1" stroke-linecap="round"/>
<line x2="190.0" y2="100.00000000000003" x1="172.0" y1="100.00000000000003" stroke="#aaa" stroke-width="1" stroke-linecap="round"/>
<line x2="185.59508646656383" y2="72.18847050625476" x1="168.47606917325106" y1="77.7507764050038" stroke="#aaa" stroke-width="1" stroke-linecap="round"/>
<line x2="158.24922359499624" y2="57.67946183494196" x1="168.47606917325106" y1="77.7507764050038" stroke="#aaa" stroke-width="1" stroke-linecap="round"/>
<line x2="172.8115294937453" y2="47.09932729367745" x1="158.24922359499624" y1="57.67946183494196" stroke="#aaa" stroke-width="1" stroke-linecap="round"/>
<line x2="122.24922359499624" y2="31.523930826748952" x1="142.32053816505808" y1="41.7507764050038" stroke="#aaa" stroke-width="1" stroke-linecap="round"/>
<line x2="152.9006727063226" y2="27.188470506254745" x1="142.32053816505808" y1="41.7507764050038" stroke="#aaa" stroke-width="1" stroke-linecap="round"/>
<line x2="127.8115294937453" y2="14.404913533436186" x1="122.24922359499624" y1="31.523930826748952" stroke="#aaa" stroke-width="1" stroke-linecap="round"/>
</svg>
