<svg viewBox="0 0 200 200" xmlns="http://www.w3.org/2000/svg">
<line x2="100.0" y2="60.0" x1="100.0" y1="50.0" stroke="#aaa" stroke-width="1" stroke-linecap="round"/>
<line x2="74.02080249822833" y2="57.27902977267556" x1="86.5101614421488" y1="51.85413563261003" stroke="#aaa" stroke-width="1" stroke-linecap="round"/>
<line x2="89.20812915371904" y2="61.48330850608802" x1="86.5101614421488" y1="51.85413563261003" stroke="#aaa" stroke-width="1" stroke-linecap="round"/>
<line x2="89.20812915371904" y2="61.48330850608802" x1="100.0" y1="60.0" stroke="#aaa" stroke-width="1" stroke-linecap="round"/>
<line x2="100.0" y2="70.0" x1="100.0" y1="60.0" stroke="#aaa" stroke-width="1" stroke-linecap="round"/>
<line x2="110.79187084628101" y2="61.483308506088036" x1="100.0" y1="60.0" stroke="#aaa" stroke-width="1" stroke-linecap="round"/>
<line x2="79.21664199858267" y2="65.82322381814045" x1="89.20812915371904" y1="61.48330850608802" stroke="#aaa" stroke-width="1" stroke-linecap="round"/>
<line x2="55.60573907988125" y2="76.99674811344237" x1="63.458201786093795" y1="65.8723428390673" stroke="#aaa" stroke-width="1" stroke-linecap="round"/>
<line x2="70.76656142887504" y2="72.69787427125384" x1="63.458201786093795" y1="65.8723428390673" stroke="#aaa" stroke-width="1" stroke-linecap="round"/>
<line x2="64.484591263905" y2="81.59739849075389" x1="55.60573907988125" y1="76.99674811344237" stroke="#aaa" stroke-width="1" stroke-linecap="round"/>
<line x2="78.07492107165628" y2="79.52340570344037" x1="70.76656142887504" y1="72.69787427125384" stroke="#aaa" stroke-width="1" stroke-linecap="round"/>
<line x2="50.11656154047304" y2="103.41212066823356" x1="51.045795615883854" y1="89.82719934736832" stroke="#aaa" stroke-width="1" stroke-linecap="round"/>
<line x2="60.836636492707086" y2="91.86175947789465" x1="64.484591263905" y1="81.59739849075389" stroke="#aaa" stroke-width="1" stroke-linecap="round"/>
<line x2="52.886953894058976" y2="116.74398060854931" x1="50.11656154047304" y1="103.41212066823356" stroke="#aaa" stroke-width="1" stroke-linecap="round"/>
<line x2="60.09324923237843" y2="102.72969653458684" x1="50.11656154047304" y1="103.41212066823356" stroke="#aaa" stroke-width="1" stroke-linecap="round"/>
<line x2="60.09324923237843" y2="102.72969653458684" x1="60.836636492707086" y1="91.86175947789465" stroke="#aaa" stroke-width="1" stroke-linecap="round"/>
<line x2="62.30956311524718" y2="113.39518448683944" x1="60.09324923237843" y1="102.72969653458684" stroke="#aaa" stroke-width="1" stroke-linecap="round"/>
<line x2="70.06993692428382" y2="102.04727240094013" x1="60.09324923237843" y1="102.72969653458684" stroke="#aaa" stroke-width="1" stroke-linecap="round"/>
<line x2="67.3212042795823" y2="123.06721288459468" x1="59.15150534947789" y1="128.83401610574333" stroke="#aaa" stroke-width="1" stroke-linecap="round"/>
<line x2="67.3212042795823" y2="123.06721288459468" x1="62.30956311524718" y1="113.39518448683944" stroke="#aaa" stroke-width="1" stroke-linecap="round"/>
<line x2="80.07994550768791" y2="145.86056507527263" x1="68.44560278369735" y1="138.78556453522097" stroke="#aaa" stroke-width="1" stroke-linecap="round"/>
<line x2="75.49090320968673" y2="117.300409663446" x1="67.3212042795823" y1="123.06721288459468" stroke="#aaa" stroke-width="1" stroke-linecap="round"/>
<line x2="74.75648222695787" y2="131.02845162817678" x1="67.3212042795823" y1="123.06721288459468" stroke="#aaa" stroke-width="1" stroke-linecap="round"/>
<line x2="93.19166754518764" y2="149.53429730181654" x1="80.07994550768791" y1="145.86056507527263" stroke="#aaa" stroke-width="1" stroke-linecap="round"/>
<line x2="84.06395640615033" y2="136.6884520602181" x1="74.75648222695787" y1="131.02845162817678" stroke="#aaa" stroke-width="1" stroke-linecap="round"/>
<line x2="106.80833245481233" y2="149.53429730181654" x1="93.19166754518764" y1="149.53429730181654" stroke="#aaa" stroke-width="1" stroke-linecap="round"/>
<line x2="94.55333403615012" y2="139.62743784145323" x1="93.19166754518764" y1="149.53429730181654" stroke="#aaa" stroke-width="1" stroke-linecap="round"/>
<line x2="94.55333403615012" y2="139.62743784145323" x1="84.06395640615033" y1="136.6884520602181" stroke="#aaa" stroke-width="1" stroke-linecap="round"/>
<line x2="119.92005449231203" y2="145.86056507527266" x1="106.80833245481233" y1="149.53429730181654" stroke="#aaa" stroke-width="1" stroke-linecap="round"/>
<line x2="105.44666596384987" y2="139.62743784145323" x1="94.55333403615012" y1="139.62743784145323" stroke="#aaa" stroke-width="1" stroke-linecap="round"/>
<line x2="131.55439721630265" y2="138.785564535221" x1="119.92005449231203" y1="145.86056507527266" stroke="#aaa" stroke-width="1" stroke-linecap="round"/>
<line x2="111.95203269538722" y2="127.5163390451636" x1="115.93604359384963" y1="136.68845206021814" stroke="#aaa" stroke-width="1" stroke-linecap="round"/>
<line x2="147.113046105941" y2="116.74398060854932" x1="140.8484946505221" y1="128.83401610574336" stroke="#aaa" stroke-width="1" stroke-linecap="round"/>
<line x2="132.67879572041767" y2="123.0672128845947" x1="140.8484946505221" y1="128.83401610574336" stroke="#aaa" stroke-width="1" stroke-linecap="round"/>
<line x2="132.67879572041767" y2="123.0672128845947" x1="125.24351777304211" y1="131.0284516281768" stroke="#aaa" stroke-width="1" stroke-linecap="round"/>
<line x2="149.88343845952696" y2="103.41212066823357" x1="147.113046105941" y1="116.74398060854932" stroke="#aaa" stroke-width="1" stroke-linecap="round"/>
<line x2="124.50909679031327" y2="117.30040966344602" x1="132.67879572041767" y1="123.0672128845947" stroke="#aaa" stroke-width="1" stroke-linecap="round"/>
<line x2="137.6904368847528" y2="113.39518448683947" x1="132.67879572041767" y1="123.0672128845947" stroke="#aaa" stroke-width="1" stroke-linecap="round"/>
<line x2="139.90675076762156" y2="102.72969653458686" x1="137.6904368847528" y1="113.39518448683947" stroke="#aaa" stroke-width="1" stroke-linecap="round"/>
<line x2="139.16336350729293" y2="91.86175947789468" x1="148.95420438411617" y1="89.82719934736834" stroke="#aaa" stroke-width="1" stroke-linecap="round"/>
<line x2="144.39426092011877" y2="76.9967481134424" x1="148.95420438411617" y1="89.82719934736834" stroke="#aaa" stroke-width="1" stroke-linecap="round"/>
<line x2="129.93006307571616" y2="102.04727240094014" x1="139.90675076762156" y1="102.72969653458686" stroke="#aaa" stroke-width="1" stroke-linecap="round"/>
<line x2="139.16336350729293" y2="91.86175947789468" x1="139.90675076762156" y1="102.72969653458686" stroke="#aaa" stroke-width="1" stroke-linecap="round"/>
<line x2="129.3725226304697" y2="93.89631960842101" x1="139.16336350729293" y1="91.86175947789468" stroke="#aaa" stroke-width="1" stroke-linecap="round"/>
<line x2="125.97919750177175" y2="57.27902977267562" x1="136.54179821390625" y1="65.87234283906733" stroke="#aaa" stroke-width="1" stroke-linecap="round"/>
<line x2="129.233438571125" y2="72.69787427125387" x1="135.51540873609503" y1="81.5973984907539" stroke="#aaa" stroke-width="1" stroke-linecap="round"/>
<line x2="113.48983855785127" y2="51.854135632610046" x1="125.97919750177175" y1="57.27902977267562" stroke="#aaa" stroke-width="1" stroke-linecap="round"/>
<line x2="120.78335800141741" y2="65.82322381814049" x1="125.97919750177175" y1="57.27902977267562" stroke="#aaa" stroke-width="1" stroke-linecap="round"/>
<line x2="121.92507892834374" y2="79.5234057034404" x1="129.233438571125" y1="72.69787427125387" stroke="#aaa" stroke-width="1" stroke-linecap="round"/>
<line x2="110.79187084628101" y2="61.483308506088036" x1="120.78335800141741" y1="65.82322381814049" stroke="#aaa" stroke-width="1" stroke-linecap="round"/>
<line x2="108.09390313471076" y2="71.11248137956603" x1="110.79187084628101" y1="61.483308506088036" stroke="#aaa" stroke-width="1" stroke-linecap="round"/>
<line x2="91.90609686528927" y2="71.11248137956602" x1="100.0" y1="70.0" stroke="#aaa" stroke-width="1" stroke-linecap="round"/>
<line x2="84.412481498937" y2="74.36741786360534" x1="91.90609686528927" y1="71.11248137956602" stroke="#aaa" stroke-width="1" stroke-linecap="round"/>
<line x2="82.2422956319525" y2="90.79869924537695" x1="73.36344344792874" y1="86.19804886806543" stroke="#aaa" stroke-width="1" stroke-linecap="round"/>
<line x2="70.62747736953031" y2="93.896319608421" x1="73.36344344792874" y1="86.19804886806543" stroke="#aaa" stroke-width="1" stroke-linecap="round"/>
<line x2="80.41831824635355" y2="95.93087973894733" x1="70.62747736953031" y1="93.896319608421" stroke="#aaa" stroke-width="1" stroke-linecap="round"/>
<line x2="81.1547815576236" y2="106.69759224341972" x1="71.73217233643538" y1="110.04638836512959" stroke="#aaa" stroke-width="1" stroke-linecap="round"/>
<line x2="81.0673616702184" y2="123.2713387211326" x1="75.49090320968673" y1="117.300409663446" stroke="#aaa" stroke-width="1" stroke-linecap="round"/>
<line x2="83.66060213979115" y2="111.53360644229734" x1="75.49090320968673" y1="117.300409663446" stroke="#aaa" stroke-width="1" stroke-linecap="round"/>
<line x2="88.04796730461274" y2="127.51633904516359" x1="81.0673616702184" y1="123.2713387211326" stroke="#aaa" stroke-width="1" stroke-linecap="round"/>
<line x2="97.27666701807506" y2="119.81371892072661" x1="95.91500052711258" y1="129.72057838108992" stroke="#aaa" stroke-width="1" stroke-linecap="round"/>
<line x2="111.95203269538722" y2="127.5163390451636" x1="104.0849994728874" y1="129.72057838108992" stroke="#aaa" stroke-width="1" stroke-linecap="round"/>
<line x2="107.96802179692482" y2="118.34422603010907" x1="111.95203269538722" y1="127.5163390451636" stroke="#aaa" stroke-width="1" stroke-linecap="round"/>
<line x2="118.93263832978158" y2="123.2713387211326" x1="111.95203269538722" y1="127.5163390451636" stroke="#aaa" stroke-width="1" stroke-linecap="round"/>
<line x2="112.62175888652105" y2="115.5142258140884" x1="118.93263832978158" y1="123.2713387211326" stroke="#aaa" stroke-width="1" stroke-linecap="round"/>
<line x2="116.33939786020883" y2="111.53360644229734" x1="124.50909679031327" y1="117.30040966344602" stroke="#aaa" stroke-width="1" stroke-linecap="round"/>
<line x2="118.8452184423764" y2="106.69759224341973" x1="128.26782766356462" y1="110.0463883651296" stroke="#aaa" stroke-width="1" stroke-linecap="round"/>
<line x2="119.95337538381078" y2="101.36484826729343" x1="129.93006307571616" y1="102.04727240094014" stroke="#aaa" stroke-width="1" stroke-linecap="round"/>
<line x2="126.63655655207126" y2="86.19804886806543" x1="129.3725226304697" y1="93.89631960842101" stroke="#aaa" stroke-width="1" stroke-linecap="round"/>
<line x2="115.58751850106306" y2="74.36741786360537" x1="121.92507892834374" y1="79.5234057034404" stroke="#aaa" stroke-width="1" stroke-linecap="round"/>
<line x2="114.6167192855625" y2="86.34893713562693" x1="121.92507892834374" y1="79.5234057034404" stroke="#aaa" stroke-width="1" stroke-linecap="round"/>
<line x2="108.09390313471076" y2="71.11248137956603" x1="115.58751850106306" y1="74.36741786360537" stroke="#aaa" stroke-width="1" stroke-linecap="round"/>
<line x2="94.60406457685951" y2="80.741654253044" x1="100.0" y1="80.0" stroke="#aaa" stroke-width="1" stroke-linecap="round"/>
<line x2="100" y2="100" x1="100.0" y1="80.0" stroke="#aaa" stroke-width="1" stroke-linecap="round"/>
<line x2="105.39593542314051" y2="80.74165425304402" x1="100.0" y1="80.0" stroke="#aaa" stroke-width="1" stroke-linecap="round"/>
<line x2="89.60832099929134" y2="82.91161190907022" x1="94.60406457685951" y1="80.741654253044" stroke="#aaa" stroke-width="1" stroke-linecap="round"/>
<line x2="85.38328071443752" y2="86.34893713562691" x1="89.60832099929134" y1="82.91161190907022" stroke="#aaa" stroke-width="1" stroke-linecap="round"/>
<line x2="82.2422956319525" y2="90.79869924537695" x1="85.38328071443752" y1="86.34893713562691" stroke="#aaa" stroke-width="1" stroke-linecap="round"/>
<line x2="80.04662461618922" y2="101.36484826729343" x1="80.41831824635355" y1="95.93087973894733" stroke="#aaa" stroke-width="1" stroke-linecap="round"/>
<line x2="83.66060213979115" y2="111.53360644229734" x1="81.1547815576236" y1="106.69759224341972" stroke="#aaa" stroke-width="1" stroke-linecap="round"/>
<line x2="87.37824111347894" y2="115.51422581408839" x1="83.66060213979115" y1="111.53360644229734" stroke="#aaa" stroke-width="1" stroke-linecap="round"/>
<line x2="92.03197820307517" y2="118.34422603010906" x1="87.37824111347894" y1="115.51422581408839" stroke="#aaa" stroke-width="1" stroke-linecap="round"/>
<line x2="100" y2="100" x1="92.03197820307517" y1="118.34422603010906" stroke="#aaa" stroke-width="1" stroke-linecap="round"/>
<line x2="102.72333298192494" y2="119.81371892072661" x1="97.27666701807506" y1="119.81371892072661" stroke="#aaa" stroke-width="1" stroke-linecap="round"/>
<line x2="100" y2="100" x1="102.72333298192494" y1="119.81371892072661" stroke="#aaa" stroke-width="1" stroke-linecap="round"/>
<line x2="100" y2="100" x1="107.96802179692482" y1="118.34422603010907" stroke="#aaa" stroke-width="1" stroke-linecap="round"/>
<line x2="100" y2="100" x1="116.33939786020883" y1="111.53360644229734" stroke="#aaa" stroke-width="1" stroke-linecap="round"/>
<line x2="118.8452184423764" y2="106.69759224341973" x1="116.33939786020883" y1="111.53360644229734" stroke="#aaa" stroke-width="1" stroke-linecap="round"/>
<line x2="117.75770436804751" y2="90.79869924537695" x1="119.58168175364646" y1="95.93087973894734" stroke="#aaa" stroke-width="1" stroke-linecap="round"/>
<line x2="100" y2="100" x1="117.75770436804751" y1="90.79869924537695" stroke="#aaa" stroke-width="1" stroke-linecap="round"/>
<line x2="110.3916790007087" y2="82.91161190907025" x1="114.6167192855625" y1="86.34893713562693" stroke="#aaa" stroke-width="1" stroke-linecap="round"/>
<line x2="105.39593542314051" y2="80.74165425304402" x1="110.3916790007087" y1="82.91161190907025" stroke="#aaa" stroke-width="1" stroke-linecap="round"/>
</svg>
