<svg viewBox="0 0 200 200" xmlns="http://www.w3.org/2000/svg">
<line x2="85.7341522555727" y2="95.36474508437578" x1="100.0" y1="85.0" stroke="#aaa" stroke-width="1" stroke-linecap="round"/>
<line x2="100" y2="100" x1="100.0" y1="85.0" stroke="#aaa" stroke-width="1" stroke-linecap="round"/>
<line x2="100" y2="100" x1="128.5316954888546" y1="90.72949016875158" stroke="#aaa" stroke-width="1" stroke-linecap="round"/>
<line x2="100" y2="100" x1="157.06339097770922" y1="81.45898033750318" stroke="#aaa" stroke-width="1" stroke-linecap="round"/>
<line x2="100" y2="100" x1="126.45033635316128" y1="136.40576474687265" stroke="#aaa" stroke-width="1" stroke-linecap="round"/>
<line x2="100" y2="100" x1="73.5496636468387" y1="136.40576474687262" stroke="#aaa" stroke-width="1" stroke-linecap="round"/>
<line x2="100" y2="100" x1="144.08389392193547" y1="160.67627457812108" stroke="#aaa" stroke-width="1" stroke-linecap="round"/>
<line x2="100" y2="100" x1="114.2658477444273" y1="95.3647450843758" stroke="#aaa" stroke-width="1" stroke-linecap="round"/>
<line x2="100" y2="100" x1="64.73288486245161" y1="148.54101966249684" stroke="#aaa" stroke-width="1" stroke-linecap="round"/>
<line x2="100" y2="100" x1="100.00000000000001" y1="25.0" stroke="#aaa" stroke-width="1" stroke-linecap="round"/>
<line x2="100" y2="100" x1="42.93660902229079" y1="81.45898033750315" stroke="#aaa" stroke-width="1" stroke-linecap="round"/>
<line x2="100" y2="100" x1="171.32923872213652" y1="76.82372542187896" stroke="#aaa" stroke-width="1" stroke-linecap="round"/>
<line x2="100" y2="100" x1="142.7975432332819" y1="86.09423525312738" stroke="#aaa" stroke-width="1" stroke-linecap="round"/>
<line x2="100" y2="100" x1="28.67076127786349" y1="76.82372542187893" stroke="#aaa" stroke-width="1" stroke-linecap="round"/>
<line x2="100" y2="100" x1="91.1832212156129" y1="112.13525491562422" stroke="#aaa" stroke-width="1" stroke-linecap="round"/>
<line x2="100" y2="100" x1="100.0" y1="55.0" stroke="#aaa" stroke-width="1" stroke-linecap="round"/>
<line x2="108.8167787843871" y2="112.13525491562422" x1="91.1832212156129" y1="112.13525491562422" stroke="#aaa" stroke-width="1" stroke-linecap="round"/>
<line x2="128.5316954888546" y2="90.72949016875158" x1="100.0" y1="70.0" stroke="#aaa" stroke-width="1" stroke-linecap="round"/>
<line x2="82.3664424312258" y2="124.27050983124842" x1="71.46830451114539" y1="90.72949016875157" stroke="#aaa" stroke-width="1" stroke-linecap="round"/>
<line x2="117.6335575687742" y2="124.27050983124843" x1="82.3664424312258" y1="124.27050983124842" stroke="#aaa" stroke-width="1" stroke-linecap="round"/>
<line x2="128.5316954888546" y2="90.72949016875158" x1="117.6335575687742" y1="124.27050983124843" stroke="#aaa" stroke-width="1" stroke-linecap="round"/>
<line x2="73.5496636468387" y2="136.40576474687262" x1="57.20245676671809" y1="86.09423525312737" stroke="#aaa" stroke-width="1" stroke-linecap="round"/>
<line x2="157.06339097770922" y2="81.45898033750318" x1="100.00000000000001" y1="40.0" stroke="#aaa" stroke-width="1" stroke-linecap="round"/>
<line x2="135.2671151375484" y2="148.54101966249686" x1="64.73288486245161" y1="148.54101966249684" stroke="#aaa" stroke-width="1" stroke-linecap="round"/>
<line x2="55.91610607806451" y2="160.67627457812105" x1="28.67076127786349" y1="76.82372542187893" stroke="#aaa" stroke-width="1" stroke-linecap="round"/>
<line x2="14.404913533436186" y2="72.18847050625472" x1="100.00000000000001" y1="10.0" stroke="#aaa" stroke-width="1" stroke-linecap="round"/>
<line x2="185.59508646656383" y2="72.18847050625476" x1="100.00000000000001" y1="10.0" stroke="#aaa" stroke-width="1" stroke-linecap="round"/>
<line x2="100.00000000000001" y2="-5.0" x1="100.00000000000001" y1="10.0" stroke="#aaa" stroke-width="1" stroke-linecap="round"/>
<line x2="0.13906578900888178" y2="67.55321559063051" x1="14.404913533436186" y1="72.18847050625472" stroke="#aaa" stroke-width="1" stroke-linecap="round"/>
<line x2="152.90067270632255" y2="172.8115294937453" x1="47.099327293677405" y1="172.81152949374524" stroke="#aaa" stroke-width="1" stroke-linecap="round"/>
<line x2="38.28254850929031" y2="184.94678440936946" x1="47.099327293677405" y1="172.81152949374524" stroke="#aaa" stroke-width="1" stroke-linecap="round"/>
<line x2="185.59508646656383" y2="72.18847050625476" x1="152.90067270632255" y1="172.8115294937453" stroke="#aaa" stroke-width="1" stroke-linecap="round"/>
<line x2="161.71745149070966" y2="184.9467844093695" x1="152.90067270632255" y1="172.8115294937453" stroke="#aaa" stroke-width="1" stroke-linecap="round"/>
<line x2="199.86093421099113" y2="67.55321559063054" x1="185.59508646656383" y1="72.18847050625476" stroke="#aaa" stroke-width="1" stroke-linecap="round"/>
</svg>
