<svg viewBox="0 0 200 200" xmlns="http://www.w3.org/2000/svg">
<line x2="135.35533905932743" y2="64.64466094067267" x1="100.0" y1="50.0" stroke="#aaa" stroke-width="1" stroke-linecap="round"/>
<line x2="71.7157287525381" y2="71.7157287525381" x1="64.64466094067262" y1="64.64466094067262" stroke="#aaa" stroke-width="1" stroke-linecap="round"/>
<line x2="50.0" y2="99.99999999999999" x1="64.64466094067262" y1="64.64466094067262" stroke="#aaa" stroke-width="1" stroke-linecap="round"/>
<line x2="128.28427124746193" y2="71.71572875253813" x1="100.0" y1="60.0" stroke="#aaa" stroke-width="1" stroke-linecap="round"/>
<line x2="78.78679656440357" y2="78.78679656440357" x1="71.7157287525381" y1="71.7157287525381" stroke="#aaa" stroke-width="1" stroke-linecap="round"/>
<line x2="99.99999999999999" y2="150.0" x1="64.64466094067262" y1="135.35533905932738" stroke="#aaa" stroke-width="1" stroke-linecap="round"/>
<line x2="71.7157287525381" y2="128.2842712474619" x1="60.0" y1="99.99999999999999" stroke="#aaa" stroke-width="1" stroke-linecap="round"/>
<line x2="99.99999999999999" y2="140.0" x1="99.99999999999999" y1="150.0" stroke="#aaa" stroke-width="1" stroke-linecap="round"/>
<line x2="135.35533905932738" y2="135.35533905932738" x1="99.99999999999999" y1="150.0" stroke="#aaa" stroke-width="1" stroke-linecap="round"/>
<line x2="78.78679656440357" y2="121.21320343559643" x1="71.7157287525381" y1="128.2842712474619" stroke="#aaa" stroke-width="1" stroke-linecap="round"/>
<line x2="150.0" y2="100.00000000000001" x1="135.35533905932738" y1="135.35533905932738" stroke="#aaa" stroke-width="1" stroke-linecap="round"/>
<line x2="99.99999999999999" y2="130.0" x1="99.99999999999999" y1="140.0" stroke="#aaa" stroke-width="1" stroke-linecap="round"/>
<line x2="135.35533905932743" y2="64.64466094067267" x1="150.0" y1="100.00000000000001" stroke="#aaa" stroke-width="1" stroke-linecap="round"/>
<line x2="140.0" y2="100.00000000000001" x1="150.0" y1="100.00000000000001" stroke="#aaa" stroke-width="1" stroke-linecap="round"/>
<line x2="140.0" y2="100.00000000000001" x1="128.2842712474619" y1="128.2842712474619" stroke="#aaa" stroke-width="1" stroke-linecap="round"/>
<line x2="128.28427124746193" y2="71.71572875253813" x1="135.35533905932743" y1="64.64466094067267" stroke="#aaa" stroke-width="1" stroke-linecap="round"/>
<line x2="130.0" y2="100.00000000000001" x1="140.0" y1="100.00000000000001" stroke="#aaa" stroke-width="1" stroke-linecap="round"/>
<line x2="78.78679656440357" y2="78.78679656440357" x1="100.0" y1="70.0" stroke="#aaa" stroke-width="1" stroke-linecap="round"/>
<line x2="121.21320343559645" y2="78.7867965644036" x1="100.0" y1="70.0" stroke="#aaa" stroke-width="1" stroke-linecap="round"/>
<line x2="85.85786437626905" y2="85.85786437626905" x1="78.78679656440357" y1="78.78679656440357" stroke="#aaa" stroke-width="1" stroke-linecap="round"/>
<line x2="78.78679656440357" y2="121.21320343559643" x1="70.0" y1="100.0" stroke="#aaa" stroke-width="1" stroke-linecap="round"/>
<line x2="99.99999999999999" y2="130.0" x1="78.78679656440357" y1="121.21320343559643" stroke="#aaa" stroke-width="1" stroke-linecap="round"/>
<line x2="130.0" y2="100.00000000000001" x1="121.21320343559643" y1="121.21320343559643" stroke="#aaa" stroke-width="1" stroke-linecap="round"/>
<line x2="114.14213562373095" y2="114.14213562373095" x1="121.21320343559643" y1="121.21320343559643" stroke="#aaa" stroke-width="1" stroke-linecap="round"/>
<line x2="85.85786437626905" y2="85.85786437626905" x1="100.0" y1="80.0" stroke="#aaa" stroke-width="1" stroke-linecap="round"/>
<line x2="100" y2="100" x1="85.85786437626905" y1="85.85786437626905" stroke="#aaa" stroke-width="1" stroke-linecap="round"/>
<line x2="85.85786437626905" y2="114.14213562373095" x1="80.0" y1="100.0" stroke="#aaa" stroke-width="1" stroke-linecap="round"/>
<line x2="100" y2="100" x1="85.85786437626905" y1="114.14213562373095" stroke="#aaa" stroke-width="1" stroke-linecap="round"/>
<line x2="100" y2="100" x1="100.0" y1="120.0" stroke="#aaa" stroke-width="1" stroke-linecap="round"/>
<line x2="114.14213562373095" y2="114.14213562373095" x1="100.0" y1="120.0" stroke="#aaa" stroke-width="1" stroke-linecap="round"/>
<line x2="114.14213562373097" y2="85.85786437626906" x1="120.0" y1="100.0" stroke="#aaa" stroke-width="1" stroke-linecap="round"/>
<line x2="100" y2="100" x1="114.14213562373097" y1="85.85786437626906" stroke="#aaa" stroke-width="1" stroke-linecap="round"/>
</svg>
