<svg viewBox="0 0 200 200" xmlns="http://www.w3.org/2000/svg">
<line x2="100" y2="100" x1="100.0" y1="100.0" stroke="#aaa" stroke-width="1" stroke-linecap="round"/>
<line x2="100" y2="100" x1="100.0" y1="100.0" stroke="#aaa" stroke-width="1" stroke-linecap="round"/>
<line x2="100" y2="100" x1="58.85503233952687" y1="156.63118960624632" stroke="#aaa" stroke-width="1" stroke-linecap="round"/>
<line x2="100" y2="100" x1="76.48858990830108" y1="67.63932022500211" stroke="#aaa" stroke-width="1" stroke-linecap="round"/>
<line x2="100" y2="100" x1="141.14496766047313" y1="43.36881039375369" stroke="#aaa" stroke-width="1" stroke-linecap="round"/>
<line x2="100" y2="100" x1="100.0" y1="100.0" stroke="#aaa" stroke-width="1" stroke-linecap="round"/>
<line x2="100" y2="100" x1="42.93660902229079" y1="81.45898033750315" stroke="#aaa" stroke-width="1" stroke-linecap="round"/>
<line x2="100" y2="100" x1="61.957739348193854" y1="112.36067977499789" stroke="#aaa" stroke-width="1" stroke-linecap="round"/>
<line x2="100" y2="100" x1="141.1449676604731" y1="156.63118960624632" stroke="#aaa" stroke-width="1" stroke-linecap="round"/>
<line x2="100" y2="100" x1="129.38926261462365" y1="140.45084971874738" stroke="#aaa" stroke-width="1" stroke-linecap="round"/>
<line x2="100" y2="100" x1="100.0" y1="50.0" stroke="#aaa" stroke-width="1" stroke-linecap="round"/>
<line x2="100" y2="100" x1="99.99999999999999" y1="170.0" stroke="#aaa" stroke-width="1" stroke-linecap="round"/>
<line x2="100" y2="100" x1="135.2671151375484" y1="148.54101966249686" stroke="#aaa" stroke-width="1" stroke-linecap="round"/>
<line x2="100" y2="100" x1="76.48858990830107" y1="132.3606797749979" stroke="#aaa" stroke-width="1" stroke-linecap="round"/>
<line x2="100" y2="100" x1="99.99999999999999" y1="150.0" stroke="#aaa" stroke-width="1" stroke-linecap="round"/>
<line x2="100" y2="100" x1="100.0" y1="100.0" stroke="#aaa" stroke-width="1" stroke-linecap="round"/>
<line x2="100" y2="100" x1="111.75570504584947" y1="83.81966011250105" stroke="#aaa" stroke-width="1" stroke-linecap="round"/>
<line x2="100" y2="100" x1="166.57395614066075" y1="121.63118960624634" stroke="#aaa" stroke-width="1" stroke-linecap="round"/>
<line x2="100" y2="100" x1="33.426043859339245" y1="121.63118960624631" stroke="#aaa" stroke-width="1" stroke-linecap="round"/>
<line x2="100" y2="100" x1="100.0" y1="60.0" stroke="#aaa" stroke-width="1" stroke-linecap="round"/>
<line x2="100" y2="100" x1="100.0" y1="100.0" stroke="#aaa" stroke-width="1" stroke-linecap="round"/>
<line x2="100" y2="100" x1="64.73288486245161" y1="148.54101966249684" stroke="#aaa" stroke-width="1" stroke-linecap="round"/>
<line x2="100" y2="100" x1="88.24429495415053" y1="116.18033988749895" stroke="#aaa" stroke-width="1" stroke-linecap="round"/>
<line x2="100" y2="100" x1="94.12214747707527" y1="91.90983005625053" stroke="#aaa" stroke-width="1" stroke-linecap="round"/>
<line x2="100" y2="100" x1="138.04226065180615" y1="87.63932022500211" stroke="#aaa" stroke-width="1" stroke-linecap="round"/>
<line x2="100" y2="100" x1="147.55282581475768" y1="84.54915028125265" stroke="#aaa" stroke-width="1" stroke-linecap="round"/>
<line x2="100" y2="100" x1="123.51141009169893" y1="67.63932022500211" stroke="#aaa" stroke-width="1" stroke-linecap="round"/>
<line x2="100" y2="100" x1="82.3664424312258" y1="124.27050983124842" stroke="#aaa" stroke-width="1" stroke-linecap="round"/>
<line x2="100" y2="100" x1="100.0" y1="110.0" stroke="#aaa" stroke-width="1" stroke-linecap="round"/>
<line x2="100" y2="100" x1="100.0" y1="100.0" stroke="#aaa" stroke-width="1" stroke-linecap="round"/>
<line x2="100" y2="100" x1="100.0" y1="100.0" stroke="#aaa" stroke-width="1" stroke-linecap="round"/>
<line x2="100" y2="100" x1="117.6335575687742" y1="124.27050983124843" stroke="#aaa" stroke-width="1" stroke-linecap="round"/>
<line x2="100" y2="100" x1="33.42604385933926" y1="78.36881039375368" stroke="#aaa" stroke-width="1" stroke-linecap="round"/>
<line x2="100" y2="100" x1="111.75570504584945" y1="116.18033988749895" stroke="#aaa" stroke-width="1" stroke-linecap="round"/>
<line x2="100" y2="100" x1="52.447174185242325" y1="84.54915028125262" stroke="#aaa" stroke-width="1" stroke-linecap="round"/>
<line x2="100" y2="100" x1="82.3664424312258" y1="75.72949016875157" stroke="#aaa" stroke-width="1" stroke-linecap="round"/>
<line x2="100" y2="100" x1="88.24429495415055" y1="83.81966011250105" stroke="#aaa" stroke-width="1" stroke-linecap="round"/>
<line x2="100" y2="100" x1="100.0" y1="70.0" stroke="#aaa" stroke-width="1" stroke-linecap="round"/>
<line x2="100" y2="100" x1="109.51056516295154" y1="103.09016994374947" stroke="#aaa" stroke-width="1" stroke-linecap="round"/>
<line x2="100.0" y2="100.0" x1="100.0" y1="100.0" stroke="#aaa" stroke-width="1" stroke-linecap="round"/>
<line x2="100.0" y2="100.0" x1="100.0" y1="100.0" stroke="#aaa" stroke-width="1" stroke-linecap="round"/>
<line x2="100.0" y2="100.0" x1="100.0" y1="100.0" stroke="#aaa" stroke-width="1" stroke-linecap="round"/>
<line x2="105.87785252292474" y2="91.90983005625053" x1="100.0" y1="90.0" stroke="#aaa" stroke-width="1" stroke-linecap="round"/>
<line x2="90.48943483704846" y2="103.09016994374947" x1="90.48943483704846" y1="96.90983005625053" stroke="#aaa" stroke-width="1" stroke-linecap="round"/>
<line x2="94.12214747707527" y2="108.09016994374947" x1="90.48943483704846" y1="103.09016994374947" stroke="#aaa" stroke-width="1" stroke-linecap="round"/>
<line x2="100.0" y2="110.0" x1="94.12214747707527" y1="108.09016994374947" stroke="#aaa" stroke-width="1" stroke-linecap="round"/>
<line x2="105.87785252292473" y2="108.09016994374947" x1="100.0" y1="110.0" stroke="#aaa" stroke-width="1" stroke-linecap="round"/>
<line x2="109.51056516295154" y2="96.90983005625053" x1="109.51056516295154" y1="103.09016994374947" stroke="#aaa" stroke-width="1" stroke-linecap="round"/>
<line x2="105.87785252292474" y2="91.90983005625053" x1="109.51056516295154" y1="96.90983005625053" stroke="#aaa" stroke-width="1" stroke-linecap="round"/>
<line x2="111.75570504584947" y2="83.81966011250105" x1="100.0" y1="80.0" stroke="#aaa" stroke-width="1" stroke-linecap="round"/>
<line x2="80.97886967409693" y2="106.18033988749895" x1="80.97886967409693" y1="93.81966011250105" stroke="#aaa" stroke-width="1" stroke-linecap="round"/>
<line x2="88.24429495415053" y2="116.18033988749895" x1="80.97886967409693" y1="106.18033988749895" stroke="#aaa" stroke-width="1" stroke-linecap="round"/>
<line x2="100.0" y2="120.0" x1="88.24429495415053" y1="116.18033988749895" stroke="#aaa" stroke-width="1" stroke-linecap="round"/>
<line x2="119.02113032590307" y2="93.81966011250105" x1="119.02113032590307" y1="106.18033988749896" stroke="#aaa" stroke-width="1" stroke-linecap="round"/>
<line x2="111.75570504584947" y2="83.81966011250105" x1="119.02113032590307" y1="93.81966011250105" stroke="#aaa" stroke-width="1" stroke-linecap="round"/>
<line x2="117.6335575687742" y2="75.72949016875158" x1="100.0" y1="70.0" stroke="#aaa" stroke-width="1" stroke-linecap="round"/>
<line x2="71.46830451114539" y2="90.72949016875157" x1="82.3664424312258" y1="75.72949016875157" stroke="#aaa" stroke-width="1" stroke-linecap="round"/>
<line x2="82.3664424312258" y2="124.27050983124842" x1="71.46830451114539" y1="109.27050983124842" stroke="#aaa" stroke-width="1" stroke-linecap="round"/>
<line x2="117.6335575687742" y2="124.27050983124843" x1="99.99999999999999" y1="130.0" stroke="#aaa" stroke-width="1" stroke-linecap="round"/>
<line x2="128.5316954888546" y2="90.72949016875158" x1="128.5316954888546" y1="109.27050983124843" stroke="#aaa" stroke-width="1" stroke-linecap="round"/>
<line x2="117.6335575687742" y2="75.72949016875158" x1="128.5316954888546" y1="90.72949016875158" stroke="#aaa" stroke-width="1" stroke-linecap="round"/>
<line x2="61.95773934819386" y2="87.6393202250021" x1="76.48858990830108" y1="67.63932022500211" stroke="#aaa" stroke-width="1" stroke-linecap="round"/>
<line x2="99.99999999999999" y2="140.0" x1="76.48858990830107" y1="132.3606797749979" stroke="#aaa" stroke-width="1" stroke-linecap="round"/>
<line x2="123.51141009169892" y2="132.3606797749979" x1="99.99999999999999" y1="140.0" stroke="#aaa" stroke-width="1" stroke-linecap="round"/>
<line x2="138.04226065180615" y2="87.63932022500211" x1="138.04226065180615" y1="112.3606797749979" stroke="#aaa" stroke-width="1" stroke-linecap="round"/>
<line x2="70.61073738537635" y2="59.54915028125263" x1="100.0" y1="50.0" stroke="#aaa" stroke-width="1" stroke-linecap="round"/>
<line x2="52.44717418524232" y2="115.45084971874736" x1="52.447174185242325" y1="84.54915028125262" stroke="#aaa" stroke-width="1" stroke-linecap="round"/>
<line x2="99.99999999999999" y2="150.0" x1="70.61073738537634" y1="140.45084971874735" stroke="#aaa" stroke-width="1" stroke-linecap="round"/>
<line x2="147.55282581475768" y2="84.54915028125265" x1="147.55282581475768" y1="115.45084971874739" stroke="#aaa" stroke-width="1" stroke-linecap="round"/>
<line x2="129.38926261462368" y2="59.549150281252636" x1="147.55282581475768" y1="84.54915028125265" stroke="#aaa" stroke-width="1" stroke-linecap="round"/>
<line x2="135.2671151375484" y2="51.458980337503164" x1="100.00000000000001" y1="40.0" stroke="#aaa" stroke-width="1" stroke-linecap="round"/>
<line x2="64.73288486245161" y2="51.45898033750315" x1="100.00000000000001" y1="40.0" stroke="#aaa" stroke-width="1" stroke-linecap="round"/>
<line x2="42.93660902229079" y2="81.45898033750315" x1="64.73288486245161" y1="51.45898033750315" stroke="#aaa" stroke-width="1" stroke-linecap="round"/>
<line x2="42.93660902229078" y2="118.54101966249684" x1="42.93660902229079" y1="81.45898033750315" stroke="#aaa" stroke-width="1" stroke-linecap="round"/>
<line x2="99.99999999999999" y2="160.0" x1="64.73288486245161" y1="148.54101966249684" stroke="#aaa" stroke-width="1" stroke-linecap="round"/>
<line x2="157.06339097770922" y2="118.54101966249686" x1="135.2671151375484" y1="148.54101966249686" stroke="#aaa" stroke-width="1" stroke-linecap="round"/>
<line x2="135.2671151375484" y2="51.458980337503164" x1="157.06339097770922" y1="81.45898033750318" stroke="#aaa" stroke-width="1" stroke-linecap="round"/>
<line x2="141.14496766047313" y2="43.36881039375369" x1="100.00000000000001" y1="30.0" stroke="#aaa" stroke-width="1" stroke-linecap="round"/>
<line x2="33.42604385933926" y2="78.36881039375368" x1="58.855032339526886" y1="43.36881039375368" stroke="#aaa" stroke-width="1" stroke-linecap="round"/>
<line x2="166.57395614066075" y2="78.3688103937537" x1="166.57395614066075" y1="121.63118960624634" stroke="#aaa" stroke-width="1" stroke-linecap="round"/>
<line x2="147.02282018339787" y2="35.27864045000422" x1="100.00000000000001" y1="20.0" stroke="#aaa" stroke-width="1" stroke-linecap="round"/>
<line x2="52.97717981660216" y2="35.278640450004204" x1="100.00000000000001" y1="20.0" stroke="#aaa" stroke-width="1" stroke-linecap="round"/>
<line x2="100.00000000000001" y2="10.0" x1="100.00000000000001" y1="20.0" stroke="#aaa" stroke-width="1" stroke-linecap="round"/>
<line x2="23.915478696387723" y2="75.27864045000419" x1="52.97717981660216" y1="35.278640450004204" stroke="#aaa" stroke-width="1" stroke-linecap="round"/>
<line x2="47.099327293677426" y2="27.18847050625473" x1="52.97717981660216" y1="35.278640450004204" stroke="#aaa" stroke-width="1" stroke-linecap="round"/>
<line x2="23.91547869638771" y2="124.72135954999578" x1="23.915478696387723" y1="75.27864045000419" stroke="#aaa" stroke-width="1" stroke-linecap="round"/>
<line x2="14.404913533436186" y2="72.18847050625472" x1="23.915478696387723" y1="75.27864045000419" stroke="#aaa" stroke-width="1" stroke-linecap="round"/>
<line x2="52.97717981660214" y2="164.72135954999578" x1="23.91547869638771" y1="124.72135954999578" stroke="#aaa" stroke-width="1" stroke-linecap="round"/>
<line x2="14.404913533436172" y2="127.81152949374525" x1="23.91547869638771" y1="124.72135954999578" stroke="#aaa" stroke-width="1" stroke-linecap="round"/>
<line x2="47.099327293677405" y2="172.81152949374524" x1="52.97717981660214" y1="164.72135954999578" stroke="#aaa" stroke-width="1" stroke-linecap="round"/>
<line x2="99.99999999999997" y2="190.0" x1="99.99999999999999" y1="180.0" stroke="#aaa" stroke-width="1" stroke-linecap="round"/>
<line x2="147.02282018339784" y2="164.7213595499958" x1="99.99999999999999" y1="180.0" stroke="#aaa" stroke-width="1" stroke-linecap="round"/>
<line x2="176.0845213036123" y2="124.72135954999581" x1="147.02282018339784" y1="164.7213595499958" stroke="#aaa" stroke-width="1" stroke-linecap="round"/>
<line x2="152.90067270632255" y2="172.8115294937453" x1="147.02282018339784" y1="164.7213595499958" stroke="#aaa" stroke-width="1" stroke-linecap="round"/>
<line x2="176.0845213036123" y2="75.27864045000423" x1="176.0845213036123" y1="124.72135954999581" stroke="#aaa" stroke-width="1" stroke-linecap="round"/>
<line x2="185.59508646656383" y2="127.8115294937453" x1="176.0845213036123" y1="124.72135954999581" stroke="#aaa" stroke-width="1" stroke-linecap="round"/>
<line x2="185.59508646656383" y2="72.18847050625476" x1="176.0845213036123" y1="75.27864045000423" stroke="#aaa" stroke-width="1" stroke-linecap="round"/>
<line x2="147.02282018339787" y2="35.27864045000422" x1="176.0845213036123" y1="75.27864045000423" stroke="#aaa" stroke-width="1" stroke-linecap="round"/>
<line x2="152.9006727063226" y2="27.188470506254745" x1="147.02282018339787" y1="35.27864045000422" stroke="#aaa" stroke-width="1" stroke-linecap="round"/>
</svg>
