<svg viewBox="0 0 200 200" xmlns="http://www.w3.org/2000/svg">
<line x2="56.69872981077808" y2="74.99999999999997" x1="100.0" y1="50.0" stroke="#aaa" stroke-width="1" stroke-linecap="round"/>
<line x2="65.35898384862247" y2="79.99999999999999" x1="56.69872981077808" y1="74.99999999999997" stroke="#aaa" stroke-width="1" stroke-linecap="round"/>
<line x2="65.35898384862247" y2="79.99999999999999" x1="100.0" y1="60.0" stroke="#aaa" stroke-width="1" stroke-linecap="round"/>
<line x2="134.64101615137753" y2="79.99999999999997" x1="100.0" y1="60.0" stroke="#aaa" stroke-width="1" stroke-linecap="round"/>
<line x2="65.35898384862244" y2="119.99999999999997" x1="56.69872981077805" y1="124.99999999999997" stroke="#aaa" stroke-width="1" stroke-linecap="round"/>
<line x2="65.35898384862244" y2="119.99999999999997" x1="65.35898384862247" y1="79.99999999999999" stroke="#aaa" stroke-width="1" stroke-linecap="round"/>
<line x2="74.01923788646684" y2="84.99999999999999" x1="65.35898384862247" y1="79.99999999999999" stroke="#aaa" stroke-width="1" stroke-linecap="round"/>
<line x2="99.99999999999999" y2="140.0" x1="99.99999999999999" y1="150.0" stroke="#aaa" stroke-width="1" stroke-linecap="round"/>
<line x2="99.99999999999999" y2="140.0" x1="65.35898384862244" y1="119.99999999999997" stroke="#aaa" stroke-width="1" stroke-linecap="round"/>
<line x2="134.64101615137753" y2="120.00000000000003" x1="143.30127018922192" y1="125.00000000000003" stroke="#aaa" stroke-width="1" stroke-linecap="round"/>
<line x2="143.3012701892219" y2="74.99999999999997" x1="143.30127018922192" y1="125.00000000000003" stroke="#aaa" stroke-width="1" stroke-linecap="round"/>
<line x2="134.64101615137753" y2="120.00000000000003" x1="99.99999999999999" y1="140.0" stroke="#aaa" stroke-width="1" stroke-linecap="round"/>
<line x2="99.99999999999999" y2="130.0" x1="99.99999999999999" y1="140.0" stroke="#aaa" stroke-width="1" stroke-linecap="round"/>
<line x2="74.01923788646684" y2="84.99999999999999" x1="100.0" y1="70.0" stroke="#aaa" stroke-width="1" stroke-linecap="round"/>
<line x2="100.0" y2="80.0" x1="100.0" y1="70.0" stroke="#aaa" stroke-width="1" stroke-linecap="round"/>
<line x2="99.99999999999999" y2="130.0" x1="74.01923788646683" y1="114.99999999999997" stroke="#aaa" stroke-width="1" stroke-linecap="round"/>
<line x2="100.0" y2="120.0" x1="99.99999999999999" y1="130.0" stroke="#aaa" stroke-width="1" stroke-linecap="round"/>
<line x2="117.32050807568876" y2="110.00000000000001" x1="125.98076211353316" y1="115.00000000000001" stroke="#aaa" stroke-width="1" stroke-linecap="round"/>
<line x2="117.32050807568876" y2="89.99999999999999" x1="125.98076211353315" y1="84.99999999999999" stroke="#aaa" stroke-width="1" stroke-linecap="round"/>
<line x2="100.0" y2="90.0" x1="100.0" y1="80.0" stroke="#aaa" stroke-width="1" stroke-linecap="round"/>
<line x2="91.33974596215562" y2="95.0" x1="82.67949192431124" y1="89.99999999999999" stroke="#aaa" stroke-width="1" stroke-linecap="round"/>
<line x2="82.67949192431122" y2="109.99999999999999" x1="82.67949192431124" y1="89.99999999999999" stroke="#aaa" stroke-width="1" stroke-linecap="round"/>
<line x2="91.3397459621556" y2="105.0" x1="82.67949192431122" y1="109.99999999999999" stroke="#aaa" stroke-width="1" stroke-linecap="round"/>
<line x2="100.0" y2="120.0" x1="82.67949192431122" y1="109.99999999999999" stroke="#aaa" stroke-width="1" stroke-linecap="round"/>
<line x2="117.32050807568876" y2="110.00000000000001" x1="100.0" y1="120.0" stroke="#aaa" stroke-width="1" stroke-linecap="round"/>
<line x2="100.0" y2="110.0" x1="100.0" y1="120.0" stroke="#aaa" stroke-width="1" stroke-linecap="round"/>
<line x2="117.32050807568876" y2="89.99999999999999" x1="117.32050807568876" y1="110.00000000000001" stroke="#aaa" stroke-width="1" stroke-linecap="round"/>
<line x2="108.66025403784438" y2="105.0" x1="117.32050807568876" y1="110.00000000000001" stroke="#aaa" stroke-width="1" stroke-linecap="round"/>
<line x2="108.66025403784438" y2="95.0" x1="117.32050807568876" y1="89.99999999999999" stroke="#aaa" stroke-width="1" stroke-linecap="round"/>
</svg>
