<svg viewBox="0 0 200 200" xmlns="http://www.w3.org/2000/svg">
<path d="M 140.0 100.0 A 40 40 0.0 0 1 128.2842712474619 128.2842712474619" stroke="#aaa" stroke-width="1" stroke-linecap="round" fill="none"/>
<path d="M 140.0 100.0 A 40 40 0.0 0 1 128.2842712474619 128.2842712474619" stroke="#aaa" stroke-width="1" stroke-linecap="round" fill="none"/>
<line x2="100.0" y2="130.0" x1="100.0" y1="140.0" stroke="#aaa" stroke-width="1" stroke-linecap="round"/>
<line x2="100.0" y2="120.0" x1="100.0" y1="130.0" stroke="#aaa" stroke-width="1" stroke-linecap="round"/>
<path d="M 100.0 140.0 A 40 40 0.0 0 1 71.7157287525381 128.2842712474619" stroke="#aaa" stroke-width="1" stroke-linecap="round" fill="none"/>
<line x2="114.14213562373095" y2="114.14213562373095" x1="121.21320343559643" y1="121.21320343559643" stroke="#aaa" stroke-width="1" stroke-linecap="round"/>
<path d="M 121.21320343559643 121.21320343559643 A 30 30 0.0 0 1 100.0 130.0" stroke="#aaa" stroke-width="1" stroke-linecap="round" fill="none"/>
<path d="M 121.21320343559643 121.21320343559643 A 30 30 0.0 0 1 100.0 130.0" stroke="#aaa" stroke-width="1" stroke-linecap="round" fill="none"/>
<path d="M 71.7157287525381 128.2842712474619 A 40 40 0.0 0 1 60.0 100.0" stroke="#aaa" stroke-width="1" stroke-linecap="round" fill="none"/>
<line x2="120.0" y2="100.0" x1="130.0" y1="100.0" stroke="#aaa" stroke-width="1" stroke-linecap="round"/>
<path d="M 60.0 100.0 A 40 40 0.0 0 1 71.7157287525381 71.7157287525381" stroke="#aaa" stroke-width="1" stroke-linecap="round" fill="none"/>
<path d="M 78.78679656440357 121.21320343559643 A 30 30 0.0 0 1 70.0 100.0" stroke="#aaa" stroke-width="1" stroke-linecap="round" fill="none"/>
<path d="M 71.7157287525381 71.7157287525381 A 40 40 0.0 0 1 99.99999999999999 60.0" stroke="#aaa" stroke-width="1" stroke-linecap="round" fill="none"/>
<path d="M 70.0 100.0 A 30 30 0.0 0 1 78.78679656440357 78.78679656440357" stroke="#aaa" stroke-width="1" stroke-linecap="round" fill="none"/>
<line x2="70.0" y2="100.0" x1="60.0" y1="99.99999999999999" stroke="#aaa" stroke-width="1" stroke-linecap="round"/>
<line x2="85.85786437626905" y2="85.85786437626905" x1="78.78679656440357" y1="78.78679656440357" stroke="#aaa" stroke-width="1" stroke-linecap="round"/>
<path d="M 78.78679656440357 78.78679656440357 A 30 30 0.0 0 1 100.0 70.0" stroke="#aaa" stroke-width="1" stroke-linecap="round" fill="none"/>
<line x2="78.78679656440357" y2="121.21320343559643" x1="71.7157287525381" y1="128.2842712474619" stroke="#aaa" stroke-width="1" stroke-linecap="round"/>
<path d="M 100.0 70.0 A 30 30 0.0 0 1 121.21320343559643 78.78679656440357" stroke="#aaa" stroke-width="1" stroke-linecap="round" fill="none"/>
<line x2="85.85786437626905" y2="114.14213562373095" x1="78.78679656440357" y1="121.21320343559643" stroke="#aaa" stroke-width="1" stroke-linecap="round"/>
<line x2="99.99999999999999" y2="130.0" x1="99.99999999999999" y1="140.0" stroke="#aaa" stroke-width="1" stroke-linecap="round"/>
<line x2="107.07106781186548" y2="107.07106781186548" x1="114.14213562373095" y1="114.14213562373095" stroke="#aaa" stroke-width="1" stroke-linecap="round"/>
<path d="M 114.14213562373095 114.14213562373095 A 20 20 0.0 0 1 100.0 120.0" stroke="#aaa" stroke-width="1" stroke-linecap="round" fill="none"/>
<path d="M 100.0 120.0 A 20 20 0.0 0 1 85.85786437626905 114.14213562373095" stroke="#aaa" stroke-width="1" stroke-linecap="round" fill="none"/>
<line x2="100.0" y2="90.0" x1="100.0" y1="80.0" stroke="#aaa" stroke-width="1" stroke-linecap="round"/>
<path d="M 80.0 100.0 A 20 20 0.0 0 1 85.85786437626905 85.85786437626905" stroke="#aaa" stroke-width="1" stroke-linecap="round" fill="none"/>
<path d="M 85.85786437626905 85.85786437626905 A 20 20 0.0 0 1 100.0 80.0" stroke="#aaa" stroke-width="1" stroke-linecap="round" fill="none"/>
<path d="M 110.0 100.0 A 10 10 0.0 0 1 107.07106781186548 107.07106781186548" stroke="#aaa" stroke-width="1" stroke-linecap="round" fill="none"/>
<path d="M 107.07106781186548 107.07106781186548 A 10 10 0.0 0 1 100.0 110.0" stroke="#aaa" stroke-width="1" stroke-linecap="round" fill="none"/>
<path d="M 100.0 110.0 A 10 10 0.0 0 1 92.92893218813452 107.07106781186548" stroke="#aaa" stroke-width="1" stroke-linecap="round" fill="none"/>
<path d="M 92.92893218813452 107.07106781186548 A 10 10 0.0 0 1 90.0 100.0" stroke="#aaa" stroke-width="1" stroke-linecap="round" fill="none"/>
<path d="M 90.0 100.0 A 10 10 0.0 0 1 92.92893218813452 92.92893218813452" stroke="#aaa" stroke-width="1" stroke-linecap="round" fill="none"/>
</svg>
