<svg viewBox="0 0 200 200" xmlns="http://www.w3.org/2000/svg">
<line x2="100" y2="100" x1="100.0" y1="87.14285714285714" stroke="#aaa" stroke-width="1" stroke-linecap="round"/>
<line x2="92.44276104195391" y2="89.59835292946497" x1="100.0" y1="87.14285714285714" stroke="#aaa" stroke-width="1" stroke-linecap="round"/>
<line x2="100" y2="100" x1="38.860652523882976" y1="119.86537820981803" stroke="#aaa" stroke-width="1" stroke-linecap="round"/>
<line x2="100" y2="100" x1="62.21380520976959" y1="47.9917646473248" stroke="#aaa" stroke-width="1" stroke-linecap="round"/>
<line x2="100" y2="100" x1="100.00000000000001" y1="35.71428571428571" stroke="#aaa" stroke-width="1" stroke-linecap="round"/>
<line x2="100" y2="100" x1="100.0" y1="112.85714285714286" stroke="#aaa" stroke-width="1" stroke-linecap="round"/>
<line x2="100" y2="100" x1="87.7721305047766" y1="103.9730756419636" stroke="#aaa" stroke-width="1" stroke-linecap="round"/>
<line x2="100" y2="100" x1="75.5442610095532" y1="92.05384871607278" stroke="#aaa" stroke-width="1" stroke-linecap="round"/>
<line x2="100" y2="100" x1="69.77104416781567" y1="58.39341171785985" stroke="#aaa" stroke-width="1" stroke-linecap="round"/>
<line x2="100" y2="100" x1="38.86065252388298" y1="80.13462179018194" stroke="#aaa" stroke-width="1" stroke-linecap="round"/>
<line x2="100" y2="100" x1="84.88552208390784" y1="79.19670585892993" stroke="#aaa" stroke-width="1" stroke-linecap="round"/>
<line x2="100" y2="100" x1="62.213805209769575" y1="152.0082353526752" stroke="#aaa" stroke-width="1" stroke-linecap="round"/>
<line x2="100" y2="100" x1="99.99999999999999" y1="177.14285714285714" stroke="#aaa" stroke-width="1" stroke-linecap="round"/>
<line x2="100" y2="100" x1="92.44276104195391" y1="110.40164707053503" stroke="#aaa" stroke-width="1" stroke-linecap="round"/>
<line x2="100" y2="100" x1="51.08852201910639" y1="84.10769743214556" stroke="#aaa" stroke-width="1" stroke-linecap="round"/>
<line x2="100" y2="100" x1="75.5442610095532" y1="107.94615128392721" stroke="#aaa" stroke-width="1" stroke-linecap="round"/>
<line x2="100" y2="100" x1="115.11447791609217" y1="79.19670585892993" stroke="#aaa" stroke-width="1" stroke-linecap="round"/>
<line x2="100" y2="100" x1="122.67171687413826" y1="68.7950587883949" stroke="#aaa" stroke-width="1" stroke-linecap="round"/>
<line x2="100" y2="100" x1="99.99999999999999" y1="151.42857142857142" stroke="#aaa" stroke-width="1" stroke-linecap="round"/>
<line x2="100" y2="100" x1="122.67171687413824" y1="131.2049412116051" stroke="#aaa" stroke-width="1" stroke-linecap="round"/>
<line x2="100" y2="100" x1="161.13934747611702" y1="80.13462179018197" stroke="#aaa" stroke-width="1" stroke-linecap="round"/>
<line x2="100" y2="100" x1="173.36721697134038" y1="123.83845385178168" stroke="#aaa" stroke-width="1" stroke-linecap="round"/>
<line x2="100" y2="100" x1="54.6565662517235" y1="162.4098824232102" stroke="#aaa" stroke-width="1" stroke-linecap="round"/>
<line x2="100" y2="100" x1="148.9114779808936" y1="115.89230256785446" stroke="#aaa" stroke-width="1" stroke-linecap="round"/>
<line x2="100" y2="100" x1="100.0" y1="125.71428571428571" stroke="#aaa" stroke-width="1" stroke-linecap="round"/>
<line x2="100" y2="100" x1="145.3434337482765" y1="37.59011757678979" stroke="#aaa" stroke-width="1" stroke-linecap="round"/>
<line x2="100" y2="100" x1="54.65656625172351" y1="37.59011757678977" stroke="#aaa" stroke-width="1" stroke-linecap="round"/>
<line x2="100" y2="100" x1="173.36721697134044" y1="76.16154614821836" stroke="#aaa" stroke-width="1" stroke-linecap="round"/>
<line x2="100" y2="100" x1="112.2278694952234" y1="96.0269243580364" stroke="#aaa" stroke-width="1" stroke-linecap="round"/>
<line x2="100" y2="100" x1="145.34343374827648" y1="162.40988242321023" stroke="#aaa" stroke-width="1" stroke-linecap="round"/>
<line x2="100" y2="100" x1="100.00000000000001" y1="22.85714285714286" stroke="#aaa" stroke-width="1" stroke-linecap="round"/>
<line x2="100" y2="100" x1="130.2289558321843" y1="141.60658828214017" stroke="#aaa" stroke-width="1" stroke-linecap="round"/>
<line x2="100" y2="100" x1="115.11447791609216" y1="120.80329414107008" stroke="#aaa" stroke-width="1" stroke-linecap="round"/>
<line x2="100" y2="100" x1="130.22895583218434" y1="58.39341171785986" stroke="#aaa" stroke-width="1" stroke-linecap="round"/>
<line x2="100" y2="100" x1="161.139347476117" y1="119.86537820981806" stroke="#aaa" stroke-width="1" stroke-linecap="round"/>
<line x2="100" y2="100" x1="26.63278302865959" y1="76.16154614821833" stroke="#aaa" stroke-width="1" stroke-linecap="round"/>
<line x2="100" y2="100" x1="124.4557389904468" y1="107.94615128392722" stroke="#aaa" stroke-width="1" stroke-linecap="round"/>
<line x2="87.7721305047766" y2="103.9730756419636" x1="87.7721305047766" y1="96.02692435803638" stroke="#aaa" stroke-width="1" stroke-linecap="round"/>
<line x2="107.55723895804609" y2="110.40164707053503" x1="100.0" y1="112.85714285714286" stroke="#aaa" stroke-width="1" stroke-linecap="round"/>
<line x2="112.2278694952234" y2="103.97307564196362" x1="107.55723895804609" y1="110.40164707053503" stroke="#aaa" stroke-width="1" stroke-linecap="round"/>
<line x2="107.55723895804609" y2="89.59835292946497" x1="112.2278694952234" y1="96.0269243580364" stroke="#aaa" stroke-width="1" stroke-linecap="round"/>
<line x2="84.88552208390784" y2="79.19670585892993" x1="100.0" y1="74.28571428571429" stroke="#aaa" stroke-width="1" stroke-linecap="round"/>
<line x2="100.0" y2="125.71428571428571" x1="84.88552208390783" y1="120.80329414107007" stroke="#aaa" stroke-width="1" stroke-linecap="round"/>
<line x2="115.11447791609217" y2="79.19670585892993" x1="124.4557389904468" y1="92.05384871607279" stroke="#aaa" stroke-width="1" stroke-linecap="round"/>
<line x2="77.32828312586176" y2="68.79505878839488" x1="100.0" y1="61.42857142857143" stroke="#aaa" stroke-width="1" stroke-linecap="round"/>
<line x2="122.67171687413826" y2="68.7950587883949" x1="100.0" y1="61.42857142857143" stroke="#aaa" stroke-width="1" stroke-linecap="round"/>
<line x2="63.31639151432979" y2="111.91922692589083" x1="63.316391514329794" y1="88.08077307410916" stroke="#aaa" stroke-width="1" stroke-linecap="round"/>
<line x2="77.32828312586174" y2="131.2049412116051" x1="63.31639151432979" y1="111.91922692589083" stroke="#aaa" stroke-width="1" stroke-linecap="round"/>
<line x2="99.99999999999999" y2="138.57142857142856" x1="77.32828312586174" y1="131.2049412116051" stroke="#aaa" stroke-width="1" stroke-linecap="round"/>
<line x2="122.67171687413824" y2="131.2049412116051" x1="99.99999999999999" y1="138.57142857142856" stroke="#aaa" stroke-width="1" stroke-linecap="round"/>
<line x2="136.6836084856702" y2="111.91922692589084" x1="122.67171687413824" y1="131.2049412116051" stroke="#aaa" stroke-width="1" stroke-linecap="round"/>
<line x2="136.68360848567022" y2="88.08077307410919" x1="136.6836084856702" y1="111.91922692589084" stroke="#aaa" stroke-width="1" stroke-linecap="round"/>
<line x2="69.77104416781567" y2="58.39341171785985" x1="100.0" y1="48.57142857142858" stroke="#aaa" stroke-width="1" stroke-linecap="round"/>
<line x2="51.08852201910639" y2="115.89230256785443" x1="51.08852201910639" y1="84.10769743214556" stroke="#aaa" stroke-width="1" stroke-linecap="round"/>
<line x2="69.77104416781566" y2="141.60658828214014" x1="51.08852201910639" y1="115.89230256785443" stroke="#aaa" stroke-width="1" stroke-linecap="round"/>
<line x2="148.9114779808936" y2="84.10769743214559" x1="148.9114779808936" y1="115.89230256785446" stroke="#aaa" stroke-width="1" stroke-linecap="round"/>
<line x2="99.99999999999999" y2="164.28571428571428" x1="62.213805209769575" y1="152.0082353526752" stroke="#aaa" stroke-width="1" stroke-linecap="round"/>
<line x2="137.7861947902304" y2="152.0082353526752" x1="99.99999999999999" y1="164.28571428571428" stroke="#aaa" stroke-width="1" stroke-linecap="round"/>
<line x2="137.78619479023044" y2="47.991764647324814" x1="161.13934747611702" y1="80.13462179018197" stroke="#aaa" stroke-width="1" stroke-linecap="round"/>
<line x2="26.632783028659574" y2="123.83845385178165" x1="26.63278302865959" y1="76.16154614821833" stroke="#aaa" stroke-width="1" stroke-linecap="round"/>
<line x2="152.9006727063226" y2="27.188470506254745" x1="100.00000000000001" y1="10.0" stroke="#aaa" stroke-width="1" stroke-linecap="round"/>
<line x2="47.099327293677426" y2="27.18847050625473" x1="100.00000000000001" y1="10.0" stroke="#aaa" stroke-width="1" stroke-linecap="round"/>
<line x2="100.00000000000001" y2="-2.857142857142847" x1="100.00000000000001" y1="10.0" stroke="#aaa" stroke-width="1" stroke-linecap="round"/>
<line x2="14.404913533436186" y2="72.18847050625472" x1="47.099327293677426" y1="27.18847050625473" stroke="#aaa" stroke-width="1" stroke-linecap="round"/>
<line x2="39.542088335631355" y2="16.786823435719697" x1="47.099327293677426" y1="27.18847050625473" stroke="#aaa" stroke-width="1" stroke-linecap="round"/>
<line x2="2.1770440382127845" y2="68.21539486429111" x1="14.404913533436186" y1="72.18847050625472" stroke="#aaa" stroke-width="1" stroke-linecap="round"/>
<line x2="14.404913533436172" y2="127.81152949374525" x1="14.404913533436186" y1="72.18847050625472" stroke="#aaa" stroke-width="1" stroke-linecap="round"/>
<line x2="2.1770440382127845" y2="131.78460513570886" x1="14.404913533436172" y1="127.81152949374525" stroke="#aaa" stroke-width="1" stroke-linecap="round"/>
<line x2="47.099327293677405" y2="172.81152949374524" x1="14.404913533436172" y1="127.81152949374525" stroke="#aaa" stroke-width="1" stroke-linecap="round"/>
<line x2="99.99999999999997" y2="190.0" x1="47.099327293677405" y1="172.81152949374524" stroke="#aaa" stroke-width="1" stroke-linecap="round"/>
<line x2="39.54208833563133" y2="183.21317656428027" x1="47.099327293677405" y1="172.81152949374524" stroke="#aaa" stroke-width="1" stroke-linecap="round"/>
<line x2="99.99999999999997" y2="202.85714285714283" x1="99.99999999999997" y1="190.0" stroke="#aaa" stroke-width="1" stroke-linecap="round"/>
<line x2="160.45791166436862" y2="183.21317656428033" x1="152.90067270632255" y1="172.8115294937453" stroke="#aaa" stroke-width="1" stroke-linecap="round"/>
<line x2="185.59508646656383" y2="127.8115294937453" x1="152.90067270632255" y1="172.8115294937453" stroke="#aaa" stroke-width="1" stroke-linecap="round"/>
<line x2="185.59508646656383" y2="72.18847050625476" x1="185.59508646656383" y1="127.8115294937453" stroke="#aaa" stroke-width="1" stroke-linecap="round"/>
<line x2="197.82295596178722" y2="131.78460513570892" x1="185.59508646656383" y1="127.8115294937453" stroke="#aaa" stroke-width="1" stroke-linecap="round"/>
<line x2="152.9006727063226" y2="27.188470506254745" x1="185.59508646656383" y1="72.18847050625476" stroke="#aaa" stroke-width="1" stroke-linecap="round"/>
<line x2="197.82295596178722" y2="68.21539486429116" x1="185.59508646656383" y1="72.18847050625476" stroke="#aaa" stroke-width="1" stroke-linecap="round"/>
<line x2="160.45791166436868" y2="16.786823435719725" x1="152.9006727063226" y1="27.188470506254745" stroke="#aaa" stroke-width="1" stroke-linecap="round"/>
</svg>
