<svg viewBox="0 0 110 110" xmlns="http://www.w3.org/2000/svg">
<line x2="10" y2="10" x1="10" y1="20" stroke="#aaa" stroke-width="1" stroke-linecap="round"/>
<line x2="20" y2="10" x1="20" y1="20" stroke="#aaa" stroke-width="1" stroke-linecap="round"/>
<line x2="20" y2="10" x1="30" y1="10" stroke="#aaa" stroke-width="1" stroke-linecap="round"/>
<line x2="10" y2="20" x1="20" y1="20" stroke="#aaa" stroke-width="1" stroke-linecap="round"/>
<line x2="10" y2="20" x1="10" y1="30" stroke="#aaa" stroke-width="1" stroke-linecap="round"/>
<line x2="20" y2="20" x1="20" y1="30" stroke="#aaa" stroke-width="1" stroke-linecap="round"/>
<line x2="20" y2="30" x1="30" y1="30" stroke="#aaa" stroke-width="1" stroke-linecap="round"/>
<line x2="10" y2="40" x1="20" y1="40" stroke="#aaa" stroke-width="1" stroke-linecap="round"/>
<line x2="10" y2="40" x1="10" y1="50" stroke="#aaa" stroke-width="1" stroke-linecap="round"/>
<line x2="20" y2="40" x1="30" y1="40" stroke="#aaa" stroke-width="1" stroke-linecap="round"/>
<line x2="10" y2="50" x1="20" y1="50" stroke="#aaa" stroke-width="1" stroke-linecap="round"/>
<line x2="20" y2="50" x1="30" y1="50" stroke="#aaa" stroke-width="1" stroke-linecap="round"/>
<line x2="10" y2="60" x1="20" y1="60" stroke="#aaa" stroke-width="1" stroke-linecap="round"/>
<line x2="20" y2="60" x1="20" y1="70" stroke="#aaa" stroke-width="1" stroke-linecap="round"/>
<line x2="20" y2="60" x1="30" y1="60" stroke="#aaa" stroke-width="1" stroke-linecap="round"/>
<line x2="10" y2="70" x1="20" y1="70" stroke="#aaa" stroke-width="1" stroke-linecap="round"/>
<line x2="20" y2="70" x1="30" y1="70" stroke="#aaa" stroke-width="1" stroke-linecap="round"/>
<line x2="20" y2="70" x1="20" y1="80" stroke="#aaa" stroke-width="1" stroke-linecap="round"/>
<line x2="10" y2="80" x1="10" y1="90" stroke="#aaa" stroke-width="1" stroke-linecap="round"/>
<line x2="10" y2="80" x1="20" y1="80" stroke="#aaa" stroke-width="1" stroke-linecap="round"/>
<line x2="20" y2="80" x1="30" y1="80" stroke="#aaa" stroke-width="1" stroke-linecap="round"/>
<line x2="10" y2="90" x1="10" y1="100" stroke="#aaa" stroke-width="1" stroke-linecap="round"/>
<line x2="20" y2="90" x1="30" y1="90" stroke="#aaa" stroke-width="1" stroke-linecap="round"/>
<line x2="20" y2="90" x1="20" y1="100" stroke="#aaa" stroke-width="1" stroke-linecap="round"/>
<line x2="30" y2="20" x1="30" y1="30" stroke="#aaa" stroke-width="1" stroke-linecap="round"/>
<line x2="30" y2="30" x1="40" y1="30" stroke="#aaa" stroke-width="1" stroke-linecap="round"/>
<line x2="30" y2="30" x1="30" y1="40" stroke="#aaa" stroke-width="1" stroke-linecap="round"/>
<line x2="30" y2="50" x1="40" y1="50" stroke="#aaa" stroke-width="1" stroke-linecap="round"/>
<line x2="30" y2="50" x1="30" y1="60" stroke="#aaa" stroke-width="1" stroke-linecap="round"/>
<line x2="30" y2="80" x1="40" y1="80" stroke="#aaa" stroke-width="1" stroke-linecap="round"/>
<line x2="30" y2="80" x1="30" y1="90" stroke="#aaa" stroke-width="1" stroke-linecap="round"/>
<line x2="30" y2="90" x1="40" y1="90" stroke="#aaa" stroke-width="1" stroke-linecap="round"/>
<line x2="30" y2="90" x1="30" y1="100" stroke="#aaa" stroke-width="1" stroke-linecap="round"/>
<line x2="40" y2="10" x1="50" y1="10" stroke="#aaa" stroke-width="1" stroke-linecap="round"/>
<line x2="40" y2="10" x1="40" y1="20" stroke="#aaa" stroke-width="1" stroke-linecap="round"/>
<line x2="40" y2="20" x1="40" y1="30" stroke="#aaa" stroke-width="1" stroke-linecap="round"/>
<line x2="40" y2="30" x1="50" y1="30" stroke="#aaa" stroke-width="1" stroke-linecap="round"/>
<line x2="40" y2="40" x1="40" y1="50" stroke="#aaa" stroke-width="1" stroke-linecap="round"/>
<line x2="40" y2="40" x1="50" y1="40" stroke="#aaa" stroke-width="1" stroke-linecap="round"/>
<line x2="40" y2="60" x1="50" y1="60" stroke="#aaa" stroke-width="1" stroke-linecap="round"/>
<line x2="40" y2="70" x1="50" y1="70" stroke="#aaa" stroke-width="1" stroke-linecap="round"/>
<line x2="40" y2="80" x1="50" y1="80" stroke="#aaa" stroke-width="1" stroke-linecap="round"/>
<line x2="40" y2="90" x1="40" y1="100" stroke="#aaa" stroke-width="1" stroke-linecap="round"/>
<line x2="50" y2="10" x1="50" y1="20" stroke="#aaa" stroke-width="1" stroke-linecap="round"/>
<line x2="50" y2="10" x1="60" y1="10" stroke="#aaa" stroke-width="1" stroke-linecap="round"/>
<line x2="50" y2="50" x1="50" y1="60" stroke="#aaa" stroke-width="1" stroke-linecap="round"/>
<line x2="50" y2="60" x1="50" y1="70" stroke="#aaa" stroke-width="1" stroke-linecap="round"/>
<line x2="50" y2="60" x1="60" y1="60" stroke="#aaa" stroke-width="1" stroke-linecap="round"/>
<line x2="50" y2="70" x1="60" y1="70" stroke="#aaa" stroke-width="1" stroke-linecap="round"/>
<line x2="50" y2="80" x1="60" y1="80" stroke="#aaa" stroke-width="1" stroke-linecap="round"/>
<line x2="50" y2="80" x1="50" y1="90" stroke="#aaa" stroke-width="1" stroke-linecap="round"/>
<line x2="50" y2="90" x1="50" y1="100" stroke="#aaa" stroke-width="1" stroke-linecap="round"/>
<line x2="60" y2="20" x1="70" y1="20" stroke="#aaa" stroke-width="1" stroke-linecap="round"/>
<line x2="60" y2="30" x1="60" y1="40" stroke="#aaa" stroke-width="1" stroke-linecap="round"/>
<line x2="60" y2="40" x1="70" y1="40" stroke="#aaa" stroke-width="1" stroke-linecap="round"/>
<line x2="60" y2="50" x1="60" y1="60" stroke="#aaa" stroke-width="1" stroke-linecap="round"/>
<line x2="60" y2="70" x1="60" y1="80" stroke="#aaa" stroke-width="1" stroke-linecap="round"/>
<line x2="60" y2="70" x1="70" y1="70" stroke="#aaa" stroke-width="1" stroke-linecap="round"/>
<line x2="60" y2="80" x1="60" y1="90" stroke="#aaa" stroke-width="1" stroke-linecap="round"/>
<line x2="60" y2="90" x1="60" y1="100" stroke="#aaa" stroke-width="1" stroke-linecap="round"/>
<line x2="70" y2="10" x1="80" y1="10" stroke="#aaa" stroke-width="1" stroke-linecap="round"/>
<line x2="70" y2="20" x1="70" y1="30" stroke="#aaa" stroke-width="1" stroke-linecap="round"/>
<line x2="70" y2="30" x1="70" y1="40" stroke="#aaa" stroke-width="1" stroke-linecap="round"/>
<line x2="70" y2="40" x1="70" y1="50" stroke="#aaa" stroke-width="1" stroke-linecap="round"/>
<line x2="70" y2="40" x1="80" y1="40" stroke="#aaa" stroke-width="1" stroke-linecap="round"/>
<line x2="70" y2="50" x1="80" y1="50" stroke="#aaa" stroke-width="1" stroke-linecap="round"/>
<line x2="70" y2="50" x1="70" y1="60" stroke="#aaa" stroke-width="1" stroke-linecap="round"/>
<line x2="70" y2="60" x1="70" y1="70" stroke="#aaa" stroke-width="1" stroke-linecap="round"/>
<line x2="70" y2="70" x1="80" y1="70" stroke="#aaa" stroke-width="1" stroke-linecap="round"/>
<line x2="70" y2="80" x1="70" y1="90" stroke="#aaa" stroke-width="1" stroke-linecap="round"/>
<line x2="70" y2="80" x1="80" y1="80" stroke="#aaa" stroke-width="1" stroke-linecap="round"/>
<line x2="70" y2="90" x1="70" y1="100" stroke="#aaa" stroke-width="1" stroke-linecap="round"/>
<line x2="70" y2="90" x1="80" y1="90" stroke="#aaa" stroke-width="1" stroke-linecap="round"/>
<line x2="80" y2="10" x1="90" y1="10" stroke="#aaa" stroke-width="1" stroke-linecap="round"/>
<line x2="80" y2="10" x1="80" y1="20" stroke="#aaa" stroke-width="1" stroke-linecap="round"/>
<line x2="80" y2="20" x1="90" y1="20" stroke="#aaa" stroke-width="1" stroke-linecap="round"/>
<line x2="80" y2="30" x1="90" y1="30" stroke="#aaa" stroke-width="1" stroke-linecap="round"/>
<line x2="80" y2="50" x1="90" y1="50" stroke="#aaa" stroke-width="1" stroke-linecap="round"/>
<line x2="80" y2="60" x1="80" y1="70" stroke="#aaa" stroke-width="1" stroke-linecap="round"/>
<line x2="80" y2="70" x1="80" y1="80" stroke="#aaa" stroke-width="1" stroke-linecap="round"/>
<line x2="80" y2="90" x1="80" y1="100" stroke="#aaa" stroke-width="1" stroke-linecap="round"/>
<line x2="90" y2="10" x1="100" y1="10" stroke="#aaa" stroke-width="1" stroke-linecap="round"/>
<line x2="90" y2="20" x1="100" y1="20" stroke="#aaa" stroke-width="1" stroke-linecap="round"/>
<line x2="90" y2="20" x1="90" y1="30" stroke="#aaa" stroke-width="1" stroke-linecap="round"/>
<line x2="90" y2="30" x1="90" y1="40" stroke="#aaa" stroke-width="1" stroke-linecap="round"/>
<line x2="90" y2="30" x1="100" y1="30" stroke="#aaa" stroke-width="1" stroke-linecap="round"/>
<line x2="90" y2="40" x1="90" y1="50" stroke="#aaa" stroke-width="1" stroke-linecap="round"/>
<line x2="90" y2="40" x1="100" y1="40" stroke="#aaa" stroke-width="1" stroke-linecap="round"/>
<line x2="90" y2="50" x1="100" y1="50" stroke="#aaa" stroke-width="1" stroke-linecap="round"/>
<line x2="90" y2="50" x1="90" y1="60" stroke="#aaa" stroke-width="1" stroke-linecap="round"/>
<line x2="90" y2="60" x1="100" y1="60" stroke="#aaa" stroke-width="1" stroke-linecap="round"/>
<line x2="90" y2="60" x1="90" y1="70" stroke="#aaa" stroke-width="1" stroke-linecap="round"/>
<line x2="90" y2="70" x1="100" y1="70" stroke="#aaa" stroke-width="1" stroke-linecap="round"/>
<line x2="90" y2="70" x1="90" y1="80" stroke="#aaa" stroke-width="1" stroke-linecap="round"/>
<line x2="90" y2="80" x1="90" y1="90" stroke="#aaa" stroke-width="1" stroke-linecap="round"/>
<line x2="90" y2="80" x1="100" y1="80" stroke="#aaa" stroke-width="1" stroke-linecap="round"/>
<line x2="90" y2="90" x1="90" y1="100" stroke="#aaa" stroke-width="1" stroke-linecap="round"/>
<line x2="90" y2="90" x1="100" y1="90" stroke="#aaa" stroke-width="1" stroke-linecap="round"/>
</svg>
