<svg viewBox="0 0 200 200" xmlns="http://www.w3.org/2000/svg">
<line x2="93.57142857142857" y2="88.86538766562865" x1="100.0" y1="87.14285714285714" stroke="#aaa" stroke-width="1" stroke-linecap="round"/>
<line x2="88.86538766562865" y2="93.57142857142857" x1="93.57142857142857" y1="88.86538766562865" stroke="#aaa" stroke-width="1" stroke-linecap="round"/>
<line x2="100" y2="100" x1="88.86538766562865" y1="106.42857142857142" stroke="#aaa" stroke-width="1" stroke-linecap="round"/>
<line x2="100" y2="100" x1="122.2692246687427" y1="112.85714285714288" stroke="#aaa" stroke-width="1" stroke-linecap="round"/>
<line x2="100" y2="100" x1="100.0" y1="74.28571428571429" stroke="#aaa" stroke-width="1" stroke-linecap="round"/>
<line x2="100" y2="100" x1="87.14285714285714" y1="100.0" stroke="#aaa" stroke-width="1" stroke-linecap="round"/>
<line x2="100" y2="100" x1="100.0" y1="112.85714285714286" stroke="#aaa" stroke-width="1" stroke-linecap="round"/>
<line x2="100" y2="100" x1="133.40383700311406" y1="80.7142857142857" stroke="#aaa" stroke-width="1" stroke-linecap="round"/>
<line x2="100" y2="100" x1="111.13461233437135" y1="106.42857142857143" stroke="#aaa" stroke-width="1" stroke-linecap="round"/>
<line x2="100" y2="100" x1="88.86538766562865" y1="93.57142857142857" stroke="#aaa" stroke-width="1" stroke-linecap="round"/>
<line x2="100" y2="100" x1="66.59616299688592" y1="119.28571428571425" stroke="#aaa" stroke-width="1" stroke-linecap="round"/>
<line x2="100" y2="100" x1="166.8076740062281" y1="138.5714285714286" stroke="#aaa" stroke-width="1" stroke-linecap="round"/>
<line x2="100" y2="100" x1="61.428571428571445" y1="33.19232599377186" stroke="#aaa" stroke-width="1" stroke-linecap="round"/>
<line x2="100" y2="100" x1="112.85714285714286" y1="100.0" stroke="#aaa" stroke-width="1" stroke-linecap="round"/>
<line x2="100" y2="100" x1="100.0" y1="61.42857142857143" stroke="#aaa" stroke-width="1" stroke-linecap="round"/>
<line x2="100" y2="100" x1="99.99999999999999" y1="177.14285714285714" stroke="#aaa" stroke-width="1" stroke-linecap="round"/>
<line x2="100" y2="100" x1="132.14285714285714" y1="44.326938328143214" stroke="#aaa" stroke-width="1" stroke-linecap="round"/>
<line x2="100" y2="100" x1="100.0" y1="48.57142857142858" stroke="#aaa" stroke-width="1" stroke-linecap="round"/>
<line x2="100" y2="100" x1="55.46155066251457" y1="125.71428571428568" stroke="#aaa" stroke-width="1" stroke-linecap="round"/>
<line x2="100" y2="100" x1="93.57142857142858" y1="111.13461233437135" stroke="#aaa" stroke-width="1" stroke-linecap="round"/>
<line x2="100" y2="100" x1="55.461550662514604" y1="74.28571428571426" stroke="#aaa" stroke-width="1" stroke-linecap="round"/>
<line x2="100" y2="100" x1="144.5384493374854" y1="125.71428571428574" stroke="#aaa" stroke-width="1" stroke-linecap="round"/>
<line x2="100" y2="100" x1="166.8076740062281" y1="61.42857142857138" stroke="#aaa" stroke-width="1" stroke-linecap="round"/>
<line x2="100" y2="100" x1="35.71428571428571" y1="99.99999999999999" stroke="#aaa" stroke-width="1" stroke-linecap="round"/>
<line x2="100" y2="100" x1="74.2857142857143" y1="55.46155066251458" stroke="#aaa" stroke-width="1" stroke-linecap="round"/>
<line x2="100" y2="100" x1="74.2857142857143" y1="144.53844933748542" stroke="#aaa" stroke-width="1" stroke-linecap="round"/>
<line x2="100" y2="100" x1="66.59616299688595" y1="80.7142857142857" stroke="#aaa" stroke-width="1" stroke-linecap="round"/>
<line x2="100" y2="100" x1="67.85714285714286" y1="44.326938328143214" stroke="#aaa" stroke-width="1" stroke-linecap="round"/>
<line x2="100" y2="100" x1="77.73077533125729" y1="112.85714285714283" stroke="#aaa" stroke-width="1" stroke-linecap="round"/>
<line x2="100" y2="100" x1="77.7307753312573" y1="87.14285714285714" stroke="#aaa" stroke-width="1" stroke-linecap="round"/>
<line x2="100" y2="100" x1="44.3269383281432" y1="132.1428571428571" stroke="#aaa" stroke-width="1" stroke-linecap="round"/>
<line x2="100" y2="100" x1="106.42857142857143" y1="111.13461233437135" stroke="#aaa" stroke-width="1" stroke-linecap="round"/>
<line x2="111.13461233437135" y2="93.57142857142857" x1="112.85714285714286" y1="100.0" stroke="#aaa" stroke-width="1" stroke-linecap="round"/>
<line x2="106.42857142857143" y2="88.86538766562865" x1="111.13461233437135" y1="93.57142857142857" stroke="#aaa" stroke-width="1" stroke-linecap="round"/>
<line x2="112.85714285714285" y2="77.73077533125729" x1="100.0" y1="74.28571428571429" stroke="#aaa" stroke-width="1" stroke-linecap="round"/>
<line x2="77.7307753312573" y2="87.14285714285714" x1="87.14285714285715" y1="77.73077533125729" stroke="#aaa" stroke-width="1" stroke-linecap="round"/>
<line x2="77.73077533125729" y2="112.85714285714283" x1="74.28571428571429" y1="100.0" stroke="#aaa" stroke-width="1" stroke-linecap="round"/>
<line x2="100.0" y2="125.71428571428571" x1="87.14285714285715" y1="122.26922466874271" stroke="#aaa" stroke-width="1" stroke-linecap="round"/>
<line x2="112.85714285714286" y2="122.26922466874271" x1="100.0" y1="125.71428571428571" stroke="#aaa" stroke-width="1" stroke-linecap="round"/>
<line x2="122.2692246687427" y2="112.85714285714288" x1="112.85714285714286" y1="122.26922466874271" stroke="#aaa" stroke-width="1" stroke-linecap="round"/>
<line x2="125.71428571428571" y2="100.00000000000001" x1="122.2692246687427" y1="112.85714285714288" stroke="#aaa" stroke-width="1" stroke-linecap="round"/>
<line x2="122.2692246687427" y2="87.14285714285712" x1="125.71428571428571" y1="100.00000000000001" stroke="#aaa" stroke-width="1" stroke-linecap="round"/>
<line x2="80.71428571428572" y2="66.59616299688594" x1="100.0" y1="61.42857142857143" stroke="#aaa" stroke-width="1" stroke-linecap="round"/>
<line x2="119.28571428571428" y2="66.59616299688594" x1="100.0" y1="61.42857142857143" stroke="#aaa" stroke-width="1" stroke-linecap="round"/>
<line x2="66.59616299688592" y2="119.28571428571425" x1="61.42857142857143" y1="100.0" stroke="#aaa" stroke-width="1" stroke-linecap="round"/>
<line x2="80.71428571428572" y2="133.40383700311406" x1="66.59616299688592" y1="119.28571428571425" stroke="#aaa" stroke-width="1" stroke-linecap="round"/>
<line x2="99.99999999999999" y2="138.57142857142856" x1="80.71428571428572" y1="133.40383700311406" stroke="#aaa" stroke-width="1" stroke-linecap="round"/>
<line x2="119.28571428571428" y2="133.40383700311406" x1="99.99999999999999" y1="138.57142857142856" stroke="#aaa" stroke-width="1" stroke-linecap="round"/>
<line x2="133.40383700311406" y2="119.2857142857143" x1="119.28571428571428" y1="133.40383700311406" stroke="#aaa" stroke-width="1" stroke-linecap="round"/>
<line x2="133.40383700311406" y2="80.7142857142857" x1="138.57142857142856" y1="100.00000000000001" stroke="#aaa" stroke-width="1" stroke-linecap="round"/>
<line x2="125.7142857142857" y2="55.46155066251458" x1="100.0" y1="48.57142857142858" stroke="#aaa" stroke-width="1" stroke-linecap="round"/>
<line x2="55.46155066251457" y2="125.71428571428568" x1="48.57142857142858" y1="99.99999999999999" stroke="#aaa" stroke-width="1" stroke-linecap="round"/>
<line x2="99.99999999999999" y2="151.42857142857142" x1="74.2857142857143" y1="144.53844933748542" stroke="#aaa" stroke-width="1" stroke-linecap="round"/>
<line x2="125.71428571428571" y2="144.53844933748542" x1="99.99999999999999" y1="151.42857142857142" stroke="#aaa" stroke-width="1" stroke-linecap="round"/>
<line x2="151.42857142857142" y2="100.00000000000001" x1="144.5384493374854" y1="125.71428571428574" stroke="#aaa" stroke-width="1" stroke-linecap="round"/>
<line x2="144.5384493374854" y2="74.28571428571425" x1="151.42857142857142" y1="100.00000000000001" stroke="#aaa" stroke-width="1" stroke-linecap="round"/>
<line x2="132.14285714285714" y2="44.326938328143214" x1="100.00000000000001" y1="35.71428571428571" stroke="#aaa" stroke-width="1" stroke-linecap="round"/>
<line x2="44.32693832814324" y2="67.85714285714283" x1="67.85714285714286" y1="44.326938328143214" stroke="#aaa" stroke-width="1" stroke-linecap="round"/>
<line x2="67.85714285714288" y2="155.67306167185677" x1="44.3269383281432" y1="132.1428571428571" stroke="#aaa" stroke-width="1" stroke-linecap="round"/>
<line x2="99.99999999999999" y2="164.28571428571428" x1="67.85714285714288" y1="155.67306167185677" stroke="#aaa" stroke-width="1" stroke-linecap="round"/>
<line x2="132.14285714285714" y2="155.67306167185677" x1="99.99999999999999" y1="164.28571428571428" stroke="#aaa" stroke-width="1" stroke-linecap="round"/>
<line x2="155.67306167185677" y2="132.14285714285717" x1="132.14285714285714" y1="155.67306167185677" stroke="#aaa" stroke-width="1" stroke-linecap="round"/>
<line x2="155.67306167185674" y2="67.8571428571428" x1="164.28571428571428" y1="100.00000000000001" stroke="#aaa" stroke-width="1" stroke-linecap="round"/>
<line x2="132.14285714285714" y2="44.326938328143214" x1="155.67306167185674" y1="67.8571428571428" stroke="#aaa" stroke-width="1" stroke-linecap="round"/>
<line x2="61.428571428571445" y2="33.19232599377186" x1="100.00000000000001" y1="22.85714285714286" stroke="#aaa" stroke-width="1" stroke-linecap="round"/>
<line x2="33.1923259937719" y2="61.428571428571395" x1="61.428571428571445" y1="33.19232599377186" stroke="#aaa" stroke-width="1" stroke-linecap="round"/>
<line x2="33.192325993771846" y2="138.5714285714285" x1="22.85714285714286" y1="99.99999999999999" stroke="#aaa" stroke-width="1" stroke-linecap="round"/>
<line x2="61.42857142857146" y2="166.80767400622813" x1="33.192325993771846" y1="138.5714285714285" stroke="#aaa" stroke-width="1" stroke-linecap="round"/>
<line x2="99.99999999999999" y2="177.14285714285714" x1="61.42857142857146" y1="166.80767400622813" stroke="#aaa" stroke-width="1" stroke-linecap="round"/>
<line x2="166.8076740062281" y2="138.5714285714286" x1="138.57142857142856" y1="166.80767400622813" stroke="#aaa" stroke-width="1" stroke-linecap="round"/>
<line x2="177.14285714285714" y2="100.00000000000003" x1="166.8076740062281" y1="138.5714285714286" stroke="#aaa" stroke-width="1" stroke-linecap="round"/>
<line x2="138.57142857142856" y2="33.19232599377186" x1="166.8076740062281" y1="61.42857142857138" stroke="#aaa" stroke-width="1" stroke-linecap="round"/>
<line x2="144.99999999999997" y2="22.057713659400505" x1="100.00000000000001" y1="10.0" stroke="#aaa" stroke-width="1" stroke-linecap="round"/>
<line x2="100.00000000000001" y2="-2.857142857142847" x1="100.00000000000001" y1="10.0" stroke="#aaa" stroke-width="1" stroke-linecap="round"/>
<line x2="55.00000000000002" y2="22.057713659400505" x1="100.00000000000001" y1="10.0" stroke="#aaa" stroke-width="1" stroke-linecap="round"/>
<line x2="22.057713659400548" y2="54.99999999999996" x1="55.00000000000002" y1="22.057713659400505" stroke="#aaa" stroke-width="1" stroke-linecap="round"/>
<line x2="48.5714285714286" y2="10.923101325029165" x1="55.00000000000002" y1="22.057713659400505" stroke="#aaa" stroke-width="1" stroke-linecap="round"/>
<line x2="10.923101325029208" y2="48.571428571428534" x1="22.057713659400548" y1="54.99999999999996" stroke="#aaa" stroke-width="1" stroke-linecap="round"/>
<line x2="10.0" y2="99.99999999999999" x1="22.057713659400548" y1="54.99999999999996" stroke="#aaa" stroke-width="1" stroke-linecap="round"/>
<line x2="22.05771365940049" y2="144.99999999999994" x1="10.0" y1="99.99999999999999" stroke="#aaa" stroke-width="1" stroke-linecap="round"/>
<line x2="-2.857142857142847" y2="99.99999999999999" x1="10.0" y1="99.99999999999999" stroke="#aaa" stroke-width="1" stroke-linecap="round"/>
<line x2="10.923101325029137" y2="151.42857142857136" x1="22.05771365940049" y1="144.99999999999994" stroke="#aaa" stroke-width="1" stroke-linecap="round"/>
<line x2="55.00000000000003" y2="177.94228634059948" x1="22.05771365940049" y1="144.99999999999994" stroke="#aaa" stroke-width="1" stroke-linecap="round"/>
<line x2="48.57142857142861" y2="189.07689867497083" x1="55.00000000000003" y1="177.94228634059948" stroke="#aaa" stroke-width="1" stroke-linecap="round"/>
<line x2="99.99999999999997" y2="202.85714285714283" x1="99.99999999999997" y1="190.0" stroke="#aaa" stroke-width="1" stroke-linecap="round"/>
<line x2="145.0" y2="177.94228634059948" x1="99.99999999999997" y1="190.0" stroke="#aaa" stroke-width="1" stroke-linecap="round"/>
<line x2="151.42857142857142" y2="189.07689867497083" x1="145.0" y1="177.94228634059948" stroke="#aaa" stroke-width="1" stroke-linecap="round"/>
<line x2="177.94228634059945" y2="145.00000000000006" x1="145.0" y1="177.94228634059948" stroke="#aaa" stroke-width="1" stroke-linecap="round"/>
<line x2="189.07689867497078" y2="151.42857142857147" x1="177.94228634059945" y1="145.00000000000006" stroke="#aaa" stroke-width="1" stroke-linecap="round"/>
<line x2="190.0" y2="100.00000000000003" x1="177.94228634059945" y1="145.00000000000006" stroke="#aaa" stroke-width="1" stroke-linecap="round"/>
<line x2="202.85714285714283" y2="100.00000000000003" x1="190.0" y1="100.00000000000003" stroke="#aaa" stroke-width="1" stroke-linecap="round"/>
<line x2="177.94228634059942" y2="54.99999999999994" x1="190.0" y1="100.00000000000003" stroke="#aaa" stroke-width="1" stroke-linecap="round"/>
<line x2="189.07689867497078" y2="48.571428571428505" x1="177.94228634059942" y1="54.99999999999994" stroke="#aaa" stroke-width="1" stroke-linecap="round"/>
<line x2="144.99999999999997" y2="22.057713659400505" x1="177.94228634059942" y1="54.99999999999994" stroke="#aaa" stroke-width="1" stroke-linecap="round"/>
<line x2="151.4285714285714" y2="10.923101325029165" x1="144.99999999999997" y1="22.057713659400505" stroke="#aaa" stroke-width="1" stroke-linecap="round"/>
</svg>
