<svg viewBox="0 0 200 200" xmlns="http://www.w3.org/2000/svg">
<line x2="100" y2="100" x1="100.0" y1="70.0" stroke="#aaa" stroke-width="1" stroke-linecap="round"/>
<line x2="82.3664424312258" y2="75.72949016875157" x1="100.0" y1="70.0" stroke="#aaa" stroke-width="1" stroke-linecap="round"/>
<line x2="100" y2="100" x1="42.93660902229078" y1="118.54101966249684" stroke="#aaa" stroke-width="1" stroke-linecap="round"/>
<line x2="100" y2="100" x1="117.6335575687742" y1="75.72949016875158" stroke="#aaa" stroke-width="1" stroke-linecap="round"/>
<line x2="100" y2="100" x1="157.06339097770922" y1="81.45898033750318" stroke="#aaa" stroke-width="1" stroke-linecap="round"/>
<line x2="100" y2="100" x1="117.6335575687742" y1="124.27050983124843" stroke="#aaa" stroke-width="1" stroke-linecap="round"/>
<line x2="100" y2="100" x1="64.73288486245161" y1="51.45898033750315" stroke="#aaa" stroke-width="1" stroke-linecap="round"/>
<line x2="100" y2="100" x1="100.00000000000001" y1="40.0" stroke="#aaa" stroke-width="1" stroke-linecap="round"/>
<line x2="100" y2="100" x1="71.46830451114539" y1="90.72949016875157" stroke="#aaa" stroke-width="1" stroke-linecap="round"/>
<line x2="100" y2="100" x1="82.3664424312258" y1="124.27050983124842" stroke="#aaa" stroke-width="1" stroke-linecap="round"/>
<line x2="100" y2="100" x1="42.93660902229079" y1="81.45898033750315" stroke="#aaa" stroke-width="1" stroke-linecap="round"/>
<line x2="82.3664424312258" y2="124.27050983124842" x1="71.46830451114539" y1="109.27050983124842" stroke="#aaa" stroke-width="1" stroke-linecap="round"/>
<line x2="99.99999999999999" y2="130.0" x1="82.3664424312258" y1="124.27050983124842" stroke="#aaa" stroke-width="1" stroke-linecap="round"/>
<line x2="128.5316954888546" y2="90.72949016875158" x1="128.5316954888546" y1="109.27050983124843" stroke="#aaa" stroke-width="1" stroke-linecap="round"/>
<line x2="117.6335575687742" y2="75.72949016875158" x1="128.5316954888546" y1="90.72949016875158" stroke="#aaa" stroke-width="1" stroke-linecap="round"/>
<line x2="135.2671151375484" y2="51.458980337503164" x1="100.00000000000001" y1="40.0" stroke="#aaa" stroke-width="1" stroke-linecap="round"/>
<line x2="64.73288486245161" y2="148.54101966249684" x1="42.93660902229078" y1="118.54101966249684" stroke="#aaa" stroke-width="1" stroke-linecap="round"/>
<line x2="99.99999999999999" y2="160.0" x1="64.73288486245161" y1="148.54101966249684" stroke="#aaa" stroke-width="1" stroke-linecap="round"/>
<line x2="157.06339097770922" y2="118.54101966249686" x1="135.2671151375484" y1="148.54101966249686" stroke="#aaa" stroke-width="1" stroke-linecap="round"/>
<line x2="157.06339097770922" y2="81.45898033750318" x1="157.06339097770922" y1="118.54101966249686" stroke="#aaa" stroke-width="1" stroke-linecap="round"/>
<line x2="152.9006727063226" y2="27.188470506254745" x1="100.00000000000001" y1="10.0" stroke="#aaa" stroke-width="1" stroke-linecap="round"/>
<line x2="47.099327293677426" y2="27.18847050625473" x1="100.00000000000001" y1="10.0" stroke="#aaa" stroke-width="1" stroke-linecap="round"/>
<line x2="100.00000000000001" y2="-20.0" x1="100.00000000000001" y1="10.0" stroke="#aaa" stroke-width="1" stroke-linecap="round"/>
<line x2="14.404913533436186" y2="72.18847050625472" x1="47.099327293677426" y1="27.18847050625473" stroke="#aaa" stroke-width="1" stroke-linecap="round"/>
<line x2="29.46576972490324" y2="2.9179606750062987" x1="47.099327293677426" y1="27.18847050625473" stroke="#aaa" stroke-width="1" stroke-linecap="round"/>
<line x2="14.404913533436172" y2="127.81152949374525" x1="14.404913533436186" y1="72.18847050625472" stroke="#aaa" stroke-width="1" stroke-linecap="round"/>
<line x2="-14.126781955418423" y2="62.91796067500629" x1="14.404913533436186" y1="72.18847050625472" stroke="#aaa" stroke-width="1" stroke-linecap="round"/>
<line x2="-14.126781955418437" y2="137.08203932499367" x1="14.404913533436172" y1="127.81152949374525" stroke="#aaa" stroke-width="1" stroke-linecap="round"/>
<line x2="47.099327293677405" y2="172.81152949374524" x1="14.404913533436172" y1="127.81152949374525" stroke="#aaa" stroke-width="1" stroke-linecap="round"/>
<line x2="99.99999999999997" y2="190.0" x1="47.099327293677405" y1="172.81152949374524" stroke="#aaa" stroke-width="1" stroke-linecap="round"/>
<line x2="29.46576972490321" y2="197.08203932499367" x1="47.099327293677405" y1="172.81152949374524" stroke="#aaa" stroke-width="1" stroke-linecap="round"/>
<line x2="152.90067270632255" y2="172.8115294937453" x1="99.99999999999997" y1="190.0" stroke="#aaa" stroke-width="1" stroke-linecap="round"/>
<line x2="99.99999999999997" y2="220.0" x1="99.99999999999997" y1="190.0" stroke="#aaa" stroke-width="1" stroke-linecap="round"/>
<line x2="185.59508646656383" y2="127.8115294937453" x1="152.90067270632255" y1="172.8115294937453" stroke="#aaa" stroke-width="1" stroke-linecap="round"/>
<line x2="170.53423027509675" y2="197.0820393249937" x1="152.90067270632255" y1="172.8115294937453" stroke="#aaa" stroke-width="1" stroke-linecap="round"/>
<line x2="185.59508646656383" y2="72.18847050625476" x1="185.59508646656383" y1="127.8115294937453" stroke="#aaa" stroke-width="1" stroke-linecap="round"/>
<line x2="214.1267819554184" y2="137.08203932499373" x1="185.59508646656383" y1="127.8115294937453" stroke="#aaa" stroke-width="1" stroke-linecap="round"/>
<line x2="214.12678195541844" y2="62.91796067500635" x1="185.59508646656383" y1="72.18847050625476" stroke="#aaa" stroke-width="1" stroke-linecap="round"/>
<line x2="170.5342302750968" y2="2.917960675006327" x1="152.9006727063226" y1="27.188470506254745" stroke="#aaa" stroke-width="1" stroke-linecap="round"/>
</svg>
