<svg viewBox="0 0 200 200" xmlns="http://www.w3.org/2000/svg">
<line x2="62.822146236498526" y2="29.163517947743202" x1="100.00000000000001" y1="20.0" stroke="#aaa" stroke-width="1" stroke-linecap="round"/>
<line x2="100" y2="100" x1="100.00000000000001" y1="20.0" stroke="#aaa" stroke-width="1" stroke-linecap="round"/>
<line x2="34.161290728507495" y2="54.55482026150753" x1="62.822146236498526" y1="29.163517947743202" stroke="#aaa" stroke-width="1" stroke-linecap="round"/>
<line x2="100" y2="100" x1="92.82053007137327" y1="129.12825452278156" stroke="#aaa" stroke-width="1" stroke-linecap="round"/>
<line x2="100" y2="100" x1="100.0" y1="60.0" stroke="#aaa" stroke-width="1" stroke-linecap="round"/>
<line x2="100" y2="100" x1="53.58141392314431" y1="152.39575237197707" stroke="#aaa" stroke-width="1" stroke-linecap="round"/>
<line x2="100" y2="100" x1="107.17946992862672" y1="129.12825452278156" stroke="#aaa" stroke-width="1" stroke-linecap="round"/>
<line x2="100" y2="100" x1="25.19870058516682" y1="128.36839096340285" stroke="#aaa" stroke-width="1" stroke-linecap="round"/>
<line x2="100" y2="100" x1="53.24918786572926" y1="117.73024435212677" stroke="#aaa" stroke-width="1" stroke-linecap="round"/>
<line x2="100" y2="100" x1="34.54886301202096" y1="124.8223420929775" stroke="#aaa" stroke-width="1" stroke-linecap="round"/>
<line x2="100" y2="100" x1="119.14525314300458" y1="177.67534539408416" stroke="#aaa" stroke-width="1" stroke-linecap="round"/>
<line x2="100" y2="100" x1="50.62096804638062" y1="65.91611519613065" stroke="#aaa" stroke-width="1" stroke-linecap="round"/>
<line x2="100" y2="100" x1="127.88339032262611" y1="46.87263846080741" stroke="#aaa" stroke-width="1" stroke-linecap="round"/>
<line x2="100" y2="100" x1="137.4006497074166" y1="114.18419548170144" stroke="#aaa" stroke-width="1" stroke-linecap="round"/>
<line x2="100" y2="100" x1="46.950187340736356" y1="159.88085985368807" stroke="#aaa" stroke-width="1" stroke-linecap="round"/>
<line x2="100" y2="100" x1="159.56253244588322" y1="92.76779918468061" stroke="#aaa" stroke-width="1" stroke-linecap="round"/>
<line x2="100" y2="100" x1="90.42737342849769" y1="138.83767269704208" stroke="#aaa" stroke-width="1" stroke-linecap="round"/>
<line x2="100" y2="100" x1="146.41858607685566" y1="152.39575237197707" stroke="#aaa" stroke-width="1" stroke-linecap="round"/>
<line x2="100" y2="100" x1="58.85080670531718" y1="71.5967626634422" stroke="#aaa" stroke-width="1" stroke-linecap="round"/>
<line x2="100" y2="100" x1="119.89367974722386" y1="122.45532244513304" stroke="#aaa" stroke-width="1" stroke-linecap="round"/>
<line x2="100" y2="100" x1="129.7812662229416" y1="96.38389959234031" stroke="#aaa" stroke-width="1" stroke-linecap="round"/>
<line x2="100" y2="100" x1="123.23615860218842" y1="55.727198717339505" stroke="#aaa" stroke-width="1" stroke-linecap="round"/>
<line x2="100" y2="100" x1="179.41670992784432" y1="90.35706557957415" stroke="#aaa" stroke-width="1" stroke-linecap="round"/>
<line x2="100" y2="100" x1="109.5726265715023" y1="138.83767269704208" stroke="#aaa" stroke-width="1" stroke-linecap="round"/>
<line x2="100" y2="100" x1="100.0" y1="50.0" stroke="#aaa" stroke-width="1" stroke-linecap="round"/>
<line x2="100" y2="100" x1="86.05830483868695" y1="73.43631923040371" stroke="#aaa" stroke-width="1" stroke-linecap="round"/>
<line x2="100" y2="100" x1="132.91935463574623" y1="77.27741013075375" stroke="#aaa" stroke-width="1" stroke-linecap="round"/>
<line x2="100" y2="100" x1="174.80129941483318" y1="128.36839096340287" stroke="#aaa" stroke-width="1" stroke-linecap="round"/>
<line x2="100" y2="100" x1="146.75081213427075" y1="117.7302443521268" stroke="#aaa" stroke-width="1" stroke-linecap="round"/>
<line x2="100" y2="100" x1="165.45113698797903" y1="124.82234209297752" stroke="#aaa" stroke-width="1" stroke-linecap="round"/>
<line x2="100" y2="100" x1="67.08064536425374" y1="77.27741013075376" stroke="#aaa" stroke-width="1" stroke-linecap="round"/>
<line x2="100" y2="100" x1="100.00000000000001" y1="40.0" stroke="#aaa" stroke-width="1" stroke-linecap="round"/>
<line x2="100" y2="100" x1="85.64106014274654" y1="158.25650904556312" stroke="#aaa" stroke-width="1" stroke-linecap="round"/>
<line x2="100" y2="100" x1="20.583290072155677" y1="90.35706557957418" stroke="#aaa" stroke-width="1" stroke-linecap="round"/>
<line x2="100" y2="100" x1="70.21873377705838" y1="96.38389959234031" stroke="#aaa" stroke-width="1" stroke-linecap="round"/>
<line x2="100" y2="100" x1="149.37903195361937" y1="65.91611519613063" stroke="#aaa" stroke-width="1" stroke-linecap="round"/>
<line x2="100" y2="100" x1="132.5306220430638" y1="38.018078204275305" stroke="#aaa" stroke-width="1" stroke-linecap="round"/>
<line x2="100" y2="100" x1="73.47509367036818" y1="129.94042992684405" stroke="#aaa" stroke-width="1" stroke-linecap="round"/>
<line x2="100" y2="100" x1="40.43746755411676" y1="92.76779918468064" stroke="#aaa" stroke-width="1" stroke-linecap="round"/>
<line x2="100" y2="100" x1="137.17785376350147" y1="29.163517947743202" stroke="#aaa" stroke-width="1" stroke-linecap="round"/>
<line x2="100" y2="100" x1="165.8387092714925" y1="54.55482026150751" stroke="#aaa" stroke-width="1" stroke-linecap="round"/>
<line x2="100" y2="100" x1="50.364556295097294" y1="93.97316598723387" stroke="#aaa" stroke-width="1" stroke-linecap="round"/>
<line x2="100" y2="100" x1="139.7873594944477" y1="144.91064489026607" stroke="#aaa" stroke-width="1" stroke-linecap="round"/>
<line x2="100" y2="100" x1="30.510378813136214" y1="91.56243238212741" stroke="#aaa" stroke-width="1" stroke-linecap="round"/>
<line x2="119.14525314300458" y2="177.67534539408416" x1="80.85474685699538" y1="177.67534539408416" stroke="#aaa" stroke-width="1" stroke-linecap="round"/>
<line x2="153.0498126592636" y2="159.8808598536881" x1="119.14525314300458" y1="177.67534539408416" stroke="#aaa" stroke-width="1" stroke-linecap="round"/>
<line x2="67.4693779569362" y2="38.018078204275305" x1="100.00000000000001" y1="30.0" stroke="#aaa" stroke-width="1" stroke-linecap="round"/>
<line x2="132.5306220430638" y2="38.018078204275305" x1="100.00000000000001" y1="30.0" stroke="#aaa" stroke-width="1" stroke-linecap="round"/>
<line x2="30.510378813136214" y2="91.56243238212741" x1="42.39112938744405" y1="60.23546772881909" stroke="#aaa" stroke-width="1" stroke-linecap="round"/>
<line x2="116.75209650012901" y2="167.96592721982364" x1="83.24790349987096" y1="167.96592721982364" stroke="#aaa" stroke-width="1" stroke-linecap="round"/>
<line x2="146.41858607685566" y2="152.39575237197707" x1="116.75209650012901" y1="167.96592721982364" stroke="#aaa" stroke-width="1" stroke-linecap="round"/>
<line x2="157.60887061255593" y2="60.23546772881907" x1="169.48962118686376" y1="91.56243238212738" stroke="#aaa" stroke-width="1" stroke-linecap="round"/>
<line x2="132.5306220430638" y2="38.018078204275305" x1="157.60887061255593" y1="60.23546772881907" stroke="#aaa" stroke-width="1" stroke-linecap="round"/>
<line x2="72.1166096773739" y2="46.87263846080741" x1="100.00000000000001" y1="40.0" stroke="#aaa" stroke-width="1" stroke-linecap="round"/>
<line x2="43.89902543887511" y2="121.27629322255214" x1="40.43746755411676" y1="92.76779918468064" stroke="#aaa" stroke-width="1" stroke-linecap="round"/>
<line x2="85.64106014274654" y2="158.25650904556312" x1="60.212640505552265" y1="144.91064489026604" stroke="#aaa" stroke-width="1" stroke-linecap="round"/>
<line x2="114.35893985725343" y2="158.25650904556312" x1="85.64106014274654" y1="158.25650904556312" stroke="#aaa" stroke-width="1" stroke-linecap="round"/>
<line x2="156.10097456112487" y2="121.27629322255217" x1="139.7873594944477" y1="144.91064489026607" stroke="#aaa" stroke-width="1" stroke-linecap="round"/>
<line x2="58.85080670531718" y2="71.5967626634422" x1="76.76384139781158" y1="55.727198717339505" stroke="#aaa" stroke-width="1" stroke-linecap="round"/>
<line x2="66.84386708796023" y2="137.42553740855504" x1="53.24918786572926" y1="117.73024435212677" stroke="#aaa" stroke-width="1" stroke-linecap="round"/>
<line x2="88.0342167856221" y2="148.5470908713026" x1="66.84386708796023" y1="137.42553740855504" stroke="#aaa" stroke-width="1" stroke-linecap="round"/>
<line x2="111.96578321437786" y2="148.5470908713026" x1="88.0342167856221" y1="148.5470908713026" stroke="#aaa" stroke-width="1" stroke-linecap="round"/>
<line x2="133.15613291203977" y2="137.42553740855504" x1="111.96578321437786" y1="148.5470908713026" stroke="#aaa" stroke-width="1" stroke-linecap="round"/>
<line x2="149.63544370490268" y2="93.97316598723384" x1="146.75081213427075" y1="117.7302443521268" stroke="#aaa" stroke-width="1" stroke-linecap="round"/>
<line x2="141.1491932946828" y2="71.59676266344219" x1="149.63544370490268" y1="93.97316598723384" stroke="#aaa" stroke-width="1" stroke-linecap="round"/>
<line x2="81.41107311824926" y2="64.5817589738716" x1="100.0" y1="60.0" stroke="#aaa" stroke-width="1" stroke-linecap="round"/>
<line x2="118.58892688175074" y2="64.5817589738716" x1="100.0" y1="60.0" stroke="#aaa" stroke-width="1" stroke-linecap="round"/>
<line x2="60.29164503607784" y2="95.1785327897871" x1="67.08064536425374" y1="77.27741013075376" stroke="#aaa" stroke-width="1" stroke-linecap="round"/>
<line x2="62.59935029258341" y2="114.18419548170142" x1="60.29164503607784" y1="95.1785327897871" stroke="#aaa" stroke-width="1" stroke-linecap="round"/>
<line x2="137.4006497074166" y2="114.18419548170144" x1="126.5249063296318" y1="129.94042992684405" stroke="#aaa" stroke-width="1" stroke-linecap="round"/>
<line x2="132.91935463574623" y2="77.27741013075375" x1="139.70835496392215" y1="95.17853278978707" stroke="#aaa" stroke-width="1" stroke-linecap="round"/>
<line x2="113.94169516131305" y2="73.43631923040371" x1="100.0" y1="70.0" stroke="#aaa" stroke-width="1" stroke-linecap="round"/>
<line x2="86.05830483868695" y2="73.43631923040371" x1="100.0" y1="70.0" stroke="#aaa" stroke-width="1" stroke-linecap="round"/>
<line x2="75.31048402319031" y2="82.95805759806532" x1="86.05830483868695" y1="73.43631923040371" stroke="#aaa" stroke-width="1" stroke-linecap="round"/>
<line x2="71.94951271943755" y2="110.63814661127607" x1="70.21873377705838" y1="96.38389959234031" stroke="#aaa" stroke-width="1" stroke-linecap="round"/>
<line x2="92.82053007137327" y2="129.12825452278156" x1="80.10632025277613" y1="122.45532244513302" stroke="#aaa" stroke-width="1" stroke-linecap="round"/>
<line x2="128.05048728056244" y2="110.63814661127608" x1="119.89367974722386" y1="122.45532244513304" stroke="#aaa" stroke-width="1" stroke-linecap="round"/>
<line x2="124.68951597680969" y2="82.95805759806532" x1="129.7812662229416" y1="96.38389959234031" stroke="#aaa" stroke-width="1" stroke-linecap="round"/>
<line x2="90.70553655912462" y2="82.29087948693581" x1="100.0" y1="80.0" stroke="#aaa" stroke-width="1" stroke-linecap="round"/>
<line x2="109.29446344087538" y2="82.29087948693581" x1="100.0" y1="80.0" stroke="#aaa" stroke-width="1" stroke-linecap="round"/>
<line x2="100.0" y2="90.0" x1="100.0" y1="80.0" stroke="#aaa" stroke-width="1" stroke-linecap="round"/>
<line x2="83.54032268212687" y2="88.63870506537688" x1="90.70553655912462" y1="82.29087948693581" stroke="#aaa" stroke-width="1" stroke-linecap="round"/>
<line x2="95.35276827956231" y2="91.1454397434679" x1="90.70553655912462" y1="82.29087948693581" stroke="#aaa" stroke-width="1" stroke-linecap="round"/>
<line x2="80.14582251803893" y2="97.58926639489354" x1="83.54032268212687" y1="88.63870506537688" stroke="#aaa" stroke-width="1" stroke-linecap="round"/>
<line x2="91.77016134106344" y2="94.31935253268844" x1="83.54032268212687" y1="88.63870506537688" stroke="#aaa" stroke-width="1" stroke-linecap="round"/>
<line x2="81.2996751462917" y2="107.0920977408507" x1="80.14582251803893" y1="97.58926639489354" stroke="#aaa" stroke-width="1" stroke-linecap="round"/>
<line x2="90.07291125901946" y2="98.79463319744677" x1="80.14582251803893" y1="97.58926639489354" stroke="#aaa" stroke-width="1" stroke-linecap="round"/>
<line x2="90.64983757314585" y2="103.54604887042535" x1="81.2996751462917" y1="107.0920977408507" stroke="#aaa" stroke-width="1" stroke-linecap="round"/>
<line x2="86.73754683518409" y2="114.97021496342202" x1="81.2996751462917" y1="107.0920977408507" stroke="#aaa" stroke-width="1" stroke-linecap="round"/>
<line x2="95.21368671424884" y2="119.41883634852104" x1="86.73754683518409" y1="114.97021496342202" stroke="#aaa" stroke-width="1" stroke-linecap="round"/>
<line x2="93.36877341759204" y2="107.48510748171101" x1="86.73754683518409" y1="114.97021496342202" stroke="#aaa" stroke-width="1" stroke-linecap="round"/>
<line x2="97.60684335712442" y2="109.70941817426052" x1="95.21368671424884" y1="119.41883634852104" stroke="#aaa" stroke-width="1" stroke-linecap="round"/>
<line x2="104.78631328575115" y2="119.41883634852104" x1="95.21368671424884" y1="119.41883634852104" stroke="#aaa" stroke-width="1" stroke-linecap="round"/>
<line x2="113.26245316481591" y2="114.97021496342202" x1="104.78631328575115" y1="119.41883634852104" stroke="#aaa" stroke-width="1" stroke-linecap="round"/>
<line x2="102.39315664287557" y2="109.70941817426052" x1="104.78631328575115" y1="119.41883634852104" stroke="#aaa" stroke-width="1" stroke-linecap="round"/>
<line x2="106.63122658240795" y2="107.48510748171101" x1="113.26245316481591" y1="114.97021496342202" stroke="#aaa" stroke-width="1" stroke-linecap="round"/>
<line x2="109.35016242685415" y2="103.54604887042537" x1="118.7003248537083" y1="107.09209774085072" stroke="#aaa" stroke-width="1" stroke-linecap="round"/>
<line x2="119.85417748196107" y2="97.58926639489354" x1="118.7003248537083" y1="107.09209774085072" stroke="#aaa" stroke-width="1" stroke-linecap="round"/>
<line x2="109.92708874098054" y2="98.79463319744677" x1="119.85417748196107" y1="97.58926639489354" stroke="#aaa" stroke-width="1" stroke-linecap="round"/>
<line x2="116.45967731787312" y2="88.63870506537688" x1="119.85417748196107" y1="97.58926639489354" stroke="#aaa" stroke-width="1" stroke-linecap="round"/>
<line x2="108.22983865893656" y2="94.31935253268844" x1="116.45967731787312" y1="88.63870506537688" stroke="#aaa" stroke-width="1" stroke-linecap="round"/>
<line x2="109.29446344087538" y2="82.29087948693581" x1="116.45967731787312" y1="88.63870506537688" stroke="#aaa" stroke-width="1" stroke-linecap="round"/>
<line x2="104.64723172043769" y2="91.1454397434679" x1="109.29446344087538" y1="82.29087948693581" stroke="#aaa" stroke-width="1" stroke-linecap="round"/>
</svg>
