<svg viewBox="0 0 200 200" xmlns="http://www.w3.org/2000/svg">
<line x2="100.0" y2="130.0" x1="100.0" y1="140.0" stroke="#aaa" stroke-width="1" stroke-linecap="round"/>
<path d="M 60.0 100.0 A 40 40 0.0 0 1 99.99999999999999 60.0" stroke="#aaa" stroke-width="1" stroke-linecap="round" fill="none"/>
<path d="M 100.0 130.0 A 30 30 0.0 0 1 70.0 100.0" stroke="#aaa" stroke-width="1" stroke-linecap="round" fill="none"/>
<path d="M 100.0 70.0 A 30 30 0.0 0 1 130.0 99.99999999999999" stroke="#aaa" stroke-width="1" stroke-linecap="round" fill="none"/>
<line x2="100.0" y2="70.0" x1="100.0" y1="60.0" stroke="#aaa" stroke-width="1" stroke-linecap="round"/>
<path d="M 99.99999999999999 60.0 A 40 40 0.0 0 1 140.0 99.99999999999999" stroke="#aaa" stroke-width="1" stroke-linecap="round" fill="none"/>
<path d="M 100.0 70.0 A 30 30 0.0 0 1 130.0 99.99999999999999" stroke="#aaa" stroke-width="1" stroke-linecap="round" fill="none"/>
<line x2="100.0" y2="80.0" x1="100.0" y1="70.0" stroke="#aaa" stroke-width="1" stroke-linecap="round"/>
<line x2="100" y2="100" x1="100.0" y1="120.0" stroke="#aaa" stroke-width="1" stroke-linecap="round"/>
<path d="M 80.0 100.0 A 20 20 0.0 0 1 100.0 80.0" stroke="#aaa" stroke-width="1" stroke-linecap="round" fill="none"/>
<line x2="100" y2="100" x1="100.0" y1="80.0" stroke="#aaa" stroke-width="1" stroke-linecap="round"/>
<path d="M 100.0 80.0 A 20 20 0.0 0 1 120.0 100.0" stroke="#aaa" stroke-width="1" stroke-linecap="round" fill="none"/>
</svg>
