<svg viewBox="0 0 200 200" xmlns="http://www.w3.org/2000/svg">
<line x2="117.10100716628344" y2="53.01536896070458" x1="100.0" y1="50.0" stroke="#aaa" stroke-width="1" stroke-linecap="round"/>
<line x2="100.0" y2="60.0" x1="100.0" y1="50.0" stroke="#aaa" stroke-width="1" stroke-linecap="round"/>
<line x2="86.31919426697326" y2="62.41229516856366" x1="82.89899283371656" y1="53.01536896070458" stroke="#aaa" stroke-width="1" stroke-linecap="round"/>
<line x2="113.68080573302674" y2="62.41229516856366" x1="100.0" y1="60.0" stroke="#aaa" stroke-width="1" stroke-linecap="round"/>
<line x2="86.31919426697326" y2="62.41229516856366" x1="100.0" y1="60.0" stroke="#aaa" stroke-width="1" stroke-linecap="round"/>
<line x2="74.28849561253843" y2="69.35822227524088" x1="67.86061951567304" y1="61.697777844051096" stroke="#aaa" stroke-width="1" stroke-linecap="round"/>
<line x2="89.73939570022993" y2="71.80922137642276" x1="86.31919426697326" y1="62.41229516856366" stroke="#aaa" stroke-width="1" stroke-linecap="round"/>
<line x2="65.35898384862247" y2="79.99999999999999" x1="56.69872981077808" y1="74.99999999999997" stroke="#aaa" stroke-width="1" stroke-linecap="round"/>
<line x2="50.7596123493896" y2="91.31759111665349" x1="56.69872981077808" y1="74.99999999999997" stroke="#aaa" stroke-width="1" stroke-linecap="round"/>
<line x2="65.35898384862247" y2="79.99999999999999" x1="74.28849561253843" y1="69.35822227524088" stroke="#aaa" stroke-width="1" stroke-linecap="round"/>
<line x2="60.60768987951168" y2="93.05407289332278" x1="50.7596123493896" y1="91.31759111665349" stroke="#aaa" stroke-width="1" stroke-linecap="round"/>
<line x2="74.01923788646684" y2="84.99999999999999" x1="65.35898384862247" y1="79.99999999999999" stroke="#aaa" stroke-width="1" stroke-linecap="round"/>
<line x2="60.607689879511675" y2="106.9459271066772" x1="50.75961234938959" y1="108.6824088833465" stroke="#aaa" stroke-width="1" stroke-linecap="round"/>
<line x2="67.86061951567302" y2="138.3022221559489" x1="56.69872981077805" y1="124.99999999999997" stroke="#aaa" stroke-width="1" stroke-linecap="round"/>
<line x2="65.35898384862244" y2="119.99999999999997" x1="60.607689879511675" y1="106.9459271066772" stroke="#aaa" stroke-width="1" stroke-linecap="round"/>
<line x2="74.28849561253841" y2="130.64177772475912" x1="67.86061951567302" y1="138.3022221559489" stroke="#aaa" stroke-width="1" stroke-linecap="round"/>
<line x2="74.28849561253841" y2="130.64177772475912" x1="65.35898384862244" y1="119.99999999999997" stroke="#aaa" stroke-width="1" stroke-linecap="round"/>
<line x2="86.31919426697326" y2="137.58770483143633" x1="82.89899283371658" y1="146.98463103929544" stroke="#aaa" stroke-width="1" stroke-linecap="round"/>
<line x2="80.71637170940382" y2="122.98133329356934" x1="74.28849561253841" y1="130.64177772475912" stroke="#aaa" stroke-width="1" stroke-linecap="round"/>
<line x2="117.10100716628341" y2="146.98463103929544" x1="99.99999999999999" y1="150.0" stroke="#aaa" stroke-width="1" stroke-linecap="round"/>
<line x2="89.73939570022995" y2="128.19077862357724" x1="86.31919426697326" y1="137.58770483143633" stroke="#aaa" stroke-width="1" stroke-linecap="round"/>
<line x2="99.99999999999999" y2="140.0" x1="86.31919426697326" y1="137.58770483143633" stroke="#aaa" stroke-width="1" stroke-linecap="round"/>
<line x2="113.68080573302673" y2="137.58770483143635" x1="117.10100716628341" y1="146.98463103929544" stroke="#aaa" stroke-width="1" stroke-linecap="round"/>
<line x2="99.99999999999999" y2="130.0" x1="99.99999999999999" y1="140.0" stroke="#aaa" stroke-width="1" stroke-linecap="round"/>
<line x2="125.71150438746157" y2="130.64177772475912" x1="132.13938048432698" y1="138.3022221559489" stroke="#aaa" stroke-width="1" stroke-linecap="round"/>
<line x2="125.71150438746157" y2="130.64177772475912" x1="113.68080573302673" y1="137.58770483143635" stroke="#aaa" stroke-width="1" stroke-linecap="round"/>
<line x2="134.64101615137753" y2="120.00000000000003" x1="143.30127018922192" y1="125.00000000000003" stroke="#aaa" stroke-width="1" stroke-linecap="round"/>
<line x2="134.64101615137753" y2="120.00000000000003" x1="125.71150438746157" y1="130.64177772475912" stroke="#aaa" stroke-width="1" stroke-linecap="round"/>
<line x2="149.24038765061042" y2="91.3175911166535" x1="149.2403876506104" y1="108.68240888334653" stroke="#aaa" stroke-width="1" stroke-linecap="round"/>
<line x2="139.39231012048833" y2="106.94592710667722" x1="149.2403876506104" y1="108.68240888334653" stroke="#aaa" stroke-width="1" stroke-linecap="round"/>
<line x2="139.39231012048833" y2="106.94592710667722" x1="134.64101615137753" y1="120.00000000000003" stroke="#aaa" stroke-width="1" stroke-linecap="round"/>
<line x2="125.98076211353316" y2="115.00000000000001" x1="134.64101615137753" y1="120.00000000000003" stroke="#aaa" stroke-width="1" stroke-linecap="round"/>
<line x2="143.3012701892219" y2="74.99999999999997" x1="149.24038765061042" y1="91.3175911166535" stroke="#aaa" stroke-width="1" stroke-linecap="round"/>
<line x2="134.64101615137753" y2="79.99999999999997" x1="143.3012701892219" y1="74.99999999999997" stroke="#aaa" stroke-width="1" stroke-linecap="round"/>
<line x2="134.64101615137753" y2="79.99999999999997" x1="139.39231012048833" y1="93.05407289332281" stroke="#aaa" stroke-width="1" stroke-linecap="round"/>
<line x2="125.71150438746156" y2="69.35822227524086" x1="132.13938048432695" y1="61.69777784405108" stroke="#aaa" stroke-width="1" stroke-linecap="round"/>
<line x2="117.10100716628344" y2="53.01536896070458" x1="132.13938048432695" y1="61.69777784405108" stroke="#aaa" stroke-width="1" stroke-linecap="round"/>
<line x2="125.71150438746156" y2="69.35822227524086" x1="134.64101615137753" y1="79.99999999999997" stroke="#aaa" stroke-width="1" stroke-linecap="round"/>
<line x2="119.28362829059617" y2="77.01866670643065" x1="125.71150438746156" y1="69.35822227524086" stroke="#aaa" stroke-width="1" stroke-linecap="round"/>
<line x2="89.73939570022993" y2="71.80922137642276" x1="100.0" y1="70.0" stroke="#aaa" stroke-width="1" stroke-linecap="round"/>
<line x2="93.15959713348663" y2="81.20614758428184" x1="89.73939570022993" y1="71.80922137642276" stroke="#aaa" stroke-width="1" stroke-linecap="round"/>
<line x2="74.01923788646684" y2="84.99999999999999" x1="80.71637170940383" y1="77.01866670643065" stroke="#aaa" stroke-width="1" stroke-linecap="round"/>
<line x2="87.14424780626922" y2="84.67911113762044" x1="80.71637170940383" y1="77.01866670643065" stroke="#aaa" stroke-width="1" stroke-linecap="round"/>
<line x2="70.45576740963375" y2="94.79055466999209" x1="74.01923788646684" y1="84.99999999999999" stroke="#aaa" stroke-width="1" stroke-linecap="round"/>
<line x2="70.45576740963375" y2="105.2094453300079" x1="70.45576740963375" y1="94.79055466999209" stroke="#aaa" stroke-width="1" stroke-linecap="round"/>
<line x2="80.30384493975583" y2="96.5270364466614" x1="70.45576740963375" y1="94.79055466999209" stroke="#aaa" stroke-width="1" stroke-linecap="round"/>
<line x2="74.01923788646683" y2="114.99999999999997" x1="70.45576740963375" y1="105.2094453300079" stroke="#aaa" stroke-width="1" stroke-linecap="round"/>
<line x2="89.73939570022995" y2="128.19077862357724" x1="80.71637170940382" y1="122.98133329356934" stroke="#aaa" stroke-width="1" stroke-linecap="round"/>
<line x2="93.15959713348663" y2="118.79385241571816" x1="89.73939570022995" y1="128.19077862357724" stroke="#aaa" stroke-width="1" stroke-linecap="round"/>
<line x2="119.28362829059617" y2="122.98133329356935" x1="110.26060429977005" y1="128.19077862357727" stroke="#aaa" stroke-width="1" stroke-linecap="round"/>
<line x2="106.84040286651336" y2="118.79385241571818" x1="110.26060429977005" y1="128.19077862357727" stroke="#aaa" stroke-width="1" stroke-linecap="round"/>
<line x2="125.98076211353316" y2="115.00000000000001" x1="119.28362829059617" y1="122.98133329356935" stroke="#aaa" stroke-width="1" stroke-linecap="round"/>
<line x2="129.54423259036625" y2="105.20944533000791" x1="125.98076211353316" y1="115.00000000000001" stroke="#aaa" stroke-width="1" stroke-linecap="round"/>
<line x2="129.54423259036625" y2="94.7905546699921" x1="129.54423259036625" y1="105.20944533000791" stroke="#aaa" stroke-width="1" stroke-linecap="round"/>
<line x2="119.69615506024417" y2="103.47296355333862" x1="129.54423259036625" y1="105.20944533000791" stroke="#aaa" stroke-width="1" stroke-linecap="round"/>
<line x2="125.98076211353315" y2="84.99999999999999" x1="129.54423259036625" y1="94.7905546699921" stroke="#aaa" stroke-width="1" stroke-linecap="round"/>
<line x2="117.32050807568876" y2="89.99999999999999" x1="125.98076211353315" y1="84.99999999999999" stroke="#aaa" stroke-width="1" stroke-linecap="round"/>
<line x2="110.26060429977007" y2="71.80922137642276" x1="119.28362829059617" y1="77.01866670643065" stroke="#aaa" stroke-width="1" stroke-linecap="round"/>
<line x2="106.84040286651337" y2="81.20614758428184" x1="110.26060429977007" y1="71.80922137642276" stroke="#aaa" stroke-width="1" stroke-linecap="round"/>
<line x2="100.0" y2="90.0" x1="100.0" y1="80.0" stroke="#aaa" stroke-width="1" stroke-linecap="round"/>
<line x2="93.15959713348663" y2="81.20614758428184" x1="100.0" y1="80.0" stroke="#aaa" stroke-width="1" stroke-linecap="round"/>
<line x2="96.5797985667433" y2="90.60307379214092" x1="93.15959713348663" y1="81.20614758428184" stroke="#aaa" stroke-width="1" stroke-linecap="round"/>
<line x2="87.14424780626922" y2="84.67911113762044" x1="93.15959713348663" y1="81.20614758428184" stroke="#aaa" stroke-width="1" stroke-linecap="round"/>
<line x2="93.57212390313461" y2="92.33955556881023" x1="87.14424780626922" y1="84.67911113762044" stroke="#aaa" stroke-width="1" stroke-linecap="round"/>
<line x2="80.30384493975583" y2="96.5270364466614" x1="82.67949192431124" y1="89.99999999999999" stroke="#aaa" stroke-width="1" stroke-linecap="round"/>
<line x2="91.33974596215562" y2="95.0" x1="82.67949192431124" y1="89.99999999999999" stroke="#aaa" stroke-width="1" stroke-linecap="round"/>
<line x2="80.30384493975583" y2="103.4729635533386" x1="80.30384493975583" y1="96.5270364466614" stroke="#aaa" stroke-width="1" stroke-linecap="round"/>
<line x2="90.15192246987792" y2="98.26351822333069" x1="80.30384493975583" y1="96.5270364466614" stroke="#aaa" stroke-width="1" stroke-linecap="round"/>
<line x2="82.67949192431122" y2="109.99999999999999" x1="80.30384493975583" y1="103.4729635533386" stroke="#aaa" stroke-width="1" stroke-linecap="round"/>
<line x2="90.15192246987792" y2="101.7364817766693" x1="80.30384493975583" y1="103.4729635533386" stroke="#aaa" stroke-width="1" stroke-linecap="round"/>
<line x2="87.1442478062692" y2="115.32088886237956" x1="82.67949192431122" y1="109.99999999999999" stroke="#aaa" stroke-width="1" stroke-linecap="round"/>
<line x2="91.3397459621556" y2="105.0" x1="82.67949192431122" y1="109.99999999999999" stroke="#aaa" stroke-width="1" stroke-linecap="round"/>
<line x2="93.57212390313461" y2="107.66044443118977" x1="87.1442478062692" y1="115.32088886237956" stroke="#aaa" stroke-width="1" stroke-linecap="round"/>
<line x2="100.0" y2="120.0" x1="93.15959713348663" y1="118.79385241571816" stroke="#aaa" stroke-width="1" stroke-linecap="round"/>
<line x2="96.57979856674332" y2="109.39692620785908" x1="93.15959713348663" y1="118.79385241571816" stroke="#aaa" stroke-width="1" stroke-linecap="round"/>
<line x2="106.84040286651336" y2="118.79385241571818" x1="100.0" y1="120.0" stroke="#aaa" stroke-width="1" stroke-linecap="round"/>
<line x2="100.0" y2="110.0" x1="100.0" y1="120.0" stroke="#aaa" stroke-width="1" stroke-linecap="round"/>
<line x2="103.42020143325668" y2="109.39692620785908" x1="106.84040286651336" y1="118.79385241571818" stroke="#aaa" stroke-width="1" stroke-linecap="round"/>
<line x2="117.32050807568876" y2="110.00000000000001" x1="112.85575219373078" y1="115.32088886237956" stroke="#aaa" stroke-width="1" stroke-linecap="round"/>
<line x2="106.42787609686539" y2="107.66044443118977" x1="112.85575219373078" y1="115.32088886237956" stroke="#aaa" stroke-width="1" stroke-linecap="round"/>
<line x2="119.69615506024417" y2="103.47296355333862" x1="117.32050807568876" y1="110.00000000000001" stroke="#aaa" stroke-width="1" stroke-linecap="round"/>
<line x2="108.66025403784438" y2="105.0" x1="117.32050807568876" y1="110.00000000000001" stroke="#aaa" stroke-width="1" stroke-linecap="round"/>
<line x2="109.84807753012208" y2="101.73648177666931" x1="119.69615506024417" y1="103.47296355333862" stroke="#aaa" stroke-width="1" stroke-linecap="round"/>
<line x2="117.32050807568876" y2="89.99999999999999" x1="119.69615506024417" y1="96.5270364466614" stroke="#aaa" stroke-width="1" stroke-linecap="round"/>
<line x2="109.84807753012208" y2="98.2635182233307" x1="119.69615506024417" y1="96.5270364466614" stroke="#aaa" stroke-width="1" stroke-linecap="round"/>
<line x2="108.66025403784438" y2="95.0" x1="117.32050807568876" y1="89.99999999999999" stroke="#aaa" stroke-width="1" stroke-linecap="round"/>
<line x2="112.85575219373078" y2="84.67911113762044" x1="117.32050807568876" y1="89.99999999999999" stroke="#aaa" stroke-width="1" stroke-linecap="round"/>
<line x2="106.42787609686539" y2="92.33955556881021" x1="112.85575219373078" y1="84.67911113762044" stroke="#aaa" stroke-width="1" stroke-linecap="round"/>
<line x2="103.4202014332567" y2="90.60307379214092" x1="106.84040286651337" y1="81.20614758428184" stroke="#aaa" stroke-width="1" stroke-linecap="round"/>
</svg>
