<svg viewBox="0 0 200 200" xmlns="http://www.w3.org/2000/svg">
<line x2="100" y2="100" x1="100.00000000000001" y1="20.0" stroke="#aaa" stroke-width="1" stroke-linecap="round"/>
<line x2="100" y2="100" x1="79.29447639179834" y1="22.725933896874537" stroke="#aaa" stroke-width="1" stroke-linecap="round"/>
<line x2="100" y2="100" x1="134.64101615137753" y1="120.00000000000003" stroke="#aaa" stroke-width="1" stroke-linecap="round"/>
<line x2="100" y2="100" x1="100.0" y1="50.0" stroke="#aaa" stroke-width="1" stroke-linecap="round"/>
<line x2="100" y2="100" x1="74.01923788646684" y1="84.99999999999999" stroke="#aaa" stroke-width="1" stroke-linecap="round"/>
<line x2="100" y2="100" x1="87.05904774487396" y1="51.70370868554659" stroke="#aaa" stroke-width="1" stroke-linecap="round"/>
<line x2="100" y2="100" x1="78.78679656440357" y1="121.21320343559643" stroke="#aaa" stroke-width="1" stroke-linecap="round"/>
<line x2="100" y2="100" x1="75.00000000000001" y1="56.69872981077806" stroke="#aaa" stroke-width="1" stroke-linecap="round"/>
<line x2="100" y2="100" x1="84.47085729384875" y1="42.0444504226559" stroke="#aaa" stroke-width="1" stroke-linecap="round"/>
<line x2="100" y2="100" x1="177.27406610312548" y1="79.29447639179838" stroke="#aaa" stroke-width="1" stroke-linecap="round"/>
<line x2="100" y2="100" x1="135.35533905932738" y1="135.35533905932738" stroke="#aaa" stroke-width="1" stroke-linecap="round"/>
<line x2="100" y2="100" x1="118.11733315717642" y1="167.6148078402348" stroke="#aaa" stroke-width="1" stroke-linecap="round"/>
<line x2="100" y2="100" x1="130.0" y1="48.03847577293367" stroke="#aaa" stroke-width="1" stroke-linecap="round"/>
<line x2="100" y2="100" x1="61.36296694843727" y1="89.64723819589918" stroke="#aaa" stroke-width="1" stroke-linecap="round"/>
<line x2="100" y2="100" x1="130.0" y1="100.00000000000001" stroke="#aaa" stroke-width="1" stroke-linecap="round"/>
<line x2="100" y2="100" x1="84.47085729384875" y1="157.9555495773441" stroke="#aaa" stroke-width="1" stroke-linecap="round"/>
<line x2="100" y2="100" x1="70.00000000000001" y1="48.03847577293367" stroke="#aaa" stroke-width="1" stroke-linecap="round"/>
<line x2="100" y2="100" x1="22.725933896874537" y1="79.29447639179836" stroke="#aaa" stroke-width="1" stroke-linecap="round"/>
<line x2="100" y2="100" x1="30.717967697244873" y1="139.99999999999994" stroke="#aaa" stroke-width="1" stroke-linecap="round"/>
<line x2="100" y2="100" x1="150.0" y1="100.00000000000001" stroke="#aaa" stroke-width="1" stroke-linecap="round"/>
<line x2="100" y2="100" x1="120.0" y1="65.35898384862244" stroke="#aaa" stroke-width="1" stroke-linecap="round"/>
<line x2="100" y2="100" x1="135.0" y1="39.378221735089284" stroke="#aaa" stroke-width="1" stroke-linecap="round"/>
<line x2="100" y2="100" x1="140.0" y1="169.28203230275508" stroke="#aaa" stroke-width="1" stroke-linecap="round"/>
<line x2="100" y2="100" x1="48.038475772933694" y1="69.99999999999997" stroke="#aaa" stroke-width="1" stroke-linecap="round"/>
<line x2="100" y2="100" x1="156.56854249492386" y1="43.43145750507627" stroke="#aaa" stroke-width="1" stroke-linecap="round"/>
<line x2="100" y2="100" x1="99.99999999999999" y1="130.0" stroke="#aaa" stroke-width="1" stroke-linecap="round"/>
<line x2="100" y2="100" x1="40.0" y1="99.99999999999999" stroke="#aaa" stroke-width="1" stroke-linecap="round"/>
<line x2="100" y2="100" x1="160.6217782649107" y1="64.99999999999994" stroke="#aaa" stroke-width="1" stroke-linecap="round"/>
<line x2="100" y2="100" x1="142.42640687119285" y1="142.42640687119285" stroke="#aaa" stroke-width="1" stroke-linecap="round"/>
<line x2="100" y2="100" x1="170.0" y1="100.00000000000003" stroke="#aaa" stroke-width="1" stroke-linecap="round"/>
<line x2="100" y2="100" x1="50.50252531694168" y1="50.502525316941664" stroke="#aaa" stroke-width="1" stroke-linecap="round"/>
<line x2="100" y2="100" x1="177.27406610312545" y1="120.70552360820166" stroke="#aaa" stroke-width="1" stroke-linecap="round"/>
<line x2="100" y2="100" x1="51.70370868554659" y1="87.05904774487396" stroke="#aaa" stroke-width="1" stroke-linecap="round"/>
<line x2="100" y2="100" x1="50.0" y1="99.99999999999999" stroke="#aaa" stroke-width="1" stroke-linecap="round"/>
<line x2="100" y2="100" x1="74.01923788646683" y1="114.99999999999997" stroke="#aaa" stroke-width="1" stroke-linecap="round"/>
<line x2="100" y2="100" x1="42.04445042265589" y1="115.52914270615122" stroke="#aaa" stroke-width="1" stroke-linecap="round"/>
<line x2="100" y2="100" x1="39.37822173508927" y1="134.99999999999994" stroke="#aaa" stroke-width="1" stroke-linecap="round"/>
<line x2="100" y2="100" x1="160.6217782649107" y1="135.00000000000003" stroke="#aaa" stroke-width="1" stroke-linecap="round"/>
<line x2="100" y2="100" x1="81.88266684282355" y1="167.6148078402348" stroke="#aaa" stroke-width="1" stroke-linecap="round"/>
<line x2="100" y2="100" x1="57.57359312880714" y1="142.42640687119285" stroke="#aaa" stroke-width="1" stroke-linecap="round"/>
<line x2="100" y2="100" x1="134.64101615137753" y1="79.99999999999997" stroke="#aaa" stroke-width="1" stroke-linecap="round"/>
<line x2="100" y2="100" x1="135.35533905932743" y1="64.64466094067267" stroke="#aaa" stroke-width="1" stroke-linecap="round"/>
<line x2="100" y2="100" x1="151.9615242270663" y1="69.99999999999996" stroke="#aaa" stroke-width="1" stroke-linecap="round"/>
<line x2="100" y2="100" x1="71.7157287525381" y1="71.7157287525381" stroke="#aaa" stroke-width="1" stroke-linecap="round"/>
<line x2="100" y2="100" x1="142.4264068711929" y1="57.5735931288072" stroke="#aaa" stroke-width="1" stroke-linecap="round"/>
<line x2="100" y2="100" x1="115.0" y1="74.01923788646684" stroke="#aaa" stroke-width="1" stroke-linecap="round"/>
<line x2="100" y2="100" x1="148.2962913144534" y1="87.059047744874" stroke="#aaa" stroke-width="1" stroke-linecap="round"/>
<line x2="100" y2="100" x1="51.70370868554658" y1="112.940952255126" stroke="#aaa" stroke-width="1" stroke-linecap="round"/>
<line x2="100" y2="100" x1="107.76457135307561" y1="128.97777478867206" stroke="#aaa" stroke-width="1" stroke-linecap="round"/>
<line x2="100" y2="100" x1="80.00000000000001" y1="134.64101615137756" stroke="#aaa" stroke-width="1" stroke-linecap="round"/>
<line x2="100" y2="100" x1="75.00000000000001" y1="143.30127018922195" stroke="#aaa" stroke-width="1" stroke-linecap="round"/>
<line x2="100" y2="100" x1="140.0" y1="100.00000000000001" stroke="#aaa" stroke-width="1" stroke-linecap="round"/>
<line x2="100" y2="100" x1="64.64466094067262" y1="135.35533905932738" stroke="#aaa" stroke-width="1" stroke-linecap="round"/>
<line x2="100" y2="100" x1="87.05904774487396" y1="148.2962913144534" stroke="#aaa" stroke-width="1" stroke-linecap="round"/>
<line x2="100" y2="100" x1="115.52914270615125" y1="42.0444504226559" stroke="#aaa" stroke-width="1" stroke-linecap="round"/>
<line x2="100" y2="100" x1="120.0" y1="134.64101615137753" stroke="#aaa" stroke-width="1" stroke-linecap="round"/>
<line x2="100" y2="100" x1="89.64723819589916" y1="61.36296694843727" stroke="#aaa" stroke-width="1" stroke-linecap="round"/>
<line x2="100" y2="100" x1="125.98076211353315" y1="84.99999999999999" stroke="#aaa" stroke-width="1" stroke-linecap="round"/>
<line x2="100" y2="100" x1="43.4314575050762" y1="43.43145750507618" stroke="#aaa" stroke-width="1" stroke-linecap="round"/>
<line x2="100" y2="100" x1="50.502525316941664" y1="149.49747468305833" stroke="#aaa" stroke-width="1" stroke-linecap="round"/>
<line x2="100" y2="100" x1="30.0" y1="99.99999999999999" stroke="#aaa" stroke-width="1" stroke-linecap="round"/>
<line x2="100" y2="100" x1="92.23542864692438" y1="71.02222521132795" stroke="#aaa" stroke-width="1" stroke-linecap="round"/>
<line x2="100" y2="100" x1="118.11733315717646" y1="32.385192159765225" stroke="#aaa" stroke-width="1" stroke-linecap="round"/>
<line x2="100" y2="100" x1="149.49747468305833" y1="149.49747468305833" stroke="#aaa" stroke-width="1" stroke-linecap="round"/>
<line x2="100" y2="100" x1="61.36296694843726" y1="110.35276180410081" stroke="#aaa" stroke-width="1" stroke-linecap="round"/>
<line x2="100" y2="100" x1="30.71796769724493" y1="59.999999999999964" stroke="#aaa" stroke-width="1" stroke-linecap="round"/>
<line x2="100" y2="100" x1="60.000000000000014" y1="30.717967697244887" stroke="#aaa" stroke-width="1" stroke-linecap="round"/>
<line x2="100" y2="100" x1="112.94095225512604" y1="51.70370868554659" stroke="#aaa" stroke-width="1" stroke-linecap="round"/>
<line x2="100" y2="100" x1="121.21320343559645" y1="78.7867965644036" stroke="#aaa" stroke-width="1" stroke-linecap="round"/>
<line x2="100" y2="100" x1="39.37822173508931" y1="64.99999999999997" stroke="#aaa" stroke-width="1" stroke-linecap="round"/>
<line x2="20.0" y2="99.99999999999999" x1="22.725933896874537" y1="79.29447639179836" stroke="#aaa" stroke-width="1" stroke-linecap="round"/>
<line x2="22.725933896874523" y2="120.70552360820162" x1="20.0" y1="99.99999999999999" stroke="#aaa" stroke-width="1" stroke-linecap="round"/>
<line x2="43.43145750507618" y2="156.5685424949238" x1="30.717967697244873" y1="139.99999999999994" stroke="#aaa" stroke-width="1" stroke-linecap="round"/>
<line x2="79.29447639179834" y2="177.27406610312545" x1="60.00000000000003" y1="169.2820323027551" stroke="#aaa" stroke-width="1" stroke-linecap="round"/>
<line x2="99.99999999999999" y2="180.0" x1="79.29447639179834" y1="177.27406610312545" stroke="#aaa" stroke-width="1" stroke-linecap="round"/>
<line x2="120.70552360820162" y2="177.27406610312548" x1="99.99999999999999" y1="180.0" stroke="#aaa" stroke-width="1" stroke-linecap="round"/>
<line x2="140.0" y2="169.28203230275508" x1="120.70552360820162" y1="177.27406610312548" stroke="#aaa" stroke-width="1" stroke-linecap="round"/>
<line x2="156.5685424949238" y2="156.5685424949238" x1="140.0" y1="169.28203230275508" stroke="#aaa" stroke-width="1" stroke-linecap="round"/>
<line x2="177.27406610312545" y2="120.70552360820166" x1="169.28203230275506" y1="140.00000000000006" stroke="#aaa" stroke-width="1" stroke-linecap="round"/>
<line x2="177.27406610312548" y2="79.29447639179838" x1="180.0" y1="100.00000000000003" stroke="#aaa" stroke-width="1" stroke-linecap="round"/>
<line x2="169.28203230275506" y2="59.99999999999994" x1="177.27406610312548" y1="79.29447639179838" stroke="#aaa" stroke-width="1" stroke-linecap="round"/>
<line x2="140.0" y2="30.717967697244887" x1="156.56854249492386" y1="43.43145750507627" stroke="#aaa" stroke-width="1" stroke-linecap="round"/>
<line x2="120.70552360820167" y2="22.725933896874537" x1="140.0" y1="30.717967697244887" stroke="#aaa" stroke-width="1" stroke-linecap="round"/>
<line x2="81.88266684282354" y2="32.385192159765225" x1="100.00000000000001" y1="30.0" stroke="#aaa" stroke-width="1" stroke-linecap="round"/>
<line x2="65.00000000000001" y2="39.378221735089284" x1="81.88266684282354" y1="32.385192159765225" stroke="#aaa" stroke-width="1" stroke-linecap="round"/>
<line x2="50.50252531694168" y2="50.502525316941664" x1="65.00000000000001" y1="39.378221735089284" stroke="#aaa" stroke-width="1" stroke-linecap="round"/>
<line x2="30.0" y2="99.99999999999999" x1="32.385192159765225" y1="81.88266684282355" stroke="#aaa" stroke-width="1" stroke-linecap="round"/>
<line x2="32.38519215976521" y2="118.11733315717642" x1="30.0" y1="99.99999999999999" stroke="#aaa" stroke-width="1" stroke-linecap="round"/>
<line x2="65.00000000000003" y2="160.62177826491072" x1="50.502525316941664" y1="149.49747468305833" stroke="#aaa" stroke-width="1" stroke-linecap="round"/>
<line x2="118.11733315717642" y2="167.6148078402348" x1="99.99999999999999" y1="170.0" stroke="#aaa" stroke-width="1" stroke-linecap="round"/>
<line x2="135.0" y2="160.6217782649107" x1="118.11733315717642" y1="167.6148078402348" stroke="#aaa" stroke-width="1" stroke-linecap="round"/>
<line x2="170.0" y2="100.00000000000003" x1="167.6148078402348" y1="118.11733315717646" stroke="#aaa" stroke-width="1" stroke-linecap="round"/>
<line x2="167.6148078402348" y2="81.8826668428236" x1="170.0" y1="100.00000000000003" stroke="#aaa" stroke-width="1" stroke-linecap="round"/>
<line x2="135.0" y2="39.378221735089284" x1="149.49747468305839" y1="50.502525316941735" stroke="#aaa" stroke-width="1" stroke-linecap="round"/>
<line x2="115.52914270615125" y2="42.0444504226559" x1="100.00000000000001" y1="40.0" stroke="#aaa" stroke-width="1" stroke-linecap="round"/>
<line x2="57.573593128807154" y2="57.57359312880714" x1="70.00000000000001" y1="48.03847577293367" stroke="#aaa" stroke-width="1" stroke-linecap="round"/>
<line x2="42.0444504226559" y2="84.47085729384877" x1="48.038475772933694" y1="69.99999999999997" stroke="#aaa" stroke-width="1" stroke-linecap="round"/>
<line x2="48.03847577293366" y2="129.99999999999994" x1="42.04445042265589" y1="115.52914270615122" stroke="#aaa" stroke-width="1" stroke-linecap="round"/>
<line x2="84.47085729384875" y2="157.9555495773441" x1="70.00000000000003" y1="151.96152422706632" stroke="#aaa" stroke-width="1" stroke-linecap="round"/>
<line x2="99.99999999999999" y2="160.0" x1="84.47085729384875" y1="157.9555495773441" stroke="#aaa" stroke-width="1" stroke-linecap="round"/>
<line x2="115.52914270615122" y2="157.9555495773441" x1="99.99999999999999" y1="160.0" stroke="#aaa" stroke-width="1" stroke-linecap="round"/>
<line x2="142.42640687119285" y2="142.42640687119285" x1="130.0" y1="151.96152422706632" stroke="#aaa" stroke-width="1" stroke-linecap="round"/>
<line x2="151.96152422706632" y2="130.00000000000003" x1="142.42640687119285" y1="142.42640687119285" stroke="#aaa" stroke-width="1" stroke-linecap="round"/>
<line x2="157.9555495773441" y2="115.52914270615125" x1="151.96152422706632" y1="130.00000000000003" stroke="#aaa" stroke-width="1" stroke-linecap="round"/>
<line x2="157.9555495773441" y2="84.4708572938488" x1="160.0" y1="100.00000000000001" stroke="#aaa" stroke-width="1" stroke-linecap="round"/>
<line x2="151.9615242270663" y2="69.99999999999996" x1="157.9555495773441" y1="84.4708572938488" stroke="#aaa" stroke-width="1" stroke-linecap="round"/>
<line x2="64.64466094067262" y2="64.64466094067262" x1="75.00000000000001" y1="56.69872981077806" stroke="#aaa" stroke-width="1" stroke-linecap="round"/>
<line x2="51.70370868554659" y2="87.05904774487396" x1="56.69872981077808" y1="74.99999999999997" stroke="#aaa" stroke-width="1" stroke-linecap="round"/>
<line x2="56.69872981077805" y2="124.99999999999997" x1="51.70370868554658" y1="112.940952255126" stroke="#aaa" stroke-width="1" stroke-linecap="round"/>
<line x2="99.99999999999999" y2="150.0" x1="87.05904774487396" y1="148.2962913144534" stroke="#aaa" stroke-width="1" stroke-linecap="round"/>
<line x2="125.0" y2="143.30127018922192" x1="112.940952255126" y1="148.2962913144534" stroke="#aaa" stroke-width="1" stroke-linecap="round"/>
<line x2="135.35533905932738" y2="135.35533905932738" x1="125.0" y1="143.30127018922192" stroke="#aaa" stroke-width="1" stroke-linecap="round"/>
<line x2="143.30127018922192" y2="125.00000000000003" x1="135.35533905932738" y1="135.35533905932738" stroke="#aaa" stroke-width="1" stroke-linecap="round"/>
<line x2="150.0" y2="100.00000000000001" x1="148.2962913144534" y1="112.94095225512604" stroke="#aaa" stroke-width="1" stroke-linecap="round"/>
<line x2="135.35533905932743" y2="64.64466094067267" x1="143.3012701892219" y1="74.99999999999997" stroke="#aaa" stroke-width="1" stroke-linecap="round"/>
<line x2="124.99999999999999" y2="56.69872981077806" x1="135.35533905932743" y1="64.64466094067267" stroke="#aaa" stroke-width="1" stroke-linecap="round"/>
<line x2="89.64723819589916" y2="61.36296694843727" x1="100.0" y1="60.0" stroke="#aaa" stroke-width="1" stroke-linecap="round"/>
<line x2="71.7157287525381" y2="71.7157287525381" x1="80.0" y1="65.35898384862244" stroke="#aaa" stroke-width="1" stroke-linecap="round"/>
<line x2="65.35898384862247" y2="79.99999999999999" x1="71.7157287525381" y1="71.7157287525381" stroke="#aaa" stroke-width="1" stroke-linecap="round"/>
<line x2="60.0" y2="99.99999999999999" x1="61.36296694843727" y1="89.64723819589918" stroke="#aaa" stroke-width="1" stroke-linecap="round"/>
<line x2="71.7157287525381" y2="128.2842712474619" x1="65.35898384862244" y1="119.99999999999997" stroke="#aaa" stroke-width="1" stroke-linecap="round"/>
<line x2="80.00000000000001" y2="134.64101615137756" x1="71.7157287525381" y1="128.2842712474619" stroke="#aaa" stroke-width="1" stroke-linecap="round"/>
<line x2="99.99999999999999" y2="140.0" x1="89.64723819589918" y1="138.63703305156272" stroke="#aaa" stroke-width="1" stroke-linecap="round"/>
<line x2="110.35276180410081" y2="138.63703305156275" x1="99.99999999999999" y1="140.0" stroke="#aaa" stroke-width="1" stroke-linecap="round"/>
<line x2="120.0" y2="134.64101615137753" x1="110.35276180410081" y1="138.63703305156275" stroke="#aaa" stroke-width="1" stroke-linecap="round"/>
<line x2="134.64101615137753" y2="120.00000000000003" x1="128.2842712474619" y1="128.2842712474619" stroke="#aaa" stroke-width="1" stroke-linecap="round"/>
<line x2="140.0" y2="100.00000000000001" x1="138.63703305156272" y1="110.35276180410084" stroke="#aaa" stroke-width="1" stroke-linecap="round"/>
<line x2="138.63703305156275" y2="89.64723819589919" x1="140.0" y1="100.00000000000001" stroke="#aaa" stroke-width="1" stroke-linecap="round"/>
<line x2="128.28427124746193" y2="71.71572875253813" x1="134.64101615137753" y1="79.99999999999997" stroke="#aaa" stroke-width="1" stroke-linecap="round"/>
<line x2="110.35276180410084" y2="61.36296694843727" x1="120.0" y1="65.35898384862244" stroke="#aaa" stroke-width="1" stroke-linecap="round"/>
<line x2="107.76457135307562" y2="71.02222521132795" x1="100.0" y1="70.0" stroke="#aaa" stroke-width="1" stroke-linecap="round"/>
<line x2="85.0" y2="74.01923788646684" x1="92.23542864692438" y1="71.02222521132795" stroke="#aaa" stroke-width="1" stroke-linecap="round"/>
<line x2="74.01923788646684" y2="84.99999999999999" x1="78.78679656440357" y1="78.78679656440357" stroke="#aaa" stroke-width="1" stroke-linecap="round"/>
<line x2="70.0" y2="100.0" x1="71.02222521132795" y1="92.23542864692438" stroke="#aaa" stroke-width="1" stroke-linecap="round"/>
<line x2="71.02222521132795" y2="107.76457135307561" x1="70.0" y1="100.0" stroke="#aaa" stroke-width="1" stroke-linecap="round"/>
<line x2="74.01923788646683" y2="114.99999999999997" x1="71.02222521132795" y1="107.76457135307561" stroke="#aaa" stroke-width="1" stroke-linecap="round"/>
<line x2="92.23542864692438" y2="128.97777478867204" x1="85.00000000000001" y1="125.98076211353316" stroke="#aaa" stroke-width="1" stroke-linecap="round"/>
<line x2="99.99999999999999" y2="130.0" x1="92.23542864692438" y1="128.97777478867204" stroke="#aaa" stroke-width="1" stroke-linecap="round"/>
<line x2="115.0" y2="125.98076211353316" x1="107.76457135307561" y1="128.97777478867206" stroke="#aaa" stroke-width="1" stroke-linecap="round"/>
<line x2="121.21320343559643" y2="121.21320343559643" x1="115.0" y1="125.98076211353316" stroke="#aaa" stroke-width="1" stroke-linecap="round"/>
<line x2="125.98076211353316" y2="115.00000000000001" x1="121.21320343559643" y1="121.21320343559643" stroke="#aaa" stroke-width="1" stroke-linecap="round"/>
<line x2="130.0" y2="100.00000000000001" x1="128.97777478867204" y1="107.76457135307562" stroke="#aaa" stroke-width="1" stroke-linecap="round"/>
<line x2="128.97777478867206" y2="92.23542864692439" x1="130.0" y1="100.00000000000001" stroke="#aaa" stroke-width="1" stroke-linecap="round"/>
<line x2="107.76457135307562" y2="71.02222521132795" x1="115.0" y1="74.01923788646684" stroke="#aaa" stroke-width="1" stroke-linecap="round"/>
<line x2="94.82361909794959" y2="80.68148347421864" x1="100.0" y1="80.0" stroke="#aaa" stroke-width="1" stroke-linecap="round"/>
<line x2="100.0" y2="90.0" x1="100.0" y1="80.0" stroke="#aaa" stroke-width="1" stroke-linecap="round"/>
<line x2="90.0" y2="82.67949192431122" x1="94.82361909794959" y1="80.68148347421864" stroke="#aaa" stroke-width="1" stroke-linecap="round"/>
<line x2="97.41180954897479" y2="90.34074173710931" x1="94.82361909794959" y1="80.68148347421864" stroke="#aaa" stroke-width="1" stroke-linecap="round"/>
<line x2="85.85786437626905" y2="85.85786437626905" x1="90.0" y1="82.67949192431122" stroke="#aaa" stroke-width="1" stroke-linecap="round"/>
<line x2="95.0" y2="91.3397459621556" x1="90.0" y1="82.67949192431122" stroke="#aaa" stroke-width="1" stroke-linecap="round"/>
<line x2="82.67949192431124" y2="89.99999999999999" x1="85.85786437626905" y1="85.85786437626905" stroke="#aaa" stroke-width="1" stroke-linecap="round"/>
<line x2="92.92893218813452" y2="92.92893218813452" x1="85.85786437626905" y1="85.85786437626905" stroke="#aaa" stroke-width="1" stroke-linecap="round"/>
<line x2="80.68148347421864" y2="94.82361909794959" x1="82.67949192431124" y1="89.99999999999999" stroke="#aaa" stroke-width="1" stroke-linecap="round"/>
<line x2="91.33974596215562" y2="95.0" x1="82.67949192431124" y1="89.99999999999999" stroke="#aaa" stroke-width="1" stroke-linecap="round"/>
<line x2="90.34074173710931" y2="97.41180954897479" x1="80.68148347421864" y1="94.82361909794959" stroke="#aaa" stroke-width="1" stroke-linecap="round"/>
<line x2="80.0" y2="100.0" x1="80.68148347421864" y1="94.82361909794959" stroke="#aaa" stroke-width="1" stroke-linecap="round"/>
<line x2="80.68148347421862" y2="105.17638090205041" x1="80.0" y1="100.0" stroke="#aaa" stroke-width="1" stroke-linecap="round"/>
<line x2="90.0" y2="100.0" x1="80.0" y1="100.0" stroke="#aaa" stroke-width="1" stroke-linecap="round"/>
<line x2="90.34074173710931" y2="102.5881904510252" x1="80.68148347421862" y1="105.17638090205041" stroke="#aaa" stroke-width="1" stroke-linecap="round"/>
<line x2="82.67949192431122" y2="109.99999999999999" x1="80.68148347421862" y1="105.17638090205041" stroke="#aaa" stroke-width="1" stroke-linecap="round"/>
<line x2="91.3397459621556" y2="105.0" x1="82.67949192431122" y1="109.99999999999999" stroke="#aaa" stroke-width="1" stroke-linecap="round"/>
<line x2="85.85786437626905" y2="114.14213562373095" x1="82.67949192431122" y1="109.99999999999999" stroke="#aaa" stroke-width="1" stroke-linecap="round"/>
<line x2="92.92893218813452" y2="107.07106781186548" x1="85.85786437626905" y1="114.14213562373095" stroke="#aaa" stroke-width="1" stroke-linecap="round"/>
<line x2="90.0" y2="117.32050807568878" x1="85.85786437626905" y1="114.14213562373095" stroke="#aaa" stroke-width="1" stroke-linecap="round"/>
<line x2="95.0" y2="108.6602540378444" x1="90.0" y1="117.32050807568878" stroke="#aaa" stroke-width="1" stroke-linecap="round"/>
<line x2="94.82361909794959" y2="119.31851652578136" x1="90.0" y1="117.32050807568878" stroke="#aaa" stroke-width="1" stroke-linecap="round"/>
<line x2="97.41180954897479" y2="109.65925826289069" x1="94.82361909794959" y1="119.31851652578136" stroke="#aaa" stroke-width="1" stroke-linecap="round"/>
<line x2="100.0" y2="120.0" x1="94.82361909794959" y1="119.31851652578136" stroke="#aaa" stroke-width="1" stroke-linecap="round"/>
<line x2="100.0" y2="110.0" x1="100.0" y1="120.0" stroke="#aaa" stroke-width="1" stroke-linecap="round"/>
<line x2="105.17638090205041" y2="119.31851652578138" x1="100.0" y1="120.0" stroke="#aaa" stroke-width="1" stroke-linecap="round"/>
<line x2="102.5881904510252" y2="109.65925826289069" x1="105.17638090205041" y1="119.31851652578138" stroke="#aaa" stroke-width="1" stroke-linecap="round"/>
<line x2="110.0" y2="117.32050807568876" x1="105.17638090205041" y1="119.31851652578138" stroke="#aaa" stroke-width="1" stroke-linecap="round"/>
<line x2="114.14213562373095" y2="114.14213562373095" x1="110.0" y1="117.32050807568876" stroke="#aaa" stroke-width="1" stroke-linecap="round"/>
<line x2="105.0" y2="108.66025403784438" x1="110.0" y1="117.32050807568876" stroke="#aaa" stroke-width="1" stroke-linecap="round"/>
<line x2="107.07106781186548" y2="107.07106781186548" x1="114.14213562373095" y1="114.14213562373095" stroke="#aaa" stroke-width="1" stroke-linecap="round"/>
<line x2="117.32050807568876" y2="110.00000000000001" x1="114.14213562373095" y1="114.14213562373095" stroke="#aaa" stroke-width="1" stroke-linecap="round"/>
<line x2="119.31851652578136" y2="105.17638090205041" x1="117.32050807568876" y1="110.00000000000001" stroke="#aaa" stroke-width="1" stroke-linecap="round"/>
<line x2="108.66025403784438" y2="105.0" x1="117.32050807568876" y1="110.00000000000001" stroke="#aaa" stroke-width="1" stroke-linecap="round"/>
<line x2="109.65925826289069" y2="102.58819045102521" x1="119.31851652578136" y1="105.17638090205041" stroke="#aaa" stroke-width="1" stroke-linecap="round"/>
<line x2="120.0" y2="100.0" x1="119.31851652578136" y1="105.17638090205041" stroke="#aaa" stroke-width="1" stroke-linecap="round"/>
<line x2="110.0" y2="100.0" x1="120.0" y1="100.0" stroke="#aaa" stroke-width="1" stroke-linecap="round"/>
<line x2="119.31851652578138" y2="94.8236190979496" x1="120.0" y1="100.0" stroke="#aaa" stroke-width="1" stroke-linecap="round"/>
<line x2="117.32050807568876" y2="89.99999999999999" x1="119.31851652578138" y1="94.8236190979496" stroke="#aaa" stroke-width="1" stroke-linecap="round"/>
<line x2="109.65925826289069" y2="97.4118095489748" x1="119.31851652578138" y1="94.8236190979496" stroke="#aaa" stroke-width="1" stroke-linecap="round"/>
<line x2="108.66025403784438" y2="95.0" x1="117.32050807568876" y1="89.99999999999999" stroke="#aaa" stroke-width="1" stroke-linecap="round"/>
<line x2="114.14213562373097" y2="85.85786437626906" x1="117.32050807568876" y1="89.99999999999999" stroke="#aaa" stroke-width="1" stroke-linecap="round"/>
<line x2="110.0" y2="82.67949192431122" x1="114.14213562373097" y1="85.85786437626906" stroke="#aaa" stroke-width="1" stroke-linecap="round"/>
<line x2="107.07106781186549" y2="92.92893218813454" x1="114.14213562373097" y1="85.85786437626906" stroke="#aaa" stroke-width="1" stroke-linecap="round"/>
<line x2="105.17638090205041" y2="80.68148347421864" x1="110.0" y1="82.67949192431122" stroke="#aaa" stroke-width="1" stroke-linecap="round"/>
<line x2="105.0" y2="91.3397459621556" x1="110.0" y1="82.67949192431122" stroke="#aaa" stroke-width="1" stroke-linecap="round"/>
<line x2="102.58819045102521" y2="90.34074173710931" x1="105.17638090205041" y1="80.68148347421864" stroke="#aaa" stroke-width="1" stroke-linecap="round"/>
</svg>
