<svg viewBox="0 0 200 200" xmlns="http://www.w3.org/2000/svg">
<line x2="100.0" y2="100.0" x1="100.0" y1="100.0" stroke="#aaa" stroke-width="1" stroke-linecap="round"/>
<line x2="100.0" y2="100.0" x1="100.0" y1="100.0" stroke="#aaa" stroke-width="1" stroke-linecap="round"/>
<line x2="100" y2="100" x1="100.0" y1="100.0" stroke="#aaa" stroke-width="1" stroke-linecap="round"/>
<line x2="100" y2="100" x1="100.0" y1="112.85714285714286" stroke="#aaa" stroke-width="1" stroke-linecap="round"/>
<line x2="100" y2="100" x1="63.63450839612042" y1="63.63450839612041" stroke="#aaa" stroke-width="1" stroke-linecap="round"/>
<line x2="100" y2="100" x1="136.36549160387958" y1="136.3654916038796" stroke="#aaa" stroke-width="1" stroke-linecap="round"/>
<line x2="100" y2="100" x1="164.28571428571428" y1="100.00000000000001" stroke="#aaa" stroke-width="1" stroke-linecap="round"/>
<line x2="100" y2="100" x1="61.42857142857143" y1="100.0" stroke="#aaa" stroke-width="1" stroke-linecap="round"/>
<line x2="100" y2="100" x1="72.7258812970903" y1="127.27411870290969" stroke="#aaa" stroke-width="1" stroke-linecap="round"/>
<line x2="100" y2="100" x1="90.9086270990301" y1="90.9086270990301" stroke="#aaa" stroke-width="1" stroke-linecap="round"/>
<line x2="100" y2="100" x1="100.0" y1="100.0" stroke="#aaa" stroke-width="1" stroke-linecap="round"/>
<line x2="100" y2="100" x1="63.63450839612041" y1="136.36549160387958" stroke="#aaa" stroke-width="1" stroke-linecap="round"/>
<line x2="100" y2="100" x1="81.8172541980602" y1="118.18274580193979" stroke="#aaa" stroke-width="1" stroke-linecap="round"/>
<line x2="100" y2="100" x1="99.99999999999999" y1="138.57142857142856" stroke="#aaa" stroke-width="1" stroke-linecap="round"/>
<line x2="100" y2="100" x1="99.99999999999999" y1="164.28571428571428" stroke="#aaa" stroke-width="1" stroke-linecap="round"/>
<line x2="100" y2="100" x1="138.57142857142856" y1="100.00000000000001" stroke="#aaa" stroke-width="1" stroke-linecap="round"/>
<line x2="100" y2="100" x1="35.71428571428571" y1="99.99999999999999" stroke="#aaa" stroke-width="1" stroke-linecap="round"/>
<line x2="100" y2="100" x1="118.18274580193979" y1="118.1827458019398" stroke="#aaa" stroke-width="1" stroke-linecap="round"/>
<line x2="100" y2="100" x1="112.85714285714286" y1="100.0" stroke="#aaa" stroke-width="1" stroke-linecap="round"/>
<line x2="100" y2="100" x1="100.0" y1="100.0" stroke="#aaa" stroke-width="1" stroke-linecap="round"/>
<line x2="100" y2="100" x1="54.543135495150516" y1="54.5431354951505" stroke="#aaa" stroke-width="1" stroke-linecap="round"/>
<line x2="100" y2="100" x1="100.0" y1="87.14285714285714" stroke="#aaa" stroke-width="1" stroke-linecap="round"/>
<line x2="100" y2="100" x1="109.0913729009699" y1="90.90862709903011" stroke="#aaa" stroke-width="1" stroke-linecap="round"/>
<line x2="100.0" y2="100.0" x1="100.0" y1="100.0" stroke="#aaa" stroke-width="1" stroke-linecap="round"/>
<line x2="100.0" y2="100.0" x1="100.0" y1="100.0" stroke="#aaa" stroke-width="1" stroke-linecap="round"/>
<line x2="100.0" y2="100.0" x1="100.0" y1="100.0" stroke="#aaa" stroke-width="1" stroke-linecap="round"/>
<line x2="87.14285714285714" y2="100.0" x1="90.9086270990301" y1="90.9086270990301" stroke="#aaa" stroke-width="1" stroke-linecap="round"/>
<line x2="100.0" y2="112.85714285714286" x1="90.9086270990301" y1="109.0913729009699" stroke="#aaa" stroke-width="1" stroke-linecap="round"/>
<line x2="109.0913729009699" y2="109.0913729009699" x1="100.0" y1="112.85714285714286" stroke="#aaa" stroke-width="1" stroke-linecap="round"/>
<line x2="81.81725419806021" y2="81.8172541980602" x1="100.0" y1="74.28571428571429" stroke="#aaa" stroke-width="1" stroke-linecap="round"/>
<line x2="74.28571428571429" y2="100.0" x1="81.81725419806021" y1="81.8172541980602" stroke="#aaa" stroke-width="1" stroke-linecap="round"/>
<line x2="81.8172541980602" y2="118.18274580193979" x1="74.28571428571429" y1="100.0" stroke="#aaa" stroke-width="1" stroke-linecap="round"/>
<line x2="118.18274580193979" y2="118.1827458019398" x1="100.0" y1="125.71428571428571" stroke="#aaa" stroke-width="1" stroke-linecap="round"/>
<line x2="125.71428571428571" y2="100.00000000000001" x1="118.18274580193979" y1="118.1827458019398" stroke="#aaa" stroke-width="1" stroke-linecap="round"/>
<line x2="118.18274580193982" y2="81.81725419806023" x1="125.71428571428571" y1="100.00000000000001" stroke="#aaa" stroke-width="1" stroke-linecap="round"/>
<line x2="127.27411870290972" y2="72.72588129709034" x1="100.0" y1="61.42857142857143" stroke="#aaa" stroke-width="1" stroke-linecap="round"/>
<line x2="72.72588129709031" y2="72.7258812970903" x1="100.0" y1="61.42857142857143" stroke="#aaa" stroke-width="1" stroke-linecap="round"/>
<line x2="127.27411870290967" y2="127.2741187029097" x1="99.99999999999999" y1="138.57142857142856" stroke="#aaa" stroke-width="1" stroke-linecap="round"/>
<line x2="127.27411870290972" y2="72.72588129709034" x1="138.57142857142856" y1="100.00000000000001" stroke="#aaa" stroke-width="1" stroke-linecap="round"/>
<line x2="136.36549160387963" y2="63.63450839612046" x1="100.0" y1="48.57142857142858" stroke="#aaa" stroke-width="1" stroke-linecap="round"/>
<line x2="63.63450839612041" y2="136.36549160387958" x1="48.57142857142858" y1="99.99999999999999" stroke="#aaa" stroke-width="1" stroke-linecap="round"/>
<line x2="99.99999999999999" y2="151.42857142857142" x1="63.63450839612041" y1="136.36549160387958" stroke="#aaa" stroke-width="1" stroke-linecap="round"/>
<line x2="151.42857142857142" y2="100.00000000000001" x1="136.36549160387958" y1="136.3654916038796" stroke="#aaa" stroke-width="1" stroke-linecap="round"/>
<line x2="136.36549160387963" y2="63.63450839612046" x1="151.42857142857142" y1="100.00000000000001" stroke="#aaa" stroke-width="1" stroke-linecap="round"/>
<line x2="145.45686450484953" y2="54.543135495150565" x1="100.00000000000001" y1="35.71428571428571" stroke="#aaa" stroke-width="1" stroke-linecap="round"/>
<line x2="54.5431354951505" y2="145.45686450484948" x1="35.71428571428571" y1="99.99999999999999" stroke="#aaa" stroke-width="1" stroke-linecap="round"/>
<line x2="145.45686450484948" y2="145.4568645048495" x1="99.99999999999999" y1="164.28571428571428" stroke="#aaa" stroke-width="1" stroke-linecap="round"/>
<line x2="145.45686450484953" y2="54.543135495150565" x1="164.28571428571428" y1="100.00000000000001" stroke="#aaa" stroke-width="1" stroke-linecap="round"/>
<line x2="100.00000000000001" y2="10.0" x1="100.00000000000001" y1="22.85714285714286" stroke="#aaa" stroke-width="1" stroke-linecap="round"/>
<line x2="154.54823740581944" y2="45.451762594180686" x1="100.00000000000001" y1="22.85714285714286" stroke="#aaa" stroke-width="1" stroke-linecap="round"/>
<line x2="22.85714285714286" y2="99.99999999999999" x1="45.45176259418063" y1="45.45176259418061" stroke="#aaa" stroke-width="1" stroke-linecap="round"/>
<line x2="36.36038969321073" y2="36.360389693210706" x1="45.45176259418063" y1="45.45176259418061" stroke="#aaa" stroke-width="1" stroke-linecap="round"/>
<line x2="45.45176259418061" y2="154.54823740581938" x1="22.85714285714286" y1="99.99999999999999" stroke="#aaa" stroke-width="1" stroke-linecap="round"/>
<line x2="10.0" y2="99.99999999999999" x1="22.85714285714286" y1="99.99999999999999" stroke="#aaa" stroke-width="1" stroke-linecap="round"/>
<line x2="99.99999999999999" y2="177.14285714285714" x1="45.45176259418061" y1="154.54823740581938" stroke="#aaa" stroke-width="1" stroke-linecap="round"/>
<line x2="36.360389693210706" y2="163.63961030678928" x1="45.45176259418061" y1="154.54823740581938" stroke="#aaa" stroke-width="1" stroke-linecap="round"/>
<line x2="154.54823740581935" y2="154.5482374058194" x1="99.99999999999999" y1="177.14285714285714" stroke="#aaa" stroke-width="1" stroke-linecap="round"/>
<line x2="99.99999999999997" y2="190.0" x1="99.99999999999999" y1="177.14285714285714" stroke="#aaa" stroke-width="1" stroke-linecap="round"/>
<line x2="177.14285714285714" y2="100.00000000000003" x1="154.54823740581935" y1="154.5482374058194" stroke="#aaa" stroke-width="1" stroke-linecap="round"/>
<line x2="163.63961030678925" y2="163.63961030678928" x1="154.54823740581935" y1="154.5482374058194" stroke="#aaa" stroke-width="1" stroke-linecap="round"/>
<line x2="154.54823740581944" y2="45.451762594180686" x1="177.14285714285714" y1="100.00000000000003" stroke="#aaa" stroke-width="1" stroke-linecap="round"/>
<line x2="190.0" y2="100.00000000000003" x1="177.14285714285714" y1="100.00000000000003" stroke="#aaa" stroke-width="1" stroke-linecap="round"/>
<line x2="163.63961030678934" y2="36.3603896932108" x1="154.54823740581944" y1="45.451762594180686" stroke="#aaa" stroke-width="1" stroke-linecap="round"/>
</svg>
