<svg viewBox="0 0 200 200" xmlns="http://www.w3.org/2000/svg">
<line x2="100" y2="100" x1="100.0" y1="100.0" stroke="#aaa" stroke-width="1" stroke-linecap="round"/>
<line x2="100.0" y2="100.0" x1="100.0" y1="100.0" stroke="#aaa" stroke-width="1" stroke-linecap="round"/>
<line x2="100" y2="100" x1="100.0" y1="100.0" stroke="#aaa" stroke-width="1" stroke-linecap="round"/>
<line x2="100" y2="100" x1="123.4549444740409" y1="81.29530594423801" stroke="#aaa" stroke-width="1" stroke-linecap="round"/>
<line x2="100" y2="100" x1="100.0" y1="100.0" stroke="#aaa" stroke-width="1" stroke-linecap="round"/>
<line x2="100" y2="100" x1="86.98348782647325" y1="127.02906603707257" stroke="#aaa" stroke-width="1" stroke-linecap="round"/>
<line x2="100" y2="100" x1="100.0" y1="100.0" stroke="#aaa" stroke-width="1" stroke-linecap="round"/>
<line x2="100" y2="100" x1="70.7521626345453" y1="93.32437198131056" stroke="#aaa" stroke-width="1" stroke-linecap="round"/>
<line x2="100" y2="100" x1="76.54505552595911" y1="81.29530594423798" stroke="#aaa" stroke-width="1" stroke-linecap="round"/>
<line x2="100" y2="100" x1="100.0" y1="100.0" stroke="#aaa" stroke-width="1" stroke-linecap="round"/>
<line x2="100" y2="100" x1="100.0" y1="100.0" stroke="#aaa" stroke-width="1" stroke-linecap="round"/>
<line x2="100" y2="100" x1="129.2478373654547" y1="106.67562801868944" stroke="#aaa" stroke-width="1" stroke-linecap="round"/>
<line x2="100" y2="100" x1="113.01651217352675" y1="72.97093396292743" stroke="#aaa" stroke-width="1" stroke-linecap="round"/>
<line x2="100" y2="100" x1="70.7521626345453" y1="106.67562801868942" stroke="#aaa" stroke-width="1" stroke-linecap="round"/>
<line x2="100.0" y2="100.0" x1="100.0" y1="100.0" stroke="#aaa" stroke-width="1" stroke-linecap="round"/>
<line x2="100.0" y2="100.0" x1="100.0" y1="100.0" stroke="#aaa" stroke-width="1" stroke-linecap="round"/>
<line x2="100.0" y2="100.0" x1="100.0" y1="100.0" stroke="#aaa" stroke-width="1" stroke-linecap="round"/>
<line x2="100.0" y2="100.0" x1="100.0" y1="100.0" stroke="#aaa" stroke-width="1" stroke-linecap="round"/>
<line x2="100.0" y2="100.0" x1="100.0" y1="100.0" stroke="#aaa" stroke-width="1" stroke-linecap="round"/>
<line x2="100.0" y2="100.0" x1="100.0" y1="100.0" stroke="#aaa" stroke-width="1" stroke-linecap="round"/>
<line x2="100.0" y2="100.0" x1="100.0" y1="100.0" stroke="#aaa" stroke-width="1" stroke-linecap="round"/>
<line x2="86.98348782647327" y2="72.97093396292743" x1="100.0" y1="70.0" stroke="#aaa" stroke-width="1" stroke-linecap="round"/>
<line x2="76.54505552595911" y2="81.29530594423798" x1="86.98348782647327" y1="72.97093396292743" stroke="#aaa" stroke-width="1" stroke-linecap="round"/>
<line x2="86.98348782647325" y2="127.02906603707257" x1="76.5450555259591" y1="118.704694055762" stroke="#aaa" stroke-width="1" stroke-linecap="round"/>
<line x2="99.99999999999999" y2="130.0" x1="86.98348782647325" y1="127.02906603707257" stroke="#aaa" stroke-width="1" stroke-linecap="round"/>
<line x2="113.01651217352673" y2="127.02906603707258" x1="99.99999999999999" y1="130.0" stroke="#aaa" stroke-width="1" stroke-linecap="round"/>
<line x2="123.45494447404089" y2="118.70469405576202" x1="113.01651217352673" y1="127.02906603707258" stroke="#aaa" stroke-width="1" stroke-linecap="round"/>
<line x2="129.2478373654547" y2="93.32437198131058" x1="129.2478373654547" y1="106.67562801868944" stroke="#aaa" stroke-width="1" stroke-linecap="round"/>
<line x2="73.96697565294652" y2="45.94186792585485" x1="100.00000000000001" y1="40.0" stroke="#aaa" stroke-width="1" stroke-linecap="round"/>
<line x2="100.00000000000001" y2="10.0" x1="100.00000000000001" y1="40.0" stroke="#aaa" stroke-width="1" stroke-linecap="round"/>
<line x2="126.03302434705351" y2="45.941867925854865" x1="100.00000000000001" y1="40.0" stroke="#aaa" stroke-width="1" stroke-linecap="round"/>
<line x2="60.95046347941978" y2="18.912801888782283" x1="73.96697565294652" y1="45.94186792585485" stroke="#aaa" stroke-width="1" stroke-linecap="round"/>
<line x2="53.09011105191822" y2="62.590611888475976" x1="73.96697565294652" y1="45.94186792585485" stroke="#aaa" stroke-width="1" stroke-linecap="round"/>
<line x2="29.635166577877328" y2="43.885917832713965" x1="53.09011105191822" y1="62.590611888475976" stroke="#aaa" stroke-width="1" stroke-linecap="round"/>
<line x2="41.504325269090586" y2="86.64874396262113" x1="53.09011105191822" y1="62.590611888475976" stroke="#aaa" stroke-width="1" stroke-linecap="round"/>
<line x2="12.256487903635886" y2="79.97311594393169" x1="41.504325269090586" y1="86.64874396262113" stroke="#aaa" stroke-width="1" stroke-linecap="round"/>
<line x2="12.256487903635872" y2="120.02688405606827" x1="41.504325269090586" y1="113.35125603737885" stroke="#aaa" stroke-width="1" stroke-linecap="round"/>
<line x2="53.09011105191821" y2="137.409388111524" x1="41.504325269090586" y1="113.35125603737885" stroke="#aaa" stroke-width="1" stroke-linecap="round"/>
<line x2="29.635166577877314" y2="156.114082167286" x1="53.09011105191821" y1="137.409388111524" stroke="#aaa" stroke-width="1" stroke-linecap="round"/>
<line x2="73.9669756529465" y2="154.05813207414513" x1="53.09011105191821" y1="137.409388111524" stroke="#aaa" stroke-width="1" stroke-linecap="round"/>
<line x2="60.95046347941975" y2="181.08719811121773" x1="73.9669756529465" y1="154.05813207414513" stroke="#aaa" stroke-width="1" stroke-linecap="round"/>
<line x2="99.99999999999999" y2="160.0" x1="73.9669756529465" y1="154.05813207414513" stroke="#aaa" stroke-width="1" stroke-linecap="round"/>
<line x2="126.03302434705347" y2="154.05813207414516" x1="99.99999999999999" y1="160.0" stroke="#aaa" stroke-width="1" stroke-linecap="round"/>
<line x2="99.99999999999997" y2="190.0" x1="99.99999999999999" y1="160.0" stroke="#aaa" stroke-width="1" stroke-linecap="round"/>
<line x2="139.0495365205802" y2="181.08719811121773" x1="126.03302434705347" y1="154.05813207414516" stroke="#aaa" stroke-width="1" stroke-linecap="round"/>
<line x2="146.90988894808177" y2="137.40938811152404" x1="126.03302434705347" y1="154.05813207414516" stroke="#aaa" stroke-width="1" stroke-linecap="round"/>
<line x2="170.36483342212267" y2="156.11408216728603" x1="146.90988894808177" y1="137.40938811152404" stroke="#aaa" stroke-width="1" stroke-linecap="round"/>
<line x2="158.4956747309094" y2="113.35125603737887" x1="146.90988894808177" y1="137.40938811152404" stroke="#aaa" stroke-width="1" stroke-linecap="round"/>
<line x2="158.49567473090943" y2="86.64874396262115" x1="158.4956747309094" y1="113.35125603737887" stroke="#aaa" stroke-width="1" stroke-linecap="round"/>
<line x2="187.7435120963641" y2="120.02688405606833" x1="158.4956747309094" y1="113.35125603737887" stroke="#aaa" stroke-width="1" stroke-linecap="round"/>
<line x2="146.9098889480818" y2="62.590611888476005" x1="158.49567473090943" y1="86.64874396262115" stroke="#aaa" stroke-width="1" stroke-linecap="round"/>
<line x2="187.74351209636416" y2="79.97311594393173" x1="158.49567473090943" y1="86.64874396262115" stroke="#aaa" stroke-width="1" stroke-linecap="round"/>
<line x2="170.3648334221227" y2="43.88591783271401" x1="146.9098889480818" y1="62.590611888476005" stroke="#aaa" stroke-width="1" stroke-linecap="round"/>
<line x2="126.03302434705351" y2="45.941867925854865" x1="146.9098889480818" y1="62.590611888476005" stroke="#aaa" stroke-width="1" stroke-linecap="round"/>
<line x2="139.04953652058026" y2="18.912801888782298" x1="126.03302434705351" y1="45.941867925854865" stroke="#aaa" stroke-width="1" stroke-linecap="round"/>
</svg>
