<svg viewBox="0 0 200 200" xmlns="http://www.w3.org/2000/svg">
<line x2="100" y2="100" x1="100.0" y1="50.0" stroke="#aaa" stroke-width="1" stroke-linecap="round"/>
<line x2="72.96795912722013" y2="57.93732335844094" x1="85.91337215792853" y1="52.025351319275124" stroke="#aaa" stroke-width="1" stroke-linecap="round"/>
<line x2="100" y2="100" x1="116.21922452366792" y1="74.76239401506456" stroke="#aaa" stroke-width="1" stroke-linecap="round"/>
<line x2="100" y2="100" x1="145.4815997677259" y1="120.77075065009437" stroke="#aaa" stroke-width="1" stroke-linecap="round"/>
<line x2="100" y2="100" x1="139.59285767523733" y1="94.30740646906861" stroke="#aaa" stroke-width="1" stroke-linecap="round"/>
<line x2="100" y2="100" x1="114.0866278420715" y1="52.02535131927513" stroke="#aaa" stroke-width="1" stroke-linecap="round"/>
<line x2="100" y2="100" x1="88.73069772634281" y1="138.3797189445799" stroke="#aaa" stroke-width="1" stroke-linecap="round"/>
<line x2="100" y2="100" x1="72.71104013936444" y1="112.46245039005657" stroke="#aaa" stroke-width="1" stroke-linecap="round"/>
<line x2="100" y2="100" x1="91.54802329475712" y1="128.78478920843492" stroke="#aaa" stroke-width="1" stroke-linecap="round"/>
<line x2="100" y2="100" x1="88.73069772634283" y1="61.6202810554201" stroke="#aaa" stroke-width="1" stroke-linecap="round"/>
<line x2="100" y2="100" x1="127.03204087277986" y1="142.06267664155908" stroke="#aaa" stroke-width="1" stroke-linecap="round"/>
<line x2="100" y2="100" x1="72.96795912722013" y1="142.06267664155905" stroke="#aaa" stroke-width="1" stroke-linecap="round"/>
<line x2="100" y2="100" x1="130.22998297417033" y1="73.8055706421886" stroke="#aaa" stroke-width="1" stroke-linecap="round"/>
<line x2="100" y2="100" x1="78.37436730177609" y1="66.34985868675275" stroke="#aaa" stroke-width="1" stroke-linecap="round"/>
<line x2="100" y2="100" x1="114.08662784207147" y1="147.97464868072487" stroke="#aaa" stroke-width="1" stroke-linecap="round"/>
<line x2="100" y2="100" x1="70.30535674357202" y1="95.73055485180144" stroke="#aaa" stroke-width="1" stroke-linecap="round"/>
<line x2="100" y2="100" x1="85.9133721579285" y1="147.97464868072487" stroke="#aaa" stroke-width="1" stroke-linecap="round"/>
<line x2="100" y2="100" x1="129.69464325642798" y1="95.73055485180146" stroke="#aaa" stroke-width="1" stroke-linecap="round"/>
<line x2="100" y2="100" x1="78.3743673017761" y1="133.65014131324725" stroke="#aaa" stroke-width="1" stroke-linecap="round"/>
<line x2="100" y2="100" x1="149.49107209404664" y1="107.11574191366427" stroke="#aaa" stroke-width="1" stroke-linecap="round"/>
<line x2="100" y2="100" x1="116.21922452366792" y1="125.23760598493544" stroke="#aaa" stroke-width="1" stroke-linecap="round"/>
<line x2="100" y2="100" x1="60.40714232476269" y1="105.69259353093139" stroke="#aaa" stroke-width="1" stroke-linecap="round"/>
<line x2="100" y2="100" x1="108.4519767052429" y1="71.21521079156508" stroke="#aaa" stroke-width="1" stroke-linecap="round"/>
<line x2="100" y2="100" x1="72.71104013936444" y1="87.53754960994341" stroke="#aaa" stroke-width="1" stroke-linecap="round"/>
<line x2="100" y2="100" x1="111.26930227365717" y1="138.3797189445799" stroke="#aaa" stroke-width="1" stroke-linecap="round"/>
<line x2="100" y2="100" x1="54.518400232274075" y1="79.22924934990569" stroke="#aaa" stroke-width="1" stroke-linecap="round"/>
<line x2="100" y2="100" x1="62.21252128228709" y1="67.25696330273574" stroke="#aaa" stroke-width="1" stroke-linecap="round"/>
<line x2="100" y2="100" x1="83.78077547633208" y1="74.76239401506456" stroke="#aaa" stroke-width="1" stroke-linecap="round"/>
<line x2="100" y2="100" x1="108.45197670524288" y1="128.78478920843492" stroke="#aaa" stroke-width="1" stroke-linecap="round"/>
<line x2="100" y2="100" x1="122.67248723062772" y1="119.64582201835857" stroke="#aaa" stroke-width="1" stroke-linecap="round"/>
<line x2="62.21252128228709" y2="67.25696330273574" x1="72.96795912722013" y1="57.93732335844094" stroke="#aaa" stroke-width="1" stroke-linecap="round"/>
<line x2="50.508927905953364" y2="92.88425808633573" x1="54.518400232274075" y1="79.22924934990569" stroke="#aaa" stroke-width="1" stroke-linecap="round"/>
<line x2="50.50892790595336" y2="107.11574191366424" x1="50.508927905953364" y1="92.88425808633573" stroke="#aaa" stroke-width="1" stroke-linecap="round"/>
<line x2="62.21252128228709" y2="132.74303669726424" x1="54.518400232274075" y1="120.7707506500943" stroke="#aaa" stroke-width="1" stroke-linecap="round"/>
<line x2="72.96795912722013" y2="142.06267664155905" x1="62.21252128228709" y1="132.74303669726424" stroke="#aaa" stroke-width="1" stroke-linecap="round"/>
<line x2="99.99999999999999" y2="150.0" x1="85.9133721579285" y1="147.97464868072487" stroke="#aaa" stroke-width="1" stroke-linecap="round"/>
<line x2="137.78747871771287" y2="132.74303669726427" x1="127.03204087277986" y1="142.06267664155908" stroke="#aaa" stroke-width="1" stroke-linecap="round"/>
<line x2="149.49107209404664" y2="92.88425808633576" x1="149.49107209404664" y1="107.11574191366427" stroke="#aaa" stroke-width="1" stroke-linecap="round"/>
<line x2="145.48159976772592" y2="79.22924934990567" x1="149.49107209404664" y1="92.88425808633576" stroke="#aaa" stroke-width="1" stroke-linecap="round"/>
<line x2="137.7874787177129" y2="67.25696330273574" x1="145.48159976772592" y1="79.22924934990567" stroke="#aaa" stroke-width="1" stroke-linecap="round"/>
<line x2="127.03204087277987" y2="57.93732335844094" x1="137.7874787177129" y1="67.25696330273574" stroke="#aaa" stroke-width="1" stroke-linecap="round"/>
<line x2="111.26930227365719" y2="61.62028105542011" x1="100.0" y1="60.0" stroke="#aaa" stroke-width="1" stroke-linecap="round"/>
<line x2="88.73069772634283" y2="61.6202810554201" x1="100.0" y1="60.0" stroke="#aaa" stroke-width="1" stroke-linecap="round"/>
<line x2="69.77001702582967" y2="73.8055706421886" x1="78.37436730177609" y1="66.34985868675275" stroke="#aaa" stroke-width="1" stroke-linecap="round"/>
<line x2="60.407142324762695" y2="94.3074064690686" x1="63.614720185819266" y1="83.38339947992455" stroke="#aaa" stroke-width="1" stroke-linecap="round"/>
<line x2="60.40714232476269" y2="105.69259353093139" x1="60.407142324762695" y1="94.3074064690686" stroke="#aaa" stroke-width="1" stroke-linecap="round"/>
<line x2="63.61472018581926" y2="116.61660052007544" x1="60.40714232476269" y1="105.69259353093139" stroke="#aaa" stroke-width="1" stroke-linecap="round"/>
<line x2="69.77001702582967" y2="126.1944293578114" x1="63.61472018581926" y1="116.61660052007544" stroke="#aaa" stroke-width="1" stroke-linecap="round"/>
<line x2="111.26930227365717" y2="138.3797189445799" x1="99.99999999999999" y1="140.0" stroke="#aaa" stroke-width="1" stroke-linecap="round"/>
<line x2="121.62563269822388" y2="133.65014131324727" x1="111.26930227365717" y1="138.3797189445799" stroke="#aaa" stroke-width="1" stroke-linecap="round"/>
<line x2="130.2299829741703" y2="126.19442935781143" x1="121.62563269822388" y1="133.65014131324727" stroke="#aaa" stroke-width="1" stroke-linecap="round"/>
<line x2="139.5928576752373" y2="105.69259353093142" x1="136.3852798141807" y1="116.6166005200755" stroke="#aaa" stroke-width="1" stroke-linecap="round"/>
<line x2="139.59285767523733" y2="94.30740646906861" x1="139.5928576752373" y1="105.69259353093142" stroke="#aaa" stroke-width="1" stroke-linecap="round"/>
<line x2="130.22998297417033" y2="73.8055706421886" x1="136.38527981418073" y1="83.38339947992453" stroke="#aaa" stroke-width="1" stroke-linecap="round"/>
<line x2="121.62563269822391" y2="66.34985868675275" x1="130.22998297417033" y1="73.8055706421886" stroke="#aaa" stroke-width="1" stroke-linecap="round"/>
<line x2="108.4519767052429" y2="71.21521079156508" x1="100.0" y1="70.0" stroke="#aaa" stroke-width="1" stroke-linecap="round"/>
<line x2="83.78077547633208" y2="74.76239401506456" x1="91.54802329475712" y1="71.21521079156508" stroke="#aaa" stroke-width="1" stroke-linecap="round"/>
<line x2="72.71104013936444" y2="87.53754960994341" x1="77.32751276937225" y1="80.35417798164144" stroke="#aaa" stroke-width="1" stroke-linecap="round"/>
<line x2="70.30535674357202" y2="104.26944514819854" x1="70.30535674357202" y1="95.73055485180144" stroke="#aaa" stroke-width="1" stroke-linecap="round"/>
<line x2="83.78077547633208" y2="125.23760598493544" x1="77.32751276937225" y1="119.64582201835856" stroke="#aaa" stroke-width="1" stroke-linecap="round"/>
<line x2="91.54802329475712" y2="128.78478920843492" x1="83.78077547633208" y1="125.23760598493544" stroke="#aaa" stroke-width="1" stroke-linecap="round"/>
<line x2="99.99999999999999" y2="130.0" x1="91.54802329475712" y1="128.78478920843492" stroke="#aaa" stroke-width="1" stroke-linecap="round"/>
<line x2="129.69464325642798" y2="104.26944514819856" x1="127.28895986063554" y1="112.46245039005662" stroke="#aaa" stroke-width="1" stroke-linecap="round"/>
<line x2="129.69464325642798" y2="95.73055485180146" x1="129.69464325642798" y1="104.26944514819856" stroke="#aaa" stroke-width="1" stroke-linecap="round"/>
<line x2="122.67248723062775" y2="80.35417798164144" x1="127.28895986063554" y1="87.5375496099434" stroke="#aaa" stroke-width="1" stroke-linecap="round"/>
<line x2="116.21922452366792" y2="74.76239401506456" x1="122.67248723062775" y1="80.35417798164144" stroke="#aaa" stroke-width="1" stroke-linecap="round"/>
<line x2="100.0" y2="90.0" x1="100.0" y1="80.0" stroke="#aaa" stroke-width="1" stroke-linecap="round"/>
<line x2="94.3653488631714" y2="80.81014052771005" x1="100.0" y1="80.0" stroke="#aaa" stroke-width="1" stroke-linecap="round"/>
<line x2="89.18718365088804" y2="83.17492934337638" x1="94.3653488631714" y1="80.81014052771005" stroke="#aaa" stroke-width="1" stroke-linecap="round"/>
<line x2="97.18267443158571" y2="90.40507026385502" x1="94.3653488631714" y1="80.81014052771005" stroke="#aaa" stroke-width="1" stroke-linecap="round"/>
<line x2="94.59359182544402" y2="91.5874646716882" x1="89.18718365088804" y1="83.17492934337638" stroke="#aaa" stroke-width="1" stroke-linecap="round"/>
<line x2="84.88500851291484" y2="86.9027853210943" x1="89.18718365088804" y1="83.17492934337638" stroke="#aaa" stroke-width="1" stroke-linecap="round"/>
<line x2="81.80736009290963" y2="91.69169973996227" x1="84.88500851291484" y1="86.9027853210943" stroke="#aaa" stroke-width="1" stroke-linecap="round"/>
<line x2="92.44250425645743" y2="93.45139266054714" x1="84.88500851291484" y1="86.9027853210943" stroke="#aaa" stroke-width="1" stroke-linecap="round"/>
<line x2="90.90368004645481" y2="95.84584986998114" x1="81.80736009290963" y1="91.69169973996227" stroke="#aaa" stroke-width="1" stroke-linecap="round"/>
<line x2="80.20357116238135" y2="97.15370323453429" x1="81.80736009290963" y1="91.69169973996227" stroke="#aaa" stroke-width="1" stroke-linecap="round"/>
<line x2="80.20357116238134" y2="102.8462967654657" x1="80.20357116238135" y1="97.15370323453429" stroke="#aaa" stroke-width="1" stroke-linecap="round"/>
<line x2="90.10178558119067" y2="98.57685161726715" x1="80.20357116238135" y1="97.15370323453429" stroke="#aaa" stroke-width="1" stroke-linecap="round"/>
<line x2="81.80736009290963" y2="108.30830026003773" x1="80.20357116238134" y1="102.8462967654657" stroke="#aaa" stroke-width="1" stroke-linecap="round"/>
<line x2="90.10178558119067" y2="101.42314838273285" x1="80.20357116238134" y1="102.8462967654657" stroke="#aaa" stroke-width="1" stroke-linecap="round"/>
<line x2="84.88500851291484" y2="113.0972146789057" x1="81.80736009290963" y1="108.30830026003773" stroke="#aaa" stroke-width="1" stroke-linecap="round"/>
<line x2="90.90368004645481" y2="104.15415013001886" x1="81.80736009290963" y1="108.30830026003773" stroke="#aaa" stroke-width="1" stroke-linecap="round"/>
<line x2="92.44250425645743" y2="106.54860733945286" x1="84.88500851291484" y1="113.0972146789057" stroke="#aaa" stroke-width="1" stroke-linecap="round"/>
<line x2="89.18718365088804" y2="116.82507065662362" x1="84.88500851291484" y1="113.0972146789057" stroke="#aaa" stroke-width="1" stroke-linecap="round"/>
<line x2="94.3653488631714" y2="119.18985947228995" x1="89.18718365088804" y1="116.82507065662362" stroke="#aaa" stroke-width="1" stroke-linecap="round"/>
<line x2="94.59359182544402" y2="108.4125353283118" x1="89.18718365088804" y1="116.82507065662362" stroke="#aaa" stroke-width="1" stroke-linecap="round"/>
<line x2="97.1826744315857" y2="109.59492973614498" x1="94.3653488631714" y1="119.18985947228995" stroke="#aaa" stroke-width="1" stroke-linecap="round"/>
<line x2="100.0" y2="120.0" x1="94.3653488631714" y1="119.18985947228995" stroke="#aaa" stroke-width="1" stroke-linecap="round"/>
<line x2="100.0" y2="110.0" x1="100.0" y1="120.0" stroke="#aaa" stroke-width="1" stroke-linecap="round"/>
<line x2="105.63465113682858" y2="119.18985947228995" x1="100.0" y1="120.0" stroke="#aaa" stroke-width="1" stroke-linecap="round"/>
<line x2="110.81281634911194" y2="116.82507065662364" x1="105.63465113682858" y1="119.18985947228995" stroke="#aaa" stroke-width="1" stroke-linecap="round"/>
<line x2="102.81732556841429" y2="109.59492973614498" x1="105.63465113682858" y1="119.18985947228995" stroke="#aaa" stroke-width="1" stroke-linecap="round"/>
<line x2="115.11499148708515" y2="113.09721467890571" x1="110.81281634911194" y1="116.82507065662364" stroke="#aaa" stroke-width="1" stroke-linecap="round"/>
<line x2="105.40640817455598" y2="108.41253532831182" x1="110.81281634911194" y1="116.82507065662364" stroke="#aaa" stroke-width="1" stroke-linecap="round"/>
<line x2="107.55749574354257" y2="106.54860733945286" x1="115.11499148708515" y1="113.09721467890571" stroke="#aaa" stroke-width="1" stroke-linecap="round"/>
<line x2="118.19263990709035" y2="108.30830026003775" x1="115.11499148708515" y1="113.09721467890571" stroke="#aaa" stroke-width="1" stroke-linecap="round"/>
<line x2="119.79642883761865" y2="102.84629676546571" x1="118.19263990709035" y1="108.30830026003775" stroke="#aaa" stroke-width="1" stroke-linecap="round"/>
<line x2="109.09631995354518" y2="104.15415013001888" x1="118.19263990709035" y1="108.30830026003775" stroke="#aaa" stroke-width="1" stroke-linecap="round"/>
<line x2="119.79642883761866" y2="97.1537032345343" x1="119.79642883761865" y1="102.84629676546571" stroke="#aaa" stroke-width="1" stroke-linecap="round"/>
<line x2="109.89821441880933" y2="101.42314838273285" x1="119.79642883761865" y1="102.84629676546571" stroke="#aaa" stroke-width="1" stroke-linecap="round"/>
<line x2="109.89821441880933" y2="98.57685161726715" x1="119.79642883761866" y1="97.1537032345343" stroke="#aaa" stroke-width="1" stroke-linecap="round"/>
<line x2="118.19263990709037" y2="91.69169973996226" x1="119.79642883761866" y1="97.1537032345343" stroke="#aaa" stroke-width="1" stroke-linecap="round"/>
<line x2="115.11499148708516" y2="86.9027853210943" x1="118.19263990709037" y1="91.69169973996226" stroke="#aaa" stroke-width="1" stroke-linecap="round"/>
<line x2="109.09631995354518" y2="95.84584986998114" x1="118.19263990709037" y1="91.69169973996226" stroke="#aaa" stroke-width="1" stroke-linecap="round"/>
<line x2="110.81281634911196" y2="83.17492934337638" x1="115.11499148708516" y1="86.9027853210943" stroke="#aaa" stroke-width="1" stroke-linecap="round"/>
<line x2="107.55749574354257" y2="93.45139266054714" x1="115.11499148708516" y1="86.9027853210943" stroke="#aaa" stroke-width="1" stroke-linecap="round"/>
<line x2="105.40640817455598" y2="91.5874646716882" x1="110.81281634911196" y1="83.17492934337638" stroke="#aaa" stroke-width="1" stroke-linecap="round"/>
<line x2="105.6346511368286" y2="80.81014052771005" x1="110.81281634911196" y1="83.17492934337638" stroke="#aaa" stroke-width="1" stroke-linecap="round"/>
<line x2="102.8173255684143" y2="90.40507026385502" x1="105.6346511368286" y1="80.81014052771005" stroke="#aaa" stroke-width="1" stroke-linecap="round"/>
</svg>
