<svg viewBox="0 0 200 200" xmlns="http://www.w3.org/2000/svg">
<line x2="100.0" y2="100.0" x1="100.0" y1="100.0" stroke="#aaa" stroke-width="1" stroke-linecap="round"/>
<line x2="100" y2="100" x1="100.0" y1="100.0" stroke="#aaa" stroke-width="1" stroke-linecap="round"/>
<line x2="100" y2="100" x1="100.0" y1="100.0" stroke="#aaa" stroke-width="1" stroke-linecap="round"/>
<line x2="100" y2="100" x1="64.64466094067262" y1="64.64466094067262" stroke="#aaa" stroke-width="1" stroke-linecap="round"/>
<line x2="100" y2="100" x1="90.76120467488714" y1="103.8268343236509" stroke="#aaa" stroke-width="1" stroke-linecap="round"/>
<line x2="100" y2="100" x1="121.21320343559645" y1="78.7867965644036" stroke="#aaa" stroke-width="1" stroke-linecap="round"/>
<line x2="100" y2="100" x1="80.0" y1="100.0" stroke="#aaa" stroke-width="1" stroke-linecap="round"/>
<line x2="100" y2="100" x1="88.51949702904729" y1="127.7163859753386" stroke="#aaa" stroke-width="1" stroke-linecap="round"/>
<line x2="100" y2="100" x1="100.0" y1="100.0" stroke="#aaa" stroke-width="1" stroke-linecap="round"/>
<line x2="100" y2="100" x1="100.0" y1="100.0" stroke="#aaa" stroke-width="1" stroke-linecap="round"/>
<line x2="100" y2="100" x1="100.0" y1="100.0" stroke="#aaa" stroke-width="1" stroke-linecap="round"/>
<line x2="100" y2="100" x1="100.0" y1="100.0" stroke="#aaa" stroke-width="1" stroke-linecap="round"/>
<line x2="100" y2="100" x1="103.8268343236509" y1="109.23879532511287" stroke="#aaa" stroke-width="1" stroke-linecap="round"/>
<line x2="100" y2="100" x1="164.67156727579004" y1="126.78784026555633" stroke="#aaa" stroke-width="1" stroke-linecap="round"/>
<line x2="100" y2="100" x1="50.0" y1="99.99999999999999" stroke="#aaa" stroke-width="1" stroke-linecap="round"/>
<line x2="100" y2="100" x1="84.69266270539642" y1="63.04481869954853" stroke="#aaa" stroke-width="1" stroke-linecap="round"/>
<line x2="100" y2="100" x1="107.07106781186548" y1="107.07106781186548" stroke="#aaa" stroke-width="1" stroke-linecap="round"/>
<line x2="100" y2="100" x1="100.0" y1="90.0" stroke="#aaa" stroke-width="1" stroke-linecap="round"/>
<line x2="100" y2="100" x1="107.6536686473018" y1="118.47759065022574" stroke="#aaa" stroke-width="1" stroke-linecap="round"/>
<line x2="100" y2="100" x1="92.34633135269819" y1="118.47759065022572" stroke="#aaa" stroke-width="1" stroke-linecap="round"/>
<line x2="100" y2="100" x1="142.4264068711929" y1="57.5735931288072" stroke="#aaa" stroke-width="1" stroke-linecap="round"/>
<line x2="100" y2="100" x1="155.4327719506772" y1="77.0389940580946" stroke="#aaa" stroke-width="1" stroke-linecap="round"/>
<line x2="100" y2="100" x1="140.0" y1="100.00000000000001" stroke="#aaa" stroke-width="1" stroke-linecap="round"/>
<line x2="100" y2="100" x1="73.21215973444367" y1="164.67156727579004" stroke="#aaa" stroke-width="1" stroke-linecap="round"/>
<line x2="100" y2="100" x1="99.99999999999999" y1="160.0" stroke="#aaa" stroke-width="1" stroke-linecap="round"/>
<line x2="100" y2="100" x1="170.0" y1="100.00000000000003" stroke="#aaa" stroke-width="1" stroke-linecap="round"/>
<line x2="100" y2="100" x1="100.0" y1="100.0" stroke="#aaa" stroke-width="1" stroke-linecap="round"/>
<line x2="100" y2="100" x1="150.0" y1="100.00000000000001" stroke="#aaa" stroke-width="1" stroke-linecap="round"/>
<line x2="100" y2="100" x1="146.19397662556435" y1="80.8658283817455" stroke="#aaa" stroke-width="1" stroke-linecap="round"/>
<line x2="100" y2="100" x1="100.0" y1="100.0" stroke="#aaa" stroke-width="1" stroke-linecap="round"/>
<line x2="100" y2="100" x1="77.03899405809457" y1="155.4327719506772" stroke="#aaa" stroke-width="1" stroke-linecap="round"/>
<line x2="100" y2="100" x1="81.52240934977428" y1="92.3463313526982" stroke="#aaa" stroke-width="1" stroke-linecap="round"/>
<line x2="100" y2="100" x1="126.7878402655563" y1="164.67156727579007" stroke="#aaa" stroke-width="1" stroke-linecap="round"/>
<line x2="100" y2="100" x1="44.5672280493228" y1="122.9610059419054" stroke="#aaa" stroke-width="1" stroke-linecap="round"/>
<line x2="100" y2="100" x1="135.35533905932743" y1="64.64466094067267" stroke="#aaa" stroke-width="1" stroke-linecap="round"/>
<line x2="100" y2="100" x1="71.7157287525381" y1="128.2842712474619" stroke="#aaa" stroke-width="1" stroke-linecap="round"/>
<line x2="100" y2="100" x1="111.4805029709527" y1="127.7163859753386" stroke="#aaa" stroke-width="1" stroke-linecap="round"/>
<line x2="100" y2="100" x1="100.0" y1="100.0" stroke="#aaa" stroke-width="1" stroke-linecap="round"/>
<line x2="100" y2="100" x1="100.0" y1="100.0" stroke="#aaa" stroke-width="1" stroke-linecap="round"/>
<line x2="100" y2="100" x1="30.0" y1="99.99999999999999" stroke="#aaa" stroke-width="1" stroke-linecap="round"/>
<line x2="100" y2="100" x1="80.86582838174547" y1="146.19397662556432" stroke="#aaa" stroke-width="1" stroke-linecap="round"/>
<line x2="100" y2="100" x1="70.0" y1="100.0" stroke="#aaa" stroke-width="1" stroke-linecap="round"/>
<line x2="100" y2="100" x1="78.78679656440357" y1="121.21320343559643" stroke="#aaa" stroke-width="1" stroke-linecap="round"/>
<line x2="100" y2="100" x1="100.0" y1="60.0" stroke="#aaa" stroke-width="1" stroke-linecap="round"/>
<line x2="100" y2="100" x1="109.23879532511286" y1="103.8268343236509" stroke="#aaa" stroke-width="1" stroke-linecap="round"/>
<line x2="100" y2="100" x1="78.78679656440357" y1="78.78679656440357" stroke="#aaa" stroke-width="1" stroke-linecap="round"/>
<line x2="100" y2="100" x1="128.28427124746193" y1="71.71572875253813" stroke="#aaa" stroke-width="1" stroke-linecap="round"/>
<line x2="100" y2="100" x1="90.76120467488714" y1="96.1731656763491" stroke="#aaa" stroke-width="1" stroke-linecap="round"/>
<line x2="100" y2="100" x1="71.7157287525381" y1="71.7157287525381" stroke="#aaa" stroke-width="1" stroke-linecap="round"/>
<line x2="100" y2="100" x1="127.7163859753386" y1="111.48050297095271" stroke="#aaa" stroke-width="1" stroke-linecap="round"/>
<line x2="100" y2="100" x1="120.0" y1="100.0" stroke="#aaa" stroke-width="1" stroke-linecap="round"/>
<line x2="100" y2="100" x1="149.49747468305839" y1="50.502525316941735" stroke="#aaa" stroke-width="1" stroke-linecap="round"/>
<line x2="100" y2="100" x1="57.573593128807154" y1="57.57359312880714" stroke="#aaa" stroke-width="1" stroke-linecap="round"/>
<line x2="100" y2="100" x1="128.2842712474619" y1="128.2842712474619" stroke="#aaa" stroke-width="1" stroke-linecap="round"/>
<line x2="100" y2="100" x1="115.3073372946036" y1="136.95518130045147" stroke="#aaa" stroke-width="1" stroke-linecap="round"/>
<line x2="100" y2="100" x1="100.0" y1="80.0" stroke="#aaa" stroke-width="1" stroke-linecap="round"/>
<line x2="100" y2="100" x1="100.00000000000001" y1="40.0" stroke="#aaa" stroke-width="1" stroke-linecap="round"/>
<line x2="100" y2="100" x1="119.1341716182545" y1="146.19397662556435" stroke="#aaa" stroke-width="1" stroke-linecap="round"/>
<line x2="100" y2="100" x1="99.99999999999999" y1="130.0" stroke="#aaa" stroke-width="1" stroke-linecap="round"/>
<line x2="100" y2="100" x1="53.80602337443567" y1="119.1341716182545" stroke="#aaa" stroke-width="1" stroke-linecap="round"/>
<line x2="100" y2="100" x1="35.32843272420993" y1="126.7878402655563" stroke="#aaa" stroke-width="1" stroke-linecap="round"/>
<line x2="100" y2="100" x1="72.2836140246614" y1="111.4805029709527" stroke="#aaa" stroke-width="1" stroke-linecap="round"/>
<line x2="100" y2="100" x1="90.0" y1="100.0" stroke="#aaa" stroke-width="1" stroke-linecap="round"/>
<line x2="100" y2="100" x1="50.50252531694168" y1="50.502525316941664" stroke="#aaa" stroke-width="1" stroke-linecap="round"/>
<line x2="100" y2="100" x1="142.42640687119285" y1="142.42640687119285" stroke="#aaa" stroke-width="1" stroke-linecap="round"/>
<line x2="100.0" y2="100.0" x1="100.0" y1="100.0" stroke="#aaa" stroke-width="1" stroke-linecap="round"/>
<line x2="100.0" y2="100.0" x1="100.0" y1="100.0" stroke="#aaa" stroke-width="1" stroke-linecap="round"/>
<line x2="100.0" y2="100.0" x1="100.0" y1="100.0" stroke="#aaa" stroke-width="1" stroke-linecap="round"/>
<line x2="100.0" y2="100.0" x1="100.0" y1="100.0" stroke="#aaa" stroke-width="1" stroke-linecap="round"/>
<line x2="100.0" y2="100.0" x1="100.0" y1="100.0" stroke="#aaa" stroke-width="1" stroke-linecap="round"/>
<line x2="103.8268343236509" y2="90.76120467488714" x1="100.0" y1="90.0" stroke="#aaa" stroke-width="1" stroke-linecap="round"/>
<line x2="96.1731656763491" y2="90.76120467488713" x1="100.0" y1="90.0" stroke="#aaa" stroke-width="1" stroke-linecap="round"/>
<line x2="90.76120467488714" y2="96.1731656763491" x1="92.92893218813452" y1="92.92893218813452" stroke="#aaa" stroke-width="1" stroke-linecap="round"/>
<line x2="92.92893218813452" y2="107.07106781186548" x1="90.76120467488714" y1="103.8268343236509" stroke="#aaa" stroke-width="1" stroke-linecap="round"/>
<line x2="96.1731656763491" y2="109.23879532511286" x1="92.92893218813452" y1="107.07106781186548" stroke="#aaa" stroke-width="1" stroke-linecap="round"/>
<line x2="103.8268343236509" y2="109.23879532511287" x1="100.0" y1="110.0" stroke="#aaa" stroke-width="1" stroke-linecap="round"/>
<line x2="110.0" y2="100.0" x1="109.23879532511286" y1="103.8268343236509" stroke="#aaa" stroke-width="1" stroke-linecap="round"/>
<line x2="109.23879532511287" y2="96.1731656763491" x1="110.0" y1="100.0" stroke="#aaa" stroke-width="1" stroke-linecap="round"/>
<line x2="107.07106781186549" y2="92.92893218813454" x1="109.23879532511287" y1="96.1731656763491" stroke="#aaa" stroke-width="1" stroke-linecap="round"/>
<line x2="85.85786437626905" y2="85.85786437626905" x1="92.3463313526982" y1="81.52240934977426" stroke="#aaa" stroke-width="1" stroke-linecap="round"/>
<line x2="81.52240934977428" y2="92.3463313526982" x1="85.85786437626905" y1="85.85786437626905" stroke="#aaa" stroke-width="1" stroke-linecap="round"/>
<line x2="81.52240934977426" y2="107.6536686473018" x1="80.0" y1="100.0" stroke="#aaa" stroke-width="1" stroke-linecap="round"/>
<line x2="85.85786437626905" y2="114.14213562373095" x1="81.52240934977426" y1="107.6536686473018" stroke="#aaa" stroke-width="1" stroke-linecap="round"/>
<line x2="107.6536686473018" y2="118.47759065022574" x1="100.0" y1="120.0" stroke="#aaa" stroke-width="1" stroke-linecap="round"/>
<line x2="114.14213562373095" y2="114.14213562373095" x1="107.6536686473018" y1="118.47759065022574" stroke="#aaa" stroke-width="1" stroke-linecap="round"/>
<line x2="120.0" y2="100.0" x1="118.47759065022572" y1="107.65366864730181" stroke="#aaa" stroke-width="1" stroke-linecap="round"/>
<line x2="118.47759065022574" y2="92.3463313526982" x1="120.0" y1="100.0" stroke="#aaa" stroke-width="1" stroke-linecap="round"/>
<line x2="114.14213562373097" y2="85.85786437626906" x1="118.47759065022574" y1="92.3463313526982" stroke="#aaa" stroke-width="1" stroke-linecap="round"/>
<line x2="107.65366864730181" y2="81.52240934977428" x1="114.14213562373097" y1="85.85786437626906" stroke="#aaa" stroke-width="1" stroke-linecap="round"/>
<line x2="88.51949702904732" y2="72.2836140246614" x1="100.0" y1="70.0" stroke="#aaa" stroke-width="1" stroke-linecap="round"/>
<line x2="111.48050297095271" y2="72.2836140246614" x1="100.0" y1="70.0" stroke="#aaa" stroke-width="1" stroke-linecap="round"/>
<line x2="78.78679656440357" y2="78.78679656440357" x1="88.51949702904732" y1="72.2836140246614" stroke="#aaa" stroke-width="1" stroke-linecap="round"/>
<line x2="72.2836140246614" y2="88.51949702904729" x1="78.78679656440357" y1="78.78679656440357" stroke="#aaa" stroke-width="1" stroke-linecap="round"/>
<line x2="127.7163859753386" y2="111.48050297095271" x1="121.21320343559643" y1="121.21320343559643" stroke="#aaa" stroke-width="1" stroke-linecap="round"/>
<line x2="130.0" y2="100.00000000000001" x1="127.7163859753386" y1="111.48050297095271" stroke="#aaa" stroke-width="1" stroke-linecap="round"/>
<line x2="127.7163859753386" y2="88.5194970290473" x1="130.0" y1="100.00000000000001" stroke="#aaa" stroke-width="1" stroke-linecap="round"/>
<line x2="63.04481869954854" y2="84.69266270539639" x1="71.7157287525381" y1="71.7157287525381" stroke="#aaa" stroke-width="1" stroke-linecap="round"/>
<line x2="60.0" y2="99.99999999999999" x1="63.04481869954854" y1="84.69266270539639" stroke="#aaa" stroke-width="1" stroke-linecap="round"/>
<line x2="71.7157287525381" y2="128.2842712474619" x1="63.044818699548536" y1="115.3073372946036" stroke="#aaa" stroke-width="1" stroke-linecap="round"/>
<line x2="99.99999999999999" y2="140.0" x1="84.69266270539639" y1="136.95518130045144" stroke="#aaa" stroke-width="1" stroke-linecap="round"/>
<line x2="115.3073372946036" y2="136.95518130045147" x1="99.99999999999999" y1="140.0" stroke="#aaa" stroke-width="1" stroke-linecap="round"/>
<line x2="140.0" y2="100.00000000000001" x1="136.95518130045144" y1="115.30733729460363" stroke="#aaa" stroke-width="1" stroke-linecap="round"/>
<line x2="136.95518130045147" y2="84.6926627053964" x1="140.0" y1="100.00000000000001" stroke="#aaa" stroke-width="1" stroke-linecap="round"/>
<line x2="115.30733729460363" y2="63.04481869954854" x1="128.28427124746193" y1="71.71572875253813" stroke="#aaa" stroke-width="1" stroke-linecap="round"/>
<line x2="80.86582838174552" y2="53.80602337443566" x1="100.0" y1="50.0" stroke="#aaa" stroke-width="1" stroke-linecap="round"/>
<line x2="64.64466094067262" y2="64.64466094067262" x1="80.86582838174552" y1="53.80602337443566" stroke="#aaa" stroke-width="1" stroke-linecap="round"/>
<line x2="53.806023374435675" y2="80.86582838174549" x1="64.64466094067262" y1="64.64466094067262" stroke="#aaa" stroke-width="1" stroke-linecap="round"/>
<line x2="80.86582838174547" y2="146.19397662556432" x1="64.64466094067262" y1="135.35533905932738" stroke="#aaa" stroke-width="1" stroke-linecap="round"/>
<line x2="99.99999999999999" y2="150.0" x1="80.86582838174547" y1="146.19397662556432" stroke="#aaa" stroke-width="1" stroke-linecap="round"/>
<line x2="146.19397662556432" y2="119.13417161825453" x1="135.35533905932738" y1="135.35533905932738" stroke="#aaa" stroke-width="1" stroke-linecap="round"/>
<line x2="150.0" y2="100.00000000000001" x1="146.19397662556432" y1="119.13417161825453" stroke="#aaa" stroke-width="1" stroke-linecap="round"/>
<line x2="119.13417161825453" y2="53.80602337443568" x1="135.35533905932743" y1="64.64466094067267" stroke="#aaa" stroke-width="1" stroke-linecap="round"/>
<line x2="122.96100594190543" y2="44.567228049322814" x1="100.00000000000001" y1="40.0" stroke="#aaa" stroke-width="1" stroke-linecap="round"/>
<line x2="57.573593128807154" y2="57.57359312880714" x1="77.03899405809462" y1="44.56722804932279" stroke="#aaa" stroke-width="1" stroke-linecap="round"/>
<line x2="44.56722804932281" y2="77.03899405809457" x1="57.573593128807154" y1="57.57359312880714" stroke="#aaa" stroke-width="1" stroke-linecap="round"/>
<line x2="44.5672280493228" y2="122.9610059419054" x1="40.0" y1="99.99999999999999" stroke="#aaa" stroke-width="1" stroke-linecap="round"/>
<line x2="77.03899405809457" y2="155.4327719506772" x1="57.57359312880714" y1="142.42640687119285" stroke="#aaa" stroke-width="1" stroke-linecap="round"/>
<line x2="142.42640687119285" y2="142.42640687119285" x1="122.9610059419054" y1="155.4327719506772" stroke="#aaa" stroke-width="1" stroke-linecap="round"/>
<line x2="155.4327719506772" y2="122.96100594190543" x1="142.42640687119285" y1="142.42640687119285" stroke="#aaa" stroke-width="1" stroke-linecap="round"/>
<line x2="155.4327719506772" y2="77.0389940580946" x1="160.0" y1="100.00000000000001" stroke="#aaa" stroke-width="1" stroke-linecap="round"/>
<line x2="73.21215973444373" y2="35.32843272420993" x1="100.00000000000001" y1="30.0" stroke="#aaa" stroke-width="1" stroke-linecap="round"/>
<line x2="50.50252531694168" y2="50.502525316941664" x1="73.21215973444373" y1="35.32843272420993" stroke="#aaa" stroke-width="1" stroke-linecap="round"/>
<line x2="35.32843272420995" y2="73.21215973444367" x1="50.50252531694168" y1="50.502525316941664" stroke="#aaa" stroke-width="1" stroke-linecap="round"/>
<line x2="73.21215973444367" y2="164.67156727579004" x1="50.502525316941664" y1="149.49747468305833" stroke="#aaa" stroke-width="1" stroke-linecap="round"/>
<line x2="126.7878402655563" y2="164.67156727579007" x1="99.99999999999999" y1="170.0" stroke="#aaa" stroke-width="1" stroke-linecap="round"/>
<line x2="164.67156727579004" y2="126.78784026555633" x1="149.49747468305833" y1="149.49747468305833" stroke="#aaa" stroke-width="1" stroke-linecap="round"/>
<line x2="149.49747468305839" y2="50.502525316941735" x1="164.67156727579007" y1="73.21215973444372" stroke="#aaa" stroke-width="1" stroke-linecap="round"/>
<line x2="126.78784026555633" y2="35.32843272420995" x1="149.49747468305839" y1="50.502525316941735" stroke="#aaa" stroke-width="1" stroke-linecap="round"/>
<line x2="69.38532541079283" y2="26.089637399097057" x1="100.00000000000001" y1="20.0" stroke="#aaa" stroke-width="1" stroke-linecap="round"/>
<line x2="130.61467458920725" y2="26.089637399097086" x1="100.00000000000001" y1="20.0" stroke="#aaa" stroke-width="1" stroke-linecap="round"/>
<line x2="100.00000000000001" y2="10.0" x1="100.00000000000001" y1="20.0" stroke="#aaa" stroke-width="1" stroke-linecap="round"/>
<line x2="43.4314575050762" y2="43.43145750507618" x1="69.38532541079283" y1="26.089637399097057" stroke="#aaa" stroke-width="1" stroke-linecap="round"/>
<line x2="65.55849108714193" y2="16.850842073984197" x1="69.38532541079283" y1="26.089637399097057" stroke="#aaa" stroke-width="1" stroke-linecap="round"/>
<line x2="26.089637399097086" y2="69.38532541079277" x1="43.4314575050762" y1="43.43145750507618" stroke="#aaa" stroke-width="1" stroke-linecap="round"/>
<line x2="36.36038969321073" y2="36.360389693210706" x1="43.4314575050762" y1="43.43145750507618" stroke="#aaa" stroke-width="1" stroke-linecap="round"/>
<line x2="16.85084207398421" y2="65.55849108714187" x1="26.089637399097086" y1="69.38532541079277" stroke="#aaa" stroke-width="1" stroke-linecap="round"/>
<line x2="20.0" y2="99.99999999999999" x1="26.089637399097086" y1="69.38532541079277" stroke="#aaa" stroke-width="1" stroke-linecap="round"/>
<line x2="26.08963739909707" y2="130.6146745892072" x1="20.0" y1="99.99999999999999" stroke="#aaa" stroke-width="1" stroke-linecap="round"/>
<line x2="10.0" y2="99.99999999999999" x1="20.0" y1="99.99999999999999" stroke="#aaa" stroke-width="1" stroke-linecap="round"/>
<line x2="43.43145750507618" y2="156.5685424949238" x1="26.08963739909707" y1="130.6146745892072" stroke="#aaa" stroke-width="1" stroke-linecap="round"/>
<line x2="16.850842073984197" y2="134.4415089128581" x1="26.08963739909707" y1="130.6146745892072" stroke="#aaa" stroke-width="1" stroke-linecap="round"/>
<line x2="69.38532541079277" y2="173.9103626009029" x1="43.43145750507618" y1="156.5685424949238" stroke="#aaa" stroke-width="1" stroke-linecap="round"/>
<line x2="36.360389693210706" y2="163.63961030678928" x1="43.43145750507618" y1="156.5685424949238" stroke="#aaa" stroke-width="1" stroke-linecap="round"/>
<line x2="65.55849108714187" y2="183.1491579260158" x1="69.38532541079277" y1="173.9103626009029" stroke="#aaa" stroke-width="1" stroke-linecap="round"/>
<line x2="99.99999999999999" y2="180.0" x1="69.38532541079277" y1="173.9103626009029" stroke="#aaa" stroke-width="1" stroke-linecap="round"/>
<line x2="130.6146745892072" y2="173.91036260090294" x1="99.99999999999999" y1="180.0" stroke="#aaa" stroke-width="1" stroke-linecap="round"/>
<line x2="99.99999999999997" y2="190.0" x1="99.99999999999999" y1="180.0" stroke="#aaa" stroke-width="1" stroke-linecap="round"/>
<line x2="156.5685424949238" y2="156.5685424949238" x1="130.6146745892072" y1="173.91036260090294" stroke="#aaa" stroke-width="1" stroke-linecap="round"/>
<line x2="134.4415089128581" y2="183.1491579260158" x1="130.6146745892072" y1="173.91036260090294" stroke="#aaa" stroke-width="1" stroke-linecap="round"/>
<line x2="173.9103626009029" y2="130.61467458920725" x1="156.5685424949238" y1="156.5685424949238" stroke="#aaa" stroke-width="1" stroke-linecap="round"/>
<line x2="163.63961030678925" y2="163.63961030678928" x1="156.5685424949238" y1="156.5685424949238" stroke="#aaa" stroke-width="1" stroke-linecap="round"/>
<line x2="183.1491579260158" y2="134.44150891285815" x1="173.9103626009029" y1="130.61467458920725" stroke="#aaa" stroke-width="1" stroke-linecap="round"/>
<line x2="173.91036260090294" y2="69.38532541079282" x1="180.0" y1="100.00000000000003" stroke="#aaa" stroke-width="1" stroke-linecap="round"/>
<line x2="190.0" y2="100.00000000000003" x1="180.0" y1="100.00000000000003" stroke="#aaa" stroke-width="1" stroke-linecap="round"/>
<line x2="156.56854249492386" y2="43.43145750507627" x1="173.91036260090294" y1="69.38532541079282" stroke="#aaa" stroke-width="1" stroke-linecap="round"/>
<line x2="183.1491579260158" y2="65.55849108714192" x1="173.91036260090294" y1="69.38532541079282" stroke="#aaa" stroke-width="1" stroke-linecap="round"/>
<line x2="130.61467458920725" y2="26.089637399097086" x1="156.56854249492386" y1="43.43145750507627" stroke="#aaa" stroke-width="1" stroke-linecap="round"/>
<line x2="163.63961030678934" y2="36.3603896932108" x1="156.56854249492386" y1="43.43145750507627" stroke="#aaa" stroke-width="1" stroke-linecap="round"/>
<line x2="134.44150891285815" y2="16.850842073984225" x1="130.61467458920725" y1="26.089637399097086" stroke="#aaa" stroke-width="1" stroke-linecap="round"/>
</svg>
