<svg viewBox="0 0 200 200" xmlns="http://www.w3.org/2000/svg">
<line x2="116.23497346023424" y2="52.70913791496829" x1="100.0" y1="50.0" stroke="#aaa" stroke-width="1" stroke-linecap="round"/>
<line x2="83.76502653976583" y2="52.70913791496826" x1="100.0" y1="50.0" stroke="#aaa" stroke-width="1" stroke-linecap="round"/>
<line x2="69.2893643655166" y2="60.54297453018032" x1="83.76502653976583" y1="52.70913791496826" stroke="#aaa" stroke-width="1" stroke-linecap="round"/>
<line x2="112.98797876818739" y2="62.167310331974626" x1="100.0" y1="60.0" stroke="#aaa" stroke-width="1" stroke-linecap="round"/>
<line x2="87.01202123181267" y2="62.16731033197461" x1="100.0" y1="60.0" stroke="#aaa" stroke-width="1" stroke-linecap="round"/>
<line x2="75.43149149241329" y2="68.43437962414426" x1="69.2893643655166" y1="60.54297453018032" stroke="#aaa" stroke-width="1" stroke-linecap="round"/>
<line x2="75.43149149241329" y2="68.43437962414426" x1="87.01202123181267" y1="62.16731033197461" stroke="#aaa" stroke-width="1" stroke-linecap="round"/>
<line x2="90.2590159238595" y2="71.62548274898096" x1="87.01202123181267" y1="62.16731033197461" stroke="#aaa" stroke-width="1" stroke-linecap="round"/>
<line x2="66.51334086949886" y2="78.12207367510292" x1="58.141676086873574" y1="72.65259209387865" stroke="#aaa" stroke-width="1" stroke-linecap="round"/>
<line x2="50.170775349666506" y2="104.12896727361662" x1="51.52998670303348" y1="87.72572564296004" stroke="#aaa" stroke-width="1" stroke-linecap="round"/>
<line x2="61.223989362426785" y2="90.18058051436803" x1="66.51334086949886" y1="78.12207367510292" stroke="#aaa" stroke-width="1" stroke-linecap="round"/>
<line x2="54.21133366724713" y2="120.08477123264848" x1="50.170775349666506" y1="104.12896727361662" stroke="#aaa" stroke-width="1" stroke-linecap="round"/>
<line x2="60.13662027973321" y2="103.3031738188933" x1="50.170775349666506" y1="104.12896727361662" stroke="#aaa" stroke-width="1" stroke-linecap="round"/>
<line x2="60.13662027973321" y2="103.3031738188933" x1="61.223989362426785" y1="90.18058051436803" stroke="#aaa" stroke-width="1" stroke-linecap="round"/>
<line x2="70.91799202182008" y2="92.63543538577602" x1="61.223989362426785" y1="90.18058051436803" stroke="#aaa" stroke-width="1" stroke-linecap="round"/>
<line x2="63.369066933797704" y2="116.06781698611879" x1="60.13662027973321" y1="103.3031738188933" stroke="#aaa" stroke-width="1" stroke-linecap="round"/>
<line x2="76.20263034814633" y2="143.97368756032446" x1="63.21380446634339" y1="133.86407858128703" stroke="#aaa" stroke-width="1" stroke-linecap="round"/>
<line x2="91.77027048596327" y2="149.3180651701361" x1="76.20263034814633" y1="143.97368756032446" stroke="#aaa" stroke-width="1" stroke-linecap="round"/>
<line x2="77.92828267980603" y2="120.31844714877221" x1="70.57104357307472" y1="127.09126286502962" stroke="#aaa" stroke-width="1" stroke-linecap="round"/>
<line x2="93.41621638877062" y2="139.4544521361089" x1="91.77027048596327" y1="149.3180651701361" stroke="#aaa" stroke-width="1" stroke-linecap="round"/>
<line x2="93.41621638877062" y2="139.4544521361089" x1="80.96210427851706" y1="135.17895004825957" stroke="#aaa" stroke-width="1" stroke-linecap="round"/>
<line x2="106.58378361122936" y2="139.4544521361089" x1="108.2297295140367" y1="149.31806517013612" stroke="#aaa" stroke-width="1" stroke-linecap="round"/>
<line x2="95.06216229157796" y2="129.59083910208167" x1="93.41621638877062" y1="139.4544521361089" stroke="#aaa" stroke-width="1" stroke-linecap="round"/>
<line x2="119.03789572148293" y2="135.1789500482596" x1="123.79736965185364" y1="143.97368756032446" stroke="#aaa" stroke-width="1" stroke-linecap="round"/>
<line x2="136.78619553365655" y2="133.86407858128706" x1="123.79736965185364" y1="143.97368756032446" stroke="#aaa" stroke-width="1" stroke-linecap="round"/>
<line x2="104.93783770842202" y2="129.59083910208167" x1="106.58378361122936" y1="139.4544521361089" stroke="#aaa" stroke-width="1" stroke-linecap="round"/>
<line x2="119.03789572148293" y2="135.1789500482596" x1="106.58378361122936" y1="139.4544521361089" stroke="#aaa" stroke-width="1" stroke-linecap="round"/>
<line x2="129.42895642692525" y2="127.09126286502966" x1="119.03789572148293" y1="135.1789500482596" stroke="#aaa" stroke-width="1" stroke-linecap="round"/>
<line x2="136.6309330662023" y2="116.0678169861188" x1="145.78866633275285" y1="120.0847712326485" stroke="#aaa" stroke-width="1" stroke-linecap="round"/>
<line x2="136.6309330662023" y2="116.0678169861188" x1="129.42895642692525" y1="127.09126286502966" stroke="#aaa" stroke-width="1" stroke-linecap="round"/>
<line x2="148.47001329696653" y2="87.72572564296007" x1="149.8292246503335" y1="104.12896727361664" stroke="#aaa" stroke-width="1" stroke-linecap="round"/>
<line x2="139.86337972026678" y2="103.30317381889331" x1="149.8292246503335" y1="104.12896727361664" stroke="#aaa" stroke-width="1" stroke-linecap="round"/>
<line x2="139.86337972026678" y2="103.30317381889331" x1="136.6309330662023" y1="116.0678169861188" stroke="#aaa" stroke-width="1" stroke-linecap="round"/>
<line x2="138.77601063757322" y2="90.18058051436805" x1="148.47001329696653" y1="87.72572564296007" stroke="#aaa" stroke-width="1" stroke-linecap="round"/>
<line x2="130.7106356344834" y2="60.54297453018033" x1="141.8583239131264" y1="72.65259209387864" stroke="#aaa" stroke-width="1" stroke-linecap="round"/>
<line x2="133.48665913050112" y2="78.12207367510291" x1="138.77601063757322" y1="90.18058051436805" stroke="#aaa" stroke-width="1" stroke-linecap="round"/>
<line x2="129.08200797817992" y2="92.63543538577603" x1="138.77601063757322" y1="90.18058051436805" stroke="#aaa" stroke-width="1" stroke-linecap="round"/>
<line x2="124.56850850758673" y2="68.43437962414427" x1="130.7106356344834" y1="60.54297453018033" stroke="#aaa" stroke-width="1" stroke-linecap="round"/>
<line x2="124.56850850758673" y2="68.43437962414427" x1="133.48665913050112" y1="78.12207367510291" stroke="#aaa" stroke-width="1" stroke-linecap="round"/>
<line x2="118.42638138069005" y2="76.3257847181082" x1="124.56850850758673" y1="68.43437962414427" stroke="#aaa" stroke-width="1" stroke-linecap="round"/>
<line x2="90.2590159238595" y2="71.62548274898096" x1="100.0" y1="70.0" stroke="#aaa" stroke-width="1" stroke-linecap="round"/>
<line x2="100.0" y2="80.0" x1="100.0" y1="70.0" stroke="#aaa" stroke-width="1" stroke-linecap="round"/>
<line x2="87.71574574620664" y2="84.21718981207212" x1="81.57361861930997" y1="76.3257847181082" stroke="#aaa" stroke-width="1" stroke-linecap="round"/>
<line x2="70.91799202182008" y2="92.63543538577602" x1="74.88500565212414" y1="83.5915552563272" stroke="#aaa" stroke-width="1" stroke-linecap="round"/>
<line x2="80.61199468121339" y2="95.09029025718402" x1="70.91799202182008" y1="92.63543538577602" stroke="#aaa" stroke-width="1" stroke-linecap="round"/>
<line x2="70.1024652097999" y2="102.47738036416997" x1="70.91799202182008" y1="92.63543538577602" stroke="#aaa" stroke-width="1" stroke-linecap="round"/>
<line x2="77.92828267980603" y2="120.31844714877221" x1="72.52680020034828" y1="112.05086273958909" stroke="#aaa" stroke-width="1" stroke-linecap="round"/>
<line x2="85.72157820888779" y2="126.38421253619467" x1="77.92828267980603" y1="120.31844714877221" stroke="#aaa" stroke-width="1" stroke-linecap="round"/>
<line x2="95.06216229157796" y2="129.59083910208167" x1="85.72157820888779" y1="126.38421253619467" stroke="#aaa" stroke-width="1" stroke-linecap="round"/>
<line x2="104.93783770842202" y2="129.59083910208167" x1="95.06216229157796" y1="129.59083910208167" stroke="#aaa" stroke-width="1" stroke-linecap="round"/>
<line x2="96.7081081943853" y2="119.72722606805445" x1="95.06216229157796" y1="129.59083910208167" stroke="#aaa" stroke-width="1" stroke-linecap="round"/>
<line x2="103.29189180561468" y2="119.72722606805445" x1="104.93783770842202" y1="129.59083910208167" stroke="#aaa" stroke-width="1" stroke-linecap="round"/>
<line x2="114.2784217911122" y2="126.38421253619468" x1="104.93783770842202" y1="129.59083910208167" stroke="#aaa" stroke-width="1" stroke-linecap="round"/>
<line x2="122.07171732019393" y2="120.31844714877225" x1="114.2784217911122" y1="126.38421253619468" stroke="#aaa" stroke-width="1" stroke-linecap="round"/>
<line x2="114.71447821346263" y2="113.54563143251482" x1="122.07171732019393" y1="120.31844714877225" stroke="#aaa" stroke-width="1" stroke-linecap="round"/>
<line x2="127.47319979965172" y2="112.0508627395891" x1="122.07171732019393" y1="120.31844714877225" stroke="#aaa" stroke-width="1" stroke-linecap="round"/>
<line x2="118.31546653310114" y2="108.0339084930594" x1="127.47319979965172" y1="112.0508627395891" stroke="#aaa" stroke-width="1" stroke-linecap="round"/>
<line x2="129.08200797817992" y2="92.63543538577603" x1="129.8975347902001" y1="102.47738036416999" stroke="#aaa" stroke-width="1" stroke-linecap="round"/>
<line x2="125.11499434787585" y2="83.59155525632718" x1="129.08200797817992" y1="92.63543538577603" stroke="#aaa" stroke-width="1" stroke-linecap="round"/>
<line x2="106.4939893840937" y2="81.08365516598731" x1="109.74098407614053" y1="71.62548274898097" stroke="#aaa" stroke-width="1" stroke-linecap="round"/>
<line x2="106.4939893840937" y2="81.08365516598731" x1="100.0" y1="80.0" stroke="#aaa" stroke-width="1" stroke-linecap="round"/>
<line x2="87.71574574620664" y2="84.21718981207212" x1="93.50601061590633" y1="81.08365516598731" stroke="#aaa" stroke-width="1" stroke-linecap="round"/>
<line x2="83.25667043474942" y2="89.06103683755146" x1="87.71574574620664" y1="84.21718981207212" stroke="#aaa" stroke-width="1" stroke-linecap="round"/>
<line x2="100" y2="100" x1="83.25667043474942" y1="89.06103683755146" stroke="#aaa" stroke-width="1" stroke-linecap="round"/>
<line x2="80.06831013986661" y2="101.65158690944665" x1="80.61199468121339" y1="95.09029025718402" stroke="#aaa" stroke-width="1" stroke-linecap="round"/>
<line x2="100" y2="100" x1="80.61199468121339" y1="95.09029025718402" stroke="#aaa" stroke-width="1" stroke-linecap="round"/>
<line x2="81.68453346689886" y2="108.03390849305939" x1="80.06831013986661" y1="101.65158690944665" stroke="#aaa" stroke-width="1" stroke-linecap="round"/>
<line x2="85.28552178653736" y2="113.54563143251481" x1="81.68453346689886" y1="108.03390849305939" stroke="#aaa" stroke-width="1" stroke-linecap="round"/>
<line x2="100" y2="100" x1="90.48105213925854" y1="117.58947502412978" stroke="#aaa" stroke-width="1" stroke-linecap="round"/>
<line x2="96.7081081943853" y2="119.72722606805445" x1="90.48105213925854" y1="117.58947502412978" stroke="#aaa" stroke-width="1" stroke-linecap="round"/>
<line x2="109.51894786074146" y2="117.5894750241298" x1="103.29189180561468" y1="119.72722606805445" stroke="#aaa" stroke-width="1" stroke-linecap="round"/>
<line x2="100" y2="100" x1="119.93168986013339" y1="101.65158690944666" stroke="#aaa" stroke-width="1" stroke-linecap="round"/>
<line x2="119.38800531878661" y2="95.09029025718402" x1="119.93168986013339" y1="101.65158690944666" stroke="#aaa" stroke-width="1" stroke-linecap="round"/>
<line x2="112.28425425379336" y2="84.21718981207214" x1="116.74332956525056" y1="89.06103683755146" stroke="#aaa" stroke-width="1" stroke-linecap="round"/>
<line x2="106.4939893840937" y2="81.08365516598731" x1="112.28425425379336" y1="84.21718981207214" stroke="#aaa" stroke-width="1" stroke-linecap="round"/>
<line x2="100" y2="100" x1="106.4939893840937" y1="81.08365516598731" stroke="#aaa" stroke-width="1" stroke-linecap="round"/>
</svg>
