<svg viewBox="0 0 200 200" xmlns="http://www.w3.org/2000/svg">
<line x2="95.36474508437578" y2="85.7341522555727" x1="100.0" y1="85.0" stroke="#aaa" stroke-width="1" stroke-linecap="round"/>
<line x2="91.1832212156129" y2="87.86474508437578" x1="95.36474508437578" y1="85.7341522555727" stroke="#aaa" stroke-width="1" stroke-linecap="round"/>
<line x2="100" y2="100" x1="99.99999999999999" y1="175.0" stroke="#aaa" stroke-width="1" stroke-linecap="round"/>
<line x2="100" y2="100" x1="104.63525491562422" y1="85.7341522555727" stroke="#aaa" stroke-width="1" stroke-linecap="round"/>
<line x2="100" y2="100" x1="57.20245676671809" y1="86.09423525312737" stroke="#aaa" stroke-width="1" stroke-linecap="round"/>
<line x2="100" y2="100" x1="100.0" y1="115.0" stroke="#aaa" stroke-width="1" stroke-linecap="round"/>
<line x2="100" y2="100" x1="148.54101966249686" y1="64.73288486245164" stroke="#aaa" stroke-width="1" stroke-linecap="round"/>
<line x2="100" y2="100" x1="135.2671151375484" y1="148.54101966249686" stroke="#aaa" stroke-width="1" stroke-linecap="round"/>
<line x2="100" y2="100" x1="86.09423525312738" y1="57.202456766718086" stroke="#aaa" stroke-width="1" stroke-linecap="round"/>
<line x2="100" y2="100" x1="142.7975432332819" y1="113.90576474687265" stroke="#aaa" stroke-width="1" stroke-linecap="round"/>
<line x2="100" y2="100" x1="42.93660902229079" y1="81.45898033750315" stroke="#aaa" stroke-width="1" stroke-linecap="round"/>
<line x2="100" y2="100" x1="130.0" y1="100.00000000000001" stroke="#aaa" stroke-width="1" stroke-linecap="round"/>
<line x2="100" y2="100" x1="42.93660902229078" y1="118.54101966249684" stroke="#aaa" stroke-width="1" stroke-linecap="round"/>
<line x2="100" y2="100" x1="70.0" y1="100.0" stroke="#aaa" stroke-width="1" stroke-linecap="round"/>
<line x2="100" y2="100" x1="126.45033635316128" y1="136.40576474687265" stroke="#aaa" stroke-width="1" stroke-linecap="round"/>
<line x2="100" y2="100" x1="87.86474508437578" y1="91.1832212156129" stroke="#aaa" stroke-width="1" stroke-linecap="round"/>
<line x2="100" y2="100" x1="114.2658477444273" y1="95.3647450843758" stroke="#aaa" stroke-width="1" stroke-linecap="round"/>
<line x2="100" y2="100" x1="117.6335575687742" y1="75.72949016875158" stroke="#aaa" stroke-width="1" stroke-linecap="round"/>
<line x2="100" y2="100" x1="128.5316954888546" y1="90.72949016875158" stroke="#aaa" stroke-width="1" stroke-linecap="round"/>
<line x2="100" y2="100" x1="63.59423525312736" y1="126.45033635316128" stroke="#aaa" stroke-width="1" stroke-linecap="round"/>
<line x2="100" y2="100" x1="118.54101966249684" y1="157.06339097770922" stroke="#aaa" stroke-width="1" stroke-linecap="round"/>
<line x2="100" y2="100" x1="175.0" y1="100.00000000000003" stroke="#aaa" stroke-width="1" stroke-linecap="round"/>
<line x2="100" y2="100" x1="100.00000000000001" y1="40.0" stroke="#aaa" stroke-width="1" stroke-linecap="round"/>
<line x2="100" y2="100" x1="160.67627457812108" y1="55.91610607806454" stroke="#aaa" stroke-width="1" stroke-linecap="round"/>
<line x2="100" y2="100" x1="117.6335575687742" y1="124.27050983124843" stroke="#aaa" stroke-width="1" stroke-linecap="round"/>
<line x2="100" y2="100" x1="39.32372542187893" y1="144.08389392193547" stroke="#aaa" stroke-width="1" stroke-linecap="round"/>
<line x2="100" y2="100" x1="64.73288486245161" y1="148.54101966249684" stroke="#aaa" stroke-width="1" stroke-linecap="round"/>
<line x2="100" y2="100" x1="109.27050983124842" y1="128.5316954888546" stroke="#aaa" stroke-width="1" stroke-linecap="round"/>
<line x2="100" y2="100" x1="148.54101966249684" y1="135.2671151375484" stroke="#aaa" stroke-width="1" stroke-linecap="round"/>
<line x2="100" y2="100" x1="75.72949016875158" y1="82.3664424312258" stroke="#aaa" stroke-width="1" stroke-linecap="round"/>
<line x2="100" y2="100" x1="144.0838939219355" y1="39.323725421878954" stroke="#aaa" stroke-width="1" stroke-linecap="round"/>
<line x2="100" y2="100" x1="126.4503363531613" y1="63.59423525312737" stroke="#aaa" stroke-width="1" stroke-linecap="round"/>
<line x2="100" y2="100" x1="71.46830451114539" y1="90.72949016875157" stroke="#aaa" stroke-width="1" stroke-linecap="round"/>
<line x2="100" y2="100" x1="39.32372542187895" y1="55.91610607806451" stroke="#aaa" stroke-width="1" stroke-linecap="round"/>
<line x2="100" y2="100" x1="100.00000000000001" y1="25.0" stroke="#aaa" stroke-width="1" stroke-linecap="round"/>
<line x2="100" y2="100" x1="91.1832212156129" y1="87.86474508437578" stroke="#aaa" stroke-width="1" stroke-linecap="round"/>
<line x2="100" y2="100" x1="57.202456766718086" y1="113.90576474687262" stroke="#aaa" stroke-width="1" stroke-linecap="round"/>
<line x2="100" y2="100" x1="108.8167787843871" y1="112.13525491562422" stroke="#aaa" stroke-width="1" stroke-linecap="round"/>
<line x2="100" y2="100" x1="51.45898033750316" y1="64.73288486245161" stroke="#aaa" stroke-width="1" stroke-linecap="round"/>
<line x2="100" y2="100" x1="64.73288486245161" y1="51.45898033750315" stroke="#aaa" stroke-width="1" stroke-linecap="round"/>
<line x2="100" y2="100" x1="75.72949016875157" y1="117.6335575687742" stroke="#aaa" stroke-width="1" stroke-linecap="round"/>
<line x2="100" y2="100" x1="171.32923872213652" y1="76.82372542187896" stroke="#aaa" stroke-width="1" stroke-linecap="round"/>
<line x2="100" y2="100" x1="95.36474508437578" y1="114.2658477444273" stroke="#aaa" stroke-width="1" stroke-linecap="round"/>
<line x2="100" y2="100" x1="144.08389392193547" y1="160.67627457812108" stroke="#aaa" stroke-width="1" stroke-linecap="round"/>
<line x2="100" y2="100" x1="90.72949016875157" y1="128.5316954888546" stroke="#aaa" stroke-width="1" stroke-linecap="round"/>
<line x2="100" y2="100" x1="85.7341522555727" y1="95.36474508437578" stroke="#aaa" stroke-width="1" stroke-linecap="round"/>
<line x2="100" y2="100" x1="28.670761277863477" y1="123.17627457812104" stroke="#aaa" stroke-width="1" stroke-linecap="round"/>
<line x2="100" y2="100" x1="85.0" y1="100.0" stroke="#aaa" stroke-width="1" stroke-linecap="round"/>
<line x2="100" y2="100" x1="91.1832212156129" y1="112.13525491562422" stroke="#aaa" stroke-width="1" stroke-linecap="round"/>
<line x2="100" y2="100" x1="118.54101966249686" y1="42.936609022290796" stroke="#aaa" stroke-width="1" stroke-linecap="round"/>
<line x2="100" y2="100" x1="81.45898033750314" y1="157.06339097770922" stroke="#aaa" stroke-width="1" stroke-linecap="round"/>
<line x2="100" y2="100" x1="28.67076127786349" y1="76.82372542187893" stroke="#aaa" stroke-width="1" stroke-linecap="round"/>
<line x2="100" y2="100" x1="136.40576474687265" y1="73.54966364683872" stroke="#aaa" stroke-width="1" stroke-linecap="round"/>
<line x2="100" y2="100" x1="100.0" y1="70.0" stroke="#aaa" stroke-width="1" stroke-linecap="round"/>
<line x2="87.86474508437578" y2="108.8167787843871" x1="85.7341522555727" y1="104.6352549156242" stroke="#aaa" stroke-width="1" stroke-linecap="round"/>
<line x2="91.1832212156129" y2="112.13525491562422" x1="87.86474508437578" y1="108.8167787843871" stroke="#aaa" stroke-width="1" stroke-linecap="round"/>
<line x2="104.6352549156242" y2="114.2658477444273" x1="100.0" y1="115.0" stroke="#aaa" stroke-width="1" stroke-linecap="round"/>
<line x2="112.13525491562422" y2="108.8167787843871" x1="108.8167787843871" y1="112.13525491562422" stroke="#aaa" stroke-width="1" stroke-linecap="round"/>
<line x2="115.0" y2="100.0" x1="114.2658477444273" y1="104.63525491562422" stroke="#aaa" stroke-width="1" stroke-linecap="round"/>
<line x2="114.2658477444273" y2="95.3647450843758" x1="115.0" y1="100.0" stroke="#aaa" stroke-width="1" stroke-linecap="round"/>
<line x2="108.8167787843871" y2="87.86474508437578" x1="112.13525491562422" y1="91.1832212156129" stroke="#aaa" stroke-width="1" stroke-linecap="round"/>
<line x2="104.63525491562422" y2="85.7341522555727" x1="108.8167787843871" y1="87.86474508437578" stroke="#aaa" stroke-width="1" stroke-linecap="round"/>
<line x2="90.72949016875158" y2="71.46830451114539" x1="100.0" y1="70.0" stroke="#aaa" stroke-width="1" stroke-linecap="round"/>
<line x2="109.27050983124843" y2="71.46830451114539" x1="100.0" y1="70.0" stroke="#aaa" stroke-width="1" stroke-linecap="round"/>
<line x2="75.72949016875158" y2="82.3664424312258" x1="82.3664424312258" y1="75.72949016875157" stroke="#aaa" stroke-width="1" stroke-linecap="round"/>
<line x2="75.72949016875157" y2="117.6335575687742" x1="71.46830451114539" y1="109.27050983124842" stroke="#aaa" stroke-width="1" stroke-linecap="round"/>
<line x2="90.72949016875157" y2="128.5316954888546" x1="82.3664424312258" y1="124.27050983124842" stroke="#aaa" stroke-width="1" stroke-linecap="round"/>
<line x2="99.99999999999999" y2="130.0" x1="90.72949016875157" y1="128.5316954888546" stroke="#aaa" stroke-width="1" stroke-linecap="round"/>
<line x2="124.27050983124842" y2="117.6335575687742" x1="117.6335575687742" y1="124.27050983124843" stroke="#aaa" stroke-width="1" stroke-linecap="round"/>
<line x2="130.0" y2="100.00000000000001" x1="128.5316954888546" y1="109.27050983124843" stroke="#aaa" stroke-width="1" stroke-linecap="round"/>
<line x2="117.6335575687742" y2="75.72949016875158" x1="124.27050983124843" y1="82.36644243122582" stroke="#aaa" stroke-width="1" stroke-linecap="round"/>
<line x2="86.09423525312738" y2="57.202456766718086" x1="100.0" y1="55.0" stroke="#aaa" stroke-width="1" stroke-linecap="round"/>
<line x2="73.54966364683871" y2="63.594235253127366" x1="86.09423525312738" y1="57.202456766718086" stroke="#aaa" stroke-width="1" stroke-linecap="round"/>
<line x2="63.59423525312737" y2="73.5496636468387" x1="73.54966364683871" y1="63.594235253127366" stroke="#aaa" stroke-width="1" stroke-linecap="round"/>
<line x2="57.202456766718086" y2="113.90576474687262" x1="55.0" y1="99.99999999999999" stroke="#aaa" stroke-width="1" stroke-linecap="round"/>
<line x2="86.09423525312735" y2="142.7975432332819" x1="73.5496636468387" y1="136.40576474687262" stroke="#aaa" stroke-width="1" stroke-linecap="round"/>
<line x2="99.99999999999999" y2="145.0" x1="86.09423525312735" y1="142.7975432332819" stroke="#aaa" stroke-width="1" stroke-linecap="round"/>
<line x2="113.90576474687262" y2="142.7975432332819" x1="99.99999999999999" y1="145.0" stroke="#aaa" stroke-width="1" stroke-linecap="round"/>
<line x2="126.45033635316128" y2="136.40576474687265" x1="113.90576474687262" y1="142.7975432332819" stroke="#aaa" stroke-width="1" stroke-linecap="round"/>
<line x2="142.7975432332819" y2="113.90576474687265" x1="136.40576474687262" y1="126.4503363531613" stroke="#aaa" stroke-width="1" stroke-linecap="round"/>
<line x2="145.0" y2="100.00000000000001" x1="142.7975432332819" y1="113.90576474687265" stroke="#aaa" stroke-width="1" stroke-linecap="round"/>
<line x2="142.7975432332819" y2="86.09423525312738" x1="145.0" y1="100.00000000000001" stroke="#aaa" stroke-width="1" stroke-linecap="round"/>
<line x2="113.90576474687265" y2="57.20245676671809" x1="126.4503363531613" y1="63.59423525312737" stroke="#aaa" stroke-width="1" stroke-linecap="round"/>
<line x2="64.73288486245161" y2="51.45898033750315" x1="81.45898033750316" y1="42.93660902229078" stroke="#aaa" stroke-width="1" stroke-linecap="round"/>
<line x2="42.93660902229078" y2="118.54101966249684" x1="40.0" y1="99.99999999999999" stroke="#aaa" stroke-width="1" stroke-linecap="round"/>
<line x2="51.45898033750315" y2="135.2671151375484" x1="42.93660902229078" y1="118.54101966249684" stroke="#aaa" stroke-width="1" stroke-linecap="round"/>
<line x2="99.99999999999999" y2="160.0" x1="81.45898033750314" y1="157.06339097770922" stroke="#aaa" stroke-width="1" stroke-linecap="round"/>
<line x2="157.06339097770922" y2="118.54101966249686" x1="148.54101966249684" y1="135.2671151375484" stroke="#aaa" stroke-width="1" stroke-linecap="round"/>
<line x2="160.0" y2="100.00000000000001" x1="157.06339097770922" y1="118.54101966249686" stroke="#aaa" stroke-width="1" stroke-linecap="round"/>
<line x2="148.54101966249686" y2="64.73288486245164" x1="157.06339097770922" y1="81.45898033750318" stroke="#aaa" stroke-width="1" stroke-linecap="round"/>
<line x2="118.54101966249686" y2="42.936609022290796" x1="135.2671151375484" y1="51.458980337503164" stroke="#aaa" stroke-width="1" stroke-linecap="round"/>
<line x2="76.82372542187895" y2="28.670761277863477" x1="100.00000000000001" y1="25.0" stroke="#aaa" stroke-width="1" stroke-linecap="round"/>
<line x2="123.17627457812108" y2="28.67076127786349" x1="100.00000000000001" y1="25.0" stroke="#aaa" stroke-width="1" stroke-linecap="round"/>
<line x2="39.32372542187895" y2="55.91610607806451" x1="55.91610607806452" y1="39.32372542187894" stroke="#aaa" stroke-width="1" stroke-linecap="round"/>
<line x2="28.670761277863477" y2="123.17627457812104" x1="25.0" y1="99.99999999999999" stroke="#aaa" stroke-width="1" stroke-linecap="round"/>
<line x2="76.82372542187893" y2="171.3292387221365" x1="55.91610607806451" y1="160.67627457812105" stroke="#aaa" stroke-width="1" stroke-linecap="round"/>
<line x2="99.99999999999999" y2="175.0" x1="76.82372542187893" y1="171.3292387221365" stroke="#aaa" stroke-width="1" stroke-linecap="round"/>
<line x2="144.08389392193547" y2="160.67627457812108" x1="123.17627457812104" y1="171.32923872213652" stroke="#aaa" stroke-width="1" stroke-linecap="round"/>
<line x2="171.3292387221365" y2="123.17627457812108" x1="160.67627457812105" y1="144.0838939219355" stroke="#aaa" stroke-width="1" stroke-linecap="round"/>
<line x2="175.0" y2="100.00000000000003" x1="171.3292387221365" y1="123.17627457812108" stroke="#aaa" stroke-width="1" stroke-linecap="round"/>
<line x2="100.00000000000001" y2="-5.0" x1="100.00000000000001" y1="10.0" stroke="#aaa" stroke-width="1" stroke-linecap="round"/>
<line x2="72.18847050625475" y2="14.404913533436172" x1="100.00000000000001" y1="10.0" stroke="#aaa" stroke-width="1" stroke-linecap="round"/>
<line x2="127.8115294937453" y2="14.404913533436186" x1="100.00000000000001" y1="10.0" stroke="#aaa" stroke-width="1" stroke-linecap="round"/>
<line x2="67.55321559063054" y2="0.13906578900886757" x1="72.18847050625475" y1="14.404913533436172" stroke="#aaa" stroke-width="1" stroke-linecap="round"/>
<line x2="38.28254850929033" y2="15.053215590630515" x1="47.099327293677426" y1="27.18847050625473" stroke="#aaa" stroke-width="1" stroke-linecap="round"/>
<line x2="27.188470506254745" y2="47.099327293677405" x1="47.099327293677426" y1="27.18847050625473" stroke="#aaa" stroke-width="1" stroke-linecap="round"/>
<line x2="14.404913533436186" y2="72.18847050625472" x1="27.188470506254745" y1="47.099327293677405" stroke="#aaa" stroke-width="1" stroke-linecap="round"/>
<line x2="15.05321559063053" y2="38.28254850929031" x1="27.188470506254745" y1="47.099327293677405" stroke="#aaa" stroke-width="1" stroke-linecap="round"/>
<line x2="10.0" y2="99.99999999999999" x1="14.404913533436186" y1="72.18847050625472" stroke="#aaa" stroke-width="1" stroke-linecap="round"/>
<line x2="0.13906578900888178" y2="67.55321559063051" x1="14.404913533436186" y1="72.18847050625472" stroke="#aaa" stroke-width="1" stroke-linecap="round"/>
<line x2="14.404913533436172" y2="127.81152949374525" x1="10.0" y1="99.99999999999999" stroke="#aaa" stroke-width="1" stroke-linecap="round"/>
<line x2="-5.0" y2="99.99999999999999" x1="10.0" y1="99.99999999999999" stroke="#aaa" stroke-width="1" stroke-linecap="round"/>
<line x2="0.13906578900886757" y2="132.44678440936946" x1="14.404913533436172" y1="127.81152949374525" stroke="#aaa" stroke-width="1" stroke-linecap="round"/>
<line x2="27.188470506254717" y2="152.90067270632255" x1="14.404913533436172" y1="127.81152949374525" stroke="#aaa" stroke-width="1" stroke-linecap="round"/>
<line x2="15.0532155906305" y2="161.71745149070966" x1="27.188470506254717" y1="152.90067270632255" stroke="#aaa" stroke-width="1" stroke-linecap="round"/>
<line x2="47.099327293677405" y2="172.81152949374524" x1="27.188470506254717" y1="152.90067270632255" stroke="#aaa" stroke-width="1" stroke-linecap="round"/>
<line x2="72.18847050625472" y2="185.59508646656383" x1="47.099327293677405" y1="172.81152949374524" stroke="#aaa" stroke-width="1" stroke-linecap="round"/>
<line x2="38.28254850929031" y2="184.94678440936946" x1="47.099327293677405" y1="172.81152949374524" stroke="#aaa" stroke-width="1" stroke-linecap="round"/>
<line x2="99.99999999999997" y2="190.0" x1="72.18847050625472" y1="185.59508646656383" stroke="#aaa" stroke-width="1" stroke-linecap="round"/>
<line x2="67.5532155906305" y2="199.8609342109911" x1="72.18847050625472" y1="185.59508646656383" stroke="#aaa" stroke-width="1" stroke-linecap="round"/>
<line x2="99.99999999999997" y2="205.0" x1="99.99999999999997" y1="190.0" stroke="#aaa" stroke-width="1" stroke-linecap="round"/>
<line x2="127.81152949374524" y2="185.59508646656383" x1="99.99999999999997" y1="190.0" stroke="#aaa" stroke-width="1" stroke-linecap="round"/>
<line x2="152.90067270632255" y2="172.8115294937453" x1="127.81152949374524" y1="185.59508646656383" stroke="#aaa" stroke-width="1" stroke-linecap="round"/>
<line x2="132.44678440936946" y2="199.86093421099113" x1="127.81152949374524" y1="185.59508646656383" stroke="#aaa" stroke-width="1" stroke-linecap="round"/>
<line x2="161.71745149070966" y2="184.9467844093695" x1="152.90067270632255" y1="172.8115294937453" stroke="#aaa" stroke-width="1" stroke-linecap="round"/>
<line x2="172.81152949374524" y2="152.9006727063226" x1="152.90067270632255" y1="172.8115294937453" stroke="#aaa" stroke-width="1" stroke-linecap="round"/>
<line x2="184.94678440936946" y2="161.71745149070972" x1="172.81152949374524" y1="152.9006727063226" stroke="#aaa" stroke-width="1" stroke-linecap="round"/>
<line x2="185.59508646656383" y2="127.8115294937453" x1="172.81152949374524" y1="152.9006727063226" stroke="#aaa" stroke-width="1" stroke-linecap="round"/>
<line x2="199.8609342109911" y2="132.4467844093695" x1="185.59508646656383" y1="127.8115294937453" stroke="#aaa" stroke-width="1" stroke-linecap="round"/>
<line x2="190.0" y2="100.00000000000003" x1="185.59508646656383" y1="127.8115294937453" stroke="#aaa" stroke-width="1" stroke-linecap="round"/>
<line x2="185.59508646656383" y2="72.18847050625476" x1="190.0" y1="100.00000000000003" stroke="#aaa" stroke-width="1" stroke-linecap="round"/>
<line x2="205.0" y2="100.00000000000003" x1="190.0" y1="100.00000000000003" stroke="#aaa" stroke-width="1" stroke-linecap="round"/>
<line x2="199.86093421099113" y2="67.55321559063054" x1="185.59508646656383" y1="72.18847050625476" stroke="#aaa" stroke-width="1" stroke-linecap="round"/>
<line x2="172.8115294937453" y2="47.09932729367745" x1="185.59508646656383" y1="72.18847050625476" stroke="#aaa" stroke-width="1" stroke-linecap="round"/>
<line x2="184.9467844093695" y2="38.28254850929036" x1="172.8115294937453" y1="47.09932729367745" stroke="#aaa" stroke-width="1" stroke-linecap="round"/>
<line x2="152.9006727063226" y2="27.188470506254745" x1="172.8115294937453" y1="47.09932729367745" stroke="#aaa" stroke-width="1" stroke-linecap="round"/>
<line x2="127.8115294937453" y2="14.404913533436186" x1="152.9006727063226" y1="27.188470506254745" stroke="#aaa" stroke-width="1" stroke-linecap="round"/>
<line x2="161.71745149070972" y2="15.053215590630543" x1="152.9006727063226" y1="27.188470506254745" stroke="#aaa" stroke-width="1" stroke-linecap="round"/>
<line x2="132.4467844093695" y2="0.139065789008896" x1="127.8115294937453" y1="14.404913533436186" stroke="#aaa" stroke-width="1" stroke-linecap="round"/>
</svg>
