<svg viewBox="0 0 25 13" xmlns="http://www.w3.org/2000/svg" style="background-color: #eeeeee;">

  <defs>
    <style>
      path {
        stroke: #a33f00;
        stroke-linecap: round;
        fill: none;
      }

      .out1 path {
      stroke-width: 0.1436556255646207;
      }

      .out2 path {
        stroke-width: 0.05698003981719522;
      }

      .out3 path {
        stroke-width: 0.681762092923962;
      }

      .out4 path {
        stroke-width: 0.20518357023090597;
      }

      .out5 path {
        stroke-width: 0.3019583846169761;
      }

      .out6 path {
        stroke-width: 0.07184490133836165;
      }

      .out7 path {
        stroke-width: 0.1902510254942988;
      }

      .out8 path {
        stroke-width: 0.6588740620799088;
      }
    </style>
  </defs>

  <rect width="5" height="5" x="1" y="1" fill="#ffece0" stroke="#a33f00" stroke-width="0.02"/>
  <rect width="5" height="5" x="7" y="1" fill="#ffece0" stroke="#a33f00" stroke-width="0.02"/>
  <rect width="5" height="5" x="13" y="1" fill="#ffece0" stroke="#a33f00" stroke-width="0.02"/>
  <rect width="5" height="5" x="19" y="1" fill="#ffece0" stroke="#a33f00" stroke-width="0.02"/>

  <rect width="5" height="5" x="1" y="7" fill="#ffece0" stroke="#a33f00" stroke-width="0.02"/>
  <rect width="5" height="5" x="7" y="7" fill="#ffece0" stroke="#a33f00" stroke-width="0.02"/>
  <rect width="5" height="5" x="13" y="7" fill="#ffece0" stroke="#a33f00" stroke-width="0.02"/>
  <rect width="5" height="5" x="19" y="7" fill="#ffece0" stroke="#a33f00" stroke-width="0.02"/>

  <svg x="1" y="1" class="out1">
  <path d="M 1,1 L 1,2"/>
  <path d="M 2,1 L 2,2"/>
  <path d="M 1,2 L 2,2"/>
  <path d="M 3,1 L 4,1"/>
  <path d="M 3,1 L 3,2"/>
  <path d="M 2,2 L 3,2"/>
  <path d="M 1,3 L 2,3"/>
  <path d="M 3,2 L 4,2"/>
  <path d="M 3,2 L 3,3"/>
  <path d="M 2,3 L 2,4"/>
  <path d="M 1,4 L 2,4"/>
  <path d="M 3,3 L 4,3"/>
  <path d="M 2,4 L 3,4"/>
  <path d="M 3,4 L 4,4"/>
  <path d="M 4,3 L 4,4"/>
  </svg>

  <svg x="7" y="1" class="out2">
  <path d="M 1,1 L 2,1"/>
  <path d="M 2,1 L 2,2"/>
  <path d="M 2,1 L 3,1"/>
  <path d="M 1,2 L 2,2"/>
  <path d="M 3,1 L 4,1"/>
  <path d="M 2,2 L 2,3"/>
  <path d="M 2,2 L 3,2"/>
  <path d="M 1,3 L 1,4"/>
  <path d="M 3,2 L 4,2"/>
  <path d="M 2,3 L 3,3"/>
  <path d="M 1,4 L 2,4"/>
  <path d="M 3,3 L 4,3"/>
  <path d="M 3,3 L 3,4"/>
  <path d="M 2,4 L 3,4"/>
  <path d="M 3,4 L 4,4"/>
  </svg>

  <svg x="13" y="1" class="out3">
    <path d="M 1,1 L 2,1"/>
    <path d="M 1,1 L 1,2"/>
    <path d="M 2,1 L 3,1"/>
    <path d="M 1,2 L 1,3"/>
    <path d="M 3,1 L 4,1"/>
    <path d="M 2,2 L 2,3"/>
    <path d="M 1,3 L 2,3"/>
    <path d="M 1,3 L 1,4"/>
    <path d="M 3,2 L 3,3"/>
    <path d="M 2,3 L 3,3"/>
    <path d="M 1,4 L 2,4"/>
    <path d="M 3,3 L 4,3"/>
    <path d="M 3,3 L 3,4"/>
    <path d="M 4,2 L 4,3"/>
    <path d="M 4,3 L 4,4"/>
  </svg>

  <svg x="19" y="1" class="out4">
    <path d="M 1,1 L 2,1"/>
    <path d="M 2,1 L 2,2"/>
    <path d="M 1,2 L 2,2"/>
    <path d="M 3,1 L 4,1"/>
    <path d="M 3,1 L 3,2"/>
    <path d="M 2,2 L 2,3"/>
    <path d="M 2,2 L 3,2"/>
    <path d="M 1,3 L 1,4"/>
    <path d="M 1,3 L 2,3"/>
    <path d="M 3,2 L 3,3"/>
    <path d="M 3,3 L 4,3"/>
    <path d="M 3,3 L 3,4"/>
    <path d="M 2,4 L 3,4"/>
    <path d="M 3,4 L 4,4"/>
    <path d="M 4,2 L 4,3"/>
  </svg>

  <svg x="1" y="7" class="out5">
    <path d="M 1,1 L 1,2"/>
    <path d="M 2,1 L 2,2"/>
    <path d="M 1,2 L 2,2"/>
    <path d="M 3,1 L 3,2"/>
    <path d="M 3,1 L 4,1"/>
    <path d="M 2,2 L 2,3"/>
    <path d="M 1,3 L 1,4"/>
    <path d="M 3,2 L 4,2"/>
    <path d="M 3,2 L 3,3"/>
    <path d="M 2,3 L 2,4"/>
    <path d="M 1,4 L 2,4"/>
    <path d="M 3,3 L 4,3"/>
    <path d="M 3,3 L 3,4"/>
    <path d="M 2,4 L 3,4"/>
    <path d="M 3,4 L 4,4"/>
  </svg>

  <svg x="7" y="7" class="out6">
    <path d="M 1,1 L 2,1"/>
    <path d="M 1,1 L 1,2"/>
    <path d="M 2,1 L 3,1"/>
    <path d="M 1,2 L 1,3"/>
    <path d="M 3,1 L 4,1"/>
    <path d="M 2,2 L 2,3"/>
    <path d="M 1,3 L 2,3"/>
    <path d="M 1,3 L 1,4"/>
    <path d="M 3,2 L 3,3"/>
    <path d="M 2,3 L 3,3"/>
    <path d="M 1,4 L 2,4"/>
    <path d="M 3,3 L 4,3"/>
    <path d="M 3,3 L 3,4"/>
    <path d="M 4,2 L 4,3"/>
    <path d="M 4,3 L 4,4"/>
  </svg>

  <svg x="13" y="7" class="out7">
    <path d="M 1,1 L 1,2"/>
    <path d="M 1,1 L 2,1"/>
    <path d="M 2,1 L 3,1"/>
    <path d="M 2,1 L 2,2"/>
    <path d="M 3,1 L 4,1"/>
    <path d="M 3,1 L 3,2"/>
    <path d="M 2,2 L 2,3"/>
    <path d="M 1,3 L 1,4"/>
    <path d="M 3,2 L 4,2"/>
    <path d="M 2,3 L 3,3"/>
    <path d="M 1,4 L 2,4"/>
    <path d="M 3,3 L 3,4"/>
    <path d="M 2,4 L 3,4"/>
    <path d="M 3,4 L 4,4"/>
    <path d="M 4,2 L 4,3"/>
  </svg>

  <svg x="19" y="7" class="out8">
    <path d="M 1,1 L 1,2"/>
    <path d="M 2,1 L 3,1"/>
    <path d="M 2,1 L 2,2"/>
    <path d="M 1,2 L 2,2"/>
    <path d="M 2,2 L 3,2"/>
    <path d="M 1,3 L 2,3"/>
    <path d="M 1,3 L 1,4"/>
    <path d="M 3,2 L 3,3"/>
    <path d="M 2,3 L 3,3"/>
    <path d="M 1,4 L 2,4"/>
    <path d="M 3,3 L 4,3"/>
    <path d="M 3,3 L 3,4"/>
    <path d="M 4,1 L 4,2"/>
    <path d="M 4,2 L 4,3"/>
    <path d="M 4,3 L 4,4"/>
  </svg>

</svg>